ply
format ascii 1.0
element vertex 181
property float x
property float y
property float z
property uchar red
property uchar green
property uchar blue
end_header
-0.01200235 -0.10458936 0.25350346 255 12 12
-0.06657674 -0.08357949 0.02132933 255 12 12
-0.06688816 -0.08357554 0.02137986 255 12 12
-0.06728856 -0.08352832 0.02094485 255 12 12
-0.06820423 -0.08373595 0.02369450 255 12 12
-0.06930101 -0.08355812 0.02192789 255 12 12
-0.06971194 -0.08368977 0.02361815 255 12 12
-0.07014858 -0.08364641 0.02324032 255 12 12
-0.07034218 -0.08366936 0.02357321 255 12 12
-0.07062677 -0.08367075 0.02367870 255 12 12
-0.07072121 -0.08371636 0.02424929 255 12 12
-0.07174438 -0.08361138 0.02332389 255 12 12
-0.07762181 -0.08269123 0.01424634 255 12 12
-0.08061950 -0.08234111 0.01103052 255 12 12
-0.08425892 -0.08198465 0.00794005 255 12 12
-0.08476917 -0.08199717 0.00824817 255 12 12
-0.08508302 -0.08212993 0.00992124 255 12 12
-0.08538880 -0.08216416 0.01042297 255 12 12
-0.08542676 -0.08224164 0.01135399 255 12 12
-0.08572486 -0.08227714 0.01186848 255 12 12
-0.08602139 -0.08231339 0.01239122 255 12 12
-0.08632425 -0.08235070 0.01292856 255 12 12
-0.08675381 -0.08236726 0.01325934 255 12 12
-0.08733532 -0.08236398 0.01340240 255 12 12
-0.08823635 -0.08232088 0.01317293 255 12 12
-0.08914873 -0.08227914 0.01296305 255 12 12
-0.08974242 -0.08227898 0.01314685 255 12 12
-0.09083851 -0.08221981 0.01278774 255 12 12
-0.09143985 -0.08222186 0.01300019 255 12 12
-0.09222991 -0.08220604 0.01305963 255 12 12
-0.09319142 -0.08217150 0.01295054 255 12 12
-0.09344233 -0.08221566 0.01355299 255 12 12
-0.09332941 -0.08229920 0.01450873 255 12 12
-0.09296687 -0.08239869 0.01557557 255 12 12
-0.09185644 -0.08263728 0.01805871 255 12 12
-0.09163723 -0.08271777 0.01894495 255 12 12
-0.09181503 -0.08276328 0.01954043 255 12 12
-0.09110422 -0.08294171 0.02143490 255 12 12
-0.09130779 -0.08302796 0.02252181 255 12 12
-0.09220898 -0.08300122 0.02248643 255 12 12
-0.09331589 -0.08295818 0.02232203 255 12 12
-0.09443869 -0.08291769 0.02219292 255 12 12
-0.09777828 -0.08276023 0.02136947 255 12 12
-0.09851234 -0.08276034 0.02160035 255 12 12
-0.09903223 -0.08277820 0.02197494 255 12 12
-0.10020917 -0.08274989 0.02200720 255 12 12
-0.10073249 -0.08277108 0.02242218 255 12 12
-0.10080612 -0.08282402 0.02307328 255 12 12
-0.10427937 -0.08270236 0.02271643 255 12 12
-0.10547323 -0.08268449 0.02287779 255 12 12
-0.10621263 -0.08269786 0.02326772 255 12 12
-0.10627120 -0.08275736 0.02399186 255 12 12
-0.10585414 -0.08284481 0.02489890 255 12 12
-0.10542484 -0.08293223 0.02580166 255 12 12
-0.10791977 -0.08320232 0.02978612 255 12 12
-0.10859183 -0.08322751 0.03029519 255 12 12
-0.09829969 -0.08392639 0.03536697 255 12 12
-0.09792029 -0.08398693 0.03596646 255 12 12
-0.09753282 -0.08404742 0.03656292 255 12 12
-0.09728999 -0.08418021 0.03806221 255 12 12
-0.09736125 -0.08421900 0.03854467 255 12 12
-0.09842231 -0.08422471 0.03894437 255 12 12
-0.10201634 -0.08418754 0.03962748 255 12 12
-0.69213306 -0.06629176 0.01190372 255 12 12
-0.68878931 -0.06714091 0.02093140 255 12 12
-0.68556958 -0.06799204 0.03002147 255 12 12
-0.45699509 -0.07585363 0.05179127 255 12 12
-0.45584346 -0.07635908 0.05742729 255 12 12
-0.45662323 -0.07679240 0.06281176 255 12 12
-0.45781418 -0.07723761 0.06846587 255 12 12
-0.45767719 -0.07771276 0.07405986 255 12 12
-0.45621584 -0.07821321 0.07953973 255 12 12
-0.45143572 -0.07877803 0.08474510 255 12 12
-0.44560723 -0.07934056 0.08959556 255 12 12
-0.44591213 -0.07979897 0.09512909 255 12 12
-0.48507244 -0.08094845 0.12101412 255 12 12
-0.48705557 -0.08148055 0.12794684 255 12 12
-0.48010222 -0.08210447 0.13317359 255 12 12
-0.47293290 -0.08258643 0.13664887 255 12 12
-0.48463149 -0.08357604 0.15204785 255 12 12
-0.33890868 -0.08533691 0.12735809 255 12 12
-0.33028971 -0.08569838 0.12895046 255 12 12
-0.32215698 -0.08604107 0.13047207 255 12 12
-0.31455652 -0.08635403 0.13180753 255 12 12
-0.30668625 -0.08666167 0.13299541 255 12 12
-0.30025950 -0.08695374 0.13445012 255 12 12
-0.28617900 -0.08750879 0.13663070 255 12 12
-0.27337333 -0.08800146 0.13846995 255 12 12
-0.26813212 -0.08824125 0.13967528 255 12 12
-0.26209392 -0.08848606 0.14069085 255 12 12
-0.25774231 -0.08872160 0.14212399 255 12 12
-0.25317068 -0.08894415 0.14333421 255 12 12
-0.24707000 -0.08912686 0.14359364 255 12 12
-0.24310027 -0.08931288 0.14455874 255 12 12
-0.24205014 -0.08957908 0.14738821 255 12 12
-0.24098454 -0.08984083 0.15016010 255 12 12
-0.23942135 -0.09009671 0.15270675 255 12 12
-0.23779082 -0.09035644 0.15527793 255 12 12
-0.23719551 -0.09064103 0.15846788 255 12 12
-0.23695663 -0.09094049 0.16194570 255 12 12
-0.23583574 -0.09121608 0.16486453 255 12 12
-0.23510474 -0.09150157 0.16802265 255 12 12
-0.23388326 -0.09177895 0.17093126 255 12 12
-0.23284670 -0.09205964 0.17393699 255 12 12
-0.23230941 -0.09236998 0.17745053 255 12 12
-0.23159255 -0.09269757 0.18111257 255 12 12
-0.23049783 -0.09300105 0.18437038 255 12 12
-0.22919387 -0.09329221 0.18741664 255 12 12
-0.22854085 -0.09362544 0.19116549 255 12 12
-0.22779430 -0.09393278 0.19457809 255 12 12
-0.22722093 -0.09427632 0.19847415 255 12 12
-0.22625407 -0.09459833 0.20199189 255 12 12
-0.22623411 -0.09498881 0.20661790 255 12 12
-0.22595489 -0.09546002 0.21212068 255 12 12
-0.22454799 -0.09581147 0.21584996 255 12 12
-0.22344814 -0.09618202 0.21990186 255 12 12
-0.22188300 -0.09653731 0.22362716 255 12 12
-0.22160615 -0.09689837 0.22782385 255 12 12
-0.22067686 -0.09729099 0.23219086 255 12 12
-0.21965359 -0.09768701 0.23656894 255 12 12
-0.21884434 -0.09811128 0.24134897 255 12 12
-0.21736397 -0.09851145 0.24563321 255 12 12
-0.21688406 -0.09900021 0.25128136 255 12 12
-0.21632849 -0.09948988 0.25691672 255 12 12
-0.21458430 -0.09989562 0.26118453 255 12 12
-0.21454193 -0.10045859 0.26784988 255 12 12
-0.21454948 -0.10106241 0.27501546 255 12 12
-0.21317932 -0.10154637 0.28032825 255 12 12
-0.21246837 -0.10212127 0.28692595 255 12 12
-0.21151866 -0.10273305 0.29388660 255 12 12
-0.20805243 -0.10304149 0.29646153 255 12 12
-0.20376660 -0.10323545 0.29742191 255 12 12
-0.19929579 -0.10341289 0.29812863 255 12 12
-0.19400994 -0.10349922 0.29749947 255 12 12
-0.18880277 -0.10355041 0.29647797 255 12 12
-0.18311640 -0.10351117 0.29423389 255 12 12
-0.17689837 -0.10336196 0.29051888 255 12 12
-0.17135320 -0.10325633 0.28753133 255 12 12
-0.16656489 -0.10328129 0.28632975 255 12 12
-0.16161877 -0.10324244 0.28432180 255 12 12
-0.15659628 -0.10318049 0.28201598 255 12 12
-0.15210027 -0.10319517 0.28078382 255 12 12
-0.14732504 -0.10313132 0.27853278 255 12 12
-0.14294086 -0.10310763 0.27688053 255 12 12
-0.13886687 -0.10315100 0.27612076 255 12 12
-0.13474872 -0.10314797 0.27479673 255 12 12
-0.13076188 -0.10317750 0.27390001 255 12 12
-0.12654670 -0.10310475 0.27171851 255 12 12
-0.12247304 -0.10306416 0.26996287 255 12 12
-0.11917865 -0.10324206 0.27104294 255 12 12
-0.11552958 -0.10330244 0.27061778 255 12 12
-0.11165282 -0.10323961 0.26865987 255 12 12
-0.10802640 -0.10326886 0.26787261 255 12 12
-0.10453999 -0.10330932 0.26726216 255 12 12
-0.10093619 -0.10330782 0.26611716 255 12 12
-0.09758776 -0.10337708 0.26589142 255 12 12
-0.09453667 -0.10364306 0.26809245 255 12 12
-0.09096116 -0.10394522 0.27055877 255 12 12
-0.08747632 -0.10406984 0.27094707 255 12 12
-0.08391212 -0.10406610 0.26978791 255 12 12
-0.08030754 -0.10403823 0.26832990 255 12 12
-0.07725560 -0.10392541 0.26603690 255 12 12
-0.07390313 -0.10392365 0.26496743 255 12 12
-0.07066224 -0.10395657 0.26434430 255 12 12
-0.06737172 -0.10394495 0.26317714 255 12 12
-0.06399831 -0.10395245 0.26221100 255 12 12
-0.06077451 -0.10395183 0.26119536 255 12 12
-0.05755484 -0.10403112 0.26112893 255 12 12
-0.05435667 -0.10406390 0.26051746 255 12 12
-0.05118527 -0.10398695 0.25861259 255 12 12
-0.04809225 -0.10394634 0.25716344 255 12 12
-0.04484821 -0.10409430 0.25790409 255 12 12
-0.04155393 -0.10426034 0.25884346 255 12 12
-0.03860193 -0.10422655 0.25751920 255 12 12
-0.03553444 -0.10421197 0.25638685 255 12 12
-0.03233900 -0.10432250 0.25669857 255 12 12
-0.02914864 -0.10438661 0.25646130 255 12 12
-0.02579678 -0.10438463 0.25538937 255 12 12
-0.02265456 -0.10439711 0.25455459 255 12 12
-0.01947822 -0.10442716 0.25391752 255 12 12
-0.01647454 -0.10438719 0.25250392 255 12 12
