ply
format ascii 1.0
element vertex 188
property float x
property float y
property float z
property uchar red
property uchar green
property uchar blue
end_header
0.14478677 -0.16991680 0.97945450 255 12 12
-0.05289890 -0.08266919 0.00625206 255 12 12
-0.05318348 -0.08258999 0.00540148 255 12 12
-0.05362022 -0.08254743 0.00503324 255 12 12
-0.05421673 -0.08256283 0.00540250 255 12 12
-0.05475820 -0.08255973 0.00553507 255 12 12
-0.05529480 -0.08255739 0.00567521 255 12 12
-0.05587467 -0.08257516 0.00606736 255 12 12
-0.05629378 -0.08251477 0.00548195 255 12 12
-0.05678996 -0.08249445 0.00539609 255 12 12
-0.05727686 -0.08247505 0.00531829 255 12 12
-0.05781040 -0.08247562 0.00549197 255 12 12
-0.05843166 -0.08249469 0.00591246 255 12 12
-0.05884736 -0.08241613 0.00511057 255 12 12
-0.06006570 -0.08256388 0.00724436 255 12 12
-0.06057342 -0.08265246 0.00845404 255 12 12
-0.06105203 -0.08267925 0.00892157 255 12 12
-0.06432798 -0.08376636 0.02284280 255 12 12
-0.06459573 -0.08376073 0.02285977 255 12 12
-0.06520662 -0.08368571 0.02216084 255 12 12
-0.06610192 -0.08362862 0.02176355 255 12 12
-0.06642026 -0.08360285 0.02155743 255 12 12
-0.06674452 -0.08357732 0.02135600 255 12 12
-0.06707463 -0.08355204 0.02115936 255 12 12
-0.06736246 -0.08367725 0.02273482 255 12 12
-0.06881319 -0.08362489 0.02256743 255 12 12
-0.06908430 -0.08362411 0.02264296 255 12 12
-0.06936002 -0.08362365 0.02272370 255 12 12
-0.06947968 -0.08366751 0.02328148 255 12 12
-0.06966358 -0.08368970 0.02360219 255 12 12
-0.07025838 -0.08373607 0.02433837 255 12 12
-0.07142980 -0.08369967 0.02427299 255 12 12
-0.07837381 -0.08258573 0.01323005 255 12 12
-0.08053608 -0.08236338 0.01126851 255 12 12
-0.08298938 -0.08207731 0.00864220 255 12 12
-0.08369549 -0.08204461 0.00847513 255 12 12
-0.08402152 -0.08207683 0.00895936 255 12 12
-0.08384618 -0.08219559 0.01031336 255 12 12
-0.08428629 -0.08220749 0.01059219 255 12 12
-0.08486057 -0.08219886 0.01066941 255 12 12
-0.08529585 -0.08221202 0.01096171 255 12 12
-0.08583534 -0.08220367 0.01103139 255 12 12
-0.08625697 -0.08221775 0.01133034 255 12 12
-0.08667465 -0.08223240 0.01163476 255 12 12
-0.08708831 -0.08224761 0.01194459 255 12 12
-0.08690772 -0.08234668 0.01306340 255 12 12
-0.08699774 -0.08240391 0.01377040 255 12 12
-0.08801957 -0.08233875 0.01331702 255 12 12
-0.08841917 -0.08235637 0.01365108 255 12 12
-0.09053804 -0.08223322 0.01285282 255 12 12
-0.09127364 -0.08221331 0.01284678 255 12 12
-0.09185088 -0.08221467 0.01304343 255 12 12
-0.09203934 -0.08225390 0.01356775 255 12 12
-0.09242731 -0.08227567 0.01394736 255 12 12
-0.09262405 -0.08231690 0.01449810 255 12 12
-0.09299977 -0.08233963 0.01488523 255 12 12
-0.09302748 -0.08240257 0.01564049 255 12 12
-0.09265480 -0.08250241 0.01670837 255 12 12
-0.09225193 -0.08260111 0.01775331 255 12 12
-0.09202306 -0.08268095 0.01862890 255 12 12
-0.09196773 -0.08274188 0.01933436 255 12 12
-0.09170484 -0.08282099 0.02019063 255 12 12
-0.09161403 -0.08288095 0.02087359 255 12 12
-0.09171415 -0.08292321 0.02140623 255 12 12
-0.09178756 -0.08296409 0.02191413 255 12 12
-0.09206594 -0.08298839 0.02228950 255 12 12
-0.09274684 -0.08297813 0.02238078 255 12 12
-0.09363585 -0.08295169 0.02234513 255 12 12
-0.09474980 -0.08291075 0.02220788 255 12 12
-0.09586728 -0.08287120 0.02208824 255 12 12
-0.09719880 -0.08281624 0.02185270 255 12 12
-0.09812214 -0.08279740 0.02191803 255 12 12
-0.09883510 -0.08279659 0.02213134 255 12 12
-0.10118970 -0.08278530 0.02273399 255 12 12
-0.10395471 -0.08270348 0.02262810 255 12 12
-0.10652001 -0.08264616 0.02275055 255 12 12
-0.10679205 -0.08268783 0.02332990 255 12 12
-0.10386218 -0.08298611 0.02595203 255 12 12
-0.10458428 -0.08330819 0.02999886 255 12 12
-0.10803669 -0.08323209 0.03017584 255 12 12
-0.10700917 -0.08333874 0.03111966 255 12 12
-0.09749250 -0.08393395 0.03520420 255 12 12
-0.09711031 -0.08399166 0.03576928 255 12 12
-0.09745301 -0.08401651 0.03617129 255 12 12
-0.09852493 -0.08401005 0.03642985 255 12 12
-0.09910584 -0.08402704 0.03681309 255 12 12
-0.09834586 -0.08417835 0.03837043 255 12 12
-0.09865690 -0.08420704 0.03880808 255 12 12
-0.09995569 -0.08420098 0.03914246 255 12 12
-0.10258567 -0.08423986 0.04042630 255 12 12
-0.64916778 -0.06850631 0.02473654 255 12 12
-0.67367528 -0.07119538 0.06430302 255 12 12
-0.67585297 -0.07183324 0.07255124 255 12 12
-0.68689939 -0.07228878 0.08141042 255 12 12
-0.68711055 -0.07297350 0.08959949 255 12 12
-0.59909043 -0.07776127 0.11886667 255 12 12
-0.58621354 -0.07867008 0.12562045 255 12 12
-0.57862388 -0.07938775 0.13176038 255 12 12
-0.57268520 -0.08007246 0.13802573 255 12 12
-0.56936819 -0.08072115 0.14468371 255 12 12
-0.56916035 -0.08123048 0.15066101 255 12 12
-0.62936633 -0.08204263 0.17912693 255 12 12
-0.62896470 -0.08271867 0.18702134 255 12 12
-0.62116792 -0.08343971 0.19313643 255 12 12
-0.61623857 -0.08412578 0.19973364 255 12 12
-0.61195108 -0.08480412 0.20643987 255 12 12
-0.60519610 -0.08547746 0.21231503 255 12 12
-0.59795415 -0.08612559 0.21773879 255 12 12
-0.59061418 -0.08677489 0.22314577 255 12 12
-0.58680858 -0.08741119 0.22950396 255 12 12
-0.58498361 -0.08806731 0.23671681 255 12 12
-0.58137154 -0.08872795 0.24342436 255 12 12
-0.57471350 -0.08934974 0.24871817 255 12 12
-0.56892922 -0.08996900 0.25425540 255 12 12
-0.56882322 -0.09063797 0.26215835 255 12 12
-0.56813903 -0.09130780 0.26989073 255 12 12
-0.56756404 -0.09198535 0.27774873 255 12 12
-0.57092258 -0.09272573 0.28758251 255 12 12
-0.57254007 -0.09345726 0.29676674 255 12 12
-0.56942247 -0.09419566 0.30455136 255 12 12
-0.56736006 -0.09489672 0.31222310 255 12 12
-0.57174896 -0.09573211 0.32350623 255 12 12
-0.50466563 -0.10997063 0.47143812 255 12 12
-0.50190767 -0.11078735 0.48026429 255 12 12
-0.49528215 -0.11156935 0.48746899 255 12 12
-0.48957061 -0.11226597 0.49394670 255 12 12
-0.48308503 -0.11291488 0.49961627 255 12 12
-0.47702293 -0.11359186 0.50575124 255 12 12
-0.47238600 -0.11419741 0.51148471 255 12 12
-0.46624649 -0.11483004 0.51706943 255 12 12
-0.45939298 -0.11540988 0.52180444 255 12 12
-0.45342406 -0.11605646 0.52760799 255 12 12
-0.45016165 -0.11694902 0.53717618 255 12 12
-0.48745395 -0.12543039 0.64945655 255 12 12
-0.47787215 -0.12600616 0.65329004 255 12 12
-0.46554308 -0.12626395 0.65249200 255 12 12
-0.45449021 -0.12665573 0.65368262 255 12 12
-0.44483326 -0.12714706 0.65649089 255 12 12
-0.43474435 -0.12760978 0.65882454 255 12 12
-0.42508321 -0.12807579 0.66133114 255 12 12
-0.41562075 -0.12858709 0.66443708 255 12 12
-0.40816517 -0.12927584 0.67027592 255 12 12
-0.40126452 -0.13008012 0.67765886 255 12 12
-0.39319742 -0.13074079 0.68297327 255 12 12
-0.38404502 -0.13125211 0.68617640 255 12 12
-0.37419838 -0.13184420 0.69012071 255 12 12
-0.36522539 -0.13241129 0.69404162 255 12 12
-0.35650816 -0.13301878 0.69852175 255 12 12
-0.34663726 -0.13343450 0.70036607 255 12 12
-0.33693856 -0.13378204 0.70145553 255 12 12
-0.32828836 -0.13439498 0.70602123 255 12 12
-0.31947740 -0.13493789 0.70970605 255 12 12
-0.31060391 -0.13551770 0.71380902 255 12 12
-0.30243190 -0.13620239 0.71937555 255 12 12
-0.29372797 -0.13683831 0.72419711 255 12 12
-0.28512343 -0.13745716 0.72884730 255 12 12
-0.27617254 -0.13806078 0.73320856 255 12 12
-0.26770518 -0.13880317 0.73936721 255 12 12
-0.21179116 -0.13168669 0.63745425 255 12 12
-0.20456075 -0.13230407 0.64251683 255 12 12
-0.19732488 -0.13301984 0.64874494 255 12 12
-0.19006091 -0.13370562 0.65460841 255 12 12
-0.18230513 -0.13431727 0.65943861 255 12 12
-0.17346477 -0.13498496 0.66459451 255 12 12
-0.16534989 -0.13561137 0.66948747 255 12 12
-0.15708252 -0.13621209 0.67402816 255 12 12
-0.14877409 -0.13684636 0.67895381 255 12 12
-0.14170377 -0.13776365 0.68762443 255 12 12
-0.07549623 -0.16893146 1.03666550 255 12 12
-0.06191294 -0.16889438 1.03197700 255 12 12
-0.04871024 -0.16893717 1.02835511 255 12 12
-0.03534220 -0.16894795 1.02430175 255 12 12
-0.02206057 -0.16898330 1.02056685 255 12 12
-0.00884735 -0.16904379 1.01715155 255 12 12
0.00396377 -0.16901752 1.01283292 255 12 12
0.01695430 -0.16900100 1.00857369 255 12 12
0.03005770 -0.16916103 1.00637365 255 12 12
0.04306182 -0.16926184 1.00350212 255 12 12
0.05568217 -0.16929897 0.99999523 255 12 12
0.06855727 -0.16936751 0.99678126 255 12 12
0.08210974 -0.16940858 0.99302952 255 12 12
0.09526961 -0.16953411 0.99040258 255 12 12
0.10821555 -0.16968404 0.98813200 255 12 12
0.12110034 -0.16968967 0.98416866 255 12 12
0.13344571 -0.16980336 0.98165596 255 12 12
0.14637844 -0.16995027 0.97935364 255 12 12
0.15905458 -0.16999380 0.97590527 255 12 12
0.17167614 -0.17002155 0.97228668 255 12 12
