ply
format ascii 1.0
element vertex 192
property float x
property float y
property float z
property uchar red
property uchar green
property uchar blue
end_header
0.13140010 -0.16946384 0.97826798 255 12 12
0.14559962 -0.16953568 0.97467895 255 12 12
0.15953975 -0.16960822 0.97117932 255 12 12
0.17392279 -0.16975086 0.96837272 255 12 12
0.18788937 -0.16982915 0.96493299 255 12 12
0.20205801 -0.16988900 0.96121132 255 12 12
0.21563096 -0.16984105 0.95639720 255 12 12
0.22929192 -0.16975194 0.95106714 255 12 12
0.24332792 -0.16984165 0.94774114 255 12 12
0.25791130 -0.16999933 0.94505032 255 12 12
0.27249957 -0.17020420 0.94291788 255 12 12
0.28752359 -0.17043189 0.94091973 255 12 12
0.30250841 -0.17068491 0.93923446 255 12 12
0.31805980 -0.17098123 0.93788559 255 12 12
0.33411872 -0.17141200 0.93797296 255 12 12
0.31536502 -0.15699082 0.77275755 255 12 12
0.32650986 -0.15678964 0.76688505 255 12 12
0.33969763 -0.15659985 0.76050869 255 12 12
0.35141854 -0.15641817 0.75468727 255 12 12
0.36266977 -0.15615418 0.74803638 255 12 12
0.37368227 -0.15585124 0.74099805 255 12 12
0.38360445 -0.15565799 0.73560204 255 12 12
0.39500401 -0.15548124 0.72993964 255 12 12
0.40633485 -0.15528704 0.72409174 255 12 12
-0.02242810 -0.08488967 0.02306341 255 12 12
-0.01246371 -0.08448650 0.01516386 255 12 12
-0.01463356 -0.08436489 0.01439978 255 12 12
-0.01507937 -0.08429117 0.01366472 255 12 12
-0.01591737 -0.08423571 0.01326886 255 12 12
-0.02222223 -0.08418400 0.01462745 255 12 12
-0.02307724 -0.08413295 0.01428928 255 12 12
-0.02654021 -0.08410854 0.01508286 255 12 12
-0.03149783 -0.08409741 0.01650146 255 12 12
-0.03246835 -0.08407363 0.01652297 255 12 12
-0.03288016 -0.08402367 0.01605908 255 12 12
-0.03271021 -0.08395019 0.01513423 255 12 12
-0.03277318 -0.08388145 0.01433835 255 12 12
-0.03320240 -0.08383282 0.01389571 255 12 12
-0.03382222 -0.08379397 0.01362870 255 12 12
-0.03343532 -0.08363121 0.01157687 255 12 12
-0.03405627 -0.08359526 0.01134458 255 12 12
-0.03385755 -0.08350250 0.01018195 255 12 12
-0.03424946 -0.08343566 0.00951163 255 12 12
-0.03459939 -0.08337418 0.00889174 255 12 12
-0.03671243 -0.08336445 0.00943724 255 12 12
-0.04840621 -0.08398093 0.02040830 255 12 12
-0.05007480 -0.08397418 0.02085009 255 12 12
-0.04966903 -0.08378698 0.01850238 255 12 12
-0.04933914 -0.08357298 0.01586048 255 12 12
-0.04870955 -0.08328832 0.01228659 255 12 12
-0.04878429 -0.08319111 0.01115669 255 12 12
-0.04866742 -0.08294687 0.00822268 255 12 12
-0.04997104 -0.08264663 0.00506861 255 12 12
-0.05069233 -0.08265160 0.00535327 255 12 12
-0.05156191 -0.08269359 0.00612333 255 12 12
-0.05207072 -0.08264530 0.00570964 255 12 12
-0.05256894 -0.08259836 0.00530857 255 12 12
-0.05326789 -0.08260762 0.00563711 255 12 12
-0.05501613 -0.08254821 0.00547910 255 12 12
-0.05547607 -0.08248521 0.00487551 255 12 12
-0.05596277 -0.08242179 0.00427544 255 12 12
-0.05645503 -0.08235889 0.00368326 255 12 12
-0.05701247 -0.08231541 0.00334181 255 12 12
-0.05767150 -0.08233246 0.00375011 255 12 12
-0.05835871 -0.08237038 0.00441494 255 12 12
-0.05975298 -0.08253228 0.00677167 255 12 12
-0.06114720 -0.08288667 0.01141194 255 12 12
-0.06311828 -0.08360647 0.02056763 255 12 12
-0.06346216 -0.08357657 0.02032052 255 12 12
-0.06380695 -0.08356809 0.02032768 255 12 12
-0.06507442 -0.08324580 0.01690076 255 12 12
-0.06623878 -0.08349946 0.02027414 255 12 12
-0.06658405 -0.08349446 0.02032282 255 12 12
-0.06692856 -0.08348991 0.02037666 255 12 12
-0.06714108 -0.08355128 0.02117117 255 12 12
-0.06754182 -0.08363277 0.02226319 255 12 12
-0.06873576 -0.08353839 0.02151700 255 12 12
-0.06905512 -0.08373356 0.02393229 255 12 12
-0.07238637 -0.08343498 0.02143210 255 12 12
-0.07300784 -0.08337254 0.02088570 255 12 12
-0.08119236 -0.08220897 0.00964203 255 12 12
-0.08347605 -0.08201538 0.00805973 255 12 12
-0.08415054 -0.08200650 0.00816540 255 12 12
-0.08449834 -0.08203957 0.00866647 255 12 12
-0.08461540 -0.08211687 0.00962016 255 12 12
-0.08613072 -0.08216204 0.01062997 255 12 12
-0.08636476 -0.08229964 0.01233554 255 12 12
-0.08729361 -0.08225543 0.01210152 255 12 12
-0.08742438 -0.08231388 0.01283587 255 12 12
-0.08787989 -0.08233276 0.01320237 255 12 12
-0.08896570 -0.08227090 0.01280805 255 12 12
-0.09007689 -0.08221113 0.01244661 255 12 12
-0.09088821 -0.08219402 0.01249736 255 12 12
-0.09134854 -0.08221715 0.01291570 255 12 12
-0.09347484 -0.08212860 0.01253026 255 12 12
-0.09348891 -0.08218856 0.01324609 255 12 12
-0.09355431 -0.08225240 0.01402382 255 12 12
-0.09360376 -0.08231629 0.01479724 255 12 12
-0.09279985 -0.08254373 0.01724394 255 12 12
-0.09280908 -0.08260836 0.01801355 255 12 12
-0.09260306 -0.08269090 0.01892828 255 12 12
-0.09277198 -0.08273694 0.01952731 255 12 12
-0.09252960 -0.08281891 0.02042397 255 12 12
-0.09227327 -0.08290087 0.02131612 255 12 12
-0.09259491 -0.08292862 0.02174588 255 12 12
-0.09291594 -0.08295746 0.02218838 255 12 12
-0.09364158 -0.08295224 0.02235341 255 12 12
-0.09677008 -0.08281015 0.02164637 255 12 12
-0.09751586 -0.08281083 0.02188773 255 12 12
-0.10071515 -0.08268446 0.02138925 255 12 12
-0.10168728 -0.08267455 0.02157577 255 12 12
-0.10222356 -0.08269824 0.02202450 255 12 12
-0.10253398 -0.08273859 0.02260022 255 12 12
-0.10372641 -0.08271806 0.02272969 255 12 12
-0.10469915 -0.08271513 0.02299918 255 12 12
-0.10567262 -0.08271422 0.02329284 255 12 12
-0.10620215 -0.08274635 0.02383964 255 12 12
-0.10626158 -0.08280757 0.02458450 255 12 12
-0.10561201 -0.08291051 0.02560249 255 12 12
-0.09932084 -0.08345179 0.03005603 255 12 12
-0.09974858 -0.08347843 0.03050587 255 12 12
-0.10631293 -0.08323451 0.02966548 255 12 12
-0.10886411 -0.08322398 0.03033844 255 12 12
-0.10760674 -0.08334734 0.03140865 255 12 12
-0.09795212 -0.08399883 0.03611759 255 12 12
-0.09928739 -0.08398957 0.03642535 255 12 12
-0.09963315 -0.08402241 0.03692311 255 12 12
-0.09782927 -0.08418505 0.03828830 255 12 12
-0.10241759 -0.08409747 0.03868449 255 12 12
-0.10198251 -0.08415998 0.03928995 255 12 12
-0.69615609 -0.06583419 0.00773379 255 12 12
-0.69388615 -0.06668721 0.01714336 255 12 12
-0.45728351 -0.07474477 0.03872696 255 12 12
-0.45532082 -0.07529262 0.04461229 255 12 12
-0.45452113 -0.07579772 0.05035422 255 12 12
-0.45388344 -0.07630620 0.05618701 255 12 12
-0.45342254 -0.07678271 0.06169577 255 12 12
-0.45137401 -0.07731020 0.06731276 255 12 12
-0.44600457 -0.07789953 0.07262454 255 12 12
-0.44130984 -0.07846395 0.07785201 255 12 12
-0.44002413 -0.07895860 0.08331791 255 12 12
-0.44362202 -0.07937262 0.08935489 255 12 12
-0.48409643 -0.08034293 0.11352552 255 12 12
-0.48964554 -0.08082828 0.12101897 255 12 12
-0.48404971 -0.08142902 0.12639532 255 12 12
-0.50069219 -0.08239856 0.14310261 255 12 12
-0.50185545 -0.08296292 0.15016154 255 12 12
-0.49395084 -0.08357526 0.15495348 255 12 12
-0.48575958 -0.08417197 0.15947028 255 12 12
-0.47917662 -0.08475879 0.16437278 255 12 12
-0.47448783 -0.08532140 0.16958068 255 12 12
-0.46878419 -0.08587545 0.17436940 255 12 12
-0.46255526 -0.08641798 0.17885725 255 12 12
-0.45722427 -0.08695209 0.18352611 255 12 12
-0.45395064 -0.08748747 0.18885353 255 12 12
-0.45246870 -0.08803124 0.19484082 255 12 12
-0.45043117 -0.08857274 0.20062747 255 12 12
-0.44872280 -0.08912853 0.20668652 255 12 12
-0.44948076 -0.08970275 0.21373563 255 12 12
-0.44988621 -0.09028226 0.22073737 255 12 12
-0.46443832 -0.09167997 0.24187021 255 12 12
-0.46169590 -0.09225600 0.24784597 255 12 12
-0.45709836 -0.09279856 0.25284447 255 12 12
-0.45878817 -0.09346263 0.26125105 255 12 12
-0.46530777 -0.09424740 0.27260003 255 12 12
-0.46576383 -0.09492290 0.28075632 255 12 12
-0.46243786 -0.09551684 0.28676203 255 12 12
-0.18746800 -0.14898310 0.83503703 255 12 12
-0.17636421 -0.14964644 0.83943325 255 12 12
-0.16478209 -0.15020739 0.84246524 255 12 12
-0.15291474 -0.15076373 0.84535327 255 12 12
-0.14120265 -0.15129942 0.84804505 255 12 12
-0.12940931 -0.15180197 0.85031810 255 12 12
-0.11764844 -0.15239393 0.85366202 255 12 12
-0.10603797 -0.15298754 0.85707262 255 12 12
-0.09411569 -0.15357604 0.86032512 255 12 12
-0.08255084 -0.15493783 0.87286298 255 12 12
-0.04282038 -0.16784342 1.01353745 255 12 12
-0.02839065 -0.16904831 1.02331793 255 12 12
-0.01436547 -0.16860842 1.01371272 255 12 12
-0.00051835 -0.16827298 1.00540221 255 12 12
0.01335307 -0.16819392 1.00012550 255 12 12
0.02694014 -0.16819734 0.99591637 255 12 12
0.04081717 -0.16829426 0.99272568 255 12 12
0.05481764 -0.16833314 0.98880784 255 12 12
0.06894991 -0.16865243 0.98817532 255 12 12
0.08331879 -0.16908473 0.98880942 255 12 12
0.09723467 -0.16923839 0.98627974 255 12 12
0.10938416 -0.16926990 0.98285346 255 12 12
0.12280123 -0.16932089 0.97926169 255 12 12
0.13605197 -0.16941768 0.97626539 255 12 12
0.14956575 -0.16952126 0.97326737 255 12 12
