ply
format ascii 1.0
element vertex 91
property float x
property float y
property float z
property uchar red
property uchar green
property uchar blue
end_header
-0.02073045 -0.10032309 0.20562187 255 12 12
-0.07878107 -0.08328086 0.02160390 255 12 12
-0.07894513 -0.08331256 0.02203129 255 12 12
-0.07910009 -0.08334452 0.02245882 255 12 12
-0.07940021 -0.08335614 0.02269063 255 12 12
-0.07969138 -0.08336799 0.02292225 255 12 12
-0.07982495 -0.08340084 0.02335370 255 12 12
-0.08012281 -0.08341417 0.02360506 255 12 12
-0.08057162 -0.08340740 0.02366505 255 12 12
-0.08116748 -0.08364579 0.02667956 255 12 12
-0.08158745 -0.08364228 0.02676928 255 12 12
-0.08033668 -0.08384186 0.02874568 255 12 12
-0.08094683 -0.08382169 0.02869726 255 12 12
-0.08077012 -0.08390857 0.02967262 255 12 12
-0.08927923 -0.08363042 0.02903441 255 12 12
-0.09347678 -0.08347070 0.02845246 255 12 12
-0.09437038 -0.08345791 0.02858024 255 12 12
-0.09481192 -0.08347633 0.02893688 255 12 12
-0.10374380 -0.08319065 0.02834152 255 12 12
-0.10790565 -0.08312878 0.02890938 255 12 12
-0.10763245 -0.08320271 0.02970086 255 12 12
-0.10735626 -0.08327882 0.03051743 255 12 12
-0.10826366 -0.08329309 0.03097050 255 12 12
-0.11054867 -0.08330432 0.03181843 255 12 12
-0.11021476 -0.08337679 0.03257379 255 12 12
-0.11085467 -0.08340841 0.03314902 255 12 12
-0.11791837 -0.08330928 0.03418236 255 12 12
-0.12435482 -0.08320467 0.03495459 255 12 12
-0.12422450 -0.08328638 0.03588323 255 12 12
-0.12423969 -0.08350629 0.03849673 255 12 12
-0.35174005 -0.07918410 0.05837952 255 12 12
-0.35348437 -0.07951289 0.06282569 255 12 12
-0.35815523 -0.07978322 0.06749359 255 12 12
-0.38069048 -0.08013079 0.07866541 255 12 12
-0.39125977 -0.08115232 0.09408990 255 12 12
-0.39493487 -0.08151673 0.09956245 255 12 12
-0.87713169 -0.08334965 0.27212868 255 12 12
-0.87848152 -0.08443849 0.28546787 255 12 12
-0.87927433 -0.08549946 0.29830240 255 12 12
-0.87639441 -0.08660844 0.31055760 255 12 12
-0.87198685 -0.08769539 0.32207373 255 12 12
-0.87250883 -0.08882225 0.33560514 255 12 12
-0.87195311 -0.08993549 0.34863792 255 12 12
-0.86877549 -0.09106273 0.36101669 255 12 12
-0.86457197 -0.09216424 0.37276929 255 12 12
-0.86699623 -0.09335354 0.38763647 255 12 12
-0.86631627 -0.09455197 0.40164097 255 12 12
-0.84826198 -0.09552078 0.40748713 255 12 12
-0.82840916 -0.09642577 0.41201366 255 12 12
-0.80770040 -0.09727326 0.41559028 255 12 12
-0.78265235 -0.09808204 0.41735045 255 12 12
-0.51243234 -0.09703847 0.32045075 255 12 12
-0.50113767 -0.09750374 0.32243750 255 12 12
-0.36246233 -0.09761246 0.28035238 255 12 12
-0.33125697 -0.09745730 0.26875125 255 12 12
-0.32450675 -0.09771598 0.26970866 255 12 12
-0.29392826 -0.09784969 0.26173053 255 12 12
-0.27047971 -0.09765553 0.25209285 255 12 12
-0.21870644 -0.09674057 0.22504484 255 12 12
-0.20674740 -0.09674130 0.22131300 255 12 12
-0.20318291 -0.09691130 0.22221482 255 12 12
-0.19720843 -0.09687102 0.21986827 255 12 12
-0.18633764 -0.09683640 0.21605737 255 12 12
-0.17059405 -0.09622223 0.20384707 255 12 12
-0.13847859 -0.09511625 0.18068152 255 12 12
-0.12412701 -0.09524886 0.17776584 255 12 12
-0.12070531 -0.09514425 0.17545455 255 12 12
-0.11733146 -0.09503361 0.17308672 255 12 12
-0.11440324 -0.09493847 0.17104215 255 12 12
-0.10036992 -0.09443455 0.16067477 255 12 12
-0.09863222 -0.09452496 0.16120373 255 12 12
-0.09726313 -0.09472555 0.16315519 255 12 12
-0.09497250 -0.09466427 0.16171177 255 12 12
-0.09294363 -0.09467484 0.16120251 255 12 12
-0.09131342 -0.09479411 0.16210756 255 12 12
-0.08645586 -0.09445215 0.15653154 255 12 12
-0.07809724 -0.09504220 0.16091690 255 12 12
-0.07510215 -0.09569771 0.16775656 255 12 12
-0.06173790 -0.09979039 0.21212867 255 12 12
-0.05912585 -0.10010723 0.21507051 255 12 12
-0.05653263 -0.10008427 0.21398693 255 12 12
-0.05409873 -0.09992827 0.21137503 255 12 12
-0.05181059 -0.09968181 0.20773555 255 12 12
-0.04617171 -0.10042176 0.21474997 255 12 12
-0.04319560 -0.10076867 0.21793455 255 12 12
-0.04055236 -0.10085316 0.21811017 255 12 12
-0.03806580 -0.10080492 0.21676008 255 12 12
-0.03510866 -0.10092938 0.21731171 255 12 12
-0.03218348 -0.10109227 0.21832917 255 12 12
-0.02955144 -0.10112042 0.21783985 255 12 12
-0.02708285 -0.10105791 0.21632612 255 12 12
