ply
format ascii 1.0
element vertex 109
property float x
property float y
property float z
property uchar red
property uchar green
property uchar blue
end_header
0.14970810 -0.16997451 0.97859975 255 12 12
-0.09814126 -0.08351736 0.03046499 255 12 12
-0.10529027 -0.08326841 0.02974771 255 12 12
-0.10803309 -0.08323115 0.03016365 255 12 12
-0.10723300 -0.08332217 0.03099319 255 12 12
-0.09831700 -0.08393237 0.03544335 255 12 12
-0.09884931 -0.08403261 0.03679892 255 12 12
-0.09907288 -0.08414147 0.03816031 255 12 12
-0.09938532 -0.08417005 0.03859709 255 12 12
-0.10069238 -0.08416855 0.03898810 255 12 12
-0.73861634 -0.06423432 0.00203499 255 12 12
-0.72813676 -0.06529824 0.01137859 255 12 12
-0.69904874 -0.06756879 0.02921641 255 12 12
-0.80585146 -0.06709031 0.05694591 255 12 12
-0.81186846 -0.06778208 0.06703461 255 12 12
-0.81227994 -0.06856294 0.07642674 255 12 12
-0.81255024 -0.06938299 0.08623973 255 12 12
-0.81094576 -0.07024313 0.09594187 255 12 12
-0.60758121 -0.07621979 0.10323552 255 12 12
-0.59411010 -0.07704147 0.10876983 255 12 12
-0.58628472 -0.07775117 0.11474153 255 12 12
-0.57993500 -0.07853412 0.12204365 255 12 12
-0.57512576 -0.07920021 0.12844144 255 12 12
-0.57146803 -0.07984485 0.13494483 255 12 12
-0.56969091 -0.08046502 0.14174613 255 12 12
-0.57190938 -0.08097613 0.14850350 255 12 12
-0.64052430 -0.08170886 0.17865742 255 12 12
-0.63697627 -0.08241365 0.18590875 255 12 12
-0.62705057 -0.08314136 0.19143707 255 12 12
-0.61924822 -0.08384359 0.19732738 255 12 12
-0.61503300 -0.08451178 0.20393580 255 12 12
-0.60925973 -0.08518955 0.21017055 255 12 12
-0.60179839 -0.08584394 0.21559988 255 12 12
-0.59352900 -0.08649771 0.22076924 255 12 12
-0.58762748 -0.08713063 0.22643180 255 12 12
-0.58584512 -0.08778624 0.23365190 255 12 12
-0.58354882 -0.08842725 0.24053804 255 12 12
-0.57668695 -0.08905122 0.24579412 255 12 12
-0.57122192 -0.08966226 0.25133361 255 12 12
-0.56932227 -0.09031364 0.25846682 255 12 12
-0.56869417 -0.09098133 0.26619140 255 12 12
-0.56749417 -0.09164837 0.27372920 255 12 12
-0.56918454 -0.09234541 0.28252702 255 12 12
-0.57223371 -0.09309004 0.29231444 255 12 12
-0.56999296 -0.09381003 0.30015494 255 12 12
-0.56622548 -0.09447753 0.30689526 255 12 12
-0.56617839 -0.09520138 0.31546770 255 12 12
-0.59861586 -0.09735416 0.35115230 255 12 12
-0.35071760 -0.10500741 0.36440644 255 12 12
-0.34779686 -0.10552447 0.36962687 255 12 12
-0.34268653 -0.10588883 0.37235101 255 12 12
-0.33691673 -0.10619918 0.37422798 255 12 12
-0.33100345 -0.10656879 0.37676323 255 12 12
-0.32559426 -0.10690923 0.37911000 255 12 12
-0.32001874 -0.10723017 0.38117351 255 12 12
-0.31458301 -0.10755690 0.38334936 255 12 12
-0.31010258 -0.10794822 0.38659030 255 12 12
-0.30505611 -0.10830330 0.38922426 255 12 12
-0.29965712 -0.10860390 0.39110154 255 12 12
-0.29442966 -0.10893349 0.39337648 255 12 12
-0.28922165 -0.10927893 0.39584563 255 12 12
-0.28395396 -0.10959660 0.39796655 255 12 12
-0.27866954 -0.10990819 0.40001014 255 12 12
-0.27362182 -0.11024332 0.40240698 255 12 12
-0.28261289 -0.11434764 0.45390957 255 12 12
-0.27869945 -0.11495459 0.45988590 255 12 12
-0.27275743 -0.11536339 0.46287695 255 12 12
-0.26689579 -0.11573472 0.46544869 255 12 12
-0.26080233 -0.11604360 0.46720712 255 12 12
-0.25458147 -0.11635289 0.46893046 255 12 12
-0.24929636 -0.11673294 0.47178604 255 12 12
-0.24411822 -0.11719049 0.47559437 255 12 12
-0.23840484 -0.11755942 0.47818402 255 12 12
-0.23238374 -0.11787131 0.48000078 255 12 12
-0.20362062 -0.11506394 0.43769992 255 12 12
-0.19711732 -0.11509067 0.43598293 255 12 12
-0.19165946 -0.11536393 0.43751753 255 12 12
-0.18702233 -0.11567543 0.43976246 255 12 12
-0.18198400 -0.11602389 0.44232041 255 12 12
-0.17680469 -0.11630745 0.44406432 255 12 12
-0.17181338 -0.11668434 0.44697427 255 12 12
-0.16664091 -0.11702007 0.44933923 255 12 12
-0.16142408 -0.11735140 0.45163818 255 12 12
-0.15638622 -0.11771126 0.45433153 255 12 12
-0.15128465 -0.11811068 0.45747429 255 12 12
-0.14585546 -0.11845348 0.45984283 255 12 12
-0.14044680 -0.11876735 0.46187459 255 12 12
-0.13512388 -0.11913519 0.46457339 255 12 12
-0.12962611 -0.11943968 0.46646606 255 12 12
-0.12394065 -0.11993575 0.47057270 255 12 12
-0.08342782 -0.16892298 1.03904571 255 12 12
-0.07005713 -0.16903624 1.03620732 255 12 12
-0.05677023 -0.16906933 1.03244392 255 12 12
-0.04357970 -0.16910605 1.02875383 255 12 12
-0.03051105 -0.16906194 1.02414293 255 12 12
-0.01751518 -0.16908539 1.02035617 255 12 12
-0.00459922 -0.16911333 1.01664780 255 12 12
0.00847318 -0.16910854 1.01250214 255 12 12
0.02124495 -0.16914592 1.00895090 255 12 12
0.03403520 -0.16925332 1.00622439 255 12 12
0.04676822 -0.16934505 1.00333002 255 12 12
0.05928349 -0.16931286 0.99903363 255 12 12
0.07180891 -0.16932971 0.99531579 255 12 12
0.08433387 -0.16937434 0.99192769 255 12 12
0.09691759 -0.16946886 0.98911307 255 12 12
0.11036227 -0.16962203 0.98672489 255 12 12
0.12311174 -0.16968775 0.98351677 255 12 12
0.13570511 -0.16980117 0.98092330 255 12 12
0.14840884 -0.16985754 0.97761854 255 12 12
