ply
format ascii 1.0
element vertex 138
property float x
property float y
property float z
property uchar red
property uchar green
property uchar blue
end_header
-0.01383034 -0.10362787 0.24266892 255 12 12
-0.06762926 -0.08354626 0.02126426 255 12 12
-0.06794427 -0.08365107 0.02260619 255 12 12
-0.06811704 -0.08367152 0.02290287 255 12 12
-0.06844542 -0.08364812 0.02272799 255 12 12
-0.06870884 -0.08364701 0.02279719 255 12 12
-0.06884116 -0.08369017 0.02335052 255 12 12
-0.06905238 -0.08371164 0.02367140 255 12 12
-0.06938880 -0.08368950 0.02351396 255 12 12
-0.06956985 -0.08371167 0.02383352 255 12 12
-0.06991034 -0.08369017 0.02368502 255 12 12
-0.07086780 -0.08358233 0.02270513 255 12 12
-0.07104686 -0.08360580 0.02303961 255 12 12
-0.07113069 -0.08365153 0.02360830 255 12 12
-0.07202983 -0.08356850 0.02290449 255 12 12
-0.07382259 -0.08331294 0.02043351 255 12 12
-0.07581701 -0.08308524 0.01835615 255 12 12
-0.07808094 -0.08281742 0.01588703 255 12 12
-0.07859977 -0.08277984 0.01560346 255 12 12
-0.07909340 -0.08276618 0.01559583 255 12 12
-0.07946299 -0.08277455 0.01581073 255 12 12
-0.07954404 -0.08289948 0.01731807 255 12 12
-0.07976185 -0.08293033 0.01775221 255 12 12
-0.07954853 -0.08302461 0.01880399 255 12 12
-0.07846473 -0.08329602 0.02168474 255 12 12
-0.07799248 -0.08346115 0.02349600 255 12 12
-0.07886430 -0.08338840 0.02290572 255 12 12
-0.07914694 -0.08339947 0.02312538 255 12 12
-0.07995482 -0.08343413 0.02378926 255 12 12
-0.08196843 -0.08327857 0.02257361 255 12 12
-0.08207432 -0.08331241 0.02300821 255 12 12
-0.08217196 -0.08334639 0.02344189 255 12 12
-0.08225075 -0.08337991 0.02386412 255 12 12
-0.08250931 -0.08339467 0.02412008 255 12 12
-0.08228417 -0.08350170 0.02531940 255 12 12
-0.08016011 -0.08379753 0.02816456 255 12 12
-0.08017264 -0.08383014 0.02855531 255 12 12
-0.08017775 -0.08386274 0.02894364 255 12 12
-0.08016788 -0.08389474 0.02932019 255 12 12
-0.09166029 -0.08354191 0.02872911 255 12 12
-0.09429749 -0.08344698 0.02842777 255 12 12
-0.09449811 -0.08347746 0.02885217 255 12 12
-0.09445713 -0.08352163 0.02936338 255 12 12
-0.09781954 -0.08339937 0.02896462 255 12 12
-0.09777679 -0.08344726 0.02951942 255 12 12
-0.10119309 -0.08334383 0.02936096 255 12 12
-0.10208369 -0.08334227 0.02962101 255 12 12
-0.10409423 -0.08333019 0.03010652 255 12 12
-0.10355162 -0.08340904 0.03087220 255 12 12
-0.10395138 -0.08343709 0.03132999 255 12 12
-0.10483037 -0.08344287 0.03167359 255 12 12
-0.10114240 -0.08376655 0.03435993 255 12 12
-0.10174933 -0.08378507 0.03476944 255 12 12
-0.10539465 -0.08371831 0.03511766 255 12 12
-0.10599278 -0.08374259 0.03559269 255 12 12
-0.11038994 -0.08367269 0.03613884 255 12 12
-0.11073160 -0.08371496 0.03674721 255 12 12
-0.88516185 -0.08806836 0.33061921 255 12 12
-0.87084599 -0.08906664 0.33798433 255 12 12
-0.85679826 -0.09001891 0.34488735 255 12 12
-0.84146447 -0.09095707 0.35122080 255 12 12
-0.82425665 -0.09185011 0.35643284 255 12 12
-0.63058862 -0.09254153 0.30405973 255 12 12
-0.62118966 -0.09318833 0.30879303 255 12 12
-0.61079507 -0.09381953 0.31302977 255 12 12
-0.59957253 -0.09440237 0.31643400 255 12 12
-0.59049365 -0.09501780 0.32089518 255 12 12
-0.58335699 -0.09570193 0.32677897 255 12 12
-0.57544648 -0.09632918 0.33174587 255 12 12
-0.48704952 -0.09640077 0.30494631 255 12 12
-0.47543056 -0.09676016 0.30557560 255 12 12
-0.46331845 -0.09706629 0.30541891 255 12 12
-0.45017778 -0.09732634 0.30439371 255 12 12
-0.41953745 -0.09760204 0.29808073 255 12 12
-0.41609999 -0.09809020 0.30279667 255 12 12
-0.40993691 -0.09848907 0.30560088 255 12 12
-0.39172737 -0.09901700 0.30616826 255 12 12
-0.37191427 -0.09937768 0.30424984 255 12 12
-0.36429305 -0.09964636 0.30505349 255 12 12
-0.29265077 -0.09772160 0.25981143 255 12 12
-0.28979221 -0.09810765 0.26349708 255 12 12
-0.28317061 -0.09824696 0.26307865 255 12 12
-0.27573378 -0.09832050 0.26162490 255 12 12
-0.24844456 -0.09801640 0.24948181 255 12 12
-0.24698383 -0.09838761 0.25342866 255 12 12
-0.24344998 -0.09862502 0.25513972 255 12 12
-0.23783396 -0.09870169 0.25429273 255 12 12
-0.23556224 -0.09902506 0.25741833 255 12 12
-0.23114156 -0.09916726 0.25772265 255 12 12
-0.22577750 -0.09923093 0.25680012 255 12 12
-0.22302496 -0.09952868 0.25947146 255 12 12
-0.21177458 -0.09954509 0.25614727 255 12 12
-0.20829276 -0.09973522 0.25731377 255 12 12
-0.20184547 -0.09960905 0.25380040 255 12 12
-0.19873251 -0.10035561 0.26168336 255 12 12
-0.18641764 -0.10065560 0.26139035 255 12 12
-0.18258770 -0.10076630 0.26150563 255 12 12
-0.17831047 -0.10080910 0.26067555 255 12 12
-0.17310171 -0.10077035 0.25858668 255 12 12
-0.17020018 -0.10099183 0.26030652 255 12 12
-0.16737889 -0.10122689 0.26221270 255 12 12
-0.16390075 -0.10136153 0.26272200 255 12 12
-0.16194286 -0.10167108 0.26578188 255 12 12
-0.15436667 -0.10177576 0.26465407 255 12 12
-0.15151587 -0.10199217 0.26632962 255 12 12
-0.14662631 -0.10182882 0.26286249 255 12 12
-0.14281063 -0.10264843 0.27139222 255 12 12
-0.13323015 -0.10221553 0.26326005 255 12 12
-0.13086744 -0.10253679 0.26633212 255 12 12
-0.12110166 -0.10282624 0.26671146 255 12 12
-0.11774513 -0.10287669 0.26626006 255 12 12
-0.11491467 -0.10309340 0.26794557 255 12 12
-0.11141713 -0.10307821 0.26667143 255 12 12
-0.10800154 -0.10309861 0.26584517 255 12 12
-0.10486211 -0.10318909 0.26593661 255 12 12
-0.10155845 -0.10319740 0.26500183 255 12 12
-0.09380728 -0.10271650 0.25687235 255 12 12
-0.09067059 -0.10277078 0.25653523 255 12 12
-0.08176245 -0.10289462 0.25521810 255 12 12
-0.07904500 -0.10319479 0.25792906 255 12 12
-0.07621185 -0.10343215 0.25985882 255 12 12
-0.07329407 -0.10360565 0.26100441 255 12 12
-0.07010762 -0.10346837 0.25837920 255 12 12
-0.06417692 -0.10392671 0.26196156 255 12 12
-0.06114415 -0.10383747 0.25995433 255 12 12
-0.05825332 -0.10407727 0.26189489 255 12 12
-0.05528079 -0.10410573 0.26130278 255 12 12
-0.05236072 -0.10406652 0.25992431 255 12 12
-0.04928645 -0.10427958 0.26149027 255 12 12
-0.04616322 -0.10436385 0.26151304 255 12 12
-0.04334745 -0.10420675 0.25876870 255 12 12
-0.04026931 -0.10436731 0.25971065 255 12 12
-0.03686448 -0.10469893 0.26257978 255 12 12
-0.03432189 -0.10448449 0.25924051 255 12 12
-0.02634405 -0.10416517 0.25295707 255 12 12
-0.02304047 -0.10424355 0.25285358 255 12 12
-0.02001097 -0.10429379 0.25250207 255 12 12
-0.01671791 -0.10447137 0.25357874 255 12 12
