ply
format ascii 1.0
element vertex 179
property float x
property float y
property float z
property uchar red
property uchar green
property uchar blue
end_header
0.03188638 -0.11799512 0.39881095 255 12 12
-0.06380689 -0.08379917 0.02306903 255 12 12
-0.06407721 -0.08379292 0.02307942 255 12 12
-0.06436704 -0.08376552 0.02284505 255 12 12
-0.06466910 -0.08373819 0.02261529 255 12 12
-0.06576926 -0.08373957 0.02297573 255 12 12
-0.06604625 -0.08373541 0.02301306 255 12 12
-0.06701941 -0.08365931 0.02241468 255 12 12
-0.06771710 -0.08371728 0.02332063 255 12 12
-0.07004058 -0.08373509 0.02425862 255 12 12
-0.07100592 -0.08362806 0.02329089 255 12 12
-0.07118441 -0.08365195 0.02363003 255 12 12
-0.07636570 -0.08292961 0.01668143 255 12 12
-0.08054225 -0.08231586 0.01070673 255 12 12
-0.08226089 -0.08218237 0.00966072 255 12 12
-0.08260216 -0.08221412 0.01014405 255 12 12
-0.08306260 -0.08222500 0.01041716 255 12 12
-0.08351920 -0.08223652 0.01069661 255 12 12
-0.08424155 -0.08220625 0.01056347 255 12 12
-0.08469604 -0.08221920 0.01085925 255 12 12
-0.08486508 -0.08227487 0.01157253 255 12 12
-0.08501845 -0.08233080 0.01228411 255 12 12
-0.08466616 -0.08252583 0.01448755 255 12 12
-0.08536156 -0.08249907 0.01438756 255 12 12
-0.08607161 -0.08247359 0.01430744 255 12 12
-0.08648157 -0.08249035 0.01463446 255 12 12
-0.08687911 -0.08250737 0.01496078 255 12 12
-0.08914743 -0.08236244 0.01395092 255 12 12
-0.08971417 -0.08236199 0.01412284 255 12 12
-0.09028896 -0.08236279 0.01431212 255 12 12
-0.09102853 -0.08234435 0.01432461 255 12 12
-0.09178069 -0.08232747 0.01435968 255 12 12
-0.09252933 -0.08231131 0.01440208 255 12 12
-0.09167429 -0.08253160 0.01674799 255 12 12
-0.09167231 -0.08259340 0.01748053 255 12 12
-0.09166233 -0.08265562 0.01821553 255 12 12
-0.09144107 -0.08273594 0.01909921 255 12 12
-0.09074771 -0.08291357 0.02098953 255 12 12
-0.09103830 -0.08293641 0.02135144 255 12 12
-0.09093973 -0.08299666 0.02203529 255 12 12
-0.09122800 -0.08302105 0.02241484 255 12 12
-0.09151106 -0.08304591 0.02279826 255 12 12
-0.09181086 -0.08307327 0.02321662 255 12 12
-0.09444257 -0.08295577 0.02264587 255 12 12
-0.09577852 -0.08290064 0.02240967 255 12 12
-0.09669156 -0.08288007 0.02245133 255 12 12
-0.09719311 -0.08289536 0.02278960 255 12 12
-0.10078855 -0.08273520 0.02201413 255 12 12
-0.10130683 -0.08275647 0.02242857 255 12 12
-0.10203589 -0.08276235 0.02272634 255 12 12
-0.10254174 -0.08278504 0.02315380 255 12 12
-0.10371456 -0.08276309 0.02326019 255 12 12
-0.10513368 -0.08273091 0.02332227 255 12 12
-0.10541408 -0.08277369 0.02391755 255 12 12
-0.10410620 -0.08297425 0.02588776 255 12 12
-0.10108661 -0.08326437 0.02838496 255 12 12
-0.09820065 -0.08352942 0.03062670 255 12 12
-0.10699226 -0.08325905 0.03016910 255 12 12
-0.10716482 -0.08330380 0.03075387 255 12 12
-0.09580396 -0.08423611 0.03826062 255 12 12
-0.09717183 -0.08426342 0.03901239 255 12 12
-0.10125892 -0.08420376 0.03958307 255 12 12
-0.67895590 -0.06723188 0.01893492 255 12 12
-0.68375107 -0.06781558 0.02735930 255 12 12
-0.80892838 -0.06768071 0.06491238 255 12 12
-0.80857681 -0.06856120 0.07524781 255 12 12
-0.80881850 -0.06944619 0.08582227 255 12 12
-0.80742723 -0.07034926 0.09610039 255 12 12
-0.63727389 -0.07652616 0.11615739 255 12 12
-0.59824693 -0.07841216 0.12632453 255 12 12
-0.58345453 -0.07937940 0.13317222 255 12 12
-0.57545308 -0.08012788 0.13954894 255 12 12
-0.57203160 -0.08081719 0.14665617 255 12 12
-0.57046523 -0.08148685 0.15411052 255 12 12
-0.63230069 -0.08228683 0.18294173 255 12 12
-0.62620101 -0.08302097 0.18974316 255 12 12
-0.61737054 -0.08375364 0.19567293 255 12 12
-0.46010823 -0.08526853 0.16445574 255 12 12
-0.45601018 -0.08577475 0.16917938 255 12 12
-0.45256825 -0.08627620 0.17405156 255 12 12
-0.44785040 -0.08677915 0.17854249 255 12 12
-0.44241734 -0.08726142 0.18256443 255 12 12
-0.43834745 -0.08774251 0.18699866 255 12 12
-0.43469168 -0.08822105 0.19153225 255 12 12
-0.43043724 -0.08870981 0.19599984 255 12 12
-0.42617377 -0.08918278 0.20027715 255 12 12
-0.42281862 -0.08965054 0.20477690 255 12 12
-0.41845667 -0.09011209 0.20888796 255 12 12
-0.41432148 -0.09056113 0.21292162 255 12 12
-0.41054225 -0.09102063 0.21719066 255 12 12
-0.40676072 -0.09146618 0.22129357 255 12 12
-0.40310258 -0.09192021 0.22553555 255 12 12
-0.39892002 -0.09241055 0.23004443 255 12 12
-0.39510392 -0.09286417 0.23423220 255 12 12
-0.39166612 -0.09332337 0.23860446 255 12 12
-0.38795784 -0.09377366 0.24278650 255 12 12
-0.38489661 -0.09418710 0.24673371 255 12 12
-0.38532838 -0.09474097 0.25343934 255 12 12
-0.38859597 -0.09538168 0.26206226 255 12 12
-0.39223833 -0.09606698 0.27133139 255 12 12
-0.39581980 -0.09678600 0.28098152 255 12 12
-0.39865277 -0.09749218 0.29024512 255 12 12
-0.40228352 -0.09825162 0.30039011 255 12 12
-0.40667659 -0.09906847 0.31145466 255 12 12
-0.41136379 -0.09990270 0.32281736 255 12 12
-0.41660675 -0.10082028 0.33534263 255 12 12
-0.42183535 -0.10176072 0.34813462 255 12 12
-0.42781535 -0.10278964 0.36221141 255 12 12
-0.43832469 -0.10489127 0.39043047 255 12 12
-0.43327490 -0.10544452 0.39541438 255 12 12
-0.42520484 -0.10584391 0.39762816 255 12 12
-0.41445348 -0.10616969 0.39813017 255 12 12
-0.40530049 -0.10648443 0.39900117 255 12 12
-0.39773037 -0.10688000 0.40132600 255 12 12
-0.39100352 -0.10731918 0.40443212 255 12 12
-0.38432323 -0.10768620 0.40669663 255 12 12
-0.37717840 -0.10806149 0.40891407 255 12 12
-0.37003500 -0.10842591 0.41100293 255 12 12
-0.36305248 -0.10879165 0.41315770 255 12 12
-0.35653693 -0.10923749 0.41640886 255 12 12
-0.35019629 -0.10965620 0.41939295 255 12 12
-0.34289342 -0.10996668 0.42079199 255 12 12
-0.33579627 -0.11030114 0.42253992 255 12 12
-0.33201105 -0.11080554 0.42733977 255 12 12
-0.32831751 -0.11142179 0.43349515 255 12 12
-0.32271772 -0.11185748 0.43691231 255 12 12
-0.31626675 -0.11220252 0.43898784 255 12 12
-0.30950435 -0.11258752 0.44144001 255 12 12
-0.30305304 -0.11293837 0.44358440 255 12 12
-0.29659000 -0.11328092 0.44562660 255 12 12
-0.29048321 -0.11366050 0.44821958 255 12 12
-0.28482535 -0.11409446 0.45159805 255 12 12
-0.27911670 -0.11452312 0.45489776 255 12 12
-0.27290738 -0.11488323 0.45722764 255 12 12
-0.26722271 -0.11531615 0.46058545 255 12 12
-0.26090931 -0.11578168 0.46413335 255 12 12
-0.25438118 -0.11611241 0.46601502 255 12 12
-0.24823736 -0.11650170 0.46871158 255 12 12
-0.24205489 -0.11688452 0.47131926 255 12 12
-0.23611963 -0.11719851 0.47318777 255 12 12
-0.22999132 -0.11756134 0.47557520 255 12 12
-0.22382948 -0.11791772 0.47787569 255 12 12
-0.21746910 -0.11823232 0.47961854 255 12 12
-0.21136982 -0.11863521 0.48249031 255 12 12
-0.20533989 -0.11902587 0.48523880 255 12 12
-0.19918818 -0.11939270 0.48766642 255 12 12
-0.19292601 -0.11973507 0.48976933 255 12 12
-0.18616794 -0.11994127 0.49010175 255 12 12
-0.17936344 -0.12011985 0.49009190 255 12 12
-0.17329500 -0.12051533 0.49288552 255 12 12
-0.16739333 -0.12098142 0.49656880 255 12 12
-0.16102204 -0.12135289 0.49898282 255 12 12
-0.15477616 -0.12173206 0.50152743 255 12 12
-0.14856783 -0.12214437 0.50447687 255 12 12
-0.14233540 -0.12257095 0.50758812 255 12 12
-0.13506937 -0.12313621 0.51202126 255 12 12
-0.12844575 -0.12358148 0.51523173 255 12 12
-0.12159000 -0.12392074 0.51711210 255 12 12
-0.11474601 -0.12429309 0.51938870 255 12 12
-0.10903568 -0.12474460 0.52295903 255 12 12
-0.10247029 -0.12523912 0.52677207 255 12 12
-0.09582180 -0.12574920 0.53074369 255 12 12
-0.08912011 -0.12633684 0.53561885 255 12 12
-0.08189138 -0.12665857 0.53717459 255 12 12
-0.07453666 -0.12617667 0.52915734 255 12 12
-0.04374396 -0.11991974 0.44529886 255 12 12
-0.03860439 -0.11910497 0.43402551 255 12 12
-0.03369915 -0.11848890 0.42518267 255 12 12
-0.02900641 -0.11779883 0.41552838 255 12 12
-0.02476513 -0.11703066 0.40508888 255 12 12
-0.02023896 -0.11659892 0.39855142 255 12 12
-0.01535109 -0.11663215 0.39741681 255 12 12
-0.01020537 -0.11676915 0.39743257 255 12 12
-0.00513000 -0.11685659 0.39688242 255 12 12
0.00020380 -0.11706875 0.39773092 255 12 12
0.00601379 -0.11721529 0.39765213 255 12 12
0.01150097 -0.11737281 0.39780453 255 12 12
0.01702065 -0.11756687 0.39838025 255 12 12
0.02255332 -0.11771128 0.39836291 255 12 12
