ply
format ascii 1.0
element vertex 406
property float x
property float y
property float z
property uchar red
property uchar green
property uchar blue
end_header
0.00966685 0.02053202 0.88322862 255 12 12
0.02054661 0.02054158 0.88620375 255 12 12
0.03147147 0.02055047 0.88854365 255 12 12
0.04257969 0.02056094 0.89224192 255 12 12
0.05402849 0.02057143 0.89577673 255 12 12
0.06512721 0.02057942 0.89719824 255 12 12
0.07627303 0.02058729 0.89848007 255 12 12
0.08765658 0.02059675 0.90110889 255 12 12
0.09912018 0.02060611 0.90359123 255 12 12
0.11081450 0.02061651 0.90691380 255 12 12
0.12269163 0.02062740 0.91057606 255 12 12
0.13423738 0.02063523 0.91162014 255 12 12
0.14573686 0.02064235 0.91202472 255 12 12
0.15767227 0.02065169 0.91424141 255 12 12
0.16968801 0.02066090 0.91630004 255 12 12
0.18245655 0.02067356 0.92112216 255 12 12
0.19562204 0.02068619 0.92570521 255 12 12
0.20800022 0.02069533 0.92750086 255 12 12
0.22045587 0.02070434 0.92912962 255 12 12
0.23319124 0.02071410 0.93131144 255 12 12
0.24877973 0.02072444 0.93249388 255 12 12
0.26230393 0.02073346 0.93357080 255 12 12
0.27689994 0.02074712 0.93833351 255 12 12
0.29191899 0.02076068 0.94278503 255 12 12
0.30447592 0.02077242 0.94687624 255 12 12
0.31912031 0.02078499 0.95061453 255 12 12
0.33311664 0.02079552 0.95282904 255 12 12
0.34784568 0.02080716 0.95566747 255 12 12
0.36275689 0.02082041 0.95988296 255 12 12
0.37847420 0.02083476 0.96468471 255 12 12
0.39356119 0.02084648 0.96741173 255 12 12
0.40898288 0.02085865 0.97036583 255 12 12
0.42596536 0.02087254 0.97407099 255 12 12
0.44215464 0.02088496 0.97685140 255 12 12
0.45889334 0.02089903 0.98084877 255 12 12
0.47675490 0.02091476 0.98577400 255 12 12
0.49054883 0.02091979 0.98304418 255 12 12
0.50702346 0.02093078 0.98435879 255 12 12
0.52654660 0.02094959 0.99121949 255 12 12
0.54432177 0.02096260 0.99370024 255 12 12
0.56428915 0.02098095 0.99990901 255 12 12
0.58476479 0.02099904 1.00560667 255 12 12
0.60440039 0.02101505 1.00984919 255 12 12
0.62477706 0.02103140 1.01399898 255 12 12
0.64151339 0.02104934 1.02155187 255 12 12
0.66061680 0.02106417 1.02499305 255 12 12
0.68046520 0.02108065 1.02955182 255 12 12
0.70193990 0.02109929 1.03522198 255 12 12
0.72757390 0.02111748 1.03826587 255 12 12
0.75245969 0.02113957 1.04528791 255 12 12
0.77640539 0.02115889 1.05026975 255 12 12
0.79996728 0.02117666 1.05403412 255 12 12
0.82531937 0.02119713 1.05931322 255 12 12
0.85348701 0.02122206 1.06719543 255 12 12
0.88034871 0.02124357 1.07264186 255 12 12
0.90714488 0.02126410 1.07720961 255 12 12
0.93686236 0.02128901 1.08425135 255 12 12
0.96655202 0.02131289 1.09035368 255 12 12
0.99790755 0.02133869 1.09733999 255 12 12
1.03062482 0.02136580 1.10479393 255 12 12
1.06408074 0.02139373 1.11261284 255 12 12
1.09853212 0.02142158 1.11982706 255 12 12
1.13409958 0.02145081 1.12771399 255 12 12
1.17214537 0.02148222 1.13628688 255 12 12
1.21125055 0.02151341 1.14409028 255 12 12
1.24967927 0.02154299 1.15076885 255 12 12
1.29184981 0.02157711 1.15962497 255 12 12
1.33785684 0.02161567 1.17052553 255 12 12
1.38394007 0.02165290 1.18014686 255 12 12
1.43201644 0.02169160 1.19006389 255 12 12
1.48329380 0.02173341 1.20113764 255 12 12
1.53862697 0.02177938 1.21386570 255 12 12
1.59940153 0.02182370 1.22217647 255 12 12
1.65965702 0.02187049 1.23302715 255 12 12
1.72135834 0.02191807 1.24384266 255 12 12
1.78930734 0.02197124 1.25645126 255 12 12
1.85914603 0.02202956 1.27279159 255 12 12
2.09944150 0.02222084 1.32038759 255 12 12
2.71882644 0.02270643 1.43621641 255 12 12
2.76602243 0.02271340 1.41746641 255 12 12
2.61162768 0.02245189 1.25959182 255 12 12
2.57423012 0.02236865 1.20307406 255 12 12
2.53196508 0.02228191 1.14594405 255 12 12
2.49076637 0.02219809 1.09092064 255 12 12
2.45207569 0.02211857 1.03851714 255 12 12
2.41782516 0.02204517 0.98936308 255 12 12
2.38391497 0.02197354 0.94165671 255 12 12
1.99785679 0.02152650 0.73686702 255 12 12
2.23914981 0.02169357 0.76169598 255 12 12
2.22196611 0.02164419 0.72551140 255 12 12
2.19330859 0.02158297 0.68455848 255 12 12
2.16362555 0.02152340 0.64567508 255 12 12
2.13484683 0.02146644 0.60869869 255 12 12
2.11048495 0.02141366 0.57321343 255 12 12
2.08844376 0.02136511 0.54037434 255 12 12
2.06533182 0.02131579 0.50740237 255 12 12
2.04197767 0.02126710 0.47513287 255 12 12
2.01888494 0.02121944 0.44366694 255 12 12
1.99667133 0.02117264 0.41252947 255 12 12
1.97365604 0.02112660 0.38251834 255 12 12
0.54539460 0.01999398 0.10358477 255 12 12
0.53014672 0.01996709 0.08701179 255 12 12
1.84992328 0.02087543 0.21779752 255 12 12
1.83394330 0.02083856 0.19244760 255 12 12
1.81459383 0.02080047 0.16778158 255 12 12
1.79591992 0.02076340 0.14368994 255 12 12
1.77793339 0.02072731 0.12014009 255 12 12
1.76050364 0.02069530 0.10002467 255 12 12
1.74244411 0.02066068 0.07785996 255 12 12
1.72410073 0.02062690 0.05661905 255 12 12
1.70776138 0.02059429 0.03537518 255 12 12
1.69141864 0.02055956 0.01218666 255 12 12
1.67754237 0.02052872 -0.00873769 255 12 12
1.66366339 0.02049824 -0.02932759 255 12 12
1.64853852 0.02046745 -0.04954332 255 12 12
1.63469469 0.02043822 -0.06901435 255 12 12
1.62084891 0.02040883 -0.08862676 255 12 12
1.60705597 0.02038029 -0.10748426 255 12 12
1.59326098 0.02035159 -0.12648856 255 12 12
1.58069744 0.02032331 -0.14575703 255 12 12
1.56770685 0.02029562 -0.16426976 255 12 12
1.55351318 0.02026768 -0.18236556 255 12 12
1.54035607 0.02024050 -0.20030753 255 12 12
1.52774021 0.02021384 -0.21806585 255 12 12
1.51690081 0.02018817 -0.23586372 255 12 12
1.50364295 0.02016177 -0.25304655 255 12 12
1.49068903 0.02013575 -0.27003292 255 12 12
1.47926672 0.02011056 -0.28708232 255 12 12
1.46716655 0.02008534 -0.30379072 255 12 12
1.45488445 0.02006030 -0.32024745 255 12 12
1.44291128 0.02003558 -0.33656592 255 12 12
1.43173212 0.02001132 -0.35288347 255 12 12
1.41989137 0.01998706 -0.36885215 255 12 12
1.40691564 0.01996269 -0.38431910 255 12 12
0.02935392 0.01957337 -0.00765318 255 12 12
0.02936017 0.01957258 -0.00838578 255 12 12
0.02886565 0.01957161 -0.00900773 255 12 12
0.02837039 0.01957068 -0.00960530 255 12 12
0.02763099 0.01956969 -0.01011558 255 12 12
0.02387575 0.01956761 -0.01002933 255 12 12
0.02337914 0.01956676 -0.01054056 255 12 12
0.01777533 0.01956395 -0.01013230 255 12 12
0.01499583 0.01956239 -0.01008758 255 12 12
0.01406091 0.01956167 -0.01025004 255 12 12
0.01067257 0.01956035 -0.00966017 255 12 12
0.00778033 0.01955922 -0.00915611 255 12 12
0.00751789 0.01955860 -0.00958538 255 12 12
0.00682849 0.01955802 -0.00974280 255 12 12
0.00634972 0.01955744 -0.01002347 255 12 12
0.00770985 0.01955604 -0.01203523 255 12 12
0.00742543 0.01955543 -0.01244448 255 12 12
0.00599780 0.01955431 -0.01271286 255 12 12
0.00648758 0.01955349 -0.01372564 255 12 12
0.00696471 0.01955266 -0.01474472 255 12 12
0.00682895 0.01955195 -0.01531976 255 12 12
0.00628262 0.01955133 -0.01559666 255 12 12
0.00689736 0.01955037 -0.01681229 255 12 12
0.00691949 0.01954957 -0.01755691 255 12 12
0.00489529 0.01954878 -0.01720396 255 12 12
-0.00435404 0.01955020 -0.01097052 255 12 12
-0.00516152 0.01955001 -0.01071387 255 12 12
-0.00742716 0.01955010 -0.00941916 255 12 12
-0.00822956 0.01954886 -0.01013724 255 12 12
-0.00818098 0.01954821 -0.01075262 255 12 12
-0.00867641 0.01954783 -0.01083848 255 12 12
-0.00834985 0.01954622 -0.01249506 255 12 12
-0.00642256 0.01954312 -0.01636512 255 12 12
-0.00634296 0.01954222 -0.01723452 255 12 12
-0.00641697 0.01954146 -0.01789966 255 12 12
-0.00637187 0.01954052 -0.01877967 255 12 12
-0.00658765 0.01953991 -0.01922597 255 12 12
-0.00655276 0.01953801 -0.02098957 255 12 12
-0.00669816 0.01953719 -0.02166843 255 12 12
-0.00675746 0.01953616 -0.02258024 255 12 12
-0.00706796 0.01953547 -0.02305206 255 12 12
-0.00786705 0.01953545 -0.02264414 255 12 12
-0.00878203 0.01953561 -0.02200759 255 12 12
-0.00871846 0.01953322 -0.02423657 255 12 12
-0.00916471 0.01953271 -0.02446225 255 12 12
-0.01092230 0.01953199 -0.02419077 255 12 12
-0.01156863 0.01953190 -0.02393150 255 12 12
-0.01201093 0.01953143 -0.02412222 255 12 12
-0.01265481 0.01953136 -0.02384880 255 12 12
-0.01309601 0.01953091 -0.02402620 255 12 12
-0.01327242 0.01952985 -0.02489906 255 12 12
-0.01381257 0.01952961 -0.02483410 255 12 12
-0.01418256 0.01952896 -0.02523296 255 12 12
-0.01456031 0.01952831 -0.02562826 255 12 12
-0.01510061 0.01952809 -0.02554442 255 12 12
-0.01548795 0.01952745 -0.02593033 255 12 12
-0.01597526 0.01952700 -0.02607900 255 12 12
-0.01652241 0.01952679 -0.02597800 255 12 12
-0.01705491 0.01952661 -0.02586649 255 12 12
-0.01833472 0.01952719 -0.02464794 255 12 12
-0.01889849 0.01952728 -0.02426856 255 12 12
-0.01955878 0.01952785 -0.02339257 255 12 12
-0.02111389 0.01953049 -0.02014005 255 12 12
-0.02142898 0.01952969 -0.02070757 255 12 12
-0.02400921 0.01953601 -0.01352042 255 12 12
-0.02525168 0.01953870 -0.01038930 255 12 12
-0.02556686 0.01953904 -0.00991474 255 12 12
-0.02627267 0.01954185 -0.00695609 255 12 12
-0.02650620 0.01954197 -0.00671744 255 12 12
-0.02773987 0.01953716 -0.01048187 255 12 12
-0.02839466 0.01953435 -0.01271272 255 12 12
-0.02881431 0.01953686 -0.01018609 255 12 12
-0.02910024 0.01953644 -0.01041592 255 12 12
-0.02942079 0.01953574 -0.01089046 255 12 12
-0.02971419 0.01953560 -0.01086179 255 12 12
-0.02993683 0.01953604 -0.01033419 255 12 12
-0.03021089 0.01953592 -0.01030053 255 12 12
-0.03055458 0.01953522 -0.01075857 255 12 12
-0.03080186 0.01953539 -0.01046927 255 12 12
-0.03219573 0.01953320 -0.01174264 255 12 12
-0.03740960 0.01951728 -0.02358646 255 12 12
-0.03812990 0.01951595 -0.02441887 255 12 12
-0.03894944 0.01951489 -0.02495280 255 12 12
-0.03952050 0.01951448 -0.02503172 255 12 12
-0.04016686 0.01951376 -0.02534186 255 12 12
-0.04083366 0.01951306 -0.02563766 255 12 12
-0.04101915 0.01951360 -0.02503805 255 12 12
-0.04238616 0.01951192 -0.02585253 255 12 12
-0.04275450 0.01951216 -0.02543377 255 12 12
-0.04310269 0.01951390 -0.02365426 255 12 12
-0.04353922 0.01951386 -0.02345803 255 12 12
-0.04376943 0.01951444 -0.02279979 255 12 12
-0.04387614 0.01951534 -0.02191672 255 12 12
-0.04418810 0.01951563 -0.02148318 255 12 12
-0.04505835 0.01951439 -0.02216148 255 12 12
-0.04572144 0.01951377 -0.02237734 255 12 12
-0.04636438 0.01951316 -0.02259745 255 12 12
-0.04703398 0.01951255 -0.02279641 255 12 12
-0.04771129 0.01951195 -0.02298408 255 12 12
-0.04878146 0.01951044 -0.02380375 255 12 12
-0.04938946 0.01951017 -0.02372667 255 12 12
-0.04970211 0.01951052 -0.02323607 255 12 12
-0.05041573 0.01950996 -0.02337144 255 12 12
-0.05099702 0.01950972 -0.02328673 255 12 12
-0.05089992 0.01951069 -0.02244672 255 12 12
-0.05101531 0.01951137 -0.02175861 255 12 12
-0.05155564 0.01951114 -0.02168155 255 12 12
-0.05152223 0.01951316 -0.01984129 255 12 12
-0.05121262 0.01951550 -0.01786421 255 12 12
-0.05079761 0.01951783 -0.01594216 255 12 12
-0.05097584 0.01951825 -0.01546259 255 12 12
-0.05130383 0.01951837 -0.01517690 255 12 12
-0.05130554 0.01951984 -0.01382713 255 12 12
-0.05128318 0.01952058 -0.01316211 255 12 12
-0.05649421 0.01951397 -0.01644734 255 12 12
-0.05721113 0.01951358 -0.01642398 255 12 12
-0.05774106 0.01951349 -0.01622528 255 12 12
-0.05846353 0.01951313 -0.01617720 255 12 12
-0.06151861 0.01951146 -0.01607957 255 12 12
-0.06186834 0.01951173 -0.01564850 255 12 12
-0.06240224 0.01951171 -0.01537647 255 12 12
-0.06233792 0.01951255 -0.01464113 255 12 12
-0.06228032 0.01951480 -0.01260489 255 12 12
-0.05833783 0.01952191 -0.00817418 255 12 12
-0.05816091 0.01952272 -0.00752450 255 12 12
-0.07158341 0.01950972 -0.01231617 255 12 12
-0.07254683 0.01950938 -0.01211222 255 12 12
-0.07349895 0.01950904 -0.01191305 255 12 12
-0.07182508 0.01951245 -0.00967729 255 12 12
-0.06001654 0.01952715 -0.00246733 255 12 12
-0.05897260 0.01952925 -0.00109567 255 12 12
-0.06491058 0.01952597 -0.00094094 255 12 12
-0.06482601 0.01952660 -0.00041046 255 12 12
-0.06521063 0.01952679 -0.00003546 255 12 12
-0.06814169 0.01952529 0.00015097 255 12 12
-0.35362990 0.01927863 -0.07421340 255 12 12
-0.35345114 0.01928343 -0.06989821 255 12 12
-0.35469623 0.01928711 -0.06585870 255 12 12
-0.35733454 0.01928954 -0.06221963 255 12 12
-0.36042170 0.01929166 -0.05863121 255 12 12
-0.36518640 0.01929250 -0.05532018 255 12 12
-0.36990196 0.01929338 -0.05199616 255 12 12
-0.37312460 0.01929562 -0.04821646 255 12 12
-0.37604351 0.01929806 -0.04442247 255 12 12
-0.37942968 0.01930032 -0.04054499 255 12 12
-0.38256472 0.01930316 -0.03626836 255 12 12
-0.38388682 0.01930715 -0.03190011 255 12 12
-0.38564128 0.01931075 -0.02765888 255 12 12
-0.38810122 0.01931400 -0.02335619 255 12 12
-0.39097338 0.01931660 -0.01943722 255 12 12
-0.39581964 0.01931829 -0.01530512 255 12 12
-0.40111131 0.01931970 -0.01119154 255 12 12
-0.40486361 0.01932233 -0.00677693 255 12 12
-0.40833262 0.01932579 -0.00174483 255 12 12
-0.41272406 0.01932834 0.00293553 255 12 12
-0.41730736 0.01933089 0.00772116 255 12 12
-0.42083053 0.01933418 0.01261882 255 12 12
-0.67253417 0.01926626 0.08439128 255 12 12
-0.65646448 0.01928215 0.09041758 255 12 12
-0.64901523 0.01929391 0.09724919 255 12 12
-0.64767521 0.01930295 0.10483480 255 12 12
-0.64969753 0.01931062 0.11296072 255 12 12
-0.65481480 0.01931718 0.12170985 255 12 12
-1.77857192 0.01892737 0.36265815 255 12 12
-1.75716512 0.01895977 0.38099992 255 12 12
-1.73324341 0.01899199 0.39784301 255 12 12
-1.70892858 0.01902380 0.41409707 255 12 12
-1.68786846 0.01905407 0.43066882 255 12 12
-1.66508887 0.01908490 0.44684697 255 12 12
-1.64831081 0.01911306 0.46375767 255 12 12
-1.64960464 0.01913614 0.48564742 255 12 12
-1.65921201 0.01915737 0.51026478 255 12 12
-1.66736176 0.01917994 0.53533208 255 12 12
-1.64824379 0.01920835 0.55123591 255 12 12
-1.60630610 0.01924103 0.55889529 255 12 12
-1.57477907 0.01927069 0.56933577 255 12 12
-1.42533736 0.01938482 0.59449923 255 12 12
-1.39535640 0.01941018 0.60181242 255 12 12
-1.36426819 0.01943493 0.60797006 255 12 12
-1.33550920 0.01945873 0.61450091 255 12 12
-1.30702025 0.01948183 0.62052451 255 12 12
-1.27931380 0.01950466 0.62672308 255 12 12
-1.25316372 0.01952630 0.63266750 255 12 12
-1.22639416 0.01954734 0.63771713 255 12 12
-1.19968815 0.01956772 0.64220472 255 12 12
-1.17528815 0.01958795 0.64777738 255 12 12
-1.15111013 0.01960716 0.65253204 255 12 12
-1.12677508 0.01962578 0.65666398 255 12 12
-1.10400898 0.01964394 0.66120020 255 12 12
-1.08027133 0.01966189 0.66503643 255 12 12
-1.05910733 0.01967912 0.66957805 255 12 12
-1.04112980 0.01969627 0.67575392 255 12 12
-1.02046053 0.01971265 0.67977512 255 12 12
-1.00023595 0.01972819 0.68326699 255 12 12
-0.98029640 0.01974374 0.68691964 255 12 12
-0.96100492 0.01975853 0.69022460 255 12 12
-0.94278985 0.01977355 0.69431069 255 12 12
-0.92345958 0.01978915 0.69833079 255 12 12
-0.90514854 0.01980371 0.70194821 255 12 12
-0.88746758 0.01981762 0.70529476 255 12 12
-0.86945547 0.01983144 0.70838280 255 12 12
-0.85245610 0.01984433 0.71116448 255 12 12
-0.83607604 0.01985749 0.71451566 255 12 12
-0.82011259 0.01987044 0.71790362 255 12 12
-0.80326558 0.01988268 0.72016393 255 12 12
-0.78739659 0.01989494 0.72297208 255 12 12
-0.77157661 0.01990688 0.72549841 255 12 12
-0.75527515 0.01991821 0.72721892 255 12 12
-0.74010168 0.01992973 0.72971221 255 12 12
-0.72599873 0.01994192 0.73338905 255 12 12
-0.71142729 0.01995312 0.73591231 255 12 12
-0.69673052 0.01996393 0.73800369 255 12 12
-0.68225351 0.01997454 0.74003017 255 12 12
-0.66848803 0.01998529 0.74256320 255 12 12
-0.65427197 0.01999543 0.74429911 255 12 12
-0.64091187 0.02000586 0.74675650 255 12 12
-0.62884955 0.02001698 0.75054777 255 12 12
-0.61596290 0.02002771 0.75353170 255 12 12
-0.60299351 0.02003766 0.75575680 255 12 12
-0.59081164 0.02004802 0.75877383 255 12 12
-0.57864288 0.02005816 0.76160447 255 12 12
-0.56613920 0.02006824 0.76419329 255 12 12
-0.55472204 0.02007865 0.76767353 255 12 12
-0.54301983 0.02008860 0.77057380 255 12 12
-0.53105021 0.02009806 0.77288428 255 12 12
-0.51910194 0.02010732 0.77501582 255 12 12
-0.50770899 0.02011698 0.77781642 255 12 12
-0.49736358 0.02012771 0.78215995 255 12 12
-0.48621838 0.02013736 0.78507526 255 12 12
-0.47432289 0.02014585 0.78653427 255 12 12
-0.46295023 0.02015480 0.78869054 255 12 12
-0.45159225 0.02016356 0.79068483 255 12 12
-0.44036810 0.02017231 0.79273880 255 12 12
-0.42974313 0.02018236 0.79630158 255 12 12
-0.41841759 0.02019059 0.79782353 255 12 12
-0.40668100 0.02019790 0.79828548 255 12 12
-0.39626264 0.02020723 0.80129612 255 12 12
-0.38593071 0.02021660 0.80439746 255 12 12
-0.37497667 0.02022469 0.80599025 255 12 12
-0.29255757 0.02011424 0.66063228 255 12 12
-0.28394173 0.02012154 0.66274545 255 12 12
-0.27584808 0.02012936 0.66561177 255 12 12
-0.26789470 0.02013750 0.66884699 255 12 12
-0.25981624 0.02014535 0.67174961 255 12 12
-0.24824341 0.02014720 0.66727743 255 12 12
-0.23777648 0.02014872 0.66309845 255 12 12
-0.22981427 0.02015694 0.66640357 255 12 12
-0.22180222 0.02016508 0.66961128 255 12 12
-0.21570997 0.02017508 0.67554139 255 12 12
-0.20748797 0.02018205 0.67756181 255 12 12
-0.19774140 0.02018263 0.67289728 255 12 12
-0.19021297 0.02019186 0.67736700 255 12 12
-0.18320730 0.02020446 0.68520321 255 12 12
-0.17408007 0.02020753 0.68315768 255 12 12
-0.16492584 0.02020995 0.68050038 255 12 12
-0.15690169 0.02021746 0.68312040 255 12 12
-0.14980227 0.02023133 0.69207421 255 12 12
-0.14231469 0.02024289 0.69870382 255 12 12
-0.13273156 0.02024186 0.69265148 255 12 12
-0.12359624 0.02024259 0.68844851 255 12 12
-0.11523179 0.02024978 0.69059457 255 12 12
-0.10713051 0.02025776 0.69360858 255 12 12
-0.09974911 0.02027335 0.70398490 255 12 12
-0.09189522 0.02028641 0.71179187 255 12 12
-0.08235791 0.02028245 0.70307669 255 12 12
-0.07342020 0.02028098 0.69696514 255 12 12
-0.06517599 0.02028959 0.70047462 255 12 12
-0.05707637 0.02030371 0.70912969 255 12 12
-0.04889348 0.02031533 0.71543359 255 12 12
-0.04020011 0.02031706 0.71239577 255 12 12
-0.03179541 0.02032205 0.71249976 255 12 12
-0.02318281 0.02033005 0.71525174 255 12 12
