ply
format ascii 1.0
element vertex 258
property float x
property float y
property float z
property uchar red
property uchar green
property uchar blue
end_header
0.11225199 -0.14830666 0.73326560 255 12 12
0.12047580 -0.14819041 0.72931425 255 12 12
0.12958675 -0.14843739 0.72939454 255 12 12
0.13933782 -0.14880730 0.73073283 255 12 12
0.23174558 -0.17067625 0.96126497 255 12 12
0.24350759 -0.17079373 0.95897974 255 12 12
0.25517633 -0.17087633 0.95630977 255 12 12
0.26758501 -0.17107677 0.95480649 255 12 12
0.27993299 -0.17130873 0.95369612 255 12 12
0.29230395 -0.17152738 0.95242054 255 12 12
0.30469567 -0.17173258 0.95097903 255 12 12
0.31789165 -0.17198547 0.94985166 255 12 12
0.33027531 -0.17209463 0.94727329 255 12 12
0.34261214 -0.17223609 0.94509273 255 12 12
0.35541144 -0.17240420 0.94308358 255 12 12
-0.02085369 -0.08491476 0.02286859 255 12 12
-0.01594938 -0.08464817 0.01817201 255 12 12
-0.01285091 -0.08446110 0.01498358 255 12 12
-0.01363410 -0.08440984 0.01462044 255 12 12
-0.01420371 -0.08435471 0.01414458 255 12 12
-0.01520425 -0.08431098 0.01393878 255 12 12
-0.02113090 -0.08427269 0.01533826 255 12 12
-0.02148414 -0.08421928 0.01481511 255 12 12
-0.02403681 -0.08417554 0.01509465 255 12 12
-0.02614217 -0.08412819 0.01519149 255 12 12
-0.02990262 -0.08410341 0.01607366 255 12 12
-0.03004695 -0.08405199 0.01550877 255 12 12
-0.03079206 -0.08402358 0.01540482 255 12 12
-0.03114397 -0.08398038 0.01500246 255 12 12
-0.03186402 -0.08395680 0.01494794 255 12 12
-0.03295499 -0.08395247 0.01523781 255 12 12
-0.03291926 -0.08383455 0.01382767 255 12 12
-0.03345984 -0.08380417 0.01363639 255 12 12
-0.03223477 -0.08361364 0.01099285 255 12 12
-0.03312811 -0.08360588 0.01118031 255 12 12
-0.03272295 -0.08344838 0.00918514 255 12 12
-0.03337339 -0.08341117 0.00894715 255 12 12
-0.03379697 -0.08336954 0.00858573 255 12 12
-0.03374725 -0.08329218 0.00765248 255 12 12
-0.03465734 -0.08328725 0.00787861 255 12 12
-0.03585684 -0.08330980 0.00852130 255 12 12
-0.03643764 -0.08328328 0.00838831 255 12 12
-0.04977160 -0.08409612 0.02220179 255 12 12
-0.05029472 -0.08410439 0.02246355 255 12 12
-0.04979734 -0.08394643 0.02043408 255 12 12
-0.04994853 -0.08391085 0.02005933 255 12 12
-0.04987081 -0.08384428 0.01924520 255 12 12
-0.04929920 -0.08364660 0.01672129 255 12 12
-0.04927167 -0.08355409 0.01561524 255 12 12
-0.04908795 -0.08344938 0.01431559 255 12 12
-0.04823414 -0.08306518 0.00949074 255 12 12
-0.04826642 -0.08297155 0.00839008 255 12 12
-0.04850521 -0.08291130 0.00775003 255 12 12
-0.04885998 -0.08286725 0.00733837 255 12 12
-0.04893370 -0.08277268 0.00623956 255 12 12
-0.04895537 -0.08265919 0.00489994 255 12 12
-0.04925999 -0.08259721 0.00425993 255 12 12
-0.04990274 -0.08260597 0.00456494 255 12 12
-0.05048934 -0.08259621 0.00463263 255 12 12
-0.05112587 -0.08260646 0.00495330 255 12 12
-0.05174197 -0.08261833 0.00528681 255 12 12
-0.05201285 -0.08253886 0.00442882 255 12 12
-0.05242501 -0.08249653 0.00405549 255 12 12
-0.05291863 -0.08247250 0.00392485 255 12 12
-0.05429952 -0.08255902 0.00538322 255 12 12
-0.05453889 -0.08246201 0.00430717 255 12 12
-0.05501857 -0.08244076 0.00420513 255 12 12
-0.05549948 -0.08241997 0.00410897 255 12 12
-0.05584609 -0.08234124 0.00328336 255 12 12
-0.05631821 -0.08230053 0.00294807 255 12 12
-0.05686448 -0.08229998 0.00311239 255 12 12
-0.05739463 -0.08230060 0.00328554 255 12 12
-0.05799600 -0.08234144 0.00395824 255 12 12
-0.05857955 -0.08238349 0.00463953 255 12 12
-0.06196077 -0.08324015 0.01585984 255 12 12
-0.06303580 -0.08358767 0.02031880 255 12 12
-0.06332038 -0.08353819 0.01982084 255 12 12
-0.06361940 -0.08350964 0.01957568 255 12 12
-0.06424662 -0.08343178 0.01884817 255 12 12
-0.06558348 -0.08353127 0.02044660 255 12 12
-0.06641320 -0.08353929 0.02080123 255 12 12
-0.06680543 -0.08361913 0.02187104 255 12 12
-0.06860203 -0.08340954 0.01994661 255 12 12
-0.06895411 -0.08338576 0.01977467 255 12 12
-0.06911822 -0.08342822 0.02032965 255 12 12
-0.06934093 -0.08344904 0.02064634 255 12 12
-0.07057837 -0.08355879 0.02233534 255 12 12
-0.07092105 -0.08353783 0.02219384 255 12 12
-0.07208971 -0.08338728 0.02077345 255 12 12
-0.07227746 -0.08341132 0.02111733 255 12 12
-0.07245201 -0.08343559 0.02145980 255 12 12
-0.07340380 -0.08335398 0.02078940 255 12 12
-0.08009679 -0.08233161 0.01075427 255 12 12
-0.08506599 -0.08188172 0.00697144 255 12 12
-0.08539000 -0.08191439 0.00746034 255 12 12
-0.08560185 -0.08204449 0.00907000 255 12 12
-0.08616986 -0.08203601 0.00914707 255 12 12
-0.08688122 -0.08200723 0.00902815 255 12 12
-0.08716618 -0.08204210 0.00953088 255 12 12
-0.08727728 -0.08209754 0.01022338 255 12 12
-0.08769151 -0.08211229 0.01052789 255 12 12
-0.08778952 -0.08216855 0.01122595 255 12 12
-0.08772843 -0.08224584 0.01212380 255 12 12
-0.08844064 -0.08222111 0.01205315 255 12 12
-0.08946844 -0.08215625 0.01160517 255 12 12
-0.09018831 -0.08213325 0.01155752 255 12 12
-0.09074955 -0.08213136 0.01171063 255 12 12
-0.09147749 -0.08211019 0.01168721 255 12 12
-0.09221034 -0.08209002 0.01167710 255 12 12
-0.09328974 -0.08203126 0.01131769 255 12 12
-0.09368990 -0.08205271 0.01169725 255 12 12
-0.09381624 -0.08208897 0.01216693 255 12 12
-0.09418043 -0.08210977 0.01252766 255 12 12
-0.09400321 -0.08218906 0.01341281 255 12 12
-0.09362841 -0.08228728 0.01446077 255 12 12
-0.09423481 -0.08229506 0.01474278 255 12 12
-0.09422039 -0.08235644 0.01546639 255 12 12
-0.09362203 -0.08247356 0.01666863 255 12 12
-0.09300581 -0.08259023 0.01785997 255 12 12
-0.09254965 -0.08268691 0.01886429 255 12 12
-0.09285487 -0.08271001 0.01923380 255 12 12
-0.09275754 -0.08276940 0.01990793 255 12 12
-0.09285198 -0.08281109 0.02043197 255 12 12
-0.09292569 -0.08285184 0.02093845 255 12 12
-0.09299749 -0.08289319 0.02145148 255 12 12
-0.09407663 -0.08284685 0.02123923 255 12 12
-0.09455082 -0.08285438 0.02147688 255 12 12
-0.09851037 -0.08268136 0.02066284 255 12 12
-0.09963994 -0.08264458 0.02057978 255 12 12
-0.10033165 -0.08264063 0.02074931 255 12 12
-0.10060670 -0.08267185 0.02120574 255 12 12
-0.10109262 -0.08268735 0.02154152 255 12 12
-0.10244793 -0.08263973 0.02140061 255 12 12
-0.10339122 -0.08262828 0.02155977 255 12 12
-0.10410411 -0.08263253 0.02183316 255 12 12
-0.10503309 -0.08262182 0.02199669 255 12 12
-0.10734158 -0.08257434 0.02215544 255 12 12
-0.10691951 -0.08265766 0.02301187 255 12 12
-0.10762194 -0.08266719 0.02334463 255 12 12
-0.10786470 -0.08270676 0.02388998 255 12 12
-0.10696469 -0.08282034 0.02495598 255 12 12
-0.09748585 -0.08356731 0.03085262 255 12 12
-0.10833381 -0.08316167 0.02943342 255 12 12
-0.10898458 -0.08318039 0.02985909 255 12 12
-0.09764967 -0.08398811 0.03589584 255 12 12
-0.09871605 -0.08397821 0.03611197 255 12 12
-0.09929303 -0.08399190 0.03645479 255 12 12
-0.10011292 -0.08399664 0.03676752 255 12 12
-0.10043735 -0.08402282 0.03717952 255 12 12
-0.10001297 -0.08407702 0.03768974 255 12 12
-0.09983203 -0.08412267 0.03817475 255 12 12
-0.10391835 -0.08405172 0.03861121 255 12 12
-0.56465970 -0.06956532 0.01086731 255 12 12
-0.55881753 -0.07029826 0.01773496 255 12 12
-0.55461860 -0.07094633 0.02410988 255 12 12
-0.55632928 -0.07140473 0.03008303 255 12 12
-0.65548384 -0.07040009 0.04917838 255 12 12
-0.65388301 -0.07105014 0.05638939 255 12 12
-0.65369267 -0.07166411 0.06361347 255 12 12
-0.65615246 -0.07223236 0.07112405 255 12 12
-0.66526180 -0.07265073 0.07893657 255 12 12
-0.67302059 -0.07311630 0.08688642 255 12 12
-0.67444651 -0.07372121 0.09450861 255 12 12
-0.67979001 -0.09086251 0.29953044 255 12 12
-0.68204432 -0.09165062 0.30958501 255 12 12
-0.69221098 -0.09252381 0.32312374 255 12 12
-0.69433441 -0.09334847 0.33357104 255 12 12
-0.69103676 -0.09407835 0.34119830 255 12 12
-0.69295110 -0.09490434 0.35159597 255 12 12
-0.68376919 -0.09556518 0.35656369 255 12 12
-0.67123393 -0.09615353 0.35962258 255 12 12
-0.66977619 -0.09696340 0.36877428 255 12 12
-0.67133617 -0.09782377 0.37946895 255 12 12
-0.66847113 -0.09858598 0.38761508 255 12 12
-0.66453791 -0.09934586 0.39539944 255 12 12
-0.59179567 -0.09990047 0.37922649 255 12 12
-0.58491343 -0.10047433 0.38388168 255 12 12
-0.57935484 -0.10109731 0.38953352 255 12 12
-0.57424356 -0.10171349 0.39524473 255 12 12
-0.56866111 -0.10231161 0.40059428 255 12 12
-0.56342833 -0.10291820 0.40615360 255 12 12
-0.55813396 -0.10355536 0.41205642 255 12 12
-0.55128406 -0.10411357 0.41653596 255 12 12
-0.54332262 -0.10460252 0.41984633 255 12 12
-0.53680688 -0.10515814 0.42439977 255 12 12
-0.53084788 -0.10569577 0.42891393 255 12 12
-0.52359703 -0.10618903 0.43249767 255 12 12
-0.51727236 -0.10671680 0.43678041 255 12 12
-0.51221889 -0.10730085 0.44212850 255 12 12
-0.50614266 -0.10786997 0.44697955 255 12 12
-0.49976173 -0.10840080 0.45128106 255 12 12
-0.49453697 -0.10897061 0.45640659 255 12 12
-0.48931553 -0.10955921 0.46175608 255 12 12
-0.48396667 -0.11012105 0.46674835 255 12 12
-0.47844181 -0.11069130 0.47178518 255 12 12
-0.47245968 -0.11121228 0.47609465 255 12 12
-0.46665300 -0.11176191 0.48079875 255 12 12
-0.46191498 -0.11236166 0.48643173 255 12 12
-0.45714080 -0.11298294 0.49230881 255 12 12
-0.45191814 -0.11355494 0.49746104 255 12 12
-0.44634220 -0.11412376 0.50246499 255 12 12
-0.44130072 -0.11471308 0.50787935 255 12 12
-0.43636520 -0.11533651 0.51373147 255 12 12
-0.43131879 -0.11593352 0.51923545 255 12 12
-0.42576066 -0.11651422 0.52438595 255 12 12
-0.42159334 -0.11719732 0.53118617 255 12 12
-0.41630606 -0.11781279 0.53683385 255 12 12
-0.41021249 -0.11833327 0.54110255 255 12 12
-0.40449013 -0.11891509 0.54621485 255 12 12
-0.39869447 -0.11946812 0.55096281 255 12 12
-0.39228798 -0.11998609 0.55510380 255 12 12
-0.38517632 -0.12040149 0.55780732 255 12 12
-0.37894382 -0.12093651 0.56220497 255 12 12
-0.37280968 -0.12143036 0.56614499 255 12 12
-0.36573488 -0.12184046 0.56879722 255 12 12
-0.35766647 -0.12212195 0.56961289 255 12 12
-0.34950421 -0.12237749 0.57009144 255 12 12
-0.34181211 -0.12270989 0.57162886 255 12 12
-0.33302070 -0.12284993 0.57054043 255 12 12
-0.32463064 -0.12302455 0.56998767 255 12 12
-0.31802518 -0.12344477 0.57290674 255 12 12
-0.31183259 -0.12399192 0.57746084 255 12 12
-0.30489225 -0.12439383 0.58005792 255 12 12
-0.29777390 -0.12472969 0.58181585 255 12 12
-0.29146789 -0.12523527 0.58584119 255 12 12
-0.28464421 -0.12558238 0.58782471 255 12 12
-0.27683604 -0.12577702 0.58769152 255 12 12
-0.27003485 -0.12615225 0.59001568 255 12 12
-0.26483011 -0.12685356 0.59670748 255 12 12
-0.25962913 -0.12779152 0.60620786 255 12 12
-0.25308879 -0.12830546 0.61025925 255 12 12
-0.24662934 -0.12885095 0.61471002 255 12 12
-0.24067299 -0.12953775 0.62099468 255 12 12
-0.23356770 -0.12966195 0.62024563 255 12 12
-0.22530594 -0.12970659 0.61819106 255 12 12
-0.10138429 -0.16836674 1.03806340 255 12 12
-0.08905098 -0.16844978 1.03519087 255 12 12
-0.07678322 -0.16845534 1.03141976 255 12 12
-0.06461084 -0.16840375 1.02700047 255 12 12
-0.05199578 -0.16847674 1.02392057 255 12 12
-0.03969694 -0.16863345 1.02193276 255 12 12
-0.02774001 -0.16870617 1.01905557 255 12 12
-0.01978190 -0.14636704 0.75155316 255 12 12
-0.01090714 -0.14650702 0.75043796 255 12 12
-0.00226773 -0.14661202 0.74898129 255 12 12
0.00668416 -0.14684015 0.74888774 255 12 12
0.01503674 -0.14673183 0.74499012 255 12 12
0.02364889 -0.14672428 0.74220692 255 12 12
0.03245211 -0.14698559 0.74255340 255 12 12
0.04128455 -0.14713213 0.74152913 255 12 12
0.04949457 -0.14724006 0.74024161 255 12 12
0.05806984 -0.14734392 0.73879158 255 12 12
0.06639785 -0.14732926 0.73601282 255 12 12
0.07501786 -0.14745808 0.73484488 255 12 12
0.08418118 -0.14773257 0.73523504 255 12 12
0.09318701 -0.14799635 0.73554747 255 12 12
0.10204956 -0.14818528 0.73501677 255 12 12
0.11001040 -0.14803559 0.73075102 255 12 12
