ply
format ascii 1.0
element vertex 68
property float x
property float y
property float z
property uchar red
property uchar green
property uchar blue
end_header
0.00461781 -0.11274134 0.34501342 255 12 12
-0.70648689 -0.09744785 0.38600378 255 12 12
-0.69558925 -0.09827685 0.39242975 255 12 12
-0.68633323 -0.09904735 0.39867524 255 12 12
-0.67543810 -0.09982302 0.40446945 255 12 12
-0.65938633 -0.10045090 0.40689744 255 12 12
-0.63789943 -0.10089699 0.40546873 255 12 12
-0.49498527 -0.09860766 0.33360925 255 12 12
-0.48676202 -0.09912707 0.33719893 255 12 12
-0.47507242 -0.09951436 0.33813726 255 12 12
-0.46264368 -0.09984764 0.33820344 255 12 12
-0.45467721 -0.10031872 0.34130029 255 12 12
-0.44886833 -0.10086169 0.34592464 255 12 12
-0.43737376 -0.10116149 0.34588601 255 12 12
-0.42519699 -0.10140254 0.34493693 255 12 12
-0.41426763 -0.10166854 0.34467402 255 12 12
-0.40192810 -0.10183866 0.34283272 255 12 12
-0.39341360 -0.10216670 0.34406108 255 12 12
-0.38839800 -0.10266071 0.34835289 255 12 12
-0.37847669 -0.10288208 0.34787578 255 12 12
-0.36740108 -0.10301103 0.34594136 255 12 12
-0.35680058 -0.10313589 0.34410693 255 12 12
-0.34660659 -0.10335127 0.34347350 255 12 12
-0.33827325 -0.10358920 0.34368967 255 12 12
-0.32892067 -0.10372234 0.34234377 255 12 12
-0.32040463 -0.10390126 0.34180266 255 12 12
-0.31389865 -0.10412236 0.34239066 255 12 12
-0.30851499 -0.10447295 0.34486598 255 12 12
-0.30218435 -0.10474154 0.34607216 255 12 12
-0.29465709 -0.10489787 0.34557230 255 12 12
-0.28770928 -0.10509862 0.34578070 255 12 12
-0.27986938 -0.10518662 0.34437255 255 12 12
-0.27340516 -0.10537992 0.34464379 255 12 12
-0.22192503 -0.10316001 0.30220663 255 12 12
-0.21528747 -0.10313021 0.29977700 255 12 12
-0.20980311 -0.10322602 0.29919818 255 12 12
-0.20286952 -0.10310865 0.29563713 255 12 12
-0.19724897 -0.10312982 0.29413031 255 12 12
-0.19307513 -0.10332797 0.29517541 255 12 12
-0.17805498 -0.10282282 0.28448469 255 12 12
-0.17254691 -0.10276565 0.28208375 255 12 12
-0.16907946 -0.10303285 0.28416899 255 12 12
-0.15240535 -0.10171287 0.26329450 255 12 12
-0.12463096 -0.09998205 0.23407420 255 12 12
-0.10697321 -0.09968324 0.22500630 255 12 12
-0.10422988 -0.09978706 0.22537993 255 12 12
-0.10128161 -0.09983200 0.22499086 255 12 12
-0.09755723 -0.10248542 0.25530395 255 12 12
-0.09477455 -0.10287039 0.25900058 255 12 12
-0.08032862 -0.11112905 0.35245614 255 12 12
-0.07592527 -0.11143025 0.35465209 255 12 12
-0.07128354 -0.11171179 0.35654022 255 12 12
-0.06661619 -0.11154714 0.35312709 255 12 12
-0.06196731 -0.11137622 0.34964535 255 12 12
-0.05735708 -0.11149245 0.34958218 255 12 12
-0.05274817 -0.11160283 0.34945010 255 12 12
-0.04818880 -0.11176938 0.34999978 255 12 12
-0.04366987 -0.11174011 0.34823912 255 12 12
-0.03915672 -0.11166272 0.34590948 255 12 12
-0.03465143 -0.11170568 0.34500990 255 12 12
-0.02994996 -0.11191516 0.34602448 255 12 12
-0.01515911 -0.11273076 0.35107378 255 12 12
-0.01057321 -0.11276665 0.35006513 255 12 12
-0.00687667 -0.11238131 0.34433759 255 12 12
-0.00205381 -0.11255722 0.34491602 255 12 12
0.00311824 -0.11285892 0.34687742 255 12 12
0.00705685 -0.11265062 0.34317441 255 12 12
0.01150380 -0.11265527 0.34183865 255 12 12
