ply
format ascii 1.0
element vertex 186
property float x
property float y
property float z
property uchar red
property uchar green
property uchar blue
end_header
0.16329364 -0.16988972 0.97334458 255 12 12
-0.06433247 -0.08372420 0.02234408 255 12 12
-0.06577496 -0.08369715 0.02247436 255 12 12
-0.06662485 -0.08368519 0.02259831 255 12 12
-0.06701236 -0.08363805 0.02216021 255 12 12
-0.06730618 -0.08363497 0.02221566 255 12 12
-0.06761362 -0.08373956 0.02355257 255 12 12
-0.06805579 -0.08367190 0.02288814 255 12 12
-0.06893848 -0.08355921 0.02182742 255 12 12
-0.06903354 -0.08362423 0.02262853 255 12 12
-0.06929297 -0.08371150 0.02374492 255 12 12
-0.06979164 -0.08364568 0.02312002 255 12 12
-0.07008812 -0.08371297 0.02401110 255 12 12
-0.07052492 -0.08367021 0.02364041 255 12 12
-0.07172102 -0.08358835 0.02304345 255 12 12
-0.07888704 -0.08252353 0.01265262 255 12 12
-0.08219690 -0.08210895 0.00876972 255 12 12
-0.08282806 -0.08207386 0.00855080 255 12 12
-0.08318507 -0.08210588 0.00904230 255 12 12
-0.08391813 -0.08207430 0.00889705 255 12 12
-0.08452750 -0.08206498 0.00897708 255 12 12
-0.08501340 -0.08207796 0.00928297 255 12 12
-0.08548570 -0.08209135 0.00958962 255 12 12
-0.08567286 -0.08214751 0.01031431 255 12 12
-0.08570089 -0.08222491 0.01124136 255 12 12
-0.08613714 -0.08223951 0.01155103 255 12 12
-0.08642886 -0.08227580 0.01207274 255 12 12
-0.08639893 -0.08235352 0.01298538 255 12 12
-0.08620215 -0.08245209 0.01409315 255 12 12
-0.08678021 -0.08244881 0.01423508 255 12 12
-0.08920677 -0.08228178 0.01301260 255 12 12
-0.08995700 -0.08226125 0.01300365 255 12 12
-0.09072079 -0.08224226 0.01301723 255 12 12
-0.09131094 -0.08224384 0.01322060 255 12 12
-0.09224646 -0.08220694 0.01307545 255 12 12
-0.09266536 -0.08223015 0.01348189 255 12 12
-0.09304637 -0.08225211 0.01386154 255 12 12
-0.09344632 -0.08227606 0.01427073 255 12 12
-0.09311126 -0.08237714 0.01536511 255 12 12
-0.09275199 -0.08247763 0.01644481 255 12 12
-0.09259128 -0.08256107 0.01738444 255 12 12
-0.09138608 -0.08279686 0.01980475 255 12 12
-0.09171116 -0.08282148 0.02019840 255 12 12
-0.09182847 -0.08286427 0.02074273 255 12 12
-0.09143966 -0.08300423 0.02228148 255 12 12
-0.09213477 -0.08299453 0.02238391 255 12 12
-0.09263378 -0.08300403 0.02265262 255 12 12
-0.09374439 -0.08296212 0.02250281 255 12 12
-0.09746567 -0.08276633 0.02134403 255 12 12
-0.09756267 -0.08281590 0.02196250 255 12 12
-0.10030180 -0.08271908 0.02167066 255 12 12
-0.10168728 -0.08267455 0.02157577 255 12 12
-0.10265017 -0.08266509 0.02176468 255 12 12
-0.10338872 -0.08267235 0.02208177 255 12 12
-0.10457079 -0.08265021 0.02218887 255 12 12
-0.10598150 -0.08261519 0.02221467 255 12 12
-0.10583215 -0.08268933 0.02304745 255 12 12
-0.10566234 -0.08276229 0.02385988 255 12 12
-0.10547296 -0.08283404 0.02465185 255 12 12
-0.10504479 -0.08292048 0.02554341 255 12 12
-0.09850941 -0.08347050 0.03002423 255 12 12
-0.09869493 -0.08350782 0.03052499 255 12 12
-0.10329854 -0.08334931 0.03008444 255 12 12
-0.10795668 -0.08321160 0.02990780 255 12 12
-0.10766952 -0.08328613 0.03070207 255 12 12
-0.09709164 -0.08398516 0.03568632 255 12 12
-0.09836469 -0.08405609 0.03692597 255 12 12
-0.09828820 -0.08414687 0.03797898 255 12 12
-0.09959703 -0.08413926 0.03829800 255 12 12
-0.10195987 -0.08414280 0.03907915 255 12 12
-0.10226513 -0.08417903 0.03960434 255 12 12
-0.70403751 -0.06511737 0.00169517 255 12 12
-0.70777115 -0.06724871 0.02814744 255 12 12
-0.75996404 -0.06741442 0.04643821 255 12 12
-0.81210603 -0.06781081 0.06744968 255 12 12
-0.81421555 -0.06863982 0.07794423 255 12 12
-0.81290945 -0.06958208 0.08871386 255 12 12
-0.81221067 -0.07049328 0.09930503 255 12 12
-0.59413469 -0.07736235 0.11258420 255 12 12
-0.58620501 -0.07810661 0.11893321 255 12 12
-0.58042366 -0.07880657 0.12542866 255 12 12
-0.57599631 -0.07962468 0.13374932 255 12 12
-0.57314720 -0.08030942 0.14098132 255 12 12
-0.57239899 -0.08097177 0.14860482 255 12 12
-0.65448676 -0.08239091 0.19111592 255 12 12
-0.64295964 -0.08317378 0.19679778 255 12 12
-0.63110555 -0.08394808 0.20227572 255 12 12
-0.62189554 -0.08467991 0.20807677 255 12 12
-0.61425928 -0.08540763 0.21432139 255 12 12
-0.60874575 -0.08611027 0.22093246 255 12 12
-0.60334111 -0.08681910 0.22765098 255 12 12
-0.59738440 -0.08751842 0.23408399 255 12 12
-0.59158778 -0.08820981 0.24047294 255 12 12
-0.58740323 -0.08888963 0.24722895 255 12 12
-0.58029498 -0.08955682 0.25292065 255 12 12
-0.57520347 -0.09023110 0.25932725 255 12 12
-0.57346755 -0.09093532 0.26713859 255 12 12
-0.24989324 -0.08802997 0.13146408 255 12 12
-0.24558509 -0.08826537 0.13290908 255 12 12
-0.24293542 -0.08849827 0.13484328 255 12 12
-0.24026788 -0.08872679 0.13671988 255 12 12
-0.23758357 -0.08895089 0.13853879 255 12 12
-0.23433614 -0.08913819 0.13974507 255 12 12
-0.23165565 -0.08934804 0.14139621 255 12 12
-0.22896269 -0.08955348 0.14299103 255 12 12
-0.22625831 -0.08975447 0.14452951 255 12 12
-0.22402058 -0.08995378 0.14619412 255 12 12
-0.22108492 -0.09014039 0.14748965 255 12 12
-0.21879348 -0.09033678 0.14910271 255 12 12
-0.21625366 -0.09052747 0.15057052 255 12 12
-0.21303666 -0.09070161 0.15163012 255 12 12
-0.21088321 -0.09089794 0.15328573 255 12 12
-0.20831629 -0.09107624 0.15459798 255 12 12
-0.20593783 -0.09125837 0.15601478 255 12 12
-0.20412978 -0.09146157 0.15785977 255 12 12
-0.20114835 -0.09161217 0.15871393 255 12 12
-0.19930678 -0.09181006 0.16048545 255 12 12
-0.19725551 -0.09199706 0.16206233 255 12 12
-0.19389458 -0.09211636 0.16242634 255 12 12
-0.19146128 -0.09227727 0.16357418 255 12 12
-0.18902159 -0.09243458 0.16467726 255 12 12
-0.18657629 -0.09258827 0.16573564 255 12 12
-0.18409816 -0.09277070 0.16712477 255 12 12
-0.18208703 -0.09295655 0.16870054 255 12 12
-0.18009014 -0.09313664 0.17021237 255 12 12
-0.17820550 -0.09332945 0.17191017 255 12 12
-0.17634534 -0.09348785 0.17320756 255 12 12
-0.17335965 -0.09358744 0.17345505 255 12 12
-0.19262839 -0.09659734 0.21518899 255 12 12
-0.19231399 -0.09745655 0.22528368 255 12 12
-0.18830023 -0.09754084 0.22502815 255 12 12
-0.18570548 -0.09775628 0.22677239 255 12 12
-0.18322170 -0.09798335 0.22868927 255 12 12
-0.18030997 -0.09816541 0.22993835 255 12 12
-0.17733537 -0.09834794 0.23117334 255 12 12
-0.17452746 -0.09853774 0.23254665 255 12 12
-0.17170327 -0.09872445 0.23387833 255 12 12
-0.16910410 -0.09893856 0.23560540 255 12 12
-0.16604225 -0.09915743 0.23724418 255 12 12
-0.16271406 -0.09929521 0.23783774 255 12 12
-0.15944383 -0.09942460 0.23834978 255 12 12
-0.15634007 -0.09958520 0.23928422 255 12 12
-0.15365632 -0.09973739 0.24025023 255 12 12
-0.15125082 -0.09998332 0.24241538 255 12 12
-0.14889929 -0.10024476 0.24478136 255 12 12
-0.14583760 -0.10038642 0.24550426 255 12 12
-0.14284328 -0.10056520 0.24668866 255 12 12
-0.13988761 -0.10073750 0.24780822 255 12 12
-0.13638269 -0.10078050 0.24722199 255 12 12
-0.13269258 -0.10078533 0.24612515 255 12 12
-0.11067722 -0.09783013 0.20418113 255 12 12
-0.10800489 -0.09785518 0.20364244 255 12 12
-0.10599929 -0.09801867 0.20495459 255 12 12
-0.10381647 -0.09816619 0.20602190 255 12 12
-0.10132724 -0.09821702 0.20584635 255 12 12
-0.09911826 -0.09835992 0.20685068 255 12 12
-0.09675317 -0.09850670 0.20785222 255 12 12
-0.09441017 -0.09862797 0.20855799 255 12 12
-0.09235539 -0.09886237 0.21069603 255 12 12
-0.09000361 -0.09899934 0.21158537 255 12 12
-0.08745771 -0.09911951 0.21221465 255 12 12
-0.08508663 -0.09929337 0.21353547 255 12 12
-0.08278487 -0.09950389 0.21531300 255 12 12
-0.08036390 -0.09969441 0.21681597 255 12 12
-0.07809409 -0.09987675 0.21826915 255 12 12
-0.07560773 -0.10002123 0.21920538 255 12 12
-0.07314554 -0.10016187 0.22010373 255 12 12
-0.07064261 -0.10036379 0.22171634 255 12 12
-0.06808806 -0.10054309 0.22304432 255 12 12
-0.06548379 -0.10063661 0.22333922 255 12 12
-0.06292077 -0.10074689 0.22384588 255 12 12
-0.06026204 -0.10102452 0.22630787 255 12 12
-0.05755454 -0.10123714 0.22798336 255 12 12
-0.05483136 -0.10138386 0.22887209 255 12 12
-0.05208779 -0.10159087 0.23046975 255 12 12
-0.04926365 -0.10177530 0.23177443 255 12 12
-0.04645112 -0.10195623 0.23304113 255 12 12
-0.04354733 -0.10213557 0.23426040 255 12 12
-0.04071517 -0.10226810 0.23494678 255 12 12
-0.03787194 -0.10235517 0.23509042 255 12 12
-0.03305890 -0.10189116 0.22808030 255 12 12
0.11684394 -0.16877059 0.97459672 255 12 12
0.13074042 -0.16917927 0.97509839 255 12 12
0.14472615 -0.16948615 0.97436451 255 12 12
0.15855852 -0.16971013 0.97269519 255 12 12
0.17232542 -0.16989483 0.97058026 255 12 12
