ply
format ascii 1.0
element vertex 171
property float x
property float y
property float z
property uchar red
property uchar green
property uchar blue
end_header
0.16185456 -0.16479559 0.91336208 255 12 12
-0.03185637 -0.08402086 0.01570543 255 12 12
-0.03239766 -0.08398718 0.01547518 255 12 12
-0.03332922 -0.08397053 0.01556909 255 12 12
-0.03351319 -0.08391858 0.01501031 255 12 12
-0.03316239 -0.08383730 0.01393643 255 12 12
-0.03337232 -0.08378411 0.01337105 255 12 12
-0.03375794 -0.08374209 0.01299319 255 12 12
-0.03398487 -0.08368874 0.01243120 255 12 12
-0.03421299 -0.08363608 0.01187788 255 12 12
-0.03395789 -0.08354865 0.01076085 255 12 12
-0.03405664 -0.08348254 0.01000747 255 12 12
-0.03636617 -0.08350490 0.01099508 255 12 12
-0.03663384 -0.08345228 0.01045459 255 12 12
-0.03752987 -0.08344931 0.01069966 255 12 12
-0.03826278 -0.08343544 0.01076438 255 12 12
-0.05091986 -0.08415431 0.02325132 255 12 12
-0.05044751 -0.08399479 0.02121119 255 12 12
-0.04980893 -0.08380083 0.01871039 255 12 12
-0.04954102 -0.08370076 0.01743946 255 12 12
-0.04975951 -0.08366181 0.01704576 255 12 12
-0.05015325 -0.08361147 0.01657169 255 12 12
-0.05011509 -0.08352085 0.01548475 255 12 12
-0.04912496 -0.08310094 0.01019360 255 12 12
-0.04898764 -0.08285965 0.00728818 255 12 12
-0.04928314 -0.08279727 0.00664058 255 12 12
-0.04961363 -0.08273349 0.00598729 255 12 12
-0.05036081 -0.08275843 0.00651683 255 12 12
-0.05108148 -0.08278544 0.00706273 255 12 12
-0.05253454 -0.08270926 0.00661350 255 12 12
-0.05301607 -0.08268518 0.00647845 255 12 12
-0.05338268 -0.08262380 0.00586486 255 12 12
-0.05385349 -0.08260136 0.00574600 255 12 12
-0.05457498 -0.08265423 0.00659882 255 12 12
-0.05511056 -0.08265148 0.00673375 255 12 12
-0.05559036 -0.08263028 0.00663230 255 12 12
-0.05609155 -0.08260872 0.00653329 255 12 12
-0.05640739 -0.08251006 0.00546170 255 12 12
-0.05682197 -0.08245057 0.00488563 255 12 12
-0.05733646 -0.08243022 0.00480515 255 12 12
-0.05806112 -0.08248732 0.00570916 255 12 12
-0.05867627 -0.08252804 0.00638461 255 12 12
-0.05923469 -0.08255027 0.00682301 255 12 12
-0.05981369 -0.08259348 0.00751677 255 12 12
-0.06110455 -0.08305640 0.01341216 255 12 12
-0.06253664 -0.08364352 0.02082524 255 12 12
-0.06314147 -0.08373185 0.02206231 255 12 12
-0.06342533 -0.08372451 0.02206396 255 12 12
-0.06369748 -0.08369676 0.02181992 255 12 12
-0.06525895 -0.08353713 0.02041457 255 12 12
-0.06550740 -0.08357482 0.02093948 255 12 12
-0.06751333 -0.08359017 0.02174899 255 12 12
-0.06908686 -0.08342836 0.02032157 255 12 12
-0.06949163 -0.08357967 0.02224319 255 12 12
-0.06967835 -0.08375616 0.02439526 255 12 12
-0.07010391 -0.08371303 0.02401675 255 12 12
-0.07062291 -0.08364830 0.02341117 255 12 12
-0.07088823 -0.08364983 0.02351231 255 12 12
-0.07096523 -0.08369554 0.02407863 255 12 12
-0.07112502 -0.08371958 0.02441380 255 12 12
-0.07814114 -0.08265253 0.01394970 255 12 12
-0.08102607 -0.08230121 0.01068430 255 12 12
-0.08305378 -0.08210293 0.00896623 255 12 12
-0.08376742 -0.08207068 0.00880696 255 12 12
-0.08423709 -0.08208222 0.00909065 255 12 12
-0.08441749 -0.08213638 0.00978970 255 12 12
-0.08486458 -0.08214875 0.01007620 255 12 12
-0.08530782 -0.08216171 0.01036862 255 12 12
-0.08503828 -0.08228030 0.01169114 255 12 12
-0.08534937 -0.08231606 0.01221275 255 12 12
-0.08591984 -0.08230979 0.01231674 255 12 12
-0.08604091 -0.08236645 0.01302676 255 12 12
-0.08614684 -0.08242329 0.01373421 255 12 12
-0.08652496 -0.08243830 0.01403056 255 12 12
-0.08754731 -0.08237287 0.01357416 255 12 12
-0.08826475 -0.08234947 0.01352092 255 12 12
-0.08898795 -0.08232708 0.01348157 255 12 12
-0.08958341 -0.08232736 0.01367111 255 12 12
-0.09032303 -0.08230742 0.01366591 255 12 12
-0.09123861 -0.08226879 0.01349402 255 12 12
-0.09181709 -0.08227088 0.01369967 255 12 12
-0.09236299 -0.08227200 0.01388374 255 12 12
-0.09257673 -0.08231410 0.01445005 255 12 12
-0.09223955 -0.08241428 0.01553298 255 12 12
-0.09189267 -0.08257678 0.01735232 255 12 12
-0.09205759 -0.08261943 0.01790986 255 12 12
-0.09101536 -0.08283479 0.02013870 255 12 12
-0.09083037 -0.08295362 0.02149051 255 12 12
-0.09131821 -0.08295921 0.02170944 255 12 12
-0.09140512 -0.08300125 0.02223539 255 12 12
-0.09149984 -0.08304490 0.02278285 255 12 12
-0.09177785 -0.08307020 0.02316992 255 12 12
-0.09593099 -0.08287777 0.02218614 255 12 12
-0.09642849 -0.08289123 0.02250143 255 12 12
-0.09755793 -0.08285539 0.02242944 255 12 12
-0.09891598 -0.08280591 0.02226727 255 12 12
-0.10164607 -0.08271235 0.02201130 255 12 12
-0.10148829 -0.08277973 0.02276119 255 12 12
-0.10220363 -0.08278471 0.02304406 255 12 12
-0.10363740 -0.08275213 0.02310601 255 12 12
-0.10577079 -0.08272918 0.02350109 255 12 12
-0.10467621 -0.08285950 0.02470465 255 12 12
-0.10421507 -0.08293962 0.02551092 255 12 12
-0.10383127 -0.08333703 0.03010548 255 12 12
-0.10554243 -0.08340428 0.03143851 255 12 12
-0.09699520 -0.08395279 0.03527218 255 12 12
-0.09685612 -0.08399904 0.03577724 255 12 12
-0.09671149 -0.08404576 0.03628625 255 12 12
-0.09729677 -0.08406157 0.03665695 255 12 12
-0.09861407 -0.08404742 0.03690109 255 12 12
-0.09786021 -0.08420249 0.03850493 255 12 12
-0.09817193 -0.08423226 0.03895559 255 12 12
-0.69367199 -0.06527312 0.00030075 255 12 12
-0.69071682 -0.06607546 0.00889465 255 12 12
-0.68890008 -0.06685043 0.01752006 255 12 12
-0.68772382 -0.06763066 0.02640812 255 12 12
-0.68366679 -0.06845808 0.03495505 255 12 12
-0.46104209 -0.07548990 0.04874214 255 12 12
-0.45794382 -0.07602039 0.05406641 255 12 12
-0.45951898 -0.07643705 0.05950190 255 12 12
-0.46176731 -0.07684315 0.06502281 255 12 12
-0.46269112 -0.07728237 0.07052234 255 12 12
-0.46255064 -0.07773605 0.07586047 255 12 12
-0.46207933 -0.07820566 0.08128415 255 12 12
-0.45906054 -0.07870992 0.08632204 255 12 12
-0.45273981 -0.07927067 0.09099733 255 12 12
-0.45230975 -0.07973065 0.09631959 255 12 12
-0.47813606 -0.08030879 0.11125613 255 12 12
-0.48776276 -0.08068836 0.11877014 255 12 12
-0.48712802 -0.08133862 0.12628582 255 12 12
-0.47953330 -0.08193967 0.13104062 255 12 12
-0.47993696 -0.08246613 0.13741238 255 12 12
-0.48631820 -0.08296099 0.14527891 255 12 12
-0.48631134 -0.08340314 0.15052215 255 12 12
-0.48068186 -0.08395200 0.15527255 255 12 12
-0.47479321 -0.08448111 0.15970760 255 12 12
-0.46906807 -0.08500947 0.16418496 255 12 12
-0.46336606 -0.08550742 0.16830868 255 12 12
-0.45664093 -0.08600414 0.17209795 255 12 12
-0.45296158 -0.08649592 0.17678119 255 12 12
-0.45275807 -0.08699615 0.18265178 255 12 12
-0.45008469 -0.08749824 0.18777202 255 12 12
-0.44715147 -0.08798675 0.19264984 255 12 12
-0.44763255 -0.08849939 0.19888184 255 12 12
-0.44824450 -0.08902014 0.20525109 255 12 12
-0.44682923 -0.08954822 0.21107309 255 12 12
-0.46401029 -0.09084707 0.23185556 255 12 12
-0.46494723 -0.09143650 0.23914104 255 12 12
-0.45940515 -0.09199995 0.24409195 255 12 12
-0.45497110 -0.09251816 0.24885262 255 12 12
-0.46664312 -0.09397137 0.26974314 255 12 12
-0.46398855 -0.09447511 0.27488879 255 12 12
-0.46201797 -0.09505770 0.28118383 255 12 12
-0.47304427 -0.09662916 0.30327513 255 12 12
-0.10268559 -0.16820233 1.03651993 255 12 12
-0.08843837 -0.16823607 1.03246402 255 12 12
-0.07458020 -0.16822134 1.02795467 255 12 12
-0.06057978 -0.16832008 1.02474703 255 12 12
-0.04693962 -0.16839316 1.02134752 255 12 12
-0.03313403 -0.16843306 1.01750279 255 12 12
-0.00953014 -0.16347635 0.95131759 255 12 12
0.00287368 -0.16314302 0.94348351 255 12 12
0.01565398 -0.16337032 0.94218256 255 12 12
0.02811532 -0.16353439 0.94023131 255 12 12
0.04072563 -0.16364381 0.93758511 255 12 12
0.05306806 -0.16375488 0.93504236 255 12 12
0.06574658 -0.16394070 0.93328113 255 12 12
0.09832876 -0.16812211 0.97269487 255 12 12
0.11531745 -0.16946060 0.98325993 255 12 12
0.12923421 -0.16972330 0.98202348 255 12 12
0.14283197 -0.16983731 0.97912290 255 12 12
