ply
format ascii 1.0
element vertex 143
property float x
property float y
property float z
property uchar red
property uchar green
property uchar blue
end_header
-0.06446476 -0.08355310 0.02035567 255 12 12
-0.06479474 -0.08352513 0.02012709 255 12 12
-0.06556293 -0.08338391 0.01869204 255 12 12
-0.06710444 -0.08344518 0.01990094 255 12 12
-0.06729640 -0.08350689 0.02069309 255 12 12
-0.06761067 -0.08350362 0.02075267 255 12 12
-0.06789711 -0.08362988 0.02234004 255 12 12
-0.06835624 -0.08356211 0.02167971 255 12 12
-0.06877916 -0.08351651 0.02127107 255 12 12
-0.06950490 -0.08355775 0.02198730 255 12 12
-0.06964712 -0.08360153 0.02255106 255 12 12
-0.07059730 -0.08358113 0.02260633 255 12 12
-0.07079741 -0.08360438 0.02294467 255 12 12
-0.07124973 -0.08356206 0.02258408 255 12 12
-0.07153173 -0.08356405 0.02269594 255 12 12
-0.07171549 -0.08358830 0.02304112 255 12 12
-0.07199121 -0.08359099 0.02315926 255 12 12
-0.07226530 -0.08359404 0.02328113 255 12 12
-0.07740856 -0.08287627 0.01637489 255 12 12
-0.07793133 -0.08286231 0.01637272 255 12 12
-0.07977137 -0.08275745 0.01570434 255 12 12
-0.08002304 -0.08278831 0.01614912 255 12 12
-0.07998971 -0.08286180 0.01701046 255 12 12
-0.08049171 -0.08285093 0.01703855 255 12 12
-0.08101051 -0.08284118 0.01708523 255 12 12
-0.07926576 -0.08327186 0.02164868 255 12 12
-0.07924571 -0.08332363 0.02225656 255 12 12
-0.08183108 -0.08324378 0.02211790 255 12 12
-0.08212451 -0.08325803 0.02237880 255 12 12
-0.08413147 -0.08322124 0.02257008 255 12 12
-0.08177247 -0.08356132 0.02586671 255 12 12
-0.08018902 -0.08379950 0.02819692 255 12 12
-0.08137617 -0.08375533 0.02804426 255 12 12
-0.08003323 -0.08395102 0.02994578 255 12 12
-0.08037094 -0.08401411 0.03079981 255 12 12
-0.08113194 -0.08412774 0.03238589 255 12 12
-0.09315136 -0.08351899 0.02892359 255 12 12
-0.09357958 -0.08353474 0.02924433 255 12 12
-0.09422523 -0.08353557 0.02945621 255 12 12
-0.09464494 -0.08355263 0.02978983 255 12 12
-0.09552298 -0.08354235 0.02994250 255 12 12
-0.09821017 -0.08347130 0.02994015 255 12 12
-0.10394712 -0.08329663 0.02966240 255 12 12
-0.10001696 -0.08360740 0.03211979 255 12 12
-0.10176097 -0.08361471 0.03275212 255 12 12
-0.10238288 -0.08363121 0.03314227 255 12 12
-0.10252826 -0.08376900 0.03482242 255 12 12
-0.10422604 -0.08379439 0.03565468 255 12 12
-0.10457538 -0.08382966 0.03618232 255 12 12
-0.10615196 -0.08381700 0.03652529 255 12 12
-0.10798116 -0.08380240 0.03692417 255 12 12
-0.10930714 -0.08380763 0.03740101 255 12 12
-0.11318745 -0.08378460 0.03834152 255 12 12
-0.71309669 -0.08083849 0.19103127 255 12 12
-0.70953392 -0.08166056 0.19966922 255 12 12
-0.68359068 -0.08340572 0.21225787 255 12 12
-0.67590555 -0.08420345 0.21931780 255 12 12
-0.65995890 -0.08501003 0.22389861 255 12 12
-0.64601331 -0.08575332 0.22835443 255 12 12
-0.58754130 -0.08778001 0.23410854 255 12 12
-0.57165085 -0.08841395 0.23665882 255 12 12
-0.55724516 -0.08900892 0.23921125 255 12 12
-0.47467755 -0.09012251 0.22659637 255 12 12
-0.46710022 -0.09060662 0.22996943 255 12 12
-0.45364774 -0.09099415 0.23035912 255 12 12
-0.44518969 -0.09142781 0.23285820 255 12 12
-0.42032474 -0.09219212 0.23414810 255 12 12
-0.39432131 -0.09274604 0.23258593 255 12 12
-0.39181611 -0.09317444 0.23688458 255 12 12
-0.37016217 -0.09366218 0.23589775 255 12 12
-0.35548524 -0.09425155 0.23829888 255 12 12
-0.33521132 -0.09459137 0.23598898 255 12 12
-0.33043216 -0.09491512 0.23833483 255 12 12
-0.33008967 -0.09538620 0.24381620 255 12 12
-0.31183980 -0.09564971 0.24123410 255 12 12
-0.29575666 -0.09593039 0.23953340 255 12 12
-0.28301482 -0.09627948 0.23968932 255 12 12
-0.28204393 -0.09670734 0.24446138 255 12 12
-0.27782514 -0.09695150 0.24603834 255 12 12
-0.27349236 -0.09720178 0.24765230 255 12 12
-0.27027311 -0.09750043 0.25018835 255 12 12
-0.26243846 -0.09752881 0.24807446 255 12 12
-0.25403145 -0.09755281 0.24572965 255 12 12
-0.24838325 -0.09768269 0.24550381 255 12 12
-0.24477325 -0.09793751 0.24739757 255 12 12
-0.23918795 -0.09804804 0.24696180 255 12 12
-0.23328762 -0.09807303 0.24541279 255 12 12
-0.22755527 -0.09813122 0.24431013 255 12 12
-0.22256456 -0.09822198 0.24382584 255 12 12
-0.21016340 -0.09818309 0.23948565 255 12 12
-0.20559990 -0.09827206 0.23911380 255 12 12
-0.20078876 -0.09832567 0.23824495 255 12 12
-0.19800513 -0.09856083 0.24016397 255 12 12
-0.19524869 -0.09878891 0.24200762 255 12 12
-0.19187130 -0.09896233 0.24300845 255 12 12
-0.19039773 -0.09932783 0.24688361 255 12 12
-0.18749193 -0.09955373 0.24865461 255 12 12
-0.18386047 -0.09968362 0.24905966 255 12 12
-0.18018535 -0.09981221 0.24943566 255 12 12
-0.17489874 -0.09971733 0.24665648 255 12 12
-0.17152932 -0.09986267 0.24732684 255 12 12
-0.16913232 -0.10021934 0.25080832 255 12 12
-0.15917153 -0.10004898 0.24567174 255 12 12
-0.15493141 -0.10004752 0.24432826 255 12 12
-0.15300013 -0.10030875 0.24682322 255 12 12
-0.14575239 -0.10111498 0.25412067 255 12 12
-0.14222112 -0.10118599 0.25385862 255 12 12
-0.13820816 -0.10114618 0.25213117 255 12 12
-0.13447878 -0.10113110 0.25078580 255 12 12
-0.13105554 -0.10118412 0.25034407 255 12 12
-0.12739786 -0.10120151 0.24940624 255 12 12
-0.12474345 -0.10142630 0.25124275 255 12 12
-0.11752698 -0.10134879 0.24806603 255 12 12
-0.11431154 -0.10141563 0.24785322 255 12 12
-0.11208076 -0.10177854 0.25146082 255 12 12
-0.10493956 -0.10158112 0.24688519 255 12 12
-0.10181571 -0.10158623 0.24596872 255 12 12
-0.09927418 -0.10186253 0.24845149 255 12 12
-0.09624976 -0.10189925 0.24794119 255 12 12
-0.09311814 -0.10189421 0.24690185 255 12 12
-0.08990090 -0.10210056 0.24834352 255 12 12
-0.08681186 -0.10217086 0.24821133 255 12 12
-0.08378835 -0.10223509 0.24802758 255 12 12
-0.08059143 -0.10217499 0.24631473 255 12 12
-0.07765305 -0.10201857 0.24353998 255 12 12
-0.07228301 -0.10294225 0.25281817 255 12 12
-0.06925793 -0.10307261 0.25341840 255 12 12
-0.06628204 -0.10323993 0.25447260 255 12 12
-0.06321924 -0.10357398 0.25747749 255 12 12
-0.06012212 -0.10394722 0.26093658 255 12 12
-0.05702298 -0.10385477 0.25887044 255 12 12
-0.05413709 -0.10379566 0.25726662 255 12 12
-0.05117751 -0.10373473 0.25561805 255 12 12
-0.04808658 -0.10388330 0.25641382 255 12 12
-0.04484349 -0.10415762 0.25865373 255 12 12
-0.04161293 -0.10425929 0.25884947 255 12 12
-0.03843146 -0.10435619 0.25900383 255 12 12
-0.03555532 -0.10427517 0.25714313 255 12 12
-0.03231381 -0.10440771 0.25770162 255 12 12
-0.02832371 -0.10484371 0.26162590 255 12 12
-0.02492849 -0.10497019 0.26206435 255 12 12
-0.02222310 -0.10478627 0.25903632 255 12 12
-0.01913840 -0.10477320 0.25791639 255 12 12
