ply
format ascii 1.0
element vertex 100
property float x
property float y
property float z
property uchar red
property uchar green
property uchar blue
end_header
0.00521134 -0.11375656 0.35687158 255 12 12
-0.07713362 -0.08273069 0.01456181 255 12 12
-0.07752499 -0.08273663 0.01475463 255 12 12
-0.07978949 -0.08283167 0.01659045 255 12 12
-0.08003998 -0.08286318 0.01704256 255 12 12
-0.08027381 -0.08289486 0.01749158 255 12 12
-0.08022979 -0.08302039 0.01896700 255 12 12
-0.08026903 -0.08307316 0.01960533 255 12 12
-0.07999686 -0.08316756 0.02064005 255 12 12
-0.08049387 -0.08326648 0.02196899 255 12 12
-0.08260135 -0.08325376 0.02247733 255 12 12
-0.08323503 -0.08322965 0.02238941 255 12 12
-0.08335502 -0.08326552 0.02285252 255 12 12
-0.08363810 -0.08328182 0.02313445 255 12 12
-0.08445751 -0.08324073 0.02290330 255 12 12
-0.08437484 -0.08329659 0.02354011 255 12 12
-0.08066916 -0.08390038 0.02954385 255 12 12
-0.08085906 -0.08391592 0.02978769 255 12 12
-0.09062246 -0.08353904 0.02837050 255 12 12
-0.09325829 -0.08343979 0.02801742 255 12 12
-0.09616845 -0.08333736 0.02771262 255 12 12
-0.09752334 -0.08329762 0.02766495 255 12 12
-0.09842864 -0.08328955 0.02785237 255 12 12
-0.09933126 -0.08328262 0.02805248 255 12 12
-0.10070204 -0.08325031 0.02809785 255 12 12
-0.10230726 -0.08320633 0.02807819 255 12 12
-0.10812235 -0.08298158 0.02723079 255 12 12
-0.10857903 -0.08301541 0.02777499 255 12 12
-0.11161903 -0.08297331 0.02822644 255 12 12
-0.11255979 -0.08299191 0.02874131 255 12 12
-0.11038321 -0.08334063 0.03219751 255 12 12
-0.11459089 -0.08327274 0.03270817 255 12 12
-0.11350755 -0.08338116 0.03365557 255 12 12
-0.11192299 -0.08351075 0.03469720 255 12 12
-0.69393246 -0.10563529 0.47920617 255 12 12
-0.67588119 -0.10614903 0.47965468 255 12 12
-0.66660843 -0.10693173 0.48603965 255 12 12
-0.65727723 -0.10770128 0.49225028 255 12 12
-0.64296081 -0.10826411 0.49444938 255 12 12
-0.63013798 -0.10887948 0.49773892 255 12 12
-0.61881519 -0.10951334 0.50171690 255 12 12
-0.46114220 -0.10518373 0.40103684 255 12 12
-0.45455763 -0.10571310 0.40525736 255 12 12
-0.44377073 -0.10600976 0.40540278 255 12 12
-0.43180935 -0.10621480 0.40409387 255 12 12
-0.42210802 -0.10660317 0.40566685 255 12 12
-0.41440263 -0.10702560 0.40826815 255 12 12
-0.38824794 -0.10711938 0.40119995 255 12 12
-0.37873899 -0.10735023 0.40096439 255 12 12
-0.36898011 -0.10753900 0.40015135 255 12 12
-0.35851250 -0.10764824 0.39817321 255 12 12
-0.34926497 -0.10782090 0.39732911 255 12 12
-0.32853954 -0.10783447 0.39100759 255 12 12
-0.32357391 -0.10827767 0.39471223 255 12 12
-0.31593247 -0.10847793 0.39469781 255 12 12
-0.30653430 -0.10851079 0.39214807 255 12 12
-0.29497984 -0.10828237 0.38582420 255 12 12
-0.28803640 -0.10847390 0.38592464 255 12 12
-0.28207431 -0.10875315 0.38737256 255 12 12
-0.27340403 -0.10874201 0.38452854 255 12 12
-0.26674448 -0.10891131 0.38445404 255 12 12
-0.25888133 -0.10892015 0.38209939 255 12 12
-0.25136964 -0.10894359 0.38002796 255 12 12
-0.24670987 -0.10932810 0.38313200 255 12 12
-0.24070783 -0.10951474 0.38346884 255 12 12
-0.23226335 -0.10934406 0.37880275 255 12 12
-0.19389228 -0.10662727 0.33457125 255 12 12
-0.18649738 -0.10635977 0.32908486 255 12 12
-0.18150206 -0.10648522 0.32901061 255 12 12
-0.16110404 -0.10556760 0.31174463 255 12 12
-0.15474313 -0.10525557 0.30605345 255 12 12
-0.14877855 -0.10491670 0.30016769 255 12 12
-0.14406167 -0.10485969 0.29801603 255 12 12
-0.12523884 -0.10321254 0.27258818 255 12 12
-0.12147775 -0.10324186 0.27175962 255 12 12
-0.11292696 -0.10286033 0.26455889 255 12 12
-0.10950053 -0.10294786 0.26452558 255 12 12
-0.10157354 -0.10255718 0.25741148 255 12 12
-0.09842500 -0.10266359 0.25768908 255 12 12
-0.09463931 -0.10255724 0.25524325 255 12 12
-0.09150501 -0.10267625 0.25567475 255 12 12
-0.08824755 -0.10271118 0.25507030 255 12 12
-0.08496271 -0.10270089 0.25392082 255 12 12
-0.07957756 -0.10351444 0.26188769 255 12 12
-0.07400658 -0.10511880 0.27917804 255 12 12
-0.04975586 -0.11352096 0.37126927 255 12 12
-0.04486248 -0.11383951 0.37351778 255 12 12
-0.04035368 -0.11359720 0.36923288 255 12 12
-0.03596916 -0.11343089 0.36588852 255 12 12
-0.03121929 -0.11358201 0.36619566 255 12 12
-0.02645875 -0.11379099 0.36718578 255 12 12
-0.02217597 -0.11358484 0.36340064 255 12 12
-0.01754215 -0.11344144 0.36025010 255 12 12
-0.01262755 -0.11363514 0.36101082 255 12 12
-0.00810916 -0.11364783 0.35974806 255 12 12
-0.00371558 -0.11356797 0.35742649 255 12 12
0.00094911 -0.11369886 0.35752015 255 12 12
0.00592809 -0.11391264 0.35849904 255 12 12
0.01094909 -0.11412094 0.35939965 255 12 12
0.01582973 -0.11425776 0.35949618 255 12 12
