ply
format ascii 1.0
element vertex 194
property float x
property float y
property float z
property uchar red
property uchar green
property uchar blue
end_header
0.02538582 -0.12016714 0.42661129 255 12 12
0.09966073 -0.13094814 0.53127657 255 12 12
0.10639890 -0.13066511 0.52581134 255 12 12
0.11300511 -0.13037107 0.52025683 255 12 12
0.12055811 -0.13032959 0.51740231 255 12 12
0.12843981 -0.13036458 0.51535216 255 12 12
0.13730802 -0.13058392 0.51518038 255 12 12
0.14447524 -0.13044247 0.51126059 255 12 12
0.15020882 -0.13000650 0.50429521 255 12 12
0.15761340 -0.12993079 0.50108101 255 12 12
0.16653868 -0.12991280 0.49807598 255 12 12
0.17050418 -0.12913753 0.48763845 255 12 12
0.17395069 -0.12831131 0.47675885 255 12 12
0.18079717 -0.12812306 0.47238413 255 12 12
0.18686578 -0.12793985 0.46831256 255 12 12
0.19266525 -0.12760539 0.46253080 255 12 12
0.20062628 -0.12764705 0.46053504 255 12 12
0.20993044 -0.12786361 0.46019397 255 12 12
0.21652170 -0.12766877 0.45582093 255 12 12
0.22444276 -0.12764841 0.45310182 255 12 12
0.23179816 -0.12755650 0.44971086 255 12 12
0.23877991 -0.12738649 0.44551027 255 12 12
0.24528830 -0.12716792 0.44088160 255 12 12
0.25401580 -0.12722121 0.43878397 255 12 12
0.14727755 -0.11179290 0.28914074 255 12 12
0.15132537 -0.11163231 0.28596959 255 12 12
0.15740737 -0.11170094 0.28488142 255 12 12
0.16241816 -0.11164362 0.28263406 255 12 12
0.16713018 -0.11153477 0.27986897 255 12 12
0.18423208 -0.11235998 0.28430939 255 12 12
0.22353576 -0.11443459 0.29662752 255 12 12
0.23245501 -0.11464053 0.29628087 255 12 12
0.27772324 -0.11684972 0.30832985 255 12 12
0.32662072 -0.11893980 0.31783070 255 12 12
0.33506548 -0.11887734 0.31444828 255 12 12
0.34099975 -0.11859330 0.30922255 255 12 12
0.34932193 -0.11850698 0.30559554 255 12 12
0.35684887 -0.11832968 0.30113787 255 12 12
0.36784140 -0.11839085 0.29842528 255 12 12
0.37748487 -0.11833987 0.29480422 255 12 12
0.38493448 -0.11810939 0.28973992 255 12 12
0.39718413 -0.11820753 0.28707268 255 12 12
0.40932056 -0.11815992 0.28271188 255 12 12
0.42083495 -0.11812326 0.27867554 255 12 12
0.42872334 -0.11782244 0.27263947 255 12 12
0.43335227 -0.11729920 0.26498433 255 12 12
0.44111832 -0.11706438 0.25976953 255 12 12
0.45028072 -0.11683264 0.25415460 255 12 12
0.45869320 -0.11653827 0.24803119 255 12 12
0.46890949 -0.11633255 0.24239523 255 12 12
0.48195185 -0.11625076 0.23734544 255 12 12
0.48900303 -0.11582420 0.23007970 255 12 12
0.49334437 -0.11524084 0.22180131 255 12 12
0.50090610 -0.11482041 0.21444846 255 12 12
0.50793802 -0.11434500 0.20660918 255 12 12
0.51626629 -0.11393459 0.19913539 255 12 12
0.52692094 -0.11361830 0.19205064 255 12 12
0.53652202 -0.11322990 0.18443996 255 12 12
0.54146535 -0.11258308 0.17522048 255 12 12
0.54500802 -0.11188215 0.16579712 255 12 12
0.55279263 -0.11136943 0.15727970 255 12 12
0.55900938 -0.11076199 0.14812905 255 12 12
0.65100622 -0.11170139 0.13049854 255 12 12
0.73770557 -0.11159845 0.10215942 255 12 12
0.73707157 -0.11050925 0.08943640 255 12 12
0.73773253 -0.10946250 0.07681181 255 12 12
0.73919237 -0.10843830 0.06420494 255 12 12
0.82432650 -0.10733101 0.02444069 255 12 12
0.84042398 -0.10650411 0.00959602 255 12 12
-0.01100045 -0.08462135 0.01630593 255 12 12
-0.01077919 -0.08452711 0.01511867 255 12 12
-0.01123796 -0.08444453 0.01428249 255 12 12
-0.02137782 -0.08450901 0.01821896 255 12 12
-0.02029140 -0.08440471 0.01664187 255 12 12
-0.01953287 -0.08413811 0.01324190 255 12 12
-0.02553161 -0.08417787 0.01558983 255 12 12
-0.02457995 -0.08406416 0.01394328 255 12 12
-0.02369676 -0.08394286 0.01222800 255 12 12
-0.02777115 -0.08394743 0.01355656 255 12 12
-0.03376967 -0.08385933 0.01438771 255 12 12
-0.03219079 -0.08361834 0.01103488 255 12 12
-0.03335998 -0.08361034 0.01130574 255 12 12
-0.03783715 -0.08350118 0.01141109 255 12 12
-0.03835960 -0.08316691 0.00760904 255 12 12
-0.03931676 -0.08316311 0.00786335 255 12 12
-0.04027983 -0.08315984 0.00812569 255 12 12
-0.04122892 -0.08315871 0.00840914 255 12 12
-0.04229348 -0.08317425 0.00892647 255 12 12
-0.04283978 -0.08313251 0.00860225 255 12 12
-0.04325848 -0.08307703 0.00807501 255 12 12
-0.04392825 -0.08305223 0.00799031 255 12 12
-0.04662869 -0.08317084 0.01024208 255 12 12
-0.04718099 -0.08313360 0.00997297 255 12 12
-0.05068957 -0.08336918 0.01386512 255 12 12
-0.05671435 -0.08396346 0.02279967 255 12 12
-0.05711093 -0.08396478 0.02293939 255 12 12
-0.05762654 -0.08400428 0.02356921 255 12 12
-0.05808736 -0.08365810 0.01960658 255 12 12
-0.05856058 -0.08368035 0.02001847 255 12 12
-0.05896293 -0.08325897 0.01514540 255 12 12
-0.06009123 -0.08338616 0.01700726 255 12 12
-0.06055862 -0.08341184 0.01745809 255 12 12
-0.06091045 -0.08335765 0.01692521 255 12 12
-0.06129271 -0.08330297 0.01639617 255 12 12
-0.06171142 -0.08328978 0.01637068 255 12 12
-0.06261411 -0.08338924 0.01783293 255 12 12
-0.06343303 -0.08324131 0.01633413 255 12 12
-0.06438037 -0.08298739 0.01361809 255 12 12
-0.06520545 -0.08309579 0.01516212 255 12 12
-0.06569400 -0.08304411 0.01470186 255 12 12
-0.06813349 -0.08311358 0.01628903 255 12 12
-0.06864301 -0.08306563 0.01587955 255 12 12
-0.06974887 -0.08327363 0.01869296 255 12 12
-0.07013772 -0.08327240 0.01880003 255 12 12
-0.07064797 -0.08322777 0.01843016 255 12 12
-0.07110942 -0.08320564 0.01831193 255 12 12
-0.07212105 -0.08325262 0.01918578 255 12 12
-0.07241162 -0.08327670 0.01956228 255 12 12
-0.07606668 -0.08292521 0.01653577 255 12 12
-0.07781337 -0.08278866 0.01546219 255 12 12
-0.07983429 -0.08261308 0.01401131 255 12 12
-0.08107118 -0.08281770 0.01682560 255 12 12
-0.08061335 -0.08303323 0.01923928 255 12 12
-0.08250004 -0.08322011 0.02204638 255 12 12
-0.08266954 -0.08325732 0.02254086 255 12 12
-0.08316977 -0.08325520 0.02267220 255 12 12
-0.08349983 -0.08327378 0.02299576 255 12 12
-0.08396890 -0.08336306 0.02420170 255 12 12
-0.08232290 -0.08362963 0.02684918 255 12 12
-0.08166864 -0.08377747 0.02839842 255 12 12
-0.08170562 -0.08381414 0.02884498 255 12 12
-0.08074332 -0.08397600 0.03046415 255 12 12
-0.08003553 -0.08416753 0.03251501 255 12 12
-0.09342169 -0.08341626 0.02778945 255 12 12
-0.09658096 -0.08330167 0.02741817 255 12 12
-0.09750191 -0.08329425 0.02761827 255 12 12
-0.09983360 -0.08326147 0.02795864 255 12 12
-0.10923024 -0.08309757 0.02895336 255 12 12
-0.10945274 -0.08315306 0.02968126 255 12 12
-0.10905667 -0.08355471 0.03432225 255 12 12
-0.31176587 -0.08012403 0.05702692 255 12 12
-0.31252665 -0.08043440 0.06094685 255 12 12
-0.31123286 -0.08078663 0.06472084 255 12 12
-0.32907866 -0.08114799 0.07458953 255 12 12
-0.34158852 -0.08168242 0.08484241 255 12 12
-0.34479873 -0.08204807 0.09018429 255 12 12
-0.36917570 -0.08258805 0.10421475 255 12 12
-0.38861998 -0.08327537 0.11845044 255 12 12
-0.39469926 -0.08369101 0.12528266 255 12 12
-0.64510329 -0.13749272 0.84186399 255 12 12
-0.62885934 -0.13822341 0.84545148 255 12 12
-0.61214261 -0.13891826 0.84846592 255 12 12
-0.47752800 -0.13133244 0.71636911 255 12 12
-0.46400641 -0.13183257 0.71807291 255 12 12
-0.45357284 -0.13264055 0.72439475 255 12 12
-0.44026219 -0.13308741 0.72553254 255 12 12
-0.42478178 -0.13321793 0.72223895 255 12 12
-0.41023334 -0.13326590 0.71825760 255 12 12
-0.34244599 -0.12759665 0.62979964 255 12 12
-0.33156884 -0.12789010 0.62987875 255 12 12
-0.32171336 -0.12847196 0.63369885 255 12 12
-0.31238722 -0.12902836 0.63738253 255 12 12
-0.30235792 -0.12945437 0.63929932 255 12 12
-0.29045414 -0.12950348 0.63615864 255 12 12
-0.28032364 -0.12981774 0.63671822 255 12 12
-0.27055833 -0.13023191 0.63857717 255 12 12
-0.25844113 -0.13005167 0.63264897 255 12 12
-0.24639433 -0.12985457 0.62654268 255 12 12
-0.23520746 -0.12984108 0.62288364 255 12 12
-0.22507879 -0.13000138 0.62161722 255 12 12
-0.21484040 -0.13008904 0.61945472 255 12 12
-0.20393231 -0.12991425 0.61396942 255 12 12
-0.19384655 -0.12992648 0.61095978 255 12 12
-0.18404456 -0.12997826 0.60850820 255 12 12
-0.17468827 -0.13014864 0.60760297 255 12 12
-0.16498852 -0.13012916 0.60433796 255 12 12
-0.15589539 -0.13024368 0.60285241 255 12 12
-0.14716104 -0.13058770 0.60420169 255 12 12
-0.13740139 -0.13021693 0.59675051 255 12 12
-0.12806171 -0.13005219 0.59187494 255 12 12
-0.11886614 -0.12984979 0.58659758 255 12 12
-0.10961358 -0.12940602 0.57843906 255 12 12
-0.10102066 -0.12922445 0.57359735 255 12 12
-0.08248098 -0.12588469 0.52817827 255 12 12
-0.07470099 -0.12535285 0.51943557 255 12 12
-0.06717655 -0.12459408 0.50808059 255 12 12
-0.05998040 -0.12415296 0.50059675 255 12 12
-0.04691342 -0.12209719 0.47212168 255 12 12
-0.03220770 -0.11708523 0.40806414 255 12 12
-0.02294781 -0.11570911 0.38884270 255 12 12
-0.01730072 -0.11596740 0.39014053 255 12 12
-0.01265841 -0.11586507 0.38747458 255 12 12
-0.00802820 -0.11558638 0.38272016 255 12 12
-0.00213888 -0.11603998 0.38625919 255 12 12
