ply
format ascii 1.0
element vertex 208
property float x
property float y
property float z
property uchar red
property uchar green
property uchar blue
end_header
-0.03017345 -0.09769903 0.17744581 255 12 12
-0.02741826 -0.09786395 0.17854048 255 12 12
-0.02461551 -0.09802546 0.17957981 255 12 12
-0.02198214 -0.09811743 0.17984728 255 12 12
-0.01894780 -0.09831569 0.18125018 255 12 12
-0.01577280 -0.09853211 0.18282452 255 12 12
-0.01387732 -0.09839289 0.18058007 255 12 12
-0.01193567 -0.09770897 0.17185924 255 12 12
-0.01030166 -0.09755984 0.16957908 255 12 12
0.34730222 -0.17158096 0.93585384 255 12 12
0.36604403 -0.17195962 0.93448378 255 12 12
0.38339118 -0.17207320 0.93040536 255 12 12
-0.01394382 -0.08444076 0.01508409 255 12 12
-0.01482502 -0.08437392 0.01456677 255 12 12
-0.01596288 -0.08430767 0.01413681 255 12 12
-0.01689065 -0.08423818 0.01360257 255 12 12
-0.02186110 -0.08420035 0.01470842 255 12 12
-0.02297486 -0.08414760 0.01443104 255 12 12
-0.02657095 -0.08410438 0.01504308 255 12 12
-0.03046638 -0.08409715 0.01617573 255 12 12
-0.03112619 -0.08404661 0.01578253 255 12 12
-0.03198443 -0.08400532 0.01556113 255 12 12
-0.03281780 -0.08396857 0.01538586 255 12 12
-0.03330114 -0.08391239 0.01487063 255 12 12
-0.03324280 -0.08373917 0.01279736 255 12 12
-0.03355610 -0.08367626 0.01214908 255 12 12
-0.03374792 -0.08359860 0.01128774 255 12 12
-0.03378541 -0.08350977 0.01024570 255 12 12
-0.03434809 -0.08345364 0.00975581 255 12 12
-0.03478719 -0.08338345 0.00906049 255 12 12
-0.03522300 -0.08331506 0.00838545 255 12 12
-0.03792472 -0.08333411 0.00945650 255 12 12
-0.04885603 -0.08401974 0.02100937 255 12 12
-0.04924684 -0.08398875 0.02076396 255 12 12
-0.05014779 -0.08401743 0.02138598 255 12 12
-0.05052582 -0.08398895 0.02116641 255 12 12
-0.05054587 -0.08391522 0.02029794 255 12 12
-0.04949642 -0.08358572 0.01606075 255 12 12
-0.04921757 -0.08332467 0.01287671 255 12 12
-0.04909438 -0.08305724 0.00966557 255 12 12
-0.04964762 -0.08286595 0.00756931 255 12 12
-0.05049838 -0.08288441 0.00805439 255 12 12
-0.05125791 -0.08270966 0.00621886 255 12 12
-0.05189722 -0.08267613 0.00602111 255 12 12
-0.05244455 -0.08260456 0.00534319 255 12 12
-0.05310923 -0.08257186 0.00516321 255 12 12
-0.05377699 -0.08254006 0.00499482 255 12 12
-0.05439219 -0.08249014 0.00459504 255 12 12
-0.05511038 -0.08247965 0.00469521 255 12 12
-0.05592700 -0.08250877 0.00529607 255 12 12
-0.05666718 -0.08252073 0.00566953 255 12 12
-0.05724880 -0.08245490 0.00507047 255 12 12
-0.05788632 -0.08243033 0.00497837 255 12 12
-0.05854628 -0.08240585 0.00489436 255 12 12
-0.06004234 -0.08252250 0.00674623 255 12 12
-0.06079187 -0.08256122 0.00743999 255 12 12
-0.06357731 -0.08374171 0.02231556 255 12 12
-0.06394940 -0.08369077 0.02182768 255 12 12
-0.06429960 -0.08370389 0.02209282 255 12 12
-0.06469857 -0.08369549 0.02211795 255 12 12
-0.06509007 -0.08366678 0.02189983 255 12 12
-0.06540525 -0.08370328 0.02243143 255 12 12
-0.06576928 -0.08369724 0.02247365 255 12 12
-0.06613867 -0.08367047 0.02227152 255 12 12
-0.06795556 -0.08365099 0.02260879 255 12 12
-0.06972268 -0.08373408 0.02414722 255 12 12
-0.07032602 -0.08366929 0.02356736 255 12 12
-0.07072705 -0.08373899 0.02451965 255 12 12
-0.07829409 -0.08260796 0.01346878 255 12 12
-0.08220791 -0.08213315 0.00906022 255 12 12
-0.08459044 -0.08196816 0.00784807 255 12 12
-0.08489514 -0.08202511 0.00861904 255 12 12
-0.08509100 -0.08210510 0.00962920 255 12 12
-0.08595606 -0.08208014 0.00960366 255 12 12
-0.08654341 -0.08220173 0.01122990 255 12 12
-0.08680059 -0.08226319 0.01203943 255 12 12
-0.08719039 -0.08230454 0.01265191 255 12 12
-0.08772316 -0.08232616 0.01307499 255 12 12
-0.08855300 -0.08230742 0.01311229 255 12 12
-0.08956878 -0.08227080 0.01299548 255 12 12
-0.09058798 -0.08223567 0.01289755 255 12 12
-0.09145642 -0.08222272 0.01301558 255 12 12
-0.09269242 -0.08217303 0.01281262 255 12 12
-0.09357488 -0.08216383 0.01297956 255 12 12
-0.09392156 -0.08221428 0.01368646 255 12 12
-0.09407020 -0.08228448 0.01456576 255 12 12
-0.09355832 -0.08240617 0.01584932 255 12 12
-0.09344876 -0.08249334 0.01684910 255 12 12
-0.09238264 -0.08274019 0.01944413 255 12 12
-0.09206175 -0.08284910 0.02063577 255 12 12
-0.09185729 -0.08293518 0.02159300 255 12 12
-0.09222718 -0.08296713 0.02208766 255 12 12
-0.09259418 -0.08300035 0.02259657 255 12 12
-0.09682997 -0.08277786 0.02128208 255 12 12
-0.09804935 -0.08274983 0.02133089 255 12 12
-0.09884995 -0.08275759 0.02167340 255 12 12
-0.09989385 -0.08275434 0.02196137 255 12 12
-0.10157003 -0.08270291 0.02187543 255 12 12
-0.10281998 -0.08268691 0.02207668 255 12 12
-0.10596994 -0.08261353 0.02219139 255 12 12
-0.10655374 -0.08265124 0.02282129 255 12 12
-0.10621280 -0.08274804 0.02386304 255 12 12
-0.10608343 -0.08283046 0.02480031 255 12 12
-0.09879872 -0.08352953 0.03081505 255 12 12
-0.10706902 -0.08320667 0.02957172 255 12 12
-0.10777901 -0.08323966 0.03018506 255 12 12
-0.10751744 -0.08332224 0.03108290 255 12 12
-0.09712265 -0.08399600 0.03582462 255 12 12
-0.09724857 -0.08404254 0.03641607 255 12 12
-0.09810135 -0.08405875 0.03687518 255 12 12
-0.10012475 -0.08413998 0.03847162 255 12 12
-0.10069119 -0.08416772 0.03897791 255 12 12
-0.10175426 -0.08418491 0.03951434 255 12 12
-0.10280876 -0.08420433 0.04007461 255 12 12
-0.69672688 -0.06740189 0.02651023 255 12 12
-0.71393877 -0.06784958 0.03720486 255 12 12
-0.81085704 -0.06844069 0.07453146 255 12 12
-0.81023579 -0.06953585 0.08732918 255 12 12
-0.81088940 -0.07060590 0.10022787 255 12 12
-0.59750164 -0.07799657 0.12116116 255 12 12
-0.58707922 -0.07899112 0.12969978 255 12 12
-0.57957862 -0.07987653 0.13785753 255 12 12
-0.57443225 -0.08070972 0.14613213 255 12 12
-0.57425152 -0.08150584 0.15552010 255 12 12
-0.23060903 -0.08469580 0.08587846 255 12 12
-0.22985578 -0.08495665 0.08873732 255 12 12
-0.22713326 -0.08522110 0.09102303 255 12 12
-0.22318762 -0.08547986 0.09285861 255 12 12
-0.22017760 -0.08573011 0.09488584 255 12 12
-0.21761754 -0.08597489 0.09698907 255 12 12
-0.21479695 -0.08621318 0.09893364 255 12 12
-0.21074284 -0.08644929 0.10046667 255 12 12
-0.20764090 -0.08667486 0.10217238 255 12 12
-0.20454103 -0.08688952 0.10374934 255 12 12
-0.20186906 -0.08710585 0.10547995 255 12 12
-0.19921460 -0.08730921 0.10706225 255 12 12
-0.19652856 -0.08751043 0.10860917 255 12 12
-0.19449718 -0.08771702 0.11042467 255 12 12
-0.19200160 -0.08791178 0.11195455 255 12 12
-0.18969157 -0.08810925 0.11357465 255 12 12
-0.18781646 -0.08830852 0.11535206 255 12 12
-0.18527500 -0.08848909 0.11669934 255 12 12
-0.18208833 -0.08864763 0.11758341 255 12 12
-0.17951575 -0.08881972 0.11882027 255 12 12
-0.17757877 -0.08900216 0.12037879 255 12 12
-0.17541767 -0.08917473 0.12175001 255 12 12
-0.17243404 -0.08931519 0.12248305 255 12 12
-0.17021348 -0.08948442 0.12379620 255 12 12
-0.16879087 -0.08967756 0.12564240 255 12 12
-0.16677613 -0.08984208 0.12696398 255 12 12
-0.16434073 -0.08998920 0.12794760 255 12 12
-0.16194927 -0.09012567 0.12881858 255 12 12
-0.15971964 -0.09026941 0.12982631 255 12 12
-0.15876593 -0.09047551 0.13197300 255 12 12
-0.17757954 -0.09353230 0.17412089 255 12 12
-0.17591906 -0.09380606 0.17684912 255 12 12
-0.17502335 -0.09413716 0.18049689 255 12 12
-0.17199025 -0.09431270 0.18163073 255 12 12
-0.16929135 -0.09450520 0.18307014 255 12 12
-0.16756808 -0.09478888 0.18589646 255 12 12
-0.16524187 -0.09501582 0.18786116 255 12 12
-0.16241751 -0.09520278 0.18919574 255 12 12
-0.15920732 -0.09534035 0.18982358 255 12 12
-0.15636377 -0.09551814 0.19104340 255 12 12
-0.15380617 -0.09571774 0.19261128 255 12 12
-0.15105491 -0.09590256 0.19394330 255 12 12
-0.14853106 -0.09608966 0.19537355 255 12 12
-0.14542648 -0.09621823 0.19592771 255 12 12
-0.14232789 -0.09634148 0.19642065 255 12 12
-0.13945781 -0.09649127 0.19729997 255 12 12
-0.13611132 -0.09657480 0.19724416 255 12 12
-0.13303769 -0.09668204 0.19755499 255 12 12
-0.13037042 -0.09685075 0.19872220 255 12 12
-0.12787323 -0.09705000 0.20030481 255 12 12
-0.12516352 -0.09723473 0.20164882 255 12 12
-0.12246973 -0.09741377 0.20293024 255 12 12
-0.11888368 -0.09739307 0.20156295 255 12 12
-0.11484772 -0.09725941 0.19871496 255 12 12
-0.09584780 -0.09464318 0.16173529 255 12 12
-0.09296347 -0.09450058 0.15914145 255 12 12
-0.09073133 -0.09451881 0.15865959 255 12 12
-0.08897523 -0.09470622 0.16033361 255 12 12
-0.08695428 -0.09479487 0.16075317 255 12 12
-0.08507444 -0.09496002 0.16212438 255 12 12
-0.08308827 -0.09504120 0.16246615 255 12 12
-0.08099447 -0.09510246 0.16253801 255 12 12
-0.07913140 -0.09530035 0.16430292 255 12 12
-0.07707136 -0.09539663 0.16480075 255 12 12
-0.07485104 -0.09545316 0.16477692 255 12 12
-0.07276060 -0.09556528 0.16545310 255 12 12
-0.07068347 -0.09567385 0.16609142 255 12 12
-0.06856400 -0.09580166 0.16694476 255 12 12
-0.06649143 -0.09594601 0.16800892 255 12 12
-0.06434293 -0.09602644 0.16829113 255 12 12
-0.06218348 -0.09612506 0.16878558 255 12 12
-0.05997554 -0.09632677 0.17048792 255 12 12
-0.05769168 -0.09642202 0.17090358 255 12 12
-0.05545709 -0.09647080 0.17078326 255 12 12
-0.05310461 -0.09668710 0.17261346 255 12 12
-0.05072193 -0.09683752 0.17365271 255 12 12
-0.04844762 -0.09689828 0.17366219 255 12 12
-0.04613345 -0.09695637 0.17362748 255 12 12
-0.04385149 -0.09701062 0.17355725 255 12 12
-0.04132663 -0.09717096 0.17466966 255 12 12
-0.03895559 -0.09728354 0.17526362 255 12 12
-0.03628913 -0.09748140 0.17677687 255 12 12
-0.03372351 -0.09761062 0.17750734 255 12 12
-0.03141263 -0.09762689 0.17697752 255 12 12
