ply
format ascii 1.0
element vertex 115
property float x
property float y
property float z
property uchar red
property uchar green
property uchar blue
end_header
0.02840053 -0.12081243 0.43332356 255 12 12
-0.05840418 -0.08383746 0.02183344 255 12 12
-0.05870312 -0.08382420 0.02176959 255 12 12
-0.05903907 -0.08383112 0.02195676 255 12 12
-0.05921053 -0.08361063 0.01939469 255 12 12
-0.05961258 -0.08363723 0.01983597 255 12 12
-0.06000987 -0.08362200 0.01977963 255 12 12
-0.06029009 -0.08356930 0.01924203 255 12 12
-0.06058526 -0.08351648 0.01870774 255 12 12
-0.06084958 -0.08342295 0.01768084 255 12 12
-0.06152387 -0.08342188 0.01787908 255 12 12
-0.06185774 -0.08339044 0.01761053 255 12 12
-0.06222500 -0.08340044 0.01784405 255 12 12
-0.06292516 -0.08325465 0.01633352 255 12 12
-0.06330054 -0.08324471 0.01633305 255 12 12
-0.06471257 -0.08333747 0.01787509 255 12 12
-0.06506633 -0.08333018 0.01789920 255 12 12
-0.06538431 -0.08334505 0.01817513 255 12 12
-0.06573384 -0.08333865 0.01820852 255 12 12
-0.06623336 -0.08345719 0.01977100 255 12 12
-0.06650430 -0.08351679 0.02056280 255 12 12
-0.06687224 -0.08349063 0.02036749 255 12 12
-0.06715441 -0.08350849 0.02066765 255 12 12
-0.06806514 -0.08349958 0.02084684 255 12 12
-0.06881531 -0.08355971 0.02179478 255 12 12
-0.06970822 -0.08355756 0.02204864 255 12 12
-0.07007395 -0.08353561 0.02190256 255 12 12
-0.07060998 -0.08347006 0.02129260 255 12 12
-0.07179688 -0.08340792 0.02092662 255 12 12
-0.07414804 -0.08317842 0.01893943 255 12 12
-0.07438091 -0.08320434 0.01931985 255 12 12
-0.07626596 -0.08297495 0.01718808 255 12 12
-0.07690732 -0.08296215 0.01723689 255 12 12
-0.07868839 -0.08280575 0.01593855 255 12 12
-0.08029278 -0.08267213 0.01485526 255 12 12
-0.08003788 -0.08278869 0.01615830 255 12 12
-0.07970277 -0.08297878 0.01830858 255 12 12
-0.07883437 -0.08328268 0.02164219 255 12 12
-0.07914050 -0.08329347 0.02186594 255 12 12
-0.07899944 -0.08336711 0.02269540 255 12 12
-0.07913591 -0.08339903 0.02311669 255 12 12
-0.07942104 -0.08341071 0.02334451 255 12 12
-0.07970291 -0.08342282 0.02357633 255 12 12
-0.08254376 -0.08327949 0.02276451 255 12 12
-0.08209491 -0.08345989 0.02476423 255 12 12
-0.08199018 -0.08351388 0.02537201 255 12 12
-0.08224785 -0.08353011 0.02564506 255 12 12
-0.08030882 -0.08383984 0.02871305 255 12 12
-0.08052992 -0.08385614 0.02897557 255 12 12
-0.08034215 -0.08390815 0.02953377 255 12 12
-0.07913348 -0.08408263 0.03122568 255 12 12
-0.07949791 -0.08407897 0.03129621 255 12 12
-0.09028069 -0.08353940 0.02826787 255 12 12
-0.09405332 -0.08341150 0.02793053 255 12 12
-0.09382681 -0.08347397 0.02860073 255 12 12
-0.09449020 -0.08347623 0.02883514 255 12 12
-0.09492880 -0.08349503 0.02919536 255 12 12
-0.10219353 -0.08324282 0.02847557 255 12 12
-0.10709890 -0.08308005 0.02807894 255 12 12
-0.10683725 -0.08315260 0.02885767 255 12 12
-0.10608963 -0.08325065 0.02978711 255 12 12
-0.10579242 -0.08331981 0.03051457 255 12 12
-0.10597046 -0.08336600 0.03111821 255 12 12
-0.10638111 -0.08340081 0.03165960 255 12 12
-0.10451463 -0.08359912 0.03342837 255 12 12
-0.10587290 -0.08359074 0.03375388 255 12 12
-0.10673854 -0.08360603 0.03420602 255 12 12
-0.10735690 -0.08363474 0.03474000 255 12 12
-0.10795996 -0.08366109 0.03524122 255 12 12
-0.10856363 -0.08369177 0.03579396 255 12 12
-0.65247311 -0.12974673 0.75227701 255 12 12
-0.59671982 -0.12888675 0.72463629 255 12 12
-0.57429543 -0.12869883 0.71539310 255 12 12
-0.40531112 -0.12073816 0.56809913 255 12 12
-0.36888145 -0.11960041 0.54320725 255 12 12
-0.33751954 -0.11875826 0.52340726 255 12 12
-0.32933118 -0.11911763 0.52510939 255 12 12
-0.32195760 -0.11959848 0.52850746 255 12 12
-0.31117740 -0.11969042 0.52622635 255 12 12
-0.30278443 -0.12002977 0.52762696 255 12 12
-0.29346454 -0.12018647 0.52657085 255 12 12
-0.28451148 -0.12040089 0.52631419 255 12 12
-0.27768820 -0.12079085 0.52880621 255 12 12
-0.26816083 -0.12083711 0.52637498 255 12 12
-0.25813043 -0.12072181 0.52186982 255 12 12
-0.24723737 -0.12042191 0.51490493 255 12 12
-0.23898872 -0.12054237 0.51375393 255 12 12
-0.21904250 -0.11996754 0.50069590 255 12 12
-0.16730230 -0.11448994 0.41953071 255 12 12
-0.15080589 -0.11332978 0.40060777 255 12 12
-0.14462760 -0.11326914 0.39795590 255 12 12
-0.13885165 -0.11326968 0.39615579 255 12 12
-0.12461814 -0.11199609 0.37659497 255 12 12
-0.11886509 -0.11176281 0.37202811 255 12 12
-0.11340925 -0.11159676 0.36835174 255 12 12
-0.10012739 -0.11859401 0.44720710 255 12 12
-0.09397330 -0.11884041 0.44820525 255 12 12
-0.08381001 -0.12117879 0.47276705 255 12 12
-0.07791377 -0.12219389 0.48296514 255 12 12
-0.07156541 -0.12304612 0.49108969 255 12 12
-0.06473697 -0.12407117 0.50111425 255 12 12
-0.05788160 -0.12492028 0.50904315 255 12 12
-0.05109212 -0.12479329 0.50541305 255 12 12
-0.04451033 -0.12444283 0.49919678 255 12 12
-0.03817688 -0.12416258 0.49389111 255 12 12
-0.03169621 -0.12408767 0.49097547 255 12 12
-0.02558620 -0.12382879 0.48599315 255 12 12
-0.01934533 -0.12369082 0.48240444 255 12 12
-0.01274728 -0.12388872 0.48268843 255 12 12
-0.00657982 -0.12377548 0.47941591 255 12 12
-0.00047352 -0.12373802 0.47706163 255 12 12
0.00565555 -0.12367172 0.47435807 255 12 12
0.01252112 -0.12371230 0.47269199 255 12 12
0.01939926 -0.12397849 0.47369848 255 12 12
0.02938895 -0.12290861 0.45788176 255 12 12
