ply
format ascii 1.0
element vertex 131
property float x
property float y
property float z
property uchar red
property uchar green
property uchar blue
end_header
0.14515069 -0.16787491 0.95511727 255 12 12
-0.05017069 -0.08368060 0.01739730 255 12 12
-0.04916335 -0.08330508 0.01262730 255 12 12
-0.04934694 -0.08324727 0.01199893 255 12 12
-0.04899191 -0.08299527 0.00889837 255 12 12
-0.04923978 -0.08293501 0.00826102 255 12 12
-0.04941192 -0.08285720 0.00739181 255 12 12
-0.04981544 -0.08269979 0.00565063 255 12 12
-0.05054145 -0.08272625 0.00619158 255 12 12
-0.05124138 -0.08275469 0.00674798 255 12 12
-0.05170119 -0.08273029 0.00660225 255 12 12
-0.05216280 -0.08270632 0.00646229 255 12 12
-0.05277352 -0.08271907 0.00680464 255 12 12
-0.05316691 -0.08267776 0.00643754 255 12 12
-0.05443891 -0.08257420 0.00560690 255 12 12
-0.05491291 -0.08255280 0.00550128 255 12 12
-0.05532737 -0.08251307 0.00515960 255 12 12
-0.05580695 -0.08249247 0.00506514 255 12 12
-0.05627319 -0.08243026 0.00447305 255 12 12
-0.05678262 -0.08240958 0.00438703 255 12 12
-0.05803380 -0.08250955 0.00596431 255 12 12
-0.05842059 -0.08247393 0.00566271 255 12 12
-0.05949374 -0.08254120 0.00679643 255 12 12
-0.06127784 -0.08298776 0.01265204 255 12 12
-0.06347808 -0.08363918 0.02106814 255 12 12
-0.06435818 -0.08357645 0.02059929 255 12 12
-0.06463334 -0.08359160 0.02086508 255 12 12
-0.06566060 -0.08363557 0.02170804 255 12 12
-0.06603754 -0.08356606 0.02100134 255 12 12
-0.06646183 -0.08347497 0.02005342 255 12 12
-0.06717127 -0.08355094 0.02117661 255 12 12
-0.06745471 -0.08354795 0.02122970 255 12 12
-0.06877037 -0.08364680 0.02281387 255 12 12
-0.06903824 -0.08364605 0.02288881 255 12 12
-0.06944293 -0.08360164 0.02248858 255 12 12
-0.07030852 -0.08358022 0.02250523 255 12 12
-0.07040067 -0.08369199 0.02385990 255 12 12
-0.07152849 -0.08354140 0.02242624 255 12 12
-0.07169458 -0.08356537 0.02276257 255 12 12
-0.08152276 -0.08221529 0.00982039 255 12 12
-0.08260156 -0.08211727 0.00899496 255 12 12
-0.08345534 -0.08206342 0.00862322 255 12 12
-0.08402284 -0.08202790 0.00837925 255 12 12
-0.08446992 -0.08203885 0.00864906 255 12 12
-0.08463788 -0.08209264 0.00933971 255 12 12
-0.08480095 -0.08214694 0.01003491 255 12 12
-0.08539242 -0.08213899 0.01012555 255 12 12
-0.08567072 -0.08224958 0.01152459 255 12 12
-0.08637921 -0.08222197 0.01141857 255 12 12
-0.08660349 -0.08225597 0.01189209 255 12 12
-0.08670210 -0.08231219 0.01258993 255 12 12
-0.08693252 -0.08234766 0.01308280 255 12 12
-0.08700582 -0.08240424 0.01377689 255 12 12
-0.08922727 -0.08225513 0.01270281 255 12 12
-0.08978253 -0.08225299 0.01285106 255 12 12
-0.09050471 -0.08223159 0.01282305 255 12 12
-0.09124030 -0.08221161 0.01281620 255 12 12
-0.09197240 -0.08219226 0.01281556 255 12 12
-0.09253556 -0.08219359 0.01300757 255 12 12
-0.09292267 -0.08221526 0.01338562 255 12 12
-0.09343419 -0.08221518 0.01354476 255 12 12
-0.09289090 -0.08239387 0.01549461 255 12 12
-0.09305426 -0.08243525 0.01603665 255 12 12
-0.09287208 -0.08251704 0.01694990 255 12 12
-0.09264241 -0.08259649 0.01782059 255 12 12
-0.09201375 -0.08271265 0.01900197 255 12 12
-0.09155249 -0.08280935 0.02000487 255 12 12
-0.09166107 -0.08285099 0.02053290 255 12 12
-0.09155770 -0.08291037 0.02120495 255 12 12
-0.09084526 -0.08302331 0.02232195 255 12 12
-0.09111270 -0.08304622 0.02267738 255 12 12
-0.09196653 -0.08301522 0.02257669 255 12 12
-0.09304249 -0.08296915 0.02236672 255 12 12
-0.09371590 -0.08295937 0.02246126 255 12 12
-0.09718963 -0.08277634 0.02137648 255 12 12
-0.09725739 -0.08282250 0.02194532 255 12 12
-0.09774251 -0.08283566 0.02225318 255 12 12
-0.10109262 -0.08268735 0.02154152 255 12 12
-0.10093340 -0.08275298 0.02227035 255 12 12
-0.10120096 -0.08278675 0.02275467 255 12 12
-0.10394905 -0.08270269 0.02261701 255 12 12
-0.10488421 -0.08269433 0.02281036 255 12 12
-0.10627199 -0.08265774 0.02281036 255 12 12
-0.10630548 -0.08271220 0.02346688 255 12 12
-0.10586768 -0.08279494 0.02431153 255 12 12
-0.10564989 -0.08286338 0.02505522 255 12 12
-0.10262323 -0.08315108 0.02752166 255 12 12
-0.09732493 -0.08359590 0.03114143 255 12 12
-0.10563872 -0.08328195 0.03001733 255 12 12
-0.10700305 -0.08326178 0.03020484 255 12 12
-0.10764872 -0.08328056 0.03062952 255 12 12
-0.09887611 -0.08384246 0.03455158 255 12 12
-0.09640858 -0.08403516 0.03606585 255 12 12
-0.09674380 -0.08405797 0.03644123 255 12 12
-0.09732023 -0.08407112 0.03677751 255 12 12
-0.09740145 -0.08410577 0.03721407 255 12 12
-0.09747706 -0.08414066 0.03765161 255 12 12
-0.09841387 -0.08421929 0.03887735 255 12 12
-0.10199661 -0.08417116 0.03942704 255 12 12
-0.10204259 -0.08421087 0.03991248 255 12 12
-0.54646176 -0.07087747 0.02074160 255 12 12
-0.54972204 -0.07130363 0.02681704 255 12 12
-0.65225151 -0.07021262 0.04594337 255 12 12
-0.64968620 -0.07091094 0.05342535 255 12 12
-0.64802478 -0.07158245 0.06087194 255 12 12
-0.64826600 -0.07220756 0.06836313 255 12 12
-0.65539809 -0.07268455 0.07625251 255 12 12
-0.66366941 -0.07315437 0.08441324 255 12 12
-0.66659548 -0.07374745 0.09236423 255 12 12
-0.67391007 -0.07425326 0.10065263 255 12 12
-0.09587537 -0.16835931 1.03625215 255 12 12
-0.08272548 -0.16827044 1.03108482 255 12 12
-0.06972441 -0.16826816 1.02699130 255 12 12
-0.05682048 -0.16841706 1.02472159 255 12 12
-0.04398630 -0.16850799 1.02178610 255 12 12
-0.03147807 -0.16861908 1.01919168 255 12 12
-0.01883458 -0.16859348 1.01493329 255 12 12
-0.00653227 -0.16858851 1.01102641 255 12 12
0.00604825 -0.16870192 1.00843687 255 12 12
0.01877110 -0.16874074 1.00491794 255 12 12
0.03007644 -0.16781107 0.99035300 255 12 12
0.04090351 -0.16677462 0.97467087 255 12 12
0.05285048 -0.16677861 0.97098145 255 12 12
0.06623356 -0.16725618 0.97246099 255 12 12
0.07826778 -0.16719055 0.96791837 255 12 12
0.08970695 -0.16697557 0.96179006 255 12 12
0.10245294 -0.16733734 0.96209505 255 12 12
0.11485861 -0.16785257 0.96432707 255 12 12
0.12653997 -0.16779135 0.95994712 255 12 12
0.13781549 -0.16758410 0.95396165 255 12 12
0.15044567 -0.16793245 0.95414379 255 12 12
