ply
format ascii 1.0
element vertex 272
property float x
property float y
property float z
property uchar red
property uchar green
property uchar blue
end_header
0.17948444 -0.17020969 0.97207633 255 12 12
0.19130303 -0.17038449 0.97045334 255 12 12
0.20284330 -0.17045866 0.96772370 255 12 12
0.21442712 -0.17054206 0.96508988 255 12 12
0.22729306 -0.17070044 0.96294457 255 12 12
0.23924217 -0.17080072 0.96039670 255 12 12
0.25109250 -0.17086554 0.95745918 255 12 12
0.26308494 -0.17096083 0.95483857 255 12 12
0.27357823 -0.17111693 0.95340837 255 12 12
0.28514349 -0.17121193 0.95091802 255 12 12
0.29678984 -0.17131630 0.94851336 255 12 12
0.30861857 -0.17145182 0.94642122 255 12 12
0.32217189 -0.17167218 0.94479621 255 12 12
0.33526628 -0.17199626 0.94454522 255 12 12
0.34779193 -0.17217517 0.94274986 255 12 12
0.36012128 -0.17229651 0.94033295 255 12 12
0.37572033 -0.17242581 0.93698781 255 12 12
-0.01094509 -0.08441018 0.01378342 255 12 12
-0.01174268 -0.08435665 0.01339790 255 12 12
-0.01168314 -0.08428384 0.01251541 255 12 12
-0.01685951 -0.08420427 0.01319055 255 12 12
-0.02112591 -0.08419826 0.01445370 255 12 12
-0.02148228 -0.08414572 0.01394190 255 12 12
-0.02266392 -0.08412013 0.01400788 255 12 12
-0.02342752 -0.08408350 0.01381216 255 12 12
-0.02612586 -0.08406142 0.01439430 255 12 12
-0.02897265 -0.08405745 0.01523755 255 12 12
-0.02951045 -0.08402174 0.01498219 255 12 12
-0.03025432 -0.08399358 0.01488075 255 12 12
-0.03080017 -0.08395864 0.01463704 255 12 12
-0.03096854 -0.08390691 0.01407597 255 12 12
-0.03152032 -0.08387296 0.01384586 255 12 12
-0.03186743 -0.08383283 0.01347827 255 12 12
-0.03223529 -0.08379107 0.01309796 255 12 12
-0.03267778 -0.08356681 0.01057587 255 12 12
-0.03306330 -0.08352682 0.01022212 255 12 12
-0.03312974 -0.08346352 0.00949197 255 12 12
-0.03308344 -0.08338430 0.00853764 255 12 12
-0.03383483 -0.08336585 0.00855386 255 12 12
-0.03425366 -0.08332549 0.00820597 255 12 12
-0.03484302 -0.08329678 0.00804980 255 12 12
-0.03605852 -0.08331791 0.00868061 255 12 12
-0.03724438 -0.08334249 0.00934312 255 12 12
-0.04676788 -0.08388822 0.01879597 255 12 12
-0.04846316 -0.08390185 0.01948789 255 12 12
-0.04887878 -0.08389423 0.01952749 255 12 12
-0.04891847 -0.08384234 0.01892434 255 12 12
-0.04898452 -0.08378889 0.01831099 255 12 12
-0.04933544 -0.08364405 0.01670249 255 12 12
-0.04856536 -0.08336766 0.01318270 255 12 12
-0.04884621 -0.08332575 0.01277330 255 12 12
-0.04804116 -0.08303148 0.00903060 255 12 12
-0.04836471 -0.08298829 0.00861934 255 12 12
-0.04801658 -0.08271412 0.00525803 255 12 12
-0.04859537 -0.08270248 0.00530089 255 12 12
-0.04916022 -0.08269223 0.00535607 255 12 12
-0.04945960 -0.08263059 0.00471839 255 12 12
-0.04978332 -0.08256814 0.00407880 255 12 12
-0.05048934 -0.08259621 0.00463263 255 12 12
-0.05104031 -0.08258895 0.00471879 255 12 12
-0.05158726 -0.08258243 0.00481258 255 12 12
-0.05226854 -0.08261339 0.00539295 255 12 12
-0.05267718 -0.08239730 0.00295729 255 12 12
-0.05311349 -0.08235490 0.00259067 255 12 12
-0.05368255 -0.08235008 0.00271146 255 12 12
-0.05448472 -0.08244292 0.00406385 255 12 12
-0.05506975 -0.08245997 0.00444908 255 12 12
-0.05559582 -0.08245866 0.00459808 255 12 12
-0.05607187 -0.08243860 0.00450894 255 12 12
-0.05640221 -0.08233973 0.00343940 255 12 12
-0.05670885 -0.08222108 0.00212773 255 12 12
-0.05717938 -0.08218154 0.00180585 255 12 12
-0.05846905 -0.08232405 0.00389979 255 12 12
-0.05887331 -0.08224619 0.00310263 255 12 12
-0.06331168 -0.08358041 0.02031901 255 12 12
-0.06360437 -0.08355202 0.02007370 255 12 12
-0.06389126 -0.08350305 0.01958255 255 12 12
-0.06417216 -0.08351754 0.01984223 255 12 12
-0.06497596 -0.08358468 0.02089017 255 12 12
-0.06688622 -0.08340542 0.01936110 255 12 12
-0.06717998 -0.08340168 0.01940855 255 12 12
-0.06732856 -0.08346386 0.02019272 255 12 12
-0.06749014 -0.08363323 0.02225253 255 12 12
-0.06830288 -0.08351933 0.02115546 255 12 12
-0.06919225 -0.08349306 0.02112207 255 12 12
-0.06944612 -0.08349230 0.02119242 255 12 12
-0.06950490 -0.08355775 0.02198730 255 12 12
-0.07021763 -0.08358002 0.02247434 255 12 12
-0.07039592 -0.08360269 0.02279914 255 12 12
-0.07152213 -0.08345126 0.02135484 255 12 12
-0.07178516 -0.08345289 0.02145646 255 12 12
-0.07214699 -0.08343294 0.02133306 255 12 12
-0.07596220 -0.08287735 0.01593532 255 12 12
-0.07885018 -0.08245242 0.01179753 255 12 12
-0.08175162 -0.08210040 0.00852895 255 12 12
-0.08425824 -0.08183900 0.00621198 255 12 12
-0.08465258 -0.08184767 0.00643812 255 12 12
-0.08524270 -0.08183704 0.00649660 255 12 12
-0.08569395 -0.08184818 0.00676992 255 12 12
-0.08601832 -0.08188139 0.00726535 255 12 12
-0.08647961 -0.08189413 0.00756078 255 12 12
-0.08678868 -0.08192827 0.00806250 255 12 12
-0.08708881 -0.08196283 0.00856628 255 12 12
-0.08738002 -0.08199777 0.00907196 255 12 12
-0.08764385 -0.08203247 0.00956608 255 12 12
-0.08776861 -0.08208892 0.01027479 255 12 12
-0.08756797 -0.08218656 0.01137034 255 12 12
-0.08796775 -0.08220198 0.01167836 255 12 12
-0.08899744 -0.08213637 0.01122207 255 12 12
-0.08924027 -0.08217363 0.01174003 255 12 12
-0.08931302 -0.08223148 0.01244902 255 12 12
-0.09035328 -0.08216845 0.01202668 255 12 12
-0.09105075 -0.08214568 0.01197478 255 12 12
-0.09177032 -0.08212467 0.01195051 255 12 12
-0.09249467 -0.08210461 0.01193919 255 12 12
-0.09287857 -0.08212496 0.01230066 255 12 12
-0.09391396 -0.08206507 0.01191399 255 12 12
-0.09481943 -0.08202794 0.01175675 255 12 12
-0.09483107 -0.08208833 0.01247683 255 12 12
-0.09447689 -0.08218768 0.01354464 255 12 12
-0.09452283 -0.08225184 0.01432016 255 12 12
-0.09488514 -0.08227556 0.01471482 255 12 12
-0.09448555 -0.08237448 0.01576331 255 12 12
-0.09369353 -0.08251059 0.01713029 255 12 12
-0.09361682 -0.08256982 0.01780897 255 12 12
-0.09412162 -0.08257480 0.01802600 255 12 12
-0.09296122 -0.08278581 0.02016633 255 12 12
-0.09365428 -0.08277447 0.02024852 255 12 12
-0.09394203 -0.08279918 0.02063170 255 12 12
-0.09401614 -0.08284136 0.02115526 255 12 12
-0.09470149 -0.08283190 0.02125741 255 12 12
-0.09751636 -0.08269485 0.02051195 255 12 12
-0.09842335 -0.08267233 0.02052846 255 12 12
-0.09975761 -0.08261777 0.02029861 255 12 12
-0.10090247 -0.08258337 0.02024861 255 12 12
-0.10183364 -0.08256660 0.02034081 255 12 12
-0.10276211 -0.08255064 0.02044197 255 12 12
-0.10261154 -0.08261705 0.02118270 255 12 12
-0.10513676 -0.08254499 0.02111761 255 12 12
-0.10562916 -0.08256585 0.02151908 255 12 12
-0.10657089 -0.08255788 0.02171910 255 12 12
-0.10658585 -0.08260752 0.02231270 255 12 12
-0.10661527 -0.08266056 0.02295114 255 12 12
-0.10685749 -0.08269811 0.02347233 255 12 12
-0.10664150 -0.08276587 0.02420862 255 12 12
-0.10711882 -0.08279305 0.02468038 255 12 12
-0.10898786 -0.08310915 0.02901492 255 12 12
-0.10892514 -0.08316518 0.02965998 255 12 12
-0.10884986 -0.08322017 0.03028878 255 12 12
-0.10876941 -0.08327600 0.03092603 255 12 12
-0.10043915 -0.08380887 0.03464200 255 12 12
-0.10106540 -0.08394223 0.03641989 255 12 12
-0.09875064 -0.08411132 0.03770185 255 12 12
-0.09906294 -0.08413598 0.03809205 255 12 12
-0.10011406 -0.08413349 0.03839133 255 12 12
-0.10271218 -0.08412166 0.03906363 255 12 12
-0.10226411 -0.08417816 0.03959372 255 12 12
-0.67907175 -0.06697392 0.01591095 255 12 12
-0.68336893 -0.06747086 0.02315035 255 12 12
-0.73469377 -0.06739387 0.03829035 255 12 12
-0.80686683 -0.06697989 0.05595363 255 12 12
-0.81217055 -0.06762035 0.06521036 255 12 12
-0.81285477 -0.06839507 0.07461508 255 12 12
-0.81318113 -0.06916259 0.08382242 255 12 12
-0.81189720 -0.06996523 0.09294261 255 12 12
-0.63942663 -0.07654610 0.11706730 255 12 12
-0.60170518 -0.07836625 0.12686157 255 12 12
-0.58829928 -0.07911188 0.13151398 255 12 12
-0.58074061 -0.07977812 0.13705353 255 12 12
-0.57674993 -0.08030923 0.14210588 255 12 12
-0.57501829 -0.08087508 0.14827713 255 12 12
-0.57614308 -0.08141715 0.15505957 255 12 12
-0.63710404 -0.08218993 0.18329466 255 12 12
-0.63147817 -0.08284488 0.18930471 255 12 12
-0.62434293 -0.08349680 0.19480689 255 12 12
-0.61836088 -0.08413418 0.20049711 255 12 12
-0.61443628 -0.08477343 0.20685307 255 12 12
-0.60905262 -0.08539494 0.21254234 255 12 12
-0.60289853 -0.08600827 0.21789345 255 12 12
-0.59669517 -0.08661234 0.22311941 255 12 12
-0.59204553 -0.08722582 0.22894284 255 12 12
-0.58902935 -0.08782736 0.23513569 255 12 12
-0.58570649 -0.08842564 0.24119384 255 12 12
-0.58115022 -0.08901347 0.24674222 255 12 12
-0.57555315 -0.08960178 0.25197088 255 12 12
-0.57226778 -0.09019033 0.25792532 255 12 12
-0.57189167 -0.09080755 0.26512991 255 12 12
-0.57050288 -0.09141874 0.27194610 255 12 12
-0.57077118 -0.09206892 0.27974329 255 12 12
-0.57369247 -0.09275067 0.28874476 255 12 12
-0.57490028 -0.09342100 0.29707478 255 12 12
-0.57264094 -0.09404438 0.30376331 255 12 12
-0.57117830 -0.09468456 0.31090046 255 12 12
-0.57291181 -0.09539147 0.31982885 255 12 12
-0.67297808 -0.11667556 0.60362477 255 12 12
-0.66805029 -0.11758821 0.61291041 255 12 12
-0.66064857 -0.11837286 0.61990379 255 12 12
-0.65375200 -0.11926551 0.62833629 255 12 12
-0.64688451 -0.12010880 0.63619237 255 12 12
-0.63972969 -0.12090935 0.64345157 255 12 12
-0.63300077 -0.12176588 0.65150808 255 12 12
-0.62632603 -0.12251662 0.65832652 255 12 12
-0.61889305 -0.12330363 0.66533808 255 12 12
-0.61170767 -0.12407989 0.67229959 255 12 12
-0.60474600 -0.12490376 0.67989574 255 12 12
-0.60099241 -0.12603379 0.69212752 255 12 12
-0.65120329 -0.13792093 0.84885188 255 12 12
-0.63894212 -0.13856917 0.85270701 255 12 12
-0.62169789 -0.13872840 0.84920231 255 12 12
-0.60719952 -0.13915134 0.84968488 255 12 12
-0.59546381 -0.13978610 0.85354446 255 12 12
-0.58384910 -0.14042145 0.85744886 255 12 12
-0.57208614 -0.14102919 0.86097940 255 12 12
-0.56025295 -0.14170158 0.86525486 255 12 12
-0.54874509 -0.14235829 0.86944613 255 12 12
-0.53929314 -0.14321060 0.87660089 255 12 12
-0.53035525 -0.14417971 0.88530200 255 12 12
-0.51913209 -0.14477298 0.88882970 255 12 12
-0.50789023 -0.14540176 0.89277272 255 12 12
-0.49741035 -0.14612925 0.89812524 255 12 12
-0.48664461 -0.14681570 0.90290140 255 12 12
-0.47608325 -0.14742862 0.90686914 255 12 12
-0.46522171 -0.14809509 0.91137840 255 12 12
-0.45475342 -0.14876920 0.91610120 255 12 12
-0.44398891 -0.14944921 0.92080134 255 12 12
-0.43268478 -0.15014916 0.92556927 255 12 12
-0.42227231 -0.15089451 0.93115462 255 12 12
-0.41150535 -0.15158013 0.93592060 255 12 12
-0.39962103 -0.15204813 0.93775534 255 12 12
-0.38741362 -0.15249911 0.93928716 255 12 12
-0.37653083 -0.15315230 0.94363223 255 12 12
-0.36590548 -0.15386736 0.94879169 255 12 12
-0.35550419 -0.15464605 0.95477607 255 12 12
-0.34453020 -0.15537595 0.96000259 255 12 12
-0.33344116 -0.15601098 0.96406764 255 12 12
-0.32249555 -0.15669168 0.96871936 255 12 12
-0.31186125 -0.15747508 0.97468673 255 12 12
-0.30135223 -0.15841329 0.98252982 255 12 12
-0.28878640 -0.15863471 0.98122631 255 12 12
-0.22372281 -0.14842815 0.83979325 255 12 12
-0.21335411 -0.14861241 0.83873610 255 12 12
-0.20351043 -0.14899921 0.84024581 255 12 12
-0.19349093 -0.14929750 0.84065058 255 12 12
-0.18333808 -0.14963303 0.84145549 255 12 12
-0.17340342 -0.14994951 0.84210260 255 12 12
-0.16337736 -0.15019553 0.84188517 255 12 12
-0.15345664 -0.15049087 0.84228583 255 12 12
-0.14332197 -0.15078333 0.84258547 255 12 12
-0.13341210 -0.15105755 0.84273893 255 12 12
-0.12354747 -0.15136218 0.84326734 255 12 12
-0.11366419 -0.15163615 0.84342616 255 12 12
-0.07578690 -0.16904955 1.03815734 255 12 12
-0.06380842 -0.16911780 1.03522036 255 12 12
-0.05163417 -0.16915787 1.03188787 255 12 12
-0.03955337 -0.16914104 1.02790953 255 12 12
-0.02754097 -0.16917306 1.02453210 255 12 12
-0.01536432 -0.16915410 1.02049856 255 12 12
-0.00348816 -0.16919988 1.01732700 255 12 12
0.00833608 -0.16925318 1.01426103 255 12 12
0.02013721 -0.16933574 1.01154929 255 12 12
0.03217168 -0.16943114 1.00891687 255 12 12
0.04383514 -0.16946504 1.00567089 255 12 12
0.05546428 -0.16950711 1.00253265 255 12 12
0.06696571 -0.16949249 0.99876172 255 12 12
0.07838850 -0.16961295 0.99661791 255 12 12
0.08996010 -0.16968090 0.99380465 255 12 12
0.10113990 -0.16968923 0.99040672 255 12 12
0.11274682 -0.16979698 0.98805447 255 12 12
0.12493449 -0.16994061 0.98594629 255 12 12
0.13653095 -0.17004421 0.98354827 255 12 12
0.14804259 -0.17011317 0.98076569 255 12 12
0.15934324 -0.17010352 0.97711653 255 12 12
