ply
format ascii 1.0
element vertex 70
property float x
property float y
property float z
property uchar red
property uchar green
property uchar blue
end_header
0.01186770 -0.11597947 0.38116039 255 12 12
-0.09165012 -0.08309478 0.02342153 255 12 12
-0.09670096 -0.08284176 0.02199968 255 12 12
-0.09721904 -0.08285802 0.02235462 255 12 12
-0.09954281 -0.08279636 0.02234998 255 12 12
-0.09960826 -0.08284671 0.02296779 255 12 12
-0.10011378 -0.08286701 0.02336674 255 12 12
-0.10150067 -0.08282610 0.02331527 255 12 12
-0.10311928 -0.08277263 0.02318712 255 12 12
-0.10644449 -0.08268388 0.02317438 255 12 12
-0.10605387 -0.08277364 0.02411700 255 12 12
-0.10655109 -0.08322191 0.02959049 255 12 12
-0.10794196 -0.08320789 0.02985912 255 12 12
-0.10836587 -0.08324338 0.03041279 255 12 12
-0.09733751 -0.08397488 0.03564128 255 12 12
-0.09739308 -0.08410208 0.03716758 255 12 12
-0.09674194 -0.08417251 0.03779952 255 12 12
-0.09936564 -0.08415813 0.03844956 255 12 12
-0.56104301 -0.06984074 0.01300343 255 12 12
-0.55473139 -0.07068343 0.02102627 255 12 12
-0.55277422 -0.07134925 0.02831292 255 12 12
-0.56120091 -0.07171063 0.03523566 255 12 12
-0.65297327 -0.07057228 0.05043586 255 12 12
-0.65432520 -0.07125614 0.05897153 255 12 12
-0.65705722 -0.07189856 0.06744718 255 12 12
-0.66664561 -0.07241312 0.07655056 255 12 12
-0.67434721 -0.07299083 0.08581298 255 12 12
-0.67941430 -0.07363957 0.09509395 255 12 12
-0.79482223 -0.09590559 0.39533725 255 12 12
-0.79167700 -0.09695765 0.40683429 255 12 12
-0.78908390 -0.09819439 0.42069486 255 12 12
-0.78884760 -0.09936075 0.43445775 255 12 12
-0.64363549 -0.10554650 0.46242093 255 12 12
-0.62998355 -0.10615411 0.46535899 255 12 12
-0.61767667 -0.10676450 0.46875084 255 12 12
-0.60684117 -0.10743065 0.47326430 255 12 12
-0.59746730 -0.10812020 0.47851259 255 12 12
-0.58984835 -0.10889571 0.48532964 255 12 12
-0.58774773 -0.10990233 0.49661435 255 12 12
-0.59276584 -0.11129592 0.51471627 255 12 12
-0.56072302 -0.12266456 0.63956220 255 12 12
-0.54056646 -0.12259942 0.63248487 255 12 12
-0.46030067 -0.12028250 0.57989326 255 12 12
-0.44302983 -0.12015428 0.57297011 255 12 12
-0.42919197 -0.12025705 0.56986109 255 12 12
-0.41971143 -0.12074416 0.57267439 255 12 12
-0.41390843 -0.12159633 0.58096886 255 12 12
-0.40955244 -0.12259335 0.59143423 255 12 12
-0.40572388 -0.12370865 0.60346769 255 12 12
-0.40240550 -0.12489364 0.61648756 255 12 12
-0.39973483 -0.12623514 0.63156670 255 12 12
-0.08960041 -0.11554986 0.40780115 255 12 12
-0.08408390 -0.11553493 0.40589852 255 12 12
-0.07855148 -0.11555578 0.40441540 255 12 12
-0.07327873 -0.11560432 0.40334202 255 12 12
-0.06792534 -0.11554366 0.40094806 255 12 12
-0.06264453 -0.11547449 0.39847573 255 12 12
-0.05742522 -0.11546021 0.39667386 255 12 12
-0.05211557 -0.11556759 0.39628696 255 12 12
-0.04683188 -0.11581483 0.39756733 255 12 12
-0.04164419 -0.11586426 0.39653113 255 12 12
-0.03653976 -0.11584235 0.39467460 255 12 12
-0.03119824 -0.11581831 0.39271866 255 12 12
-0.02620683 -0.11569651 0.38971261 255 12 12
-0.02136215 -0.11558678 0.38689552 255 12 12
-0.01649906 -0.11547085 0.38399910 255 12 12
-0.01143288 -0.11545716 0.38225205 255 12 12
-0.00579914 -0.11580542 0.38462142 255 12 12
-0.00044214 -0.11597336 0.38493815 255 12 12
0.00445086 -0.11591613 0.38272881 255 12 12
