ply
format ascii 1.0
element vertex 283
property float x
property float y
property float z
property uchar red
property uchar green
property uchar blue
end_header
0.14663466 -0.16995217 0.97929606 255 12 12
0.15777791 -0.16998577 0.97620932 255 12 12
0.16862315 -0.17000579 0.97305463 255 12 12
0.17961561 -0.16999324 0.96946749 255 12 12
0.19050110 -0.17003359 0.96654147 255 12 12
0.20187911 -0.17015081 0.96437324 255 12 12
0.21320551 -0.17032162 0.96285690 255 12 12
0.22493360 -0.17052478 0.96159869 255 12 12
0.23611131 -0.17062802 0.95932727 255 12 12
0.24752586 -0.17071896 0.95683580 255 12 12
0.25884056 -0.17084237 0.95476083 255 12 12
0.26996974 -0.17084295 0.95128670 255 12 12
0.28083226 -0.17089985 0.94856420 255 12 12
0.29274431 -0.17114119 0.94770135 255 12 12
0.30477773 -0.17139215 0.94691475 255 12 12
0.31655214 -0.17156498 0.94528220 255 12 12
0.32853383 -0.17165473 0.94259929 255 12 12
0.33995505 -0.17166829 0.93918786 255 12 12
0.35236502 -0.17193385 0.93845662 255 12 12
0.36473578 -0.17211760 0.93676717 255 12 12
0.37989925 -0.17231563 0.93437361 255 12 12
0.43090382 -0.09474097 -0.00186234 255 12 12
0.42189824 -0.09409049 -0.00676229 255 12 12
0.23662124 -0.08990234 0.00150398 255 12 12
0.23142122 -0.08952998 -0.00128700 255 12 12
0.22248375 -0.08911317 -0.00343617 255 12 12
0.21685719 -0.08881146 -0.00525553 255 12 12
0.21530546 -0.08851672 -0.00826677 255 12 12
0.20135242 -0.08784401 -0.01188295 255 12 12
0.19963740 -0.08752662 -0.01511186 255 12 12
0.19845295 -0.08724649 -0.01806461 255 12 12
0.19966240 -0.08698068 -0.02159621 255 12 12
0.19646838 -0.08669083 -0.02403573 255 12 12
0.17865963 -0.08608077 -0.02570275 255 12 12
0.17927593 -0.08582318 -0.02895134 255 12 12
0.17935092 -0.08555627 -0.03214123 255 12 12
0.18063734 -0.08530457 -0.03552961 255 12 12
0.18301807 -0.08503374 -0.03948706 255 12 12
0.18368664 -0.08476082 -0.04293397 255 12 12
0.18618822 -0.08447655 -0.04708869 255 12 12
0.18904218 -0.08416932 -0.05162613 255 12 12
0.19091688 -0.08386572 -0.05581410 255 12 12
0.18788600 -0.08359927 -0.05802709 255 12 12
0.18111854 -0.08336328 -0.05870992 255 12 12
0.17603417 -0.08313659 -0.05980893 255 12 12
0.17572542 -0.08285930 -0.06300187 255 12 12
0.17696485 -0.08256077 -0.06693114 255 12 12
0.17724047 -0.08226921 -0.07047614 255 12 12
-0.01457788 -0.08454389 0.01650585 255 12 12
-0.01327211 -0.08438802 0.01424841 255 12 12
-0.01382995 -0.08433514 0.01379549 255 12 12
-0.01462908 -0.08428432 0.01344257 255 12 12
-0.01604732 -0.08425434 0.01353056 255 12 12
-0.01744829 -0.08422836 0.01366050 255 12 12
-0.01863942 -0.08419765 0.01366880 255 12 12
-0.02001427 -0.08417797 0.01386535 255 12 12
-0.02118164 -0.08415307 0.01393501 255 12 12
-0.02234137 -0.08413031 0.01402785 255 12 12
-0.02389628 -0.08412398 0.01443905 255 12 12
-0.02506740 -0.08410169 0.01454097 255 12 12
-0.02600815 -0.08407727 0.01454548 255 12 12
-0.02753131 -0.08407822 0.01503320 255 12 12
-0.02864900 -0.08406606 0.01523847 255 12 12
-0.02974141 -0.08405799 0.01548447 255 12 12
-0.03045780 -0.08403287 0.01541050 255 12 12
-0.03078655 -0.08399216 0.01503035 255 12 12
-0.03131406 -0.08395981 0.01481160 255 12 12
-0.03164195 -0.08392069 0.01445007 255 12 12
-0.03216455 -0.08389041 0.01425433 255 12 12
-0.03268741 -0.08386082 0.01406684 255 12 12
-0.03303187 -0.08382190 0.01371287 255 12 12
-0.03333973 -0.08378770 0.01340344 255 12 12
-0.03264181 -0.08362838 0.01129504 255 12 12
-0.03335126 -0.08361125 0.01131383 255 12 12
-0.03314817 -0.08346166 0.00947566 255 12 12
-0.03354662 -0.08342181 0.00912751 255 12 12
-0.03330258 -0.08333511 0.00802266 255 12 12
-0.03341895 -0.08326909 0.00727586 255 12 12
-0.03385318 -0.08322791 0.00692312 255 12 12
-0.03459098 -0.08321287 0.00697548 255 12 12
-0.03696032 -0.08326263 0.00830691 255 12 12
-0.04787601 -0.08392359 0.01956223 255 12 12
-0.04775558 -0.08385847 0.01875204 255 12 12
-0.04887409 -0.08387010 0.01923982 255 12 12
-0.04903156 -0.08383383 0.01885883 255 12 12
-0.04907997 -0.08378185 0.01825725 255 12 12
-0.04925415 -0.08374511 0.01787586 255 12 12
-0.04871045 -0.08354571 0.01534035 255 12 12
-0.04893454 -0.08350664 0.01494696 255 12 12
-0.04796975 -0.08310510 0.00988164 255 12 12
-0.04839029 -0.08307825 0.00969467 255 12 12
-0.04829463 -0.08287868 0.00729721 255 12 12
-0.04882074 -0.08286959 0.00735391 255 12 12
-0.04903604 -0.08269937 0.00540181 255 12 12
-0.04931229 -0.08263888 0.00477066 255 12 12
-0.04960148 -0.08257817 0.00414085 255 12 12
-0.05022034 -0.08258862 0.00445844 255 12 12
-0.05093762 -0.08261641 0.00501245 255 12 12
-0.05154499 -0.08262852 0.00534609 255 12 12
-0.05259618 -0.08246639 0.00375147 255 12 12
-0.05331915 -0.08251839 0.00459452 255 12 12
-0.05378475 -0.08249647 0.00448007 255 12 12
-0.05408381 -0.08241797 0.00364247 255 12 12
-0.05463475 -0.08243622 0.00403128 255 12 12
-0.05529782 -0.08249292 0.00491126 255 12 12
-0.05565401 -0.08243479 0.00433308 255 12 12
-0.05606737 -0.08239609 0.00400328 255 12 12
-0.05659232 -0.08239594 0.00416570 255 12 12
-0.05698565 -0.08233772 0.00359803 255 12 12
-0.05748796 -0.08233945 0.00377571 255 12 12
-0.05809431 -0.08240132 0.00469935 255 12 12
-0.05859872 -0.08240394 0.00488818 255 12 12
-0.05900705 -0.08234708 0.00434136 255 12 12
-0.05949921 -0.08235110 0.00454300 255 12 12
-0.06004826 -0.08241693 0.00549567 255 12 12
-0.06044332 -0.08238294 0.00521599 255 12 12
-0.06198129 -0.08277717 0.01037386 255 12 12
-0.06319824 -0.08343637 0.01857471 255 12 12
-0.06369177 -0.08371790 0.02206895 255 12 12
-0.06422436 -0.08364248 0.02134075 255 12 12
-0.06504094 -0.08360449 0.02114548 255 12 12
-0.06537134 -0.08353506 0.02042514 255 12 12
-0.06567235 -0.08350862 0.02020563 255 12 12
-0.06597897 -0.08348236 0.01999008 255 12 12
-0.06629115 -0.08345631 0.01977860 255 12 12
-0.06668841 -0.08366313 0.02235644 255 12 12
-0.06710930 -0.08357297 0.02141849 255 12 12
-0.06745318 -0.08352658 0.02097577 255 12 12
-0.06771488 -0.08352404 0.02102752 255 12 12
-0.06789485 -0.08356540 0.02157438 255 12 12
-0.06848433 -0.08362627 0.02248090 255 12 12
-0.06871694 -0.08362525 0.02254153 255 12 12
-0.06924856 -0.08375551 0.02425314 255 12 12
-0.07042939 -0.08355834 0.02228343 255 12 12
-0.07144480 -0.08349575 0.02185848 255 12 12
-0.07178822 -0.08347548 0.02172550 255 12 12
-0.07195172 -0.08349941 0.02206044 255 12 12
-0.08078620 -0.08220167 0.00942843 255 12 12
-0.08402412 -0.08185814 0.00636584 255 12 12
-0.08482266 -0.08197390 0.00798885 255 12 12
-0.08498043 -0.08202736 0.00867239 255 12 12
-0.08553081 -0.08201746 0.00872708 255 12 12
-0.08608301 -0.08200820 0.00878998 255 12 12
-0.08636563 -0.08204198 0.00927915 255 12 12
-0.08634485 -0.08211778 0.01017182 255 12 12
-0.08645126 -0.08217270 0.01085659 255 12 12
-0.08683997 -0.08218615 0.01113780 255 12 12
-0.08735786 -0.08217872 0.01121163 255 12 12
-0.08743747 -0.08223447 0.01189786 255 12 12
-0.08765039 -0.08226944 0.01237936 255 12 12
-0.08817778 -0.08226413 0.01248133 255 12 12
-0.08888251 -0.08223987 0.01241395 255 12 12
-0.08957592 -0.08221578 0.01234505 255 12 12
-0.09027468 -0.08219258 0.01228835 255 12 12
-0.09131119 -0.08213022 0.01187280 255 12 12
-0.09200729 -0.08210819 0.01182918 255 12 12
-0.09238405 -0.08212756 0.01217675 255 12 12
-0.09292095 -0.08212725 0.01234111 255 12 12
-0.09364133 -0.08210854 0.01234447 255 12 12
-0.09377646 -0.08214579 0.01282862 255 12 12
-0.09394591 -0.08218562 0.01335414 255 12 12
-0.09410733 -0.08222565 0.01387949 255 12 12
-0.09407807 -0.08228498 0.01457417 255 12 12
-0.09370558 -0.08238471 0.01564076 255 12 12
-0.09346850 -0.08246298 0.01649510 255 12 12
-0.09340432 -0.08252216 0.01717711 255 12 12
-0.09249027 -0.08271532 0.01918274 255 12 12
-0.09258393 -0.08275572 0.01969129 255 12 12
-0.09246691 -0.08281384 0.02034420 255 12 12
-0.09265377 -0.08293382 0.02182598 255 12 12
-0.09520191 -0.08280565 0.02110244 255 12 12
-0.09568571 -0.08281507 0.02136557 255 12 12
-0.09719876 -0.08273891 0.02093526 255 12 12
-0.09830022 -0.08269823 0.02079722 255 12 12
-0.09856875 -0.08272672 0.02121917 255 12 12
-0.09926483 -0.08272323 0.02139551 255 12 12
-0.10017084 -0.08270384 0.02144892 255 12 12
-0.10129712 -0.08266976 0.02139681 255 12 12
-0.10242993 -0.08263751 0.02136858 255 12 12
-0.10267374 -0.08266809 0.02180764 255 12 12
-0.10358610 -0.08265364 0.02192156 255 12 12
-0.10494520 -0.08260976 0.02182612 255 12 12
-0.10746728 -0.08254468 0.02184289 255 12 12
-0.10703924 -0.08262654 0.02268017 255 12 12
-0.10705201 -0.08267827 0.02329778 255 12 12
-0.10751308 -0.08270099 0.02371152 255 12 12
-0.10682776 -0.08279690 0.02463501 255 12 12
-0.10612181 -0.08289074 0.02552751 255 12 12
-0.09846338 -0.08352183 0.03061877 255 12 12
-0.10610245 -0.08318583 0.02902209 255 12 12
-0.10977819 -0.08308985 0.02903321 255 12 12
-0.10818150 -0.08327048 0.03067662 255 12 12
-0.09942640 -0.08393709 0.03584631 255 12 12
-0.09951179 -0.08397059 0.03627037 255 12 12
-0.09910228 -0.08402548 0.03679356 255 12 12
-0.10028746 -0.08408193 0.03783394 255 12 12
-0.10189953 -0.08410090 0.03856321 255 12 12
-0.10448879 -0.08408959 0.03923891 255 12 12
-0.10353918 -0.08416340 0.03981751 255 12 12
-0.58309123 -0.06966049 0.01776137 255 12 12
-0.58162623 -0.07022894 0.02404674 255 12 12
-0.61551173 -0.07087598 0.04232141 255 12 12
-0.60550144 -0.07168807 0.04882443 255 12 12
-0.59317200 -0.07251258 0.05474934 255 12 12
-0.57952516 -0.07335648 0.06049214 255 12 12
-0.56856374 -0.07411323 0.06604119 255 12 12
-0.56053814 -0.07478552 0.07150634 255 12 12
-0.55643491 -0.07537318 0.07719445 255 12 12
-0.55277546 -0.07593336 0.08269544 255 12 12
-0.54905467 -0.07648833 0.08811530 255 12 12
-0.54651701 -0.07701612 0.09358286 255 12 12
-0.54514415 -0.07753188 0.09927199 255 12 12
-0.54396847 -0.07803192 0.10483642 255 12 12
-0.54396594 -0.07851396 0.11055411 255 12 12
-0.54463631 -0.07898844 0.11639257 255 12 12
-0.54510666 -0.07953650 0.12304143 255 12 12
-0.54508544 -0.08004805 0.12910349 255 12 12
-0.54574894 -0.08054329 0.13518616 255 12 12
-0.54826846 -0.08103659 0.14182630 255 12 12
-0.55108329 -0.08147701 0.14793154 255 12 12
-0.55467659 -0.08196664 0.15486394 255 12 12
-0.55698926 -0.08246262 0.16147129 255 12 12
-0.55724050 -0.08298892 0.16779341 255 12 12
-0.55720421 -0.08350800 0.17393995 255 12 12
-0.56404001 -0.08402190 0.18217461 255 12 12
-0.57558992 -0.08453260 0.19184571 255 12 12
-0.58047696 -0.08509023 0.19998959 255 12 12
-0.57308405 -0.08565927 0.20442779 255 12 12
-0.56352207 -0.08621316 0.20800792 255 12 12
-0.70363569 -0.08783426 0.27106415 255 12 12
-0.81837012 -0.09081558 0.34231887 255 12 12
-0.33818980 -0.11035248 0.42389764 255 12 12
-0.33417019 -0.11080136 0.42796550 255 12 12
-0.32991545 -0.11121214 0.43150783 255 12 12
-0.32467420 -0.11154606 0.43382985 255 12 12
-0.31870409 -0.11178177 0.43475876 255 12 12
-0.31344409 -0.11210377 0.43693350 255 12 12
-0.30853925 -0.11244073 0.43939681 255 12 12
-0.30272868 -0.11269385 0.44058218 255 12 12
-0.29854948 -0.11310944 0.44420518 255 12 12
-0.29470207 -0.11359097 0.44871425 255 12 12
-0.29004343 -0.11395704 0.45159990 255 12 12
-0.28511756 -0.11431222 0.45427276 255 12 12
-0.28027277 -0.11465532 0.45682771 255 12 12
-0.27505784 -0.11497076 0.45893860 255 12 12
-0.27027286 -0.11529761 0.46131950 255 12 12
-0.26491342 -0.11556379 0.46280087 255 12 12
-0.25996917 -0.11588954 0.46511885 255 12 12
-0.25582013 -0.11634271 0.46919721 255 12 12
-0.25088407 -0.11670204 0.47191603 255 12 12
-0.24631994 -0.11710066 0.47521743 255 12 12
-0.24160900 -0.11747965 0.47823998 255 12 12
-0.23703567 -0.11788980 0.48167522 255 12 12
-0.23252044 -0.11838067 0.48608621 255 12 12
-0.22675078 -0.11860120 0.48689768 255 12 12
-0.22085668 -0.11875573 0.48688742 255 12 12
-0.21550919 -0.11905198 0.48872929 255 12 12
-0.21049572 -0.11939058 0.49117798 255 12 12
-0.20569733 -0.11982222 0.49479781 255 12 12
-0.20088485 -0.12022671 0.49809110 255 12 12
-0.19595827 -0.12065313 0.50160886 255 12 12
-0.07115171 -0.16909091 1.03719813 255 12 12
-0.05919787 -0.16917484 1.03445496 255 12 12
-0.04759673 -0.16915391 1.03057807 255 12 12
-0.03582355 -0.16910455 1.02630998 255 12 12
-0.02437854 -0.16911970 1.02290999 255 12 12
-0.01267776 -0.16923413 1.02060773 255 12 12
-0.00137187 -0.16922318 1.01694153 255 12 12
0.01008315 -0.16916166 1.01262879 255 12 12
0.02126665 -0.16916741 1.00919903 255 12 12
0.03269286 -0.16920834 1.00611073 255 12 12
0.04387771 -0.16929673 1.00366092 255 12 12
0.05540313 -0.16946383 1.00203830 255 12 12
0.06654315 -0.16954981 0.99957390 255 12 12
0.07775730 -0.16954058 0.99595679 255 12 12
0.08858065 -0.16962078 0.99352296 255 12 12
0.09949998 -0.16962739 0.99018604 255 12 12
0.11018203 -0.16953469 0.98574516 255 12 12
0.12145374 -0.16973591 0.98460672 255 12 12
0.13328860 -0.16995215 0.98347028 255 12 12
0.14427423 -0.16991290 0.97956858 255 12 12
0.15510986 -0.16992537 0.97632723 255 12 12
0.16633178 -0.16999338 0.97362407 255 12 12
