ply
format ascii 1.0
element vertex 190
property float x
property float y
property float z
property uchar red
property uchar green
property uchar blue
end_header
0.11022397 -0.14764686 0.72607259 255 12 12
-0.02956261 -0.08421589 0.01730170 255 12 12
-0.03046451 -0.08419758 0.01736659 255 12 12
-0.03099297 -0.08416189 0.01710854 255 12 12
-0.03151549 -0.08412787 0.01686833 255 12 12
-0.03166624 -0.08407633 0.01630411 255 12 12
-0.03147332 -0.08400389 0.01538431 255 12 12
-0.03330658 -0.08397318 0.01559341 255 12 12
-0.03330888 -0.08391151 0.01486252 255 12 12
-0.03348846 -0.08386083 0.01431747 255 12 12
-0.03456900 -0.08386011 0.01464692 255 12 12
-0.03376226 -0.08368337 0.01229786 255 12 12
-0.03364340 -0.08360945 0.01138378 255 12 12
-0.03479201 -0.08354876 0.01102309 255 12 12
-0.03471940 -0.08347248 0.01009548 255 12 12
-0.03815649 -0.08344510 0.01084568 255 12 12
-0.04642897 -0.08391650 0.01902548 255 12 12
-0.04991164 -0.08410985 0.02240854 255 12 12
-0.05044333 -0.08411746 0.02266515 255 12 12
-0.05070853 -0.08409692 0.02250436 255 12 12
-0.05059751 -0.08403212 0.02170089 255 12 12
-0.05099842 -0.08402646 0.02175913 255 12 12
-0.04945267 -0.08368324 0.01720406 255 12 12
-0.04982396 -0.08365736 0.01701308 255 12 12
-0.05030103 -0.08364828 0.01705468 255 12 12
-0.04913407 -0.08323781 0.01182020 255 12 12
-0.04914262 -0.08314553 0.01072813 255 12 12
-0.04909016 -0.08303474 0.00939733 255 12 12
-0.04917288 -0.08293901 0.00828751 255 12 12
-0.04945283 -0.08287731 0.00764313 255 12 12
-0.04988893 -0.08271796 0.00588914 255 12 12
-0.05139677 -0.08279054 0.00722187 255 12 12
-0.05193513 -0.08278402 0.00731288 255 12 12
-0.05262856 -0.08266084 0.00606840 255 12 12
-0.05331252 -0.08269239 0.00665663 255 12 12
-0.05385537 -0.08268790 0.00677321 255 12 12
-0.05427597 -0.08264646 0.00641312 255 12 12
-0.05468413 -0.08260613 0.00606240 255 12 12
-0.05533030 -0.08264170 0.00668647 255 12 12
-0.05570195 -0.08258257 0.00610126 255 12 12
-0.05609770 -0.08252295 0.00551773 255 12 12
-0.05676096 -0.08253823 0.00590639 255 12 12
-0.05822229 -0.08243892 0.00518538 255 12 12
-0.05859239 -0.08236188 0.00438716 255 12 12
-0.06067511 -0.08288081 0.01119486 255 12 12
-0.06293615 -0.08375837 0.02231261 255 12 12
-0.06321690 -0.08370887 0.02181327 255 12 12
-0.06350841 -0.08363841 0.02106860 255 12 12
-0.06407062 -0.08366696 0.02158316 255 12 12
-0.06438133 -0.08361800 0.02109944 255 12 12
-0.06467196 -0.08361184 0.02111730 255 12 12
-0.06498208 -0.08358456 0.02089067 255 12 12
-0.06543143 -0.08368171 0.02218374 255 12 12
-0.06567265 -0.08369879 0.02246182 255 12 12
-0.06594533 -0.08369452 0.02249638 255 12 12
-0.06703538 -0.08370185 0.02292435 255 12 12
-0.06847909 -0.08364796 0.02273663 255 12 12
-0.06881319 -0.08362489 0.02256743 255 12 12
-0.06894761 -0.08366809 0.02312190 255 12 12
-0.07016374 -0.08362424 0.02298211 255 12 12
-0.07059730 -0.08358113 0.02260633 255 12 12
-0.07123479 -0.08362969 0.02338175 255 12 12
-0.07150048 -0.08363190 0.02349105 255 12 12
-0.07282453 -0.08346238 0.02189413 255 12 12
-0.08276152 -0.08207246 0.00851338 255 12 12
-0.08310299 -0.08207979 0.00870717 255 12 12
-0.08356468 -0.08209030 0.00897629 255 12 12
-0.08394530 -0.08219821 0.01037545 255 12 12
-0.08423995 -0.08223118 0.01085871 255 12 12
-0.08467273 -0.08224371 0.01114272 255 12 12
-0.08509296 -0.08225655 0.01142649 255 12 12
-0.08523019 -0.08231210 0.01212844 255 12 12
-0.08536923 -0.08236844 0.01284034 255 12 12
-0.08547645 -0.08242441 0.01353780 255 12 12
-0.08587324 -0.08243925 0.01383796 255 12 12
-0.08626599 -0.08245464 0.01414337 255 12 12
-0.08730030 -0.08238952 0.01369440 255 12 12
-0.08770289 -0.08240682 0.01402551 255 12 12
-0.08793035 -0.08244453 0.01454404 255 12 12
-0.09018493 -0.08230050 0.01354061 255 12 12
-0.09058141 -0.08232064 0.01390348 255 12 12
-0.09130988 -0.08230148 0.01390412 255 12 12
-0.09187623 -0.08230343 0.01410429 255 12 12
-0.09191067 -0.08236455 0.01484021 255 12 12
-0.09211010 -0.08240638 0.01539883 255 12 12
-0.09247402 -0.08242885 0.01577915 255 12 12
-0.09151774 -0.08264575 0.01805318 255 12 12
-0.09084353 -0.08282214 0.01993484 255 12 12
-0.09076877 -0.08288203 0.02062203 255 12 12
-0.09088754 -0.08292446 0.02116247 255 12 12
-0.09067488 -0.08304364 0.02250980 255 12 12
-0.09095110 -0.08306740 0.02287814 255 12 12
-0.09163395 -0.08305699 0.02296818 255 12 12
-0.09251890 -0.08302985 0.02292306 255 12 12
-0.09514204 -0.08291213 0.02234693 255 12 12
-0.09802225 -0.08278644 0.02175668 255 12 12
-0.09851635 -0.08280110 0.02208523 255 12 12
-0.10104091 -0.08272341 0.02195321 255 12 12
-0.10110490 -0.08277448 0.02257910 255 12 12
-0.10137956 -0.08281000 0.02308635 255 12 12
-0.10417325 -0.08273427 0.02306175 255 12 12
-0.10489737 -0.08274425 0.02340665 255 12 12
-0.10561962 -0.08275563 0.02376750 255 12 12
-0.10383361 -0.08298127 0.02588568 255 12 12
-0.10406840 -0.08302180 0.02644000 255 12 12
-0.10499457 -0.08333686 0.03046730 255 12 12
-0.09730222 -0.08406377 0.03668476 255 12 12
-0.09736645 -0.08422199 0.03858183 255 12 12
-0.10200920 -0.08418150 0.03955362 255 12 12
-0.69587891 -0.06515856 -0.00036810 255 12 12
-0.69492870 -0.06590140 0.00814725 255 12 12
-0.69286471 -0.06667434 0.01667112 255 12 12
-0.45551639 -0.07469416 0.03757382 255 12 12
-0.45281985 -0.07520605 0.04280302 255 12 12
-0.45155183 -0.07568455 0.04808292 255 12 12
-0.45146619 -0.07611389 0.05314946 255 12 12
-0.45131014 -0.07655383 0.05831979 255 12 12
-0.45108478 -0.07699538 0.06348743 255 12 12
-0.44754784 -0.07750601 0.06843885 255 12 12
-0.44119889 -0.07807354 0.07318573 255 12 12
-0.43853484 -0.07855038 0.07800940 255 12 12
-0.43978628 -0.07895401 0.08318913 255 12 12
-0.44617782 -0.07927796 0.08903132 255 12 12
-0.46976803 -0.07985108 0.10320898 255 12 12
-0.48152646 -0.08016791 0.11064535 255 12 12
-0.49092010 -0.08055146 0.11813362 255 12 12
-0.48913585 -0.08118726 0.12511821 255 12 12
-0.50713681 -0.08211766 0.14178605 255 12 12
-0.50567576 -0.08269417 0.14816829 255 12 12
-0.49796142 -0.08316508 0.15134183 255 12 12
-0.49282889 -0.08371693 0.15628326 255 12 12
-0.48598803 -0.08425460 0.16052203 255 12 12
-0.47931779 -0.08478955 0.16478185 255 12 12
-0.47308814 -0.08531179 0.16902886 255 12 12
-0.46753408 -0.08582323 0.17335889 255 12 12
-0.46244852 -0.08631587 0.17761249 255 12 12
-0.45799122 -0.08681248 0.18210971 255 12 12
-0.45559749 -0.08731192 0.18728603 255 12 12
-0.45290200 -0.08780846 0.19233349 255 12 12
-0.45088010 -0.08829782 0.19750640 255 12 12
-0.45013158 -0.08880845 0.20332995 255 12 12
-0.45044391 -0.08933337 0.20965490 255 12 12
-0.45019806 -0.08985902 0.21581389 255 12 12
-0.45308107 -0.09041905 0.22335941 255 12 12
-0.46096517 -0.09107444 0.23360034 255 12 12
-0.46383508 -0.09175075 0.24252117 255 12 12
-0.46013924 -0.09227564 0.24759213 255 12 12
-0.45549679 -0.09278048 0.25212900 255 12 12
-0.45759303 -0.09341507 0.26031303 255 12 12
-0.46391234 -0.09410776 0.27050699 255 12 12
-0.46466141 -0.09473630 0.27819780 255 12 12
-0.46227820 -0.09530019 0.28414193 255 12 12
-0.47751592 -0.09697742 0.30880524 255 12 12
-0.27298914 -0.12582299 0.58703369 255 12 12
-0.26685891 -0.12655912 0.59384903 255 12 12
-0.25996601 -0.12708286 0.59790635 255 12 12
-0.25212611 -0.12744952 0.59980391 255 12 12
-0.24427044 -0.12780732 0.60159149 255 12 12
-0.23676891 -0.12824691 0.60446009 255 12 12
-0.22870284 -0.12863998 0.60660016 255 12 12
-0.22069794 -0.12899789 0.60834233 255 12 12
-0.21289457 -0.12935788 0.61017225 255 12 12
-0.20491446 -0.12971672 0.61193324 255 12 12
-0.19712660 -0.13007850 0.61378924 255 12 12
-0.18921092 -0.13045809 0.61581651 255 12 12
-0.18147141 -0.13084173 0.61794688 255 12 12
-0.17349200 -0.13120477 0.61975796 255 12 12
-0.16496562 -0.13179371 0.62407769 255 12 12
-0.15839481 -0.13297366 0.63602046 255 12 12
-0.11982205 -0.14638708 0.78308152 255 12 12
-0.10926274 -0.14640927 0.78004204 255 12 12
-0.09856920 -0.14602390 0.77212561 255 12 12
-0.08840610 -0.14586307 0.76703879 255 12 12
-0.07823313 -0.14585902 0.76380882 255 12 12
-0.06815627 -0.14586153 0.76068677 255 12 12
-0.05816531 -0.14589204 0.75792374 255 12 12
-0.04844136 -0.14592529 0.75527670 255 12 12
-0.03860288 -0.14592894 0.75224278 255 12 12
-0.02883346 -0.14594042 0.74932332 255 12 12
-0.01903105 -0.14608825 0.74801097 255 12 12
-0.00922267 -0.14647734 0.74955897 255 12 12
0.00076315 -0.14679541 0.75020887 255 12 12
0.01068603 -0.14686854 0.74797282 255 12 12
0.02030775 -0.14688237 0.74512734 255 12 12
0.02993074 -0.14692689 0.74264566 255 12 12
0.03957390 -0.14700247 0.74052612 255 12 12
0.04982707 -0.14711662 0.73867326 255 12 12
0.05958197 -0.14716939 0.73624808 255 12 12
0.06896166 -0.14714204 0.73298990 255 12 12
0.07866405 -0.14719158 0.73054288 255 12 12
