ply
format ascii 1.0
element vertex 176
property float x
property float y
property float z
property uchar red
property uchar green
property uchar blue
end_header
0.18215283 -0.17017741 0.97085877 255 12 12
-0.06586080 -0.08363232 0.02173209 255 12 12
-0.06665248 -0.08353600 0.02083702 255 12 12
-0.06689414 -0.08357547 0.02138088 255 12 12
-0.06739244 -0.08374132 0.02350420 255 12 12
-0.06761773 -0.08376105 0.02380882 255 12 12
-0.06788850 -0.08375928 0.02387246 255 12 12
-0.06822562 -0.08373585 0.02369999 255 12 12
-0.06842729 -0.08375675 0.02401094 255 12 12
-0.06876380 -0.08373400 0.02384638 255 12 12
-0.06903398 -0.08373358 0.02392590 255 12 12
-0.06937830 -0.08371151 0.02377176 255 12 12
-0.06958138 -0.08373379 0.02409960 255 12 12
-0.07029892 -0.08375872 0.02461974 255 12 12
-0.07093112 -0.08367267 0.02379670 255 12 12
-0.07158812 -0.08358718 0.02298804 255 12 12
-0.07196854 -0.08356788 0.02287806 255 12 12
-0.07797072 -0.08262631 0.01358538 255 12 12
-0.08123914 -0.08223368 0.00994980 255 12 12
-0.08339842 -0.08206213 0.00859012 255 12 12
-0.08393694 -0.08207476 0.00890835 255 12 12
-0.08456459 -0.08204126 0.00870720 255 12 12
-0.08492961 -0.08207566 0.00922954 255 12 12
-0.08527482 -0.08211036 0.00974909 255 12 12
-0.08520221 -0.08228555 0.01180468 255 12 12
-0.08593929 -0.08225861 0.01171562 255 12 12
-0.08637758 -0.08227395 0.01203479 255 12 12
-0.08651712 -0.08233159 0.01276221 255 12 12
-0.08697381 -0.08234930 0.01311516 255 12 12
-0.08756600 -0.08234660 0.01326834 255 12 12
-0.08831044 -0.08232411 0.01323442 255 12 12
-0.09048613 -0.08220261 0.01247349 255 12 12
-0.09093021 -0.08222438 0.01287071 255 12 12
-0.09153091 -0.08222661 0.01308495 255 12 12
-0.09196604 -0.08224988 0.01349713 255 12 12
-0.09252243 -0.08225154 0.01369093 255 12 12
-0.09275473 -0.08229470 0.01427558 255 12 12
-0.09279602 -0.08235745 0.01503287 255 12 12
-0.09282195 -0.08242021 0.01578559 255 12 12
-0.09250571 -0.08252376 0.01691510 255 12 12
-0.09250956 -0.08258718 0.01766861 255 12 12
-0.09249094 -0.08265005 0.01840864 255 12 12
-0.09207889 -0.08275019 0.01946778 255 12 12
-0.09144141 -0.08286730 0.02065764 255 12 12
-0.09137282 -0.08292943 0.02137329 255 12 12
-0.09188103 -0.08293719 0.02162422 255 12 12
-0.09219232 -0.08296405 0.02204028 255 12 12
-0.09267799 -0.08297182 0.02228438 255 12 12
-0.09553836 -0.08283811 0.02159282 255 12 12
-0.09805536 -0.08275047 0.02134038 255 12 12
-0.09879061 -0.08275098 0.02157645 255 12 12
-0.09931120 -0.08276922 0.02195562 255 12 12
-0.10004484 -0.08277229 0.02222153 255 12 12
-0.10121502 -0.08274492 0.02226285 255 12 12
-0.10173090 -0.08276694 0.02268544 255 12 12
-0.10268599 -0.08275898 0.02288976 255 12 12
-0.10599612 -0.08266519 0.02281245 255 12 12
-0.10629461 -0.08271051 0.02344343 255 12 12
-0.10387643 -0.08298853 0.02598523 255 12 12
-0.10340755 -0.08306968 0.02680124 255 12 12
-0.09844598 -0.08351825 0.03057082 255 12 12
-0.10705393 -0.08320305 0.02952400 255 12 12
-0.10820336 -0.08320115 0.02986100 255 12 12
-0.09574439 -0.08409284 0.03654229 255 12 12
-0.09681876 -0.08408755 0.03681560 255 12 12
-0.09789177 -0.08408475 0.03711797 255 12 12
-0.09773755 -0.08413753 0.03769592 255 12 12
-0.09806260 -0.08416792 0.03815814 255 12 12
-0.09813371 -0.08420844 0.03866101 255 12 12
-0.10253089 -0.08418539 0.03976293 255 12 12
-0.10257760 -0.08423105 0.04031924 255 12 12
-0.67916812 -0.06770613 0.02462746 255 12 12
-0.73522021 -0.06771845 0.04230559 255 12 12
-0.80947012 -0.06753086 0.06330414 255 12 12
-0.81038167 -0.06840011 0.07390129 255 12 12
-0.80963337 -0.06932571 0.08464779 255 12 12
-0.81023938 -0.07020597 0.09528004 255 12 12
-0.63824614 -0.07652432 0.11643966 255 12 12
-0.58335318 -0.07930700 0.13228170 255 12 12
-0.57605926 -0.08018232 0.14038438 255 12 12
-0.57281431 -0.08089506 0.14782481 255 12 12
-0.57315313 -0.08156344 0.15585980 255 12 12
-0.63346418 -0.08247424 0.18552902 255 12 12
-0.62580146 -0.08324308 0.19225306 255 12 12
-0.61858721 -0.08398263 0.19876999 255 12 12
-0.61389444 -0.08471929 0.20604136 255 12 12
-0.60834481 -0.08546355 0.21313481 255 12 12
-0.59942723 -0.08618164 0.21886443 255 12 12
-0.59069459 -0.08688304 0.22445389 255 12 12
-0.58708790 -0.08758811 0.23169018 255 12 12
-0.58455151 -0.08829645 0.23930001 255 12 12
-0.57957664 -0.08898919 0.24596203 255 12 12
-0.57382352 -0.08966984 0.25223731 255 12 12
-0.56960631 -0.09035742 0.25907514 255 12 12
-0.56872548 -0.09107856 0.26735457 255 12 12
-0.56884506 -0.09181900 0.27617595 255 12 12
-0.57106889 -0.09259903 0.28612524 255 12 12
-0.57355667 -0.09340024 0.29640825 255 12 12
-0.57061238 -0.09424551 0.30551492 255 12 12
-0.56882898 -0.09502831 0.31424358 255 12 12
-0.57432614 -0.09596738 0.32710339 255 12 12
-0.56491292 -0.09988445 0.37062803 255 12 12
-0.56158082 -0.10066018 0.37878849 255 12 12
-0.55585838 -0.10136438 0.38535257 255 12 12
-0.55045588 -0.10207664 0.39211254 255 12 12
-0.54556321 -0.10280587 0.39923312 255 12 12
-0.53947214 -0.10350805 0.40565803 255 12 12
-0.53260961 -0.10415924 0.41123678 255 12 12
-0.52782308 -0.10489096 0.41842018 255 12 12
-0.52292587 -0.10562040 0.42554198 255 12 12
-0.51694744 -0.10633899 0.43219675 255 12 12
-0.51004336 -0.10699419 0.43781004 255 12 12
-0.50244134 -0.10759108 0.44251331 255 12 12
-0.49614487 -0.10826704 0.44856297 255 12 12
-0.49423151 -0.10927768 0.45995388 255 12 12
-0.55630724 -0.12039484 0.61125488 255 12 12
-0.54691315 -0.12114932 0.61726713 255 12 12
-0.53191350 -0.12144143 0.61604090 255 12 12
-0.51906858 -0.12189169 0.61736483 255 12 12
-0.50872967 -0.12249458 0.62128323 255 12 12
-0.49806371 -0.12308421 0.62494191 255 12 12
-0.48769242 -0.12365760 0.62850029 255 12 12
-0.47743487 -0.12425697 0.63240231 255 12 12
-0.46745631 -0.12484247 0.63622712 255 12 12
-0.45742757 -0.12544201 0.64020275 255 12 12
-0.44884775 -0.12618436 0.64632581 255 12 12
-0.44135401 -0.12704872 0.65423599 255 12 12
-0.43285236 -0.12777922 0.66024285 255 12 12
-0.42308399 -0.12839579 0.66450207 255 12 12
-0.41344030 -0.12898820 0.66851348 255 12 12
-0.40370176 -0.12959688 0.67268840 255 12 12
-0.39443499 -0.13022883 0.67728687 255 12 12
-0.38493092 -0.13086293 0.68183666 255 12 12
-0.37426745 -0.13151334 0.68621726 255 12 12
-0.36488406 -0.13220206 0.69145266 255 12 12
-0.35531056 -0.13286509 0.69632391 255 12 12
-0.34575607 -0.13353506 0.70128350 255 12 12
-0.33674670 -0.13413458 0.70557776 255 12 12
-0.32740032 -0.13480934 0.71065911 255 12 12
-0.31787405 -0.13545810 0.71537591 255 12 12
-0.30673658 -0.13578215 0.71573655 255 12 12
-0.29639765 -0.13620369 0.71750360 255 12 12
-0.28712133 -0.13690847 0.72296301 255 12 12
-0.27754790 -0.13750521 0.72704792 255 12 12
-0.26792726 -0.13815697 0.73177069 255 12 12
-0.25860509 -0.13884575 0.73702597 255 12 12
-0.24898144 -0.13953611 0.74220575 255 12 12
-0.23949940 -0.14022791 0.74744696 255 12 12
-0.22965251 -0.14090186 0.75236226 255 12 12
-0.21982247 -0.14169051 0.75864343 255 12 12
-0.21053439 -0.14265599 0.76719195 255 12 12
-0.13647854 -0.13304595 0.63002306 255 12 12
-0.12650785 -0.13264372 0.62213266 255 12 12
-0.11881525 -0.13297454 0.62365113 255 12 12
-0.11019649 -0.13322181 0.62388884 255 12 12
-0.10164793 -0.13354035 0.62499393 255 12 12
-0.09307634 -0.13384895 0.62597380 255 12 12
-0.08439280 -0.13394003 0.62433829 255 12 12
-0.07577971 -0.13408145 0.62332198 255 12 12
-0.06721099 -0.13433703 0.62367385 255 12 12
-0.05862816 -0.13464537 0.62464719 255 12 12
-0.04984046 -0.13501110 0.62623731 255 12 12
-0.04115382 -0.13538452 0.62795025 255 12 12
-0.03251763 -0.13557798 0.62754408 255 12 12
-0.02385463 -0.13580337 0.62750824 255 12 12
0.03024902 -0.16910119 1.00560397 255 12 12
0.04420919 -0.16915441 1.00186879 255 12 12
0.05820578 -0.16927500 0.99892149 255 12 12
0.07344279 -0.16939539 0.99558391 255 12 12
0.08756590 -0.16948018 0.99217235 255 12 12
0.10174641 -0.16961103 0.98928928 255 12 12
0.11578211 -0.16967909 0.98570663 255 12 12
0.12938424 -0.16978895 0.98275538 255 12 12
0.14323691 -0.16979744 0.97852324 255 12 12
0.15709533 -0.16991670 0.97560336 255 12 12
0.17122839 -0.17004095 0.97265683 255 12 12
