ply
format ascii 1.0
element vertex 221
property float x
property float y
property float z
property uchar red
property uchar green
property uchar blue
end_header
0.14151615 -0.17002045 0.98170706 255 12 12
-0.03169911 -0.08404010 0.01588449 255 12 12
-0.03223905 -0.08400619 0.01565116 255 12 12
-0.03353441 -0.08388581 0.01462821 255 12 12
-0.03355669 -0.08382324 0.01389290 255 12 12
-0.03359325 -0.08375994 0.01315338 255 12 12
-0.03381710 -0.08370656 0.01259016 255 12 12
-0.03405071 -0.08365299 0.01202769 255 12 12
-0.03412600 -0.08358810 0.01128142 255 12 12
-0.03405029 -0.08351116 0.01034498 255 12 12
-0.03445663 -0.08347066 0.00999170 255 12 12
-0.03504656 -0.08344055 0.00981902 255 12 12
-0.03484396 -0.08335081 0.00869096 255 12 12
-0.03669789 -0.08333916 0.00913266 255 12 12
-0.03759913 -0.08333692 0.00938803 255 12 12
-0.04867820 -0.08398408 0.02053075 255 12 12
-0.04909655 -0.08397581 0.02056340 255 12 12
-0.04978233 -0.08399644 0.02102270 255 12 12
-0.05019501 -0.08398945 0.02106888 255 12 12
-0.05036336 -0.08395264 0.02068480 255 12 12
-0.04976004 -0.08368539 0.01732571 255 12 12
-0.05010106 -0.08366186 0.01715323 255 12 12
-0.04927257 -0.08334422 0.01312586 255 12 12
-0.04915103 -0.08312215 0.01045340 255 12 12
-0.04938731 -0.08308480 0.01008421 255 12 12
-0.04945169 -0.08299019 0.00898188 255 12 12
-0.04945283 -0.08287731 0.00764313 255 12 12
-0.04940002 -0.08274567 0.00606503 255 12 12
-0.04974209 -0.08268161 0.00541207 255 12 12
-0.05041089 -0.08268903 0.00570928 255 12 12
-0.05113653 -0.08271614 0.00625777 255 12 12
-0.05170715 -0.08270798 0.00633945 255 12 12
-0.05191848 -0.08260927 0.00523462 255 12 12
-0.05325329 -0.08265179 0.00615646 255 12 12
-0.05375095 -0.08262786 0.00602829 255 12 12
-0.05416133 -0.08258698 0.00567166 255 12 12
-0.05471031 -0.08258341 0.00580104 255 12 12
-0.05520238 -0.08256146 0.00569447 255 12 12
-0.05564706 -0.08252069 0.00534991 255 12 12
-0.05613081 -0.08247885 0.00500486 255 12 12
-0.05664374 -0.08245776 0.00491516 255 12 12
-0.05718618 -0.08245736 0.00508010 255 12 12
-0.05759142 -0.08237792 0.00426445 255 12 12
-0.05888339 -0.08245712 0.00560802 255 12 12
-0.05944848 -0.08247945 0.00604973 255 12 12
-0.06106274 -0.08261580 0.00817216 255 12 12
-0.06156852 -0.08266334 0.00889436 255 12 12
-0.06388287 -0.08371334 0.02207459 255 12 12
-0.06418910 -0.08366429 0.02158844 255 12 12
-0.06463799 -0.08380197 0.02336225 255 12 12
-0.06495235 -0.08375369 0.02288783 255 12 12
-0.06628867 -0.08358349 0.02128660 255 12 12
-0.06665861 -0.08353592 0.02083797 255 12 12
-0.06685734 -0.08372511 0.02314455 255 12 12
-0.06722770 -0.08367853 0.02270785 255 12 12
-0.06760495 -0.08363222 0.02227639 255 12 12
-0.06794007 -0.08360804 0.02209445 255 12 12
-0.06816555 -0.08362805 0.02240228 255 12 12
-0.06844455 -0.08362647 0.02247081 255 12 12
-0.07063321 -0.08362596 0.02314934 255 12 12
-0.07114849 -0.08369704 0.02415372 255 12 12
-0.07567041 -0.08291992 0.01634902 255 12 12
-0.08050501 -0.08226775 0.01012435 255 12 12
-0.08134860 -0.08221192 0.00972585 255 12 12
-0.08232949 -0.08213565 0.00912785 255 12 12
-0.08317973 -0.08205728 0.00846407 255 12 12
-0.08403514 -0.08200378 0.00809701 255 12 12
-0.08451450 -0.08201537 0.00838443 255 12 12
-0.08472425 -0.08207014 0.00909979 255 12 12
-0.08489097 -0.08212447 0.00979648 255 12 12
-0.08533795 -0.08213737 0.01008929 255 12 12
-0.08592207 -0.08212984 0.01018271 255 12 12
-0.08607615 -0.08218591 0.01089601 255 12 12
-0.08639664 -0.08222257 0.01143121 255 12 12
-0.08638169 -0.08230026 0.01234817 255 12 12
-0.08695499 -0.08229539 0.01246973 255 12 12
-0.08730030 -0.08238952 0.01369440 255 12 12
-0.08818321 -0.08234587 0.01345273 255 12 12
-0.08906895 -0.08230312 0.01322264 255 12 12
-0.09013880 -0.08224196 0.01283170 255 12 12
-0.09123254 -0.08218281 0.01247206 255 12 12
-0.09182193 -0.08218436 0.01267485 255 12 12
-0.09241099 -0.08218680 0.01288796 255 12 12
-0.09282430 -0.08220967 0.01328863 255 12 12
-0.09338530 -0.08221231 0.01349539 255 12 12
-0.09378219 -0.08223603 0.01390089 255 12 12
-0.09344498 -0.08233691 0.01499224 255 12 12
-0.09308409 -0.08243721 0.01606919 255 12 12
-0.09310214 -0.08250115 0.01683339 255 12 12
-0.09247597 -0.08268145 0.01877650 255 12 12
-0.09261524 -0.08272483 0.01933458 255 12 12
-0.09273833 -0.08276788 0.01988380 255 12 12
-0.09246288 -0.08284765 0.02074400 255 12 12
-0.09176414 -0.08296208 0.02188302 255 12 12
-0.09185271 -0.08300505 0.02242039 255 12 12
-0.09273538 -0.08297708 0.02236470 255 12 12
-0.09577548 -0.08282390 0.02149838 255 12 12
-0.09711140 -0.08276828 0.02125635 255 12 12
-0.09827262 -0.08273436 0.02121722 255 12 12
-0.09878466 -0.08275033 0.02156677 255 12 12
-0.10109858 -0.08268806 0.02155183 255 12 12
-0.10160519 -0.08270726 0.02193811 255 12 12
-0.10299320 -0.08266513 0.02187244 255 12 12
-0.10394138 -0.08265591 0.02205964 255 12 12
-0.10467439 -0.08266458 0.02239175 255 12 12
-0.10610783 -0.08263348 0.02247114 255 12 12
-0.10684696 -0.08264655 0.02285736 255 12 12
-0.10511151 -0.08287875 0.02506918 255 12 12
-0.10557799 -0.08290460 0.02552175 255 12 12
-0.09808113 -0.08350534 0.03030355 255 12 12
-0.09824899 -0.08353939 0.03076007 255 12 12
-0.10918327 -0.08315765 0.02965142 255 12 12
-0.10688603 -0.08338360 0.03161339 255 12 12
-0.09865983 -0.08395692 0.03584178 255 12 12
-0.09826839 -0.08401597 0.03641990 255 12 12
-0.09884752 -0.08403184 0.03678923 255 12 12
-0.09883665 -0.08415718 0.03827282 255 12 12
-0.09940313 -0.08418119 0.03873485 255 12 12
-0.10045691 -0.08418652 0.03912764 255 12 12
-0.10075948 -0.08421924 0.03961042 255 12 12
-0.58265579 -0.06938725 0.01438363 255 12 12
-0.57927282 -0.07008510 0.02160428 255 12 12
-0.60726736 -0.07116930 0.04322247 255 12 12
-0.59323914 -0.07214648 0.05042726 255 12 12
-0.57936303 -0.07309988 0.05739740 255 12 12
-0.56741579 -0.07393083 0.06351818 255 12 12
-0.55837146 -0.07470710 0.06989833 255 12 12
-0.55249805 -0.07538656 0.07612188 255 12 12
-0.54753302 -0.07604713 0.08240539 255 12 12
-0.54371967 -0.07668738 0.08880798 255 12 12
-0.54182364 -0.07727604 0.09519839 255 12 12
-0.53984225 -0.07786330 0.10154537 255 12 12
-0.53876707 -0.07843427 0.10798267 255 12 12
-0.53885419 -0.07912256 0.11617517 255 12 12
-0.53924131 -0.07971011 0.12326653 255 12 12
-0.54173501 -0.08027844 0.13078868 255 12 12
-0.54410941 -0.08085733 0.13839879 255 12 12
-0.54492660 -0.08134351 0.14442207 255 12 12
-0.54762972 -0.08191258 0.15201858 255 12 12
-0.55267651 -0.08246559 0.16015747 255 12 12
-0.55852512 -0.08304269 0.16883308 255 12 12
-0.56156923 -0.08364915 0.17697980 255 12 12
-0.56159466 -0.08427538 0.18441682 255 12 12
-0.56466358 -0.08489038 0.19267264 255 12 12
-0.56946427 -0.08553084 0.20177205 255 12 12
-0.56465103 -0.08616384 0.20777597 255 12 12
-0.56232230 -0.08680946 0.21470669 255 12 12
-0.22360718 -0.09069719 0.15488404 255 12 12
-0.22369514 -0.09097563 0.15821471 255 12 12
-0.22167817 -0.09119011 0.16012829 255 12 12
-0.21884270 -0.09137238 0.16140368 255 12 12
-0.21521474 -0.09151896 0.16200778 255 12 12
-0.21280144 -0.09170274 0.16343316 255 12 12
-0.21072941 -0.09190406 0.16517335 255 12 12
-0.20841365 -0.09209859 0.16675686 255 12 12
-0.19804794 -0.09218543 0.16454485 255 12 12
-0.19634655 -0.09238656 0.16639874 255 12 12
-0.19361267 -0.09254929 0.16747414 255 12 12
-0.18969543 -0.09262971 0.16720291 255 12 12
-0.18760560 -0.09280140 0.16858607 255 12 12
-0.18616066 -0.09301664 0.17068746 255 12 12
-0.18055924 -0.09390420 0.17946482 255 12 12
-0.17788651 -0.09402704 0.18008606 255 12 12
-0.17533877 -0.09416148 0.18088408 255 12 12
-0.17372091 -0.09436670 0.18281257 255 12 12
-0.17115721 -0.09449522 0.18353535 255 12 12
-0.16855618 -0.09462342 0.18424271 255 12 12
-0.16672854 -0.09481024 0.18588728 255 12 12
-0.16401242 -0.09491529 0.18628395 255 12 12
-0.16045955 -0.09493419 0.18539691 255 12 12
-0.15760247 -0.09501862 0.18550488 255 12 12
-0.15561131 -0.09517990 0.18679538 255 12 12
-0.15280933 -0.09525313 0.18678776 255 12 12
-0.14976702 -0.09529251 0.18630340 255 12 12
-0.14756031 -0.09543602 0.18731559 255 12 12
-0.14562788 -0.09560418 0.18870605 255 12 12
-0.14395278 -0.09579843 0.19048653 255 12 12
-0.14313792 -0.09611890 0.19403355 255 12 12
-0.14238088 -0.09647941 0.19807349 255 12 12
-0.14028318 -0.09664619 0.19939592 255 12 12
-0.13762744 -0.09673036 0.19956379 255 12 12
-0.13539844 -0.09687606 0.20059512 255 12 12
-0.13368865 -0.09707753 0.20245039 255 12 12
-0.13146264 -0.09721688 0.20340721 255 12 12
-0.12903426 -0.09732004 0.20387145 255 12 12
-0.12678873 -0.09745444 0.20476356 255 12 12
-0.12479404 -0.09766107 0.20659100 255 12 12
-0.12229665 -0.09775894 0.20697085 255 12 12
-0.11943867 -0.09776250 0.20611912 255 12 12
-0.11719569 -0.09790679 0.20712932 255 12 12
-0.11155140 -0.09785118 0.20470424 255 12 12
-0.10970448 -0.09807593 0.20679278 255 12 12
-0.10716015 -0.09811442 0.20645362 255 12 12
-0.10468438 -0.09821177 0.20683414 255 12 12
-0.10281684 -0.09847214 0.20933872 255 12 12
-0.10006077 -0.09941343 0.21964349 255 12 12
-0.09774073 -0.09955624 0.22061198 255 12 12
-0.09517526 -0.09962098 0.22057756 255 12 12
-0.09273967 -0.09974138 0.22124401 255 12 12
-0.09017943 -0.09979994 0.22113794 255 12 12
-0.08735823 -0.10003485 0.22304234 255 12 12
-0.08493637 -0.10029331 0.22535100 255 12 12
-0.08232021 -0.10040747 0.22588704 255 12 12
-0.07676267 -0.09998385 0.21912326 255 12 12
-0.07419718 -0.09998184 0.21829701 255 12 12
-0.08371049 -0.16895710 1.03953893 255 12 12
-0.06949642 -0.16882024 1.03346943 255 12 12
-0.05571043 -0.16884445 1.02944469 255 12 12
-0.04171407 -0.16906762 1.02771434 255 12 12
-0.02780047 -0.16918806 1.02479129 255 12 12
-0.01401490 -0.16920484 1.02067845 255 12 12
-0.00057262 -0.16923983 1.01688901 255 12 12
0.01296153 -0.16917630 1.01190222 255 12 12
0.02648259 -0.16920131 1.00796973 255 12 12
0.04001431 -0.16929436 1.00484116 255 12 12
0.05312358 -0.16930062 1.00081512 255 12 12
0.06650290 -0.16935850 0.99731693 255 12 12
0.08114472 -0.16943811 0.99368172 255 12 12
0.09462825 -0.16946243 0.98975277 255 12 12
0.10816249 -0.16953408 0.98636957 255 12 12
0.12182480 -0.16967533 0.98377197 255 12 12
