ply
format ascii 1.0
element vertex 110
property float x
property float y
property float z
property uchar red
property uchar green
property uchar blue
end_header
-0.06661870 -0.08357894 0.02133588 255 12 12
-0.06688819 -0.08359684 0.02163251 255 12 12
-0.06714995 -0.08361521 0.02193229 255 12 12
-0.06746627 -0.08359062 0.02173957 255 12 12
-0.06771411 -0.08360983 0.02204496 255 12 12
-0.06789343 -0.08365143 0.02259455 255 12 12
-0.06806408 -0.08369344 0.02314628 255 12 12
-0.06881885 -0.08362487 0.02256897 255 12 12
-0.06903267 -0.08364606 0.02288721 255 12 12
-0.06987420 -0.08364579 0.02314722 255 12 12
-0.07023025 -0.08362442 0.02300506 255 12 12
-0.07085187 -0.08353753 0.02216863 255 12 12
-0.07123933 -0.08351702 0.02204662 255 12 12
-0.07125991 -0.08358467 0.02285552 255 12 12
-0.07144900 -0.08360873 0.02320007 255 12 12
-0.07340872 -0.08330803 0.02024584 255 12 12
-0.07575700 -0.08296744 0.01693981 255 12 12
-0.07568148 -0.08305965 0.01801015 255 12 12
-0.08009801 -0.08266750 0.01473938 255 12 12
-0.07923931 -0.08301564 0.01860089 255 12 12
-0.07960872 -0.08302641 0.01884418 255 12 12
-0.07995460 -0.08303711 0.01907925 255 12 12
-0.08121079 -0.08335412 0.02323290 255 12 12
-0.08337830 -0.08329644 0.02322665 255 12 12
-0.08330271 -0.08335186 0.02386044 255 12 12
-0.08356126 -0.08336780 0.02413042 255 12 12
-0.08185047 -0.08362859 0.02668909 255 12 12
-0.07981846 -0.08400171 0.03047986 255 12 12
-0.08944138 -0.08365135 0.02933337 255 12 12
-0.09455959 -0.08343749 0.02839720 255 12 12
-0.09477249 -0.08347012 0.02885093 255 12 12
-0.09790231 -0.08335966 0.02851942 255 12 12
-0.09856760 -0.08336693 0.02881376 255 12 12
-0.10294740 -0.08321243 0.02835085 255 12 12
-0.10750343 -0.08324268 0.03013468 255 12 12
-0.10816762 -0.08326672 0.03062770 255 12 12
-0.10705140 -0.08343242 0.03224426 255 12 12
-0.10842018 -0.08342454 0.03257895 255 12 12
-0.11227012 -0.08354739 0.03524054 255 12 12
-0.67269421 -0.09522835 0.34910379 255 12 12
-0.66075940 -0.09593548 0.35375965 255 12 12
-0.64997322 -0.09676301 0.36020296 255 12 12
-0.61863061 -0.09794932 0.36447309 255 12 12
-0.51506074 -0.09709160 0.32190318 255 12 12
-0.50634952 -0.09761786 0.32542160 255 12 12
-0.49854448 -0.09814034 0.32917852 255 12 12
-0.48857406 -0.09859771 0.33148584 255 12 12
-0.48116599 -0.09910365 0.33517078 255 12 12
-0.47629451 -0.09969938 0.34071436 255 12 12
-0.46701660 -0.10011914 0.34279208 255 12 12
-0.45748231 -0.10052487 0.34462325 255 12 12
-0.44570612 -0.10080677 0.34428406 255 12 12
-0.43393765 -0.10107409 0.34377437 255 12 12
-0.42273012 -0.10132222 0.34321246 255 12 12
-0.41191120 -0.10157400 0.34281549 255 12 12
-0.40126111 -0.10179271 0.34207893 255 12 12
-0.39394729 -0.10216587 0.34421816 255 12 12
-0.38636015 -0.10249759 0.34578029 255 12 12
-0.37691351 -0.10272650 0.34554117 255 12 12
-0.35367233 -0.10297548 0.34122545 255 12 12
-0.34718786 -0.10331881 0.34327033 255 12 12
-0.34231304 -0.10377054 0.34710443 255 12 12
-0.32334426 -0.10386057 0.34223948 255 12 12
-0.31520332 -0.10399605 0.34130034 255 12 12
-0.30658522 -0.10408662 0.33967928 255 12 12
-0.29985369 -0.10431479 0.34028056 255 12 12
-0.29232202 -0.10444771 0.33950170 255 12 12
-0.27101183 -0.10409095 0.32860389 255 12 12
-0.24566855 -0.10314743 0.30948385 255 12 12
-0.23827581 -0.10310118 0.30662294 255 12 12
-0.21730225 -0.10226224 0.29011024 255 12 12
-0.21151728 -0.10229297 0.28866539 255 12 12
-0.20650327 -0.10238127 0.28814463 255 12 12
-0.19263616 -0.10207588 0.28018439 255 12 12
-0.18686249 -0.10201052 0.27760308 255 12 12
-0.18164374 -0.10199573 0.27579531 255 12 12
-0.17892322 -0.10232187 0.27881350 255 12 12
-0.16471069 -0.10167852 0.26673588 255 12 12
-0.13397439 -0.09977761 0.23457134 255 12 12
-0.13119506 -0.09993463 0.23556478 255 12 12
-0.12216228 -0.09942958 0.22674792 255 12 12
-0.11964288 -0.09960569 0.22804918 255 12 12
-0.11619621 -0.09954092 0.22620273 255 12 12
-0.10929886 -0.09931400 0.22135332 255 12 12
-0.10776515 -0.09975445 0.22609875 255 12 12
-0.10505507 -0.09985742 0.22647274 255 12 12
-0.10219104 -0.09994232 0.22658408 255 12 12
-0.08579186 -0.10979846 0.33837997 255 12 12
-0.08184984 -0.11038759 0.34413597 255 12 12
-0.07769810 -0.11089384 0.34884307 255 12 12
-0.07318235 -0.11102720 0.34901269 255 12 12
-0.06867139 -0.11079779 0.34488023 255 12 12
-0.06429379 -0.11083238 0.34392134 255 12 12
-0.05992588 -0.11100840 0.34464326 255 12 12
-0.05538462 -0.11114128 0.34479932 255 12 12
-0.05103167 -0.11103299 0.34215309 255 12 12
-0.04678096 -0.11100105 0.34044465 255 12 12
-0.04228711 -0.11122135 0.34165246 255 12 12
-0.03812720 -0.11121910 0.34032461 255 12 12
-0.03360053 -0.11149261 0.34215348 255 12 12
-0.02921233 -0.11161063 0.34218110 255 12 12
-0.02519759 -0.11146353 0.33918025 255 12 12
-0.01979241 -0.11196709 0.34346344 255 12 12
-0.01488913 -0.11228785 0.34573504 255 12 12
-0.01102483 -0.11203684 0.34154863 255 12 12
-0.00634269 -0.11221592 0.34220854 255 12 12
-0.00219357 -0.11221310 0.34087738 255 12 12
0.00118018 -0.11183352 0.33531903 255 12 12
0.00609608 -0.11212677 0.33726028 255 12 12
0.01170928 -0.11261305 0.34127347 255 12 12
