ply
format ascii 1.0
element vertex 251
property float x
property float y
property float z
property uchar red
property uchar green
property uchar blue
end_header
-0.02785769 -0.09999939 0.20401111 255 12 12
-0.02503300 -0.10004075 0.20361819 255 12 12
-0.02213148 -0.10012159 0.20366967 255 12 12
-0.01910730 -0.10022049 0.20389708 255 12 12
-0.01677389 -0.10005148 0.20116215 255 12 12
-0.01460954 -0.09987765 0.19842302 255 12 12
-0.01209730 -0.09983146 0.19708932 255 12 12
-0.00957470 -0.09978094 0.19570097 255 12 12
-0.00669288 -0.09983615 0.19545461 255 12 12
-0.00385273 -0.09986481 0.19490621 255 12 12
-0.00096104 -0.09991124 0.19455256 255 12 12
0.00207621 -0.09997469 0.19435528 255 12 12
0.00528969 -0.10007756 0.19457058 255 12 12
0.00814480 -0.10008790 0.19380018 255 12 12
0.01073189 -0.10005076 0.19255034 255 12 12
0.01425302 -0.10018195 0.19300533 255 12 12
0.01766994 -0.10019105 0.19204460 255 12 12
0.02087891 -0.10022194 0.19140729 255 12 12
0.02392439 -0.10022676 0.19051198 255 12 12
0.02700497 -0.10022526 0.18953066 255 12 12
0.03009634 -0.10031736 0.18965632 255 12 12
0.03319938 -0.10033003 0.18883600 255 12 12
0.03640363 -0.10035960 0.18818456 255 12 12
0.04081078 -0.10054964 0.18906057 255 12 12
0.04531889 -0.10073057 0.18979693 255 12 12
0.04832780 -0.10069836 0.18847376 255 12 12
0.05085796 -0.10059918 0.18650568 255 12 12
0.05493922 -0.10069921 0.18641583 255 12 12
0.06022499 -0.10093157 0.18751914 255 12 12
0.06505101 -0.10109557 0.18795516 255 12 12
0.06841282 -0.10107117 0.18661416 255 12 12
0.07004953 -0.10084287 0.18339396 255 12 12
0.07112508 -0.10063889 0.18063766 255 12 12
0.07234121 -0.10039251 0.17733444 255 12 12
0.07254855 -0.10004987 0.17320482 255 12 12
0.07269167 -0.09970495 0.16906814 255 12 12
0.07225730 -0.09926657 0.16400343 255 12 12
0.07073444 -0.09876845 0.15857046 255 12 12
0.06884341 -0.09825773 0.15310318 255 12 12
0.06535301 -0.09729297 0.14274980 255 12 12
0.06388345 -0.09686291 0.13810759 255 12 12
0.06267133 -0.09647405 0.13387352 255 12 12
0.06260468 -0.09619036 0.13052899 255 12 12
0.06241362 -0.09591174 0.12728341 255 12 12
0.06133243 -0.09556391 0.12349519 255 12 12
0.06015841 -0.09521891 0.11976957 255 12 12
0.06039286 -0.09499193 0.11700352 255 12 12
0.06035232 -0.09474849 0.11412827 255 12 12
0.05937551 -0.09444176 0.11079493 255 12 12
0.05854139 -0.09415325 0.10763324 255 12 12
0.05785755 -0.09388236 0.10463347 255 12 12
0.05757153 -0.09359324 0.10129312 255 12 12
0.05816662 -0.09340497 0.09887347 255 12 12
0.05778404 -0.09315986 0.09608534 255 12 12
0.05804583 -0.09295589 0.09358373 255 12 12
0.05876703 -0.09282707 0.09182999 255 12 12
0.05725659 -0.09253591 0.08884824 255 12 12
0.05474014 -0.09219537 0.08559553 255 12 12
0.05356620 -0.09193932 0.08292511 255 12 12
0.09294886 -0.09260684 0.07852585 255 12 12
-0.01346776 -0.08452468 0.01593080 255 12 12
-0.01376538 -0.08442935 0.01489292 255 12 12
-0.01491906 -0.08435816 0.01440931 255 12 12
-0.01606630 -0.08429091 0.01397026 255 12 12
-0.02126068 -0.08425293 0.01514441 255 12 12
-0.02298846 -0.08421847 0.01527601 255 12 12
-0.02409061 -0.08416785 0.01502029 255 12 12
-0.02844121 -0.08416113 0.01630133 255 12 12
-0.02930642 -0.08411415 0.01601458 255 12 12
-0.02958720 -0.08404477 0.01527933 255 12 12
-0.03264192 -0.08402079 0.01595033 255 12 12
-0.03289175 -0.08386790 0.01421476 255 12 12
-0.03393553 -0.08384087 0.01422050 255 12 12
-0.03343361 -0.08346100 0.00955703 255 12 12
-0.03403601 -0.08340133 0.00903760 255 12 12
-0.03494616 -0.08336825 0.00892988 255 12 12
-0.03553103 -0.08331320 0.00845979 255 12 12
-0.04884961 -0.08399532 0.02071763 255 12 12
-0.04950648 -0.08399318 0.02089768 255 12 12
-0.04951261 -0.08391923 0.02002236 255 12 12
-0.04967458 -0.08385865 0.01935432 255 12 12
-0.04917796 -0.08342005 0.01399582 255 12 12
-0.04896268 -0.08297434 0.00864088 255 12 12
-0.04931672 -0.08288530 0.00769543 255 12 12
-0.04954359 -0.08278224 0.00654366 255 12 12
-0.05018758 -0.08274581 0.00631298 255 12 12
-0.05083554 -0.08271023 0.00609354 255 12 12
-0.05126333 -0.08262124 0.00517169 255 12 12
-0.05204110 -0.08262492 0.00545854 255 12 12
-0.05295959 -0.08266619 0.00623543 255 12 12
-0.05389076 -0.08249154 0.00445484 255 12 12
-0.05561350 -0.08254354 0.00561058 255 12 12
-0.05613807 -0.08245719 0.00475025 255 12 12
-0.05674196 -0.08238993 0.00414115 255 12 12
-0.05975666 -0.08255325 0.00702157 255 12 12
-0.06049731 -0.08265494 0.00845968 255 12 12
-0.06425537 -0.08351566 0.01984598 255 12 12
-0.06464927 -0.08352814 0.02011729 255 12 12
-0.06509363 -0.08347706 0.01965024 255 12 12
-0.06574715 -0.08359187 0.02121662 255 12 12
-0.06615312 -0.08356429 0.02101651 255 12 12
-0.06675828 -0.08364099 0.02211565 255 12 12
-0.06717327 -0.08361496 0.02193664 255 12 12
-0.06748439 -0.08363328 0.02225136 255 12 12
-0.06779167 -0.08365218 0.02257164 255 12 12
-0.06814733 -0.08364975 0.02265399 255 12 12
-0.06850154 -0.08364786 0.02274243 255 12 12
-0.07114080 -0.08360642 0.02307626 255 12 12
-0.07158258 -0.08358714 0.02298575 255 12 12
-0.08339891 -0.08201369 0.00801557 255 12 12
-0.08429758 -0.08198557 0.00796305 255 12 12
-0.08510810 -0.08195651 0.00787178 255 12 12
-0.08546458 -0.08201562 0.00868452 255 12 12
-0.08592846 -0.08205403 0.00928536 255 12 12
-0.08638730 -0.08209358 0.00989803 255 12 12
-0.08665899 -0.08215393 0.01069891 255 12 12
-0.08707682 -0.08219465 0.01131265 255 12 12
-0.08748039 -0.08223612 0.01193091 255 12 12
-0.08771356 -0.08229881 0.01274758 255 12 12
-0.08961555 -0.08224522 0.01270666 255 12 12
-0.09047969 -0.08223036 0.01280074 255 12 12
-0.09186559 -0.08215798 0.01237553 255 12 12
-0.09273134 -0.08214604 0.01250465 255 12 12
-0.09326606 -0.08217573 0.01302416 255 12 12
-0.09379162 -0.08220644 0.01355287 255 12 12
-0.09394411 -0.08227649 0.01443151 255 12 12
-0.09366013 -0.08238171 0.01559095 255 12 12
-0.09338353 -0.08248881 0.01677505 255 12 12
-0.09287816 -0.08261334 0.01809427 255 12 12
-0.09292232 -0.08268202 0.01892283 255 12 12
-0.09295968 -0.08275173 0.01976154 255 12 12
-0.09256748 -0.08285633 0.02087968 255 12 12
-0.09315056 -0.08287124 0.02123900 255 12 12
-0.09332292 -0.08292242 0.02190004 255 12 12
-0.09843512 -0.08271242 0.02100779 255 12 12
-0.09946008 -0.08270469 0.02123666 255 12 12
-0.10215814 -0.08264687 0.02139459 255 12 12
-0.10253033 -0.08269362 0.02206569 255 12 12
-0.10356173 -0.08269550 0.02241055 255 12 12
-0.10481663 -0.08268465 0.02267436 255 12 12
-0.10607440 -0.08267688 0.02297561 255 12 12
-0.10710121 -0.08268602 0.02340522 255 12 12
-0.09687661 -0.08400621 0.03586879 255 12 12
-0.09968774 -0.08404771 0.03724034 255 12 12
-0.09929424 -0.08411779 0.03794859 255 12 12
-0.10168538 -0.08413288 0.03887554 255 12 12
-0.10175530 -0.08418577 0.03952482 255 12 12
-0.44951313 -0.07329892 0.01914403 255 12 12
-0.45367010 -0.07380466 0.02644400 255 12 12
-0.45342010 -0.07438520 0.03325281 255 12 12
-0.44555375 -0.07517050 0.04010863 255 12 12
-0.44081682 -0.07585245 0.04671710 255 12 12
-0.47961050 -0.07664633 0.06826896 255 12 12
-0.47639218 -0.07731403 0.07518329 255 12 12
-0.46731503 -0.07810038 0.08167275 255 12 12
-0.46262187 -0.07877835 0.08824775 255 12 12
-0.46601639 -0.07931092 0.09562748 255 12 12
-0.46307501 -0.07995369 0.10233271 255 12 12
-0.45253585 -0.08073077 0.10825493 255 12 12
-0.44641772 -0.08139410 0.11421058 255 12 12
-0.44560045 -0.08199362 0.12106717 255 12 12
-0.44246306 -0.08261261 0.12742902 255 12 12
-0.44048431 -0.08320110 0.13379148 255 12 12
-0.44052381 -0.08379742 0.14087809 255 12 12
-0.25489688 -0.08583123 0.10694505 255 12 12
-0.25002204 -0.08611940 0.10883888 255 12 12
-0.24441688 -0.08639673 0.11037569 255 12 12
-0.23916824 -0.08668963 0.11220880 255 12 12
-0.23331807 -0.08694020 0.11335153 255 12 12
-0.22794131 -0.08717968 0.11451074 255 12 12
-0.22439799 -0.08742651 0.11633060 255 12 12
-0.22067669 -0.08764963 0.11781362 255 12 12
-0.21578922 -0.08785514 0.11872293 255 12 12
-0.21113970 -0.08805183 0.11960198 255 12 12
-0.20628543 -0.08823242 0.12022605 255 12 12
-0.20202322 -0.08842894 0.12122430 255 12 12
-0.19934750 -0.08863798 0.12286720 255 12 12
-0.19729728 -0.08885754 0.12483064 255 12 12
-0.19395249 -0.08903968 0.12594527 255 12 12
-0.19172313 -0.08923376 0.12755036 255 12 12
-0.19046252 -0.08946306 0.12987621 255 12 12
-0.18895538 -0.08968514 0.13203939 255 12 12
-0.18720950 -0.08989886 0.13402873 255 12 12
-0.18672311 -0.09017697 0.13717589 255 12 12
-0.18584928 -0.09043179 0.13992556 255 12 12
-0.18472299 -0.09067976 0.14251495 255 12 12
-0.18506878 -0.09099692 0.14638563 255 12 12
-0.18475186 -0.09129339 0.14980362 255 12 12
-0.18305721 -0.09152875 0.15206572 255 12 12
-0.18186616 -0.09179186 0.15481448 255 12 12
-0.18133097 -0.09209570 0.15825159 255 12 12
-0.18067874 -0.09240655 0.16173524 255 12 12
-0.17997254 -0.09271719 0.16519960 255 12 12
-0.17918034 -0.09303102 0.16867478 255 12 12
-0.17880051 -0.09338183 0.17271773 255 12 12
-0.17826001 -0.09371508 0.17650204 255 12 12
-0.17754983 -0.09405947 0.18036548 255 12 12
-0.17673992 -0.09440768 0.18424307 255 12 12
-0.17567635 -0.09474697 0.18793538 255 12 12
-0.17465553 -0.09512935 0.19215245 255 12 12
-0.17408072 -0.09554446 0.19689718 255 12 12
-0.17308802 -0.09593807 0.20125614 255 12 12
-0.17253151 -0.09639105 0.20645585 255 12 12
-0.17169042 -0.09683616 0.21147315 255 12 12
-0.17057467 -0.09727224 0.21629747 255 12 12
-0.16996164 -0.09778634 0.22220460 255 12 12
-0.16880143 -0.09826262 0.22749188 255 12 12
-0.16566512 -0.09849252 0.22923826 255 12 12
-0.16193069 -0.09866385 0.23010272 255 12 12
-0.15847381 -0.09885706 0.23131354 255 12 12
-0.15440827 -0.09896846 0.23136351 255 12 12
-0.14994764 -0.09898387 0.23015117 255 12 12
-0.14479579 -0.09887676 0.22726908 255 12 12
-0.14035203 -0.09885707 0.22564560 255 12 12
-0.13608153 -0.09884415 0.22415661 255 12 12
-0.13160007 -0.09881569 0.22241725 255 12 12
-0.12752183 -0.09880319 0.22099330 255 12 12
-0.12335279 -0.09874601 0.21901105 255 12 12
-0.11965571 -0.09876884 0.21812546 255 12 12
-0.11612791 -0.09879984 0.21738974 255 12 12
-0.11245800 -0.09878949 0.21611912 255 12 12
-0.10928052 -0.09888074 0.21620775 255 12 12
-0.10618693 -0.09900669 0.21673429 255 12 12
-0.10270733 -0.09901619 0.21575871 255 12 12
-0.09916854 -0.09895904 0.21397386 255 12 12
-0.09589257 -0.09897161 0.21309835 255 12 12
-0.09265803 -0.09897791 0.21216138 255 12 12
-0.08931208 -0.09889905 0.21017921 255 12 12
-0.08614693 -0.09887244 0.20887354 255 12 12
-0.08333391 -0.09904014 0.20998320 255 12 12
-0.08061641 -0.09930577 0.21228447 255 12 12
-0.07774353 -0.09944586 0.21304776 255 12 12
-0.07480260 -0.09958389 0.21376540 255 12 12
-0.07190018 -0.09973741 0.21467882 255 12 12
-0.06886450 -0.09974348 0.21380133 255 12 12
-0.06581175 -0.09972459 0.21262233 255 12 12
-0.06284846 -0.09969882 0.21138974 255 12 12
-0.05991912 -0.09970984 0.21060423 255 12 12
-0.05698919 -0.09977957 0.21051508 255 12 12
-0.05419835 -0.09984199 0.21038269 255 12 12
-0.05135401 -0.09985948 0.20970049 255 12 12
-0.04855228 -0.09985090 0.20872231 255 12 12
-0.04575428 -0.09985917 0.20794528 255 12 12
-0.04276836 -0.09988739 0.20734613 255 12 12
-0.03996763 -0.09988705 0.20646610 255 12 12
-0.03715183 -0.09990386 0.20578474 255 12 12
-0.03422143 -0.09998163 0.20579079 255 12 12
-0.03141952 -0.10003245 0.20551738 255 12 12
-0.02858189 -0.10005804 0.20493340 255 12 12
-0.02574256 -0.10010084 0.20455302 255 12 12
-0.02286188 -0.10013962 0.20411202 255 12 12
