ply
format ascii 1.0
element vertex 120
property float x
property float y
property float z
property uchar red
property uchar green
property uchar blue
end_header
-0.00538171 -0.10797588 0.29160757 255 12 12
-0.08386665 -0.08204861 0.00857618 255 12 12
-0.08408787 -0.08210307 0.00929135 255 12 12
-0.08416877 -0.08217937 0.01022185 255 12 12
-0.08546169 -0.08224276 0.01137825 255 12 12
-0.08549461 -0.08239891 0.01324096 255 12 12
-0.08623087 -0.08237356 0.01317054 255 12 12
-0.08651081 -0.08241097 0.01370196 255 12 12
-0.08709452 -0.08240793 0.01384838 255 12 12
-0.08782268 -0.08238474 0.01380101 255 12 12
-0.08873551 -0.08234315 0.01359323 255 12 12
-0.08948602 -0.08232267 0.01358501 255 12 12
-0.09024999 -0.08230375 0.01359949 255 12 12
-0.09179279 -0.08226955 0.01367629 255 12 12
-0.09185976 -0.08233196 0.01443763 255 12 12
-0.09245360 -0.08233675 0.01468024 255 12 12
-0.09247334 -0.08239831 0.01541667 255 12 12
-0.09213472 -0.08249945 0.01651065 255 12 12
-0.09213483 -0.08256163 0.01724829 255 12 12
-0.09113537 -0.08284378 0.02028290 255 12 12
-0.09099662 -0.08296704 0.02170177 255 12 12
-0.09149446 -0.08297398 0.02193980 255 12 12
-0.09099015 -0.08307083 0.02293105 255 12 12
-0.09127710 -0.08309660 0.02332646 255 12 12
-0.09558581 -0.08284280 0.02166328 255 12 12
-0.09610582 -0.08285726 0.02199743 255 12 12
-0.09841138 -0.08278931 0.02191248 255 12 12
-0.09893324 -0.08280791 0.02229643 255 12 12
-0.10010242 -0.08277923 0.02232188 255 12 12
-0.10149126 -0.08273626 0.02224643 255 12 12
-0.10223382 -0.08274373 0.02256730 255 12 12
-0.10276952 -0.08277038 0.02305110 255 12 12
-0.10396041 -0.08275104 0.02319417 255 12 12
-0.10515008 -0.08273336 0.02335651 255 12 12
-0.10387860 -0.08293629 0.02536615 255 12 12
-0.10344497 -0.08302187 0.02624583 255 12 12
-0.10276312 -0.08312053 0.02720294 255 12 12
-0.10579277 -0.08339496 0.03140622 255 12 12
-0.09518791 -0.08408957 0.03632951 255 12 12
-0.09733798 -0.08407847 0.03687031 255 12 12
-0.09832666 -0.08416758 0.03823670 255 12 12
-0.09889479 -0.08419161 0.03869947 255 12 12
-0.09945455 -0.08421554 0.03915837 255 12 12
-0.70037833 -0.06502846 -0.00050413 255 12 12
-0.69722366 -0.06590303 0.00888435 255 12 12
-0.69368073 -0.06678019 0.01818207 255 12 12
-0.69075069 -0.06763032 0.02735092 255 12 12
-0.68793686 -0.06846956 0.03642679 255 12 12
-0.46027013 -0.07564586 0.05035082 255 12 12
-0.45988842 -0.07613736 0.05606225 255 12 12
-0.46092688 -0.07658738 0.06172575 255 12 12
-0.46262585 -0.07703563 0.06757479 255 12 12
-0.46349824 -0.07749616 0.07331106 255 12 12
-0.46253528 -0.07800357 0.07902932 255 12 12
-0.46023598 -0.07854255 0.08470418 255 12 12
-0.45464167 -0.07912193 0.08982764 255 12 12
-0.45344225 -0.07962280 0.09539444 255 12 12
-0.49017943 -0.08080221 0.12087665 255 12 12
-0.49020368 -0.08135911 0.12749081 255 12 12
-0.48349861 -0.08198607 0.13283142 255 12 12
-0.49531023 -0.08290671 0.14744751 255 12 12
-0.48989338 -0.08348932 0.15266493 255 12 12
-0.48369224 -0.08406470 0.15755116 255 12 12
-0.47524447 -0.08464323 0.16177199 255 12 12
-0.46966817 -0.08519140 0.16653094 255 12 12
-0.46332590 -0.08572909 0.17092590 255 12 12
-0.45717867 -0.08625510 0.17524332 255 12 12
-0.45516123 -0.08680318 0.18111421 255 12 12
-0.45450221 -0.08734759 0.18736663 255 12 12
-0.45168413 -0.08787273 0.19271502 255 12 12
-0.45037437 -0.08841759 0.19876907 255 12 12
-0.45201156 -0.08898113 0.20596657 255 12 12
-0.45232809 -0.08955298 0.21284948 255 12 12
-0.46938671 -0.09092996 0.23452051 255 12 12
-0.46519279 -0.09153138 0.24034346 255 12 12
-0.45974468 -0.09207406 0.24507735 255 12 12
-0.46093342 -0.09271780 0.25308588 255 12 12
-0.46673613 -0.09347797 0.26391893 255 12 12
-0.46760998 -0.09410144 0.27158857 255 12 12
-0.46377428 -0.09467898 0.27724035 255 12 12
-0.47204856 -0.09623607 0.29830038 255 12 12
-0.15113647 -0.10174365 0.26326271 255 12 12
-0.14672072 -0.10171100 0.26149427 255 12 12
-0.14312138 -0.10180611 0.26149676 255 12 12
-0.13947962 -0.10189919 0.26146198 255 12 12
-0.13591569 -0.10198357 0.26134825 255 12 12
-0.13208519 -0.10201165 0.26048328 255 12 12
-0.12767562 -0.10191160 0.25791712 255 12 12
-0.12395387 -0.10192523 0.25691464 255 12 12
-0.12046949 -0.10198823 0.25657228 255 12 12
-0.11694718 -0.10202718 0.25593255 255 12 12
-0.11334105 -0.10202265 0.25475091 255 12 12
-0.10988916 -0.10205009 0.25399676 255 12 12
-0.10647027 -0.10207202 0.25318752 255 12 12
-0.10303856 -0.10206907 0.25207914 255 12 12
-0.09936453 -0.10215724 0.25197605 255 12 12
-0.09589227 -0.10214728 0.25077176 255 12 12
-0.09257016 -0.10219098 0.25025115 255 12 12
-0.08927143 -0.10222965 0.24967806 255 12 12
-0.08636303 -0.10222916 0.24876259 255 12 12
-0.08330085 -0.10231520 0.24882552 255 12 12
-0.08017991 -0.10233618 0.24809822 255 12 12
-0.07703392 -0.10229101 0.24657840 255 12 12
-0.07386523 -0.10230583 0.24576309 255 12 12
-0.07086386 -0.10250084 0.24713775 255 12 12
-0.06783408 -0.10252479 0.24647420 255 12 12
-0.05775024 -0.10621094 0.28704963 255 12 12
-0.04983299 -0.10744404 0.29920178 255 12 12
-0.04613926 -0.10750129 0.29872565 255 12 12
-0.04236627 -0.10757661 0.29843909 255 12 12
-0.03857387 -0.10766868 0.29834511 255 12 12
-0.03494507 -0.10762652 0.29670990 255 12 12
-0.03129647 -0.10762225 0.29551803 255 12 12
-0.02757200 -0.10767796 0.29501405 255 12 12
-0.02397087 -0.10766360 0.29371732 255 12 12
-0.02052660 -0.10757875 0.29163336 255 12 12
-0.01649976 -0.10760205 0.29065030 255 12 12
-0.01276323 -0.10761693 0.28965812 255 12 12
-0.00895227 -0.10769181 0.28935446 255 12 12
-0.00472761 -0.10789389 0.29043033 255 12 12
