ply
format ascii 1.0
element vertex 67
property float x
property float y
property float z
property uchar red
property uchar green
property uchar blue
end_header
0.04510633 -0.12626913 0.49283209 255 12 12
-0.09870372 -0.08387638 0.03490002 255 12 12
-0.09673248 -0.08405365 0.03638652 255 12 12
-0.09756745 -0.08406147 0.03674038 255 12 12
-0.09741307 -0.08411096 0.03727917 255 12 12
-0.09725179 -0.08416091 0.03782137 255 12 12
-0.09806962 -0.08417173 0.03820554 255 12 12
-0.09969357 -0.08420019 0.03905105 255 12 12
-0.69706305 -0.06504746 -0.00131572 255 12 12
-0.69441972 -0.06590270 0.00800336 255 12 12
-0.69189622 -0.06676105 0.01739691 255 12 12
-0.68923743 -0.06763038 0.02687830 255 12 12
-0.68493360 -0.06852300 0.03612145 255 12 12
-0.45927060 -0.07567070 0.05033291 255 12 12
-0.45939529 -0.07613085 0.05583072 255 12 12
-0.46143103 -0.07656692 0.06164072 255 12 12
-0.46213328 -0.07703691 0.06743596 255 12 12
-0.46225201 -0.07752113 0.07321743 255 12 12
-0.46176928 -0.07803639 0.07917903 255 12 12
-0.46021371 -0.07856133 0.08491998 255 12 12
-0.45511299 -0.07913244 0.09009974 255 12 12
-0.45240905 -0.07966563 0.09557930 255 12 12
-0.48736931 -0.08088342 0.12096105 255 12 12
-0.48712419 -0.08144961 0.12760131 255 12 12
-0.47868044 -0.08199669 0.13145038 255 12 12
-0.47832080 -0.08253792 0.13775860 255 12 12
-0.48639459 -0.08302208 0.14602752 255 12 12
-0.48581217 -0.08358093 0.15247517 255 12 12
-0.47979557 -0.08417041 0.15758632 255 12 12
-0.47471352 -0.08473624 0.16270936 255 12 12
-0.46741951 -0.08529435 0.16704892 255 12 12
-0.46127692 -0.08583858 0.17158391 255 12 12
-0.45461496 -0.08637004 0.17580504 255 12 12
-0.45168455 -0.08690183 0.18119709 255 12 12
-0.45055436 -0.08744003 0.18722845 255 12 12
-0.44746573 -0.08796851 0.19253179 255 12 12
-0.44615777 -0.08850836 0.19852697 255 12 12
-0.44636758 -0.08906507 0.20519698 255 12 12
-0.44623403 -0.08962565 0.21180545 255 12 12
-0.46278503 -0.09099876 0.23327185 255 12 12
-0.46420619 -0.09163069 0.24121297 255 12 12
-0.46080613 -0.09219494 0.24684336 255 12 12
-0.45710576 -0.09275241 0.25229936 255 12 12
-0.46679337 -0.09432870 0.27402922 255 12 12
-0.46242840 -0.09490665 0.27952023 255 12 12
-0.11075071 -0.11974465 0.46418011 255 12 12
-0.10438905 -0.11994622 0.46458160 255 12 12
-0.09784102 -0.11995627 0.46265270 255 12 12
-0.09142699 -0.12003815 0.46161785 255 12 12
-0.08512635 -0.12004546 0.45973386 255 12 12
-0.07879240 -0.12008807 0.45825816 255 12 12
-0.07263184 -0.12015987 0.45718309 255 12 12
-0.06639310 -0.12022616 0.45601813 255 12 12
-0.06007664 -0.12030756 0.45500813 255 12 12
-0.05391509 -0.12033506 0.45340711 255 12 12
-0.04784753 -0.12024748 0.45047032 255 12 12
-0.04180017 -0.12025676 0.44868890 255 12 12
-0.03570129 -0.12038560 0.44830980 255 12 12
-0.02967044 -0.12044220 0.44709490 255 12 12
-0.00508272 -0.12519585 0.49579783 255 12 12
0.00207648 -0.12551360 0.49732812 255 12 12
0.00881880 -0.12562593 0.49655177 255 12 12
0.01559105 -0.12568747 0.49516356 255 12 12
0.02309492 -0.12581174 0.49429075 255 12 12
0.03009896 -0.12592106 0.49339690 255 12 12
0.03698764 -0.12597725 0.49190886 255 12 12
0.04414293 -0.12613372 0.49152712 255 12 12
