ply
format ascii 1.0
element vertex 208
property float x
property float y
property float z
property uchar red
property uchar green
property uchar blue
end_header
0.45914278 -0.09589486 0.00299390 255 12 12
0.44967172 -0.09518615 -0.00245132 255 12 12
0.45256616 -0.09470425 -0.00907351 255 12 12
0.01920798 -0.08611606 0.02458924 255 12 12
0.02094132 -0.08604543 0.02320927 255 12 12
0.01872456 -0.08576741 0.02060444 255 12 12
0.01843557 -0.08567364 0.01958237 255 12 12
0.01766192 -0.08558149 0.01873111 255 12 12
0.01593303 -0.08549269 0.01821844 255 12 12
0.01372175 -0.08540578 0.01787906 255 12 12
0.01317654 -0.08532089 0.01704255 255 12 12
0.01332132 -0.08523201 0.01594292 255 12 12
0.01275485 -0.08514746 0.01511708 255 12 12
0.01287175 -0.08505735 0.01401147 255 12 12
0.01252469 -0.08497347 0.01312497 255 12 12
0.01123405 -0.08489542 0.01260270 255 12 12
0.01276748 -0.08470181 0.00982621 255 12 12
-0.00416744 -0.08458601 0.01374944 255 12 12
-0.01357978 -0.08450467 0.01572846 255 12 12
-0.01853160 -0.08437050 0.01568555 255 12 12
-0.02384430 -0.08427670 0.01623450 255 12 12
-0.02397428 -0.08422079 0.01561189 255 12 12
-0.02549761 -0.08414728 0.01521634 255 12 12
-0.02564565 -0.08409197 0.01460645 255 12 12
-0.02640150 -0.08405866 0.01444774 255 12 12
-0.02731890 -0.08403877 0.01449872 255 12 12
-0.02896088 -0.08392839 0.01370279 255 12 12
-0.03007486 -0.08391975 0.01394879 255 12 12
-0.03080729 -0.08389481 0.01388200 255 12 12
-0.03097901 -0.08384354 0.01332744 255 12 12
-0.03424827 -0.08377707 0.01356146 255 12 12
-0.03444276 -0.08372709 0.01302939 255 12 12
-0.03572384 -0.08362331 0.01219895 255 12 12
-0.03627052 -0.08359676 0.01205493 255 12 12
-0.03823587 -0.08354460 0.01205093 255 12 12
-0.03846735 -0.08349643 0.01155187 255 12 12
-0.03992711 -0.08341863 0.01108544 255 12 12
-0.04046796 -0.08339783 0.01100796 255 12 12
-0.04102487 -0.08337631 0.01092681 255 12 12
-0.04156245 -0.08335704 0.01086629 255 12 12
-0.04142955 -0.08319248 0.00887253 255 12 12
-0.04281811 -0.08310982 0.00832623 255 12 12
-0.04300248 -0.08304765 0.00764637 255 12 12
-0.04594931 -0.08317060 0.01002666 255 12 12
-0.04899624 -0.08331593 0.01270374 255 12 12
-0.04961911 -0.08332191 0.01296951 255 12 12
-0.05003399 -0.08329572 0.01278857 255 12 12
-0.05189470 -0.08347744 0.01552639 255 12 12
-0.05346529 -0.08361007 0.01759100 255 12 12
-0.05620986 -0.08394632 0.02243854 255 12 12
-0.05662502 -0.08396820 0.02282790 255 12 12
-0.05697628 -0.08390595 0.02219931 255 12 12
-0.05717129 -0.08378714 0.02085080 255 12 12
-0.05753341 -0.08379140 0.02101463 255 12 12
-0.05776074 -0.08365124 0.01942297 255 12 12
-0.05800820 -0.08361865 0.01911374 255 12 12
-0.05829220 -0.08360623 0.01905527 255 12 12
-0.05853986 -0.08342481 0.01698052 255 12 12
-0.05953125 -0.08353420 0.01858835 255 12 12
-0.05990718 -0.08332939 0.01627618 255 12 12
-0.06034246 -0.08337719 0.01697937 255 12 12
-0.06226289 -0.08327325 0.01634704 255 12 12
-0.06261254 -0.08330527 0.01683624 255 12 12
-0.06294975 -0.08333799 0.01732984 255 12 12
-0.06326751 -0.08337157 0.01782758 255 12 12
-0.06358354 -0.08338452 0.01808013 255 12 12
-0.06391362 -0.08331346 0.01734030 255 12 12
-0.06425935 -0.08326336 0.01685410 255 12 12
-0.06459852 -0.08325579 0.01687047 255 12 12
-0.06491400 -0.08327013 0.01713923 255 12 12
-0.06524234 -0.08326351 0.01716336 255 12 12
-0.06601735 -0.08339716 0.01899137 255 12 12
-0.06634743 -0.08337075 0.01878120 255 12 12
-0.06672470 -0.08332275 0.01832987 255 12 12
-0.06712399 -0.08329604 0.01813788 255 12 12
-0.06745336 -0.08329191 0.01819187 255 12 12
-0.06777516 -0.08328823 0.01824890 255 12 12
-0.06805503 -0.08330672 0.01855575 255 12 12
-0.06825839 -0.08345508 0.02037934 255 12 12
-0.06865302 -0.08340920 0.01995851 255 12 12
-0.06900547 -0.08338548 0.01978734 255 12 12
-0.06918717 -0.08342791 0.02034758 255 12 12
-0.06960688 -0.08338287 0.01994454 255 12 12
-0.06954334 -0.08357962 0.02225875 255 12 12
-0.07145155 -0.08327244 0.01921146 255 12 12
-0.07183727 -0.08325141 0.01908260 255 12 12
-0.07224084 -0.08323082 0.01896460 255 12 12
-0.07220032 -0.08338807 0.02081743 255 12 12
-0.07248200 -0.08339033 0.02093228 255 12 12
-0.07374417 -0.08324283 0.01957730 255 12 12
-0.07828534 -0.08265494 0.01402345 255 12 12
-0.07869194 -0.08266216 0.01423621 255 12 12
-0.07909555 -0.08266993 0.01445459 255 12 12
-0.07935507 -0.08267524 0.01459887 255 12 12
-0.08014860 -0.08281637 0.01652128 255 12 12
-0.08021900 -0.08286818 0.01715796 255 12 12
-0.07999831 -0.08296232 0.01820569 255 12 12
-0.08031926 -0.08297217 0.01842299 255 12 12
-0.08049330 -0.08315964 0.02070135 255 12 12
-0.08094248 -0.08315053 0.02073381 255 12 12
-0.08123087 -0.08316224 0.02096290 255 12 12
-0.08151630 -0.08317433 0.02119564 255 12 12
-0.08252087 -0.08319289 0.02173003 255 12 12
-0.08366740 -0.08319498 0.02211341 255 12 12
-0.08312656 -0.08334134 0.02368057 255 12 12
-0.08319161 -0.08337533 0.02410410 255 12 12
-0.08290489 -0.08344895 0.02488780 255 12 12
-0.08295520 -0.08348313 0.02530905 255 12 12
-0.08152525 -0.08373371 0.02783438 255 12 12
-0.08114369 -0.08380359 0.02854410 255 12 12
-0.08074313 -0.08387253 0.02923664 255 12 12
-0.08033168 -0.08394110 0.02992141 255 12 12
-0.08050557 -0.08395548 0.03014638 255 12 12
-0.08067296 -0.08396982 0.03036885 255 12 12
-0.08083748 -0.08398441 0.03059342 255 12 12
-0.08099911 -0.08399925 0.03082007 255 12 12
-0.08181815 -0.08404336 0.03159943 255 12 12
-0.08175978 -0.08407682 0.03197813 255 12 12
-0.09090618 -0.08348793 0.02785290 255 12 12
-0.09196834 -0.08344802 0.02771166 255 12 12
-0.09546636 -0.08328357 0.02685490 255 12 12
-0.09679034 -0.08323638 0.02670909 255 12 12
-0.09772195 -0.08322891 0.02691191 255 12 12
-0.10105439 -0.08320266 0.02764280 255 12 12
-0.10965083 -0.08313020 0.02947199 255 12 12
-0.10958502 -0.08318780 0.03013478 255 12 12
-0.11232917 -0.08316373 0.03070758 255 12 12
-0.11224814 -0.08322496 0.03140852 255 12 12
-0.11191055 -0.08329613 0.03214729 255 12 12
-0.11611341 -0.08334209 0.03400712 255 12 12
-0.92122380 -0.10532894 0.54666417 255 12 12
-0.75433478 -0.10445745 0.48412594 255 12 12
-0.73429864 -0.10495545 0.48376689 255 12 12
-0.53569782 -0.10391633 0.40932100 255 12 12
-0.51884115 -0.10405325 0.40567292 255 12 12
-0.42980151 -0.10315199 0.36713116 255 12 12
-0.41738547 -0.10325689 0.36449215 255 12 12
-0.40428419 -0.10330774 0.36099763 255 12 12
-0.39431494 -0.10347694 0.35988659 255 12 12
-0.38657286 -0.10374716 0.36067074 255 12 12
-0.38379378 -0.10429258 0.36627197 255 12 12
-0.37951126 -0.10487344 0.37182328 255 12 12
-0.36987430 -0.10502554 0.37061346 255 12 12
-0.36167558 -0.10524736 0.37068049 255 12 12
-0.35485792 -0.10554517 0.37208102 255 12 12
-0.34737989 -0.10567701 0.37130616 255 12 12
-0.34015743 -0.10588721 0.37154068 255 12 12
-0.33329458 -0.10610935 0.37202942 255 12 12
-0.32428294 -0.10614771 0.36966583 255 12 12
-0.31559815 -0.10620146 0.36758701 255 12 12
-0.30800836 -0.10630693 0.36646431 255 12 12
-0.29841779 -0.10621604 0.36238629 255 12 12
-0.28897661 -0.10610490 0.35811485 255 12 12
-0.28474219 -0.10646688 0.36108462 255 12 12
-0.28055582 -0.10681784 0.36393875 255 12 12
-0.27386039 -0.10691406 0.36298600 255 12 12
-0.25346924 -0.10634947 0.34991013 255 12 12
-0.21837909 -0.10452425 0.31728170 255 12 12
-0.20376159 -0.10400022 0.30649294 255 12 12
-0.20013974 -0.10420727 0.30781641 255 12 12
-0.19621059 -0.10438370 0.30868053 255 12 12
-0.19126627 -0.10452982 0.30886740 255 12 12
-0.18657218 -0.10460689 0.30831348 255 12 12
-0.18403368 -0.10500148 0.31220066 255 12 12
-0.18153630 -0.10543452 0.31655670 255 12 12
-0.17739557 -0.10550817 0.31613536 255 12 12
-0.17186673 -0.10538938 0.31299680 255 12 12
-0.16813793 -0.10556540 0.31391857 255 12 12
-0.16398103 -0.10567189 0.31388175 255 12 12
-0.15833373 -0.10545611 0.30955550 255 12 12
-0.15411218 -0.10551244 0.30890341 255 12 12
-0.15046318 -0.10566612 0.30958515 255 12 12
-0.14599417 -0.10563853 0.30786009 255 12 12
-0.13486316 -0.10485019 0.29502630 255 12 12
-0.13194329 -0.10512528 0.29737637 255 12 12
-0.12823060 -0.10517417 0.29679520 255 12 12
-0.12471039 -0.10529661 0.29714661 255 12 12
-0.12126169 -0.10541176 0.29743396 255 12 12
-0.11697888 -0.10521629 0.29377546 255 12 12
-0.11309663 -0.10512818 0.29151593 255 12 12
-0.10972071 -0.10531413 0.29266595 255 12 12
-0.10722242 -0.10584377 0.29816782 255 12 12
-0.10001471 -0.10587340 0.29626481 255 12 12
-0.09626897 -0.10605710 0.29727248 255 12 12
-0.09215890 -0.10574168 0.29224507 255 12 12
-0.08880179 -0.10590257 0.29310368 255 12 12
-0.08551436 -0.10614150 0.29490998 255 12 12
-0.08219508 -0.10608273 0.29317456 255 12 12
-0.07504964 -0.10554984 0.28461787 255 12 12
-0.07179547 -0.10560455 0.28424897 255 12 12
-0.06868475 -0.10565158 0.28383393 255 12 12
-0.06549653 -0.10607536 0.28786408 255 12 12
-0.05582352 -0.10623612 0.28674574 255 12 12
-0.05264681 -0.10614133 0.28462761 255 12 12
-0.04961913 -0.10599758 0.28197530 255 12 12
-0.04631473 -0.10619272 0.28325675 255 12 12
-0.04307443 -0.10621447 0.28250121 255 12 12
-0.04040090 -0.10580025 0.27675100 255 12 12
-0.03716187 -0.10594117 0.27740964 255 12 12
-0.03340738 -0.10642522 0.28197777 255 12 12
-0.03007840 -0.10647561 0.28153421 255 12 12
-0.02651958 -0.10669503 0.28302411 255 12 12
-0.02322549 -0.10677970 0.28299826 255 12 12
-0.02039162 -0.10659954 0.27997464 255 12 12
-0.01769903 -0.10649963 0.27794713 255 12 12
-0.01445410 -0.10657284 0.27780074 255 12 12
-0.01137669 -0.10659809 0.27713773 255 12 12
-0.00881567 -0.10640075 0.27399564 255 12 12
