ply
format ascii 1.0
element vertex 103
property float x
property float y
property float z
property uchar red
property uchar green
property uchar blue
end_header
0.14707518 -0.16982631 0.97766516 255 12 12
-0.09233554 -0.08224104 0.01350781 255 12 12
-0.09257151 -0.08228397 0.01409101 255 12 12
-0.09280472 -0.08232773 0.01468299 255 12 12
-0.09263306 -0.08240825 0.01558455 255 12 12
-0.09264891 -0.08247086 0.01633234 255 12 12
-0.09282878 -0.08251410 0.01690145 255 12 12
-0.09145444 -0.08276928 0.01949885 255 12 12
-0.09120451 -0.08284902 0.02036667 255 12 12
-0.09151559 -0.08287313 0.02075003 255 12 12
-0.09055468 -0.08306824 0.02276410 255 12 12
-0.09144924 -0.08304040 0.02271358 255 12 12
-0.09214126 -0.08303114 0.02282017 255 12 12
-0.09263550 -0.08304093 0.02309098 255 12 12
-0.09529033 -0.08292732 0.02257350 255 12 12
-0.09621123 -0.08290734 0.02262452 255 12 12
-0.09935204 -0.08277395 0.02202445 255 12 12
-0.10073012 -0.08272813 0.02191192 255 12 12
-0.10124379 -0.08274853 0.02231460 255 12 12
-0.10385229 -0.08268937 0.02242874 255 12 12
-0.10504602 -0.08267025 0.02257520 255 12 12
-0.10668884 -0.08262274 0.02252544 255 12 12
-0.10653232 -0.08269745 0.02336282 255 12 12
-0.10632395 -0.08276585 0.02410911 255 12 12
-0.10453479 -0.08299445 0.02626145 255 12 12
-0.09795198 -0.08353993 0.03067351 255 12 12
-0.10607849 -0.08324800 0.02975212 255 12 12
-0.10698505 -0.08325724 0.03014528 255 12 12
-0.10740503 -0.08329171 0.03068565 255 12 12
-0.10661588 -0.08338718 0.03157131 255 12 12
-0.09654668 -0.08408720 0.03672642 255 12 12
-0.09869037 -0.08408197 0.03733486 255 12 12
-0.09877188 -0.08412217 0.03783721 255 12 12
-0.09884351 -0.08416108 0.03832127 255 12 12
-0.09841387 -0.08421929 0.03887735 255 12 12
-0.10250352 -0.08416178 0.03947434 255 12 12
-0.10131089 -0.08425039 0.04015251 255 12 12
-0.58024060 -0.06958109 0.01592778 255 12 12
-0.57684778 -0.07029910 0.02338451 255 12 12
-0.57959292 -0.07083380 0.03058632 255 12 12
-0.60002077 -0.07152029 0.04511971 255 12 12
-0.58746268 -0.07247241 0.05248698 255 12 12
-0.57330994 -0.07342094 0.05931288 255 12 12
-0.56206021 -0.07428287 0.06601944 255 12 12
-0.55547193 -0.07500797 0.07256076 255 12 12
-0.55003530 -0.07570653 0.07914740 255 12 12
-0.54601619 -0.07635524 0.08558613 255 12 12
-0.54363966 -0.07697774 0.09222763 255 12 12
-0.54193126 -0.07757398 0.09876659 255 12 12
-0.54110821 -0.07816547 0.10552611 255 12 12
-0.54102841 -0.07883596 0.11345529 255 12 12
-0.54069515 -0.07944525 0.12057914 255 12 12
-0.54200083 -0.08002650 0.12788295 255 12 12
-0.54316912 -0.08062684 0.13537040 255 12 12
-0.54465242 -0.08115037 0.14204510 255 12 12
-0.54809660 -0.08172267 0.14991164 255 12 12
-0.55311662 -0.08229697 0.15829481 255 12 12
-0.55556920 -0.08290159 0.16623462 255 12 12
-0.38386843 -0.08463028 0.13303769 255 12 12
-0.38304830 -0.08504491 0.13770008 255 12 12
-0.38645714 -0.08546016 0.14369246 255 12 12
-0.38788650 -0.08587753 0.14909088 255 12 12
-0.38588507 -0.08630236 0.15350464 255 12 12
-0.38479618 -0.08672114 0.15813221 255 12 12
-0.38220263 -0.08714195 0.16231306 255 12 12
-0.33811135 -0.08806949 0.15952581 255 12 12
-0.33598038 -0.08843497 0.16319502 255 12 12
-0.33565323 -0.08881357 0.16758405 255 12 12
-0.33702843 -0.08922682 0.17291667 255 12 12
-0.33430340 -0.08958013 0.17625577 255 12 12
-0.42453333 -0.12814147 0.66193827 255 12 12
-0.41544069 -0.12886561 0.66768489 255 12 12
-0.40624170 -0.12951026 0.67245522 255 12 12
-0.39593109 -0.13000536 0.67510369 255 12 12
-0.38606711 -0.13054973 0.67847649 255 12 12
-0.37795242 -0.13126630 0.68443915 255 12 12
-0.36937943 -0.13200026 0.69046480 255 12 12
-0.36015099 -0.13260119 0.69470721 255 12 12
-0.35028298 -0.13313746 0.69798258 255 12 12
-0.34085200 -0.13370151 0.70172422 255 12 12
-0.33240715 -0.13448764 0.70840884 255 12 12
-0.32400929 -0.13525759 0.71491622 255 12 12
-0.31433845 -0.13584128 0.71881571 255 12 12
-0.30412554 -0.13626362 0.72063164 255 12 12
-0.29412606 -0.13677224 0.72353786 255 12 12
-0.28581452 -0.13761891 0.73098242 255 12 12
-0.07250432 -0.16899151 1.03644207 255 12 12
-0.05811955 -0.16909766 1.03320207 255 12 12
-0.04384933 -0.16909944 1.02875972 255 12 12
-0.02994900 -0.16913811 1.02487069 255 12 12
-0.01588706 -0.16916357 1.02077440 255 12 12
-0.00193603 -0.16916932 1.01647899 255 12 12
0.01184351 -0.16909116 1.01124180 255 12 12
0.02524431 -0.16900977 1.00608478 255 12 12
0.03911934 -0.16919447 1.00393610 255 12 12
0.05298141 -0.16938295 1.00183630 255 12 12
0.06667066 -0.16946694 0.99855086 255 12 12
0.07984403 -0.16942052 0.99387990 255 12 12
0.09333288 -0.16944652 0.98996928 255 12 12
0.10764622 -0.16952841 0.98646374 255 12 12
0.12151936 -0.16965097 0.98357843 255 12 12
0.13519177 -0.16979683 0.98103243 255 12 12
0.14897546 -0.16988315 0.97774508 255 12 12
