ply
format ascii 1.0
element vertex 190
property float x
property float y
property float z
property uchar red
property uchar green
property uchar blue
end_header
0.15468444 -0.16985787 0.97565960 255 12 12
0.16945956 -0.16994527 0.97207504 255 12 12
0.18443383 -0.17009945 0.96922043 255 12 12
0.19944486 -0.17025457 0.96636550 255 12 12
0.21518372 -0.17038925 0.96304042 255 12 12
0.23061158 -0.17056679 0.96032108 255 12 12
0.24593386 -0.17076678 0.95790112 255 12 12
0.26083511 -0.17076856 0.95326142 255 12 12
0.27636616 -0.17092391 0.95024654 255 12 12
0.29215787 -0.17112258 0.94766404 255 12 12
0.30723434 -0.17119091 0.94375906 255 12 12
0.32340816 -0.17143183 0.94155820 255 12 12
0.34007670 -0.17180495 0.94077100 255 12 12
0.35632294 -0.17199874 0.93798843 255 12 12
0.37255880 -0.17221560 0.93548286 255 12 12
-0.01293583 -0.08444619 0.01483332 255 12 12
-0.01339900 -0.08436642 0.01403178 255 12 12
-0.01668974 -0.08427003 0.01391757 255 12 12
-0.02096955 -0.08422167 0.01468256 255 12 12
-0.02266299 -0.08419278 0.01486951 255 12 12
-0.02433927 -0.08416828 0.01510316 255 12 12
-0.02558953 -0.08413452 0.01509368 255 12 12
-0.02584966 -0.08406431 0.01434215 255 12 12
-0.03025894 -0.08409070 0.01603442 255 12 12
-0.03124908 -0.08406363 0.01602294 255 12 12
-0.03187140 -0.08401903 0.01568842 255 12 12
-0.03212634 -0.08395688 0.01503091 255 12 12
-0.03371424 -0.08389568 0.01480160 255 12 12
-0.03398309 -0.08383560 0.01417291 255 12 12
-0.03369218 -0.08366185 0.01202071 255 12 12
-0.03371046 -0.08357397 0.01098388 255 12 12
-0.03389367 -0.08349886 0.01015014 255 12 12
-0.03408678 -0.08342398 0.00932216 255 12 12
-0.03446788 -0.08335950 0.00867648 255 12 12
-0.03536041 -0.08332912 0.00859525 255 12 12
-0.03592216 -0.08327715 0.00815437 255 12 12
-0.04861261 -0.08396442 0.02027691 255 12 12
-0.04871072 -0.08390721 0.01962898 255 12 12
-0.05007871 -0.08392538 0.02027239 255 12 12
-0.04937918 -0.08366469 0.01696094 255 12 12
-0.04970657 -0.08361835 0.01651357 255 12 12
-0.04855195 -0.08302233 0.00908182 255 12 12
-0.04864061 -0.08276738 0.00608506 255 12 12
-0.04918520 -0.08271320 0.00561258 255 12 12
-0.04979380 -0.08267872 0.00539392 255 12 12
-0.05072390 -0.08271628 0.00613046 255 12 12
-0.05147536 -0.08272017 0.00641156 255 12 12
-0.05175235 -0.08261779 0.00528372 255 12 12
-0.05215085 -0.08253193 0.00438981 255 12 12
-0.05270381 -0.08248289 0.00398089 255 12 12
-0.05344885 -0.08249058 0.00430522 255 12 12
-0.05415609 -0.08247934 0.00439302 255 12 12
-0.05488919 -0.08248939 0.00474157 255 12 12
-0.05569583 -0.08254000 0.00559434 255 12 12
-0.05662600 -0.08237329 0.00390754 255 12 12
-0.05732508 -0.08238819 0.00430293 255 12 12
-0.05803285 -0.08242481 0.00495872 255 12 12
-0.05867013 -0.08242251 0.00513073 255 12 12
-0.05929169 -0.08237936 0.00481325 255 12 12
-0.06074816 -0.08260471 0.00794227 255 12 12
-0.06343420 -0.08374528 0.02231321 255 12 12
-0.06469443 -0.08377979 0.02311669 255 12 12
-0.06627065 -0.08358375 0.02128405 255 12 12
-0.06655665 -0.08360101 0.02157825 255 12 12
-0.06690002 -0.08359670 0.02163454 255 12 12
-0.06714496 -0.08363662 0.02218472 255 12 12
-0.06747865 -0.08363334 0.02225018 255 12 12
-0.06840611 -0.08364832 0.02271797 255 12 12
-0.06892621 -0.08358100 0.02208203 255 12 12
-0.06942256 -0.08353602 0.02170372 255 12 12
-0.06969662 -0.08355757 0.02204508 255 12 12
-0.06980221 -0.08362361 0.02286158 255 12 12
-0.06988893 -0.08369012 0.02367769 255 12 12
-0.07110513 -0.08353873 0.02226215 255 12 12
-0.07143152 -0.08354072 0.02238779 255 12 12
-0.07972642 -0.08237252 0.01112375 255 12 12
-0.08392757 -0.08195271 0.00745744 255 12 12
-0.08457279 -0.08194325 0.00754714 255 12 12
-0.08462132 -0.08204271 0.00874220 255 12 12
-0.08462782 -0.08214211 0.00992344 255 12 12
-0.08670218 -0.08202706 0.00920735 255 12 12
-0.08645722 -0.08225071 0.01178398 255 12 12
-0.08711403 -0.08224858 0.01196414 255 12 12
-0.08712815 -0.08232875 0.01291956 255 12 12
-0.08776447 -0.08232789 0.01310843 255 12 12
-0.08872173 -0.08228749 0.01292858 255 12 12
-0.08952731 -0.08226886 0.01295958 255 12 12
-0.09087978 -0.08219361 0.01248982 255 12 12
-0.09171283 -0.08217871 0.01257367 255 12 12
-0.09255030 -0.08216529 0.01267638 255 12 12
-0.09339181 -0.08215336 0.01279809 255 12 12
-0.09358742 -0.08219433 0.01334525 255 12 12
-0.09368219 -0.08226020 0.01415637 255 12 12
-0.09338572 -0.08236388 0.01529366 255 12 12
-0.09288389 -0.08248639 0.01658999 255 12 12
-0.09261450 -0.08259452 0.01778854 255 12 12
-0.09302250 -0.08262388 0.01826438 255 12 12
-0.09283511 -0.08270849 0.01920959 255 12 12
-0.09263164 -0.08279317 0.02015047 255 12 12
-0.09239953 -0.08287684 0.02107047 255 12 12
-0.09235256 -0.08294273 0.02183749 255 12 12
-0.09289282 -0.08295534 0.02215604 255 12 12
-0.09582314 -0.08282863 0.02156937 255 12 12
-0.09700369 -0.08279572 0.02154821 255 12 12
-0.09755098 -0.08281463 0.02194380 255 12 12
-0.09809982 -0.08283530 0.02236061 255 12 12
-0.10225971 -0.08265940 0.02157505 255 12 12
-0.10281998 -0.08268691 0.02207668 255 12 12
-0.10525833 -0.08265340 0.02244181 255 12 12
-0.10648617 -0.08264110 0.02267985 255 12 12
-0.10726264 -0.08266097 0.02315849 255 12 12
-0.10533801 -0.08291711 0.02559510 255 12 12
-0.10779945 -0.08317272 0.02939742 255 12 12
-0.10700917 -0.08333874 0.03111966 255 12 12
-0.09743335 -0.08400918 0.03607818 255 12 12
-0.09877209 -0.08400036 0.03639225 255 12 12
-0.09912350 -0.08403480 0.03691074 255 12 12
-0.09848220 -0.08411031 0.03760595 255 12 12
-0.09830980 -0.08415837 0.03812212 255 12 12
-0.71197368 -0.06824488 0.04127964 255 12 12
-0.71644450 -0.06899406 0.05156577 255 12 12
-0.67295928 -0.07170188 0.07008776 255 12 12
-0.68395518 -0.07227985 0.08038362 255 12 12
-0.69030111 -0.07296715 0.09052208 255 12 12
-0.58809720 -0.07855922 0.12489442 255 12 12
-0.57904466 -0.07941924 0.13226556 255 12 12
-0.57264667 -0.08020572 0.13959459 255 12 12
-0.56935777 -0.08093848 0.14725872 255 12 12
-0.57641666 -0.08159979 0.15731189 255 12 12
-0.63175446 -0.08274647 0.18822372 255 12 12
-0.62313044 -0.08358374 0.19545904 255 12 12
-0.61586110 -0.08440052 0.20287488 255 12 12
-0.60988608 -0.08521656 0.21068685 255 12 12
-0.60194711 -0.08600740 0.21758555 255 12 12
-0.59345352 -0.08678168 0.22411432 255 12 12
-0.58865331 -0.08755355 0.23176980 255 12 12
-0.58543406 -0.08831481 0.23979385 255 12 12
-0.57994271 -0.08907364 0.24707845 255 12 12
-0.57371513 -0.08980561 0.25381398 255 12 12
-0.57032792 -0.09057053 0.26182895 255 12 12
-0.56880372 -0.09137110 0.27084957 255 12 12
-0.56899381 -0.09218713 0.28058975 255 12 12
-0.57214470 -0.09305983 0.29192821 255 12 12
-0.57194110 -0.09390053 0.30183795 255 12 12
-0.56977868 -0.09467412 0.31033885 255 12 12
-0.57083252 -0.09554722 0.32102621 255 12 12
-0.61358058 -0.12698223 0.70731636 255 12 12
-0.60486941 -0.12813137 0.71822419 255 12 12
-0.59518283 -0.12921387 0.72803623 255 12 12
-0.58576953 -0.13032802 0.73830935 255 12 12
-0.57616227 -0.13143661 0.74845574 255 12 12
-0.56636272 -0.13253928 0.75847188 255 12 12
-0.59384622 -0.14193995 0.87859003 255 12 12
-0.57881632 -0.14274938 0.88349136 255 12 12
-0.55908021 -0.14303853 0.88074862 255 12 12
-0.54316608 -0.14376969 0.88444486 255 12 12
-0.52869344 -0.14461189 0.88990924 255 12 12
-0.51533410 -0.14558991 0.89733308 255 12 12
-0.50230758 -0.14661641 0.90543624 255 12 12
-0.48955452 -0.14743824 0.91119685 255 12 12
-0.47566371 -0.14829291 0.91699124 255 12 12
-0.46193463 -0.14911561 0.92245684 255 12 12
-0.44699636 -0.14978734 0.92575334 255 12 12
-0.43136942 -0.15054800 0.92988929 255 12 12
-0.41763570 -0.15146558 0.93647911 255 12 12
-0.40429490 -0.15240616 0.94346460 255 12 12
-0.39082683 -0.15340014 0.95104382 255 12 12
-0.37767998 -0.15455485 0.96063029 255 12 12
-0.31616502 -0.14812961 0.86516576 255 12 12
-0.30400490 -0.14903767 0.87213487 255 12 12
-0.29211176 -0.14997922 0.87958467 255 12 12
-0.27981271 -0.15092209 0.88692316 255 12 12
-0.26756959 -0.15184366 0.89402659 255 12 12
-0.25524788 -0.15287978 0.90246429 255 12 12
-0.07741643 -0.16898405 1.03789000 255 12 12
-0.06163811 -0.16913253 1.03471629 255 12 12
-0.04626751 -0.16908187 1.02930761 255 12 12
-0.03076297 -0.16909807 1.02465030 255 12 12
-0.01537650 -0.16913280 1.02024976 255 12 12
-0.00010431 -0.16916538 1.01585939 255 12 12
0.01487677 -0.16927687 1.01249624 255 12 12
0.02993777 -0.16928544 1.00788706 255 12 12
0.04492892 -0.16931439 1.00354159 255 12 12
0.06002915 -0.16947256 1.00069490 255 12 12
0.07473472 -0.16956213 0.99715789 255 12 12
0.08946264 -0.16954697 0.99237149 255 12 12
0.10304086 -0.16962595 0.98906134 255 12 12
0.11763436 -0.16971936 0.98560492 255 12 12
0.13200570 -0.16983372 0.98246651 255 12 12
0.14663466 -0.16995217 0.97929606 255 12 12
