ply
format ascii 1.0
element vertex 236
property float x
property float y
property float z
property uchar red
property uchar green
property uchar blue
end_header
0.05719894 -0.12606635 0.48664418 255 12 12
-0.01356579 -0.08446409 0.01524263 255 12 12
-0.01459992 -0.08441203 0.01494857 255 12 12
-0.01575436 -0.08438260 0.01496044 255 12 12
-0.01697273 -0.08434370 0.01488003 255 12 12
-0.01733194 -0.08428575 0.01430493 255 12 12
-0.02321109 -0.08425947 0.01583208 255 12 12
-0.02437550 -0.08423535 0.01591019 255 12 12
-0.02493147 -0.08419147 0.01556353 255 12 12
-0.02722058 -0.08415425 0.01583787 255 12 12
-0.02815792 -0.08413075 0.01585235 255 12 12
-0.03138636 -0.08414435 0.01702342 255 12 12
-0.03191593 -0.08410996 0.01678110 255 12 12
-0.03187294 -0.08405075 0.01606528 255 12 12
-0.03203736 -0.08399893 0.01550188 255 12 12
-0.03276465 -0.08397484 0.01544362 255 12 12
-0.03367061 -0.08396162 0.01557012 255 12 12
-0.03402029 -0.08392151 0.01520374 255 12 12
-0.03438231 -0.08388080 0.01483396 255 12 12
-0.03370852 -0.08371817 0.01269397 255 12 12
-0.03460813 -0.08370962 0.01287382 255 12 12
-0.03407335 -0.08353693 0.01065795 255 12 12
-0.03449382 -0.08349477 0.01028935 255 12 12
-0.03490991 -0.08345383 0.00993382 255 12 12
-0.03597660 -0.08346040 0.01034538 255 12 12
-0.03624423 -0.08340794 0.00980677 255 12 12
-0.03801249 -0.08340520 0.01032735 255 12 12
-0.05025278 -0.08413247 0.02278358 255 12 12
-0.05077261 -0.08414112 0.02304880 255 12 12
-0.05065640 -0.08402769 0.02166682 255 12 12
-0.05068293 -0.08397733 0.02107769 255 12 12
-0.05007106 -0.08378211 0.01857032 255 12 12
-0.04988202 -0.08358296 0.01614872 255 12 12
-0.04898078 -0.08327069 0.01216227 255 12 12
-0.04919420 -0.08323399 0.01179361 255 12 12
-0.04950935 -0.08319125 0.01138523 255 12 12
-0.04944170 -0.08308148 0.01006183 255 12 12
-0.04911323 -0.08280718 0.00670494 255 12 12
-0.04967048 -0.08279736 0.00676273 255 12 12
-0.04996254 -0.08273612 0.00612761 255 12 12
-0.05044040 -0.08270960 0.00596251 255 12 12
-0.05118377 -0.08273569 0.00650454 255 12 12
-0.05196460 -0.08278248 0.00730376 255 12 12
-0.05249862 -0.08277676 0.00740300 255 12 12
-0.05296979 -0.08275291 0.00726740 255 12 12
-0.05349799 -0.08274858 0.00738123 255 12 12
-0.05390739 -0.08270710 0.00701720 255 12 12
-0.05419695 -0.08262853 0.00617570 255 12 12
-0.05530032 -0.08264303 0.00669284 255 12 12
-0.05562191 -0.08256460 0.00586305 255 12 12
-0.05605645 -0.08252468 0.00552539 255 12 12
-0.05649845 -0.08248499 0.00519276 255 12 12
-0.05697394 -0.08240196 0.00435649 255 12 12
-0.05815985 -0.08244124 0.00519343 255 12 12
-0.05935750 -0.08258818 0.00731121 255 12 12
-0.06120298 -0.08307430 0.01365532 255 12 12
-0.06159279 -0.08312519 0.01438099 255 12 12
-0.06281695 -0.08365663 0.02106843 255 12 12
-0.06312808 -0.08369021 0.02156409 255 12 12
-0.06341269 -0.08368283 0.02156555 255 12 12
-0.06428440 -0.08362012 0.02109432 255 12 12
-0.06620766 -0.08362706 0.02177821 255 12 12
-0.06719884 -0.08357198 0.02143479 255 12 12
-0.06785706 -0.08363018 0.02233106 255 12 12
-0.06801122 -0.08367218 0.02287754 255 12 12
-0.06827274 -0.08367065 0.02294118 255 12 12
-0.06978173 -0.08368989 0.02364142 255 12 12
-0.07070561 -0.08371625 0.02424313 255 12 12
-0.07113828 -0.08367425 0.02388015 255 12 12
-0.07129457 -0.08369835 0.02421505 255 12 12
-0.07354405 -0.08333259 0.02057957 255 12 12
-0.07675163 -0.08281848 0.01548376 255 12 12
-0.08107064 -0.08230209 0.01070865 255 12 12
-0.08423709 -0.08208222 0.00909065 255 12 12
-0.08441749 -0.08213638 0.00978970 255 12 12
-0.08489183 -0.08214952 0.01009393 255 12 12
-0.08533483 -0.08216252 0.01038672 255 12 12
-0.08549000 -0.08221812 0.01109482 255 12 12
-0.08542749 -0.08237048 0.01288269 255 12 12
-0.08582483 -0.08238473 0.01317611 255 12 12
-0.08621830 -0.08239953 0.01347468 255 12 12
-0.08660782 -0.08241486 0.01377835 255 12 12
-0.08717498 -0.08241130 0.01391361 255 12 12
-0.08820769 -0.08234695 0.01347317 255 12 12
-0.08875988 -0.08234427 0.01361411 255 12 12
-0.08981658 -0.08228252 0.01321203 255 12 12
-0.09168725 -0.08226381 0.01357522 255 12 12
-0.09208317 -0.08228565 0.01395811 255 12 12
-0.09245016 -0.08230667 0.01432231 255 12 12
-0.09282820 -0.08232915 0.01470719 255 12 12
-0.09172883 -0.08256600 0.01717311 255 12 12
-0.09169705 -0.08262640 0.01787973 255 12 12
-0.09165166 -0.08268670 0.01858095 255 12 12
-0.09140228 -0.08276547 0.01943736 255 12 12
-0.09171321 -0.08278851 0.01980799 255 12 12
-0.09057328 -0.08300081 0.02196996 255 12 12
-0.09104988 -0.08300587 0.02217906 255 12 12
-0.09133051 -0.08302994 0.02255243 255 12 12
-0.09160611 -0.08305446 0.02292950 255 12 12
-0.09208143 -0.08306202 0.02316785 255 12 12
-0.09296326 -0.08303541 0.02312796 255 12 12
-0.09726146 -0.08278381 0.02148761 255 12 12
-0.09754513 -0.08281400 0.02193445 255 12 12
-0.10046374 -0.08269654 0.02145394 255 12 12
-0.10098231 -0.08271628 0.02185031 255 12 12
-0.10039180 -0.08281494 0.02283605 255 12 12
-0.10314088 -0.08272955 0.02268287 255 12 12
-0.10366503 -0.08275604 0.02316104 255 12 12
-0.10438716 -0.08276538 0.02349767 255 12 12
-0.10488108 -0.08279091 0.02395502 255 12 12
-0.10582595 -0.08278822 0.02421870 255 12 12
-0.10673515 -0.08278135 0.02442159 255 12 12
-0.10628861 -0.08286547 0.02527979 255 12 12
-0.10821073 -0.08320302 0.02988548 255 12 12
-0.10790290 -0.08327221 0.03061000 255 12 12
-0.10638111 -0.08340081 0.03165960 255 12 12
-0.09769503 -0.08390957 0.03497828 255 12 12
-0.09731640 -0.08396762 0.03554848 255 12 12
-0.09766180 -0.08399253 0.03595206 255 12 12
-0.09799672 -0.08401598 0.03633507 255 12 12
-0.09833101 -0.08404167 0.03674439 255 12 12
-0.09807796 -0.08417631 0.03826243 255 12 12
-0.10043582 -0.08417171 0.03894538 255 12 12
-0.10074076 -0.08420424 0.03942667 255 12 12
-0.10227811 -0.08419032 0.03974242 255 12 12
-0.69288517 -0.06555931 0.00344968 255 12 12
-0.69187452 -0.06628522 0.01174524 255 12 12
-0.68903904 -0.06713357 0.02092250 255 12 12
-0.68480373 -0.06795659 0.02936145 255 12 12
-0.68395303 -0.06867784 0.03765159 255 12 12
-0.45677510 -0.07571469 0.05007418 255 12 12
-0.45466146 -0.07620706 0.05525424 255 12 12
-0.45548025 -0.07661959 0.06040424 255 12 12
-0.45747253 -0.07701814 0.06575544 255 12 12
-0.45814445 -0.07744880 0.07107457 255 12 12
-0.45675140 -0.07792163 0.07624815 255 12 12
-0.45430528 -0.07840237 0.08118618 255 12 12
-0.45004645 -0.07891869 0.08597922 255 12 12
-0.44499785 -0.07943029 0.09046935 255 12 12
-0.44632312 -0.07984646 0.09582102 255 12 12
-0.48280086 -0.08088365 0.11953496 255 12 12
-0.48585654 -0.08137125 0.12627522 255 12 12
-0.48024330 -0.08194355 0.13130870 255 12 12
-0.47140240 -0.08252857 0.13548370 255 12 12
-0.48093802 -0.08335873 0.14831463 255 12 12
-0.47926291 -0.08386545 0.15380200 255 12 12
-0.47583005 -0.08437653 0.15879127 255 12 12
-0.47038673 -0.08489626 0.16325433 255 12 12
-0.46421566 -0.08539663 0.16726011 255 12 12
-0.45943735 -0.08588719 0.17158519 255 12 12
-0.45437818 -0.08636953 0.17572484 255 12 12
-0.44829923 -0.08685004 0.17952382 255 12 12
-0.44527660 -0.08732427 0.18420427 255 12 12
-0.44476433 -0.08781068 0.18981448 255 12 12
-0.44324099 -0.08829342 0.19506480 255 12 12
-0.44206382 -0.08879061 0.20059492 255 12 12
-0.44107967 -0.08928206 0.20611726 255 12 12
-0.44001485 -0.08977576 0.21164107 255 12 12
-0.44136449 -0.09030322 0.21832050 255 12 12
-0.44751100 -0.09091886 0.22754646 255 12 12
-0.45531845 -0.09157340 0.23775345 255 12 12
-0.45758108 -0.09216357 0.24546243 255 12 12
-0.45418402 -0.09266431 0.25034033 255 12 12
-0.44960650 -0.09323204 0.25564360 255 12 12
-0.46252861 -0.09472417 0.27738681 255 12 12
-0.46180146 -0.09533837 0.28444574 255 12 12
-0.46439891 -0.09595894 0.29262008 255 12 12
-0.32528397 -0.10472092 0.35305265 255 12 12
-0.32151830 -0.10513795 0.35682217 255 12 12
-0.31565149 -0.10542106 0.35834569 255 12 12
-0.30987740 -0.10568758 0.35970144 255 12 12
-0.30447757 -0.10599186 0.36162217 255 12 12
-0.29892286 -0.10627587 0.36325408 255 12 12
-0.29307764 -0.10652560 0.36438839 255 12 12
-0.28790343 -0.10681326 0.36618255 255 12 12
-0.28291283 -0.10712918 0.36836945 255 12 12
-0.27749322 -0.10739727 0.36985465 255 12 12
-0.27153743 -0.10760119 0.37041101 255 12 12
-0.26569567 -0.10778900 0.37081176 255 12 12
-0.26081724 -0.10809208 0.37288140 255 12 12
-0.25579424 -0.10837474 0.37466355 255 12 12
-0.25075901 -0.10865138 0.37637050 255 12 12
-0.24616265 -0.10896135 0.37860999 255 12 12
-0.24133074 -0.10925767 0.38061404 255 12 12
-0.23556132 -0.10951766 0.38189378 255 12 12
-0.23060485 -0.10980837 0.38379221 255 12 12
-0.22541463 -0.11006118 0.38516790 255 12 12
-0.22001062 -0.11027480 0.38601193 255 12 12
-0.21620612 -0.11067890 0.38961586 255 12 12
-0.21360712 -0.11134477 0.39670221 255 12 12
-0.21093667 -0.11203133 0.40401175 255 12 12
-0.20836771 -0.11277320 0.41200924 255 12 12
-0.20641571 -0.11365250 0.42183000 255 12 12
-0.20454470 -0.11463269 0.43287288 255 12 12
-0.20185187 -0.11547398 0.44201098 255 12 12
-0.19882716 -0.11632676 0.45118170 255 12 12
-0.19591482 -0.11729897 0.46180426 255 12 12
-0.19320944 -0.11836302 0.47358108 255 12 12
-0.19068766 -0.11956377 0.48703702 255 12 12
-0.18821447 -0.12088561 0.50194467 255 12 12
-0.18548084 -0.12225602 0.51734703 255 12 12
-0.18169980 -0.12343008 0.53009251 255 12 12
-0.17636810 -0.12419293 0.53747477 255 12 12
-0.16928667 -0.12438090 0.53748966 255 12 12
-0.16134404 -0.12421229 0.53300511 255 12 12
-0.15363479 -0.12406849 0.52888796 255 12 12
-0.14622523 -0.12398973 0.52563604 255 12 12
-0.13915458 -0.12401726 0.52375101 255 12 12
-0.13107732 -0.12413901 0.52266901 255 12 12
-0.12378110 -0.12409434 0.51985698 255 12 12
-0.11663397 -0.12407831 0.51743125 255 12 12
-0.10964078 -0.12411204 0.51564407 255 12 12
-0.10363094 -0.12412595 0.51392937 255 12 12
-0.09702868 -0.12415292 0.51218420 255 12 12
-0.09043774 -0.12410898 0.50960142 255 12 12
-0.08397898 -0.12415876 0.50817184 255 12 12
-0.07755631 -0.12417915 0.50640480 255 12 12
-0.07121992 -0.12435784 0.50654280 255 12 12
-0.06489286 -0.12478102 0.50958406 255 12 12
-0.05850376 -0.12503056 0.51054595 255 12 12
-0.05188049 -0.12511042 0.50942170 255 12 12
-0.04546267 -0.12507254 0.50696501 255 12 12
-0.03919821 -0.12508675 0.50517421 255 12 12
-0.03280398 -0.12515947 0.50403685 255 12 12
-0.02664848 -0.12526208 0.50332883 255 12 12
-0.02040362 -0.12533826 0.50227930 255 12 12
-0.01423331 -0.12536364 0.50065041 255 12 12
-0.00803942 -0.12542440 0.49943393 255 12 12
-0.00171148 -0.12550107 0.49836415 255 12 12
0.00439999 -0.12552473 0.49673330 255 12 12
0.01047867 -0.12554067 0.49502117 255 12 12
0.01674071 -0.12565801 0.49445450 255 12 12
0.02364670 -0.12573178 0.49316964 255 12 12
0.03009198 -0.12581378 0.49212642 255 12 12
0.03629472 -0.12584297 0.49053266 255 12 12
0.04253587 -0.12584314 0.48858258 255 12 12
