ply
format ascii 1.0
element vertex 118
property float x
property float y
property float z
property uchar red
property uchar green
property uchar blue
end_header
-0.00458759 -0.10629455 0.27141327 255 12 12
-0.04424406 -0.08331870 0.01125030 255 12 12
-0.04616119 -0.08322681 0.01075981 255 12 12
-0.04823757 -0.08331958 0.01250983 255 12 12
-0.05043837 -0.08347673 0.01506243 255 12 12
-0.05083231 -0.08345172 0.01488901 255 12 12
-0.05482391 -0.08386808 0.02107687 255 12 12
-0.05799315 -0.08398627 0.02347026 255 12 12
-0.05788421 -0.08375338 0.02067329 255 12 12
-0.05937199 -0.08351916 0.01836005 255 12 12
-0.06071719 -0.08346966 0.01819365 255 12 12
-0.06124132 -0.08330463 0.01639975 255 12 12
-0.06301905 -0.08360912 0.02056801 255 12 12
-0.06475000 -0.08323150 0.01662964 255 12 12
-0.06645980 -0.08343260 0.01955015 255 12 12
-0.06746012 -0.08339840 0.01945726 255 12 12
-0.06814478 -0.08349895 0.02086432 255 12 12
-0.06831261 -0.08354082 0.02141343 255 12 12
-0.06865882 -0.08351714 0.02124084 255 12 12
-0.06903617 -0.08358063 0.02211210 255 12 12
-0.06937681 -0.08355796 0.02194973 255 12 12
-0.07041060 -0.08358050 0.02254045 255 12 12
-0.07093682 -0.08351555 0.02193454 255 12 12
-0.07148017 -0.08345102 0.02133896 255 12 12
-0.07185833 -0.08343083 0.02121764 255 12 12
-0.07204695 -0.08345481 0.02156121 255 12 12
-0.07453684 -0.08311386 0.01829519 255 12 12
-0.07596546 -0.08297039 0.01704003 255 12 12
-0.07722429 -0.08287301 0.01627859 255 12 12
-0.07884290 -0.08276082 0.01545389 255 12 12
-0.07886871 -0.08283389 0.01632875 255 12 12
-0.08031072 -0.08272168 0.01544871 255 12 12
-0.07923390 -0.08319299 0.02070303 255 12 12
-0.07997004 -0.08314057 0.02031142 255 12 12
-0.08027636 -0.08315154 0.02053743 255 12 12
-0.07933507 -0.08338027 0.02295647 255 12 12
-0.08056625 -0.08340714 0.02366032 255 12 12
-0.08201567 -0.08336698 0.02363721 255 12 12
-0.08262181 -0.08334194 0.02352979 255 12 12
-0.08305673 -0.08333725 0.02361014 255 12 12
-0.07901498 -0.08400549 0.03027339 255 12 12
-0.08038748 -0.08416580 0.03260456 255 12 12
-0.08944901 -0.08365235 0.02934765 255 12 12
-0.09074402 -0.08359986 0.02913000 255 12 12
-0.09650086 -0.08333870 0.02783243 255 12 12
-0.10722734 -0.08298286 0.02696611 255 12 12
-0.10697222 -0.08305324 0.02772123 255 12 12
-0.10999562 -0.08300298 0.02807065 255 12 12
-0.11128582 -0.08310841 0.02972494 255 12 12
-0.10799856 -0.08337978 0.03191602 255 12 12
-0.11074982 -0.08347213 0.03387214 255 12 12
-0.10988971 -0.08356346 0.03468653 255 12 12
-0.11000813 -0.08361605 0.03534754 255 12 12
-0.81794715 -0.09521848 0.39441895 255 12 12
-0.47519526 -0.09564268 0.29224512 255 12 12
-0.46546781 -0.09602511 0.29373945 255 12 12
-0.45787821 -0.09644688 0.29636905 255 12 12
-0.45188870 -0.09691497 0.30004878 255 12 12
-0.44594300 -0.09736341 0.30350897 255 12 12
-0.42140811 -0.09780227 0.30104116 255 12 12
-0.41698445 -0.09828456 0.30537906 255 12 12
-0.39876281 -0.09883058 0.30615718 255 12 12
-0.39008651 -0.09909746 0.30660952 255 12 12
-0.37929444 -0.09922875 0.30479141 255 12 12
-0.37005878 -0.09941527 0.30411547 255 12 12
-0.35976910 -0.09952974 0.30225500 255 12 12
-0.35144430 -0.09971396 0.30183655 255 12 12
-0.34598108 -0.10004926 0.30410556 255 12 12
-0.34058210 -0.10036800 0.30619808 255 12 12
-0.33238715 -0.10051093 0.30533052 255 12 12
-0.32490039 -0.10068636 0.30506997 255 12 12
-0.24917912 -0.09911305 0.26272135 255 12 12
-0.24288953 -0.09914446 0.26112667 255 12 12
-0.23958538 -0.09940234 0.26315243 255 12 12
-0.23573797 -0.09962453 0.26458495 255 12 12
-0.23013591 -0.09968245 0.26351982 255 12 12
-0.22622389 -0.09987289 0.26455543 255 12 12
-0.22216921 -0.10004448 0.26532281 255 12 12
-0.21838810 -0.10021324 0.26614222 255 12 12
-0.21309223 -0.10024945 0.26491530 255 12 12
-0.20709684 -0.10018669 0.26229559 255 12 12
-0.20274963 -0.10028648 0.26211967 255 12 12
-0.19875640 -0.10040313 0.26225452 255 12 12
-0.18638032 -0.10010189 0.25480991 255 12 12
-0.18445938 -0.10043804 0.25819678 255 12 12
-0.17370300 -0.10023177 0.25238537 255 12 12
-0.17151640 -0.10052621 0.25519450 255 12 12
-0.16363589 -0.10063736 0.25404818 255 12 12
-0.16047971 -0.10079745 0.25496022 255 12 12
-0.15596089 -0.10071824 0.25260710 255 12 12
-0.13982905 -0.10047161 0.24463557 255 12 12
-0.13604352 -0.10042013 0.24284087 255 12 12
-0.13226723 -0.10036452 0.24100000 255 12 12
-0.12308744 -0.10054687 0.24029198 255 12 12
-0.10790584 -0.09972627 0.22580850 255 12 12
-0.10447426 -0.10044276 0.23323498 255 12 12
-0.10162703 -0.10043872 0.23229650 255 12 12
-0.09424662 -0.09985092 0.22301488 255 12 12
-0.09199827 -0.10011118 0.22539924 255 12 12
-0.08621709 -0.09990789 0.22117927 255 12 12
-0.08162881 -0.10546938 0.28572116 255 12 12
-0.07799396 -0.10533292 0.28296540 255 12 12
-0.07457064 -0.10518591 0.28015056 255 12 12
-0.07126103 -0.10511582 0.27828393 255 12 12
-0.06797877 -0.10493620 0.27512647 255 12 12
-0.06486643 -0.10497930 0.27466425 255 12 12
-0.06169587 -0.10512539 0.27540563 255 12 12
-0.05858373 -0.10520342 0.27535792 255 12 12
-0.05539220 -0.10532183 0.27576442 255 12 12
-0.05198962 -0.10556743 0.27761374 255 12 12
-0.04872314 -0.10572210 0.27842689 255 12 12
-0.04539473 -0.10591644 0.27969133 255 12 12
-0.03964611 -0.10543380 0.27216772 255 12 12
-0.02977265 -0.10588617 0.27444593 255 12 12
-0.02645386 -0.10584577 0.27292870 255 12 12
-0.02350826 -0.10575393 0.27091783 255 12 12
-0.02014945 -0.10587616 0.27131733 255 12 12
-0.01731735 -0.10575406 0.26898299 255 12 12
