ply
format ascii 1.0
element vertex 406
property float x
property float y
property float z
property uchar red
property uchar green
property uchar blue
end_header
0.14185498 -0.16207293 0.88731824 255 12 12
0.15310117 -0.16243542 0.88810087 255 12 12
0.16426852 -0.16274276 0.88825399 255 12 12
0.17587885 -0.16317065 0.88969861 255 12 12
0.18779153 -0.16358744 0.89091701 255 12 12
0.19895147 -0.16381608 0.89013877 255 12 12
0.21013055 -0.16403294 0.88921484 255 12 12
0.22180372 -0.16436986 0.88956070 255 12 12
0.23352702 -0.16469473 0.88974779 255 12 12
0.24563935 -0.16509526 0.89071086 255 12 12
0.25799678 -0.16552722 0.89197016 255 12 12
0.26952202 -0.16572704 0.89073581 255 12 12
0.28087798 -0.16587049 0.88888562 255 12 12
0.29301252 -0.16617655 0.88872101 255 12 12
0.30519522 -0.16646954 0.88838626 255 12 12
0.31865156 -0.16701133 0.89060484 255 12 12
0.33245087 -0.16753595 0.89251231 255 12 12
0.34493807 -0.16780934 0.89184981 255 12 12
0.35746891 -0.16806886 0.89100911 255 12 12
0.37038122 -0.16837938 0.89065421 255 12 12
0.38589798 -0.16862930 0.88876563 255 12 12
0.39936985 -0.16885058 0.88717704 255 12 12
0.41460689 -0.16940436 0.88898072 255 12 12
0.43019852 -0.16993488 0.89039771 255 12 12
0.44330573 -0.17041076 0.89194341 255 12 12
0.45839174 -0.17087537 0.89273663 255 12 12
0.47254702 -0.17120061 0.89216744 255 12 12
0.48754173 -0.17158730 0.89206483 255 12 12
0.50298186 -0.17209617 0.89327226 255 12 12
0.51932613 -0.17266390 0.89489512 255 12 12
0.53465030 -0.17304421 0.89461376 255 12 12
0.55034670 -0.17344754 0.89448893 255 12 12
0.56771929 -0.17393123 0.89479321 255 12 12
0.58413481 -0.17432657 0.89434877 255 12 12
0.60132493 -0.17483353 0.89498619 255 12 12
0.61979599 -0.17543220 0.89631101 255 12 12
0.63279491 -0.17532303 0.89094999 255 12 12
0.64920633 -0.17559283 0.88901753 255 12 12
0.66968185 -0.17637642 0.89190913 255 12 12
0.68759462 -0.17676045 0.89086219 255 12 12
0.70837953 -0.17749120 0.89303000 255 12 12
0.72956386 -0.17818201 0.89459914 255 12 12
0.74964247 -0.17873763 0.89491042 255 12 12
0.77042988 -0.17929211 0.89498639 255 12 12
0.78830646 -0.18011007 0.89909854 255 12 12
0.80770790 -0.18059059 0.89873073 255 12 12
0.82805647 -0.18117588 0.89930948 255 12 12
0.85021526 -0.18187367 0.90065666 255 12 12
0.87594431 -0.18238081 0.89862539 255 12 12
0.90171028 -0.18322891 0.90062745 255 12 12
0.92615904 -0.18388971 0.90081953 255 12 12
0.94999555 -0.18444040 0.89989689 255 12 12
0.97588115 -0.18514042 0.90010480 255 12 12
1.00503227 -0.18609460 0.90230654 255 12 12
1.03243077 -0.18682344 0.90238316 255 12 12
1.05959478 -0.18747480 0.90161398 255 12 12
1.09010301 -0.18837002 0.90269181 255 12 12
1.12040197 -0.18918281 0.90285713 255 12 12
1.15250591 -0.19008858 0.90356093 255 12 12
1.18603591 -0.19104805 0.90445576 255 12 12
1.22036100 -0.19204639 0.90556299 255 12 12
1.25554520 -0.19300118 0.90588495 255 12 12
1.29195426 -0.19402531 0.90664632 255 12 12
1.33092673 -0.19513273 0.90759402 255 12 12
1.37078907 -0.19618279 0.90758295 255 12 12
1.40977010 -0.19712810 0.90660485 255 12 12
1.45284259 -0.19829906 0.90702386 255 12 12
1.50007361 -0.19968490 0.90869143 255 12 12
1.54713154 -0.20095956 0.90909412 255 12 12
1.59620143 -0.20227881 0.90939656 255 12 12
1.64863464 -0.20372933 0.91020422 255 12 12
1.70536588 -0.20536267 0.91183639 255 12 12
1.76657776 -0.20666074 0.90808966 255 12 12
1.82777265 -0.20817610 0.90692617 255 12 12
1.89037864 -0.20970198 0.90544598 255 12 12
1.95945915 -0.21144341 0.90449791 255 12 12
2.03111580 -0.21352904 0.90682728 255 12 12
2.27599520 -0.21995050 0.90641262 255 12 12
2.90586777 -0.23590281 0.89864593 255 12 12
2.94852071 -0.23470612 0.87110833 255 12 12
2.76652060 -0.21944512 0.74699041 255 12 12
2.71889566 -0.21414978 0.69906688 255 12 12
2.66637854 -0.20875513 0.65149556 255 12 12
2.61531529 -0.20355479 0.60577448 255 12 12
2.56721923 -0.19860719 0.56212369 255 12 12
2.52410714 -0.19398556 0.52078106 255 12 12
2.48160927 -0.18949376 0.48078656 255 12 12
2.06332715 -0.16795199 0.35606305 255 12 12
2.30477427 -0.17239125 0.33320682 255 12 12
2.28091222 -0.16906450 0.30120461 255 12 12
2.24487400 -0.16521283 0.26678354 255 12 12
2.20823096 -0.16153255 0.23458496 255 12 12
2.17284424 -0.15802759 0.20407322 255 12 12
2.14207800 -0.15469456 0.17415605 255 12 12
2.11410030 -0.15161483 0.14637141 255 12 12
2.08504678 -0.14851340 0.11866603 255 12 12
2.05589180 -0.14547115 0.09169434 255 12 12
2.02714887 -0.14250165 0.06545683 255 12 12
1.99933172 -0.13956914 0.03936860 255 12 12
1.97094658 -0.13672763 0.01453751 255 12 12
0.51620765 -0.09890692 0.02087772 255 12 12
0.49804336 -0.09731391 0.00766095 255 12 12
1.81769052 -0.12115587 -0.12225762 255 12 12
1.79710793 -0.11878820 -0.14390781 255 12 12
1.77335336 -0.11644871 -0.16423175 255 12 12
1.75037258 -0.11416580 -0.18412637 255 12 12
1.72817088 -0.11193674 -0.20362581 255 12 12
1.70718056 -0.11001335 -0.21987801 255 12 12
1.68517561 -0.10790477 -0.23800970 255 12 12
1.66307124 -0.10587434 -0.25518327 255 12 12
1.64293167 -0.10386248 -0.27275107 255 12 12
1.62241204 -0.10168048 -0.29221841 255 12 12
1.60474992 -0.09971972 -0.30995496 255 12 12
1.58714993 -0.09778818 -0.32736416 255 12 12
1.56840058 -0.09587767 -0.34416447 255 12 12
1.55105182 -0.09404434 -0.36048724 255 12 12
1.53367376 -0.09219863 -0.37694778 255 12 12
1.51649376 -0.09041945 -0.39268098 255 12 12
1.49928332 -0.08862740 -0.40855723 255 12 12
1.48322939 -0.08682382 -0.42493207 255 12 12
1.46690305 -0.08508234 -0.44048506 255 12 12
1.44947761 -0.08336602 -0.45539571 255 12 12
1.43309855 -0.08167290 -0.47035847 255 12 12
1.41728586 -0.08000093 -0.48524746 255 12 12
1.40320768 -0.07834219 -0.50052198 255 12 12
1.38687687 -0.07671453 -0.51472327 255 12 12
1.37088220 -0.07510691 -0.52879194 255 12 12
1.35637736 -0.07350817 -0.54322127 255 12 12
1.34127382 -0.07193289 -0.55718503 255 12 12
1.32604060 -0.07037791 -0.57086734 255 12 12
1.31113714 -0.06883793 -0.58447489 255 12 12
1.29701254 -0.06730550 -0.59823658 255 12 12
1.28230671 -0.06579736 -0.61152818 255 12 12
1.26658500 -0.06432245 -0.62410789 255 12 12
-0.01142540 -0.08432727 0.01295012 255 12 12
-0.01156119 -0.08426325 0.01223304 255 12 12
-0.01216665 -0.08420420 0.01172187 255 12 12
-0.01276813 -0.08414727 0.01123466 255 12 12
-0.01359212 -0.08409568 0.01088043 255 12 12
-0.01725819 -0.08406794 0.01169801 255 12 12
-0.01784425 -0.08401856 0.01129543 255 12 12
-0.02326084 -0.08400161 0.01278862 255 12 12
-0.02597804 -0.08397941 0.01337509 255 12 12
-0.02692640 -0.08395641 0.01339890 255 12 12
-0.03013508 -0.08397617 0.01463694 255 12 12
-0.03287386 -0.08399309 0.01569426 255 12 12
-0.03321440 -0.08395307 0.01532604 255 12 12
-0.03392100 -0.08393282 0.01530684 255 12 12
-0.03444490 -0.08390377 0.01512607 255 12 12
-0.03350075 -0.08374057 0.01289469 255 12 12
-0.03385896 -0.08370210 0.01255033 255 12 12
-0.03531104 -0.08366521 0.01256686 255 12 12
-0.03502691 -0.08358122 0.01148158 255 12 12
-0.03475641 -0.08349655 0.01039262 255 12 12
-0.03500095 -0.08344498 0.00985723 255 12 12
-0.03559038 -0.08341562 0.00969334 255 12 12
-0.03522300 -0.08331506 0.00838545 255 12 12
-0.03534555 -0.08325013 0.00765353 255 12 12
-0.03726232 -0.08326198 0.00839368 255 12 12
-0.04512559 -0.08372035 0.01629081 255 12 12
-0.04586777 -0.08373521 0.01669928 255 12 12
-0.04783888 -0.08382718 0.01840682 255 12 12
-0.04876490 -0.08375682 0.01786183 255 12 12
-0.04883648 -0.08370345 0.01725103 255 12 12
-0.04933898 -0.08369128 0.01726387 255 12 12
-0.04933965 -0.08354944 0.01558138 255 12 12
-0.04819928 -0.08322901 0.01142341 255 12 12
-0.04828964 -0.08315371 0.01055833 255 12 12
-0.04849108 -0.08309483 0.00992285 255 12 12
-0.04861733 -0.08301828 0.00905414 255 12 12
-0.04891541 -0.08297721 0.00866017 255 12 12
-0.04922284 -0.08282326 0.00693006 255 12 12
-0.04949695 -0.08276251 0.00629511 255 12 12
-0.04973175 -0.08268219 0.00541571 255 12 12
-0.05012766 -0.08263800 0.00501531 255 12 12
-0.05083231 -0.08266618 0.00556994 255 12 12
-0.05160632 -0.08271326 0.00637062 255 12 12
-0.05197578 -0.08251888 0.00418016 255 12 12
-0.05245715 -0.08249494 0.00404678 255 12 12
-0.05412823 -0.08250218 0.00465526 255 12 12
-0.05471186 -0.08251878 0.00503482 255 12 12
-0.05518257 -0.08249794 0.00493482 255 12 12
-0.05576106 -0.08251581 0.00532772 255 12 12
-0.05622811 -0.08249615 0.00524053 255 12 12
-0.05657022 -0.08241813 0.00442207 255 12 12
-0.05708736 -0.08241874 0.00459102 255 12 12
-0.05752748 -0.08238037 0.00427352 255 12 12
-0.05797452 -0.08234225 0.00396103 255 12 12
-0.05848816 -0.08234450 0.00414845 255 12 12
-0.05894278 -0.08230711 0.00384700 255 12 12
-0.05944949 -0.08228952 0.00379688 255 12 12
-0.05996652 -0.08229322 0.00400242 255 12 12
-0.06046713 -0.08229797 0.00421536 255 12 12
-0.06148619 -0.08239253 0.00565598 255 12 12
-0.06196558 -0.08242042 0.00613678 255 12 12
-0.06244343 -0.08249085 0.00712169 255 12 12
-0.06333843 -0.08276075 0.01060355 255 12 12
-0.06375739 -0.08270815 0.01011053 255 12 12
-0.06489549 -0.08331260 0.01763728 255 12 12
-0.06550740 -0.08357482 0.02093948 255 12 12
-0.06572456 -0.08361338 0.02146474 255 12 12
-0.06584359 -0.08386555 0.02449360 255 12 12
-0.06602637 -0.08388424 0.02477240 255 12 12
-0.06796551 -0.08354335 0.02133489 255 12 12
-0.06903984 -0.08334205 0.01928288 255 12 12
-0.06896192 -0.08355912 0.02183372 255 12 12
-0.06928686 -0.08353633 0.02166498 255 12 12
-0.06969315 -0.08349181 0.02126388 255 12 12
-0.06997534 -0.08349156 0.02134919 255 12 12
-0.07009147 -0.08353562 0.02190821 255 12 12
-0.07035372 -0.08353599 0.02199462 255 12 12
-0.07077952 -0.08349269 0.02161415 255 12 12
-0.07096598 -0.08351568 0.02194513 255 12 12
-0.07257964 -0.08339119 0.02097305 255 12 12
-0.07998737 -0.08230615 0.01041800 255 12 12
-0.08085503 -0.08222657 0.00974526 255 12 12
-0.08176219 -0.08217216 0.00938357 255 12 12
-0.08233752 -0.08215989 0.00941796 255 12 12
-0.08303149 -0.08212669 0.00924113 255 12 12
-0.08374273 -0.08209454 0.00908229 255 12 12
-0.08380848 -0.08214525 0.00970442 255 12 12
-0.08530689 -0.08206116 0.00917549 255 12 12
-0.08558700 -0.08209433 0.00965661 255 12 12
-0.08558374 -0.08224672 0.01146345 255 12 12
-0.08597382 -0.08225979 0.01174043 255 12 12
-0.08607208 -0.08231520 0.01242859 255 12 12
-0.08600566 -0.08239145 0.01331232 255 12 12
-0.08622761 -0.08242644 0.01379686 255 12 12
-0.08721247 -0.08235893 0.01330400 255 12 12
-0.08790458 -0.08233382 0.01322256 255 12 12
-0.08857776 -0.08230852 0.01313302 255 12 12
-0.08927298 -0.08228482 0.01306936 255 12 12
-0.08997358 -0.08226204 0.01301824 255 12 12
-0.09118190 -0.08218028 0.01242628 255 12 12
-0.09176323 -0.08218131 0.01262032 255 12 12
-0.09197480 -0.08222129 0.01316076 255 12 12
-0.09270088 -0.08220275 0.01316784 255 12 12
-0.09325454 -0.08220469 0.01336412 255 12 12
-0.09299658 -0.08227909 0.01416597 255 12 12
-0.09297644 -0.08233820 0.01486089 255 12 12
-0.09349142 -0.08233986 0.01504170 255 12 12
-0.09310214 -0.08250115 0.01683339 255 12 12
-0.09241550 -0.08267701 0.01870483 255 12 12
-0.09163613 -0.08284904 0.02050192 255 12 12
-0.09171802 -0.08288932 0.02100533 255 12 12
-0.09198434 -0.08291122 0.02134854 255 12 12
-0.09172453 -0.08302928 0.02266780 255 12 12
-0.09157377 -0.08308766 0.02331326 255 12 12
-0.09732069 -0.08275132 0.02112067 255 12 12
-0.09801925 -0.08274663 0.02128349 255 12 12
-0.09850046 -0.08275903 0.02158113 255 12 12
-0.09919968 -0.08275645 0.02176919 255 12 12
-0.10217689 -0.08273628 0.02246116 255 12 12
-0.10243636 -0.08277070 0.02295067 255 12 12
-0.10290726 -0.08278948 0.02332074 255 12 12
-0.10270172 -0.08285441 0.02402672 255 12 12
-0.10225076 -0.08303307 0.02600518 255 12 12
-0.09752600 -0.08345770 0.02956478 255 12 12
-0.09722663 -0.08351619 0.03016507 255 12 12
-0.11131841 -0.08297091 0.02810394 255 12 12
-0.11222373 -0.08297970 0.02849136 255 12 12
-0.11311889 -0.08298817 0.02887190 255 12 12
-0.11104420 -0.08319948 0.03072971 255 12 12
-0.09806675 -0.08394114 0.03546902 255 12 12
-0.09677723 -0.08407093 0.03660549 255 12 12
-0.10257065 -0.08402867 0.03791620 255 12 12
-0.10238495 -0.08407587 0.03841805 255 12 12
-0.10268950 -0.08410506 0.03885959 255 12 12
-0.10552788 -0.08409383 0.03961411 255 12 12
-0.39991375 -0.07490613 0.02269698 255 12 12
-0.39890247 -0.07528528 0.02687866 255 12 12
-0.39934097 -0.07562694 0.03106899 255 12 12
-0.40122339 -0.07592048 0.03514010 255 12 12
-0.40355580 -0.07620538 0.03924935 255 12 12
-0.40758713 -0.07645024 0.04341513 255 12 12
-0.41156775 -0.07669670 0.04758401 255 12 12
-0.41399598 -0.07699705 0.05190663 255 12 12
-0.41612357 -0.07730151 0.05618390 255 12 12
-0.41869323 -0.07760887 0.06063400 255 12 12
-0.42093928 -0.07795352 0.06542509 255 12 12
-0.42138962 -0.07832321 0.06995168 255 12 12
-0.42228859 -0.07867773 0.07443859 255 12 12
-0.42386752 -0.07903100 0.07912332 255 12 12
-0.42592504 -0.07934682 0.08351359 255 12 12
-0.42987729 -0.07966274 0.08849761 255 12 12
-0.43426995 -0.07997286 0.09355050 255 12 12
-0.43709462 -0.08032377 0.09859695 255 12 12
-0.43952184 -0.08073136 0.10419146 255 12 12
-0.44292184 -0.08109952 0.10962239 255 12 12
-0.44648959 -0.08147508 0.11519365 255 12 12
-0.44899597 -0.08187040 0.12066737 255 12 12
-0.68193856 -0.08578360 0.23995043 255 12 12
-0.66501149 -0.08646176 0.24270106 255 12 12
-0.65638251 -0.08712936 0.24792193 255 12 12
-0.65359882 -0.08780551 0.25507252 255 12 12
-0.65400791 -0.08849733 0.26340766 255 12 12
-0.65733149 -0.08921458 0.27295612 255 12 12
-1.71272676 -0.09973228 0.72783688 255 12 12
-1.68817973 -0.10153790 0.74157937 255 12 12
-1.66145665 -0.10323604 0.75336632 255 12 12
-1.63446215 -0.10488635 0.76450094 255 12 12
-1.61059801 -0.10653388 0.77658155 255 12 12
-1.58512383 -0.10816312 0.78794178 255 12 12
-1.56539347 -0.10980006 0.80118976 255 12 12
-1.56242170 -0.11170272 0.82283194 255 12 12
-1.56707466 -0.11376587 0.84876281 255 12 12
-1.57021094 -0.11588208 0.87484870 255 12 12
-1.54838088 -0.11745292 0.88665589 255 12 12
-1.50576857 -0.11851700 0.88595098 255 12 12
-1.47282728 -0.11972654 0.88999654 255 12 12
-1.32139433 -0.12333197 0.88540316 255 12 12
-1.29057511 -0.12425342 0.88669479 255 12 12
-1.25889388 -0.12508418 0.88664105 255 12 12
-1.22942461 -0.12592571 0.88740683 255 12 12
-1.20031845 -0.12672033 0.88772969 255 12 12
-1.17194579 -0.12752290 0.88837631 255 12 12
-1.14514870 -0.12828862 0.88907851 255 12 12
-1.11791743 -0.12898188 0.88878540 255 12 12
-1.09085736 -0.12962538 0.88795550 255 12 12
-1.06584861 -0.13034213 0.88863617 255 12 12
-1.04121602 -0.13098524 0.88856088 255 12 12
-1.01655006 -0.13157535 0.88784645 255 12 12
-0.99334447 -0.13218608 0.88783342 255 12 12
-0.96932167 -0.13274471 0.88694668 255 12 12
-0.94768621 -0.13334086 0.88725178 255 12 12
-0.92885915 -0.13405003 0.88977600 255 12 12
-0.90780969 -0.13459601 0.88966918 255 12 12
-0.88729889 -0.13509150 0.88913196 255 12 12
-0.86703647 -0.13559838 0.88880750 255 12 12
-0.84747697 -0.13606876 0.88826985 255 12 12
-0.82882179 -0.13659735 0.88870567 255 12 12
-0.80908572 -0.13713065 0.88885924 255 12 12
-0.79042721 -0.13761915 0.88881836 255 12 12
-0.77243910 -0.13807804 0.88863584 255 12 12
-0.75417632 -0.13851742 0.88813605 255 12 12
-0.73696608 -0.13892048 0.88753465 255 12 12
-0.72025287 -0.13936754 0.88761069 255 12 12
-0.70394110 -0.13981391 0.88780401 255 12 12
-0.68698129 -0.14016994 0.88672292 255 12 12
-0.67087449 -0.14056470 0.88636813 255 12 12
-0.65487035 -0.14093434 0.88574752 255 12 12
-0.63855013 -0.14123802 0.88424550 255 12 12
-0.62318643 -0.14159871 0.88371885 255 12 12
-0.60864331 -0.14205286 0.88455776 255 12 12
-0.59386421 -0.14241051 0.88417796 255 12 12
-0.57904587 -0.14273155 0.88335167 255 12 12
-0.56445562 -0.14304485 0.88250490 255 12 12
-0.55046504 -0.14339578 0.88229203 255 12 12
-0.53618699 -0.14368121 0.88121227 255 12 12
-0.52260863 -0.14402171 0.88100464 255 12 12
-0.51004459 -0.14446670 0.88235384 255 12 12
-0.49682852 -0.14484881 0.88275318 255 12 12
-0.48367833 -0.14516532 0.88239488 255 12 12
-0.47114704 -0.14554371 0.88296417 255 12 12
-0.45866471 -0.14590567 0.88335392 255 12 12
-0.44590078 -0.14624962 0.88344196 255 12 12
-0.43402971 -0.14666134 0.88461322 255 12 12
-0.42199144 -0.14702500 0.88516209 255 12 12
-0.40980518 -0.14733959 0.88508244 255 12 12
-0.39767453 -0.14763832 0.88483210 255 12 12
-0.38595886 -0.14799036 0.88534398 255 12 12
-0.37497161 -0.14846752 0.88756808 255 12 12
-0.36347670 -0.14882727 0.88824043 255 12 12
-0.35152809 -0.14906667 0.88734323 255 12 12
-0.33995715 -0.14936216 0.88722947 255 12 12
-0.32843198 -0.14964334 0.88696029 255 12 12
-0.31702651 -0.14992848 0.88677556 255 12 12
-0.30591635 -0.15033997 0.88818217 255 12 12
-0.29451449 -0.15057953 0.88745777 255 12 12
-0.28291488 -0.15073022 0.88561734 255 12 12
-0.27211431 -0.15109148 0.88652476 255 12 12
-0.26138093 -0.15145985 0.88753770 255 12 12
-0.25032969 -0.15170211 0.88695506 255 12 12
-0.19766064 -0.13976126 0.72882459 255 12 12
-0.18880168 -0.14002707 0.72920704 255 12 12
-0.18030892 -0.14035385 0.73042740 255 12 12
-0.17188225 -0.14071159 0.73203561 255 12 12
-0.16339736 -0.14104141 0.73329440 255 12 12
-0.15291422 -0.14075895 0.72666457 255 12 12
-0.14345883 -0.14049174 0.72053718 255 12 12
-0.13500997 -0.14085568 0.72221198 255 12 12
-0.12653110 -0.14121156 0.72378186 255 12 12
-0.11940759 -0.14178755 0.72838681 255 12 12
-0.11095282 -0.14204154 0.72875553 255 12 12
-0.10229796 -0.14172509 0.72229435 255 12 12
-0.09404890 -0.14218683 0.72519185 255 12 12
-0.08566033 -0.14293814 0.73148098 255 12 12
-0.07710548 -0.14284497 0.72769990 255 12 12
-0.06864268 -0.14269854 0.72331575 255 12 12
-0.06026580 -0.14300312 0.72430901 255 12 12
-0.05156878 -0.14385308 0.73167189 255 12 12
-0.04294134 -0.14450336 0.73668788 255 12 12
-0.03471562 -0.14406398 0.72890253 255 12 12
-0.02657081 -0.14378216 0.72301174 255 12 12
-0.01795200 -0.14404849 0.72347541 255 12 12
-0.00942315 -0.14438826 0.72483858 255 12 12
-0.00017401 -0.14536530 0.73353641 255 12 12
0.00904075 -0.14612202 0.73963133 255 12 12
0.01670567 -0.14544927 0.72925293 255 12 12
0.02428695 -0.14499864 0.72153576 255 12 12
0.03305197 -0.14538311 0.72335518 255 12 12
0.04267201 -0.14621632 0.73023083 255 12 12
0.05191824 -0.14684465 0.73479279 255 12 12
0.05985536 -0.14666061 0.73012682 255 12 12
0.06811803 -0.14674868 0.72858722 255 12 12
0.07709757 -0.14707034 0.72959452 255 12 12
