ply
format ascii 1.0
element vertex 1062
property float x
property float y
property float z
property uchar red
property uchar green
property uchar blue
end_header
-0.74775612 0.61221379 1.98213995 106 111 113
-0.72254550 0.59067094 1.92857242 73 78 83
-0.72604361 0.59825578 1.94238353 76 81 87
-0.73466015 0.60257590 1.95640188 81 84 89
-0.72808146 0.61035740 1.97061586 86 90 98
-0.72891328 0.61563975 1.98213995 93 97 105
-0.72113955 0.63304561 1.99379957 101 104 105
-0.70451826 0.57830656 1.89355266 76 83 89
-0.70804749 0.58429571 1.90597852 76 81 86
-0.70924717 0.59401870 1.92860365 76 81 89
-0.71261460 0.59657717 1.94238353 82 87 94
-0.71133991 0.60793471 1.95734290 96 97 103
-0.71824819 0.61726087 1.97636104 107 108 110
-0.71483225 0.62067682 1.97636104 97 98 98
-0.71902478 0.63118920 1.98795259 103 105 107
-0.69276461 0.57995939 1.88827813 75 81 87
-0.68107629 0.58160311 1.88303292 94 99 106
-0.69066888 0.59309518 1.90955448 101 105 112
-0.69790125 0.59313631 1.92037344 88 93 100
-0.68550581 0.61887252 1.97061586 126 127 128
-0.68111122 0.62648088 1.96775985 123 123 123
-0.69337471 0.62836909 1.98992451 118 118 120
-0.69216025 0.64182562 1.99968100 108 108 110
-0.67731339 0.57515311 1.87262940 82 87 94
-0.67208046 0.60658947 1.93683386 132 133 134
-0.67815703 0.61868161 1.95922494 128 129 129
-0.64223766 0.56424236 1.83710527 82 84 93
-0.64686373 0.57079500 1.85217457 94 95 103
-0.64962536 0.57679647 1.86747062 116 117 121
-0.64818323 0.58162647 1.87262940 137 137 138
-0.65431935 0.58730420 1.88565552 132 132 132
-0.62239343 0.53362161 1.79812157 103 105 108
-0.62644303 0.53887454 1.80530775 100 102 104
-0.62467827 0.54876770 1.81013865 104 104 108
-0.63519453 0.55688202 1.82598042 84 83 92
-0.62278545 0.56133276 1.81740439 143 144 144
-0.63173470 0.56353807 1.82967091 122 123 126
-0.63615978 0.57370245 1.84711671 143 144 144
-0.60504128 0.52587603 1.77459204 100 104 105
-0.61049149 0.53477578 1.79054056 101 105 106
-0.60287316 0.54899300 1.78746857 138 141 141
-0.61550838 0.54825324 1.80450646 120 121 122
-0.58436370 0.51765314 1.74940121 100 102 105
-0.58663356 0.52421510 1.75619650 110 111 113
-0.59199046 0.52920943 1.76613561 108 111 114
-0.59897959 0.53711721 1.78392589 113 118 119
-0.58209401 0.54860270 1.75167018 160 161 158
-0.59380883 0.54705746 1.77614260 142 145 145
-0.59897959 0.54636735 1.78392589 139 140 141
-0.59589618 0.56024253 1.78392589 155 155 153
-0.56448013 0.50822151 1.70754701 112 116 117
-0.57260307 0.51539822 1.72668917 111 113 117
-0.57334578 0.52877530 1.73032633 135 139 140
-0.57909739 0.53372645 1.74265254 139 142 143
-0.57909739 0.54125655 1.74265254 157 160 158
-0.54908094 0.49695529 1.66969448 111 115 116
-0.55156876 0.51224531 1.67725962 134 139 140
-0.55316502 0.51373136 1.68211377 121 129 130
-0.52147079 0.47836176 1.60258114 110 114 115
-0.52147079 0.48113170 1.60258114 108 112 116
-0.53434658 0.48475987 1.63347435 113 117 118
-0.53867398 0.49437806 1.64670300 110 114 118
-0.53928511 0.50633386 1.64857121 138 143 142
-0.50356628 0.35616029 1.25304124 125 129 131
-0.50528319 0.36877336 1.25326596 107 109 114
-0.50902864 0.36480885 1.26349181 116 119 124
-0.50323769 0.46545404 1.55480599 106 113 115
-0.50672436 0.47136623 1.56557840 112 117 119
-0.51523155 0.47387816 1.58760351 112 118 119
-0.51901680 0.48162442 1.59503961 104 111 115
-0.48129987 0.31787950 1.20542035 130 131 131
-0.48543413 0.32724605 1.21382672 127 129 129
-0.48845860 0.33684581 1.22289658 131 133 134
-0.48970659 0.34798959 1.23021307 120 123 126
-0.49696680 0.35495706 1.24690092 109 112 117
-0.48729400 0.36844994 1.21559735 131 135 139
-0.48952741 0.36777490 1.22967660 116 119 124
-0.49695251 0.36522835 1.24942977 107 110 116
-0.46125600 0.21481985 1.11771196 135 137 140
-0.46265483 0.21297676 1.12564335 129 133 135
-0.47800187 0.31860095 1.20980187 123 123 125
-0.47581374 0.32565100 1.20837106 123 126 127
-0.47747292 0.35890366 1.22363544 121 122 123
-0.46566631 0.36554242 1.19271906 110 114 112
-0.47351579 0.36529013 1.21426450 111 115 116
-0.47603810 0.36290301 1.22430973 117 121 122
-0.44778955 0.21115162 1.11405901 130 132 133
-0.44729452 0.21522573 1.12370191 118 121 123
-0.44405456 0.22302045 1.12607031 128 130 132
-0.45427600 0.36037368 1.16676736 114 115 117
-0.45981595 0.36272722 1.18099630 109 110 110
-0.42333152 0.11733612 1.51880348 133 133 133
-0.42577780 0.12868211 1.51504215 146 145 143
-0.43035359 0.13165447 1.52507186 149 148 146
-0.42380706 0.14855445 1.51582092 158 157 154
-0.42966569 0.15566867 1.52838491 156 156 151
-0.43741319 0.15630767 1.54066324 164 163 155
-0.42233390 0.16208613 1.51993692 157 153 151
-0.42923814 0.16507986 1.52736046 131 129 129
-0.42841690 0.21548266 1.11521019 112 114 117
-0.43729140 0.21413517 1.12207333 114 118 120
-0.42694244 0.22480912 1.10909484 114 116 119
-0.43493928 0.22217017 1.12207333 123 124 126
-0.40283343 -0.24209426 0.77362955 112 133 149
-0.40163266 -0.23703939 0.77536700 111 131 150
-0.40851185 0.11529844 1.49909859 170 168 165
-0.41551636 0.11625283 1.50475621 142 141 141
-0.41124140 0.12657490 1.49865715 141 140 139
-0.41633422 0.12798763 1.50643173 141 139 137
-0.41283938 0.14178905 1.49976075 175 174 165
-0.41637854 0.15003938 1.50917816 149 149 145
-0.41745725 0.16172352 1.51653659 164 161 155
-0.41662244 0.21745805 1.11267719 125 126 128
-0.41397651 0.22465919 1.09735826 123 125 127
-0.41605732 0.22417920 1.10777954 117 118 123
-0.41580753 0.22162218 1.12280817 125 126 131
-0.38682855 -0.61077179 1.41070451 120 132 138
-0.39365846 -0.61483037 1.42115688 123 133 139
-0.38229937 -0.59910661 1.40350282 120 133 138
-0.39095762 -0.24246603 0.77124393 113 133 148
-0.39122829 -0.23631166 0.77259900 110 132 149
-0.36787145 -0.60916311 1.39467988 118 132 141
-0.37673471 -0.60892264 1.40139381 118 131 140
-0.36791444 -0.59666980 1.39341103 118 132 138
-0.37918583 -0.24057542 0.76771444 115 133 148
-0.37956282 -0.23685901 0.76713548 112 134 146
-0.36448771 0.16699718 0.73924953 75 74 83
-0.36398039 0.17007854 0.75148456 98 97 100
-0.36367827 0.17497859 0.76225021 113 114 114
-0.36025420 0.18087240 0.75996846 121 122 128
-0.36678734 0.18280894 0.76813401 95 96 103
-0.36035272 0.28788305 1.31459745 91 93 105
-0.36570628 0.29108485 1.32574840 92 95 106
-0.35782664 -0.60867174 1.39299961 119 131 142
-0.35776538 -0.59583727 1.39075424 119 132 139
-0.34334809 0.16715127 0.73690585 121 120 119
-0.35330236 0.16880117 0.74763882 129 128 126
-0.35235720 0.27877381 1.30741072 90 92 97
-0.34928888 0.28798633 1.31193841 115 116 120
-0.34226037 0.30352288 1.30565729 88 95 101
-0.32343714 0.05863031 0.60901374 136 137 138
-0.32421767 0.06860024 0.61223266 156 157 154
-0.33943483 0.16917004 0.73206460 134 135 135
-0.32983094 0.29877442 1.25535524 123 124 126
-0.32695371 0.29873142 1.26592177 126 128 134
-0.33408407 0.29678636 1.29125062 93 97 105
-0.33812418 0.28720237 1.30552684 129 129 131
-0.32699019 0.30444353 1.25377166 115 115 122
-0.32885879 0.30561277 1.26364746 119 120 126
-0.33566878 0.30246416 1.28958913 105 110 119
-0.32595617 0.33892658 0.97644208 102 105 110
-0.32793018 0.33828146 0.98636084 105 106 111
-0.32564639 0.35142072 0.97247782 123 124 124
-0.32300919 0.35290076 0.98451131 120 122 124
-0.32307031 0.36141663 0.98892489 131 133 135
-0.30592678 0.03548810 0.49413698 125 126 125
-0.30519609 0.04214457 0.49405032 118 120 122
-0.31778139 0.06756605 0.61152720 147 147 145
-0.30519919 0.25844509 0.74994520 107 109 109
-0.30218829 0.26317883 0.73844470 126 126 124
-0.30561202 0.26312598 0.74748615 119 121 120
-0.31463286 0.26260653 0.76082134 114 115 116
-0.31093968 0.29632298 1.23164647 120 121 126
-0.31724025 0.29586864 1.24920158 140 141 143
-0.31350805 0.30376028 1.23590639 103 104 112
-0.31630315 0.30542882 1.24269915 105 107 114
-0.31922165 0.35217926 0.98103017 127 128 129
-0.29475371 -0.12886551 0.57420119 101 124 142
-0.28802321 0.25629113 0.73601699 109 113 114
-0.29259604 0.25608331 0.74259293 108 111 111
-0.28999522 0.26225146 0.73730397 110 112 114
-0.28848070 0.26456536 0.74246209 118 119 122
-0.26317659 -0.14847022 0.76787801 94 111 134
-0.26494256 -0.13876031 0.76631320 97 111 135
-0.26047704 0.11053573 1.53369200 134 134 142
-0.27857581 0.25871181 0.73844427 112 115 121
-0.27979496 0.26112598 0.74167597 125 129 132
-0.25707641 -0.14776683 0.76839787 95 111 133
-0.25680897 -0.13934986 0.76563367 92 113 134
-0.24149069 0.08870449 1.49128069 130 130 135
-0.24488719 0.09793807 1.50308609 88 89 97
-0.24175319 0.10031360 1.49976075 115 115 121
-0.24470264 0.10644730 1.51317253 133 133 140
-0.25133736 0.10977737 1.52647579 125 125 132
-0.23563301 0.07662712 1.48890455 117 117 125
-0.23189738 0.07715438 1.50308609 158 159 163
-0.23261657 0.09110790 1.49289965 131 131 135
-0.22845820 0.10189042 1.49755518 124 124 128
-0.23599644 0.10740545 1.50936005 130 130 136
-0.20796998 -0.10049669 0.52713209 99 119 139
-0.20563546 -0.09045705 0.52787307 97 116 139
-0.20259044 0.19382889 0.89668490 118 121 123
-0.20565395 0.19667979 0.90097371 121 123 125
-0.21263415 0.21755447 0.49432379 124 125 123
-0.20664868 0.21964552 0.50289708 126 129 128
-0.21239618 0.22194597 0.49695319 130 131 127
-0.20780055 0.22337110 0.50416933 131 133 133
-0.18140616 0.17733668 0.91855264 108 108 117
-0.18335350 0.17442198 0.92781650 115 116 123
-0.19175630 0.17857230 0.94611979 126 127 134
-0.18285308 0.19178831 0.87768840 124 125 132
-0.19100823 0.19145852 0.88794824 125 126 130
-0.19339104 0.18175929 0.95212148 123 124 132
-0.18986627 0.20409829 0.89273102 133 136 137
-0.19476335 0.20860488 0.90369444 133 137 138
-0.16156997 0.09354292 0.59917643 135 137 139
-0.16400498 0.09715328 0.60177065 121 124 130
-0.16278227 0.10144002 0.60141473 127 129 133
-0.17426176 0.15907878 0.91855264 117 116 123
-0.17374275 0.15921745 0.92864683 114 114 121
-0.16100675 0.17149939 0.49638811 105 106 115
-0.16851447 0.17089997 0.91224353 134 134 138
-0.17208637 0.16552345 0.92500308 127 128 133
-0.15526270 0.09507121 0.59773874 122 125 129
-0.15685936 0.09914435 0.60096817 117 122 125
-0.15394693 0.10196481 0.59953338 109 108 111
-0.15672850 0.10169481 0.60094032 117 117 118
-0.14182889 0.14825007 0.49955183 130 131 133
-0.14790047 0.15443516 0.50328575 125 128 130
-0.15386075 0.17281631 0.49602837 130 133 137
-0.15145132 0.16497047 0.50304465 122 126 128
-0.14807695 0.16890773 0.89698003 120 120 127
-0.15499571 0.17172628 0.91009344 125 126 131
-0.15982886 0.17168401 0.92230183 152 153 153
-0.12266574 0.15118662 0.85531889 133 134 143
-0.12684001 0.14987876 0.86951747 108 109 119
-0.13363044 0.15104469 0.88095143 112 112 118
-0.10082296 0.11299971 0.49557685 126 127 131
-0.11158929 0.15346413 0.83567165 193 192 188
-0.10881020 0.15107146 0.84925706 188 187 186
-0.11696418 0.14787634 0.86366992 119 119 133
-0.09074278 0.09871950 0.48942694 133 135 138
-0.09381145 0.10727113 0.49267730 131 132 133
-0.09843574 0.14868145 0.84420168 196 195 189
-0.02001863 0.12310718 0.47738886 200 199 191
-0.03167225 0.22972848 0.59727025 164 160 157
-0.03322927 0.23526418 0.60291125 162 159 156
-0.02655629 0.24812246 0.60567846 153 151 147
-0.02625929 0.31610932 0.80552550 145 142 139
-0.02525293 0.32182803 0.80936512 152 152 148
-0.01014216 0.12899301 0.47346231 177 174 170
-0.00330599 0.12697135 0.48131197 178 176 172
-0.00292699 0.17679648 0.59305657 150 149 145
-0.00732342 0.17747186 0.60191762 170 168 162
-0.00422175 0.18080541 0.59249301 163 159 152
-0.00806338 0.18200894 0.60105711 175 173 167
-0.01845052 0.24863426 0.60615937 166 166 163
-0.00972896 0.31572592 0.79733369 159 157 155
-0.01475153 0.31730982 0.80658758 164 161 158
-0.00883818 0.32715641 0.79669451 171 171 164
-0.01574705 0.32712204 0.80863155 171 170 166
-0.01881108 0.33079143 0.82069230 175 175 171
0.00488087 0.13483002 0.47563078 156 155 155
0.00311612 0.12961711 0.48230851 159 155 153
0.00798458 0.14106146 0.47441048 159 158 156
0.00472939 0.17335494 0.57742065 157 153 154
0.00190286 0.17564416 0.58627716 150 149 149
0.01516734 0.17799128 0.91821639 161 162 165
0.01306210 0.17784288 0.92591561 150 150 153
0.01932137 0.18230867 0.87753028 168 164 165
0.01591217 0.18516278 0.89161450 176 174 175
0.01170958 0.18621990 0.91153931 169 169 170
0.00604556 0.18617067 0.92752760 148 147 147
0.02472612 0.17941711 0.87208255 175 172 168
0.02332253 0.17918057 0.92811707 175 175 175
0.02338684 0.18314838 0.87173665 155 151 151
0.02277824 0.18193614 0.89433606 182 179 173
0.02299483 0.18206775 0.90265226 182 181 178
0.02217278 0.18026787 0.93373531 180 180 180
0.03747704 0.43163210 1.84711671 181 181 178
0.05797240 0.06382958 0.97961247 129 128 133
0.05805630 0.06561758 0.98103017 117 116 124
0.05519682 0.11245835 1.15144729 135 134 138
0.05770207 0.12113421 1.14832115 136 137 140
0.05708920 0.21410072 0.68469357 156 154 148
0.05827484 0.23082282 0.68945127 168 166 160
0.05544182 0.27328859 0.71128332 153 152 146
0.05686207 0.28194919 0.71307223 127 126 127
0.04650760 0.40997442 1.80932619 141 138 143
0.05293604 0.41015515 1.82969761 134 131 139
0.05881547 0.41444997 1.84879899 156 154 158
0.04551740 0.42646174 1.81159128 171 169 164
0.04370702 0.42863097 1.82413518 170 168 164
0.05658130 0.42964628 1.84544361 173 172 170
0.06615611 0.05592807 0.97961247 135 134 139
0.07261660 0.05589629 0.98241978 136 135 142
0.06883632 0.06815711 0.97859567 137 137 141
0.07486325 0.06686347 0.98397355 128 128 133
0.07646290 0.08061605 0.97784957 135 134 143
0.07856391 0.11682546 0.49240018 127 128 132
0.07760754 0.11706912 1.11587312 122 122 125
0.06868336 0.11359121 1.13153631 129 129 133
0.06203636 0.11133859 1.14634486 140 140 142
0.07654365 0.12555505 0.48669820 150 151 150
0.07767214 0.12102487 1.11679053 116 115 124
0.07146676 0.12354947 1.12701267 126 126 131
0.07670093 0.21437913 0.67815089 169 169 169
0.06955944 0.21353468 0.68489269 139 139 141
0.07585030 0.22721270 0.67890605 154 154 155
0.06726594 0.22662953 0.68604972 140 139 139
0.06176133 0.25690687 0.69069098 135 131 127
0.06169445 0.26191527 0.69799919 139 136 130
0.06195099 0.27194493 0.70490683 132 132 128
0.06200182 0.28228042 0.71100565 104 105 108
0.07771026 0.39327659 1.81740439 160 156 151
0.07181285 0.39697576 1.82720172 169 165 159
0.07601439 0.40228249 1.83338809 154 145 146
0.07161740 0.41316589 1.85091561 165 163 164
0.06637503 0.41337620 1.86453896 153 150 154
0.07152476 0.43006118 1.85506713 171 169 167
0.07061918 0.43354018 1.86711227 170 168 166
0.07177750 0.44170243 1.87339492 136 132 136
0.07274200 0.44954132 1.89224875 129 127 137
0.08306790 0.05624069 0.98603336 138 138 145
0.08167693 0.07568184 0.97961247 106 105 112
0.08277255 0.06906703 0.98559954 121 120 125
0.08059740 0.08052865 0.97678941 140 140 146
0.08167033 0.11723029 0.49469142 126 127 130
0.08636907 0.11764419 1.11020250 137 135 139
0.08145437 0.12162750 0.49501125 124 124 129
0.08781330 0.12405037 1.11454275 130 130 136
0.08761217 0.12858423 1.12349723 145 145 148
0.09917881 0.16550532 0.57388667 119 120 122
0.09838446 0.17836460 0.77283306 171 167 162
0.09667507 0.17178644 0.82459496 171 170 169
0.09615997 0.18751714 0.77373148 170 169 168
0.09824424 0.19746282 0.78143385 173 173 173
0.09481675 0.18078431 0.82555395 174 175 174
0.08250281 0.21333098 0.67385525 168 165 162
0.08256578 0.20854673 0.68401972 179 179 175
0.09592996 0.20441346 0.79024314 168 168 166
0.09423212 0.21391788 0.80650992 153 151 149
0.08264595 0.22500503 0.67271272 150 150 150
0.08086336 0.22433463 0.68061429 131 132 136
0.09242529 0.39376575 1.79812157 154 150 153
0.08563138 0.39495994 1.81074220 146 139 140
0.08106884 0.39905831 1.82228994 133 123 126
0.09115857 0.40460017 1.81416484 141 139 140
0.08638502 0.40825288 1.82820274 147 145 146
0.08354199 0.41135569 1.84209740 152 148 150
0.08150706 0.42971572 1.83214009 141 140 140
0.10394161 0.15866835 0.81871099 144 143 144
0.10176144 0.15986218 0.82069230 148 147 149
0.10728925 0.16477335 0.57699799 143 142 142
0.10507156 0.16167046 0.58166181 151 150 151
0.10010344 0.17869002 0.76468366 152 149 149
0.10367211 0.17096413 0.81828338 167 165 162
0.10629073 0.17000433 0.82526587 160 158 157
0.10850270 0.19058178 0.77352119 153 151 149
0.10346761 0.19914268 0.78008264 160 151 151
0.10844908 0.20314200 0.77665191 130 130 132
0.10355805 0.20687327 0.78843544 134 133 135
0.10199042 0.21625495 0.80729203 133 131 132
0.10141286 0.22097367 0.80942398 160 160 152
0.11908222 0.31973419 1.73373878 172 171 172
0.11938756 0.32355833 1.73818421 164 164 164
0.11969447 0.32740214 1.74265254 158 157 161
0.11851036 0.33100154 1.76995254 156 155 159
0.11944596 0.32898965 1.78392589 171 171 171
0.13713430 0.03497919 0.65160911 132 131 137
0.13745073 0.04244120 0.64849407 138 138 144
0.13372802 0.19068841 0.53530362 127 128 131
0.12978058 0.19537223 0.55338254 136 133 131
0.12844194 0.20043242 0.55564904 160 160 156
0.13052798 0.27518584 1.79495867 143 143 148
0.13006519 0.27951461 1.80290389 133 133 140
0.13270823 0.28163252 1.79653593 144 143 150
0.13041342 0.29120921 1.80773094 165 164 167
0.12084261 0.31649637 1.71618187 174 174 174
0.13450885 0.31428741 1.77924371 188 184 181
0.13168222 0.30976008 1.78864352 178 176 175
0.13076073 0.30293918 1.81254506 186 185 184
0.13181809 0.30223066 1.82720172 189 187 185
0.12053745 0.33049110 1.71184814 183 178 178
0.12138052 0.32535675 1.72382113 166 165 167
0.12000296 0.33126575 1.74714386 149 148 154
0.13143358 0.33581436 1.77924371 174 173 172
0.13448628 0.32963446 1.79067029 177 175 175
0.13023861 0.32825029 1.80530775 169 169 171
0.12964524 0.34283165 1.77576861 180 176 175
0.13418606 0.34480159 1.78864113 179 176 175
0.13318136 0.35430276 1.80290389 166 166 166
0.15737144 -0.68680570 1.59068890 112 119 125
0.15854744 -0.69747430 1.60258114 114 121 125
0.14952762 -0.67021802 1.57466461 114 120 127
0.15615670 -0.66930775 1.58158875 114 120 127
0.15062115 -0.65507567 1.57284053 114 116 127
0.15462300 -0.65596928 1.58016741 114 117 125
0.14258899 0.03491019 0.65335873 141 139 141
0.14588230 0.04475170 0.65029899 139 139 142
0.15775031 0.08289852 0.58705935 129 128 134
0.15946551 0.17598654 0.68473923 165 165 165
0.15361665 0.31244233 1.75165856 151 147 146
0.15393048 0.31057653 1.76688504 153 149 149
0.14856888 0.31327508 1.78811538 167 163 162
0.15401462 0.32084039 1.75619650 142 138 137
0.15431465 0.32924328 1.77420592 148 144 144
0.14868226 0.33112783 1.79134655 167 165 163
0.14252988 0.32781528 1.80290389 169 169 169
0.14797857 0.34347508 1.79337299 171 169 167
0.15759872 0.35040082 1.81497473 164 162 159
0.17847806 -0.70108432 1.59503961 114 118 122
0.17050567 -0.70273923 1.60829204 115 120 124
0.17871197 -0.68045032 1.57283485 115 118 124
0.17019079 -0.68750295 1.58882758 114 119 126
0.16731889 -0.69608933 1.60258114 115 119 125
0.17572188 -0.66476601 1.55837202 113 121 123
0.17089263 -0.67076914 1.56981774 114 120 124
0.16795586 -0.67716515 1.58423210 113 120 125
0.17417515 -0.65862128 1.55658489 113 119 123
0.16755828 -0.65587435 1.57043008 113 118 125
0.16110958 -0.65631068 1.58016741 111 115 123
0.16636943 0.07816210 0.59056316 115 116 123
0.17581551 0.09945920 0.57717746 156 155 155
0.16796829 0.08871254 0.59072297 141 139 143
0.17383981 0.10075660 0.57889998 155 154 155
0.17100533 0.10067561 0.58592577 161 158 158
0.17882388 0.16626882 0.65799093 160 161 157
0.17560395 0.17122358 0.67580235 155 152 152
0.16742053 0.16874203 0.68863350 161 159 159
0.16314247 0.16901752 0.70110665 146 143 144
0.17582727 0.23732765 0.65306354 161 161 162
0.17656254 0.23368276 0.66157403 170 167 163
0.17311419 0.24440884 0.65791777 150 150 150
0.16899382 0.25155221 0.66408545 133 131 132
0.16689194 0.26735225 0.67240113 149 145 140
0.16337445 0.26813012 0.68129832 178 178 167
0.17178340 0.31244834 1.75167018 148 145 143
0.16658490 0.31366169 1.76935408 157 155 156
0.16789582 0.32266746 1.77459204 141 137 137
0.16745908 0.33251233 1.79179987 150 144 145
0.17608062 0.33724385 1.80610903 159 150 151
0.16856903 0.34093133 1.79812157 172 165 164
0.17194282 0.34613795 1.81316216 168 164 162
0.16966018 0.35397601 1.82650764 167 164 160
0.17428361 0.35775976 1.84209740 164 162 159
0.16837330 0.36299139 1.84711671 162 155 150
0.18080953 -0.69668812 1.59129536 117 123 127
0.18057398 0.16687700 0.65814739 148 147 147
0.18549583 0.17443231 0.66932296 170 169 169
0.18544149 0.18123661 0.67586843 161 160 160
0.18491615 0.23357888 0.65358340 157 156 152
0.18185355 0.23071788 0.66251555 158 153 148
0.19436857 0.25025446 0.63699788 123 124 126
0.19172323 0.24872514 0.64902291 140 140 139
0.18114367 0.35660619 1.84711671 171 171 165
0.21906010 0.13858843 0.86965853 144 140 146
0.21882316 0.14241418 0.87470061 147 144 146
0.21665655 0.17182044 0.51287187 153 152 150
0.21367704 0.17855103 0.52055451 122 122 126
0.21763945 0.16354563 0.67976132 165 166 165
0.21661487 0.16429113 0.68432885 147 148 151
0.21655962 0.18284093 0.51753860 149 150 146
0.21359847 0.18339228 0.52476072 150 149 143
0.21513052 0.43071833 1.19980860 142 141 141
0.21344859 0.43486109 1.20892530 136 136 136
0.21438927 0.44707235 1.21323660 106 108 113
0.21183201 0.45069084 1.22883548 113 114 119
0.21181073 0.45444158 1.25381116 127 127 129
0.20674438 0.45851970 1.26709938 127 122 123
0.21097073 0.46500108 1.23205249 124 126 129
0.21117225 0.46910221 1.25371490 113 113 117
0.20775260 0.46787121 1.26674329 119 117 117
0.20335681 0.46750257 1.28603052 140 136 132
0.23711521 0.11442006 0.45775494 169 168 161
0.23668820 0.11165589 0.46870012 165 164 160
0.22268314 0.13924968 0.86910987 142 139 143
0.22711180 0.14314014 0.87583364 152 152 152
0.23255477 0.15078512 0.88925839 173 171 171
0.23611627 0.15749900 0.90292435 167 167 167
0.23006437 0.16985095 0.67913441 167 163 159
0.22906721 0.16720405 0.68692706 169 167 164
0.23899876 0.16398711 0.89105543 178 178 178
0.23880699 0.16628183 0.90915222 170 170 172
0.23996978 0.16985878 0.92104870 163 163 165
0.22190955 0.18312685 0.51805129 156 156 153
0.22746597 0.45044332 1.22782442 130 130 132
0.25169737 0.11780042 0.45232121 167 166 163
0.24078345 0.10934259 0.46502671 162 162 160
0.25404454 0.12536122 0.45477058 162 161 158
0.25808708 0.13388244 0.46052456 120 112 115
0.24152329 0.15879969 0.87753028 175 175 175
0.24114297 0.15903302 0.88729450 177 177 176
0.24065848 0.15841318 0.90566754 173 173 173
0.24547441 0.16649108 0.87809825 181 179 176
0.24384359 0.16427584 0.88610123 176 175 174
0.24207135 0.17176606 0.91000118 170 168 170
0.24890445 0.18304437 0.91731323 174 173 171
0.24939587 0.18753731 0.92836506 154 153 153
0.24532837 0.19197985 0.94370379 141 136 133
0.25451373 0.20776686 0.95261203 158 155 154
0.25205135 0.21077680 0.96468621 167 164 163
0.26034278 0.12766747 0.45680043 138 134 132
0.26516248 0.19378319 0.93329204 174 173 171
0.26594730 0.19697201 0.94678617 164 163 164
0.26742803 0.20783813 0.93580167 179 180 177
0.26731991 0.20805403 0.95330488 162 161 160
0.26736254 0.21006733 0.96361250 148 147 147
0.29049507 0.25751855 0.70561254 145 143 137
0.29379216 0.26948073 0.71160495 166 165 160
0.29220811 0.27726515 0.72282229 169 169 167
0.28965507 0.29366367 0.71881707 141 135 133
0.29019622 0.28798591 0.72680439 156 156 153
0.29333714 0.28814288 0.74413091 146 147 147
0.31573180 -0.24705436 0.71359312 103 105 110
0.31352371 -0.24475869 0.72138166 101 105 108
0.31540362 -0.23764534 0.71329944 100 104 110
0.32150239 -0.24583872 0.71312014 99 104 110
0.32001156 -0.23815802 0.71281999 95 100 107
0.33766365 -0.06200192 0.54875340 58 56 55
0.33758371 -0.05637133 0.54749742 60 55 55
0.33214886 0.17927626 0.50364484 127 127 127
0.33216264 0.18420870 0.50601942 143 142 137
0.34606285 -0.06329663 0.55227760 57 55 55
0.34317192 -0.05660385 0.54836035 60 56 55
0.37778433 -0.36969551 0.69055452 104 107 111
0.37799457 0.09347639 0.47510626 158 158 152
0.37769605 0.09363837 0.48071845 160 161 159
0.36760291 0.37778998 1.18824437 152 151 144
0.36998851 0.38926868 1.19074861 164 163 160
0.36717208 0.39028883 1.20623145 168 168 163
0.37070451 0.39459060 1.22742128 171 171 165
0.36852015 0.40378981 1.19621907 171 170 164
0.37119030 0.40956961 1.21018769 169 168 164
0.37062641 0.40505482 1.22892901 169 168 166
0.38435303 -0.36818168 0.69169406 103 109 110
0.38241722 -0.35908292 0.68951539 102 107 109
0.39739569 0.01601414 0.57790595 128 128 129
0.39910810 0.02063958 0.57692966 110 113 118
0.38236623 0.09171063 0.47368773 164 164 158
0.39929910 0.13851840 0.48585845 171 172 163
0.39959943 0.14031389 0.48699126 171 172 163
0.38367284 0.36618940 1.13479391 171 171 168
0.38698566 0.37187926 1.15139433 168 168 167
0.38610946 0.37525994 1.16812706 170 171 169
0.38592896 0.37724005 1.18554797 168 168 167
0.39337045 0.38129228 1.15681207 151 147 148
0.39172158 0.38423596 1.16881617 151 149 150
0.38958831 0.38901782 1.19275784 148 147 147
0.38952412 0.39717401 1.20499117 145 145 143
0.39266436 0.40348368 1.21270368 141 140 139
0.39308953 0.41590026 1.22656543 134 131 131
0.39700414 0.42298878 1.23087019 131 130 130
0.41735382 -0.32173308 1.14219536 103 103 105
0.41963297 -0.31817251 1.14123201 146 138 135
0.40317845 0.01560023 0.57630558 125 126 127
0.40243700 0.02098836 0.57555774 125 128 130
0.41985714 0.11462306 0.50740409 155 152 151
0.40316234 0.13503434 0.48797051 159 159 153
0.40294657 0.14055924 0.48784433 169 170 162
0.40306398 0.39886174 1.19137406 149 144 143
0.40268521 0.40312171 1.19637603 142 139 135
0.40238197 0.40820254 1.21075308 134 133 130
0.40222070 0.41458296 1.22289658 117 117 115
0.40292588 0.42354451 1.22862414 107 108 109
0.40075754 0.42972302 1.24498987 139 138 137
0.43096847 -0.32532972 1.15105866 103 103 109
0.43923268 -0.33293520 1.16176927 100 102 109
0.43063909 -0.31426166 1.14775663 103 102 106
0.42748970 0.09997138 0.49992025 123 120 123
0.42579363 0.10283659 0.49914779 136 137 136
0.42463383 0.10829282 0.50555615 150 150 145
0.42344421 0.45033307 1.24843651 150 150 147
0.42503041 0.45633507 1.26709938 142 142 141
0.43075064 0.46818724 1.27711599 138 139 138
0.43180937 0.47219243 1.28836089 139 139 138
0.43222236 0.47405611 1.30616805 129 129 130
0.43655732 0.48353980 1.29699115 147 147 144
0.43963724 0.48921195 1.30614996 150 150 146
0.43820590 0.48176318 1.32919967 127 128 130
0.45835193 -0.34299953 1.17214811 101 102 109
0.44410365 -0.32661501 1.15582879 101 102 110
0.44816652 -0.33536594 1.16386076 101 103 111
0.44184884 -0.31942654 1.15287733 104 103 112
0.45276764 0.25998816 0.73844427 156 161 153
0.45378761 0.25424986 0.75130623 136 135 129
0.45632584 0.25750418 0.76215308 139 139 133
0.45412075 0.26380810 0.74974519 130 130 128
0.45682787 0.26474111 0.76369842 123 122 120
0.45713377 0.47131518 1.26909059 167 166 162
0.45833892 0.47709413 1.28267258 161 161 158
0.45776743 0.48296031 1.27185106 162 162 156
0.45877363 0.48309054 1.28388913 157 156 154
0.45275152 0.49420231 1.31172630 131 130 128
0.44836354 0.49256033 1.33056694 133 132 132
0.44507216 0.49540822 1.35714221 126 126 129
0.45357199 0.50277229 1.32628481 140 135 130
0.44947487 0.50177014 1.37782896 124 124 128
0.45168370 0.50692177 1.39197505 127 126 128
0.46559458 -0.34335568 1.16719270 101 103 110
0.46657800 -0.33568048 1.16487031 99 102 110
0.46324655 0.27615073 0.77296674 141 141 134
0.46151379 0.47459712 1.27006024 163 163 158
0.46091819 0.47762927 1.29616034 170 170 166
0.46142410 0.48843449 1.29479761 150 150 148
0.46220135 0.49009762 1.30852486 145 144 143
0.46429857 0.49388243 1.32902638 152 151 148
0.46118003 0.50014251 1.32919967 129 128 126
0.49355236 0.09607325 0.45763282 152 153 150
0.49455167 0.09226875 0.46107410 141 142 139
0.49133022 0.10259025 0.45661736 137 138 137
0.51595390 0.24817862 0.60734003 116 116 112
0.52537143 0.24780092 0.61844896 121 121 119
0.53192534 0.24787908 0.62889479 116 117 114
0.53354977 0.24929508 0.64316989 127 127 125
0.55309964 0.17428482 0.63630469 157 158 152
0.55501967 0.17193196 0.64235408 162 161 153
0.55704693 0.18250583 0.63792821 133 133 133
0.55622601 0.18423973 0.64267733 132 132 130
0.54539720 0.23466869 0.63351336 147 150 143
0.55365431 0.23914608 0.64746118 149 151 144
0.54722965 0.24372226 0.63564086 136 135 130
0.54978943 0.24464644 0.64750397 137 136 127
0.55645800 0.58633530 1.44539833 163 163 161
0.55763310 0.59160209 1.51653659 165 164 162
0.55862476 0.64346951 1.57283911 144 142 138
0.55918074 0.65056443 1.58016741 139 136 130
0.57909939 0.18958373 0.53715712 140 141 132
0.57979196 0.18151705 0.54162055 154 154 149
0.56070489 0.18298328 0.63891786 130 130 131
0.56519586 0.18359565 0.64234867 117 117 119
0.56151301 0.24566175 0.66200376 164 163 151
0.56124473 0.58885932 1.45783186 167 167 165
0.56602859 0.59910947 1.47688854 164 163 160
0.56730618 0.59301057 1.49373446 171 171 167
0.56957961 0.59459790 1.51135300 173 173 167
0.56566837 0.59791933 1.52766454 170 170 163
0.56806282 0.60604585 1.49401040 162 160 158
0.57338946 0.60955099 1.51294885 164 163 162
0.57129872 0.60884512 1.52974944 168 168 164
0.56911625 0.61403960 1.54519038 168 168 164
0.57454641 0.62445216 1.53283624 162 161 156
0.57339582 0.62877610 1.54975290 163 163 158
0.57014820 0.63379748 1.56749850 159 159 154
0.57976383 0.64280695 1.55479777 161 161 156
0.57330918 0.64422150 1.57262842 157 157 154
0.57293180 0.65226052 1.58474838 153 151 149
0.57641828 0.66150512 1.59005316 143 142 140
0.58186543 0.17976166 0.53972280 160 161 154
0.58231714 0.17922628 0.54205406 169 170 160
0.58404340 0.18779640 0.53957979 141 141 134
0.58657402 0.18641841 0.54294005 140 140 135
0.59083221 0.25226048 0.55018898 149 148 142
0.59125561 0.26130298 0.55082340 147 147 141
0.58249718 0.62745386 1.53369200 160 159 155
0.58206607 0.65140064 1.57557821 161 161 158
0.58170903 0.65406202 1.58201343 160 159 157
0.58100772 0.66184351 1.58756876 147 147 145
0.61943263 0.11702382 0.81870997 118 122 125
0.61863698 0.11840702 0.82094100 128 130 132
0.60766133 0.12627252 0.81862127 165 165 161
0.61617189 0.12610452 0.82394838 157 157 154
0.60132200 0.18752430 0.55158001 128 122 123
0.61235255 0.29513349 0.67840349 135 133 127
0.61574626 0.29736857 0.68962244 136 135 131
0.61941594 0.29800163 0.70030147 144 144 140
0.61750221 0.30009761 0.69813782 140 139 137
0.63363637 0.11085550 0.81543296 117 120 124
0.63032401 0.11809312 0.82084535 137 140 141
0.62881979 0.12868748 0.82585083 144 146 143
0.63138024 0.14179995 0.83122584 170 171 168
0.63793215 0.17210112 0.65225700 151 153 149
0.63607876 0.18725745 0.65529040 148 149 143
0.63869873 0.18997893 0.66136041 135 136 127
0.62577183 0.29379843 0.69565212 162 162 150
0.62526704 0.29369170 0.70318458 159 160 151
0.63839674 0.32384161 0.82440731 134 134 126
0.64329448 0.12816357 0.83126196 144 147 145
0.64475247 0.15921442 0.65751029 162 163 157
0.64475022 0.16992660 0.65644018 159 160 156
0.64964076 0.16850335 0.66461499 158 159 155
0.64656360 0.18797148 0.65765335 150 151 146
0.64840563 0.19038023 0.66264310 146 147 143
0.65624120 0.20193211 0.66875325 158 162 151
0.65942383 0.31170568 0.85592407 136 136 129
0.64575006 0.32587409 0.83536449 128 129 122
0.65466441 0.32918435 0.85353793 129 130 124
0.65801750 0.33076650 0.86288814 123 124 119
0.66194561 0.31530218 0.85765866 157 158 148
0.66679240 0.31759272 0.86799844 146 147 139
0.66109324 0.32139367 0.85809094 154 155 145
0.66481848 0.32802226 0.87108621 140 140 134
0.67061488 0.33752777 0.88585521 125 125 121
0.67485553 0.34178868 0.89196295 128 125 120
0.69700412 0.39116041 0.94882648 129 128 126
0.69736990 0.40726217 0.93615595 133 133 127
0.69954254 0.41415875 0.95012011 140 139 132
0.70304885 0.39551829 0.95299869 115 113 112
0.70370058 0.40833677 0.95188499 133 132 125
0.70814642 0.41186573 0.96729749 134 132 124
0.70416154 0.42166612 0.95559433 155 156 151
0.70698878 0.42420626 0.96360718 150 150 145
0.79601023 0.05890043 1.23778411 147 147 144
0.79147035 0.05855136 1.24705224 147 148 146
0.79802015 0.06135959 1.23703301 142 141 138
0.79565719 0.06545273 1.25304885 147 146 144
0.79507797 0.06907074 1.26069244 147 145 143
0.79841793 0.41153015 1.22289658 168 169 163
0.79346191 0.42785880 1.23340040 141 140 137
0.79641374 0.43458331 1.25073806 168 167 161
0.79860495 0.44116160 1.25304627 171 169 161
0.80232908 0.05716144 1.23872501 155 154 150
0.81251502 0.05480532 1.24613482 156 154 152
0.80269527 0.06147156 1.23929036 142 141 140
0.80244908 0.06731472 1.24928516 147 147 143
0.81933501 0.13114806 0.79705122 153 154 150
0.81258053 0.25063244 1.10947931 178 179 168
0.81264347 0.24975441 1.15878952 174 173 169
0.81638933 0.25286371 1.16758871 174 173 167
0.81576103 0.27084976 1.12981975 172 170 166
0.81181819 0.41633800 1.23578440 171 172 163
0.81704104 0.41995546 1.24156010 177 177 169
0.80451123 0.42548017 1.23269507 143 143 140
0.80008191 0.44414967 1.25535524 167 165 156
0.80087835 0.44362295 1.26002204 176 173 165
0.82494808 0.05406742 1.24821715 152 153 151
0.83331871 0.11633901 0.79783464 119 127 126
0.83325144 0.11815468 0.80205147 112 119 119
0.82899421 0.12970560 0.79725677 154 156 149
0.83078574 0.12555816 0.80371816 155 158 154
0.82456663 0.25425965 1.12985113 178 179 170
0.83334119 0.25430237 1.15426765 166 166 160
0.83100887 0.25646383 1.16670271 155 155 152
0.83002196 0.25918853 1.18357801 162 162 154
0.82123590 0.27070165 1.13740242 171 172 165
0.83286276 0.26742106 1.15315286 171 171 163
0.83489921 0.26897990 1.16978879 165 164 159
0.83602909 0.26613419 1.18721069 156 156 153
0.83799073 0.28128068 1.18617064 167 162 162
0.82394931 0.42915052 1.25032300 159 159 153
0.83728015 0.43244860 1.26236844 163 162 153
0.84182197 0.27365775 1.17435306 169 169 160
0.84543703 0.27350027 1.18561780 171 171 162
0.84957721 0.43593007 1.26986550 160 159 153
0.85091393 0.44188408 1.27543712 153 153 146
0.85983771 0.44176608 1.28632224 165 165 156
0.86350274 0.43688003 1.27423275 144 144 141
0.86816126 0.43619208 1.28879411 139 138 136
0.87760773 0.43390296 1.30615479 129 125 128
0.86567116 0.44165889 1.27743534 147 144 140
0.86947048 0.44676408 1.29161501 154 153 147
0.87213313 0.45390809 1.30318938 156 156 148
0.87476158 0.46253708 1.31374383 149 151 146
0.88399263 0.43095758 1.31439024 143 142 139
0.89525966 0.43110009 1.33357263 153 153 146
0.89961618 0.43084925 1.34236014 154 155 146
0.88204587 0.45167762 1.27663243 145 145 141
0.89181950 0.45094608 1.29502555 139 138 135
0.89411983 0.44984061 1.30719058 139 137 134
0.89553667 0.46327008 1.31324842 149 149 142
0.90087461 0.43983009 1.31374383 156 153 145
0.90122288 0.42945811 1.33443272 160 157 149
0.90140041 0.43093341 1.34502705 155 155 147
0.90113872 0.45634633 1.29616034 151 153 148
0.90273261 0.44981266 1.30661577 150 148 143
0.91195466 0.44258755 1.33326731 159 153 148
0.91721058 0.44193355 1.34502776 145 141 136
0.95796529 0.09925142 0.89215932 132 134 133
0.95668675 0.10391953 0.89017673 123 126 124
0.97053667 0.09657219 0.89411594 150 152 147
0.96548183 0.10335351 0.89007675 142 143 141
0.98381934 0.09589762 0.89400411 159 160 153
0.99473977 0.09951171 0.90385580 156 159 150
0.98418671 0.10031628 0.89708030 144 147 140
0.99547255 0.41800722 1.63741994 131 128 126
0.99829267 0.41188793 1.65171635 144 140 138
0.99819958 0.41799949 1.66558194 165 163 158
0.99679345 0.43507181 1.60638699 124 123 128
0.99793965 0.43659748 1.62761259 105 102 106
0.99501556 0.42322299 1.65377296 162 161 153
0.99575305 0.42128262 1.66149962 172 172 163
1.00582041 0.41207805 1.64975358 142 137 135
1.01528106 0.41266733 1.66149962 150 145 141
1.00612068 0.43714310 1.61097205 138 139 140
1.01377782 0.43133880 1.62941625 140 139 140
1.01021316 0.43126581 1.65177723 127 125 125
1.00636753 0.43480894 1.66617085 146 145 136
1.00795194 0.44282537 1.60766272 142 143 143
1.00235987 0.44028807 1.62563992 109 108 115
1.01180816 0.44176149 1.67380702 139 140 133
1.03232106 0.41497903 1.65599353 155 155 148
1.03107564 0.41306166 1.66839099 157 154 146
1.03684664 0.41008264 1.68629813 165 160 151
1.02208965 0.42936105 1.63112216 161 161 157
1.02742215 0.42345630 1.64969086 162 162 157
1.02447069 0.42128262 1.66149962 156 155 151
1.03189335 0.45082383 1.17532015 154 155 149
1.03758076 0.45306358 1.18435726 153 154 149
1.02695382 0.44523326 1.63347435 150 151 151
1.03711504 0.44759331 1.64737505 152 152 151
1.02507508 0.47667265 1.15780079 149 148 141
1.03074411 0.47727603 1.16477382 141 140 134
1.03829561 0.46524988 1.18512974 161 163 154
1.02639496 0.48819384 1.17082476 141 142 138
1.03679388 0.49367558 1.18860675 134 136 132
1.03145450 0.50673552 1.17649188 146 147 145
1.03636618 0.51097842 1.19005746 143 143 142
1.03591783 0.52457229 1.19454069 131 132 128
1.05107646 0.38517523 1.21443620 155 153 145
1.05845630 0.39027201 1.22418866 146 144 137
1.05213535 0.39358768 1.69685328 158 157 153
1.05413218 0.39499119 1.71056105 169 168 161
1.04201913 0.41452309 1.65743732 155 156 150
1.04814843 0.41443205 1.66970276 156 155 150
1.04931521 0.40949910 1.69192613 165 160 154
1.05610684 0.40517157 1.70862228 171 169 162
1.04360962 0.42689148 1.65541601 167 167 162
1.04787412 0.42304126 1.66559705 169 169 162
1.04346222 0.45587688 1.19349372 152 153 147
1.04311043 0.47801699 1.17587572 137 137 132
1.04296318 0.47121441 1.19295213 158 159 151
1.04856884 0.46368249 1.20193589 144 145 138
1.04277325 0.48028338 1.17894232 143 142 137
1.04365079 0.48710565 1.19512677 142 144 139
1.05129097 0.49280967 1.21077233 137 139 136
1.05769630 0.49537335 1.22289920 136 138 136
1.04141390 0.51330620 1.19896069 146 147 145
1.05010742 0.50448191 1.21272337 126 127 126
1.05692136 0.50166145 1.22363150 119 120 120
1.04164445 0.52461019 1.19874871 135 136 133
1.05091701 0.53119650 1.21619811 130 131 128
1.05628657 0.53412092 1.22289658 125 125 121
1.07586054 0.39691258 1.21162198 169 169 161
1.06928724 0.39596521 1.22827488 143 142 138
1.06708634 0.39955226 1.71618187 158 157 153
1.07874203 0.40252504 1.21485996 162 163 156
1.07148794 0.40379630 1.23030569 138 139 135
1.07617450 0.40717113 1.24841964 118 117 117
1.06500709 0.41694934 1.69051915 158 158 155
1.07130060 0.41350621 1.71013420 154 151 149
1.06071579 0.42255354 1.67795014 165 166 161
1.07596564 0.42784870 1.69897699 163 163 158
1.06570800 0.53569307 1.23627786 132 133 129
1.06388640 0.54198188 1.23478591 119 119 116
1.07626395 0.54858865 1.25304852 117 117 114
1.07964265 0.55033737 1.26002204 124 124 121
1.08272898 0.39577010 1.21777066 170 171 163
1.08397259 0.39306408 1.22739351 157 158 151
1.08729792 0.40634415 1.23032727 163 164 157
1.08959961 0.41528327 1.25227416 138 139 138
1.09924328 0.41966662 1.26002204 141 142 142
1.08191776 0.41438365 1.71618187 146 145 143
1.09198705 0.41362850 1.73373878 157 157 154
1.09529048 0.42124498 1.23590231 161 165 158
1.09809124 0.42893434 1.24269915 157 160 154
1.09542060 0.42680602 1.26567624 133 134 134
1.08727658 0.42840352 1.71293700 159 159 156
1.09514990 0.42676215 1.72661320 168 168 163
1.08476698 0.55130965 1.26474118 123 124 121
1.10537835 0.41615150 1.25381116 162 163 154
1.10197580 0.41862288 1.73373878 161 162 158
1.10831177 0.42491910 1.25303912 152 155 152
1.11060455 0.42746672 1.26773558 143 145 144
1.11176915 0.43433207 1.28771508 131 132 132
1.10790529 0.43224815 1.73551695 163 164 161
1.11692766 0.43037104 1.74843378 168 168 163
1.11625385 0.44036347 1.26946032 155 156 154
1.11790717 0.44262913 1.75165856 162 163 160
1.11914945 0.44949350 1.76075804 165 166 162
1.11030688 0.59511885 1.59504255 159 162 154
1.11032120 0.59681033 1.60703886 147 146 142
1.11292779 0.60158652 1.59880149 162 164 155
1.11358615 0.60370944 1.60847486 147 148 140
1.11484210 0.60509890 1.62304719 134 131 125
1.12127507 0.43634422 1.27567255 156 160 156
1.12379734 0.43843493 1.28308014 149 152 149
1.13248336 0.43065344 1.76732557 172 173 166
1.12761112 0.44306305 1.29076343 147 147 145
1.13648212 0.44857891 1.30615966 143 142 140
1.12535644 0.44225812 1.75619650 160 160 158
1.12959409 0.45183581 1.76996464 166 166 165
1.12375534 0.59888464 1.60637879 166 168 161
1.12037086 0.59763616 1.62563992 158 159 152
1.12950814 0.61540347 1.59880149 153 153 151
1.13070477 0.61287273 1.61233238 160 161 153
1.12691380 0.61227509 1.63006680 144 143 138
1.13011197 0.61441129 1.64805039 131 126 122
1.13646960 0.61656284 1.66149962 136 130 126
1.12905920 0.62455300 1.61531838 147 147 144
1.13072821 0.62864184 1.62900291 149 150 145
1.13703353 0.62920836 1.65081473 139 138 134
1.13930172 0.63025379 1.66354078 134 129 125
1.13414979 0.64158893 1.63741994 167 167 159
1.13819450 0.64121497 1.64737022 159 160 152
1.14453597 0.43600418 1.77274230 170 169 163
1.15301022 0.43475216 1.78916138 171 172 166
1.14601076 0.45293918 1.31885576 142 142 140
1.15952229 0.45688176 1.33706474 139 139 137
1.14012492 0.45113730 1.77924371 160 160 159
1.14297414 0.45781744 1.79336464 166 166 163
1.15372807 0.46025264 1.80290389 165 166 165
1.14830053 0.61894774 1.63741994 167 168 158
1.14824390 0.61760938 1.64138460 168 169 158
1.14488792 0.61823690 1.67380702 137 131 127
1.14471034 0.62811792 1.62695503 147 147 145
1.14969390 0.63066640 1.65189965 150 151 146
1.14304068 0.63087747 1.66901743 135 130 127
1.15339351 0.63170162 1.69051385 136 129 124
1.14232105 0.64434317 1.65541601 160 160 152
1.14772177 0.64006859 1.67795014 137 136 130
1.16183329 0.46150377 1.33706474 144 143 141
1.17731249 0.47279689 1.35398682 142 143 138
1.17808616 0.48340157 1.35307753 141 141 136
1.16231561 0.63379341 1.66149962 157 158 150
1.16205609 0.63659775 1.70753610 146 139 131
1.17239106 0.63698423 1.72053766 142 136 130
1.16574001 0.64519708 1.71078101 137 130 124
1.17689821 0.64853382 1.73154986 143 136 128
1.18759978 0.47646326 1.36671746 142 143 136
1.19975066 0.47990632 1.38345277 141 142 135
1.18278575 0.48905510 1.35578370 143 142 140
1.19451828 0.48956600 1.37365511 142 143 137
1.18294239 0.65872586 1.74265254 144 136 131
1.21157672 0.41502880 1.43015664 169 170 161
1.21839571 0.41681442 1.44232309 165 166 159
1.21569204 0.42289333 1.43545246 172 173 164
1.20921286 0.49212931 1.39436378 140 141 134
1.21723270 0.48787156 1.40641463 140 141 132
1.20830798 0.50279847 1.39054883 146 147 141
1.20778108 0.65718096 1.77924371 142 138 131
1.22360438 0.42861516 1.44848901 171 171 163
1.23906052 0.42816271 1.47168000 170 171 163
1.23681629 0.44209588 1.46412921 165 166 158
1.22967045 0.47486956 1.43319221 126 128 125
1.23637328 0.47111285 1.44293814 132 132 129
1.23598204 0.47438036 1.47010062 160 160 151
1.22641838 0.49278766 1.42414564 140 141 132
1.22681429 0.49134409 1.45207900 162 163 154
1.23427574 0.48894839 1.46713622 159 159 150
1.22474551 0.50699139 1.41227472 136 136 132
1.23517446 0.50493300 1.42714492 140 141 135
1.22897696 0.50066823 1.45783186 172 173 165
1.23576009 0.50319785 1.46888983 172 174 165
1.24305055 0.43590376 1.47528321 175 175 166
1.24400307 0.43455844 1.48396157 174 175 166
1.25673521 0.43567321 1.50308609 171 172 163
1.24315904 0.45033127 1.47314745 159 159 153
1.24836739 0.45136878 1.48679049 164 165 157
1.25543618 0.44346710 1.50308609 176 177 168
1.24483172 0.46976011 1.45574633 131 130 126
1.24601319 0.47140796 1.46957113 147 147 140
1.24606164 0.46717912 1.48616426 149 150 143
1.25740664 0.47183380 1.50834990 150 151 143
1.24501238 0.48693265 1.45595753 136 137 132
1.25002723 0.48871947 1.47273590 145 146 139
1.24644346 0.49153725 1.48538475 166 166 158
1.25972354 0.49110931 1.50978136 177 178 169
1.24379480 0.50735043 1.43926084 136 137 131
1.24883811 0.50873532 1.45212762 138 139 132
1.25231674 0.50618766 1.46991880 154 155 147
1.24533375 0.50728977 1.48600926 170 171 163
1.25842214 0.51330450 1.50978887 171 171 166
1.25364554 0.52249473 1.44848680 141 143 142
1.26667705 0.45136042 1.51654795 170 171 162
1.26984233 0.44863310 1.52506799 174 175 166
1.26543415 0.46788111 1.51767508 156 156 148
1.27324627 0.47166535 1.52995441 157 158 149
1.27774298 0.47694102 1.54417276 164 165 156
1.26035810 0.49189684 1.47688854 138 138 135
1.26326004 0.49570277 1.48254225 137 138 135
1.26536413 0.49024045 1.51654164 170 171 162
1.27320077 0.48455474 1.53197033 156 157 150
1.27762246 0.48705979 1.54241800 156 157 149
1.26300263 0.51433478 1.46811134 139 139 133
1.26618207 0.51337864 1.48521996 151 151 142
1.26543188 0.50897064 1.51767004 171 171 163
1.27547461 0.50834091 1.53024942 173 173 165
1.26807783 0.52766500 1.46987226 134 135 133
1.27394009 0.52630968 1.48879266 129 129 126
1.27558172 0.52480718 1.53196096 169 169 163
1.28797666 0.45732348 1.55006476 174 175 166
1.28615849 0.47203015 1.54962147 161 162 154
1.29654181 0.47255948 1.56799169 167 168 161
1.28390683 0.49305232 1.54732450 164 165 157
1.29460809 0.49203460 1.56848941 164 165 158
1.28639664 0.50806136 1.54795593 171 172 164
1.29470566 0.50896063 1.56467241 164 165 157
1.28125757 0.53634730 1.48335904 140 143 139
1.28531277 0.53699374 1.50308609 102 98 102
1.28779218 0.52529048 1.54984272 169 170 163
1.30131090 0.47844349 1.57103139 162 163 155
1.31331968 0.46456069 1.58385944 174 175 166
1.30503118 0.48481193 1.58294076 168 169 161
1.30433553 0.51222250 1.57466376 165 167 159
1.30937600 0.50758836 1.58571410 160 161 153
1.30629927 0.52823994 1.57375357 171 172 163
1.31347445 0.52845031 1.58546649 173 174 165
1.81430912 0.37998974 1.85216355 160 161 152
1.83091724 0.37990236 1.86747062 165 166 158
1.82749677 0.38207757 1.86234021 162 163 154
1.85676599 0.34033900 1.89885676 174 175 166
1.87415618 0.33991340 1.91494870 178 179 171
1.86004794 0.34033900 1.89885676 174 175 166
1.86970943 0.34968626 1.90956205 163 164 157
1.87981188 0.34517336 1.92582905 175 176 167
1.88516748 0.33948052 1.93131578 174 175 168
1.89567006 0.35977241 1.91494870 164 165 158
1.89009806 0.35165660 1.93409046 165 166 159
1.88815337 0.36347909 1.92584461 148 149 146
1.89570391 0.38732383 1.93270314 167 168 160
1.90477663 0.35848793 1.92582905 167 169 162
1.91013160 0.35645570 1.94657773 166 168 161
1.91455674 0.35896924 1.96490383 153 153 148
1.90913031 0.36547537 1.93463290 154 155 149
1.91322970 0.36787484 1.95359498 149 150 145
1.91795290 0.36915776 1.96490383 141 142 140
1.90059662 0.38397005 1.93683386 173 174 167
1.91102283 0.38999341 1.95022347 161 162 155
1.92936386 0.37139999 1.95118907 158 160 152
1.92918952 0.37407911 1.97120364 149 149 145
1.93135107 0.37924793 1.98213995 143 144 141
1.92583026 0.39254115 1.95453600 167 168 159
1.93123953 0.38805213 1.97119701 159 159 152
1.93332687 0.39009405 1.98505056 146 145 139
1.94515967 0.37516756 1.95640188 162 165 156
1.95531094 0.37255394 1.96490383 163 165 156
1.94514453 0.38728023 1.95922494 170 171 162
1.94813023 0.38783011 1.97061955 171 172 163
1.99401867 0.37734332 1.81255153 159 161 152
1.99125262 0.38058232 1.80932275 169 170 161
2.01219583 0.37681565 1.81376636 153 155 149
2.01093597 0.37676397 1.82721236 159 160 153
2.01349717 0.38228226 1.81740439 160 161 153
2.00815719 0.38435226 1.82510047 170 172 162
2.02830720 0.35692806 1.84879899 167 165 162
2.02847299 0.37338842 1.81292681 143 144 140
2.03081240 0.37537889 1.82968616 153 154 150
2.03249686 0.37482172 1.84929538 153 153 148
2.03041399 0.38177119 1.81497473 135 135 132
2.03736281 0.38803056 1.82969761 148 148 143
2.03166807 0.39278877 1.84460706 168 170 159
2.05675697 0.33879694 1.83710527 164 166 160
2.04259562 0.35837203 1.80771160 148 153 143
2.05638194 0.35177286 1.82940842 153 154 149
2.05638611 0.35804075 1.84629393 154 154 146
2.05262876 0.35635894 1.86533768 167 166 162
2.04490954 0.36814670 1.81740439 149 152 143
2.05308537 0.36655407 1.82907028 148 150 143
2.05109242 0.37002869 1.85150349 150 150 146
2.05261334 0.37167613 1.86507832 155 153 150
2.04855053 0.38819497 1.83545021 142 142 137
2.06446832 0.35118035 1.83338138 151 152 150
2.06736253 0.35078458 1.85120362 152 152 146
2.06966756 0.35129453 1.86931402 163 164 157
2.06911981 0.35214886 1.88303292 167 166 163
2.06367666 0.36187682 1.83338809 148 151 143
2.06526973 0.36635640 1.85145634 149 150 144
2.06769891 0.37083309 1.86747738 154 153 150
2.06452552 0.36877033 1.88478132 159 156 154
2.06355941 0.39278877 1.84460706 144 144 142
2.06932410 0.38920768 1.88916210 163 164 157
2.06835580 0.40045395 1.88827813 173 178 168
2.09283912 0.35277683 1.85217732 165 165 161
2.08160353 0.34258540 1.87522310 152 152 144
2.08340657 0.34449130 1.88565552 147 147 143
2.08752513 0.39926901 1.86747062 147 147 144
2.08578587 0.40711978 1.90419054 168 173 164
2.10604596 0.35375773 1.86576994 161 161 159
2.12762117 0.41864279 1.94238353 164 168 157
2.15854573 0.42813376 1.97061586 164 166 156
2.17409992 0.42502829 1.98795259 168 173 163
2.18049431 0.42972448 1.99379957 163 167 156
