ply
format ascii 1.0
element vertex 107
property float x
property float y
property float z
property uchar red
property uchar green
property uchar blue
end_header
-0.06545667 -0.08349132 0.01993295 255 12 12
-0.06572687 -0.08352881 0.02046222 255 12 12
-0.06607531 -0.08350198 0.02025293 255 12 12
-0.06651569 -0.08345299 0.01980951 255 12 12
-0.06744061 -0.08348398 0.02046647 255 12 12
-0.06779526 -0.08358769 0.02180765 255 12 12
-0.06881301 -0.08353803 0.02153685 255 12 12
-0.06918107 -0.08351486 0.02137712 255 12 12
-0.06955467 -0.08349205 0.02122346 255 12 12
-0.06993373 -0.08346963 0.02107598 255 12 12
-0.07113966 -0.08340486 0.02068485 255 12 12
-0.07145994 -0.08340612 0.02079996 255 12 12
-0.07176633 -0.08340773 0.02091490 255 12 12
-0.07199082 -0.08343175 0.02127007 255 12 12
-0.07359634 -0.08321835 0.01924064 255 12 12
-0.07710220 -0.08273024 0.01454661 255 12 12
-0.07862645 -0.08273245 0.01504962 255 12 12
-0.07930276 -0.08269824 0.01485527 255 12 12
-0.08093513 -0.08256526 0.01378827 255 12 12
-0.08015294 -0.08284136 0.01681912 255 12 12
-0.08052758 -0.08285197 0.01706215 255 12 12
-0.08000900 -0.08306445 0.01942064 255 12 12
-0.08006000 -0.08311775 0.02006889 255 12 12
-0.07994033 -0.08324433 0.02153308 255 12 12
-0.07993808 -0.08329747 0.02216275 255 12 12
-0.08116695 -0.08329611 0.02253106 255 12 12
-0.08427334 -0.08308262 0.02096997 255 12 12
-0.08347206 -0.08327218 0.02296814 255 12 12
-0.08428953 -0.08323058 0.02273031 255 12 12
-0.08167636 -0.08368006 0.02724521 255 12 12
-0.08228853 -0.08365948 0.02719260 255 12 12
-0.08020673 -0.08393108 0.02976343 255 12 12
-0.07958891 -0.08405169 0.03100109 255 12 12
-0.07975525 -0.08406620 0.03122526 255 12 12
-0.08201357 -0.08406482 0.03191519 255 12 12
-0.09167905 -0.08349908 0.02822693 255 12 12
-0.09458948 -0.08339376 0.02788779 255 12 12
-0.09730033 -0.08331298 0.02777736 255 12 12
-0.09752613 -0.08334939 0.02827999 255 12 12
-0.10070199 -0.08330705 0.02877101 255 12 12
-0.10698076 -0.08305502 0.02774505 255 12 12
-0.10719812 -0.08310162 0.02836585 255 12 12
-0.10740664 -0.08314871 0.02898964 255 12 12
-0.11088893 -0.08315539 0.03015811 255 12 12
-0.11059159 -0.08323184 0.03097201 255 12 12
-0.11479587 -0.08335468 0.03374437 255 12 12
-0.11493462 -0.08341616 0.03451704 255 12 12
-0.11406967 -0.08351468 0.03541536 255 12 12
-0.65953672 -0.11250488 0.54994306 255 12 12
-0.64486223 -0.11309652 0.55237190 255 12 12
-0.63187016 -0.11371666 0.55566508 255 12 12
-0.61949616 -0.11436799 0.55952160 255 12 12
-0.60813822 -0.11500463 0.56352155 255 12 12
-0.59877334 -0.11575974 0.56955050 255 12 12
-0.58302512 -0.11613054 0.56902358 255 12 12
-0.42165995 -0.10965113 0.44168524 255 12 12
-0.40873883 -0.10977257 0.43908439 255 12 12
-0.39554734 -0.10985176 0.43589776 255 12 12
-0.38751355 -0.11013293 0.43672058 255 12 12
-0.37855691 -0.11043693 0.43752554 255 12 12
-0.36669233 -0.11046321 0.43412620 255 12 12
-0.35698970 -0.11065279 0.43334046 255 12 12
-0.34718799 -0.11078774 0.43187563 255 12 12
-0.33680744 -0.11085870 0.42947062 255 12 12
-0.32864339 -0.11108958 0.42965598 255 12 12
-0.31987240 -0.11125930 0.42892603 255 12 12
-0.31307355 -0.11161007 0.43096073 255 12 12
-0.29053936 -0.11125201 0.41966469 255 12 12
-0.28571635 -0.11176497 0.42424158 255 12 12
-0.27982566 -0.11215444 0.42701938 255 12 12
-0.27031757 -0.11207762 0.42313418 255 12 12
-0.26270173 -0.11219059 0.42209218 255 12 12
-0.25505611 -0.11229698 0.42096294 255 12 12
-0.24665089 -0.11239886 0.41954253 255 12 12
-0.23991492 -0.11261263 0.41997171 255 12 12
-0.23238682 -0.11268413 0.41846532 255 12 12
-0.22335807 -0.11247473 0.41315703 255 12 12
-0.21722730 -0.11262545 0.41302755 255 12 12
-0.21286271 -0.11316101 0.41801581 255 12 12
-0.20571165 -0.11317681 0.41596652 255 12 12
-0.16846197 -0.10942809 0.35984379 255 12 12
-0.16287484 -0.10946138 0.35849119 255 12 12
-0.15692046 -0.10937559 0.35561101 255 12 12
-0.15049559 -0.10917600 0.35123364 255 12 12
-0.13726648 -0.10838456 0.33770687 255 12 12
-0.13168667 -0.10821233 0.33391843 255 12 12
-0.12590579 -0.10778510 0.32704193 255 12 12
-0.12090567 -0.10766184 0.32401577 255 12 12
-0.11701693 -0.10791377 0.32578811 255 12 12
-0.10477133 -0.10666540 0.30714828 255 12 12
-0.09473415 -0.10573270 0.29294409 255 12 12
-0.09068665 -0.10570969 0.29140508 255 12 12
-0.08706906 -0.10558257 0.28876551 255 12 12
-0.08315398 -0.10541934 0.28560458 255 12 12
-0.06842027 -0.10515489 0.27785896 255 12 12
-0.06498354 -0.10558515 0.28188823 255 12 12
-0.05354512 -0.10784416 0.30510950 255 12 12
-0.02383853 -0.11609589 0.39370977 255 12 12
-0.01825307 -0.11639750 0.39554071 255 12 12
-0.01302153 -0.11626313 0.39231036 255 12 12
-0.00759949 -0.11637873 0.39198581 255 12 12
-0.00184155 -0.11670433 0.39404751 255 12 12
0.00296774 -0.11650049 0.39012504 255 12 12
0.00718919 -0.11619845 0.38522152 255 12 12
0.01232923 -0.11624105 0.38411924 255 12 12
0.01745227 -0.11627675 0.38294028 255 12 12
0.02194545 -0.11608590 0.37927086 255 12 12
