ply
format ascii 1.0
element vertex 148
property float x
property float y
property float z
property uchar red
property uchar green
property uchar blue
end_header
-0.01513225 -0.10499958 0.25934901 255 12 12
-0.05499149 -0.08394824 0.02208019 255 12 12
-0.05481139 -0.08375696 0.01975467 255 12 12
-0.05526931 -0.08377601 0.02012390 255 12 12
-0.05565745 -0.08377707 0.02025783 255 12 12
-0.05603434 -0.08377910 0.02039985 255 12 12
-0.05634090 -0.08376319 0.02030704 255 12 12
-0.05659310 -0.08372855 0.01997496 255 12 12
-0.05690533 -0.08371313 0.01988964 255 12 12
-0.05715695 -0.08367929 0.01956695 255 12 12
-0.05741613 -0.08364548 0.01924686 255 12 12
-0.05768948 -0.08361140 0.01892802 255 12 12
-0.05785643 -0.08338939 0.01634658 255 12 12
-0.05812651 -0.08333522 0.01578836 255 12 12
-0.05907713 -0.08338197 0.01664030 255 12 12
-0.06059012 -0.08338964 0.01720459 255 12 12
-0.06089606 -0.08333705 0.01667637 255 12 12
-0.06124132 -0.08330463 0.01639975 255 12 12
-0.06230703 -0.08327197 0.01634563 255 12 12
-0.06267755 -0.08330345 0.01683501 255 12 12
-0.06376111 -0.08327513 0.01683792 255 12 12
-0.06456572 -0.08363509 0.02135992 255 12 12
-0.06509124 -0.08368784 0.02215003 255 12 12
-0.06538764 -0.08366137 0.02192867 255 12 12
-0.06621421 -0.08347865 0.02001967 255 12 12
-0.06769056 -0.08352427 0.02102258 255 12 12
-0.06792733 -0.08365119 0.02260229 255 12 12
-0.06814487 -0.08367136 0.02290962 255 12 12
-0.06847909 -0.08364796 0.02273663 255 12 12
-0.06883017 -0.08362483 0.02257205 255 12 12
-0.06918116 -0.08360206 0.02241165 255 12 12
-0.06960373 -0.08355764 0.02201685 255 12 12
-0.06981846 -0.08357954 0.02234384 255 12 12
-0.07009244 -0.08357979 0.02243250 255 12 12
-0.07045234 -0.08355840 0.02229135 255 12 12
-0.07081725 -0.08353738 0.02215612 255 12 12
-0.07109939 -0.08353870 0.02226000 255 12 12
-0.07157928 -0.08349661 0.02191071 255 12 12
-0.07196464 -0.08347683 0.02179659 255 12 12
-0.07225153 -0.08347931 0.02191580 255 12 12
-0.07611791 -0.08294928 0.01683724 255 12 12
-0.07805185 -0.08276924 0.01530632 255 12 12
-0.07871132 -0.08273413 0.01509604 255 12 12
-0.07993777 -0.08273700 0.01551370 255 12 12
-0.08033021 -0.08294709 0.01812884 255 12 12
-0.07925721 -0.08332406 0.02226531 255 12 12
-0.07954307 -0.08333513 0.02248604 255 12 12
-0.07982589 -0.08334661 0.02271064 255 12 12
-0.08202062 -0.08316929 0.02129359 255 12 12
-0.08265518 -0.08314328 0.02118342 255 12 12
-0.08367779 -0.08331421 0.02353115 255 12 12
-0.08181528 -0.08359494 0.02627885 255 12 12
-0.08185954 -0.08362921 0.02669925 255 12 12
-0.07980822 -0.08414437 0.03216916 255 12 12
-0.08038043 -0.08412597 0.03212982 255 12 12
-0.08074256 -0.08412504 0.03223201 255 12 12
-0.08425732 -0.08391214 0.03080578 255 12 12
-0.09113680 -0.08356199 0.02880356 255 12 12
-0.09308443 -0.08355785 0.02936368 255 12 12
-0.09394806 -0.08354225 0.02944871 255 12 12
-0.09593248 -0.08350503 0.02962782 255 12 12
-0.09862098 -0.08343333 0.02961822 255 12 12
-0.10364664 -0.08329543 0.02955415 255 12 12
-0.09996448 -0.08359444 0.03194969 255 12 12
-0.10146782 -0.08361217 0.03263019 255 12 12
-0.10184924 -0.08363982 0.03307759 255 12 12
-0.10198578 -0.08368060 0.03360405 255 12 12
-0.10734705 -0.08374899 0.03609224 255 12 12
-0.10843423 -0.08376072 0.03657141 255 12 12
-0.10901953 -0.08379265 0.03713328 255 12 12
-0.95638439 -0.08732937 0.34412951 255 12 12
-0.64625169 -0.09058731 0.28577547 255 12 12
-0.64374717 -0.09136553 0.29422432 255 12 12
-0.63929484 -0.09212412 0.30183106 255 12 12
-0.62885031 -0.09280309 0.30661895 255 12 12
-0.62153615 -0.09350758 0.31268869 255 12 12
-0.61386194 -0.09425919 0.31920480 255 12 12
-0.60767931 -0.09497818 0.32580055 255 12 12
-0.60230069 -0.09570578 0.33274989 255 12 12
-0.59683376 -0.09642766 0.33960370 255 12 12
-0.40589546 -0.09581515 0.27261556 255 12 12
-0.37941707 -0.09611001 0.26783156 255 12 12
-0.35508007 -0.09634193 0.26297078 255 12 12
-0.34103896 -0.09686073 0.26473360 255 12 12
-0.33980032 -0.09735558 0.27021663 255 12 12
-0.33241482 -0.09757222 0.27047663 255 12 12
-0.32809460 -0.09791544 0.27319705 255 12 12
-0.32785061 -0.09845335 0.27950210 255 12 12
-0.32299936 -0.09877999 0.28185975 255 12 12
-0.29403434 -0.09832283 0.26737661 255 12 12
-0.28488157 -0.09832568 0.26454764 255 12 12
-0.25693532 -0.09819597 0.25426779 255 12 12
-0.25258969 -0.09841336 0.25548756 255 12 12
-0.24912488 -0.09867605 0.25752009 255 12 12
-0.24332728 -0.09877446 0.25687420 255 12 12
-0.22713852 -0.09854785 0.24912236 255 12 12
-0.22522912 -0.09888372 0.25250966 255 12 12
-0.22259881 -0.09917380 0.25512819 255 12 12
-0.21992656 -0.09946223 0.25771404 255 12 12
-0.20278951 -0.09892378 0.24596621 255 12 12
-0.19745544 -0.09891045 0.24413966 255 12 12
-0.19491513 -0.09916746 0.24639407 255 12 12
-0.19313478 -0.09950862 0.24988445 255 12 12
-0.18799666 -0.09951483 0.24835104 255 12 12
-0.18253659 -0.09944270 0.24578748 255 12 12
-0.18044473 -0.09974475 0.24871647 255 12 12
-0.17332831 -0.10002062 0.24976333 255 12 12
-0.17221089 -0.10047815 0.25484159 255 12 12
-0.16830435 -0.10055803 0.25456732 255 12 12
-0.16356418 -0.10050251 0.25242606 255 12 12
-0.15917220 -0.10046616 0.25062106 255 12 12
-0.15398155 -0.10029250 0.24693743 255 12 12
-0.14995328 -0.10027073 0.24541913 255 12 12
-0.14669076 -0.10038011 0.24569627 255 12 12
-0.14294191 -0.10037887 0.24450903 255 12 12
-0.13918760 -0.10037409 0.24327807 255 12 12
-0.13656218 -0.10056946 0.24477461 255 12 12
-0.13467359 -0.10094266 0.24861116 255 12 12
-0.12116312 -0.10108255 0.24604488 255 12 12
-0.11793875 -0.10111140 0.24537862 255 12 12
-0.11370131 -0.10083817 0.24081186 255 12 12
-0.11009439 -0.10178269 0.25088874 255 12 12
-0.09988352 -0.10153882 0.24480185 255 12 12
-0.09726035 -0.10177376 0.24676855 255 12 12
-0.09382342 -0.10182449 0.24629539 255 12 12
-0.08691129 -0.10140609 0.23916979 255 12 12
-0.08422521 -0.10167101 0.24147247 255 12 12
-0.08144433 -0.10155598 0.23923807 255 12 12
-0.07853749 -0.10152654 0.23797963 255 12 12
-0.07595832 -0.10186215 0.24115432 255 12 12
-0.07316689 -0.10199070 0.24180612 255 12 12
-0.07030565 -0.10199184 0.24092481 255 12 12
-0.06750371 -0.10211397 0.24149722 255 12 12
-0.06466448 -0.10198175 0.23904066 255 12 12
-0.05911923 -0.10245987 0.24297814 255 12 12
-0.05631262 -0.10244283 0.24189822 255 12 12
-0.05342021 -0.10271862 0.24426529 255 12 12
-0.05049852 -0.10286558 0.24509480 255 12 12
-0.04772668 -0.10275344 0.24289751 255 12 12
-0.04136779 -0.10341920 0.24880663 255 12 12
-0.03850459 -0.10342470 0.24797627 255 12 12
-0.03560465 -0.10342720 0.24709885 255 12 12
-0.02868252 -0.10411596 0.25310473 255 12 12
-0.02543588 -0.10428208 0.25405989 255 12 12
-0.02220922 -0.10431601 0.25345322 255 12 12
-0.01885695 -0.10447546 0.25429620 255 12 12
-0.01552625 -0.10460938 0.25484319 255 12 12
-0.01327722 -0.10432260 0.25073765 255 12 12
