ply
format ascii 1.0
element vertex 195
property float x
property float y
property float z
property uchar red
property uchar green
property uchar blue
end_header
0.13406237 -0.16974430 0.98076246 255 12 12
-0.05202212 -0.08271357 0.00650428 255 12 12
-0.05245592 -0.08266951 0.00611730 255 12 12
-0.05411590 -0.08263231 0.00619520 255 12 12
-0.05456706 -0.08258991 0.00583333 255 12 12
-0.05563213 -0.08256416 0.00586101 255 12 12
-0.05609770 -0.08252295 0.00551773 255 12 12
-0.05696330 -0.08240238 0.00435816 255 12 12
-0.05753114 -0.08233780 0.00376961 255 12 12
-0.05882651 -0.08241688 0.00511289 255 12 12
-0.05939408 -0.08241802 0.00530394 255 12 12
-0.05995882 -0.08248314 0.00625317 255 12 12
-0.06049337 -0.08248660 0.00646135 255 12 12
-0.06104138 -0.08253232 0.00717512 255 12 12
-0.06264983 -0.08305219 0.01384552 255 12 12
-0.06398129 -0.08371105 0.02207816 255 12 12
-0.06429571 -0.08366192 0.02159374 255 12 12
-0.06456563 -0.08369822 0.02210874 255 12 12
-0.06487979 -0.08367082 0.02188196 255 12 12
-0.06522347 -0.08362213 0.02141185 255 12 12
-0.06549557 -0.08363837 0.02168963 255 12 12
-0.06579606 -0.08363335 0.02172411 255 12 12
-0.06607841 -0.08362897 0.02176037 255 12 12
-0.06674180 -0.08372640 0.02312378 255 12 12
-0.06784561 -0.08363026 0.02232851 255 12 12
-0.06869794 -0.08371235 0.02356891 255 12 12
-0.06889638 -0.08373375 0.02388489 255 12 12
-0.06925561 -0.08371150 0.02373329 255 12 12
-0.06998339 -0.08373487 0.02423814 255 12 12
-0.07113698 -0.08358386 0.02280745 255 12 12
-0.07150923 -0.08356388 0.02268685 255 12 12
-0.07179540 -0.08356625 0.02280457 255 12 12
-0.08038085 -0.08233666 0.01090306 255 12 12
-0.08272337 -0.08211988 0.00906398 255 12 12
-0.08381333 -0.08199867 0.00796699 255 12 12
-0.08456135 -0.08196745 0.00783058 255 12 12
-0.08492233 -0.08200109 0.00834263 255 12 12
-0.08540776 -0.08201405 0.00864813 255 12 12
-0.08577008 -0.08204936 0.00918037 255 12 12
-0.08597195 -0.08210598 0.00991519 255 12 12
-0.08586181 -0.08220453 0.01104991 255 12 12
-0.08617185 -0.08224071 0.01157606 255 12 12
-0.08690155 -0.08221445 0.01149279 255 12 12
-0.08749469 -0.08221019 0.01162777 255 12 12
-0.08731592 -0.08230952 0.01275024 255 12 12
-0.08742516 -0.08236773 0.01347489 255 12 12
-0.08974488 -0.08222348 0.01248925 255 12 12
-0.09033756 -0.08222349 0.01267472 255 12 12
-0.09110660 -0.08220486 0.01269427 255 12 12
-0.09185543 -0.08218611 0.01270605 255 12 12
-0.09227952 -0.08220874 0.01310712 255 12 12
-0.09304907 -0.08219292 0.01316016 255 12 12
-0.09346674 -0.08221710 0.01357771 255 12 12
-0.09389459 -0.08224291 0.01401772 255 12 12
-0.09322525 -0.08244655 0.01622418 255 12 12
-0.09285681 -0.08254767 0.01730849 255 12 12
-0.09283674 -0.08261035 0.01804581 255 12 12
-0.09198127 -0.08280906 0.02013558 255 12 12
-0.09191466 -0.08287121 0.02085201 255 12 12
-0.09221302 -0.08289580 0.02123706 255 12 12
-0.09251806 -0.08292189 0.02164199 255 12 12
-0.09241179 -0.08298364 0.02234132 255 12 12
-0.09507097 -0.08286724 0.02179217 255 12 12
-0.09798304 -0.08274279 0.02122666 255 12 12
-0.09935700 -0.08269329 0.02106913 255 12 12
-0.10009282 -0.08269489 0.02131825 255 12 12
-0.10083459 -0.08269855 0.02159377 255 12 12
-0.10178801 -0.08268693 0.02175405 255 12 12
-0.10209095 -0.08272515 0.02230225 255 12 12
-0.10491460 -0.08265167 0.02231372 255 12 12
-0.10633244 -0.08261839 0.02236242 255 12 12
-0.10707871 -0.08263254 0.02276370 255 12 12
-0.10535555 -0.08286684 0.02500430 255 12 12
-0.10515108 -0.08293882 0.02579417 255 12 12
-0.09881588 -0.08347136 0.03013029 255 12 12
-0.10667340 -0.08325153 0.02998014 255 12 12
-0.10853431 -0.08321239 0.03009778 255 12 12
-0.09861841 -0.08394177 0.03564905 255 12 12
-0.09871802 -0.08397898 0.03612163 255 12 12
-0.09906053 -0.08400767 0.03656917 255 12 12
-0.09890500 -0.08405730 0.03710934 255 12 12
-0.09800107 -0.08413602 0.03776040 255 12 12
-0.09833082 -0.08416989 0.03826535 255 12 12
-0.09963958 -0.08416484 0.03861484 255 12 12
-0.10174902 -0.08418063 0.03946194 255 12 12
-0.10179824 -0.08422353 0.03998626 255 12 12
-0.58314655 -0.06936005 0.01421455 255 12 12
-0.58052740 -0.07005947 0.02169259 255 12 12
-0.60845191 -0.07052580 0.03595905 255 12 12
-0.60901757 -0.07116067 0.04366754 255 12 12
-0.59398010 -0.07218862 0.05115883 255 12 12
-0.57834916 -0.07317152 0.05793010 255 12 12
-0.56511970 -0.07408725 0.06465568 255 12 12
-0.55705195 -0.07484938 0.07117354 255 12 12
-0.55038727 -0.07557603 0.07770939 255 12 12
-0.54612734 -0.07624169 0.08427376 255 12 12
-0.54451521 -0.07685082 0.09099578 255 12 12
-0.54158175 -0.07746877 0.09740911 255 12 12
-0.54028212 -0.07806709 0.10410060 255 12 12
-0.54017044 -0.07876986 0.11240273 255 12 12
-0.53983243 -0.07938902 0.11964225 255 12 12
-0.54039114 -0.07998861 0.12693006 255 12 12
-0.54302294 -0.08058277 0.13480181 255 12 12
-0.54505719 -0.08107773 0.14130993 255 12 12
-0.54655961 -0.08166509 0.14874781 255 12 12
-0.55013800 -0.08224597 0.15675813 255 12 12
-0.55673922 -0.08282336 0.16567261 255 12 12
-0.56145552 -0.08344190 0.17448563 255 12 12
-0.56196225 -0.08407731 0.18218205 255 12 12
-0.56378889 -0.08471694 0.19034148 255 12 12
-0.56930443 -0.08536559 0.19976163 255 12 12
-0.56604728 -0.08603822 0.20672242 255 12 12
-0.55800761 -0.08668436 0.21187303 255 12 12
-0.19913622 -0.08842170 0.12023540 255 12 12
-0.19928234 -0.08864904 0.12297806 255 12 12
-0.19779955 -0.08881525 0.12448608 255 12 12
-0.19536166 -0.08897214 0.12558478 255 12 12
-0.19334014 -0.08913642 0.12690131 255 12 12
-0.19234926 -0.08932831 0.12886784 255 12 12
-0.19022579 -0.08949839 0.13022130 255 12 12
-0.18650573 -0.08960390 0.13030948 255 12 12
-0.18424818 -0.08974740 0.13130572 255 12 12
-0.18276255 -0.08991992 0.13288763 255 12 12
-0.17408409 -0.09002629 0.13143512 255 12 12
-0.17204844 -0.09015772 0.13235758 255 12 12
-0.16788314 -0.09019505 0.13149762 255 12 12
-0.16341224 -0.09020203 0.13018205 255 12 12
-0.16046743 -0.09027410 0.13011594 255 12 12
-0.15830508 -0.09037479 0.13063404 255 12 12
-0.15703100 -0.09052287 0.13199220 255 12 12
-0.15213628 -0.09071156 0.13269980 255 12 12
-0.15782978 -0.09153044 0.14419513 255 12 12
-0.15663914 -0.09168262 0.14562797 255 12 12
-0.15465080 -0.09180007 0.14639942 255 12 12
-0.15301393 -0.09193509 0.14748919 255 12 12
-0.15069467 -0.09202338 0.14781118 255 12 12
-0.14914319 -0.09217129 0.14908065 255 12 12
-0.14744774 -0.09230261 0.15010820 255 12 12
-0.14452664 -0.09233027 0.14952264 255 12 12
-0.14268203 -0.09244264 0.15027881 255 12 12
-0.14173766 -0.09262934 0.15219820 255 12 12
-0.13972306 -0.09272483 0.15270092 255 12 12
-0.13271385 -0.09259702 0.14899231 255 12 12
-0.13114628 -0.09272309 0.14999768 255 12 12
-0.12880776 -0.09275857 0.14968707 255 12 12
-0.12636461 -0.09277496 0.14911734 255 12 12
-0.12370225 -0.09275666 0.14806751 255 12 12
-0.12181314 -0.09282362 0.14827103 255 12 12
-0.12123336 -0.09305698 0.15085812 255 12 12
-0.12012965 -0.09322994 0.15256467 255 12 12
-0.11809231 -0.09327635 0.15247808 255 12 12
-0.11709617 -0.09348403 0.15463023 255 12 12
-0.11738762 -0.09427544 0.16411000 255 12 12
-0.11549922 -0.09437152 0.16465917 255 12 12
-0.11348209 -0.09442738 0.16469093 255 12 12
-0.11190156 -0.09456779 0.16586229 255 12 12
-0.11029743 -0.09470711 0.16701331 255 12 12
-0.10841406 -0.09479278 0.16744051 255 12 12
-0.10665763 -0.09491340 0.16832215 255 12 12
-0.10476243 -0.09499475 0.16869437 255 12 12
-0.10279045 -0.09505567 0.16880033 255 12 12
-0.10118156 -0.09520512 0.17007005 255 12 12
-0.09940787 -0.09531676 0.17083971 255 12 12
-0.09768424 -0.09544530 0.17182545 255 12 12
-0.09551196 -0.09544110 0.17109613 255 12 12
-0.09331040 -0.09541423 0.17008883 255 12 12
-0.09109069 -0.09536427 0.16880184 255 12 12
-0.08856098 -0.09517533 0.16576921 255 12 12
-0.08654770 -0.09515463 0.16489386 255 12 12
-0.08452161 -0.09511087 0.16374098 255 12 12
-0.08227925 -0.09509471 0.16284792 255 12 12
-0.08058465 -0.09522433 0.16385563 255 12 12
-0.07899117 -0.09543260 0.16582798 255 12 12
-0.07737020 -0.09566070 0.16802690 255 12 12
-0.07508222 -0.09685803 0.18151548 255 12 12
-0.07321818 -0.09708761 0.18365594 255 12 12
-0.07126618 -0.09727543 0.18527351 255 12 12
-0.06916990 -0.09742304 0.18636902 255 12 12
-0.06705499 -0.09748448 0.18643637 255 12 12
-0.06498151 -0.09756317 0.18672138 255 12 12
-0.06285872 -0.09772463 0.18797277 255 12 12
-0.06074335 -0.09786230 0.18894430 255 12 12
-0.05854369 -0.09804143 0.19038145 255 12 12
-0.05645654 -0.09800521 0.18929888 255 12 12
-0.05300962 -0.09719442 0.17860225 255 12 12
-0.05093611 -0.09733971 0.17967723 255 12 12
0.05005362 -0.16855326 0.99290921 255 12 12
0.06475954 -0.16888765 0.99227640 255 12 12
0.07899136 -0.16921783 0.99174197 255 12 12
0.09277416 -0.16941834 0.98980965 255 12 12
0.10661351 -0.16951698 0.98665123 255 12 12
0.12111817 -0.16958287 0.98289603 255 12 12
0.13529361 -0.16973331 0.98024700 255 12 12
0.14917603 -0.16986305 0.97744396 255 12 12
0.16298018 -0.16986629 0.97316470 255 12 12
