ply
format ascii 1.0
element vertex 153
property float x
property float y
property float z
property uchar red
property uchar green
property uchar blue
end_header
0.05367493 -0.12564034 0.48269255 255 12 12
-0.05527364 -0.08266570 0.00695346 255 12 12
-0.05570051 -0.08262549 0.00660993 255 12 12
-0.05617186 -0.08260532 0.00651809 255 12 12
-0.05665444 -0.08258521 0.00643051 255 12 12
-0.05716857 -0.08258567 0.00659678 255 12 12
-0.05768735 -0.08258648 0.00676861 255 12 12
-0.05821299 -0.08254519 0.00644314 255 12 12
-0.05868646 -0.08250651 0.00613243 255 12 12
-0.05985666 -0.08261311 0.00776305 255 12 12
-0.06105942 -0.08293155 0.01191689 255 12 12
-0.06288846 -0.08378067 0.02256232 255 12 12
-0.06401463 -0.08364724 0.02133160 255 12 12
-0.06432714 -0.08359816 0.02084709 255 12 12
-0.06564991 -0.08369916 0.02245910 255 12 12
-0.06581467 -0.08376004 0.02323277 255 12 12
-0.06664267 -0.08372756 0.02310651 255 12 12
-0.06793093 -0.08373743 0.02362650 255 12 12
-0.06825510 -0.08371404 0.02345046 255 12 12
-0.07182611 -0.08361218 0.02335905 255 12 12
-0.07424303 -0.08322573 0.01953040 255 12 12
-0.07805283 -0.08265109 0.01390498 255 12 12
-0.08080010 -0.08232071 0.01084498 255 12 12
-0.08274702 -0.08221746 0.01022904 255 12 12
-0.08331808 -0.08220675 0.01028062 255 12 12
-0.08361717 -0.08223908 0.01075772 255 12 12
-0.08418670 -0.08222968 0.01082433 255 12 12
-0.08474923 -0.08222076 0.01089447 255 12 12
-0.08475891 -0.08229698 0.01180164 255 12 12
-0.08491705 -0.08235314 0.01251732 255 12 12
-0.08533590 -0.08236729 0.01281618 255 12 12
-0.08544388 -0.08242322 0.01351353 255 12 12
-0.08569710 -0.08245897 0.01401687 255 12 12
-0.08593286 -0.08249477 0.01451530 255 12 12
-0.08663884 -0.08246991 0.01444120 255 12 12
-0.08782268 -0.08238474 0.01380101 255 12 12
-0.08854868 -0.08236225 0.01376131 255 12 12
-0.08891833 -0.08237948 0.01408134 255 12 12
-0.09070285 -0.08229828 0.01367629 255 12 12
-0.09144181 -0.08227959 0.01368567 255 12 12
-0.09183626 -0.08230119 0.01406527 255 12 12
-0.09187171 -0.08236228 0.01480114 255 12 12
-0.09224350 -0.08238429 0.01517842 255 12 12
-0.09207324 -0.08246485 0.01608090 255 12 12
-0.09097251 -0.08270330 0.01856535 255 12 12
-0.09074243 -0.08278266 0.01943486 255 12 12
-0.09049383 -0.08286158 0.02029339 255 12 12
-0.09037104 -0.08291793 0.02092352 255 12 12
-0.09103254 -0.08300441 0.02215632 255 12 12
-0.09113525 -0.08304819 0.02270778 255 12 12
-0.09161168 -0.08305497 0.02293723 255 12 12
-0.09249659 -0.08302775 0.02289115 255 12 12
-0.09380118 -0.08296764 0.02258603 255 12 12
-0.09490480 -0.08292625 0.02244030 255 12 12
-0.09539205 -0.08293791 0.02273096 255 12 12
-0.09608373 -0.08293314 0.02289073 255 12 12
-0.09720995 -0.08289726 0.02281736 255 12 12
-0.09835515 -0.08286473 0.02278958 255 12 12
-0.09949637 -0.08283298 0.02276994 255 12 12
-0.10086325 -0.08278746 0.02265750 255 12 12
-0.10113687 -0.08282274 0.02316152 255 12 12
-0.10415661 -0.08273189 0.02302831 255 12 12
-0.10420520 -0.08278679 0.02369475 255 12 12
-0.10515011 -0.08278267 0.02394149 255 12 12
-0.10584163 -0.08279074 0.02425350 255 12 12
-0.10216377 -0.08317968 0.02771715 255 12 12
-0.10593169 -0.08328265 0.03011729 255 12 12
-0.10634467 -0.08331395 0.03061783 255 12 12
-0.10578951 -0.08339407 0.03139464 255 12 12
-0.09515121 -0.08407662 0.03616434 255 12 12
-0.09524779 -0.08411148 0.03660810 255 12 12
-0.09689287 -0.08411876 0.03720910 255 12 12
-0.09884215 -0.08416030 0.03831158 255 12 12
-0.09816231 -0.08422610 0.03887954 255 12 12
-0.44332853 -0.07324945 0.01662284 255 12 12
-0.44566458 -0.07361416 0.02168006 255 12 12
-0.45042456 -0.07390200 0.02658358 255 12 12
-0.45362551 -0.07425398 0.03176041 255 12 12
-0.45550515 -0.07464052 0.03693394 255 12 12
-0.45531683 -0.07509506 0.04226727 255 12 12
-0.45330898 -0.07556855 0.04725642 255 12 12
-0.44948397 -0.07609989 0.05236345 255 12 12
-0.48450383 -0.07667775 0.07017223 255 12 12
-0.48162554 -0.07721015 0.07558792 255 12 12
-0.47519248 -0.07780354 0.08061526 255 12 12
-0.47193205 -0.07832768 0.08581347 255 12 12
-0.47601450 -0.07875368 0.09214402 255 12 12
-0.47779774 -0.07920674 0.09807648 255 12 12
-0.47159597 -0.07976829 0.10279853 255 12 12
-0.46186902 -0.08037235 0.10692224 255 12 12
-0.45245176 -0.08102545 0.11172451 255 12 12
-0.45145056 -0.08151488 0.11721752 255 12 12
-0.45431118 -0.08196006 0.12339352 255 12 12
-0.45289968 -0.08245787 0.12885762 255 12 12
-0.44992758 -0.08288141 0.13295260 255 12 12
-0.44843338 -0.08335790 0.13813788 255 12 12
-0.44834785 -0.08381829 0.14357284 255 12 12
-0.45104900 -0.08428230 0.14992233 255 12 12
-0.46762074 -0.08523350 0.16638992 255 12 12
-0.46451673 -0.08572973 0.17130593 255 12 12
-0.45870884 -0.08622776 0.17539762 255 12 12
-0.45219290 -0.08670341 0.17900226 255 12 12
-0.45148588 -0.08720237 0.18470036 255 12 12
-0.45868195 -0.08773877 0.19331455 255 12 12
-0.46241689 -0.08828542 0.20096778 255 12 12
-0.45954060 -0.08879296 0.20608920 255 12 12
-0.45567870 -0.08928926 0.21076893 255 12 12
-0.44998065 -0.08975052 0.21445871 255 12 12
-0.67476485 -0.09390791 0.33408681 255 12 12
-0.66132879 -0.09456888 0.33772540 255 12 12
-0.20453799 -0.10982971 0.37589213 255 12 12
-0.20082838 -0.11026113 0.37984993 255 12 12
-0.19648903 -0.11058842 0.38237535 255 12 12
-0.19175869 -0.11082006 0.38364370 255 12 12
-0.18658486 -0.11098162 0.38394210 255 12 12
-0.18184681 -0.11120194 0.38507379 255 12 12
-0.17716352 -0.11145779 0.38664420 255 12 12
-0.17227043 -0.11171876 0.38820969 255 12 12
-0.16732912 -0.11191004 0.38893334 255 12 12
-0.16252531 -0.11213220 0.39006626 255 12 12
-0.15790565 -0.11240475 0.39185463 255 12 12
-0.15325523 -0.11267294 0.39358171 255 12 12
-0.14857486 -0.11293672 0.39524699 255 12 12
-0.14392081 -0.11321504 0.39709303 255 12 12
-0.13907549 -0.11343159 0.39814649 255 12 12
-0.13397264 -0.11367479 0.39943558 255 12 12
-0.12917886 -0.11396270 0.40135168 255 12 12
-0.12444342 -0.11424226 0.40318704 255 12 12
-0.11995448 -0.11471891 0.40743756 255 12 12
-0.11551185 -0.11559075 0.41639085 255 12 12
-0.09619386 -0.12394819 0.50949441 255 12 12
-0.08987077 -0.12423173 0.51088032 255 12 12
-0.08338616 -0.12426054 0.50919388 255 12 12
-0.07665487 -0.12416300 0.50593125 255 12 12
-0.07016077 -0.12413499 0.50356773 255 12 12
-0.06386117 -0.12415727 0.50186174 255 12 12
-0.05748417 -0.12417427 0.50006871 255 12 12
-0.05130099 -0.12411608 0.49744451 255 12 12
-0.04506461 -0.12405191 0.49473259 255 12 12
-0.03895695 -0.12408264 0.49318678 255 12 12
-0.03273141 -0.12415076 0.49204769 255 12 12
-0.02673711 -0.12424917 0.49134017 255 12 12
-0.02070438 -0.12427818 0.48979751 255 12 12
-0.01443679 -0.12451533 0.49065045 255 12 12
-0.00792500 -0.12489739 0.49314613 255 12 12
-0.00142689 -0.12506024 0.49304558 255 12 12
0.00491949 -0.12519205 0.49262424 255 12 12
0.01114359 -0.12531486 0.49213436 255 12 12
0.01740177 -0.12538815 0.49104639 255 12 12
0.02401106 -0.12545735 0.48980000 255 12 12
0.03025527 -0.12547200 0.48802081 255 12 12
0.03661863 -0.12558722 0.48739734 255 12 12
0.04327858 -0.12576142 0.48738072 255 12 12
