ply
format ascii 1.0
element vertex 101
property float x
property float y
property float z
property uchar red
property uchar green
property uchar blue
end_header
-0.03503238 -0.10141937 0.22310064 255 12 12
-0.44775471 -0.08360497 0.14085670 255 12 12
-0.44625541 -0.08412793 0.14659170 255 12 12
-0.44584206 -0.08465802 0.15275102 255 12 12
-0.44751407 -0.08518022 0.15946892 255 12 12
-0.46326896 -0.08628692 0.17752576 255 12 12
-0.25345568 -0.08670473 0.11685667 255 12 12
-0.24978340 -0.08695353 0.11865967 255 12 12
-0.24653962 -0.08720376 0.12061361 255 12 12
-0.24190690 -0.08743285 0.12188228 255 12 12
-0.23750579 -0.08765426 0.12313238 255 12 12
-0.23380755 -0.08787072 0.12454358 255 12 12
-0.22963586 -0.08807699 0.12568574 255 12 12
-0.22515615 -0.08828749 0.12678170 255 12 12
-0.22075456 -0.08847468 0.12762565 255 12 12
-0.21726348 -0.08866551 0.12879760 255 12 12
-0.21353329 -0.08884830 0.12979928 255 12 12
-0.21073987 -0.08903146 0.13109845 255 12 12
-0.20767945 -0.08921191 0.13228192 255 12 12
-0.20440661 -0.08938052 0.13325851 255 12 12
-0.20092909 -0.08953630 0.13401890 255 12 12
-0.19766801 -0.08969111 0.13483538 255 12 12
-0.19543611 -0.08987283 0.13629312 255 12 12
-0.19197802 -0.09000866 0.13682281 255 12 12
-0.18853478 -0.09013707 0.13726924 255 12 12
-0.18589841 -0.09028883 0.13824494 255 12 12
-0.18287105 -0.09041969 0.13885051 255 12 12
-0.18062513 -0.09057766 0.14002201 255 12 12
-0.17951339 -0.09078369 0.14211852 255 12 12
-0.17879561 -0.09100086 0.14447024 255 12 12
-0.17760599 -0.09120749 0.14654944 255 12 12
-0.17585957 -0.09138209 0.14807454 255 12 12
-0.17514542 -0.09161703 0.15063837 255 12 12
-0.17470017 -0.09190737 0.15394341 255 12 12
-0.17398024 -0.09216345 0.15675612 255 12 12
-0.17374531 -0.09245049 0.16008786 255 12 12
-0.17373753 -0.09276675 0.16383725 255 12 12
-0.17287847 -0.09299584 0.16628639 255 12 12
-0.17180078 -0.09324306 0.16888205 255 12 12
-0.17082927 -0.09350323 0.17166460 255 12 12
-0.17042733 -0.09381366 0.17522166 255 12 12
-0.17005849 -0.09414364 0.17902088 255 12 12
-0.16948336 -0.09446155 0.18261240 255 12 12
-0.16882272 -0.09478285 0.18621737 255 12 12
-0.16749503 -0.09505425 0.18902186 255 12 12
-0.16671505 -0.09537742 0.19261164 255 12 12
-0.16678154 -0.09580368 0.19768923 255 12 12
-0.16675963 -0.09623291 0.20277446 255 12 12
-0.16536838 -0.09654301 0.20601802 255 12 12
-0.16415321 -0.09690885 0.20997807 255 12 12
-0.16368494 -0.09735963 0.21517920 255 12 12
-0.16300411 -0.09779747 0.22016047 255 12 12
-0.16226308 -0.09825917 0.22540596 255 12 12
-0.16162653 -0.09878007 0.23138638 255 12 12
-0.16104022 -0.09931610 0.23756196 255 12 12
-0.15876254 -0.09963389 0.24061952 255 12 12
-0.15504522 -0.09973971 0.24071223 255 12 12
-0.15202570 -0.09988817 0.24152901 255 12 12
-0.14917749 -0.10011336 0.24330958 255 12 12
-0.14587525 -0.10024799 0.24387390 255 12 12
-0.14206282 -0.10029557 0.24324591 255 12 12
-0.13763254 -0.10026207 0.24146276 255 12 12
-0.13344289 -0.10020984 0.23953272 255 12 12
-0.12954533 -0.10018137 0.23797585 255 12 12
-0.12565900 -0.10014794 0.23636367 255 12 12
-0.12189125 -0.10010392 0.23466303 255 12 12
-0.11827696 -0.10009167 0.23338723 255 12 12
-0.11483385 -0.10008852 0.23227291 255 12 12
-0.11144818 -0.10010025 0.23135311 255 12 12
-0.10854881 -0.10019329 0.23154999 255 12 12
-0.10549621 -0.10026807 0.23148225 255 12 12
-0.10235427 -0.10029994 0.23087766 255 12 12
-0.09933490 -0.10036551 0.23071113 255 12 12
-0.09569737 -0.10036725 0.22959395 255 12 12
-0.09246516 -0.10034788 0.22835321 255 12 12
-0.08931530 -0.10034252 0.22730444 255 12 12
-0.08617479 -0.10031164 0.22595584 255 12 12
-0.08364632 -0.10038185 0.22599787 255 12 12
-0.08084475 -0.10047963 0.22628152 255 12 12
-0.07793858 -0.10047189 0.22528072 255 12 12
-0.07506701 -0.10045941 0.22423448 255 12 12
-0.07224272 -0.10071520 0.22638557 255 12 12
-0.06945320 -0.10096606 0.22848910 255 12 12
-0.06662380 -0.10108832 0.22905450 255 12 12
-0.06372667 -0.10118773 0.22932772 255 12 12
-0.06083120 -0.10122033 0.22880872 255 12 12
-0.05796600 -0.10120638 0.22774711 255 12 12
-0.05516153 -0.10122930 0.22714187 255 12 12
-0.05229452 -0.10129198 0.22698867 255 12 12
-0.04946742 -0.10130799 0.22629431 255 12 12
-0.04661412 -0.10136288 0.22605302 255 12 12
-0.04389371 -0.10134836 0.22502993 255 12 12
-0.04112094 -0.10135219 0.22420802 255 12 12
-0.03839974 -0.10139388 0.22385146 255 12 12
-0.03567247 -0.10141091 0.22320049 255 12 12
-0.03291773 -0.10144593 0.22275429 255 12 12
-0.03007966 -0.10152090 0.22275604 255 12 12
-0.02694037 -0.10155220 0.22214546 255 12 12
-0.02410490 -0.10157635 0.22154504 255 12 12
-0.02110761 -0.10166230 0.22162715 255 12 12
-0.01815881 -0.10172239 0.22141774 255 12 12
