ply
format ascii 1.0
element vertex 219
property float x
property float y
property float z
property uchar red
property uchar green
property uchar blue
end_header
0.01004956 -0.11074079 0.31958164 255 12 12
0.01448751 -0.11079892 0.31888309 255 12 12
0.01806616 -0.11058706 0.31525042 255 12 12
0.02140068 -0.11032506 0.31109934 255 12 12
0.02471716 -0.11012331 0.30766860 255 12 12
0.02907972 -0.11017948 0.30697042 255 12 12
0.03457183 -0.11053751 0.30950000 255 12 12
0.03952069 -0.11071311 0.31003530 255 12 12
0.04385831 -0.11072876 0.30886417 255 12 12
0.04953820 -0.11104473 0.31083608 255 12 12
0.05322765 -0.11091707 0.30816760 255 12 12
0.05506631 -0.11039014 0.30134147 255 12 12
0.05861435 -0.11022830 0.29831178 255 12 12
0.06202718 -0.11006184 0.29526948 255 12 12
0.06594642 -0.10999831 0.29328997 255 12 12
0.07065859 -0.11008010 0.29278639 255 12 12
0.07750651 -0.11032768 0.29358154 255 12 12
0.08368030 -0.11058013 0.29464546 255 12 12
0.08727592 -0.11039758 0.29135513 255 12 12
0.09126843 -0.11027108 0.28860565 255 12 12
0.09522754 -0.11031256 0.28785942 255 12 12
0.09986033 -0.11032925 0.28660833 255 12 12
0.10406687 -0.11027578 0.28465827 255 12 12
0.10752689 -0.11011123 0.28162395 255 12 12
0.11322136 -0.11025065 0.28149684 255 12 12
0.11571046 -0.10994928 0.27714313 255 12 12
0.12623723 -0.11009045 0.27552523 255 12 12
0.12723889 -0.10958448 0.26920956 255 12 12
0.13309745 -0.10970463 0.26880241 255 12 12
0.14026091 -0.10997799 0.26980479 255 12 12
0.14316766 -0.10914348 0.25899563 255 12 12
0.16089473 -0.10996949 0.26325008 255 12 12
0.16544916 -0.10987565 0.26071236 255 12 12
0.16854556 -0.10977316 0.25852801 255 12 12
0.17318939 -0.10971887 0.25643140 255 12 12
0.17763393 -0.10963791 0.25408079 255 12 12
0.18035045 -0.10938181 0.25019295 255 12 12
0.19788014 -0.10987105 0.25051398 255 12 12
0.20399853 -0.10988696 0.24878896 255 12 12
0.20958060 -0.10983312 0.24640432 255 12 12
0.21399369 -0.10965793 0.24294567 255 12 12
0.24834379 -0.11084693 0.24630695 255 12 12
0.25538330 -0.11085050 0.24414752 255 12 12
0.26487995 -0.11101031 0.24307294 255 12 12
0.27479468 -0.11118942 0.24209665 255 12 12
0.30745017 -0.11236294 0.24580433 255 12 12
0.31300547 -0.11213044 0.24130848 255 12 12
0.31339067 -0.11153254 0.23409503 255 12 12
0.34080477 -0.11193552 0.23030111 255 12 12
0.34799283 -0.11171096 0.22538876 255 12 12
0.35604755 -0.11152630 0.22067877 255 12 12
0.36313224 -0.11126627 0.21537802 255 12 12
0.36713776 -0.11098202 0.21075303 255 12 12
0.39148145 -0.11106779 0.20415639 255 12 12
0.40034030 -0.11088664 0.19923645 255 12 12
0.41090289 -0.11075360 0.19435444 255 12 12
0.41612679 -0.11033210 0.18772017 255 12 12
0.41881871 -0.10978666 0.18040755 255 12 12
0.42650018 -0.10947188 0.17427059 255 12 12
0.43092333 -0.10899844 0.16727064 255 12 12
0.43479217 -0.10848050 0.15991611 255 12 12
0.44437756 -0.10822477 0.15388416 255 12 12
0.44951541 -0.10774239 0.14655463 255 12 12
0.45452060 -0.10725709 0.13923191 255 12 12
0.46683438 -0.10704692 0.13288704 255 12 12
0.50309170 -0.10699116 0.12088501 255 12 12
0.52163442 -0.10690359 0.11404637 255 12 12
0.54158962 -0.10681882 0.10679910 255 12 12
0.55397625 -0.10644098 0.09844237 255 12 12
0.56077728 -0.10583641 0.08914302 255 12 12
0.56942189 -0.10528779 0.07993077 255 12 12
0.72326990 -0.10594647 0.03962414 255 12 12
0.86993946 -0.10729672 0.00976701 255 12 12
0.89178894 -0.10653528 -0.00610019 255 12 12
0.90689767 -0.10559656 -0.02196211 255 12 12
-0.00708697 -0.08467675 0.01573907 255 12 12
-0.02275017 -0.08440625 0.01742914 255 12 12
-0.02378898 -0.08436027 0.01720859 255 12 12
-0.02237889 -0.08416115 0.01440540 255 12 12
-0.02265437 -0.08408574 0.01359696 255 12 12
-0.02994205 -0.08413162 0.01642070 255 12 12
-0.03249808 -0.08410208 0.01686968 255 12 12
-0.03195184 -0.08385366 0.01375187 255 12 12
-0.03206454 -0.08378017 0.01291530 255 12 12
-0.03417042 -0.08366920 0.01225741 255 12 12
-0.03794647 -0.08376440 0.01456793 255 12 12
-0.04000362 -0.08375639 0.01511636 255 12 12
-0.04060775 -0.08372645 0.01495013 255 12 12
-0.03912149 -0.08343735 0.01105559 255 12 12
-0.04125579 -0.08345902 0.01198021 255 12 12
-0.04114327 -0.08326542 0.00964832 255 12 12
-0.04223116 -0.08327797 0.01013749 255 12 12
-0.04455927 -0.08324654 0.01049282 255 12 12
-0.04508050 -0.08320846 0.01020407 255 12 12
-0.04993580 -0.08346304 0.01474289 255 12 12
-0.05071727 -0.08348193 0.01521140 255 12 12
-0.05117851 -0.08345300 0.01501247 255 12 12
-0.05313664 -0.08360678 0.01744929 255 12 12
-0.05817614 -0.08395586 0.02316670 255 12 12
-0.05832476 -0.08388415 0.02236242 255 12 12
-0.05854474 -0.08383118 0.02180287 255 12 12
-0.05896336 -0.08349283 0.01791989 255 12 12
-0.05944004 -0.08351651 0.01834987 255 12 12
-0.05980189 -0.08348148 0.01804751 255 12 12
-0.06019334 -0.08344591 0.01774800 255 12 12
-0.06065554 -0.08347180 0.01819968 255 12 12
-0.06109569 -0.08349899 0.01865998 255 12 12
-0.06150989 -0.08350651 0.01887874 255 12 12
-0.06238369 -0.08368998 0.02132854 255 12 12
-0.06306316 -0.08333494 0.01732922 255 12 12
-0.06345062 -0.08334586 0.01757995 255 12 12
-0.06385770 -0.08333580 0.01758791 255 12 12
-0.06423720 -0.08336894 0.01809975 255 12 12
-0.06561591 -0.08319314 0.01644541 255 12 12
-0.06604080 -0.08318550 0.01648769 255 12 12
-0.06733411 -0.08314453 0.01640620 255 12 12
-0.06776602 -0.08333103 0.01875379 255 12 12
-0.06910438 -0.08340661 0.02006899 255 12 12
-0.06945251 -0.08340515 0.02016054 255 12 12
-0.06988697 -0.08338213 0.02002339 255 12 12
-0.07017578 -0.08340363 0.02036872 255 12 12
-0.07046164 -0.08342564 0.02071929 255 12 12
-0.07083668 -0.08342623 0.02084353 255 12 12
-0.07136564 -0.08338339 0.02050081 255 12 12
-0.07190132 -0.08334113 0.02016702 255 12 12
-0.07236445 -0.08332147 0.02007869 255 12 12
-0.07262336 -0.08334609 0.02045174 255 12 12
-0.07636570 -0.08292961 0.01668143 255 12 12
-0.07903685 -0.08278915 0.01585058 255 12 12
-0.07960552 -0.08277793 0.01589537 255 12 12
-0.08016937 -0.08276739 0.01594674 255 12 12
-0.08033847 -0.08282155 0.01664212 255 12 12
-0.07927709 -0.08319443 0.02073366 255 12 12
-0.07955420 -0.08328250 0.02186515 255 12 12
-0.08005217 -0.08327530 0.02193543 255 12 12
-0.08055210 -0.08326892 0.02201620 255 12 12
-0.08105378 -0.08326339 0.02210753 255 12 12
-0.08202991 -0.08331012 0.02296713 255 12 12
-0.08368215 -0.08328442 0.02317903 255 12 12
-0.08238640 -0.08357041 0.02616651 255 12 12
-0.08215424 -0.08368219 0.02742003 255 12 12
-0.08089572 -0.08388468 0.02942850 255 12 12
-0.08187626 -0.08408997 0.03217064 255 12 12
-0.08725305 -0.08376611 0.03001029 255 12 12
-0.09483020 -0.08342933 0.02838503 255 12 12
-0.09552211 -0.08343677 0.02868976 255 12 12
-0.09873449 -0.08334153 0.02856468 255 12 12
-0.10409090 -0.08313975 0.02784626 255 12 12
-0.10551893 -0.08312404 0.02810658 255 12 12
-0.10670480 -0.08312312 0.02846657 255 12 12
-0.10788587 -0.08312418 0.02884859 255 12 12
-0.10859166 -0.08315392 0.02942210 255 12 12
-0.11016779 -0.08327293 0.03132694 255 12 12
-0.10938046 -0.08337567 0.03229950 255 12 12
-0.11412447 -0.08330283 0.03291920 255 12 12
-0.11452916 -0.08335611 0.03367789 255 12 12
-0.12459076 -0.08318859 0.03483759 255 12 12
-0.12496655 -0.08325784 0.03577676 255 12 12
-0.12657213 -0.08328597 0.03661261 255 12 12
-0.13685710 -0.08330959 0.04010978 255 12 12
-0.17266823 -0.08327185 0.05086302 255 12 12
-0.19372859 -0.08372726 0.06285302 255 12 12
-0.20374340 -0.08498544 0.08091137 255 12 12
-0.30224353 -0.08865496 0.15525252 255 12 12
-0.32474173 -0.09029739 0.18177401 255 12 12
-0.36066174 -0.09255866 0.21983495 255 12 12
-0.72509071 -0.11309254 0.57741862 255 12 12
-0.67196672 -0.11367179 0.56767424 255 12 12
-0.64926017 -0.11402218 0.56472877 255 12 12
-0.63062947 -0.11448747 0.56442122 255 12 12
-0.61491427 -0.11508198 0.56655866 255 12 12
-0.49202521 -0.11200575 0.49162740 255 12 12
-0.47919454 -0.11243273 0.49267953 255 12 12
-0.46723428 -0.11286521 0.49406925 255 12 12
-0.45881318 -0.11354081 0.49945007 255 12 12
-0.44873789 -0.11400218 0.50177195 255 12 12
-0.43594215 -0.11429927 0.50129418 255 12 12
-0.42323247 -0.11454489 0.50023266 255 12 12
-0.40734764 -0.11450667 0.49481071 255 12 12
-0.39338710 -0.11459584 0.49150203 255 12 12
-0.36688433 -0.11470885 0.48455316 255 12 12
-0.35641653 -0.11496869 0.48436150 255 12 12
-0.34360709 -0.11495297 0.48016848 255 12 12
-0.33258633 -0.11507994 0.47822767 255 12 12
-0.32195698 -0.11521260 0.47647677 255 12 12
-0.31182755 -0.11536766 0.47514806 255 12 12
-0.30097528 -0.11549052 0.47321112 255 12 12
-0.28862224 -0.11530127 0.46710223 255 12 12
-0.24488497 -0.11312155 0.42756369 255 12 12
-0.23897655 -0.11355190 0.43082088 255 12 12
-0.22162245 -0.11344844 0.42416554 255 12 12
-0.20400596 -0.11323088 0.41607447 255 12 12
-0.19578222 -0.11311850 0.41216912 255 12 12
-0.18852639 -0.11316561 0.41045840 255 12 12
-0.18028579 -0.11294720 0.40528996 255 12 12
-0.17297335 -0.11289125 0.40233895 255 12 12
-0.15546947 -0.11180602 0.38398984 255 12 12
-0.14176723 -0.11141646 0.37508259 255 12 12
-0.12853136 -0.11088913 0.36468681 255 12 12
-0.12316329 -0.11115989 0.36621988 255 12 12
-0.11727547 -0.11110290 0.36370224 255 12 12
-0.11093562 -0.11069487 0.35687872 255 12 12
-0.10491323 -0.11037355 0.35118314 255 12 12
-0.09933029 -0.11026160 0.34810884 255 12 12
-0.09432257 -0.11043893 0.34864615 255 12 12
-0.08387290 -0.11028146 0.34350968 255 12 12
-0.07945722 -0.11071420 0.34726220 255 12 12
-0.07440006 -0.11052949 0.34348921 255 12 12
-0.06952120 -0.11054311 0.34212473 255 12 12
-0.06471130 -0.11092630 0.34516607 255 12 12
-0.05981007 -0.11126333 0.34763132 255 12 12
-0.03839171 -0.11363655 0.36908601 255 12 12
-0.03331802 -0.11356499 0.36665013 255 12 12
-0.02853151 -0.11331233 0.36215568 255 12 12
-0.02366548 -0.11320182 0.35932272 255 12 12
-0.01883078 -0.11306254 0.35615817 255 12 12
-0.01390106 -0.11306596 0.35465687 255 12 12
-0.00905085 -0.11304014 0.35283343 255 12 12
-0.00462130 -0.11283199 0.34897868 255 12 12
