ply
format ascii 1.0
element vertex 180
property float x
property float y
property float z
property uchar red
property uchar green
property uchar blue
end_header
0.00539307 -0.10996107 0.31178811 255 12 12
-0.08538998 -0.08252665 0.01472369 255 12 12
-0.08592649 -0.08252130 0.01482798 255 12 12
-0.08678061 -0.08247589 0.01455651 255 12 12
-0.08714034 -0.08249152 0.01485435 255 12 12
-0.08783794 -0.08246796 0.01479314 255 12 12
-0.08870682 -0.08242533 0.01455913 255 12 12
-0.08958603 -0.08238393 0.01434302 255 12 12
-0.09016587 -0.08238509 0.01453807 255 12 12
-0.09089508 -0.08236618 0.01454189 255 12 12
-0.09162899 -0.08234836 0.01456006 255 12 12
-0.09165609 -0.08240929 0.01529137 255 12 12
-0.09181129 -0.08244866 0.01580692 255 12 12
-0.09162339 -0.08252837 0.01669375 255 12 12
-0.09141014 -0.08260728 0.01756316 255 12 12
-0.09155915 -0.08264856 0.01809948 255 12 12
-0.09171244 -0.08269099 0.01865075 255 12 12
-0.09099896 -0.08286646 0.02050926 255 12 12
-0.09129583 -0.08288942 0.02087450 255 12 12
-0.09081711 -0.08298655 0.02187706 255 12 12
-0.09050404 -0.08306393 0.02269714 255 12 12
-0.09165062 -0.08305851 0.02299140 255 12 12
-0.09151013 -0.08311827 0.02365646 255 12 12
-0.09452709 -0.08296431 0.02277360 255 12 12
-0.09585264 -0.08290841 0.02252508 255 12 12
-0.09696651 -0.08287025 0.02242077 255 12 12
-0.09723795 -0.08290043 0.02286365 255 12 12
-0.09793497 -0.08289855 0.02305937 255 12 12
-0.10088019 -0.08278961 0.02268825 255 12 12
-0.10093278 -0.08284055 0.02330904 255 12 12
-0.10391072 -0.08274395 0.02309442 255 12 12
-0.10509529 -0.08272519 0.02324244 255 12 12
-0.10604615 -0.08272191 0.02350096 255 12 12
-0.10630816 -0.08276330 0.02407392 255 12 12
-0.10333026 -0.08305605 0.02661547 255 12 12
-0.10639075 -0.08325324 0.02991195 255 12 12
-0.10632024 -0.08330768 0.03053571 255 12 12
-0.10600703 -0.08337583 0.03124622 255 12 12
-0.10122716 -0.08370536 0.03366053 255 12 12
-0.09498673 -0.08411607 0.03658090 255 12 12
-0.09605460 -0.08410750 0.03681323 255 12 12
-0.09662523 -0.08411957 0.03713492 255 12 12
-0.09621086 -0.08417433 0.03765498 255 12 12
-0.24908633 -0.07944008 0.02930816 255 12 12
-0.26487646 -0.07937414 0.03346476 255 12 12
-0.27982041 -0.07941120 0.03857858 255 12 12
-0.28286873 -0.07957202 0.04143983 255 12 12
-0.28562875 -0.07974709 0.04438001 255 12 12
-0.28859872 -0.07992317 0.04739783 255 12 12
-0.29252820 -0.08007804 0.05046420 255 12 12
-0.29666228 -0.08024250 0.05370823 255 12 12
-0.29950584 -0.08043881 0.05692660 255 12 12
-0.30080412 -0.08067875 0.06017908 255 12 12
-0.30256609 -0.08090215 0.06338046 255 12 12
-0.30378072 -0.08114544 0.06664654 255 12 12
-0.30495039 -0.08139286 0.06994756 255 12 12
-0.30781095 -0.08161670 0.07349772 255 12 12
-0.31049916 -0.08192539 0.07800068 255 12 12
-0.31222118 -0.08219761 0.08176858 255 12 12
-0.31413206 -0.08247291 0.08563230 255 12 12
-0.31598293 -0.08275487 0.08955614 255 12 12
-0.31715809 -0.08299504 0.09277289 255 12 12
-0.31966011 -0.08326973 0.09681417 255 12 12
-0.32284638 -0.08354052 0.10102317 255 12 12
-0.32521890 -0.08383197 0.10522283 255 12 12
-0.32752476 -0.08413135 0.10949563 255 12 12
-0.32976242 -0.08443860 0.11384054 255 12 12
-0.33146910 -0.08474837 0.11804915 255 12 12
-0.33476835 -0.08506858 0.12287985 255 12 12
-0.33817833 -0.08541316 0.12803422 255 12 12
-0.34059365 -0.08575453 0.13283938 255 12 12
-0.34292875 -0.08610467 0.13772353 255 12 12
-0.34612500 -0.08646669 0.14301798 255 12 12
-0.34972656 -0.08683456 0.14850860 255 12 12
-0.34876527 -0.08719561 0.15249112 255 12 12
-0.34708211 -0.08754522 0.15611216 255 12 12
-0.34532102 -0.08790121 0.15978444 255 12 12
-0.33996869 -0.08824404 0.16217751 255 12 12
-0.33398642 -0.08855455 0.16398999 255 12 12
-0.32735899 -0.08883768 0.16527578 255 12 12
-0.32093787 -0.08911731 0.16658477 255 12 12
-0.31568458 -0.08939438 0.16822852 255 12 12
-0.31017660 -0.08966429 0.16970775 255 12 12
-0.30515219 -0.08992499 0.17122898 255 12 12
-0.30075414 -0.09019556 0.17306312 255 12 12
-0.29627658 -0.09042848 0.17442578 255 12 12
-0.29082926 -0.09065264 0.17538124 255 12 12
-0.28564901 -0.09086526 0.17628330 255 12 12
-0.28193729 -0.09111205 0.17805009 255 12 12
-0.27747364 -0.09135318 0.17951453 255 12 12
-0.27392375 -0.09159847 0.18131411 255 12 12
-0.26998828 -0.09181964 0.18270691 255 12 12
-0.26539902 -0.09201989 0.18364709 255 12 12
-0.26199402 -0.09222367 0.18499961 255 12 12
-0.25786521 -0.09241727 0.18600484 255 12 12
-0.25478207 -0.09263521 0.18762593 255 12 12
-0.25164992 -0.09285403 0.18924223 255 12 12
-0.24823274 -0.09307086 0.19074572 255 12 12
-0.24450480 -0.09325529 0.19176756 255 12 12
-0.24001801 -0.09339933 0.19207300 255 12 12
-0.23999869 -0.09410742 0.20046716 255 12 12
-0.23802131 -0.09437468 0.20301922 255 12 12
-0.23605113 -0.09463572 0.20549969 255 12 12
-0.23202292 -0.09479207 0.20609456 255 12 12
-0.22783327 -0.09493119 0.20643453 255 12 12
-0.22384080 -0.09507312 0.20686948 255 12 12
-0.22025705 -0.09522456 0.20754517 255 12 12
-0.21816979 -0.09547323 0.20984238 255 12 12
-0.21643011 -0.09573824 0.21244202 255 12 12
-0.21410601 -0.09597330 0.21450372 255 12 12
-0.21050056 -0.09610824 0.21497684 255 12 12
-0.20718231 -0.09626573 0.21580718 255 12 12
-0.20479818 -0.09646570 0.21743379 255 12 12
-0.20168016 -0.09662260 0.21831984 255 12 12
-0.19886813 -0.09680042 0.21954981 255 12 12
-0.19649655 -0.09701350 0.22133583 255 12 12
-0.19414970 -0.09724624 0.22336290 255 12 12
-0.19095749 -0.09739262 0.22410092 255 12 12
-0.18810152 -0.09755750 0.22516363 255 12 12
-0.18505134 -0.09770909 0.22600796 255 12 12
-0.18245835 -0.09789477 0.22739966 255 12 12
-0.18006458 -0.09811041 0.22920913 255 12 12
-0.17704483 -0.09824753 0.22989124 255 12 12
-0.17461155 -0.09845828 0.23163031 255 12 12
-0.17223507 -0.09863667 0.23300330 255 12 12
-0.16919909 -0.09876372 0.23356093 255 12 12
-0.16716802 -0.09900604 0.23580037 255 12 12
-0.16504286 -0.09925143 0.23804671 255 12 12
-0.16187910 -0.09942322 0.23909521 255 12 12
-0.15919385 -0.09960504 0.24041220 255 12 12
-0.15649075 -0.09978423 0.24169253 255 12 12
-0.15407939 -0.10001008 0.24361754 255 12 12
-0.15124287 -0.10014435 0.24432325 255 12 12
-0.14819604 -0.10026533 0.24480552 255 12 12
-0.14548893 -0.10043011 0.24591360 255 12 12
-0.14253013 -0.10056112 0.24654229 255 12 12
-0.13982412 -0.10069632 0.24729979 255 12 12
-0.13716861 -0.10087009 0.24853068 255 12 12
-0.13465636 -0.10107692 0.25019859 255 12 12
-0.13226883 -0.10131781 0.25230955 255 12 12
-0.12949708 -0.10150945 0.25371599 255 12 12
-0.12661386 -0.10165923 0.25459106 255 12 12
-0.12377687 -0.10180310 0.25541051 255 12 12
-0.12100115 -0.10198405 0.25668891 255 12 12
-0.11819494 -0.10211954 0.25741854 255 12 12
-0.11549681 -0.10231154 0.25885231 255 12 12
-0.11293637 -0.10255850 0.26098128 255 12 12
-0.11022350 -0.10276586 0.26259270 255 12 12
-0.10720875 -0.10291854 0.26346096 255 12 12
-0.10392070 -0.10292942 0.26256157 255 12 12
-0.10072499 -0.10293296 0.26160401 255 12 12
-0.09785221 -0.10311167 0.26282558 255 12 12
-0.09478165 -0.10333687 0.26453673 255 12 12
-0.09181899 -0.10353284 0.26593492 255 12 12
-0.08899799 -0.10380464 0.26827693 255 12 12
-0.08605584 -0.10407712 0.27058923 255 12 12
-0.08323998 -0.10427847 0.27209714 255 12 12
-0.08008991 -0.10436116 0.27209275 255 12 12
-0.07703608 -0.10447930 0.27253913 255 12 12
-0.07402625 -0.10480289 0.27543647 255 12 12
-0.07094771 -0.10514591 0.27854295 255 12 12
-0.06776686 -0.10540417 0.28061184 255 12 12
-0.06459325 -0.10561658 0.28213906 255 12 12
-0.06131355 -0.10582815 0.28362311 255 12 12
-0.05807538 -0.10597198 0.28431647 255 12 12
-0.05473454 -0.10615660 0.28546178 255 12 12
-0.05136758 -0.10644316 0.28780815 255 12 12
-0.04791481 -0.10666479 0.28935736 255 12 12
-0.04437958 -0.10692634 0.29135451 255 12 12
-0.04069772 -0.10727112 0.29429309 255 12 12
-0.03702686 -0.10759073 0.29693648 255 12 12
-0.03326872 -0.10786571 0.29902317 255 12 12
-0.02955737 -0.10815716 0.30131988 255 12 12
-0.02546061 -0.10859884 0.30527820 255 12 12
-0.02140684 -0.10895104 0.30818841 255 12 12
-0.01747869 -0.10919124 0.30980931 255 12 12
-0.01284064 -0.10960576 0.31327612 255 12 12
-0.00836591 -0.10999254 0.31646506 255 12 12
-0.00447495 -0.11009104 0.31641647 255 12 12
-0.00074193 -0.11011934 0.31558458 255 12 12
