ply
format ascii 1.0
element vertex 1090
property float x
property float y
property float z
property uchar red
property uchar green
property uchar blue
end_header
-1.06250912 -1.02201062 1.95922494 152 153 141
-1.06436205 -1.00870279 1.95640188 154 155 143
-1.06365724 -0.98910668 1.95157390 154 155 147
-1.06145310 -0.97741765 1.94796503 154 155 146
-1.05065684 -1.02167199 1.95922494 107 111 102
-1.05030608 -1.02667105 1.96490383 55 56 56
-1.04872069 -1.00876306 1.94904048 128 131 118
-1.04435196 -0.98874937 1.93499450 151 153 142
-1.05021182 -0.99084969 1.94318088 147 148 138
-1.04885067 -0.97255058 1.93446897 151 152 141
-1.05489165 -0.97769597 1.94517428 152 153 142
-1.04364765 -0.95454252 1.91225159 153 155 146
-1.03586807 -1.00705357 1.94797149 52 53 50
-1.03377594 -0.98793419 1.93476458 87 89 82
-1.03491092 -0.99727850 1.94238353 58 58 54
-1.02525824 -0.96085125 1.91494870 94 95 91
-1.03150189 -0.97380225 1.92583100 99 102 97
-1.02505279 -0.94489360 1.89620471 149 151 137
-1.03393058 -0.95374900 1.90956457 150 152 138
-1.02240193 -0.93767774 1.88827813 150 152 138
-1.01698363 -0.96747092 1.91494870 53 53 54
-1.01986468 -0.97685003 1.92037344 57 57 57
-1.01264119 -0.94620167 1.89444653 86 87 85
-1.01127028 -0.95545322 1.90419054 53 54 57
-1.00914611 -0.92537567 1.87357777 142 143 133
-1.00979798 -0.93637493 1.88303292 104 106 101
-1.00360946 -0.90432098 1.85554647 148 150 140
-1.00641111 -0.91461298 1.86618802 147 149 138
-0.98935868 -0.90469243 1.85411524 85 86 83
-0.98968835 -0.91578459 1.86234021 76 78 75
-0.98806401 -0.88408086 1.83462268 134 142 131
-0.98939590 -0.89389444 1.84432820 104 107 101
-0.98459801 -0.87577319 1.82721502 148 158 147
-0.97137436 -0.90430541 1.85145044 42 44 45
-0.96918622 -0.88618336 1.83366990 45 46 47
-0.97222931 -0.89497461 1.84353149 46 47 49
-0.96203899 -0.86478853 1.81740439 54 50 51
-0.96994623 -0.87537621 1.82638531 57 60 57
-0.96490481 -0.54115590 1.48173255 43 42 52
-0.96572042 -0.52234799 1.45783186 154 155 145
-0.96314153 -0.53462923 1.47608587 41 41 50
-0.96385166 -0.53800625 1.48011315 44 43 52
-0.96158457 -0.51760197 1.45158851 149 151 140
-0.95650522 -0.88393341 1.82884785 41 40 46
-0.95092734 -0.86429820 1.81417346 46 42 43
-0.95581971 -0.87321374 1.82351789 45 43 43
-0.94940015 -0.52374142 1.45470357 33 33 38
-0.95297346 -0.52955432 1.46731552 38 38 47
-0.94800603 -0.50564940 1.43652034 123 123 115
-0.94823427 -0.51574765 1.44463283 77 77 75
-0.94643354 -0.49970704 1.43621159 117 121 111
-0.93499970 -0.52039123 1.44539833 38 38 47
-0.93331224 -0.50623456 1.43433040 41 40 42
-0.93799621 -0.51429814 1.44232309 40 40 48
-0.93359661 -0.49803372 1.43317834 42 43 43
-0.90210503 -0.74963987 1.63478955 154 155 144
-0.91078663 -0.74453503 1.64536858 154 155 148
-0.90475124 -0.72830202 1.63446549 154 155 146
-0.90858132 -0.72429180 1.64138460 154 155 146
-0.90453048 -0.71149163 1.63152049 154 153 148
-0.90159592 -0.69403130 1.62369537 155 155 147
-0.91777222 -0.50183767 1.42639115 39 39 39
-0.91242693 -0.48813204 1.41523230 39 39 40
-0.91696885 -0.49708803 1.42514189 39 38 39
-0.90173852 -0.47664949 1.39771509 40 40 42
-0.88398033 -0.74446433 1.61568175 153 154 144
-0.88885747 -0.74717613 1.62564856 153 153 144
-0.88621478 -0.72759835 1.61643694 153 153 146
-0.88637363 -0.73397414 1.62369609 152 153 145
-0.88618951 -0.71077027 1.61320115 154 155 147
-0.89878953 -0.70385882 1.62369537 157 154 152
-0.88120827 -0.68397170 1.59692055 152 152 147
-0.88664532 -0.69290734 1.60676757 151 150 146
-0.88434199 -0.46241062 1.37689737 39 40 43
-0.89282032 -0.46700734 1.38548018 39 40 43
-0.88214765 -0.45610646 1.37225068 42 42 44
-0.89071929 -0.45770010 1.38063514 44 42 47
-0.87425355 -0.74535348 1.61404873 148 149 140
-0.87039524 -0.74590776 1.62936811 85 86 81
-0.87599599 -0.72230917 1.61788034 149 150 142
-0.86974667 -0.72963381 1.62727390 86 89 86
-0.86168814 -0.73066711 1.64937186 43 44 44
-0.87069039 -0.71023427 1.61298261 131 132 125
-0.86186147 -0.71611737 1.62286200 50 54 53
-0.86806534 -0.68607420 1.59386557 151 152 147
-0.87054513 -0.69575319 1.60372044 148 149 142
-0.86480358 -0.67628823 1.58492666 152 152 145
-0.87525469 -0.45217875 1.36397302 44 43 45
-0.86497456 -0.04424728 1.99968100 39 38 40
-0.86412654 -0.02750360 1.99772052 39 39 40
-0.86440688 -0.01118167 1.95922494 39 38 43
-0.86489344 -0.01089399 1.99380941 40 39 41
-0.86440688 0.01590923 1.95922494 41 37 38
-0.86775245 0.00917187 1.96680784 38 35 37
-0.86767572 0.01180653 1.99433737 41 38 40
-0.86284158 0.02809460 1.98286653 43 41 42
-0.85201647 -0.74501907 1.61659630 44 47 47
-0.85382817 -0.74448676 1.62930728 44 44 44
-0.85675275 -0.74880085 1.64536858 42 42 41
-0.85082859 -0.72370738 1.61788034 42 46 48
-0.85450485 -0.73186011 1.62956420 44 44 45
-0.85467827 -0.73138431 1.64138460 42 43 45
-0.85303976 -0.70807562 1.61438840 46 47 50
-0.85398529 -0.71450678 1.62175083 45 47 48
-0.85116442 -0.68595156 1.59425599 79 80 77
-0.85348392 -0.69645242 1.60447997 62 62 65
-0.85240398 -0.67643319 1.58572274 111 113 106
-0.85990143 -0.02852569 1.98795259 39 38 41
-0.84182134 -0.00931354 1.92310125 40 39 42
-0.85943902 -0.00606705 1.94796503 39 36 41
-0.85141676 -0.00886153 1.99160114 43 41 43
-0.84541714 0.00233011 1.93131578 42 38 41
-0.85464902 0.01359326 1.94984168 41 38 39
-0.84805542 0.01946436 1.97636104 44 42 49
-0.85026460 0.01072876 1.98562753 43 41 43
-0.85209340 0.02736603 1.93131578 43 42 43
-0.85623397 0.02513786 1.95219153 41 40 40
-0.84737225 0.02356353 1.97636104 46 43 49
-0.85738707 0.02808619 1.98213995 45 42 46
-0.84408873 0.22925001 1.95922494 141 136 127
-0.84653538 0.23331068 1.96490383 141 137 124
-0.82007098 -0.69591296 1.58016741 43 43 43
-0.83237180 -0.62717447 1.51315898 48 45 48
-0.82437383 -0.60904376 1.49275629 42 40 43
-0.82528628 -0.58963005 1.48987540 39 39 41
-0.82110304 -0.57764131 1.48335195 40 40 42
-0.83825260 -0.02085847 1.91494870 39 39 43
-0.82177100 -0.02178141 1.99968100 159 159 156
-0.83100051 -0.00915994 1.89091539 39 38 44
-0.83825260 -0.00927406 1.91494870 40 39 43
-0.83032422 -0.00938320 1.99304956 113 107 112
-0.83801320 0.01384313 1.90687251 41 37 39
-0.83110741 0.01092774 1.98707189 84 82 85
-0.83215952 0.02192166 1.89355266 42 40 41
-0.82832313 0.19428071 1.91494870 149 144 139
-0.83066964 0.19483109 1.92037344 148 145 139
-0.82352328 0.20775994 1.90956962 148 140 137
-0.83192710 0.21094377 1.92586025 147 140 136
-0.82170343 0.22406922 1.91494870 142 138 127
-0.82341492 0.23051109 1.92584985 114 108 99
-0.82562749 0.23158519 1.94563940 116 109 104
-0.82637221 0.24364986 1.92582905 95 93 84
-0.82408658 0.24140008 1.94796503 74 65 67
-0.81816387 -0.69020730 1.57649267 44 44 44
-0.81140787 -0.60374393 1.49258473 55 54 59
-0.80664615 -0.60742668 1.50419950 103 99 108
-0.80942259 -0.58660846 1.47276853 41 40 42
-0.80682892 -0.59282205 1.48562730 50 48 52
-0.80147430 -0.57026735 1.45471019 40 40 41
-0.80960226 -0.57347469 1.46944785 40 40 42
-0.81931019 -0.57382178 1.48011315 41 40 42
-0.80439004 -0.55458534 1.45315933 40 39 42
-0.80240916 -0.06731164 1.31629906 159 158 154
-0.80552112 -0.06210151 1.32207185 159 160 149
-0.80370790 -0.04846430 1.31629479 160 160 152
-0.80681353 -0.05469282 1.32764645 159 159 152
-0.81485841 -0.02178141 1.99968100 164 164 160
-0.81206902 -0.00915038 1.98983443 165 162 160
-0.81234106 0.00762011 1.98491933 163 162 159
-0.80669309 0.17784544 1.89268339 149 144 139
-0.80487978 0.18836456 1.87574184 148 145 138
-0.80769417 0.19073581 1.89561444 147 144 138
-0.81051582 0.20767694 1.89164804 148 140 137
-0.80853418 0.20887078 1.91023822 147 141 136
-0.80983132 0.21762805 1.92528971 141 138 133
-0.81724092 0.22210337 1.91225159 142 137 128
-0.80833025 0.22328235 1.93683386 121 118 114
-0.81271352 0.23150426 1.94468179 104 97 95
-0.80933455 0.24169448 1.93683386 87 83 80
-0.81618422 0.24105424 1.94517428 71 66 68
-0.79690421 -0.60280809 1.49810535 147 147 147
-0.79072207 -0.58022970 1.47688854 104 98 100
-0.79154629 -0.58928421 1.48475372 136 131 132
-0.79379916 -0.56429006 1.45036907 44 42 46
-0.78840117 -0.56937717 1.46694873 96 89 93
-0.78012705 -0.54491007 1.41818380 42 41 44
-0.79074426 -0.54941894 1.43361807 41 40 42
-0.79425774 -0.55620283 1.44541156 42 41 44
-0.78094447 -0.53398812 1.41522300 41 40 43
-0.78937392 -0.53540008 1.42714387 40 38 41
-0.78719894 -0.48599600 1.37257120 40 36 38
-0.79490468 -0.49475662 1.38416004 40 35 37
-0.78369093 -0.47736490 1.35850072 39 38 40
-0.78290709 -0.47203764 1.37275248 40 37 39
-0.78751588 -0.46879703 1.38169175 45 38 41
-0.78226594 -0.45772699 1.36764522 42 40 42
-0.78924099 -0.08243756 1.30665426 160 159 153
-0.78976038 -0.07152079 1.31208984 159 159 154
-0.79612859 -0.06195159 1.32498041 159 160 151
-0.79690555 -0.05878740 1.31821552 160 160 150
-0.79520337 -0.05641268 1.32487118 160 160 151
-0.79930514 -0.02178141 1.99968100 159 159 153
-0.79578567 -0.01652643 1.99087608 166 167 161
-0.79104755 0.17766232 1.89518469 121 121 114
-0.79006137 0.19097847 1.89856209 105 107 100
-0.79267184 0.20662271 1.90879469 102 102 98
-0.79694599 0.21671570 1.92310125 84 85 84
-0.78200226 0.22842755 1.95217538 32 29 32
-0.76588619 -0.56276315 1.45158851 163 155 151
-0.77574028 -0.56994201 1.46657231 161 154 149
-0.77598798 -0.54571599 1.43317509 52 53 53
-0.76423442 -0.52557943 1.39293756 40 39 42
-0.77205124 -0.53038082 1.40475765 42 40 43
-0.76712153 -0.50792837 1.39016836 41 40 41
-0.77367693 -0.51811501 1.40205288 40 39 40
-0.76284967 -0.48316039 1.35173258 38 37 39
-0.77219617 -0.48517840 1.36729527 40 37 40
-0.76401244 -0.49330986 1.38345563 44 40 43
-0.76615842 -0.47522532 1.35241184 39 38 40
-0.77710666 -0.47536252 1.36550510 39 37 39
-0.77000585 -0.45460446 1.35714221 41 38 40
-0.77780399 -0.45545270 1.36672300 41 40 42
-0.76620239 -0.28886333 1.95922494 36 32 34
-0.76948792 -0.28114188 1.97636104 33 33 34
-0.76477371 -0.26918659 1.95680518 33 32 36
-0.76455623 -0.27235958 1.96718864 32 31 36
-0.76546637 -0.24967358 1.95734290 33 31 34
-0.76620239 -0.22960200 1.95922494 32 32 35
-0.76620239 -0.21436337 1.95922494 33 33 35
-0.76842326 -0.20649427 1.96490383 34 33 36
-0.77509381 -0.07077978 1.30993825 161 160 154
-0.76949177 0.17712754 1.89582585 27 29 29
-0.76113605 0.17344182 1.90419054 26 27 29
-0.77235846 0.19072416 1.89885676 28 29 31
-0.76394930 0.19012089 1.90642552 26 26 28
-0.76710136 0.20447633 1.91225664 27 27 30
-0.77056930 0.21332635 1.92897325 26 26 29
-0.77083647 0.22328235 1.93683386 27 26 28
-0.77826518 0.22189844 1.94424403 27 26 28
-0.75951946 -0.54209280 1.43015158 157 154 144
-0.75005874 -0.52370066 1.39153645 85 85 85
-0.74851717 -0.53161045 1.40760362 143 141 135
-0.75922251 -0.53924924 1.42264968 154 154 145
-0.75537471 -0.50269803 1.37643158 43 43 43
-0.74905205 -0.51173669 1.38704830 73 70 72
-0.74624777 -0.51878840 1.40060294 153 150 146
-0.74000448 -0.51903254 1.42115688 160 160 151
-0.75002008 -0.48666444 1.33411668 41 39 40
-0.75343037 -0.48678079 1.34881613 41 39 40
-0.74797791 -0.49000537 1.37278758 47 46 48
-0.74563129 -0.49898337 1.38063514 58 57 58
-0.74816778 -0.47088600 1.33183546 39 38 40
-0.74678800 -0.46971898 1.35261867 42 41 43
-0.74994283 -0.47314284 1.36473938 42 41 43
-0.74048473 -0.45600583 1.31714845 38 38 41
-0.74725701 -0.45274630 1.35416865 45 42 43
-0.74442342 -0.43790016 1.34903985 44 44 48
-0.75452160 -0.26236002 1.95278147 34 31 34
-0.75483859 -0.26932356 1.96490383 33 32 36
-0.75281155 -0.24832100 1.93352928 34 31 34
-0.75151201 -0.25525990 1.94573243 35 30 34
-0.75194973 -0.23634568 1.93131578 32 31 35
-0.75337962 0.17149400 1.89596361 27 26 28
-0.75231531 0.18978031 1.89403485 25 25 28
-0.75784481 0.20306297 1.90419054 27 26 28
-0.73368049 -0.52347761 1.39054883 157 155 148
-0.73898524 -0.53089255 1.40060294 158 155 146
-0.73295874 -0.50727255 1.38584006 157 156 149
-0.73081189 -0.51015913 1.40350282 159 160 151
-0.72988107 -0.48816189 1.37384144 141 140 135
-0.72674160 -0.49659870 1.38222149 158 157 149
-0.73545462 -0.46025905 1.31629479 39 39 41
-0.72985531 -0.46495918 1.35678030 92 89 91
-0.73121806 -0.47478556 1.36334704 100 96 97
-0.73266878 -0.45342067 1.30969572 39 39 42
-0.73603791 -0.45748547 1.32142663 40 40 44
-0.73168930 -0.45024214 1.35031211 66 63 66
-0.72724916 -0.43199001 1.33600211 45 46 49
-0.72797654 -0.43766422 1.34236014 46 46 49
-0.72129786 -0.34636161 1.41818380 37 38 40
-0.72280997 -0.34954411 1.42115688 38 39 40
-0.73112011 -0.20545630 1.87781680 32 32 34
-0.72654423 -0.18713134 1.27663696 35 35 36
-0.73529136 -0.18791996 1.29123288 35 34 35
-0.73112011 -0.19896500 1.87781680 34 33 35
-0.71506190 -0.50201768 1.37782896 159 160 151
-0.70268291 -0.48440907 1.35850072 161 161 152
-0.71461612 -0.48687115 1.37206871 160 159 151
-0.71890455 -0.48633590 1.38063514 160 160 153
-0.71229558 -0.46551328 1.35646458 160 158 151
-0.71510932 -0.47241386 1.36821010 160 158 152
-0.71277952 -0.45018756 1.35155341 159 157 152
-0.71249529 -0.45449599 1.36580695 158 159 153
-0.71158286 -0.43076151 1.33485842 131 130 127
-0.71025597 -0.43733891 1.34664818 150 146 143
-0.70269844 -0.36403053 1.29368675 159 159 150
-0.70509309 -0.36198589 1.39343053 37 36 39
-0.71484879 -0.36209415 1.40788877 40 39 41
-0.70071512 -0.34190248 1.27783680 162 160 153
-0.70158786 -0.35785253 1.28754503 163 158 151
-0.70412385 -0.35790485 1.39627713 38 36 39
-0.71123777 -0.35225030 1.40663509 39 38 39
-0.70619106 -0.20210841 1.26002204 38 37 39
-0.70502476 -0.19070628 1.25425563 37 36 38
-0.71285069 -0.18644196 1.26355482 37 35 36
-0.70458015 -0.17135962 1.25328478 35 35 38
-0.71428294 -0.17422916 1.26578111 35 35 38
-0.69932014 -0.46760685 1.35199940 159 159 152
-0.69527757 -0.44065857 1.33970726 159 159 150
-0.69812695 -0.45021006 1.34609523 159 159 154
-0.69159148 -0.43091443 1.33392999 159 159 152
-0.68229187 -0.38301663 1.29740185 48 47 48
-0.68845195 -0.36826278 1.29375235 82 83 80
-0.68135154 -0.36278052 1.33602233 40 39 39
-0.68509872 -0.36484891 1.35424042 39 38 38
-0.68953109 -0.36757864 1.36500289 40 39 40
-0.68880676 -0.34529738 1.27623459 148 147 139
-0.68815870 -0.35438323 1.28539288 101 101 98
-0.68119474 -0.35717157 1.33706737 40 38 39
-0.68383116 -0.35672783 1.35217909 38 38 40
-0.68942487 -0.35813671 1.36947846 38 38 40
-0.68531665 -0.32129274 1.25768435 158 158 144
-0.68887481 -0.33096899 1.26572110 157 158 149
-0.68171978 -0.30052865 1.23929036 160 160 154
-0.68627818 -0.31254808 1.25242589 160 158 149
-0.69530183 -0.31753424 1.26002204 163 157 150
-0.68216878 -0.29061735 1.23815966 159 159 152
-0.68655493 -0.29310813 1.24417085 160 159 152
-0.69753063 -0.20132627 1.24841964 40 39 40
-0.69148332 -0.18781881 1.23759633 37 36 37
-0.69497085 -0.19843757 1.24383819 39 38 42
-0.69046022 -0.16843146 1.23437937 35 34 38
-0.69840223 -0.16864879 1.24612474 36 36 40
-0.68251240 -0.15218533 1.21777328 36 32 34
-0.68749216 -0.15587672 1.22363546 36 32 35
-0.67387721 -0.38309648 1.29451520 45 45 45
-0.66158259 -0.37096302 1.27904117 40 41 43
-0.67073244 -0.36932116 1.28956572 42 42 44
-0.66879867 -0.36444825 1.30364243 42 40 42
-0.67078034 -0.36670790 1.33184336 40 38 38
-0.67461326 -0.36497978 1.34669943 39 38 38
-0.66839465 -0.34334023 1.27753571 43 45 48
-0.67117628 -0.35182503 1.28601502 43 43 47
-0.67059052 -0.35085460 1.30935870 40 40 40
-0.67617324 -0.35390858 1.32271707 40 38 39
-0.67504241 -0.35621661 1.34436566 38 38 39
-0.67336072 -0.32056814 1.25768435 113 114 108
-0.66979049 -0.33002098 1.26622685 67 69 68
-0.66630769 -0.33797225 1.28388608 42 42 42
-0.67797767 -0.30405210 1.23793352 162 158 152
-0.66990926 -0.30985635 1.24965763 115 116 111
-0.66797721 -0.28276777 1.21813548 159 158 150
-0.66882013 -0.29036384 1.23285350 154 155 146
-0.66367521 -0.26876025 1.21387058 158 158 151
-0.66615077 -0.27247831 1.22628401 157 157 149
-0.66137122 -0.25711496 1.21632049 157 157 152
-0.67607474 -0.18210356 1.21377331 39 37 39
-0.66948128 -0.16059089 1.20193589 34 33 39
-0.66547090 -0.15343754 1.19473598 37 33 36
-0.67757561 -0.15295676 1.21270474 36 32 35
-0.66411448 -0.12367132 0.98962313 158 155 153
-0.65937185 -0.34443440 1.27904117 42 41 43
-0.65705717 -0.32020584 1.25768435 44 43 51
-0.65681621 -0.32784353 1.26666315 41 40 44
-0.64102155 -0.30052865 1.23929036 38 39 40
-0.65206444 -0.30820578 1.25011456 40 41 44
-0.65505465 -0.31809499 1.26080418 40 40 43
-0.65075759 -0.28828983 1.23437356 54 54 56
-0.64985028 -0.29810084 1.24206634 41 43 45
-0.65618593 -0.26226321 1.19663262 160 158 151
-0.65909404 -0.26654077 1.20193589 158 158 149
-0.65007538 -0.26953948 1.22517129 78 81 78
-0.65477194 -0.25147436 1.19452679 158 158 153
-0.65153673 -0.25311475 1.21641835 111 113 109
-0.64022613 -0.25819623 1.22142673 42 46 47
-0.64780679 -0.18626922 1.18959374 44 42 45
-0.64176089 -0.16255543 0.98944280 41 41 42
-0.64232336 -0.16495970 1.17581430 41 38 41
-0.64729789 -0.17312237 1.18599488 42 40 43
-0.64415825 -0.14281871 0.97943577 146 146 140
-0.64612709 -0.15228342 0.98670516 103 104 99
-0.64531484 -0.14956726 1.17199523 39 37 40
-0.64965284 -0.15881377 1.18099630 36 36 40
-0.64714980 -0.13119668 0.97525151 154 153 147
-0.64302766 -0.13261239 1.16513089 39 37 40
-0.65475714 -0.11717144 0.97819889 156 155 148
-0.63459080 -0.28842651 1.23041384 38 39 42
-0.63751111 -0.29223167 1.24498427 38 38 41
-0.62853795 -0.26510755 1.21922994 40 39 42
-0.63478979 -0.27006010 1.22717543 40 40 43
-0.63343014 -0.25546965 1.21850030 41 42 45
-0.63505388 -0.25556538 1.22230916 41 43 44
-0.63264005 -0.18532555 1.19036320 117 113 115
-0.63310216 -0.16326507 0.99150852 39 39 42
-0.62925316 -0.16391895 1.17733519 90 85 89
-0.63080049 -0.17405962 1.18585258 108 104 105
-0.62924811 -0.14283432 0.97898467 40 39 42
-0.63192729 -0.15085606 0.98655063 39 39 43
-0.63229340 -0.15674832 1.00428426 38 37 37
-0.63064334 -0.15051422 1.17157482 62 60 63
-0.63072644 -0.12964089 0.97229837 68 70 70
-0.62699858 -0.13905599 0.98150408 40 40 42
-0.63289091 -0.12167562 1.15780079 43 39 41
-0.62994658 -0.13025172 1.16361453 44 42 44
-0.62567660 -0.10917450 0.95320057 134 134 124
-0.62941483 -0.11779236 0.96118679 102 102 97
-0.62740878 -0.11479934 1.15559300 43 42 43
-0.63200814 -0.11897774 1.16077375 43 40 42
-0.62287268 -0.09596188 0.94686486 153 153 144
-0.61584322 -0.16428652 1.17593088 161 159 152
-0.61483983 -0.16680718 1.18340445 161 159 151
-0.61853869 -0.14278219 0.97796736 37 36 40
-0.61934841 -0.14803195 0.98103017 39 35 40
-0.61203310 -0.14927595 1.17183184 159 158 153
-0.61232585 -0.15714135 1.18223436 160 160 153
-0.60592996 -0.12239318 0.95558827 39 37 42
-0.61648408 -0.12766605 0.96734413 38 38 41
-0.61064869 -0.12102759 1.15878952 143 140 137
-0.61115093 -0.13132478 1.16299442 149 144 140
-0.61081719 -0.10830967 0.95106147 41 40 45
-0.61588518 -0.11894226 0.96064071 39 38 42
-0.61255136 -0.11588475 1.15529818 111 107 106
-0.61053048 -0.09537950 0.94619013 59 58 56
-0.60126534 -0.04101770 1.11404431 159 158 154
-0.60596437 -0.02443262 0.91713907 45 43 45
-0.61700782 -0.02364444 0.92418835 40 38 40
-0.60398073 -0.02993947 1.11438424 161 158 151
-0.60280818 -0.03350808 1.12048233 161 161 147
-0.60699858 -0.01033642 0.91520750 41 40 43
-0.61696565 -0.01484124 0.92293058 38 36 39
-0.60247398 -0.01556088 1.11101449 161 159 151
-0.60480922 0.00460833 0.91153166 42 40 44
-0.59737962 -0.13079160 1.15878952 162 159 153
-0.59840256 -0.13101557 1.16077375 162 160 154
-0.59437871 -0.10110532 0.93890840 38 37 43
-0.59767994 -0.10523431 0.94315740 38 37 44
-0.59437871 -0.09704826 0.93890840 39 39 39
-0.59729622 -0.09433321 0.94151725 40 39 40
-0.58819505 -0.04269696 1.11602541 77 80 78
-0.59055805 -0.02645391 0.91535250 131 127 123
-0.58994691 -0.03067120 1.11773880 91 91 88
-0.59699821 -0.03350808 1.12048233 160 160 144
-0.59123101 -0.01034679 0.91205601 108 107 106
-0.59581657 -0.00247049 1.09691429 159 160 152
-0.59055637 -0.00999444 1.11227815 115 115 112
-0.59176621 0.00661039 0.90832815 84 81 85
-0.58632803 0.01436248 1.07944560 159 157 151
-0.59279411 0.00637804 1.09028364 161 159 153
-0.58874034 0.00679117 1.10663246 129 129 124
-0.58010679 0.12375963 0.88729298 133 133 126
-0.57801864 -0.04281515 1.11702238 36 37 42
-0.57544022 -0.04187755 1.12682569 34 33 36
-0.57700577 -0.02251582 0.91084167 162 156 147
-0.57697046 -0.02658083 1.11826482 37 37 40
-0.57353478 -0.03155476 1.12410107 35 34 37
-0.57551199 -0.01160622 0.90802287 159 158 150
-0.57283973 -0.00910612 1.11436573 37 37 40
-0.56968845 -0.01186738 1.12183264 35 35 37
-0.57218856 0.00109049 0.90385580 159 158 152
-0.57096405 0.00796893 1.10842068 36 37 39
-0.56569708 0.09454102 0.87493448 116 116 108
-0.56484512 0.09786145 1.05437250 37 35 39
-0.56648096 0.10870124 0.87739709 109 109 100
-0.57241637 0.11762246 0.88108376 130 123 114
-0.56823880 0.11184521 1.05688068 36 34 38
-0.57191449 0.10958763 1.06154827 37 33 38
-0.56860321 0.12454009 0.88343452 105 102 96
-0.56135249 0.13135830 1.01546541 32 29 32
-0.56465822 0.13203667 1.03277761 37 35 38
-0.56523525 0.12861189 1.05023704 35 32 35
-0.56122679 0.14099234 1.03653193 100 97 91
-0.54756000 -0.00207528 1.08991015 33 32 34
-0.55490297 -0.00438565 1.10226321 34 33 35
-0.54068941 0.00502580 1.07772946 34 32 35
-0.55116866 0.00542200 1.09546492 35 35 37
-0.55953759 0.00707992 1.10766637 34 34 36
-0.55060708 0.09231589 0.87220447 37 36 36
-0.55022632 0.09780556 1.05377474 125 122 115
-0.55165909 0.10952221 0.87459656 38 36 37
-0.54996510 0.11084292 1.05764464 132 129 126
-0.54581590 0.11193696 1.06114074 140 135 132
-0.55038942 0.12370031 0.87647896 58 58 57
-0.55650716 0.12373168 0.88037902 59 60 58
-0.55843656 0.13214309 1.01161118 41 34 39
-0.55802022 0.13503796 1.02696091 43 40 43
-0.55077198 0.12864623 1.05167528 100 96 95
-0.55652716 0.14141760 1.03180363 83 80 74
-0.55647850 0.14048968 1.04612935 73 68 64
-0.52936673 0.09660694 0.85727802 30 29 30
-0.53763294 0.09775026 0.86742577 30 30 32
-0.53775784 0.09672749 1.05195302 163 160 148
-0.52826439 0.10305750 0.85549285 32 32 33
-0.53866969 0.10829622 0.86930217 34 33 35
-0.53535565 0.11084843 1.05521409 160 158 150
-0.53767872 0.12191467 0.86976321 62 62 60
-0.53812832 0.12396200 1.05497302 159 156 149
-0.44003350 -0.03094383 0.97819889 35 33 34
-0.45137584 -0.02602700 0.99558103 36 33 34
-0.45778856 -0.02258899 1.00131738 35 34 35
-0.44948919 -0.01081652 0.99497493 36 33 36
-0.43635847 -0.03242417 0.97189242 37 31 35
-0.40632745 0.39044821 1.58799251 59 59 62
-0.38810697 0.37642591 1.56739044 70 68 69
-0.38706203 0.38688634 1.57492625 75 74 76
-0.39041226 0.39123901 1.58420927 78 78 81
-0.38297747 0.40631881 1.55480188 60 61 63
-0.38630032 0.40556242 1.56920524 60 59 62
-0.39375536 0.40636692 1.59016486 68 68 69
-0.39959380 0.40772849 1.60258114 69 69 69
-0.38062698 0.42164057 1.53716969 65 65 66
-0.38149205 0.42526174 1.54066324 67 66 66
-0.37338620 0.37991971 1.55123997 90 91 92
-0.36825551 0.39860421 1.53543085 64 65 68
-0.37470871 0.39152672 1.55302968 65 65 68
-0.37564334 0.39304771 1.56437318 66 64 66
-0.36205040 0.41040599 1.51722271 71 70 71
-0.37045401 0.41204718 1.52891695 69 69 71
-0.37595949 0.40274268 1.54417915 58 58 61
-0.37536690 0.42285968 1.53196096 64 63 63
-0.35979062 0.40811732 1.51653659 69 68 70
-0.35917871 0.41700460 1.52506799 71 64 69
-0.20483040 -0.48275294 1.05755563 104 110 117
-0.20631537 -0.47460220 1.05488986 102 111 117
-0.20195591 -0.46615177 1.06211133 104 111 113
-0.19353519 -0.48351658 1.05722565 103 110 116
-0.19504600 -0.48880600 1.06197210 103 111 117
-0.19022275 -0.47299015 1.05272313 100 110 115
-0.19759282 -0.46629238 1.06086361 106 110 114
-0.17822112 -0.47030839 1.04936814 107 109 119
-0.16445747 0.01412789 0.49852395 44 41 45
-0.16578574 0.01706324 0.50117065 31 26 30
-0.16370002 0.02864497 0.49733742 27 26 28
-0.16972510 0.03290410 0.50893156 28 25 28
-0.16594781 0.13563440 0.62370130 68 66 68
-0.16795318 0.14329195 0.62392664 84 83 83
-0.16388727 0.19676245 0.75638779 92 89 93
-0.16652176 0.19698925 0.76184835 83 82 84
-0.16475319 0.20481725 0.75423513 79 75 78
-0.16729672 0.20227798 0.76143226 86 82 83
-0.15004455 0.01576933 0.49320466 107 98 97
-0.15154401 0.02825259 0.48796961 67 57 57
-0.15886537 0.13672300 0.62302570 73 72 75
-0.15934595 0.14094473 0.62392268 66 65 68
-0.14727309 0.19638504 0.73924953 73 68 72
-0.15451316 0.19649649 0.75136622 85 83 85
-0.15052943 0.21085905 0.73892777 90 88 91
-0.15402722 0.20658308 0.74793930 82 80 80
-0.04464634 0.27133059 0.69500918 159 155 147
-0.04324640 0.26901060 0.70222257 161 156 149
-0.03643219 0.27145299 0.68987285 159 155 147
-0.00490029 0.15130464 0.49600870 132 125 122
-0.00388829 0.14647312 0.50229454 151 145 138
0.00239818 0.14937039 0.49712180 135 128 122
0.00412515 0.14673830 0.50317696 137 133 128
0.01364329 0.19299327 0.61964518 114 113 113
0.00828650 0.19491577 0.62626097 109 103 99
0.00492557 0.20291828 0.62751865 124 117 113
0.03589936 0.15192911 0.46335821 114 109 106
0.05662261 0.14648159 0.45610719 93 91 91
0.04826214 0.14882405 0.46297801 91 88 88
0.04979184 0.21075573 0.51798110 103 98 93
0.04931516 0.20906458 0.52204613 110 105 102
0.06062718 0.14257326 0.45170429 124 115 115
0.07282524 0.23971075 0.72347051 113 102 100
0.07588471 0.24891258 0.71889963 116 106 102
0.07311402 0.24899645 0.72377239 119 110 106
0.07758338 0.26925707 0.71676268 112 101 93
0.07085379 0.26280638 0.72250869 137 128 120
0.07935357 0.28312979 0.71470021 81 72 71
0.09217190 0.23871515 0.70903444 131 127 125
0.09076318 0.23920017 0.72192955 110 104 107
0.08962956 0.25017158 0.71082732 105 102 102
0.08415196 0.24482059 0.72493049 76 72 74
0.08637391 0.27049557 0.70978718 102 98 96
0.08324702 0.28789494 0.71263133 83 77 76
0.09117979 0.46481043 1.71618187 135 129 129
0.09099063 0.47119756 1.72871625 133 127 125
0.08700944 0.47441894 1.75165856 130 126 123
0.09710482 0.48454823 1.73374629 130 121 120
0.09407962 0.48734221 1.74805613 131 125 124
0.09074046 0.48422784 1.76534331 140 131 131
0.09177627 0.49593021 1.78549488 130 129 126
0.08979374 0.49741155 1.80771160 129 125 124
0.09453022 0.50034177 1.77924371 126 118 118
0.09242529 0.50565040 1.79812157 133 129 126
0.09091335 0.50671379 1.80933996 131 129 125
0.09088452 0.51610577 1.82967091 132 131 127
0.08695851 0.50985438 1.84713048 131 130 130
0.08319357 0.51456240 1.87005001 124 124 125
0.08737702 0.52407289 1.86748008 136 135 132
0.08096629 0.52266806 1.89355266 122 123 123
0.08165050 0.52708498 1.90955448 124 124 124
0.08341292 0.54689384 1.95077193 140 133 134
0.08372997 0.55157684 1.97157892 131 126 126
0.08132821 0.55568528 1.98213995 137 129 130
0.08779279 0.56604996 1.97348845 126 117 114
0.08657878 0.57292630 1.98849975 118 108 108
0.08972392 0.58717550 1.99747546 90 84 86
0.10140965 0.25482096 0.70661604 97 91 94
0.10114081 0.26061541 0.70724258 138 134 130
0.13920531 0.05682886 0.66157317 94 85 86
0.12903830 0.22847565 0.63952059 74 62 66
0.12470661 0.23341735 0.64690054 81 76 76
0.12433079 0.24672617 0.65434129 78 77 79
0.13120424 0.25157557 0.66351666 107 102 101
0.15710984 0.03929379 0.67750544 120 119 117
0.15325703 0.05166927 0.67113175 109 100 100
0.15197020 0.06152802 0.66751654 103 96 96
0.17184166 -0.28057810 0.79069978 77 81 90
0.17047741 -0.27000111 0.78648043 78 82 87
0.16195270 0.03856907 0.67830007 111 109 108
0.16599993 0.03686856 0.68484368 113 106 107
0.16432454 0.05207771 0.67367974 120 112 108
0.16619299 0.04259373 0.68078530 125 119 114
0.16413857 0.06290724 0.67081343 112 107 104
0.16296752 0.20186370 0.45497409 0 0 0
0.16596621 0.20860925 0.47017767 0 0 0
0.16970685 0.21702379 0.48914290 0 0 0
0.17377828 0.22618245 0.50978535 0 0 0
0.17819003 0.23610665 0.53215317 0 0 0
0.19374217 0.13502279 0.54979283 124 116 115
0.18158546 0.24374463 0.54936817 0 0 0
0.18522416 0.25192985 0.56781658 0 0 0
0.18829456 0.25883669 0.58338368 0 0 0
0.19072703 0.26430853 0.59571648 0 0 0
0.19412693 0.27195658 0.61295417 0 0 0
0.19680209 0.27797434 0.62651742 0 0 0
0.19865684 0.28214657 0.63592106 0 0 0
0.21425100 0.17713004 0.51461510 124 115 110
0.21449632 0.18144163 0.51692221 106 99 98
0.21827507 0.18766503 0.52025467 94 84 83
0.21630812 0.23444454 1.21680216 124 116 115
0.21728574 0.23502730 1.22363603 131 122 121
0.21738882 0.24182962 1.21631400 105 95 97
0.20155331 0.28866217 0.65060633 0 0 0
0.20457087 0.29545015 0.66590554 0 0 0
0.20666812 0.30016789 0.67653877 0 0 0
0.20995183 0.30755456 0.69318733 0 0 0
0.21338199 0.31527069 0.71057844 0 0 0
0.21700945 0.32343064 0.72896990 0 0 0
0.22198916 0.17680896 0.51509970 133 129 123
0.22265610 0.18846658 0.51857911 99 97 96
0.22611674 0.19669762 0.52350897 112 106 102
0.23056017 0.20236170 0.52801650 116 110 107
0.22199299 0.23875459 1.21850030 139 131 128
0.22625917 0.23494830 1.22638329 137 131 129
0.23571714 0.23778212 1.24843863 139 137 133
0.23943916 0.23935030 1.26236844 139 138 134
0.22462129 0.24415296 1.21603307 128 120 115
0.23134874 0.24245112 1.22682299 139 130 127
0.23873644 0.24187747 1.24729747 142 133 129
0.22080725 0.33197376 0.74822497 0 0 0
0.22346033 0.33794186 0.76167625 0 0 0
0.22621055 0.34412843 0.77561998 0 0 0
0.22906333 0.35054573 0.79008371 0 0 0
0.23202454 0.35720694 0.80509722 0 0 0
0.23669917 0.36772251 0.82879791 0 0 0
0.23890911 0.51891369 1.23702896 0 0 0
0.23978423 0.51866853 1.24156010 0 0 0
0.23939209 0.52465814 1.25072300 0 0 0
0.25402526 0.07801225 0.45161774 122 117 114
0.25404252 0.08493740 0.45182408 132 128 123
0.25672541 0.17654402 0.91607608 142 136 129
0.25623751 0.17806050 0.92230183 130 123 117
0.25755978 0.18082026 0.92418835 141 135 132
0.24418816 0.23675400 1.27384104 136 133 128
0.24912560 0.23647586 1.28226809 128 125 118
0.24017067 0.24434458 1.23253059 139 128 118
0.24241328 0.24340125 1.24959677 133 123 122
0.24437924 0.24121238 1.26759052 139 137 131
0.25631904 0.24393906 1.29245937 131 127 123
0.24162419 0.37880132 0.85376805 0 0 0
0.24508731 0.38659155 0.87132627 0 0 0
0.24869587 0.39470896 0.88962185 0 0 0
0.25245920 0.40317458 0.90870219 0 0 0
0.25638750 0.41201130 0.92861897 0 0 0
0.24452866 0.49660157 1.25768435 62 59 62
0.24649561 0.49358571 1.26636816 89 84 85
0.24189754 0.51523662 1.23590639 0 0 0
0.24353516 0.51022905 1.25372688 58 54 56
0.24488611 0.50701069 1.26347750 67 64 66
0.24514575 0.51647188 1.29245466 63 60 61
0.24027872 0.52443153 1.25535524 0 0 0
0.24227334 0.52535787 1.26807759 43 42 42
0.24552603 0.53003707 1.29316204 74 72 70
0.24390097 0.53377108 1.31242664 90 87 86
0.24393601 0.53474430 1.33052931 70 64 64
0.24655170 0.53675297 1.34903985 63 56 58
0.24361835 0.54341424 1.31438902 77 72 73
0.24164478 0.54608727 1.33481467 94 88 88
0.26728501 -0.18860623 0.45143966 86 89 90
0.26669959 0.17717591 0.91607406 132 127 121
0.26608155 0.17855072 0.92248182 136 131 128
0.27893524 0.19030579 0.91830471 127 114 113
0.27111891 0.19049092 0.92892346 137 130 128
0.26341783 0.19551729 0.94502819 132 128 127
0.27234825 0.20661616 0.93316053 139 132 131
0.27001866 0.21304112 0.94624847 121 116 116
0.27516823 0.22206846 0.95225828 106 103 104
0.26049188 0.42124403 0.94942838 0 0 0
0.26478443 0.43090007 0.97119176 0 0 0
0.26927835 0.44100913 0.99397629 0 0 0
0.27398822 0.45160395 1.01785564 0 0 0
0.27892998 0.46272036 1.04291058 0 0 0
0.28062583 0.18834172 0.92387937 139 130 129
0.28233282 0.21238775 0.93432300 146 138 138
0.28292632 0.21780274 0.94452788 139 134 133
0.28346667 0.22489982 0.95431306 125 121 121
0.28667811 0.23018394 0.96018672 130 126 124
0.28412113 0.47439784 1.06923008 0 0 0
0.28958109 0.48668000 1.09691238 0 0 0
0.29533130 0.49961501 1.12606621 0 0 0
0.30816489 0.39972335 1.96490383 141 129 124
0.31326578 0.41025918 1.99066707 126 116 115
0.30139548 0.51325637 1.15681207 0 0 0
0.30780014 0.52766359 1.18928397 0 0 0
0.31457472 0.54290295 1.22363150 0 0 0
0.33054508 0.15922687 0.74877677 140 137 133
0.33238148 0.16701132 0.75076747 124 122 118
0.33857615 0.17752268 0.76477225 122 119 118
0.33794080 0.18132714 0.76632805 136 130 130
0.32406256 0.37808223 1.89885676 135 126 121
0.32258776 0.37856203 1.90955448 143 135 131
0.32441545 0.37738764 1.92037344 134 129 124
0.32783774 0.39339162 1.89225123 98 98 98
0.32762249 0.38846133 1.90687756 113 106 105
0.32719615 0.39233920 1.93683386 133 125 119
0.32471728 0.39797822 1.95219961 134 127 119
0.32970306 0.40157253 1.89355266 72 73 73
0.32899932 0.40473988 1.90848775 81 81 83
0.32960477 0.41459639 1.93133146 73 74 79
0.32892566 0.40835518 1.95279070 102 99 98
0.32515894 0.41040286 1.96974729 116 109 106
0.32161687 0.41240346 1.98504627 129 119 114
0.33095114 0.42400419 1.97254197 69 69 73
0.32584068 0.42487765 1.98991877 101 91 90
0.32175225 0.55904877 1.26002204 0 0 0
0.32936978 0.57618439 1.29864335 0 0 0
0.33746907 0.59440362 1.33970726 0 0 0
0.35631765 0.07474440 0.77606469 128 120 113
0.35078530 0.07522327 0.78136802 105 103 98
0.35447958 0.08453987 0.77590648 110 102 101
0.34975882 0.08498580 0.78008264 97 95 92
0.34241531 0.17474684 0.75689791 123 123 120
0.34237567 0.17651507 0.76460129 108 107 107
0.34396114 0.18078994 0.75742295 128 125 119
0.34307076 0.18409362 0.76965608 136 133 130
0.35866227 0.20851907 0.46356395 110 112 107
0.34757692 0.39768530 1.87522310 136 133 131
0.34721807 0.39775114 1.89094484 129 127 128
0.34709751 0.40198959 1.87263656 137 130 131
0.34655203 0.40704882 1.89620471 121 118 119
0.34801152 0.40382856 1.90419054 119 115 115
0.34677686 0.40911480 1.93133366 95 93 94
0.34827720 0.41528553 1.94238353 95 93 93
0.34609729 0.61381274 1.38345277 0 0 0
0.35530800 0.63453215 1.43015158 0 0 0
0.36310897 0.07490842 0.77539921 124 115 109
0.36305072 0.08164950 0.77644597 121 111 109
0.37079135 0.08086365 0.78368998 102 94 93
0.36669352 0.19756415 0.46572397 104 100 96
0.36206923 0.20634167 0.45881080 115 112 110
0.36308574 0.20464003 0.46493156 100 99 97
0.36516225 0.65669924 1.48011315 0 0 0
0.37572992 0.68047112 1.53369200 0 0 0
0.39943991 0.13669921 0.47349843 118 118 110
0.38709143 0.70602870 1.59129536 0 0 0
0.39933968 0.73358107 1.65339470 0 0 0
0.40781157 0.13720819 0.47592854 118 117 111
0.41768077 0.13591690 0.53972280 132 131 127
0.40698548 0.14282605 0.47457214 121 120 117
0.41258270 0.76337117 1.72053766 0 0 0
0.42678433 0.11001692 0.47864084 118 118 113
0.42478075 0.11307666 0.48570545 111 109 104
0.43556978 0.13818267 0.53946531 115 115 109
0.42926281 0.13765595 0.54264525 109 107 104
0.43394292 0.14140347 0.53906533 118 116 114
0.43128036 0.14287346 0.54458375 100 98 93
0.42842259 0.19468034 0.45455340 101 95 90
0.42694682 0.79568315 1.79336464 0 0 0
0.44258073 0.83085150 1.87262940 0 0 0
0.45966053 0.86927235 1.95922494 0 0 0
0.47725006 0.09640659 0.54653882 120 120 113
0.47345480 0.10115920 0.53843671 141 138 130
0.47358195 0.10154568 0.54551253 136 136 131
0.48121902 0.09436655 0.54620691 105 104 103
0.48010552 0.10049523 0.54492915 149 141 136
0.51723613 0.24887789 0.59366588 78 76 72
0.51674218 0.24710057 0.60050216 95 93 84
0.53839773 -0.04414007 0.53882650 48 48 47
0.53907955 0.20526978 0.71963042 129 123 123
0.53909119 0.20856625 0.72373638 128 127 124
0.52556934 0.23735659 0.59282805 105 104 99
0.53505473 0.23722690 0.60915552 84 81 81
0.53634187 0.22407116 0.72440687 103 98 98
0.52229923 0.24606107 0.59244167 88 84 80
0.52877866 0.24437674 0.60638293 111 102 97
0.54423783 -0.04687330 0.53896745 49 48 48
0.54630614 -0.05124862 0.54033755 49 49 48
0.54460528 -0.03909927 0.53900796 51 50 48
0.54448485 -0.03859070 0.54058361 49 48 46
0.54172582 0.21578231 0.71874092 136 133 129
0.54247818 0.21210495 0.72465132 126 125 122
0.54304575 0.22740626 0.72740415 107 104 104
0.57407540 -0.71364951 1.66286039 84 84 86
0.59631437 -0.74357466 1.69615245 81 81 87
0.59835058 -0.75053102 1.70753610 80 84 83
0.59375963 -0.72553829 1.67322680 83 84 87
0.59575051 -0.73512187 1.68350856 83 85 91
0.59352969 -0.70763104 1.65455445 86 86 89
0.58998720 -0.71172219 1.66354169 84 83 87
0.59222170 -0.69807354 1.65207664 85 85 88
0.59403408 -0.69180649 1.66952752 84 85 90
0.58940673 -0.67739284 1.66558194 85 86 91
0.60538429 -0.74042702 1.67795014 81 83 86
0.60497577 -0.74416420 1.69304752 85 85 91
0.61062878 -0.75482206 1.70611330 84 87 89
0.60216918 -0.73083468 1.67038500 85 84 86
0.60256690 -0.73828143 1.68629813 86 86 93
0.60383571 -0.70663941 1.64937886 84 85 88
0.61819744 -0.71194394 1.66558862 84 85 88
0.60146809 -0.69845960 1.64737022 83 84 86
0.60141542 -0.69235255 1.66694939 82 83 86
0.61783243 -0.13197372 0.61487670 75 76 80
0.61182829 0.19931306 0.60364751 118 113 111
0.61165148 0.20882940 0.59744585 119 118 111
0.61267973 0.20935014 0.60314236 108 108 106
0.61531797 0.22471239 0.59858292 78 77 71
0.61855863 0.22384364 0.60275145 70 69 68
0.62568569 -0.72012562 1.67795014 85 86 90
0.63194257 -0.73025602 1.69472957 86 87 90
0.62090147 -0.70845735 1.65743732 82 83 86
0.62260354 -0.71369225 1.66968429 82 83 85
0.62433583 -0.14054009 0.61458915 77 76 76
0.62572533 -0.13195703 0.61514373 74 77 79
0.63737898 0.14858632 0.81488013 124 118 114
0.62196040 0.22388089 0.60703536 72 69 68
0.64071763 -0.13098621 0.61964518 74 77 78
0.64167839 -0.12971610 0.62040144 71 76 75
0.64963789 0.13665471 0.81083104 99 100 95
0.64822905 0.13936936 0.82746895 87 87 87
0.64888974 0.14517099 0.81471522 113 112 105
0.64644219 0.14383063 0.82309762 96 93 92
0.66415584 0.13873281 0.84315038 90 87 88
0.66086692 0.14022185 0.83897507 80 81 81
0.66851795 0.14068705 0.85055441 86 82 83
0.74072856 0.33422723 1.95922494 87 83 82
0.74379122 0.33715048 1.97636104 100 93 93
0.81756806 0.25296300 1.09603014 112 104 98
0.81462465 0.25629006 1.10904980 129 122 118
0.81753173 0.25978684 1.12419879 146 140 136
0.81348455 0.26236770 1.11863339 134 131 128
0.81801751 0.26318724 1.12419879 137 133 130
0.81360505 0.43020461 1.17757785 103 102 98
0.81727010 0.42853472 1.18347096 102 102 97
0.82170520 0.25601070 1.09691429 116 113 106
0.82449979 0.25772363 1.10820978 110 106 99
0.82688409 0.25892515 1.12326813 131 121 116
0.83173574 0.26296224 1.11460319 113 113 104
0.83249270 0.26679375 1.12836364 129 126 119
0.82659221 0.42742640 1.17803344 78 76 80
0.82943371 0.42909950 1.18913604 95 95 92
0.83795062 0.42593512 1.20807930 100 97 95
0.83807258 0.43029323 1.22216165 97 90 92
0.82830074 0.44198688 1.19495242 125 120 112
0.83756438 0.44865714 1.20621711 125 121 113
0.84429315 0.27364272 1.13142983 126 122 115
0.84854182 0.27719574 1.14801829 129 123 117
0.85365560 0.28266138 1.15251629 124 121 117
0.85781686 0.28461487 1.16210337 117 113 110
0.85943890 0.33293866 0.85917848 93 90 88
0.85813155 0.33197394 0.86246039 105 100 93
0.84330063 0.42840028 1.19222634 105 100 94
0.84488571 0.42734237 1.21777066 102 97 96
0.84738139 0.43074184 1.22584739 101 94 94
0.86260486 0.28979048 1.16676736 116 116 112
0.86983407 0.31214838 0.85917848 99 97 88
0.87155191 0.31648547 0.86367362 101 96 88
0.86534726 0.33181156 0.85888213 89 85 83
0.87035230 0.32894489 0.86520692 93 91 85
0.88324469 0.31909639 0.86797929 90 83 76
0.88365157 0.32800765 0.86993255 97 90 86
0.97860970 0.37735060 1.13296759 121 117 112
0.97947603 0.38084140 1.13170588 101 100 96
0.97622198 0.41964361 1.09514034 87 89 89
0.98157303 0.37728293 1.13867684 123 119 116
0.98512012 0.37940705 1.14508760 122 118 115
0.98455203 0.39610214 1.09809756 88 90 87
0.98986068 0.39751628 1.10786908 76 79 76
0.98363348 0.38861687 1.13575466 111 108 104
0.98943289 0.38912967 1.14703551 120 116 111
0.98537927 0.40624943 1.09603253 106 104 107
0.98987185 0.41098316 1.10514944 96 96 97
0.99594984 0.41033404 1.13049042 98 97 94
0.99690503 0.40502420 1.14897749 118 119 112
0.99063157 0.42123688 1.10996376 93 93 90
0.98972571 0.45894706 1.51993692 105 102 104
0.99512005 0.45809110 1.53026110 98 96 99
0.99523324 0.45455378 1.54066324 91 91 93
0.99256624 0.46292520 1.53311499 100 99 101
0.99257034 0.46387397 1.54066324 99 99 101
1.00046587 0.39902732 1.12233746 74 75 73
1.00529481 0.41178367 1.13242548 83 84 82
1.00850322 0.41530850 1.15266074 104 103 97
1.01513010 0.41579022 1.16477068 105 106 99
1.00921193 0.42251201 1.15471011 123 116 111
1.01239097 0.42570935 1.16828220 129 127 120
1.00599754 0.45591523 1.55214563 101 102 101
1.01679212 0.45563027 1.57193312 104 103 102
1.00534729 0.45475585 1.59241419 88 83 83
1.01366003 0.44919474 1.60791712 104 98 94
1.01584589 0.45231572 1.62175083 122 116 111
1.00296505 0.46214939 1.55126158 84 84 87
1.01220877 0.46840736 1.57284167 91 91 94
1.01112521 0.46914436 1.59006192 88 87 88
1.00714254 0.46005985 1.60637879 117 112 108
1.02434628 0.41134564 1.15456935 75 75 74
1.02765420 0.41420481 1.16503865 86 86 83
1.02928054 0.41886178 1.18099630 101 102 96
1.02094233 0.42400444 1.15878952 102 98 94
1.03066963 0.43108328 1.16983020 109 103 97
1.02785104 0.43062372 1.18911729 126 126 117
1.03610420 0.43355948 1.20193589 133 133 125
1.02905881 0.44004560 1.19137406 128 128 124
1.03794456 0.44265413 1.20407081 122 122 117
1.02291962 0.45876683 1.57649267 112 110 109
1.03000274 0.45288916 1.59341908 119 117 116
1.03170242 0.45077796 1.60884190 116 111 109
1.03662077 0.45142845 1.62529317 112 106 105
1.02127773 0.46186353 1.57466376 107 106 109
1.02429171 0.46901290 1.59552634 80 79 83
1.02623586 0.46608436 1.60802828 82 79 83
1.03608328 0.47541651 1.62564927 75 73 78
1.04641294 0.41857037 1.18305731 80 81 81
1.04700023 0.42003646 1.18720114 84 85 83
1.04164493 0.43378940 1.20836341 131 132 121
1.04014874 0.43888789 1.61019444 120 112 106
1.04746521 0.43835650 1.62369537 133 125 119
1.04164493 0.44632077 1.20836341 127 127 124
1.05842304 0.45229450 1.23029375 121 122 117
1.04668416 0.44803917 1.61212046 120 114 112
1.04721455 0.44610495 1.63151813 117 111 107
1.04989457 0.44549803 1.64138460 119 111 106
1.07045238 0.26908911 0.93618949 123 121 117
1.07573215 0.27161334 0.94643665 121 121 118
1.07703962 0.29412533 0.95152406 129 128 123
1.06034744 0.45524719 1.23253059 127 127 124
1.06069982 0.44718266 1.63544714 115 106 103
1.09677522 -0.34153783 1.10948405 83 84 82
1.09785553 -0.32928838 1.09721121 80 81 80
1.09345972 -0.33145723 1.10323563 81 83 83
1.09724677 -0.31719444 1.09691429 78 81 88
1.08181431 0.26649014 0.93804262 103 98 98
1.08851111 0.26630491 0.94612696 108 102 100
1.08394967 0.28749222 0.95362297 127 124 122
1.08806267 0.29349576 0.96264915 125 123 122
1.08383501 0.46626806 1.26236844 126 126 126
1.11667585 -0.36065584 1.12606621 82 82 82
1.10442175 -0.34384510 1.11231355 82 85 84
1.11342827 -0.35225563 1.12410256 82 83 83
1.10212872 -0.32565070 1.09632676 79 81 81
1.10223618 -0.32416306 1.10126907 78 82 83
1.10226349 -0.31862818 1.09750497 79 82 87
1.10809278 0.45660907 1.51654416 100 97 97
1.11554253 0.45797260 1.52764896 107 101 101
1.12243307 -0.36125594 1.12793982 82 82 82
1.12056851 -0.35579007 1.12606621 81 82 83
1.12865204 0.43222039 1.53110325 135 133 129
1.13705548 0.43322112 1.55008626 134 133 127
1.12590533 0.44942155 1.53456533 129 122 121
1.13406416 0.44934203 1.54842759 140 134 127
1.12085223 0.46101439 1.52678347 112 112 112
1.12294221 0.46092716 1.54417276 109 99 96
1.13182980 0.46488751 1.56196272 120 109 102
1.13140821 0.71463859 1.72492677 93 85 84
1.13484454 0.72012734 1.73818421 97 87 86
1.14410567 0.43050690 1.55479777 134 135 126
1.14662051 0.43754858 1.56557012 131 132 126
1.15724432 0.43820882 1.58756876 131 129 123
1.14134872 0.45169798 1.55837202 141 136 128
1.14764810 0.45072495 1.56993914 144 140 132
1.15926796 0.45738620 1.59223583 143 138 131
1.15986844 0.44824849 1.60384703 138 139 130
1.15058506 0.46132958 1.57284337 143 139 125
1.15355624 0.46889811 1.59163076 130 122 111
1.15874040 0.47339022 1.60638962 128 116 107
1.14085317 0.72313166 1.73818421 90 79 79
1.15094452 0.73102105 1.74986665 93 81 81
1.15664474 0.73748251 1.76535130 91 79 79
1.15212524 0.74932542 1.75166321 77 70 70
1.15564296 0.75398595 1.76434844 79 74 73
1.15267539 0.76401512 1.75619650 73 73 73
1.15560001 0.76643746 1.76882440 73 72 71
1.15865183 0.78855772 1.76903069 87 85 83
1.17751563 0.15913141 1.23253059 113 109 102
1.17844850 0.15582048 1.25739321 97 96 95
1.17982364 0.14743588 1.26002204 132 131 124
1.17520933 0.16542452 1.23049430 83 81 76
1.17835430 0.16155414 1.25690798 103 102 100
1.16406333 0.44742851 1.59598008 137 136 128
1.16678577 0.45492753 1.60856820 144 142 133
1.16269016 0.46783996 1.59503961 141 138 124
1.16428349 0.46650435 1.60944765 139 134 125
1.17471202 0.46810655 1.62956967 139 136 129
1.17660201 0.48027048 1.63741994 129 117 111
1.16627226 0.74784617 1.77691970 85 76 76
1.16907110 0.75512424 1.78785044 79 73 73
1.16502526 0.76775323 1.77375236 76 74 73
1.16537348 0.77307470 1.79126718 76 75 73
1.17273920 0.77082913 1.80483212 80 75 74
1.16290655 0.78182935 1.77459083 85 83 80
1.17035037 0.78811121 1.79376734 74 73 71
1.17360345 0.79007751 1.80892964 73 72 70
1.17397702 0.80400956 1.79812157 80 78 77
1.17478947 0.80745165 1.81196670 69 65 65
1.18937979 0.15333003 1.26671569 114 113 111
1.18183160 0.16000415 1.23929036 96 96 89
1.18846166 0.16505077 1.25489981 85 85 81
1.19355696 0.16678295 1.26473003 87 88 85
1.18228793 0.47434086 1.64138460 140 133 131
1.18666273 0.48352656 1.65340459 131 121 117
1.18324498 0.76885798 1.78864113 78 72 72
1.18026114 0.79792750 1.81254506 70 69 67
1.18237066 0.80563329 1.81578461 80 76 75
1.18450685 0.81376624 1.82228994 74 71 70
1.19754791 0.80329327 1.85385501 77 76 72
1.19973326 0.83204779 1.85723794 52 44 47
1.20864241 0.15126100 1.27759774 121 119 115
1.21446127 0.15272871 1.28632694 112 107 104
1.20453227 0.16514496 1.27232916 95 95 92
1.21608311 0.16535818 1.28511345 96 95 93
1.20634329 0.79951268 1.86747062 81 79 78
1.21639621 0.79966599 1.88303292 81 80 78
1.20749839 0.81068759 1.87093357 80 79 76
1.21318309 0.81235133 1.88478132 88 84 79
1.20640671 0.83080931 1.87070556 85 77 75
1.21320166 0.82929821 1.88565919 88 85 81
1.21337318 0.84340757 1.89355266 109 94 88
1.22841009 0.15304708 1.29517844 109 105 100
1.23522038 0.15646020 1.30387088 112 108 102
1.22989429 0.16399776 1.29726599 96 95 90
1.23533046 0.16385819 1.30405674 112 111 105
1.22005403 0.81623191 1.89885676 95 92 85
1.22677231 0.81523347 1.90419054 86 85 80
1.22005403 0.83100101 1.89885676 92 92 87
1.22362697 0.82413089 1.90955448 102 97 86
1.23164377 0.83234310 1.92858803 111 102 91
1.23804426 0.83614174 1.94517428 120 112 97
1.22018981 0.84485459 1.90419054 106 98 90
1.23540914 0.85660074 1.93316559 115 107 96
1.23477256 0.84070826 1.94796503 127 114 100
1.24257863 0.82517740 1.93131578 90 90 84
1.24937278 0.83229304 1.94798118 98 95 87
1.24110734 0.85096866 1.93683386 96 96 87
1.24635537 0.84756020 1.95135915 109 102 95
1.25341636 0.84951591 1.97133815 119 111 102
1.25300932 0.85888350 1.98213995 134 123 114
1.24973754 0.86392546 1.95734290 116 110 98
1.25351562 0.86292593 1.96948009 120 114 106
1.25668383 0.86483824 1.98795259 136 126 119
1.26985204 0.83929956 1.97636104 88 89 85
1.26727271 0.85015279 1.99381105 113 110 102
1.55335802 0.25552607 1.89164804 89 84 81
1.55149743 0.25690679 1.90688008 91 86 84
1.55594933 0.26011330 1.88827813 94 94 87
1.55294088 0.28397293 1.88961148 86 83 79
1.55478197 0.28357067 1.90889156 81 78 76
1.55916154 0.28113055 1.92037344 76 72 71
1.56301951 0.25402120 1.86748481 89 80 76
1.56843197 0.25351603 1.88921584 94 87 82
1.57044785 0.25223079 1.90889156 88 80 79
1.56579995 0.25457686 1.92037344 115 109 107
1.57703161 0.25749466 1.94238353 112 106 104
1.56588832 0.26266011 1.89487869 92 90 83
1.56968847 0.27323073 1.90896858 81 81 74
1.56955427 0.27674118 1.92448074 74 72 71
1.57819641 0.27843598 1.94796503 76 70 72
1.56412178 0.28086981 1.89620471 95 95 85
1.56596339 0.28352423 1.91046361 84 83 77
1.57156713 0.28526160 1.92584150 85 83 80
1.57593536 0.28307778 1.94517428 78 73 73
1.57665980 0.67976499 1.89355266 127 127 124
1.59595942 0.23667300 1.93683386 86 82 78
1.59266373 0.24714828 1.93242567 90 86 85
1.59110423 0.25431095 1.94798656 82 76 75
1.58123577 0.27371672 1.91494870 102 101 94
1.58611292 0.27836122 1.92995971 83 83 78
1.58249164 0.28732493 1.92858025 85 84 79
1.59381783 0.28099543 1.94238353 81 81 78
1.58107615 0.67838705 1.89885676 136 137 130
1.60313699 0.23702434 1.94657773 87 84 79
1.60890067 0.23670685 1.96490383 90 89 86
1.60265470 0.24671598 1.93683386 90 89 87
1.60515411 0.24762776 1.95359645 83 81 81
1.60890067 0.24689538 1.96490383 86 84 83
1.60476494 0.69332153 1.93131578 126 126 123
1.61459678 0.69661796 1.94517428 129 130 125
1.62456894 0.69826108 1.95922494 130 131 123
1.62118256 0.70334065 1.95922494 122 122 119
1.62588155 0.70198315 1.96490383 125 126 120
