ply
format ascii 1.0
element vertex 1081
property float x
property float y
property float z
property uchar red
property uchar green
property uchar blue
end_header
-0.76364034 -0.46148106 1.66558194 63 46 45
-0.76176864 -0.45747823 1.66149962 64 43 46
-0.74970931 -0.46045074 1.64138460 67 44 46
-0.74273973 -0.44841665 1.63282465 58 44 45
-0.75052594 -0.45143974 1.64429084 60 43 45
-0.74379665 -0.42946802 1.62434355 60 42 47
-0.72473249 -0.46232209 1.59880149 67 50 53
-0.72767916 -0.46593601 1.60596485 71 50 53
-0.72415282 -0.45696880 1.59665184 62 48 52
-0.72825599 -0.45136089 1.61184657 60 46 49
-0.73473490 -0.44695867 1.62499485 57 45 45
-0.72240502 -0.45327328 1.65139631 92 99 114
-0.72886956 -0.42811057 1.61429053 64 54 62
-0.72858478 -0.42881306 1.62707975 78 74 84
-0.72398780 -0.42337195 1.64337659 89 91 117
-0.73721415 -0.41651025 1.61402822 63 45 50
-0.72273868 -0.41744673 1.62858486 87 91 112
-0.72656906 -0.41176743 1.64968216 86 94 115
-0.72155663 -0.39801197 1.63544714 83 95 113
-0.71448714 -0.46357390 1.59598008 68 47 52
-0.70970015 -0.45277960 1.59268240 67 58 63
-0.71609591 -0.44529677 1.60534307 64 56 59
-0.71250733 -0.44758782 1.63414456 88 98 114
-0.71683025 -0.44935706 1.64487782 90 98 116
-0.70372891 -0.43917909 1.59503961 102 103 115
-0.71338522 -0.43119487 1.61020958 88 90 102
-0.71342761 -0.42985907 1.62979643 90 95 114
-0.71850222 -0.42640674 1.64138460 91 92 113
-0.70094776 -0.41232567 1.61402822 83 94 116
-0.71250435 -0.41133878 1.63413511 85 93 115
-0.71566522 -0.40654776 1.64138460 83 92 115
-0.71221626 -0.39894181 1.63347435 82 94 115
-0.71011794 0.63243743 1.99187350 75 79 81
-0.70598537 0.64528191 1.99968100 106 108 112
-0.69746086 -0.45398296 1.57466376 63 51 57
-0.69989854 -0.45147133 1.58016741 63 54 59
-0.69650257 -0.42294411 1.61021464 91 95 115
-0.69812834 -0.43163551 1.62369537 89 97 118
-0.69838457 -0.41575140 1.61326513 84 93 114
-0.68495616 0.81569710 1.99381679 173 172 170
-0.66283143 0.77019179 1.91494870 108 108 115
-0.66244753 0.78085572 1.93315514 145 145 148
-0.66838828 0.79068960 1.95247545 152 153 155
-0.66993415 0.79707611 1.96490383 169 170 170
-0.66905716 0.80620549 1.97063243 180 181 177
-0.67435658 0.81673402 1.98795259 186 187 180
-0.67633998 0.82258230 1.99379957 186 187 180
-0.64511028 0.74876601 1.87781680 104 105 106
-0.64974332 0.75441390 1.88653950 106 106 109
-0.64967929 0.76263651 1.89779594 134 134 137
-0.64702693 0.76744741 1.91225159 155 155 156
-0.65328822 0.77291453 1.92584461 151 151 152
-0.64116126 0.78122425 1.90955448 188 188 181
-0.64896655 0.79048842 1.92948687 184 185 180
-0.65743047 0.79526651 1.94798118 187 187 180
-0.62268980 0.71508018 1.82819471 114 115 118
-0.63470228 0.70973148 1.85218008 129 129 131
-0.62130988 0.72032571 1.82228994 105 105 111
-0.63157576 0.73133737 1.85554647 115 117 120
-0.63110236 0.72907546 1.86234021 124 125 127
-0.62748140 0.75251851 1.87265224 169 170 165
-0.63647237 0.75294779 1.88829279 145 146 147
-0.62552959 0.76612759 1.87263894 186 187 180
-0.63638532 0.76885931 1.89533055 184 185 178
-0.61675143 0.69159044 1.80891997 131 132 133
-0.61015528 0.70550880 1.81254506 137 137 138
-0.61118561 0.71850374 1.82969761 137 138 140
-0.60313058 0.72527882 1.81497473 173 173 170
-0.60584147 0.73084463 1.82720552 175 175 170
-0.61700884 0.73493811 1.84713048 155 155 155
-0.60393798 0.74352443 1.81740439 186 186 182
-0.60672528 0.74480877 1.83215793 184 186 177
-0.61438533 0.74889078 1.84880817 177 178 173
-0.61396492 0.76303095 1.85723794 186 185 181
-0.59911937 0.71577883 1.80290389 158 158 156
-0.59420455 0.73142133 1.80691032 183 184 177
-0.59605753 0.74466926 1.81254506 186 186 182
-0.46037629 0.18445125 0.89906079 76 74 81
-0.46344957 0.18411824 0.90506256 76 75 84
-0.44336498 0.16732269 0.87306909 86 88 92
-0.45207974 0.17367855 0.88634562 83 83 89
-0.45620068 0.18185156 0.89392366 76 74 84
-0.42428453 0.15560757 0.85589796 113 113 114
-0.43272366 0.15593078 0.86167663 109 109 111
-0.42468043 0.16378096 0.85574021 94 95 97
-0.43655214 0.16630020 0.86705168 88 90 93
-0.42405491 0.19930591 1.10136849 97 98 99
-0.42207342 0.20356873 1.09869015 100 108 112
-0.42890723 0.21149324 1.10366120 102 103 106
-0.42112394 0.22445770 1.09869015 109 110 118
-0.42581428 0.22208284 1.10239433 105 107 109
-0.40940883 0.15889091 0.84934850 142 143 144
-0.41363666 0.16325860 0.85008699 126 128 130
-0.41338491 0.21324418 1.09773333 103 106 111
-0.41536105 0.21408940 1.10218397 107 109 115
-0.40494591 0.22559680 1.07575695 104 105 109
-0.41214639 0.22306660 1.09163557 108 112 117
-0.41408053 0.22103541 1.10124067 98 98 105
-0.38339835 -0.20280418 0.70914028 80 55 55
-0.38523861 -0.19868184 0.71319991 80 53 53
-0.39973998 0.22607444 1.07773491 115 116 118
-0.36853479 -0.20438311 0.69495761 86 60 58
-0.37691612 -0.20273359 0.70309918 81 56 56
-0.36787628 -0.19842606 0.69690929 80 53 54
-0.37306967 -0.19949172 0.70247859 80 56 55
-0.36035579 0.18419355 0.75742108 97 96 97
-0.36231679 0.28959471 1.31725766 92 94 97
-0.36923668 0.29108723 1.32921083 90 91 95
-0.34674780 -0.06306226 0.74537901 91 86 82
-0.34775111 -0.05722417 0.73898111 119 119 107
-0.34603062 -0.05826631 0.74291431 100 99 88
-0.34149219 0.15556025 0.74508772 93 96 102
-0.34704093 0.16663525 0.73657939 112 110 108
-0.35251865 0.17005859 0.74482203 115 113 113
-0.35818803 0.18200207 0.75377480 102 101 102
-0.34982905 0.27784498 1.31121356 83 83 90
-0.35530600 0.27849859 1.32400751 91 90 96
-0.35002271 0.28982416 1.30972478 104 105 108
-0.34194863 0.30877328 1.27423275 91 92 100
-0.34485780 0.31354418 1.29094864 92 94 102
-0.34723040 0.30436345 1.30562072 92 91 98
-0.34111211 0.32192785 1.29616034 92 95 103
-0.34489212 0.32449599 1.30197004 87 90 97
-0.34524702 0.35853067 0.96841887 99 101 106
-0.33157463 -0.06121024 0.73735029 46 39 40
-0.33748447 -0.06224012 0.74167864 43 38 37
-0.33361919 -0.05657055 0.73806065 82 59 60
-0.33821208 -0.05776786 0.74102857 64 54 52
-0.32293693 0.07090944 0.60923483 142 142 139
-0.33601117 0.14894649 0.73844427 98 97 106
-0.33724683 0.15488208 0.74213885 93 95 100
-0.33427918 0.16562919 0.73884690 121 120 119
-0.33746626 0.16434330 0.74317391 125 124 124
-0.32415565 0.25823787 0.78525240 84 83 88
-0.32328612 0.26416025 0.77513805 94 92 96
-0.32535204 0.26118549 0.78542497 91 90 92
-0.32630560 0.27734373 1.29369930 133 134 132
-0.33407269 0.27872151 1.30364299 129 130 130
-0.32246474 0.29922354 1.27265394 121 123 125
-0.32804553 0.29178117 1.29220664 97 96 102
-0.33618366 0.28770359 1.30352174 114 115 117
-0.32675509 0.30855009 1.27169783 105 108 113
-0.33568890 0.30866547 1.29057349 99 100 108
-0.32424227 0.33329011 0.79179962 103 104 105
-0.33010464 0.33860005 0.94777039 97 99 102
-0.32164851 0.33735433 0.96291453 97 96 98
-0.32714671 0.32149082 1.27663243 108 111 116
-0.33504204 0.32291752 1.29370686 89 91 97
-0.32724548 0.34464092 0.79484341 99 101 100
-0.33330273 0.34896894 0.80237579 110 111 106
-0.32548532 0.34802373 0.93566898 103 103 105
-0.32906474 0.34609620 0.94646657 101 102 105
-0.31695838 0.06899354 0.60934605 134 134 133
-0.30676175 0.25673700 0.77298509 85 85 89
-0.31965688 0.25936371 0.78278506 100 100 99
-0.30656555 0.26779398 0.75385723 99 100 101
-0.31455884 0.26385194 0.76701339 95 95 96
-0.31892031 0.26011595 0.78098136 96 95 93
-0.31492776 0.27192241 1.27184212 114 115 118
-0.31952396 0.27397853 1.28145909 127 128 130
-0.31575156 0.29017088 1.27134638 103 103 107
-0.31952396 0.28948283 1.28145909 94 92 111
-0.31376778 0.30473655 1.25489290 87 89 94
-0.31625931 0.30437316 1.26399586 102 104 107
-0.31280014 0.32281569 0.77918601 98 102 103
-0.31810547 0.32512333 0.78563315 106 108 109
-0.31428154 0.33650641 0.94852643 112 112 111
-0.31907773 0.33639866 0.96018672 94 95 95
-0.31317367 0.34990125 0.93464927 109 110 112
-0.31437982 0.34671839 0.94720192 112 112 113
-0.28419147 0.25796495 0.73787205 111 111 111
-0.29195061 0.25785408 0.75106186 97 97 100
-0.29845381 0.25620446 0.76232091 73 73 79
-0.28354743 0.26298209 0.73808850 111 110 113
-0.29289285 0.26596754 0.74711538 99 98 100
-0.27090421 -0.12206805 0.63471150 132 119 102
-0.26922068 -0.11669467 0.63422154 132 106 94
-0.27726659 0.25695336 0.73161372 107 108 114
-0.27804388 0.26248892 0.73591077 132 132 134
-0.27790493 0.26439321 0.74005657 140 141 141
-0.25911209 -0.11867329 0.63251132 124 108 89
-0.24405695 -0.10160956 0.94773937 56 56 66
-0.24507569 -0.08910526 0.94642895 51 53 61
-0.24290259 -0.06698932 0.93838893 51 52 62
-0.24432268 -0.07482929 0.94296975 52 53 63
-0.24310327 -0.04092851 0.55977857 93 61 65
-0.24253629 -0.04099621 0.56070459 87 56 60
-0.24177291 -0.03887250 0.55977857 80 51 52
-0.24210006 -0.03378804 0.56113356 64 44 47
-0.23654339 -0.10308167 0.94496711 77 77 85
-0.23550759 -0.08892330 0.94439467 49 49 55
-0.23897953 -0.06864879 0.93890840 49 49 57
-0.23794838 -0.07513271 0.94170481 48 48 57
-0.23602583 -0.03328491 0.55725652 62 44 47
-0.23945561 -0.03176612 0.56029909 63 44 47
-0.20749618 0.15642068 0.61159805 109 107 105
-0.21227005 0.15979379 0.68129832 123 123 123
-0.20711476 0.16474142 0.60991267 110 110 113
-0.20298293 0.16854361 0.65578017 125 126 126
-0.21012247 0.16565790 0.67511733 111 112 114
-0.21117464 0.16286842 0.68061429 104 104 106
-0.20182738 0.18100162 0.61589213 93 92 97
-0.19098441 0.15997183 0.65088767 122 122 122
-0.19574236 0.17019516 0.60614498 110 111 113
-0.19234713 0.16654879 0.65029302 107 107 111
-0.19722370 0.18107890 0.61119321 115 114 115
-0.16854725 0.11239417 0.56429891 121 121 124
-0.17437272 0.12079894 0.56806614 134 135 136
-0.16083396 0.15869635 0.68164380 106 105 109
-0.16249546 0.16261917 0.67834535 106 103 110
-0.16171771 0.16570509 0.68396937 119 120 124
-0.15031028 0.15797549 0.50215848 115 116 117
-0.15164855 0.15815654 0.67608670 125 125 126
-0.15334224 0.15692103 0.68212304 139 138 139
-0.14983914 0.17125979 0.49444824 122 123 124
-0.15163143 0.16407811 0.50157469 112 115 117
-0.14529009 0.17656303 0.65794933 141 140 143
-0.14943131 0.16878036 0.67232814 120 120 123
-0.15598317 0.17163006 0.68233083 99 99 102
-0.13935325 0.17490535 0.66709057 185 185 181
-0.09183804 -0.08108815 0.64588860 45 45 53
-0.09185298 -0.07233381 0.64979075 125 125 134
-0.06049490 -0.22466197 0.75657570 192 196 199
-0.06216636 -0.12346559 0.64245221 45 45 52
-0.06259535 -0.11352718 0.64368667 43 42 51
-0.06200881 -0.08887228 0.64337439 46 45 54
-0.06137304 -0.07918784 0.64255148 50 50 57
-0.06268233 0.01013295 0.79195041 158 157 165
-0.06255218 0.33215279 0.81950195 177 175 168
-0.06558880 0.33302252 0.82206807 185 185 177
-0.06126721 0.34796056 0.81936995 83 83 85
-0.06456313 0.34644285 0.82525585 135 135 130
-0.06531003 0.36030352 0.83484215 0 0 0
-0.06724991 0.36153200 0.84105688 0 0 0
-0.04385023 -0.36610666 0.71947780 61 62 68
-0.04861551 -0.36438471 0.72165186 80 83 88
-0.04393048 -0.35005771 0.71912208 57 59 66
-0.04722028 -0.35588196 0.72168867 65 67 76
-0.05010047 -0.30243425 0.74143427 198 199 201
-0.04377672 -0.29256078 0.73924953 198 201 203
-0.04898332 -0.29382956 0.74256829 198 200 202
-0.05189095 -0.24373849 0.61307258 67 68 77
-0.05210059 -0.23454168 0.61773953 76 77 85
-0.05321924 -0.22521888 0.62148328 84 83 91
-0.05159783 -0.22756627 0.75496246 56 58 66
-0.05254914 -0.21574053 0.62306374 74 75 83
-0.05193517 -0.21659975 0.75395675 50 49 61
-0.05882260 -0.12439671 0.63898507 61 60 67
-0.05494185 -0.12439998 0.64149622 60 59 68
-0.05336425 -0.10660491 0.63906695 90 90 101
-0.05492376 -0.11364547 0.64076889 60 60 69
-0.05533659 -0.09324661 0.63938412 50 50 58
-0.05645042 -0.08825007 0.64019300 49 49 58
-0.05666211 -0.07770896 0.63952059 54 54 59
-0.05794755 -0.07801645 0.64039962 51 51 57
-0.05294579 -0.00103152 0.78925922 197 197 202
-0.05386068 0.00930039 0.79025854 198 198 205
-0.05309524 0.01762273 0.80287405 199 199 208
-0.04946072 0.02798615 0.79866267 200 201 207
-0.05221698 0.02436485 0.80323986 200 200 208
-0.05166950 0.33474275 0.81936995 161 155 148
-0.05190681 0.33197188 0.82599041 156 153 148
-0.05409950 0.32769036 0.84001470 153 153 149
-0.05740754 0.34460725 0.81679882 92 90 90
-0.05552010 0.34255915 0.82238683 109 100 101
-0.00036012 0.01612513 0.79751980 202 202 209
-0.00036276 0.00860087 0.80338176 201 200 208
-0.00928994 0.13002396 0.47161124 165 161 157
-0.00146149 0.12878371 0.48009336 170 165 160
-0.01291068 0.15304321 0.65484335 190 187 181
-0.00307300 0.17727876 0.59343219 141 139 134
-0.00695422 0.17818541 0.60142499 161 157 149
-0.01425029 0.16081558 0.65894754 192 186 180
-0.00912457 0.16884443 0.66756728 160 157 155
-0.00390848 0.18100708 0.59119380 154 150 141
-0.00753575 0.18026458 0.60043561 165 161 154
-0.00318560 0.18808812 0.92577841 192 187 183
-0.00423689 0.24636080 0.69828344 143 143 141
-0.00233522 0.24514126 0.70086524 140 136 134
0.01376382 -0.37144199 0.71864742 69 71 75
0.01227525 -0.36536086 0.72117106 67 68 73
0.01331484 -0.35128967 0.71939205 67 68 72
0.01320252 -0.35662280 0.72093417 73 74 78
0.01223987 -0.30566882 0.74664686 186 189 191
0.01301126 -0.29432642 0.74794984 179 181 183
0.01798180 -0.24118004 0.77606419 166 166 171
0.01478659 -0.23117734 0.77583698 109 109 116
0.01914811 -0.21894061 0.77806881 194 195 197
0.01410944 -0.16108458 0.78658446 133 134 141
0.00368844 -0.14675460 0.77918601 194 195 200
0.01060281 -0.15058786 0.78543941 165 165 172
0.01526811 -0.08149959 0.79934190 133 134 139
0.01495168 -0.07321820 0.79880196 134 134 140
0.00951954 -0.07689615 0.80034459 63 62 70
0.01283933 -0.03049022 0.46435252 183 183 191
0.01644802 -0.01610160 0.45886185 200 199 206
0.01577046 -0.01845956 0.46228545 199 199 206
0.01448416 -0.00214276 0.79881291 113 113 121
0.00828521 -0.00145540 0.80042342 199 199 204
0.01013520 0.01031678 0.79820307 157 158 165
0.00846808 0.00666433 0.80079050 183 183 189
0.00583807 0.02023671 0.79658429 201 201 208
0.00091234 0.13019939 0.47392996 140 138 138
0.01537201 0.17830137 0.47632601 151 151 145
0.01289337 0.17955874 0.48162995 151 151 146
0.00699880 0.17920500 0.57939497 155 155 153
0.00419676 0.17737897 0.58421077 141 139 139
0.00126891 0.17112448 0.66662463 160 156 154
0.01333165 0.17929086 0.91772846 152 153 154
0.01190210 0.17839874 0.92726184 143 140 141
0.01580864 0.18395737 0.47804530 151 151 149
0.01306968 0.18399944 0.48045521 149 149 146
0.01076338 0.18061132 0.57989037 158 157 152
0.00585927 0.18074844 0.58275953 159 158 155
0.01778162 0.18510253 0.87639579 159 158 155
0.01556311 0.18608293 0.88974711 168 164 164
0.01303770 0.18583962 0.91211050 163 161 161
0.00543607 0.18720215 0.92544424 146 142 143
0.00457363 0.24550315 0.69756726 138 135 132
0.00498407 0.25132585 0.70093553 139 137 135
0.02522953 -0.36839723 0.71920673 192 195 194
0.02478674 -0.36437499 0.72074487 192 195 194
0.02759103 -0.35385677 0.71879035 191 193 194
0.02482629 -0.35588279 0.72067253 191 193 194
0.02567949 -0.30491420 0.74730829 60 61 69
0.02526466 -0.29430064 0.74783219 59 60 68
0.02433866 -0.24161984 0.77582925 194 195 197
0.02575956 -0.23027187 0.77481924 194 195 198
0.02114771 -0.21875229 0.77739888 193 194 196
0.02503273 -0.16161640 0.78765455 48 48 57
0.02545975 -0.15073416 0.78670041 46 46 54
0.02223439 -0.08201017 0.79888716 194 195 199
0.02722524 -0.08213932 0.80137112 196 196 202
0.02449365 -0.07157550 0.79886514 198 198 203
0.02636032 -0.07561558 0.80137132 198 198 203
0.02415042 -0.00219086 0.79841476 53 52 63
0.02592189 -0.00180106 0.80034459 53 52 62
0.02374931 0.00743439 0.79884335 49 49 57
0.02475525 0.00933878 0.80062838 48 47 56
0.02069882 0.18275814 0.47215206 154 154 153
0.03778672 0.45294532 1.71618187 161 159 155
0.05611481 0.21248321 0.67928857 146 140 137
0.05526564 0.21399832 0.68420219 142 136 135
0.05743388 0.23166506 0.68992937 160 157 150
0.05536285 0.23808612 0.70030147 160 161 149
0.05991776 0.25207957 0.68780677 130 126 125
0.05882380 0.27380642 0.71628971 139 137 132
0.05704727 0.27788825 0.72162331 146 145 137
0.05934707 0.28120144 0.71924886 128 124 121
0.05729045 0.28468893 0.72287932 124 121 120
0.05734583 0.39436699 1.55009176 156 155 151
0.05637867 0.39608267 1.57283485 159 159 157
0.05158668 0.39561154 1.59281063 153 153 154
0.04647507 0.39620045 1.60637879 142 142 144
0.05841946 0.40228981 1.55479777 144 143 141
0.05611826 0.40237108 1.56557012 158 158 150
0.05268682 0.40603537 1.59052178 160 158 155
0.04946559 0.41187192 1.61339537 160 156 155
0.04573270 0.41108132 1.62957126 161 159 158
0.04346674 0.41418933 1.65038246 154 153 153
0.04253581 0.41614611 1.66972488 147 147 147
0.05758106 0.42118892 1.60637879 142 136 138
0.05479136 0.42790727 1.62663093 138 133 134
0.05086100 0.43170809 1.64979956 142 137 138
0.04715093 0.43317107 1.66968837 164 158 158
0.04360889 0.42221361 1.71184814 141 139 140
0.04106489 0.42951089 1.72931588 141 141 140
0.04159544 0.43203253 1.75165856 137 135 135
0.05081377 0.44811519 1.66918419 121 119 120
0.04537872 0.44624000 1.68967700 147 141 141
0.04197119 0.45304495 1.70539099 144 140 138
0.04915409 0.46015069 1.69897699 118 118 118
0.04644324 0.46246433 1.70754701 121 120 120
0.04680406 0.46599017 1.72053766 119 116 117
0.07952121 -0.00112399 0.81087542 51 51 60
0.07952128 0.00658724 0.81087617 48 48 54
0.07961077 0.16138425 0.56350112 106 104 107
0.07408728 0.21358136 0.67647073 144 143 143
0.06647731 0.21467430 0.68486121 123 120 120
0.07368023 0.22886997 0.67569651 139 138 138
0.06476457 0.22695069 0.68555459 135 133 130
0.06762584 0.24564897 0.67604839 133 128 124
0.06128481 0.25534424 0.68937001 117 117 115
0.06189225 0.26114963 0.69885755 125 123 118
0.06210096 0.27424022 0.71223369 123 120 117
0.06909630 0.28731201 0.71640567 129 129 130
0.06457996 0.29014566 0.72163541 98 98 105
0.06065521 0.39264122 1.54330742 153 152 149
0.09302537 -0.36458854 0.71005646 133 135 138
0.09115065 -0.35432459 0.71394940 146 148 151
0.09814992 -0.30369999 0.73924953 191 194 196
0.09019332 -0.30328543 0.74042274 88 90 95
0.09142962 -0.29260808 0.74176330 108 109 114
0.08306194 -0.24003175 0.76597947 194 195 197
0.09026627 -0.22984111 0.76874418 165 166 170
0.09092822 -0.21949645 0.76902207 170 170 174
0.09091161 -0.16368709 0.79779419 74 75 80
0.08955511 -0.16780074 0.80034459 54 53 59
0.09158457 -0.15194461 0.79679344 77 77 84
0.08199042 -0.15197115 0.80077028 44 44 50
0.09332722 -0.07082215 0.80435004 154 154 162
0.09097469 -0.00153791 0.81150466 93 92 101
0.08971300 0.00874971 0.80768232 84 83 91
0.08637011 0.15888765 0.55748062 140 136 131
0.08408657 0.15680710 0.56614253 138 135 131
0.09623645 0.15672598 0.81062744 132 128 129
0.08491991 0.16212315 0.55630078 127 125 125
0.08607268 0.16250631 0.56349943 118 116 120
0.09674039 0.17043748 0.81733509 162 160 158
0.09610383 0.17529415 0.82083442 159 157 156
0.09690184 0.18740493 0.77587796 164 159 157
0.09235711 0.18684366 0.78204616 155 151 151
0.09640453 0.18088333 0.81739634 161 159 160
0.09478369 0.18135923 0.82168710 162 162 161
0.08201196 0.21313790 0.67165250 156 152 150
0.09971036 0.20174918 0.78233984 157 156 156
0.08249655 0.22509772 0.65086489 168 162 156
0.08329199 0.22450803 0.67001324 133 132 132
0.09860242 0.68344930 1.98504627 171 165 157
0.10318508 -0.36453727 0.71006754 62 62 68
0.10353609 -0.35443263 0.71500454 58 61 67
0.10316249 -0.30305593 0.73798784 192 194 197
0.10424324 -0.30541611 0.74275257 191 195 196
0.10685600 -0.29770684 0.73828391 193 195 197
0.10417407 -0.29289109 0.74282729 194 195 198
0.10340223 -0.23034668 0.76861277 55 54 63
0.10425332 -0.16429264 0.79672762 191 192 195
0.10765757 -0.16750580 0.80224383 190 191 194
0.10573678 -0.15102760 0.79330218 193 193 197
0.11029691 -0.06943266 0.79861647 41 41 50
0.10602837 -0.06789657 0.80338472 45 44 53
0.11111280 -0.05598230 0.79869512 42 41 49
0.11045647 -0.05882893 0.80144901 41 40 49
0.10431066 -0.00238554 0.81532513 201 201 209
0.10967133 -0.00472999 0.82685496 175 175 186
0.10845233 0.00715825 0.79689539 203 202 211
0.10442238 0.00761104 0.80850636 203 203 210
0.10885394 0.00099016 0.82069230 203 203 211
0.10230925 0.15813138 0.80821788 136 135 139
0.10929157 0.16568922 0.57717669 130 127 127
0.10903459 0.16405278 0.58180645 145 142 141
0.10277876 0.16928943 0.81358896 159 154 153
0.10034294 0.17262867 0.82069230 158 151 152
0.10902267 0.18870860 0.77496356 149 146 143
0.10769675 0.19475348 0.78205836 135 134 130
0.10114915 0.18004979 0.81575429 162 161 160
0.10053959 0.20003062 0.77829146 158 152 156
0.10597740 0.20597289 0.78982948 123 122 126
0.10070617 0.67624974 1.95922494 166 159 153
0.10129167 0.68358749 1.97061586 166 158 154
0.13900010 0.18820891 1.07601970 155 152 151
0.13988817 0.18286093 1.08289433 170 163 157
0.15458804 -0.36173679 0.68236546 62 63 69
0.15500341 -0.35028042 0.68439110 61 61 64
0.15665699 -0.33772993 0.68599203 61 61 67
0.15582100 -0.30036098 0.71132410 192 193 195
0.15643068 -0.28964087 0.71403926 192 194 195
0.15595594 -0.27654058 0.71528826 193 194 196
0.15656294 -0.27555296 0.72039515 193 194 196
0.15812971 -0.22637477 0.74409015 51 51 55
0.15859477 -0.21508808 0.74412210 47 47 52
0.15812786 -0.07287718 0.78368998 41 39 48
0.15908994 0.09264967 0.59101295 164 156 150
0.15140009 0.17797925 1.07602151 156 155 157
0.15123799 0.17450724 1.08918177 156 155 155
0.15563577 0.18606589 1.03811920 158 152 148
0.15554746 0.18555873 1.04966114 166 160 157
0.14890329 0.18590178 1.07115445 164 161 159
0.14654732 0.18241469 1.08663666 138 133 136
0.15946188 0.24369901 0.63741606 136 134 127
0.16452784 -0.36116345 0.68236836 141 143 143
0.16695053 -0.34949876 0.68442299 161 162 162
0.16687371 -0.33756091 0.68568813 161 163 165
0.16863280 -0.30293617 0.71364429 114 115 118
0.16930440 -0.28980041 0.71447182 114 115 119
0.17025932 -0.27483553 0.71512357 100 101 108
0.17496429 -0.24013917 0.74575561 154 150 153
0.17058306 -0.22908150 0.74459819 120 120 124
0.16978752 -0.21489392 0.74547820 112 113 118
0.17126940 -0.14943938 0.77307307 153 153 160
0.17324587 -0.13811584 0.77279154 134 133 141
0.17219126 -0.08087013 0.78796480 94 94 102
0.17031504 -0.07095183 0.78719005 81 80 87
0.16125935 -0.00175344 0.77918601 202 201 208
0.17017169 -0.00078459 0.78333956 156 155 160
0.17005168 0.00924498 0.78363109 151 151 158
0.16585024 0.07888085 0.59458642 117 112 116
0.16719984 0.08795013 0.59019797 132 130 131
0.17857395 0.16850582 0.65630938 148 140 141
0.17300665 0.16892405 0.67010492 144 139 139
0.16623893 0.16959527 0.68858007 152 149 149
0.16297917 0.17180749 0.70212093 125 121 123
0.16317753 0.17984009 1.07601881 160 156 157
0.16126179 0.18307505 1.05536914 161 157 157
0.16232679 0.18164200 1.06839697 157 154 156
0.16079035 0.24459454 0.63831621 133 133 124
0.16585418 0.25451211 0.65269729 116 112 110
0.16627006 0.25977555 0.66006994 142 138 134
0.16914068 0.26359601 0.65872921 106 102 98
0.16596615 0.26735711 0.66990386 141 136 130
0.16144957 0.27010412 0.68212332 150 150 144
0.18012589 -0.28402387 0.71507579 51 52 56
0.18012589 -0.27969804 0.71507579 50 50 57
0.18174417 -0.24058073 0.74712688 167 165 169
0.18286358 -0.22845421 0.74472412 191 192 194
0.18259246 -0.21593872 0.74620155 191 193 196
0.18754783 -0.16146111 0.77650839 52 52 61
0.18466760 -0.15039240 0.77357811 48 47 55
0.18130757 -0.13851653 0.77279147 49 48 56
0.18346574 -0.08074727 0.78778857 190 190 194
0.18472701 -0.07033107 0.78785320 190 190 195
0.18365903 -0.00091787 0.78425715 53 51 59
0.18501214 0.00967836 0.78390306 49 48 54
0.18375170 0.17101298 0.65742111 160 159 158
0.18528469 0.17306887 0.66006994 169 167 163
0.21988522 -0.34110633 0.64012450 191 192 192
0.21862036 -0.33836475 0.64084028 190 192 191
0.21294587 -0.21616172 0.63733511 47 47 49
0.21593583 -0.20938116 0.64517580 122 120 123
0.21498246 -0.19991679 0.64870036 190 191 193
0.22780200 -0.34465787 0.63905712 138 129 123
0.22661567 -0.34166654 0.64051187 154 148 140
0.22713626 -0.33669809 0.64298400 147 140 135
0.22893119 -0.20640068 0.65229614 107 103 103
0.23500060 -0.19820211 0.65790428 91 91 96
0.23698783 -0.19250348 0.66246896 89 90 96
0.23217232 -0.10430988 0.68669056 50 47 49
0.22838230 -0.08932743 0.68612917 52 47 50
0.23143351 -0.07303612 0.69136632 101 91 91
0.23798459 -0.07081383 0.76567539 187 187 190
0.23839215 0.01216695 0.77299960 36 35 37
0.23812996 0.10910437 0.45760840 150 148 145
0.23630535 0.11058063 0.46587923 151 148 143
0.24051577 -0.19299968 0.66346167 88 89 94
0.25972686 -0.09419534 0.73220390 51 48 50
0.25956507 -0.09576858 0.74073089 52 49 50
0.24233367 -0.06742671 0.69498639 55 48 51
0.25934611 -0.07645578 0.72754832 51 48 50
0.24658449 -0.06664731 0.76442910 169 167 169
0.24333407 -0.05896776 0.69670284 52 48 54
0.25151223 -0.05952390 0.76441410 138 132 133
0.24886577 0.01025904 0.77375783 73 65 62
0.24003400 0.10471543 0.46177918 134 134 135
0.25482026 0.12797401 0.45232082 139 137 133
0.25978640 0.18560506 0.91237128 168 168 166
0.25874907 0.19443414 0.93718046 151 149 149
0.25904068 0.19859511 0.94413906 121 121 123
0.25242502 0.20813527 0.94783001 146 144 143
0.26191381 -0.10337995 0.73564473 52 49 50
0.26244440 -0.10599053 0.74472882 51 49 49
0.26116417 -0.09037415 0.73458448 51 46 49
0.26212683 -0.08829828 0.74200546 52 47 50
0.26122984 -0.07824449 0.73604863 53 49 50
0.26164267 -0.06380519 0.76425388 60 50 58
0.26206401 -0.05820799 0.76511802 56 50 52
0.26228359 0.00742613 0.77658805 108 96 88
0.26431264 0.00837541 0.78125368 102 95 91
0.26190135 0.18870589 0.91979897 166 166 164
0.26455981 0.19465546 0.93696625 165 162 161
0.26383384 0.19681481 0.94271054 155 153 153
0.26870227 0.20661189 0.93610303 168 163 160
0.26643162 0.20794683 0.94809167 152 150 149
0.28169930 0.21026868 0.96018672 173 167 171
0.29257095 0.27439355 0.71060678 154 154 147
0.29355812 0.27737984 0.72586119 145 144 143
0.28719982 0.28984891 0.71224373 141 135 132
0.28859434 0.28756632 0.72615460 143 144 141
0.35539022 0.67718181 1.89091539 143 143 142
0.37581687 0.19757488 0.49491251 120 121 116
0.37358406 0.20465697 0.49448108 134 135 129
0.37440562 0.38451117 1.17894232 134 134 135
0.37182698 0.39063552 1.19168183 152 149 144
0.36833963 0.39355540 1.20990309 158 156 152
0.37071671 0.39497932 1.22511599 161 158 152
0.37204642 0.40841354 1.19679042 155 153 149
0.37080100 0.40723943 1.20775833 155 153 152
0.36997193 0.40595362 1.22733541 154 154 155
0.37895849 0.42034948 1.19980860 157 157 151
0.37822476 0.42288648 1.20407456 160 157 152
0.37696458 0.67821473 1.89532069 136 135 134
0.37869644 0.67890847 1.90955448 130 128 128
0.36915666 0.68060726 1.87781680 139 139 138
0.36720610 0.68358109 1.89004611 138 137 136
0.36900066 0.68376923 1.90777155 136 136 134
0.37215173 0.68708860 1.92694511 136 136 134
0.37449700 0.69322072 1.95219153 137 136 134
0.37608844 0.69519079 1.96490383 136 133 133
0.39839771 0.13785999 0.48290525 157 158 148
0.39849596 0.14087628 0.48386407 158 158 147
0.38250667 0.19834753 0.49821771 146 146 142
0.38197562 0.19905438 0.50028920 140 141 137
0.38294574 0.20096923 0.49967473 139 140 135
0.38277664 0.20171095 0.50065880 131 132 127
0.38155806 0.37364095 1.13359845 141 138 137
0.38344601 0.37544864 1.14508760 146 145 145
0.38997196 0.38547969 1.17009087 138 137 135
0.38821291 0.39164429 1.19112273 133 132 131
0.39104444 0.40545536 1.19684833 132 129 123
0.39169894 0.41221557 1.21069176 118 115 112
0.38103226 0.42034948 1.19980860 155 156 148
0.39228554 0.42248791 1.21391561 130 128 123
0.39810544 0.42547753 1.22197792 115 109 108
0.39843297 0.63721788 1.89355266 136 137 136
0.39843297 0.64049077 1.89355266 139 138 135
0.38092393 0.67700142 1.90419054 129 127 125
0.38529745 0.68220896 1.90955448 133 134 128
0.38469085 0.68184967 1.92721635 134 129 126
0.38980486 0.68904637 1.94860673 133 129 127
0.38324850 0.69133288 1.96680784 138 132 135
0.38766530 0.69526348 1.98943153 148 142 141
0.41652941 0.10578459 0.49962563 147 141 137
0.41787075 0.10469619 0.50095902 151 145 139
0.40373369 0.13189965 0.48593694 141 140 135
0.40183629 0.14101878 0.48420885 157 158 147
0.40293351 0.39673740 1.17894232 137 132 129
0.40159422 0.39742857 1.18099630 135 133 126
0.40597221 0.40878728 1.19569505 131 128 122
0.40900468 0.41494863 1.20790348 127 124 120
0.41130934 0.42822981 1.19980860 157 157 149
0.41061240 0.42933317 1.20883666 144 144 139
0.40573605 0.43116131 1.22349616 115 112 111
0.41592157 0.44420220 1.21541496 137 137 136
0.41641213 0.45092181 1.22656370 130 130 130
0.41620426 0.45165117 1.24614155 117 117 116
0.40384662 0.63653109 1.88828790 133 133 133
0.40751361 0.64346975 1.89268831 123 123 125
0.40840419 0.65185004 1.90956054 127 125 126
0.40963399 0.65713340 1.92310125 126 124 124
0.41830257 0.67560792 1.90955448 116 117 111
0.41973141 0.66661656 1.93131578 125 123 125
0.41774197 0.67125531 1.94799733 127 123 123
0.41973141 0.68330717 1.93131578 115 115 109
0.40812889 0.69045441 1.95246576 124 122 119
0.41344638 0.69111536 1.96490383 132 128 122
0.42544782 0.09989771 0.49955183 124 119 119
0.42358313 0.10368547 0.49813291 126 122 121
0.42265968 0.10332872 0.50112381 143 137 133
0.42053966 0.42150758 1.21813548 155 154 145
0.42167592 0.42581221 1.22142673 167 163 155
0.42066561 0.45217102 1.21850030 138 137 137
0.42099902 0.45789215 1.22252911 127 126 126
0.42028810 0.45914814 1.25188744 115 115 116
0.42124650 0.46270557 1.23254693 125 123 124
0.42067805 0.46174003 1.25305200 119 120 121
0.42329627 0.46603308 1.27065122 109 109 110
0.42776096 0.47229771 1.29075027 109 109 110
0.42920983 0.47467170 1.30464869 107 107 108
0.43187693 0.48253246 1.31460734 108 108 109
0.42186990 0.67470600 1.92583942 134 130 124
0.42182224 0.67620756 1.94611530 136 128 128
0.42093065 0.68191183 1.93683386 122 122 113
0.42142910 0.68345016 1.95078000 129 127 119
0.42072738 0.69191780 1.96718864 124 121 117
0.44592075 -0.12367935 0.45927653 76 83 87
0.45283961 -0.13249842 0.46552573 78 82 83
0.49606151 0.04723840 0.54580148 151 152 143
0.49567302 0.06686001 0.49617897 102 103 104
0.49525255 0.06286266 0.50028920 102 104 105
0.50701953 0.04881298 0.54804470 133 134 128
0.50299478 0.06626206 0.49735472 95 99 99
0.51549615 0.24787897 0.61466757 116 114 108
0.51720780 0.24417945 0.62219795 117 116 113
0.52601026 0.19470208 0.54557801 129 126 117
0.53267972 0.20595539 0.55396501 141 139 133
0.53737569 0.21084601 0.56163637 147 146 138
0.52961963 0.23823975 0.61071336 122 118 111
0.53415170 0.23643923 0.63290513 150 148 137
0.52688476 0.24812879 0.61453890 111 110 104
0.53148855 0.24406453 0.62784626 104 101 99
0.53239369 0.24219693 0.64072955 142 137 132
0.53430337 0.55778486 1.43621159 152 151 149
0.53515615 0.56177995 1.43849853 154 151 149
0.53615919 0.56858064 1.44725671 155 153 153
0.53972775 0.57750249 1.46097374 156 156 156
0.53832909 0.59340930 1.48497844 151 150 150
0.53990126 0.60445821 1.49644995 145 145 136
0.54366505 0.21751981 0.56958367 139 140 132
0.54818746 0.22709920 0.57479799 135 135 127
0.55203356 0.22835467 0.58150800 134 134 130
0.54235896 0.23593965 0.63081337 136 134 130
0.54231617 0.24212693 0.63135579 114 112 109
0.54175031 0.55902588 1.43621796 151 147 147
0.54293104 0.56354610 1.43824442 158 156 155
0.54579558 0.57240874 1.44851333 157 157 156
0.55453125 0.58426157 1.43824442 153 152 149
0.55190625 0.58621344 1.45043169 148 148 145
0.54865079 0.58849072 1.46973668 153 153 152
0.54500710 0.59476106 1.48812722 153 152 151
0.55686121 0.60359410 1.47004230 146 147 141
0.55208727 0.60850522 1.49111697 150 150 145
0.55102926 0.61512834 1.51279542 142 142 138
0.55464231 0.62338870 1.51023455 143 143 139
0.55448387 0.62919041 1.53086933 137 136 135
0.55718434 0.63829470 1.54066324 137 134 133
0.55978805 0.64241761 1.54417276 132 128 127
0.57949666 0.12511158 0.60221440 135 133 120
0.56225097 0.60799563 1.47367787 145 146 142
0.56276298 0.61003959 1.48173255 145 146 142
0.56172949 0.62281448 1.50643373 150 151 143
0.56092601 0.63349767 1.52909668 143 142 139
0.56117868 0.63829470 1.54066324 141 138 137
0.56314930 0.64168760 1.54241800 139 135 134
0.58575177 0.12914896 0.60447640 129 128 120
0.59466452 0.25566672 0.55438459 138 139 132
0.59527093 0.25922045 0.56024116 152 156 148
0.59300216 0.26289080 0.55413273 137 137 130
0.60868434 0.29586018 0.67865192 105 103 100
0.61532650 0.29332095 0.68916116 142 139 130
0.60988373 0.30606359 0.67865902 122 122 115
0.60906100 0.30432892 0.68061429 113 114 112
0.62245194 0.29228507 0.69729715 153 153 143
0.62501644 0.29206944 0.70088114 144 145 135
0.69117463 0.39009214 0.93685182 114 113 110
0.69405802 0.39690347 0.94367243 106 104 101
0.68544734 0.40595740 0.91855264 138 137 133
0.69465905 0.40563418 0.93232194 120 117 113
0.69524370 0.40929245 0.94579155 120 117 110
0.69077417 0.42094946 0.94876444 121 122 117
0.70186445 0.39670963 0.94493355 110 107 107
0.70094695 0.40169208 0.94589601 113 105 105
0.75813930 0.11705963 0.91675169 111 111 111
0.75866732 0.11421790 0.92167526 111 112 110
0.75812432 0.13049210 0.90978231 116 119 119
0.75900699 0.12172752 0.92305850 89 93 94
0.76804622 0.11695643 0.91127071 106 108 109
0.76106089 0.11805651 0.92500030 96 95 98
0.76788064 0.12533207 0.91067673 102 103 103
0.76032025 0.14069276 0.90748572 161 161 157
0.79158354 0.40162677 1.19347155 159 157 151
0.79719758 0.40655264 1.20193589 159 159 150
0.79144022 0.42428462 1.21704495 105 103 101
0.79683656 0.42415113 1.22763045 120 119 117
0.81123527 0.41620478 1.23329435 153 152 147
0.81274915 0.41566360 1.24156010 142 143 139
0.81217462 0.42605414 1.23590581 139 137 133
0.81853828 0.43191482 1.24384494 126 123 121
0.83214628 0.41872802 1.23478792 125 125 121
0.82908875 0.42467693 1.23396614 140 139 133
0.83395626 0.42968023 1.24799883 143 142 136
0.85231251 -0.58639243 1.57576110 86 91 93
0.85728096 -0.59104071 1.58090582 86 91 93
0.84913348 -0.56931052 1.57466589 87 89 94
0.85497245 -0.56849168 1.58366297 87 88 94
0.84414944 -0.55953735 1.56919408 88 88 96
0.85660894 -0.20836856 0.87866771 77 80 79
0.85778574 -0.20725695 0.88190870 74 79 78
0.85585929 0.41835998 1.26661477 116 115 113
0.85551161 0.43838509 1.23104477 143 142 140
0.84495578 0.43078112 1.25482707 135 135 129
0.85127234 0.42606297 1.26532781 120 119 117
0.85682118 0.44408005 1.23702896 157 157 151
0.85395140 0.44689889 1.26735129 137 138 132
0.86983600 -0.60438088 1.59063876 84 88 91
0.86920583 -0.59038261 1.58801075 84 89 92
0.87907133 -0.56918764 1.57588303 84 89 92
0.86965147 -0.57164747 1.58997068 86 87 93
0.87197338 -0.56690986 1.60543388 85 85 92
0.86608354 -0.20399421 0.88483115 74 80 80
0.86727429 -0.19450259 0.88539330 74 79 80
0.86334819 0.41920692 1.27184212 125 122 116
0.86988546 0.42821769 1.27344314 118 117 115
0.87762634 0.42808371 1.28307708 131 128 120
0.86543212 0.44385328 1.24842246 137 136 135
0.87019716 0.45017552 1.26920366 134 131 126
0.87652099 0.45227784 1.28145909 138 131 126
0.88280094 -0.59006212 1.59016353 83 88 91
0.88276706 -0.56967959 1.58804872 84 87 91
0.89334387 -0.56497891 1.60944223 85 86 93
0.89905149 -0.56986862 1.62175083 85 87 93
0.89396429 -0.55759275 1.60258114 89 89 96
0.89120133 0.43260404 1.29264542 128 125 116
0.88149473 0.44837121 1.27663922 120 116 116
0.88538063 0.44784805 1.28145909 122 121 121
0.88204587 0.46050385 1.27663243 163 160 154
0.89159286 0.46665561 1.29368675 158 155 149
0.90628205 -0.56973793 1.63478955 84 85 91
0.90877616 -0.57156038 1.64271259 85 87 92
0.90957916 0.15992150 0.79285598 150 147 139
0.91451181 0.16888534 0.79473797 145 143 135
0.90174276 0.43701917 1.29864335 117 113 106
0.91060314 0.43581931 1.30716634 135 129 120
0.92191282 -0.57375866 1.66559196 86 87 91
0.92650151 0.16933103 0.79453550 132 131 124
0.92605937 0.16461986 0.80169177 145 143 134
0.94149053 0.17333535 0.79783366 116 117 112
0.94539571 0.39847684 1.04936814 161 161 150
0.95693350 0.39842106 1.58756876 143 140 131
0.95088526 0.40363504 1.05525761 155 154 142
0.95756883 0.40885318 1.06554358 151 147 139
0.95670676 0.40330249 1.56919408 114 108 108
0.95368649 0.40880168 1.58651389 155 151 142
0.96894557 0.39660986 1.59242393 128 122 119
0.97706226 0.39387883 1.60258114 132 129 121
0.96341877 0.41418785 1.07017381 145 143 135
0.96904910 0.41495112 1.08289433 152 147 139
0.97416142 0.41396389 1.55684020 135 132 131
0.97579544 0.41369647 1.56670188 127 125 125
0.96970566 0.40985277 1.58984477 120 115 113
0.97363880 0.43124556 1.07512840 133 134 127
0.97627125 0.43557567 1.08364362 133 133 128
0.97092903 0.42813770 1.55642542 122 123 123
0.97582832 0.42751062 1.57128656 107 106 107
0.97282771 0.42357559 1.59655495 114 112 107
0.97806545 0.42611150 1.60575185 113 111 105
0.97895706 0.44761983 1.07773166 124 124 119
0.97841725 0.44139847 1.08810890 128 125 124
0.99686503 0.39985839 1.59880149 133 133 124
0.98426741 0.39482793 1.61211133 142 138 130
0.98430057 0.40997229 1.57284240 149 147 145
0.98893599 0.41084138 1.58904900 143 142 141
0.99609038 0.41348675 1.61096482 141 140 140
0.99955004 0.41780978 1.62563992 134 128 128
0.98119217 0.43905076 1.07772946 107 111 108
0.98313947 0.43507586 1.09111670 138 139 134
0.99048668 0.43880606 1.10047376 136 137 132
0.98464614 0.42827608 1.57374930 123 125 123
0.98615822 0.42819738 1.58991098 104 104 106
0.99298531 0.42764816 1.61446031 111 111 111
0.99490029 0.42586809 1.62955713 130 128 124
0.98189755 0.44563579 1.07901657 116 116 113
0.98594083 0.44747487 1.08917028 120 120 118
0.99165998 0.45338479 1.10262339 124 124 121
1.00876081 0.39344445 1.61788034 151 144 134
1.01579110 0.39691467 1.63217807 154 147 138
1.01879275 0.39870614 1.64537823 160 154 143
1.00293713 0.40473896 1.60943494 143 142 138
1.01155737 0.40898776 1.62930728 143 140 135
1.01765766 0.40749354 1.64737344 146 142 133
1.00195277 0.43289682 1.62954772 98 99 98
1.01071393 0.43117462 1.65541601 129 125 121
1.03132081 0.37996829 1.15583342 150 151 142
1.02944016 0.38164076 1.15484130 150 151 142
1.03802272 0.38670521 1.16711072 149 150 141
1.02943432 0.39819619 1.63741994 138 134 128
1.02021217 0.39728531 1.64536858 160 152 144
1.02460438 0.41277498 1.63348697 146 147 140
1.03395330 0.40982559 1.64777639 146 142 135
1.02555396 0.41137597 1.66793191 142 139 130
1.02159894 0.42128262 1.66149962 135 130 126
1.05396254 -0.52360220 1.07576761 84 93 92
1.05482948 -0.52437331 1.08279435 83 94 92
1.05425182 -0.51152576 1.07562043 84 93 92
1.05569219 -0.51239215 1.08364789 82 93 91
1.05889046 -0.49843609 1.08289433 87 91 94
1.04465377 0.37889756 1.17419008 155 157 147
1.04494983 0.38944068 1.17537551 147 148 140
1.05451000 0.39062655 1.18860102 153 154 145
1.04503131 0.40621948 1.17689562 144 145 141
1.05339062 0.40279302 1.18724055 143 144 141
1.04138476 0.41057995 1.64737022 144 140 137
1.04744482 0.42128262 1.66149962 155 155 146
1.06120330 -0.52255329 1.07858753 90 95 95
1.06767344 -0.53041101 1.08898360 86 91 91
1.06577975 -0.50431168 1.07944560 85 91 91
1.06522743 -0.50445945 1.08866632 85 91 92
1.06494951 -0.48995141 1.09186084 85 91 91
1.06945703 -0.47366380 1.09418076 86 90 92
1.06267703 0.38901245 1.19910200 153 155 145
1.06979126 0.39760299 1.20948845 155 156 149
1.07153769 0.39770565 1.22851673 122 121 115
1.06330323 0.41620195 1.19980860 144 144 142
1.07342945 0.41192136 1.21162963 142 142 140
1.07454445 0.40453015 1.23075515 125 126 124
1.07649202 0.40926911 1.24430056 91 91 93
1.08164036 -0.53218037 1.09455152 83 85 87
1.08361634 0.39712974 1.22949278 144 144 136
1.09035873 0.39960247 1.55479777 165 166 157
1.08533433 0.41097466 1.23296055 140 141 136
1.08699033 0.41509876 1.24980899 112 113 111
1.09158484 0.41515413 1.26811583 106 105 103
1.09520721 0.40237108 1.56557012 167 167 158
1.09138134 0.42877270 1.23450322 142 143 140
1.09750762 0.42971347 1.25256246 130 130 129
1.09592927 0.42487077 1.26449689 106 106 106
1.09197683 0.42540117 1.55480757 134 126 121
1.08191776 0.43811390 1.71618187 152 152 148
1.09792926 0.44380790 1.24884993 128 128 123
1.08670123 0.65096366 1.99380646 112 113 115
1.10440111 0.41730976 1.28632224 111 109 104
1.10300791 0.40695673 1.57283485 166 163 156
1.11331975 0.41155697 1.58883413 163 160 153
1.10285684 0.43036466 1.25282360 140 140 139
1.10307424 0.43334013 1.26790384 121 122 120
1.11018225 0.43336960 1.28727860 111 112 112
1.10413051 0.42633434 1.57211688 141 135 129
1.11341482 0.42741571 1.58572274 147 143 135
1.10193597 0.44667277 1.25635714 128 129 124
1.10802795 0.44975049 1.26696528 128 129 125
1.11511828 0.44297938 1.28986604 121 123 119
1.11936867 0.44460471 1.30113602 120 120 117
1.11392585 0.46199980 1.27265394 132 135 134
1.12306023 0.41828104 1.59880149 163 158 154
1.13347950 0.41563857 1.60638479 167 165 157
1.12742188 0.42938537 1.59671352 152 149 142
1.13253516 0.42838661 1.60599237 158 154 148
1.13450897 0.43082556 1.62175083 161 161 152
1.12479281 0.45247169 1.29334683 127 129 122
1.13419968 0.45504467 1.30743343 125 127 121
1.13494837 0.44235265 1.60258114 133 132 126
1.12956515 0.46851600 1.29441622 127 128 126
1.13942313 0.46979897 1.30867147 135 136 132
1.14303645 0.41413174 1.60678328 157 158 150
1.14297979 0.42991034 1.59880149 152 150 144
1.14232247 0.42697255 1.60516859 157 154 147
1.14458203 0.45553674 1.33312190 123 123 120
1.14480910 0.44313252 1.60943494 139 139 139
1.14352466 0.47148757 1.31338223 124 125 121
1.15725398 0.46820641 1.33312190 127 129 121
1.16256142 0.42140821 1.61788034 138 138 136
1.16181386 0.47167814 1.33970726 128 129 122
1.16818568 0.47439151 1.34907463 125 126 118
1.17576385 0.48416501 1.35850072 117 118 111
1.17812479 0.48160806 1.36122859 129 129 120
1.18049526 0.48964962 1.36396754 112 113 112
1.19594574 0.48987046 1.38458440 118 119 111
1.21767595 0.87202892 1.99497585 109 109 109
1.21916616 0.88030934 1.99968100 129 129 124
1.23986244 0.49901187 1.47528321 156 156 147
1.23986244 0.50156179 1.47528321 156 156 147
1.22262239 0.88030934 1.99968100 122 122 119
1.25570047 0.47790771 1.49382172 148 149 142
1.24248934 0.48168612 1.47688854 148 148 138
1.25177844 0.48970865 1.48846474 148 148 139
1.25127195 0.51012415 1.49193043 156 156 147
1.25933313 0.50581819 1.50308609 158 158 149
1.24824023 0.81040615 1.94796503 134 131 126
1.25606531 0.81079152 1.97348845 103 104 99
1.25986123 0.81777185 1.98213995 109 109 108
1.25655276 0.82534021 1.97157339 128 128 122
1.25986123 0.82976276 1.98213995 117 117 113
1.27322352 0.47889000 1.51653659 135 134 132
1.27002096 0.48904169 1.51317293 154 153 147
1.27831018 0.48828885 1.52678863 146 146 140
1.26882941 0.51101817 1.51598249 154 154 146
1.27647432 0.51165434 1.52564498 155 155 146
1.26515079 0.52358985 1.51315141 153 155 147
1.27799258 0.52790128 1.53326900 152 154 147
1.26413357 0.81577474 1.98562753 105 106 101
1.26302016 0.82734364 1.97636104 125 124 118
1.26408544 0.82975293 1.98952783 116 116 113
1.26724583 0.84577549 1.99322864 99 99 95
1.29592820 0.47839307 1.54890033 141 140 137
1.28444290 0.49148658 1.53543085 147 148 141
1.29441780 0.48920781 1.54815912 138 137 131
1.28443761 0.50953060 1.53667288 157 156 148
1.29432324 0.51359150 1.55124918 158 158 150
1.28257573 0.52260172 1.53716969 151 152 143
1.28976003 0.52698988 1.55006476 152 153 145
1.30161315 0.49210078 1.55837202 138 138 131
1.30929601 0.49823037 1.56919408 140 140 133
1.30026639 0.50826186 1.55837202 159 158 150
1.30962235 0.51299432 1.57284337 154 155 147
1.31777012 0.51344200 1.58262877 152 153 145
1.30579849 0.53120353 1.57043008 154 154 145
1.31686024 0.52894622 1.58263453 160 160 152
1.32339227 0.49262233 1.58608849 141 140 135
1.33161354 0.49664330 1.60258114 149 148 142
1.32603562 0.50839902 1.59255809 144 144 137
1.33204278 0.50487681 1.60410020 143 142 135
1.32451228 0.53068002 1.59451228 159 159 152
1.33001737 0.53460143 1.60511291 157 157 150
1.33554554 0.54036266 1.61402822 158 158 150
1.34072256 0.49454972 1.61019444 147 146 144
1.34193575 0.54014510 1.62175083 158 156 149
1.34686160 0.71896851 1.56557012 126 123 115
1.35156000 0.72146711 1.57103139 126 125 117
1.37919295 0.73493290 1.60637879 118 118 111
1.38576055 0.73564285 1.61402822 115 116 111
1.39239097 0.73635966 1.62175083 115 118 113
1.39292026 0.74374503 1.62563992 124 122 116
1.40245640 0.73885936 1.63347435 119 123 117
1.41169366 0.74988043 1.64838576 120 119 115
1.43330841 0.35334275 1.30418726 146 146 137
1.43647400 0.36391438 1.30952094 145 146 141
1.42016566 0.75256312 1.65743732 113 116 111
1.43066812 0.75379610 1.66969448 110 114 107
1.45312067 0.33773099 1.30532563 146 146 139
1.45166978 0.34274599 1.29864335 148 146 140
1.45326875 0.34735301 1.30486871 145 145 139
1.44147712 0.36663710 1.31184539 145 144 141
1.44849813 0.75881118 1.69050336 103 104 100
1.44919014 0.76656663 1.69472957 107 111 107
1.46306133 0.32692362 1.31629813 142 143 135
1.47336521 0.33254503 1.32659853 139 139 134
1.46209450 0.35249609 1.31408727 146 146 139
1.47249591 0.34751236 1.32712486 143 143 136
1.46514571 0.36175776 1.31885576 155 157 148
1.47231936 0.36696841 1.32531315 146 147 142
1.46716452 0.76936102 1.71401501 105 105 103
1.47003245 0.77723992 1.72492305 93 94 92
1.47132730 0.78622216 1.73818421 86 86 85
1.47891140 0.79329467 1.74714386 99 98 97
1.48453188 0.33357618 1.33838862 137 137 132
1.48306644 0.35172473 1.33706737 144 144 140
1.48893702 0.34152308 1.34236014 137 138 133
1.48528430 0.36764953 1.33865025 147 148 142
1.49189126 0.37358502 1.34502351 144 144 140
1.49016976 0.77920723 1.74265254 101 101 100
1.48990142 0.78525895 1.74942452 94 94 93
1.49390173 0.79289693 1.76305068 78 78 77
1.50382638 0.37891707 1.35578370 145 144 142
1.51331186 0.80665880 1.79021839 76 76 75
1.51523250 0.81618875 1.81135607 95 95 91
1.51825476 0.82648689 1.82720172 114 115 107
1.52949893 0.79513094 1.78864527 91 91 90
1.52888501 0.80343240 1.79336464 94 94 94
1.52659225 0.81265912 1.81133993 73 72 72
1.53819168 0.81922054 1.83214009 60 60 60
1.53132263 0.82215361 1.83338809 81 81 79
1.53529853 0.83423972 1.84964013 101 101 97
1.54730594 0.80997881 1.81497473 86 86 88
1.55140555 0.81386867 1.82721502 71 71 71
1.54553545 0.82144064 1.83710527 63 63 64
1.55125439 0.82712043 1.85219109 69 69 70
1.55115378 0.83571735 1.87264371 73 73 73
1.55813658 0.83872199 1.88303292 67 66 66
1.55081316 0.85057605 1.87093357 108 108 101
1.55739399 0.84944602 1.89004608 88 88 82
1.55706596 0.86236387 1.87781680 92 92 86
1.57729030 0.21417522 1.97636104 105 105 107
1.57569701 0.21079641 1.98661649 107 108 109
1.57545426 0.22416219 1.97406297 122 124 124
1.57473024 0.22828359 1.98706098 97 97 98
1.57558233 0.25175101 1.97636104 101 102 102
1.57258854 0.24984383 1.99423443 101 102 104
1.56352532 0.80972040 1.83214009 97 97 95
1.57207006 0.82384852 1.84964013 78 78 80
1.56824878 0.83180053 1.86748838 64 64 65
1.56681597 0.83825827 1.88565552 67 65 65
1.56031168 0.85911822 1.87781680 107 104 96
1.56630707 0.84741110 1.89885676 75 75 75
1.57292140 0.85098603 1.90687251 70 70 70
1.56858726 0.86583302 1.89250953 98 97 89
1.57175856 0.86644443 1.91032508 105 102 99
1.57492778 0.87277971 1.92037344 110 109 106
1.58070624 0.21759120 1.97636104 96 99 101
1.58348750 0.21477918 1.99147453 105 105 107
1.58070624 0.22442315 1.97636104 112 114 115
1.59251571 0.22848988 1.99186778 109 110 111
1.58766659 0.24894846 1.99499650 116 117 117
1.59307162 0.83269755 1.87435853 76 76 78
1.58123577 0.84962779 1.91494870 70 67 66
1.58571517 0.84871548 1.92037344 82 73 72
1.58107615 0.87202626 1.89885676 104 101 93
1.58880866 0.87447578 1.90419054 119 116 108
1.59388435 0.88148287 1.91225159 103 103 94
1.58717723 0.88175821 1.93022470 102 102 97
1.58710337 0.88530087 1.94238353 117 117 113
1.60430366 0.83500361 1.88565552 83 83 84
1.61842978 0.84156334 1.90419054 87 88 88
1.60513163 0.89121175 1.94796503 99 99 95
1.88312924 0.33512962 1.66149962 144 146 139
1.89717766 0.34499806 1.71042530 136 136 128
1.89697504 0.34800198 1.72163215 139 139 132
1.91217886 0.31668495 1.72528417 141 141 134
1.90649319 0.33638015 1.68211377 144 145 138
1.90951037 0.33429405 1.71618187 143 143 139
1.91154828 0.33080598 1.72800206 148 147 140
1.91431832 0.33837780 1.74489820 148 150 141
1.90605998 0.35347760 1.69791514 126 124 122
1.91078284 0.34710103 1.71114577 133 134 128
1.90715097 0.34395225 1.72668808 140 141 132
1.91678202 0.34837792 1.74714386 142 142 134
1.91130859 0.36268544 1.70324588 112 111 110
1.93607986 0.31891853 1.72931588 144 145 134
1.93044412 0.33619013 1.70324588 145 146 137
1.93300950 0.33089856 1.72846860 137 137 130
1.93423325 0.33580340 1.76305068 153 154 145
1.92425702 0.34891008 1.71309255 135 136 131
1.93248216 0.34387127 1.72455637 134 135 126
1.92422432 0.35226272 1.75392753 139 140 131
1.92662647 0.36474998 1.71293700 110 109 108
1.94019377 0.33344987 1.71184814 156 157 148
1.94581427 0.33032777 1.72949034 137 137 131
1.94180536 0.33253115 1.76995254 150 148 142
1.94755300 0.34538142 1.72711953 134 135 127
1.96223173 0.33136954 1.73818421 140 141 135
1.97567731 0.33429556 1.74715555 147 148 141
1.96203144 0.34458851 1.73818421 141 141 133
1.97246655 0.34304814 1.74564675 146 147 138
1.98438704 0.33601761 1.75619650 145 147 140
