ply
format ascii 1.0
element vertex 177
property float x
property float y
property float z
property uchar red
property uchar green
property uchar blue
end_header
0.10806975 -0.14720299 0.72148067 255 12 12
0.11896354 -0.14742401 0.72069533 255 12 12
0.12982519 -0.14767436 0.72026796 255 12 12
0.14097265 -0.14793306 0.71985025 255 12 12
0.15215289 -0.14817728 0.71925047 255 12 12
0.16383826 -0.14853878 0.71988411 255 12 12
0.17598772 -0.14903984 0.72202809 255 12 12
0.16488270 -0.13900488 0.60645496 255 12 12
0.17343594 -0.13895536 0.60319223 255 12 12
0.18320022 -0.13913257 0.60224037 255 12 12
0.19382238 -0.13947091 0.60293183 255 12 12
0.20420124 -0.13972966 0.60275505 255 12 12
0.21370640 -0.13982443 0.60090631 255 12 12
0.22359699 -0.13994670 0.59926332 255 12 12
0.23552529 -0.14008837 0.59721304 255 12 12
0.24589965 -0.14017014 0.59493808 255 12 12
-0.02432619 -0.08489656 0.02373874 255 12 12
-0.01308424 -0.08446296 0.01507867 255 12 12
-0.01373580 -0.08439242 0.01444566 255 12 12
-0.01525929 -0.08434241 0.01432889 255 12 12
-0.01586999 -0.08428280 0.01381273 255 12 12
-0.01715756 -0.08423511 0.01364972 255 12 12
-0.02239407 -0.08423245 0.01525595 255 12 12
-0.02324945 -0.08418040 0.01490607 255 12 12
-0.02812805 -0.08413475 0.01589041 255 12 12
-0.03107318 -0.08411846 0.01661839 255 12 12
-0.03147624 -0.08406767 0.01614186 255 12 12
-0.03207399 -0.08402617 0.01583649 255 12 12
-0.03177193 -0.08393648 0.01467806 255 12 12
-0.03355004 -0.08388404 0.01461212 255 12 12
-0.03399103 -0.08383472 0.01416498 255 12 12
-0.03247218 -0.08353090 0.01008564 255 12 12
-0.03312222 -0.08349246 0.00983296 255 12 12
-0.03386514 -0.08344585 0.00951237 255 12 12
-0.03437491 -0.08339585 0.00907862 255 12 12
-0.03520753 -0.08337055 0.00903896 255 12 12
-0.03572431 -0.08332206 0.00862535 255 12 12
-0.04887423 -0.08399336 0.02070208 255 12 12
-0.04921444 -0.08396660 0.02049109 255 12 12
-0.04942391 -0.08392596 0.02007444 255 12 12
-0.05014666 -0.08394453 0.02052080 255 12 12
-0.05048323 -0.08391977 0.02033230 255 12 12
-0.04878568 -0.08300789 0.00898354 255 12 12
-0.04883563 -0.08289133 0.00761641 255 12 12
-0.04911323 -0.08280718 0.00670494 255 12 12
-0.04946100 -0.08274218 0.00604269 255 12 12
-0.05010466 -0.08272817 0.00607779 255 12 12
-0.05089293 -0.08275139 0.00659983 255 12 12
-0.05297396 -0.08257843 0.00519883 255 12 12
-0.05355756 -0.08255039 0.00504879 255 12 12
-0.05407549 -0.08250460 0.00466752 255 12 12
-0.05493567 -0.08257329 0.00575140 255 12 12
-0.05550035 -0.08254843 0.00563321 255 12 12
-0.05598449 -0.08248497 0.00503174 255 12 12
-0.05650754 -0.08246330 0.00493829 255 12 12
-0.05699521 -0.08240112 0.00435316 255 12 12
-0.05760578 -0.08239859 0.00451411 255 12 12
-0.05821028 -0.08239701 0.00468449 255 12 12
-0.05887154 -0.08239414 0.00485718 255 12 12
-0.06107756 -0.08288887 0.01141634 255 12 12
-0.06338913 -0.08362043 0.02081792 255 12 12
-0.06507989 -0.08358267 0.02089882 255 12 12
-0.06548950 -0.08351183 0.02018651 255 12 12
-0.06678116 -0.08353432 0.02085734 255 12 12
-0.06694569 -0.08361747 0.02189529 255 12 12
-0.06724904 -0.08361417 0.02195096 255 12 12
-0.06756319 -0.08361114 0.02201330 255 12 12
-0.06902153 -0.08364609 0.02288402 255 12 12
-0.06998801 -0.08371262 0.02397560 255 12 12
-0.07036352 -0.08369181 0.02384616 255 12 12
-0.07091299 -0.08362748 0.02325486 255 12 12
-0.08335169 -0.08203685 0.00827555 255 12 12
-0.08490950 -0.08197609 0.00804204 255 12 12
-0.08477700 -0.08209639 0.00942769 255 12 12
-0.08528400 -0.08211062 0.00975511 255 12 12
-0.08593542 -0.08210485 0.00989037 255 12 12
-0.08599632 -0.08218329 0.01083998 255 12 12
-0.08633559 -0.08222046 0.01138700 255 12 12
-0.08666358 -0.08225815 0.01193680 255 12 12
-0.08652309 -0.08235826 0.01308047 255 12 12
-0.08668847 -0.08241812 0.01384225 255 12 12
-0.08777077 -0.08235525 0.01343503 255 12 12
-0.08902404 -0.08227351 0.01285725 255 12 12
-0.08965157 -0.08227468 0.01306744 255 12 12
-0.09042102 -0.08225567 0.01308255 255 12 12
-0.09138177 -0.08221886 0.01294639 255 12 12
-0.09218023 -0.08220335 0.01301222 255 12 12
-0.09280787 -0.08220875 0.01327249 255 12 12
-0.09353821 -0.08219144 0.01329563 255 12 12
-0.09292891 -0.08239628 0.01553507 255 12 12
-0.09314362 -0.08244113 0.01613436 255 12 12
-0.09191379 -0.08270538 0.01888449 255 12 12
-0.09208541 -0.08275069 0.01947564 255 12 12
-0.09185596 -0.08283275 0.02037739 255 12 12
-0.09179107 -0.08289525 0.02109862 255 12 12
-0.09172307 -0.08295858 0.02182862 255 12 12
-0.09203717 -0.08298584 0.02225023 255 12 12
-0.09296208 -0.08296170 0.02225315 255 12 12
-0.09369879 -0.08295772 0.02243635 255 12 12
-0.09746567 -0.08276633 0.02134403 255 12 12
-0.09779236 -0.08280116 0.02185941 255 12 12
-0.10100293 -0.08267669 0.02138702 255 12 12
-0.10219409 -0.08265128 0.02145823 255 12 12
-0.10339718 -0.08262904 0.02157070 255 12 12
-0.10392973 -0.08265435 0.02203747 255 12 12
-0.10401682 -0.08271213 0.02275018 255 12 12
-0.10476567 -0.08272481 0.02313479 255 12 12
-0.10551195 -0.08273903 0.02353697 255 12 12
-0.10673226 -0.08272903 0.02380005 255 12 12
-0.10702127 -0.08277651 0.02445361 255 12 12
-0.10500408 -0.08349185 0.03230895 255 12 12
-0.09763949 -0.08398443 0.03584901 255 12 12
-0.09774792 -0.08402506 0.03636488 255 12 12
-0.09858386 -0.08403442 0.03673747 255 12 12
-0.09703585 -0.08418619 0.03805371 255 12 12
-0.09989643 -0.08416130 0.03865322 255 12 12
-0.10070524 -0.08417766 0.03910024 255 12 12
-0.10200505 -0.08417805 0.03951142 255 12 12
-0.44895184 -0.07323677 0.01823119 255 12 12
-0.45104453 -0.07366070 0.02391491 255 12 12
-0.45704456 -0.07396562 0.02940895 255 12 12
-0.46596619 -0.07421205 0.03512289 255 12 12
-0.47305290 -0.07452043 0.04099782 255 12 12
-0.46830587 -0.07515832 0.04708055 255 12 12
-0.45997322 -0.07586242 0.05282708 255 12 12
-0.49461000 -0.07662458 0.07270242 255 12 12
-0.49190014 -0.07721377 0.07884453 255 12 12
-0.49333178 -0.07772246 0.08532696 255 12 12
-0.49861242 -0.07819152 0.09254320 255 12 12
-0.49486081 -0.07880634 0.09866356 255 12 12
-0.48609102 -0.07947533 0.10385684 255 12 12
-0.47699794 -0.08013832 0.10887793 255 12 12
-0.46779295 -0.08081030 0.11397057 255 12 12
-0.46667582 -0.08135801 0.12011871 255 12 12
-0.46744581 -0.08187926 0.12654327 255 12 12
-0.46467179 -0.08244265 0.13235917 255 12 12
-0.46315860 -0.08294589 0.13785590 255 12 12
-0.46267280 -0.08348220 0.14406637 255 12 12
-0.46622390 -0.08399624 0.15127520 255 12 12
-0.47466650 -0.08452214 0.16015479 255 12 12
-0.47817604 -0.08507059 0.16775880 255 12 12
-0.47293262 -0.08564126 0.17288879 255 12 12
-0.46600463 -0.08618967 0.17722766 255 12 12
-0.46372062 -0.08674892 0.18314776 255 12 12
-0.46819714 -0.08732754 0.19141224 255 12 12
-0.47060486 -0.08792334 0.19923343 255 12 12
-0.46710883 -0.08847864 0.20472749 255 12 12
-0.46210913 -0.08902823 0.20968360 255 12 12
-0.68484868 -0.09376756 0.33557584 255 12 12
-0.66917088 -0.09449819 0.33933972 255 12 12
-0.16570535 -0.13293574 0.63785716 255 12 12
-0.15674163 -0.13337907 0.64031286 255 12 12
-0.14802930 -0.13388573 0.64359834 255 12 12
-0.13934115 -0.13433766 0.64624218 255 12 12
-0.13020709 -0.13462527 0.64679725 255 12 12
-0.12164036 -0.13494516 0.64791271 255 12 12
-0.11278438 -0.13532751 0.64967852 255 12 12
-0.10387168 -0.13567950 0.65106654 255 12 12
-0.09490221 -0.13598005 0.65182654 255 12 12
-0.08619696 -0.13689213 0.65992389 255 12 12
-0.05812314 -0.14639711 0.76390230 255 12 12
-0.04722510 -0.14687912 0.76621175 255 12 12
-0.03677554 -0.14660168 0.75965200 255 12 12
-0.02651560 -0.14630674 0.75294404 255 12 12
-0.01624896 -0.14625124 0.74907443 255 12 12
-0.00566324 -0.14623096 0.74552276 255 12 12
0.00465830 -0.14621298 0.74208109 255 12 12
0.01489384 -0.14632797 0.74024381 255 12 12
0.02587836 -0.14684382 0.74292768 255 12 12
0.03547768 -0.14724164 0.74464461 255 12 12
0.04537251 -0.14722940 0.74140451 255 12 12
0.05540387 -0.14731260 0.73925394 255 12 12
0.06557779 -0.14747008 0.73793990 255 12 12
0.07644869 -0.14759999 0.73608079 255 12 12
0.08635648 -0.14755708 0.73247286 255 12 12
0.09551183 -0.14723717 0.72581410 255 12 12
0.10510351 -0.14712257 0.72145442 255 12 12
