ply
format ascii 1.0
element vertex 385
property float x
property float y
property float z
property uchar red
property uchar green
property uchar blue
end_header
-0.00382876 0.01997324 0.37725880 255 12 12
0.00082361 0.01997804 0.37918630 255 12 12
0.00552680 0.01998281 0.38105428 255 12 12
0.01005301 0.01998496 0.38062327 255 12 12
0.01490074 0.01998940 0.38211242 255 12 12
0.01987868 0.01999547 0.38503860 255 12 12
0.02462486 0.01999891 0.38566926 255 12 12
0.02928121 0.02000143 0.38549789 255 12 12
0.03402215 0.02000447 0.38576184 255 12 12
0.03903921 0.02000921 0.38744262 255 12 12
0.04433938 0.02001538 0.39028433 255 12 12
0.04932279 0.02001915 0.39109162 255 12 12
0.05396888 0.02002079 0.39012241 255 12 12
0.05888047 0.02002385 0.39031502 255 12 12
0.06404314 0.02002805 0.39141603 255 12 12
0.06943027 0.02003309 0.39317393 255 12 12
0.07582655 0.02003751 0.39382395 255 12 12
0.08190922 0.02004372 0.39628849 255 12 12
0.08811133 0.02005046 0.39916917 255 12 12
0.09436221 0.02005656 0.40144283 255 12 12
0.09949936 0.02006148 0.40321813 255 12 12
0.10495728 0.02006468 0.40325415 255 12 12
0.11024630 0.02006749 0.40301627 255 12 12
0.11599959 0.02007148 0.40360738 255 12 12
0.12194870 0.02007629 0.40485705 255 12 12
0.12842426 0.02008228 0.40690712 255 12 12
0.13477168 0.02008788 0.40866875 255 12 12
0.14119672 0.02009312 0.41005732 255 12 12
0.14757297 0.02009828 0.41139428 255 12 12
0.15370381 0.02010214 0.41167381 255 12 12
0.16018373 0.02010715 0.41281879 255 12 12
0.16704590 0.02011270 0.41426166 255 12 12
0.17453258 0.02012002 0.41699219 255 12 12
0.18234062 0.02012757 0.41976397 255 12 12
0.18931831 0.02013287 0.42091572 255 12 12
0.19670694 0.02013871 0.42233487 255 12 12
0.20417514 0.02014476 0.42391340 255 12 12
0.21107688 0.02014887 0.42400628 255 12 12
0.21931121 0.02015627 0.42642036 255 12 12
0.22775384 0.02016357 0.42862403 255 12 12
0.23499691 0.02016833 0.42913097 255 12 12
0.24348784 0.02017543 0.43112983 255 12 12
0.25275807 0.02018396 0.43402381 255 12 12
0.26270265 0.02019361 0.43757879 255 12 12
0.27068303 0.02020217 0.44119204 255 12 12
0.27905745 0.02020861 0.44263943 255 12 12
0.28768027 0.02021557 0.44444062 255 12 12
0.29679857 0.02022302 0.44641462 255 12 12
0.30846223 0.02023177 0.44823988 255 12 12
0.31967685 0.02024188 0.45154262 255 12 12
0.33055027 0.02025092 0.45405177 255 12 12
0.34169640 0.02026011 0.45655159 255 12 12
0.35392910 0.02027095 0.45998566 255 12 12
0.36564320 0.02028041 0.46243173 255 12 12
0.37830709 0.02029120 0.46558844 255 12 12
0.39144442 0.02030239 0.46886953 255 12 12
0.40472222 0.02031340 0.47189525 255 12 12
0.41952339 0.02032657 0.47610338 255 12 12
0.43431593 0.02033922 0.47983810 255 12 12
0.44855497 0.02035046 0.48257515 255 12 12
0.46334001 0.02036243 0.48568650 255 12 12
0.47803287 0.02037351 0.48802879 255 12 12
0.49401356 0.02038646 0.49140690 255 12 12
0.51139467 0.02040081 0.49532377 255 12 12
0.53021045 0.02041652 0.49972056 255 12 12
0.54870484 0.02043143 0.50355224 255 12 12
0.56775964 0.02044659 0.50732171 255 12 12
0.58893273 0.02046427 0.51227152 255 12 12
0.61202243 0.02048065 0.51501393 255 12 12
0.63522479 0.02049886 0.51936943 255 12 12
0.65931012 0.02051787 0.52398631 255 12 12
0.68659348 0.02054017 0.52992829 255 12 12
0.71163663 0.02056152 0.53619162 255 12 12
0.73666759 0.02057984 0.53966701 255 12 12
0.76507337 0.02060217 0.54504267 255 12 12
0.79637949 0.02062707 0.55121756 255 12 12
1.84155535 0.02146313 0.76198043 255 12 12
1.87729132 0.02147203 0.75110774 255 12 12
1.97416243 0.02150888 0.73331619 255 12 12
9.42175790 0.02736904 2.14570274 255 12 12
9.43946590 0.02724814 2.02523532 255 12 12
10.39560887 0.02745404 1.70473448 255 12 12
10.41665270 0.02733018 1.57977204 255 12 12
10.44649784 0.02720953 1.45305774 255 12 12
10.47339459 0.02707692 1.31694605 255 12 12
10.49639159 0.02694763 1.18595143 255 12 12
10.52667355 0.02682629 1.05837336 255 12 12
10.55092435 0.02669724 0.92693330 255 12 12
10.57684747 0.02657527 0.80110936 255 12 12
10.60369790 0.02645031 0.67203578 255 12 12
10.63197099 0.02632574 0.54257102 255 12 12
10.65466727 0.02619713 0.41236177 255 12 12
10.67531493 0.02608588 0.29918784 255 12 12
10.71198655 0.02596785 0.17125184 255 12 12
10.74411535 0.02584946 0.04540607 255 12 12
10.76123998 0.02571850 -0.08399699 255 12 12
10.79048613 0.02557774 -0.22884945 255 12 12
10.81819709 0.02544811 -0.36267010 255 12 12
10.82876505 0.02530853 -0.49648176 255 12 12
5.77788501 0.02200626 -0.83719080 255 12 12
5.17844323 0.02154104 -0.94493868 255 12 12
2.16025877 0.02033285 -0.44588862 255 12 12
2.13581401 0.02029466 -0.46793451 255 12 12
2.13487245 0.02026394 -0.49564347 255 12 12
2.14173014 0.02023618 -0.52479406 255 12 12
2.14901091 0.02020748 -0.55502724 255 12 12
0.02988506 0.01957454 -0.00686358 255 12 12
0.02964909 0.01957364 -0.00756429 255 12 12
0.02963996 0.01957278 -0.00834618 255 12 12
0.02891708 0.01957179 -0.00886974 255 12 12
0.02724539 0.01957063 -0.00904886 255 12 12
0.02604854 0.01956960 -0.00936009 255 12 12
0.02182639 0.01956743 -0.00909946 255 12 12
0.01998140 0.01956652 -0.00895209 255 12 12
0.01881134 0.01956566 -0.00911477 255 12 12
0.01787638 0.01956487 -0.00934649 255 12 12
0.01626259 0.01956404 -0.00924222 255 12 12
0.01441782 0.01956321 -0.00902351 255 12 12
0.01281967 0.01956247 -0.00885380 255 12 12
0.01234017 0.01956178 -0.00922693 255 12 12
0.00940948 0.01956050 -0.00884694 255 12 12
0.00979240 0.01955981 -0.00968466 255 12 12
0.00952332 0.01955916 -0.01013858 255 12 12
0.00945517 0.01955847 -0.01073062 255 12 12
0.00960809 0.01955780 -0.01142834 255 12 12
0.00889879 0.01955720 -0.01160679 255 12 12
0.00860619 0.01955654 -0.01204961 255 12 12
0.00872020 0.01955582 -0.01277208 255 12 12
0.00928654 0.01955513 -0.01370941 255 12 12
0.00959098 0.01955437 -0.01457531 255 12 12
0.00957404 0.01955206 -0.01668362 255 12 12
0.00863273 0.01955153 -0.01666671 255 12 12
0.00789885 0.01955098 -0.01677975 255 12 12
0.00735124 0.01955037 -0.01704934 255 12 12
0.00697588 0.01954967 -0.01749147 255 12 12
0.00475757 0.01954894 -0.01698357 255 12 12
-0.00764333 0.01955088 -0.00859248 255 12 12
-0.00840909 0.01955077 -0.00828392 255 12 12
-0.00899054 0.01955059 -0.00813970 255 12 12
-0.00957120 0.01955042 -0.00798935 255 12 12
-0.00776185 0.01954672 -0.01234968 255 12 12
-0.00813620 0.01954618 -0.01264568 255 12 12
-0.00744587 0.01954407 -0.01494537 255 12 12
-0.00736321 0.01954318 -0.01581270 255 12 12
-0.00691861 0.01954211 -0.01703008 255 12 12
-0.00657043 0.01954092 -0.01830982 255 12 12
-0.00665829 0.01954015 -0.01897268 255 12 12
-0.00624992 0.01953775 -0.02138972 255 12 12
-0.00627832 0.01953675 -0.02229076 255 12 12
-0.00618833 0.01953559 -0.02340519 255 12 12
-0.00663430 0.01953505 -0.02366762 255 12 12
-0.00756482 0.01953518 -0.02304780 255 12 12
-0.00800621 0.01953466 -0.02329299 255 12 12
-0.00820628 0.01953381 -0.02396899 255 12 12
-0.00843006 0.01953294 -0.02465049 255 12 12
-0.00897324 0.01953263 -0.02464607 255 12 12
-0.00953369 0.01953230 -0.02464369 255 12 12
-0.00977204 0.01953144 -0.02531177 255 12 12
-0.01002415 0.01953056 -0.02597945 255 12 12
-0.01071395 0.01953042 -0.02574051 255 12 12
-0.01118886 0.01952992 -0.02594599 255 12 12
-0.01165591 0.01952944 -0.02614122 255 12 12
-0.01241206 0.01952955 -0.02563759 255 12 12
-0.01295421 0.01952930 -0.02558038 255 12 12
-0.01333021 0.01952864 -0.02598857 255 12 12
-0.01388116 0.01952839 -0.02592189 255 12 12
-0.01434771 0.01952794 -0.02608408 255 12 12
-0.01449460 0.01952665 -0.02718747 255 12 12
-0.01602581 0.01952752 -0.02557221 255 12 12
-0.01655698 0.01952733 -0.02546784 255 12 12
-0.01704853 0.01952689 -0.02560565 255 12 12
-0.01840456 0.01952769 -0.02415021 255 12 12
-0.02072685 0.01953107 -0.01980750 255 12 12
-0.02214447 0.01953383 -0.01651801 255 12 12
-0.02475477 0.01953987 -0.00958247 255 12 12
-0.02499939 0.01953942 -0.00986168 255 12 12
-0.02566486 0.01954061 -0.00841777 255 12 12
-0.02588717 0.01954019 -0.00868529 255 12 12
-0.02614129 0.01954002 -0.00870145 255 12 12
-0.02660902 0.01953837 -0.00997374 255 12 12
-0.02687218 0.01953848 -0.00973075 255 12 12
-0.02713465 0.01953778 -0.01023472 255 12 12
-0.02740163 0.01953762 -0.01023548 255 12 12
-0.02818319 0.01953882 -0.00871808 255 12 12
-0.02876322 0.01953743 -0.00968839 255 12 12
-0.02897307 0.01953787 -0.00917205 255 12 12
-0.02925531 0.01953746 -0.00939930 255 12 12
-0.02998481 0.01953767 -0.00881724 255 12 12
-0.03027488 0.01953727 -0.00903069 255 12 12
-0.03041991 0.01953803 -0.00825154 255 12 12
-0.03105321 0.01953695 -0.00890706 255 12 12
-0.03374208 0.01952765 -0.01601166 255 12 12
-0.03650632 0.01951922 -0.02227937 255 12 12
-0.03932422 0.01951338 -0.02614529 255 12 12
-0.03991119 0.01951296 -0.02621910 255 12 12
-0.04059715 0.01951166 -0.02704416 255 12 12
-0.04099216 0.01951187 -0.02664271 255 12 12
-0.04129314 0.01951239 -0.02600281 255 12 12
-0.04193673 0.01951170 -0.02629581 255 12 12
-0.04318240 0.01951211 -0.02525466 255 12 12
-0.04364867 0.01951206 -0.02505288 255 12 12
-0.04400877 0.01951232 -0.02461774 255 12 12
-0.04446698 0.01951229 -0.02440565 255 12 12
-0.04491262 0.01951226 -0.02419263 255 12 12
-0.04525342 0.01951255 -0.02374573 255 12 12
-0.04591058 0.01951192 -0.02397239 255 12 12
-0.04670301 0.01951099 -0.02440383 255 12 12
-0.04738867 0.01951038 -0.02460188 255 12 12
-0.04808208 0.01950977 -0.02478852 255 12 12
-0.04868766 0.01950949 -0.02472989 255 12 12
-0.04940357 0.01950890 -0.02488820 255 12 12
-0.04998571 0.01950863 -0.02482751 255 12 12
-0.05044608 0.01950867 -0.02454043 255 12 12
-0.05082365 0.01950872 -0.02429893 255 12 12
-0.05098107 0.01950939 -0.02359791 255 12 12
-0.05139704 0.01950945 -0.02331814 255 12 12
-0.05196246 0.01950922 -0.02323175 255 12 12
-0.05212996 0.01950992 -0.02250026 255 12 12
-0.05195821 0.01951123 -0.02138846 255 12 12
-0.05175419 0.01951254 -0.02029284 255 12 12
-0.05184242 0.01951325 -0.01959558 255 12 12
-0.05225409 0.01951336 -0.01927203 255 12 12
-0.05248638 0.01951378 -0.01876335 255 12 12
-0.05226456 0.01951584 -0.01699216 255 12 12
-0.05261864 0.01951597 -0.01668401 255 12 12
-0.05280903 0.01951641 -0.01617905 255 12 12
-0.05315309 0.01951655 -0.01586428 255 12 12
-0.05367295 0.01951640 -0.01571943 255 12 12
-0.05469348 0.01951537 -0.01612558 255 12 12
-0.05538968 0.01951495 -0.01614185 255 12 12
-0.05824136 0.01951180 -0.01751716 255 12 12
-0.05860938 0.01951201 -0.01712709 255 12 12
-0.05933462 0.01951164 -0.01707739 255 12 12
-0.06155143 0.01950979 -0.01759178 255 12 12
-0.06135465 0.01951091 -0.01666735 255 12 12
-0.06171176 0.01951117 -0.01623829 255 12 12
-0.06186080 0.01951172 -0.01565792 255 12 12
-0.06240224 0.01951171 -0.01537647 255 12 12
-0.06329502 0.01951112 -0.01544745 255 12 12
-0.06362194 0.01951140 -0.01501395 255 12 12
-0.06313452 0.01951280 -0.01398891 255 12 12
-0.06303590 0.01951364 -0.01326849 255 12 12
-0.06275938 0.01951480 -0.01235427 255 12 12
-0.05937396 0.01952055 -0.00887371 255 12 12
-0.07229349 0.01950959 -0.01205586 255 12 12
-0.07258548 0.01951002 -0.01150229 255 12 12
-0.07287692 0.01951047 -0.01093275 255 12 12
-0.05889554 0.01952981 -0.00062215 255 12 12
-0.06105685 0.01952861 -0.00057805 255 12 12
-0.06097028 0.01952919 -0.00008784 255 12 12
-0.06543894 0.01952654 -0.00014242 255 12 12
-0.07043267 0.01952377 -0.00001938 255 12 12
-0.07034174 0.01952450 0.00059818 255 12 12
-4.56105518 0.01574928 -1.07299441 255 12 12
-4.57256559 0.01580363 -1.01694576 255 12 12
-4.58342423 0.01586131 -0.95818884 255 12 12
-4.59572654 0.01591638 -0.90105786 255 12 12
-4.60806180 0.01597004 -0.84520379 255 12 12
-4.61599164 0.01602855 -0.78724565 255 12 12
-4.62583206 0.01607995 -0.73479745 255 12 12
-4.63638105 0.01613505 -0.67856986 255 12 12
-4.23527983 0.01654659 -0.51440613 255 12 12
-0.49510381 0.01933423 0.05224933 255 12 12
-0.49333085 0.01934137 0.05786419 255 12 12
-0.49347856 0.01934760 0.06366186 255 12 12
-0.49330591 0.01935399 0.06943947 255 12 12
-0.49231841 0.01936075 0.07511976 255 12 12
-0.49150900 0.01936743 0.08082111 255 12 12
-0.49186383 0.01937364 0.08671055 255 12 12
-0.49288281 0.01937962 0.09274718 255 12 12
-0.49284017 0.01938606 0.09863708 255 12 12
-0.49247773 0.01939264 0.10448931 255 12 12
-0.49350916 0.01939875 0.11065619 255 12 12
-0.49470288 0.01940488 0.11691699 255 12 12
-0.49578244 0.01941126 0.12334961 255 12 12
-0.49632089 0.01941772 0.12957614 255 12 12
-0.49653505 0.01942434 0.13576882 255 12 12
-0.50004065 0.01943009 0.14291846 255 12 12
-0.74786943 0.01938188 0.23072291 255 12 12
-0.72725778 0.01939728 0.23388286 255 12 12
-0.71000293 0.01941142 0.23766919 255 12 12
-0.69364572 0.01942516 0.24157335 255 12 12
-0.67736365 0.01943826 0.24492612 255 12 12
-0.66344461 0.01945054 0.24878665 255 12 12
-0.64836433 0.01946267 0.25189088 255 12 12
-0.63347135 0.01947462 0.25491959 255 12 12
-0.61705263 0.01948617 0.25678105 255 12 12
-0.60205976 0.01949715 0.25886893 255 12 12
-0.59053346 0.01950741 0.26214860 255 12 12
-0.57742396 0.01951752 0.26445322 255 12 12
-0.56502199 0.01952727 0.26679560 255 12 12
-0.55287135 0.01953670 0.26898210 255 12 12
-0.53963325 0.01954587 0.27034659 255 12 12
-0.52881131 0.01955486 0.27283065 255 12 12
-0.51874167 0.01956340 0.27530485 255 12 12
-0.50846895 0.01957169 0.27745097 255 12 12
-0.49821862 0.01957975 0.27938521 255 12 12
-0.48669912 0.01958749 0.28035184 255 12 12
-0.47501373 0.01959492 0.28094801 255 12 12
-0.46678749 0.01960236 0.28340027 255 12 12
-0.45814706 0.01960958 0.28542367 255 12 12
-0.44840194 0.01961664 0.28670854 255 12 12
-0.43939164 0.01962338 0.28809785 255 12 12
-0.43102940 0.01963001 0.28973304 255 12 12
-0.42248561 0.01963642 0.29106087 255 12 12
-0.41348959 0.01964269 0.29203329 255 12 12
-0.40641394 0.01964901 0.29406476 255 12 12
-0.39875095 0.01965503 0.29551011 255 12 12
-0.38992910 0.01966056 0.29588567 255 12 12
-0.38388399 0.01966668 0.29827924 255 12 12
-0.37802812 0.01967274 0.30072639 255 12 12
-0.37044685 0.01967812 0.30162196 255 12 12
-0.36251890 0.01968318 0.30204829 255 12 12
-0.35463282 0.01968806 0.30232421 255 12 12
-0.34864089 0.01969350 0.30413258 255 12 12
-0.34302004 0.01969899 0.30617881 255 12 12
-0.33649367 0.01970397 0.30726803 255 12 12
-0.33036264 0.01970934 0.30893173 255 12 12
-0.32396880 0.01971427 0.31005178 255 12 12
-0.31889570 0.01971959 0.31223479 255 12 12
-0.31338764 0.01972477 0.31405347 255 12 12
-0.30660061 0.01972854 0.31390022 255 12 12
-0.30103244 0.01973325 0.31526310 255 12 12
-0.29729050 0.01973906 0.31859900 255 12 12
-0.29269341 0.01974428 0.32094052 255 12 12
-0.28535012 0.01974747 0.31995788 255 12 12
-0.27775506 0.01975024 0.31845501 255 12 12
-0.27195019 0.01975416 0.31896340 255 12 12
-0.26785824 0.01975935 0.32154733 255 12 12
-0.26322078 0.01976386 0.32321569 255 12 12
-0.25745280 0.01976749 0.32347307 255 12 12
-0.25238385 0.01977142 0.32438629 255 12 12
-0.24867726 0.01977678 0.32732912 255 12 12
-0.24348968 0.01978105 0.32848867 255 12 12
-0.23695905 0.01978340 0.32716247 255 12 12
-0.23212465 0.01978738 0.32824232 255 12 12
-0.22796200 0.01979204 0.33030865 255 12 12
-0.22312601 0.01979588 0.33125495 255 12 12
-0.21752866 0.01979868 0.33084253 255 12 12
-0.21172031 0.01980103 0.32990872 255 12 12
-0.20682320 0.01980442 0.33040530 255 12 12
-0.20254226 0.01980856 0.33192616 255 12 12
-0.19848587 0.01981299 0.33383145 255 12 12
-0.19372108 0.01981632 0.33435251 255 12 12
-0.18885747 0.01981939 0.33458178 255 12 12
-0.18447102 0.01982338 0.33590784 255 12 12
-0.18080359 0.01982832 0.33849054 255 12 12
-0.17668210 0.01983249 0.34012176 255 12 12
-0.17203984 0.01983566 0.34055708 255 12 12
-0.16750743 0.01983894 0.34115809 255 12 12
-0.16307727 0.01984235 0.34192871 255 12 12
-0.15874164 0.01984590 0.34287264 255 12 12
-0.15431391 0.01984918 0.34352650 255 12 12
-0.15005452 0.01985339 0.34512679 255 12 12
-0.14620012 0.01985830 0.34758266 255 12 12
-0.14199266 0.01986205 0.34877943 255 12 12
-0.13721596 0.01986455 0.34852772 255 12 12
-0.13303796 0.01986757 0.34907748 255 12 12
-0.12882184 0.01987114 0.35010983 255 12 12
-0.12480312 0.01987533 0.35181044 255 12 12
-0.12036204 0.01987813 0.35201644 255 12 12
-0.11611967 0.01988154 0.35289054 255 12 12
-0.11192991 0.01988513 0.35395444 255 12 12
-0.10749917 0.01988774 0.35399324 255 12 12
-0.10340466 0.01989170 0.35543944 255 12 12
-0.09884396 0.01989457 0.35565199 255 12 12
-0.09438408 0.01989731 0.35578589 255 12 12
-0.09051919 0.01990256 0.35855041 255 12 12
-0.08637598 0.01990714 0.36054822 255 12 12
-0.08228496 0.01991024 0.36121663 255 12 12
-0.07803140 0.01991369 0.36211212 255 12 12
-0.07376413 0.01991708 0.36295577 255 12 12
-0.06954329 0.01992093 0.36424381 255 12 12
-0.06512152 0.01992405 0.36474562 255 12 12
-0.06081370 0.01992729 0.36543169 255 12 12
-0.05651525 0.01993075 0.36631427 255 12 12
-0.05221764 0.01993442 0.36739389 255 12 12
-0.04782590 0.01993673 0.36717335 255 12 12
-0.04348869 0.01994003 0.36789760 255 12 12
-0.03915333 0.01994382 0.36906853 255 12 12
-0.03478645 0.01994730 0.36993655 255 12 12
-0.03050671 0.01995176 0.37175017 255 12 12
-0.02608937 0.01995516 0.37251204 255 12 12
-0.02176390 0.01995762 0.37247119 255 12 12
-0.01732711 0.01996064 0.37287554 255 12 12
