ply
format ascii 1.0
element vertex 258
property float x
property float y
property float z
property uchar red
property uchar green
property uchar blue
end_header
0.00279399 -0.11229744 0.34031788 255 12 12
0.00698159 -0.11228343 0.33884188 255 12 12
0.01105998 -0.11226334 0.33732785 255 12 12
0.01544763 -0.11232600 0.33669886 255 12 12
0.01974034 -0.11240471 0.33628988 255 12 12
0.02390348 -0.11241238 0.33507875 255 12 12
0.02789988 -0.11237065 0.33333375 255 12 12
0.03311228 -0.11267540 0.33531872 255 12 12
0.03677258 -0.11253485 0.33250649 255 12 12
0.03969503 -0.11221319 0.32777646 255 12 12
0.04426379 -0.11232570 0.32768215 255 12 12
0.04885075 -0.11243260 0.32751563 255 12 12
0.05311922 -0.11240043 0.32579889 255 12 12
0.05691331 -0.11229806 0.32339777 255 12 12
0.06028217 -0.11212560 0.32029806 255 12 12
0.06533717 -0.11229621 0.32074096 255 12 12
0.06955601 -0.11233300 0.31985780 255 12 12
0.07215057 -0.11201459 0.31526897 255 12 12
0.07566872 -0.11188706 0.31265564 255 12 12
0.07972629 -0.11186262 0.31109655 255 12 12
0.08544164 -0.11194275 0.31025951 255 12 12
0.09230906 -0.11235155 0.31296115 255 12 12
0.09552351 -0.11137158 0.30033024 255 12 12
0.08570319 -0.10857993 0.27028390 255 12 12
0.07683241 -0.10611561 0.24382385 255 12 12
0.07836670 -0.10583356 0.23999793 255 12 12
0.07353210 -0.10420619 0.22220432 255 12 12
0.07140792 -0.10306355 0.20931336 255 12 12
0.06866099 -0.10192783 0.19669930 255 12 12
0.06922525 -0.10162348 0.19291228 255 12 12
0.06499431 -0.10041808 0.17993570 255 12 12
0.07256462 -0.10061683 0.17992565 255 12 12
0.08427649 -0.10133162 0.18474209 255 12 12
0.09466544 -0.10177833 0.18679202 255 12 12
0.21089147 -0.10929211 0.23957620 255 12 12
0.27438383 -0.11243756 0.25703209 255 12 12
0.35082580 -0.11580255 0.27304197 255 12 12
0.35871616 -0.11576253 0.27009932 255 12 12
0.38124736 -0.11604105 0.26635613 255 12 12
0.38596274 -0.11569751 0.26080576 255 12 12
0.39487782 -0.11543331 0.25488305 255 12 12
0.41131411 -0.11577100 0.25374809 255 12 12
0.42454805 -0.11588199 0.25092545 255 12 12
0.43462299 -0.11575751 0.24629756 255 12 12
0.44354746 -0.11570516 0.24288513 255 12 12
0.45434628 -0.11562478 0.23855383 255 12 12
0.46976769 -0.11579865 0.23579299 255 12 12
0.48526517 -0.11592845 0.23248551 255 12 12
0.49645666 -0.11580486 0.22751889 255 12 12
0.50647413 -0.11558228 0.22174510 255 12 12
0.51998221 -0.11553406 0.21694793 255 12 12
0.53567635 -0.11555205 0.21225252 255 12 12
0.55014797 -0.11547558 0.20681895 255 12 12
0.59157783 -0.11582173 0.19796699 255 12 12
0.60889367 -0.11576314 0.19185580 255 12 12
0.65810869 -0.11614944 0.18104507 255 12 12
0.66887505 -0.11570401 0.17239336 255 12 12
0.68154536 -0.11529533 0.16358203 255 12 12
0.69306118 -0.11485016 0.15469895 255 12 12
0.70103334 -0.11423017 0.14485039 255 12 12
0.71086136 -0.11366188 0.13503469 255 12 12
0.72602972 -0.11326079 0.12553205 255 12 12
-0.00074472 -0.08702893 0.04165961 255 12 12
-0.00027264 -0.08696387 0.04074012 255 12 12
0.00287559 -0.08687691 0.03872381 255 12 12
-0.00548405 -0.08656750 0.03766803 255 12 12
-0.00457349 -0.08651352 0.03674277 255 12 12
-0.00824837 -0.08631540 0.03554192 255 12 12
-0.01366447 -0.08611454 0.03485307 255 12 12
-0.01501890 -0.08603783 0.03436675 255 12 12
-0.01488771 -0.08598650 0.03371682 255 12 12
-0.01404540 -0.08593491 0.03284129 255 12 12
-0.00872033 -0.08577375 0.02926381 255 12 12
-0.01845464 -0.08555518 0.02971559 255 12 12
-0.01507278 -0.08542833 0.02715300 255 12 12
-0.01483298 -0.08536356 0.02630959 255 12 12
-0.01461241 -0.08529633 0.02544306 255 12 12
-0.01675066 -0.08518161 0.02475084 255 12 12
-0.01609306 -0.08511153 0.02371381 255 12 12
-0.01568534 -0.08504133 0.02275357 255 12 12
-0.01552955 -0.08497073 0.02186723 255 12 12
-0.01232641 -0.08478672 0.01868241 255 12 12
-0.01962192 -0.08460019 0.01875153 255 12 12
-0.02263185 -0.08454547 0.01904381 255 12 12
-0.02361736 -0.08450455 0.01886655 255 12 12
-0.03460151 -0.08453484 0.02266159 255 12 12
-0.03450043 -0.08447792 0.02195462 255 12 12
-0.03519656 -0.08445180 0.02186256 255 12 12
-0.03569905 -0.08441843 0.02162384 255 12 12
-0.03542561 -0.08435337 0.02076645 255 12 12
-0.03497910 -0.08427839 0.01973728 255 12 12
-0.03534145 -0.08423291 0.01931112 255 12 12
-0.03587757 -0.08419916 0.01907841 255 12 12
-0.03604506 -0.08414766 0.01851983 255 12 12
-0.03658773 -0.08411504 0.01830268 255 12 12
-0.03693047 -0.08407577 0.01794396 255 12 12
-0.03782459 -0.08406562 0.01810317 255 12 12
-0.03870885 -0.08405741 0.01828246 255 12 12
-0.03906554 -0.08401910 0.01793947 255 12 12
-0.03939911 -0.08398400 0.01762738 255 12 12
-0.04042795 -0.08399179 0.01804165 255 12 12
-0.04094587 -0.08396760 0.01791663 255 12 12
-0.04280371 -0.08397900 0.01863303 255 12 12
-0.04251041 -0.08376509 0.01600357 255 12 12
-0.04291430 -0.08372915 0.01570362 255 12 12
-0.04331499 -0.08369426 0.01541503 255 12 12
-0.04399674 -0.08368748 0.01554775 255 12 12
-0.04439961 -0.08365384 0.01527477 255 12 12
-0.04478328 -0.08362247 0.01502260 255 12 12
-0.04465198 -0.08353318 0.01392231 255 12 12
-0.04454839 -0.08344240 0.01281288 255 12 12
-0.04447273 -0.08335015 0.01169486 255 12 12
-0.04715820 -0.08341773 0.01333652 255 12 12
-0.04782251 -0.08341841 0.01355245 255 12 12
-0.04844678 -0.08339905 0.01351796 255 12 12
-0.05038876 -0.08350300 0.01535858 255 12 12
-0.05558597 -0.08375881 0.02001887 255 12 12
-0.05592317 -0.08374093 0.01991225 255 12 12
-0.05619103 -0.08370514 0.01957145 255 12 12
-0.05633250 -0.08363246 0.01875350 255 12 12
-0.05668800 -0.08361502 0.01865781 255 12 12
-0.05698445 -0.08357919 0.01832539 255 12 12
-0.05755197 -0.08333825 0.01564468 255 12 12
-0.05795246 -0.08332114 0.01556698 255 12 12
-0.05843247 -0.08334392 0.01598735 255 12 12
-0.06119899 -0.08322178 0.01540363 255 12 12
-0.06213926 -0.08346603 0.01859532 255 12 12
-0.06251160 -0.08351819 0.01933057 255 12 12
-0.06286191 -0.08352938 0.01957292 255 12 12
-0.06319866 -0.08354136 0.01982029 255 12 12
-0.06534119 -0.08338802 0.01867141 255 12 12
-0.06569722 -0.08338151 0.01870552 255 12 12
-0.06600408 -0.08339738 0.01898981 255 12 12
-0.06628469 -0.08343523 0.01952653 255 12 12
-0.06730028 -0.08342154 0.01968184 255 12 12
-0.06758895 -0.08343970 0.01998755 255 12 12
-0.06777057 -0.08350211 0.02078471 255 12 12
-0.06803658 -0.08352129 0.02109550 255 12 12
-0.06837062 -0.08362685 0.02245226 255 12 12
-0.06879290 -0.08358151 0.02204639 255 12 12
-0.06916088 -0.08355848 0.02188828 255 12 12
-0.07008524 -0.08346956 0.02112254 255 12 12
-0.07016734 -0.08353570 0.02193284 255 12 12
-0.07031419 -0.08358024 0.02250717 255 12 12
-0.07170709 -0.08338495 0.02062611 255 12 12
-0.07194331 -0.08340885 0.02098347 255 12 12
-0.07207662 -0.08345505 0.02157331 255 12 12
-0.07217737 -0.08350142 0.02215485 255 12 12
-0.07607142 -0.08290201 0.01626200 255 12 12
-0.07669030 -0.08288776 0.01628646 255 12 12
-0.07869275 -0.08268598 0.01451909 255 12 12
-0.07937456 -0.08265159 0.01432436 255 12 12
-0.07971399 -0.08265880 0.01451609 255 12 12
-0.08012923 -0.08266823 0.01475783 255 12 12
-0.08040292 -0.08269939 0.01521310 255 12 12
-0.07959333 -0.08297562 0.01823683 255 12 12
-0.08024067 -0.08294435 0.01806829 255 12 12
-0.08009751 -0.08309316 0.01978888 255 12 12
-0.08012045 -0.08314589 0.02042161 255 12 12
-0.07984551 -0.08329377 0.02208997 255 12 12
-0.08015093 -0.08330617 0.02233258 255 12 12
-0.08062963 -0.08329944 0.02240251 255 12 12
-0.08109875 -0.08329297 0.02247243 255 12 12
-0.08354941 -0.08310251 0.02097954 255 12 12
-0.08368196 -0.08313787 0.02144041 255 12 12
-0.08365002 -0.08319403 0.02209669 255 12 12
-0.08342198 -0.08326932 0.02291851 255 12 12
-0.08353679 -0.08330575 0.02338665 255 12 12
-0.08361037 -0.08334038 0.02382042 255 12 12
-0.08333107 -0.08341461 0.02461368 255 12 12
-0.08159277 -0.08367422 0.02714985 255 12 12
-0.07995271 -0.08394467 0.02984521 255 12 12
-0.08113492 -0.08412807 0.03239077 255 12 12
-0.08661488 -0.08381602 0.03040287 255 12 12
-0.09364348 -0.08344728 0.02822687 255 12 12
-0.09408027 -0.08346317 0.02855189 255 12 12
-0.09451785 -0.08348053 0.02889476 255 12 12
-0.10155967 -0.08323829 0.02822359 255 12 12
-0.10786169 -0.08305264 0.02799229 255 12 12
-0.10784207 -0.08311407 0.02871496 255 12 12
-0.10828023 -0.08314860 0.02926166 255 12 12
-0.10824006 -0.08321051 0.02998345 255 12 12
-0.10707858 -0.08344075 0.03235162 255 12 12
-0.11576623 -0.08343068 0.03494941 255 12 12
-0.73008968 -0.09572366 0.37293190 255 12 12
-0.71600861 -0.09648247 0.37752953 255 12 12
-0.70183956 -0.09723031 0.38196947 255 12 12
-0.68767917 -0.09794945 0.38607172 255 12 12
-0.67483836 -0.09866787 0.39057811 255 12 12
-0.66058486 -0.09931010 0.39373876 255 12 12
-0.49937832 -0.09778014 0.32516619 255 12 12
-0.48701931 -0.09815516 0.32574946 255 12 12
-0.47918564 -0.09865829 0.32926798 255 12 12
-0.47337737 -0.09921584 0.33406558 255 12 12
-0.46469232 -0.09966613 0.33669100 255 12 12
-0.45290365 -0.09997063 0.33661608 255 12 12
-0.43874933 -0.10016821 0.33453280 255 12 12
-0.42825178 -0.10047697 0.33491226 255 12 12
-0.42129516 -0.10091299 0.33790891 255 12 12
-0.41097725 -0.10117286 0.33776453 255 12 12
-0.40065574 -0.10142103 0.33748033 255 12 12
-0.39171713 -0.10171143 0.33812958 255 12 12
-0.38228013 -0.10195564 0.33807494 255 12 12
-0.37299421 -0.10217114 0.33772696 255 12 12
-0.36298835 -0.10233654 0.33655947 255 12 12
-0.35591258 -0.10267305 0.33833848 255 12 12
-0.33188935 -0.10262210 0.33022001 255 12 12
-0.32737276 -0.10303303 0.33368224 255 12 12
-0.32462666 -0.10353717 0.33880398 255 12 12
-0.31836944 -0.10382461 0.34025681 255 12 12
-0.30125935 -0.10399474 0.33692344 255 12 12
-0.29883680 -0.10454282 0.34266761 255 12 12
-0.28212396 -0.10462556 0.33842181 255 12 12
-0.27520369 -0.10476301 0.33788780 255 12 12
-0.23107583 -0.10265729 0.29910494 255 12 12
-0.21581566 -0.10237846 0.29102408 255 12 12
-0.20265862 -0.10220805 0.28488719 255 12 12
-0.19707773 -0.10220950 0.28315879 255 12 12
-0.19109113 -0.10216272 0.28073132 255 12 12
-0.18545132 -0.10210944 0.27833526 255 12 12
-0.18147427 -0.10226607 0.27894936 255 12 12
-0.17869994 -0.10259372 0.28196857 255 12 12
-0.16207372 -0.10143284 0.26299654 255 12 12
-0.15022959 -0.10084622 0.25233277 255 12 12
-0.13957023 -0.10035186 0.24313397 255 12 12
-0.13603582 -0.10037587 0.24231335 255 12 12
-0.13182762 -0.10025548 0.23956889 255 12 12
-0.11673102 -0.09905391 0.22059251 255 12 12
-0.11463563 -0.09931356 0.22301738 255 12 12
-0.11158572 -0.09933374 0.22230287 255 12 12
-0.10849364 -0.09930905 0.22104276 255 12 12
-0.10660861 -0.09965693 0.22458020 255 12 12
-0.10446667 -0.09994856 0.22736991 255 12 12
-0.10202078 -0.10132097 0.24288601 255 12 12
-0.09951484 -0.10313075 0.26357198 255 12 12
-0.08666638 -0.11073873 0.34980805 255 12 12
-0.08230357 -0.11087830 0.35009921 255 12 12
-0.07768675 -0.11072600 0.34684841 255 12 12
-0.07309299 -0.11079867 0.34627366 255 12 12
-0.06871652 -0.11100657 0.34737109 255 12 12
-0.06430550 -0.11110506 0.34715986 255 12 12
-0.05991504 -0.11109267 0.34563965 255 12 12
-0.05577033 -0.11094295 0.34256714 255 12 12
-0.05137202 -0.11117233 0.34391259 255 12 12
-0.04709552 -0.11126764 0.34370563 255 12 12
-0.04284178 -0.11123109 0.34194149 255 12 12
-0.03851226 -0.11131707 0.34160734 255 12 12
-0.03423619 -0.11135460 0.34071506 255 12 12
-0.02986803 -0.11153626 0.34150393 255 12 12
-0.02507699 -0.11193109 0.34468931 255 12 12
-0.02010307 -0.11232327 0.34778607 255 12 12
-0.01580588 -0.11231850 0.34638535 255 12 12
-0.01196041 -0.11208984 0.34246992 255 12 12
-0.00789904 -0.11200741 0.34022178 255 12 12
-0.00320394 -0.11233234 0.34260790 255 12 12
0.00157479 -0.11258873 0.34415487 255 12 12
0.00495713 -0.11227006 0.33931647 255 12 12
0.00898639 -0.11223062 0.33758830 255 12 12
