ply
format ascii 1.0
element vertex 195
property float x
property float y
property float z
property uchar red
property uchar green
property uchar blue
end_header
-0.04444129 -0.09186667 0.11271811 255 12 12
-0.03217321 -0.08362022 0.01105171 255 12 12
-0.03237128 -0.08348429 0.00950107 255 12 12
-0.03299138 -0.08344938 0.00928094 255 12 12
-0.03279434 -0.08335735 0.00812747 255 12 12
-0.03294487 -0.08328740 0.00734473 255 12 12
-0.03529921 -0.08330794 0.00832485 255 12 12
-0.04964886 -0.08408100 0.02198408 255 12 12
-0.05020839 -0.08379616 0.01877999 255 12 12
-0.04950036 -0.08342200 0.01411984 255 12 12
-0.04900382 -0.08317716 0.01105991 255 12 12
-0.04904536 -0.08308305 0.00995647 255 12 12
-0.04875251 -0.08280588 0.00657674 255 12 12
-0.04930526 -0.08277354 0.00636599 255 12 12
-0.04965117 -0.08270903 0.00570887 255 12 12
-0.05016536 -0.08268033 0.00552925 255 12 12
-0.05092697 -0.08270529 0.00606359 255 12 12
-0.05150557 -0.08271857 0.00640207 255 12 12
-0.05192775 -0.08267456 0.00601197 255 12 12
-0.05241721 -0.08264961 0.00586908 255 12 12
-0.05291877 -0.08262464 0.00572981 255 12 12
-0.05358826 -0.08263562 0.00606941 255 12 12
-0.05409727 -0.08261156 0.00594326 255 12 12
-0.05454184 -0.08256951 0.00558343 255 12 12
-0.05516258 -0.08258469 0.00595762 255 12 12
-0.05560321 -0.08254399 0.00561262 255 12 12
-0.05606193 -0.08250309 0.00527088 255 12 12
-0.05665691 -0.08252115 0.00567129 255 12 12
-0.05708185 -0.08246149 0.00509637 255 12 12
-0.05770849 -0.08243709 0.00500297 255 12 12
-0.05834866 -0.08247658 0.00567173 255 12 12
-0.05958358 -0.08258030 0.00728835 255 12 12
-0.06305521 -0.08367115 0.02131519 255 12 12
-0.06335340 -0.08368434 0.02156494 255 12 12
-0.06365576 -0.08367677 0.02156974 255 12 12
-0.06396926 -0.08362728 0.02108062 255 12 12
-0.06428426 -0.08359910 0.02084491 255 12 12
-0.06462124 -0.08354977 0.02036509 255 12 12
-0.06507477 -0.08370923 0.02239863 255 12 12
-0.06541097 -0.08366096 0.02193110 255 12 12
-0.06570227 -0.08365602 0.02196369 255 12 12
-0.06648568 -0.08351705 0.02056008 255 12 12
-0.06678947 -0.08351295 0.02060645 255 12 12
-0.06767135 -0.08354587 0.02127281 255 12 12
-0.06866057 -0.08360377 0.02226914 255 12 12
-0.06894133 -0.08360270 0.02234428 255 12 12
-0.07018475 -0.08349159 0.02141505 255 12 12
-0.07005363 -0.08375747 0.02452825 255 12 12
-0.07030911 -0.08375878 0.02462362 255 12 12
-0.07933484 -0.08248394 0.01232307 255 12 12
-0.08444555 -0.08194024 0.00747158 255 12 12
-0.08429236 -0.08205899 0.00883246 255 12 12
-0.08423853 -0.08215641 0.00997134 255 12 12
-0.08427542 -0.08223218 0.01088168 255 12 12
-0.08514196 -0.08218199 0.01055738 255 12 12
-0.08560435 -0.08227309 0.01178275 255 12 12
-0.08591136 -0.08230949 0.01231055 255 12 12
-0.08589068 -0.08238716 0.01322552 255 12 12
-0.08630791 -0.08240299 0.01354382 255 12 12
-0.08718785 -0.08235792 0.01328437 255 12 12
-0.08790458 -0.08233382 0.01322256 255 12 12
-0.08880471 -0.08229117 0.01299823 255 12 12
-0.08970749 -0.08224948 0.01278596 255 12 12
-0.09046300 -0.08222955 0.01278588 255 12 12
-0.09124030 -0.08221161 0.01281620 255 12 12
-0.09200574 -0.08219402 0.01284693 255 12 12
-0.09260179 -0.08219724 0.01307157 255 12 12
-0.09302073 -0.08222087 0.01348293 255 12 12
-0.09288151 -0.08230224 0.01440466 255 12 12
-0.09255712 -0.08240350 0.01550449 255 12 12
-0.09256761 -0.08246558 0.01624424 255 12 12
-0.09294229 -0.08249031 0.01665472 255 12 12
-0.09294907 -0.08255410 0.01741364 255 12 12
-0.09254536 -0.08265400 0.01847250 255 12 12
-0.09192523 -0.08277156 0.01967314 255 12 12
-0.09186223 -0.08283324 0.02038519 255 12 12
-0.09196984 -0.08287569 0.02092244 255 12 12
-0.09148277 -0.08297299 0.02192440 255 12 12
-0.09177253 -0.08299797 0.02231134 255 12 12
-0.09246903 -0.08298884 0.02242092 255 12 12
-0.09532520 -0.08285469 0.02172282 255 12 12
-0.09666896 -0.08279974 0.02149127 255 12 12
-0.09802527 -0.08274727 0.02129297 255 12 12
-0.09896774 -0.08273046 0.02138831 255 12 12
-0.10012889 -0.08269902 0.02137853 255 12 12
-0.10129712 -0.08266976 0.02139681 255 12 12
-0.10159933 -0.08270654 0.02192766 255 12 12
-0.10188841 -0.08274312 0.02245210 255 12 12
-0.10468012 -0.08266538 0.02240304 255 12 12
-0.10586617 -0.08264608 0.02254503 255 12 12
-0.10664867 -0.08266566 0.02302204 255 12 12
-0.10648309 -0.08274021 0.02385470 255 12 12
-0.10652662 -0.08279917 0.02456776 255 12 12
-0.10610230 -0.08288732 0.02548081 255 12 12
-0.10809883 -0.08317505 0.02951867 255 12 12
-0.10828727 -0.08322269 0.03014278 255 12 12
-0.09665071 -0.08402357 0.03600402 255 12 12
-0.09929491 -0.08399268 0.03646461 255 12 12
-0.09980771 -0.08410904 0.03800550 255 12 12
-0.10037519 -0.08413238 0.03845985 255 12 12
-0.10347619 -0.08410964 0.03916003 255 12 12
-0.10303259 -0.08417210 0.03976226 255 12 12
-0.56182530 -0.06986199 0.01350022 255 12 12
-0.55449442 -0.07071314 0.02130468 255 12 12
-0.55302400 -0.07134203 0.02830531 255 12 12
-0.65372909 -0.07049900 0.04980293 255 12 12
-0.65309885 -0.07120458 0.05797622 255 12 12
-0.65360356 -0.07188292 0.06618134 255 12 12
-0.66048271 -0.07242342 0.07474513 255 12 12
-0.66898188 -0.07294743 0.08361987 255 12 12
-0.67186654 -0.07360255 0.09229392 255 12 12
-0.67868293 -0.09078682 0.29828624 255 12 12
-0.68426777 -0.09168952 0.31074199 255 12 12
-0.69433805 -0.09268617 0.32571513 255 12 12
-0.69352955 -0.09356623 0.33590256 255 12 12
-0.69360180 -0.09448582 0.34683452 255 12 12
-0.68841899 -0.09546103 0.35678251 255 12 12
-0.67331609 -0.09617220 0.36049539 255 12 12
-0.66955224 -0.09704868 0.36971595 255 12 12
-0.67057794 -0.09804504 0.38185671 255 12 12
-0.66563537 -0.09878104 0.38904209 255 12 12
-0.60558987 -0.09918848 0.37509457 255 12 12
-0.59618219 -0.09983162 0.37978170 255 12 12
-0.58937950 -0.10055083 0.38618612 255 12 12
-0.58321988 -0.10126585 0.39274194 255 12 12
-0.57718483 -0.10198070 0.39933467 255 12 12
-0.57086322 -0.10268239 0.40568159 255 12 12
-0.56416239 -0.10338400 0.41190909 255 12 12
-0.55669252 -0.10403378 0.41728113 255 12 12
-0.54779161 -0.10461902 0.42143995 255 12 12
-0.53965090 -0.10522215 0.42604867 255 12 12
-0.53301692 -0.10587995 0.43177735 255 12 12
-0.52555451 -0.10649566 0.43674755 255 12 12
-0.51879688 -0.10713710 0.44224335 255 12 12
-0.51216125 -0.10777997 0.44779434 255 12 12
-0.50490947 -0.10838707 0.45272827 255 12 12
-0.49796898 -0.10900460 0.45788332 255 12 12
-0.49168366 -0.10965424 0.46362416 255 12 12
-0.48532211 -0.11029791 0.46927041 255 12 12
-0.47794219 -0.11103632 0.47572194 255 12 12
-0.47169193 -0.11172454 0.48193155 255 12 12
-0.46518021 -0.11239645 0.48786575 255 12 12
-0.45858132 -0.11306253 0.49370353 255 12 12
-0.45264361 -0.11364958 0.49881069 255 12 12
-0.44632892 -0.11431617 0.50474341 255 12 12
-0.43958042 -0.11492908 0.50990365 255 12 12
-0.43294076 -0.11557242 0.51545898 255 12 12
-0.12387648 -0.09083883 0.12537050 255 12 12
-0.12284935 -0.09095439 0.12642013 255 12 12
-0.12208961 -0.09109638 0.12786696 255 12 12
-0.12069539 -0.09118755 0.12851238 255 12 12
-0.11918175 -0.09126106 0.12891106 255 12 12
-0.11862682 -0.09143031 0.13074529 255 12 12
-0.11696258 -0.09148668 0.13089352 255 12 12
-0.11494725 -0.09149437 0.13035436 255 12 12
-0.11318309 -0.09152976 0.13022238 255 12 12
-0.11121481 -0.09152992 0.12960867 255 12 12
-0.10960482 -0.09157409 0.12962906 255 12 12
-0.10804809 -0.09163622 0.12987918 255 12 12
-0.10214311 -0.09131078 0.12417148 255 12 12
-0.10000108 -0.09124273 0.12269425 255 12 12
-0.09891191 -0.09131278 0.12318456 255 12 12
-0.09814380 -0.09145276 0.12460487 255 12 12
-0.09650814 -0.09143943 0.12393516 255 12 12
-0.09450948 -0.09135570 0.12231678 255 12 12
-0.09265319 -0.09128449 0.12089140 255 12 12
-0.08277690 -0.09195047 0.12570291 255 12 12
-0.08160241 -0.09200384 0.12596866 255 12 12
-0.08050268 -0.09209537 0.12671055 255 12 12
-0.07936112 -0.09216578 0.12718878 255 12 12
-0.07818626 -0.09223610 0.12765547 255 12 12
-0.07686416 -0.09222566 0.12711811 255 12 12
-0.07553751 -0.09221392 0.12656385 255 12 12
-0.07418749 -0.09230742 0.12725084 255 12 12
-0.07303683 -0.09243403 0.12839295 255 12 12
-0.07180446 -0.09251967 0.12902339 255 12 12
-0.07051301 -0.09256350 0.12913944 255 12 12
-0.06935432 -0.09253827 0.12847775 255 12 12
-0.06806068 -0.09249499 0.12755973 255 12 12
-0.06684843 -0.09255286 0.12786708 255 12 12
-0.06561399 -0.09256787 0.12765897 255 12 12
-0.06438627 -0.09258119 0.12743303 255 12 12
-0.06316590 -0.09252984 0.12644208 255 12 12
-0.06198189 -0.09243407 0.12493566 255 12 12
-0.06082679 -0.09237814 0.12391090 255 12 12
-0.05967917 -0.09236263 0.12336790 255 12 12
-0.05856127 -0.09232402 0.12256016 255 12 12
-0.05739332 -0.09236920 0.12273083 255 12 12
-0.05624114 -0.09239160 0.12263624 255 12 12
-0.05519187 -0.09232635 0.12153396 255 12 12
-0.05411511 -0.09230240 0.12091306 255 12 12
-0.05258840 -0.09190198 0.11568527 255 12 12
-0.05163994 -0.09180830 0.11427720 255 12 12
-0.05076596 -0.09173351 0.11311664 255 12 12
-0.04978186 -0.09172262 0.11267966 255 12 12
