ply
format ascii 1.0
element vertex 195
property float x
property float y
property float z
property uchar red
property uchar green
property uchar blue
end_header
0.14115325 -0.16997459 0.98127658 255 12 12
-0.02306790 -0.08490635 0.02346131 255 12 12
-0.02265592 -0.08484551 0.02261069 255 12 12
-0.01383677 -0.08445938 0.01527154 255 12 12
-0.01402230 -0.08438533 0.01445112 255 12 12
-0.01486302 -0.08432668 0.01401827 255 12 12
-0.01578197 -0.08429705 0.01395421 255 12 12
-0.01680198 -0.08425218 0.01374100 255 12 12
-0.01843890 -0.08422849 0.01397192 255 12 12
-0.02027744 -0.08421336 0.01436742 255 12 12
-0.02391437 -0.08419313 0.01526501 255 12 12
-0.02468726 -0.08415468 0.01505069 255 12 12
-0.02565874 -0.08412496 0.01500189 255 12 12
-0.02836812 -0.08410283 0.01558684 255 12 12
-0.03121160 -0.08410088 0.01645309 255 12 12
-0.03136980 -0.08398470 0.01512436 255 12 12
-0.03211095 -0.08395871 0.01504777 255 12 12
-0.03266576 -0.08392450 0.01481547 255 12 12
-0.03305645 -0.08387950 0.01440387 255 12 12
-0.03291012 -0.08380553 0.01348059 255 12 12
-0.03365440 -0.08378277 0.01344339 255 12 12
-0.03388203 -0.08372874 0.01287364 255 12 12
-0.03376043 -0.08365466 0.01195675 255 12 12
-0.03417286 -0.08361170 0.01157613 255 12 12
-0.03442389 -0.08355776 0.01101467 255 12 12
-0.03419298 -0.08346897 0.00988919 255 12 12
-0.03432830 -0.08340038 0.00911773 255 12 12
-0.03478739 -0.08335619 0.00873714 255 12 12
-0.03492959 -0.08328868 0.00798071 255 12 12
-0.03586471 -0.08328241 0.00819880 255 12 12
-0.04888341 -0.08406767 0.02158650 255 12 12
-0.05010382 -0.08392352 0.02025819 255 12 12
-0.05041263 -0.08390090 0.02008640 255 12 12
-0.04968887 -0.08364311 0.01680181 255 12 12
-0.04959545 -0.08346219 0.01462627 255 12 12
-0.04849596 -0.08302582 0.00910564 255 12 12
-0.04876307 -0.08296376 0.00845304 255 12 12
-0.04886980 -0.08286666 0.00733450 255 12 12
-0.04926255 -0.08282094 0.00691497 255 12 12
-0.04974172 -0.08265936 0.00514795 255 12 12
-0.05048273 -0.08268511 0.00568516 255 12 12
-0.05121743 -0.08271181 0.00623179 255 12 12
-0.05177962 -0.08255067 0.00449594 255 12 12
-0.05232090 -0.08252346 0.00434247 255 12 12
-0.05290691 -0.08251649 0.00444306 255 12 12
-0.05367051 -0.08256670 0.00527761 255 12 12
-0.05417993 -0.08254295 0.00515510 255 12 12
-0.05468052 -0.08252019 0.00504169 255 12 12
-0.05524408 -0.08251671 0.00517665 255 12 12
-0.05569649 -0.08247577 0.00483250 255 12 12
-0.05621176 -0.08245414 0.00473704 255 12 12
-0.05675265 -0.08238950 0.00413941 255 12 12
-0.05722426 -0.08232840 0.00356207 255 12 12
-0.05845428 -0.08236689 0.00440341 255 12 12
-0.05965545 -0.08249342 0.00628022 255 12 12
-0.06017158 -0.08249713 0.00648564 255 12 12
-0.06284381 -0.08357188 0.02007144 255 12 12
-0.06346903 -0.08366040 0.02131715 255 12 12
-0.06435710 -0.08361853 0.02109812 255 12 12
-0.06467007 -0.08359084 0.02086752 255 12 12
-0.06491107 -0.08364914 0.02163460 255 12 12
-0.06520055 -0.08364364 0.02165987 255 12 12
-0.06558671 -0.08357345 0.02094792 255 12 12
-0.06592128 -0.08354674 0.02073575 255 12 12
-0.06622275 -0.08354206 0.02077459 255 12 12
-0.06656634 -0.08351593 0.02057199 255 12 12
-0.06702777 -0.08344612 0.01988818 255 12 12
-0.06739694 -0.08342044 0.01969894 255 12 12
-0.06739612 -0.08369838 0.02299599 255 12 12
-0.06769299 -0.08367444 0.02280486 255 12 12
-0.06802329 -0.08365053 0.02262454 255 12 12
-0.06817949 -0.08369278 0.02317459 255 12 12
-0.06851128 -0.08366951 0.02300232 255 12 12
-0.06893192 -0.08362451 0.02260004 255 12 12
-0.06914400 -0.08364584 0.02291943 255 12 12
-0.06919685 -0.08371152 0.02371516 255 12 12
-0.07159214 -0.08351926 0.02218353 255 12 12
-0.07187386 -0.08352146 0.02229773 255 12 12
-0.07981378 -0.08235040 0.01088866 255 12 12
-0.08341870 -0.08203833 0.00831409 255 12 12
-0.08500883 -0.08202811 0.00869023 255 12 12
-0.08534421 -0.08206221 0.00919963 255 12 12
-0.08566974 -0.08209679 0.00971165 255 12 12
-0.08643752 -0.08206966 0.00963001 255 12 12
-0.08676038 -0.08210577 0.01015929 255 12 12
-0.08676638 -0.08226193 0.01201372 255 12 12
-0.08749754 -0.08223678 0.01194415 255 12 12
-0.08808806 -0.08223353 0.01209023 255 12 12
-0.08882887 -0.08221037 0.01204718 255 12 12
-0.08926235 -0.08222922 0.01240637 255 12 12
-0.08967408 -0.08224793 0.01275709 255 12 12
-0.09075312 -0.08218743 0.01237696 255 12 12
-0.09134200 -0.08218831 0.01257154 255 12 12
-0.09210165 -0.08217026 0.01259509 255 12 12
-0.09253556 -0.08219359 0.01300757 255 12 12
-0.09313142 -0.08219761 0.01324158 255 12 12
-0.09353984 -0.08222144 0.01365200 255 12 12
-0.09358893 -0.08228483 0.01441936 255 12 12
-0.09361484 -0.08234775 0.01517397 255 12 12
-0.09326226 -0.08244902 0.01626509 255 12 12
-0.09325372 -0.08251161 0.01700482 255 12 12
-0.09280861 -0.08267344 0.01878552 255 12 12
-0.09228923 -0.08283348 0.02052160 255 12 12
-0.09259813 -0.08285889 0.02091967 255 12 12
-0.09311430 -0.08286808 0.02119011 255 12 12
-0.09341993 -0.08289521 0.02160754 255 12 12
-0.09412340 -0.08288749 0.02173607 255 12 12
-0.09700846 -0.08275778 0.02109968 255 12 12
-0.09773619 -0.08275579 0.02130363 255 12 12
-0.09803404 -0.08278772 0.02177564 255 12 12
-0.10171106 -0.08267746 0.02161768 255 12 12
-0.10200437 -0.08271407 0.02214368 255 12 12
-0.10361534 -0.08265750 0.02197652 255 12 12
-0.10530241 -0.08261292 0.02197530 255 12 12
-0.10628068 -0.08261086 0.02225686 255 12 12
-0.10747970 -0.08259503 0.02244414 255 12 12
-0.10800538 -0.08262651 0.02298200 255 12 12
-0.10687011 -0.08275140 0.02410847 255 12 12
-0.10620918 -0.08285176 0.02509241 255 12 12
-0.10801485 -0.08315464 0.02925026 255 12 12
-0.10868205 -0.08317654 0.02971870 255 12 12
-0.10886411 -0.08322398 0.03033844 255 12 12
-0.10086979 -0.08376817 0.03429386 255 12 12
-0.09977320 -0.08386409 0.03508876 255 12 12
-0.09778173 -0.08403843 0.03653406 255 12 12
-0.10008935 -0.08411892 0.03821074 255 12 12
-0.10245435 -0.08412347 0.03900449 255 12 12
-0.10226308 -0.08417729 0.03958310 255 12 12
-0.69696251 -0.06675540 0.01891452 255 12 12
-0.72342618 -0.06753151 0.03639891 255 12 12
-0.73247495 -0.06806720 0.04558419 255 12 12
-0.80913848 -0.06779543 0.06633899 255 12 12
-0.81201289 -0.06860336 0.07682275 255 12 12
-0.81375213 -0.06942613 0.08712736 255 12 12
-0.81109592 -0.07036061 0.09738245 255 12 12
-0.59922280 -0.07719684 0.11221215 255 12 12
-0.58756599 -0.07816092 0.12000312 255 12 12
-0.57972897 -0.07892478 0.12661369 255 12 12
-0.57476542 -0.07963882 0.13353206 255 12 12
-0.57241065 -0.08031694 0.14084014 255 12 12
-0.57271041 -0.08083523 0.14708244 255 12 12
-0.63855240 -0.08163849 0.17720585 255 12 12
-0.63713067 -0.08235702 0.18528511 255 12 12
-0.62733256 -0.08312636 0.19134737 255 12 12
-0.61968818 -0.08385599 0.19761209 255 12 12
-0.61413829 -0.08456817 0.20432486 255 12 12
-0.60683633 -0.08527271 0.21039905 255 12 12
-0.59894913 -0.08597756 0.21629384 255 12 12
-0.59128951 -0.08665511 0.22193601 255 12 12
-0.58758309 -0.08733288 0.22881719 255 12 12
-0.58472478 -0.08801173 0.23597648 255 12 12
-0.58049309 -0.08870889 0.24292350 255 12 12
-0.57413776 -0.08937260 0.24880936 255 12 12
-0.56939104 -0.09002753 0.25509422 255 12 12
-0.56955129 -0.09074181 0.26361798 255 12 12
-0.56803780 -0.09143180 0.27133002 255 12 12
-0.56837942 -0.09216491 0.28013398 255 12 12
-0.57201082 -0.09294248 0.29049424 255 12 12
-0.57091416 -0.09367914 0.29889032 255 12 12
-0.56674015 -0.09447200 0.30699064 255 12 12
-0.56632080 -0.09526376 0.31625223 255 12 12
-0.59921330 -0.09762945 0.35460507 255 12 12
-0.53059827 -0.13755433 0.80677991 255 12 12
-0.52008581 -0.13843420 0.81392985 255 12 12
-0.50925067 -0.13932060 0.82105639 255 12 12
-0.49815479 -0.14013597 0.82725867 255 12 12
-0.48673557 -0.14090950 0.83286351 255 12 12
-0.47570291 -0.14173359 0.83918903 255 12 12
-0.46648734 -0.14314439 0.85304319 255 12 12
-0.46419586 -0.14809235 0.91102501 255 12 12
-0.45327028 -0.14923136 0.92111995 255 12 12
-0.44348948 -0.15025762 0.93023545 255 12 12
-0.42770929 -0.15047541 0.92788343 255 12 12
-0.38473296 -0.14851096 0.89113656 255 12 12
-0.37309608 -0.14935659 0.89752860 255 12 12
-0.36173875 -0.15021437 0.90415231 255 12 12
-0.35017607 -0.15104496 0.91038912 255 12 12
-0.33857007 -0.15188370 0.91670915 255 12 12
-0.32636007 -0.15273732 0.92301673 255 12 12
-0.06408046 -0.16917366 1.03596811 255 12 12
-0.04976796 -0.16903674 1.02986718 255 12 12
-0.03584436 -0.16904103 1.02556297 255 12 12
-0.02172989 -0.16911690 1.02204827 255 12 12
-0.00748657 -0.16911504 1.01757118 255 12 12
0.00636912 -0.16908734 1.01290884 255 12 12
0.02020933 -0.16914742 1.00929264 255 12 12
0.03396013 -0.16918867 1.00548096 255 12 12
0.04717974 -0.16926732 1.00227920 255 12 12
0.06094888 -0.16940199 0.99957007 255 12 12
0.07433135 -0.16947159 0.99620993 255 12 12
0.08786475 -0.16950529 0.99237671 255 12 12
0.10286841 -0.16953869 0.98808019 255 12 12
0.11676707 -0.16966780 0.98526455 255 12 12
0.13077050 -0.16984424 0.98297770 255 12 12
0.14463840 -0.16995869 0.97999782 255 12 12
