ply
format ascii 1.0
element vertex 258
property float x
property float y
property float z
property uchar red
property uchar green
property uchar blue
end_header
0.05407179 -0.12635848 0.49108789 255 12 12
0.05984375 -0.12646683 0.49056786 255 12 12
0.06568984 -0.12659107 0.49021322 255 12 12
0.07147405 -0.12668719 0.48954435 255 12 12
0.07738345 -0.12677711 0.48876270 255 12 12
0.08332863 -0.12690468 0.48841657 255 12 12
0.08920595 -0.12700398 0.48775632 255 12 12
0.09609332 -0.12736070 0.48983386 255 12 12
0.28696202 -0.17147088 0.95342111 255 12 12
0.29898076 -0.17159431 0.95112621 255 12 12
0.31118650 -0.17174823 0.94913447 255 12 12
0.32448160 -0.17201516 0.94814265 255 12 12
0.33716187 -0.17218221 0.94615822 255 12 12
0.34981451 -0.17238145 0.94456432 255 12 12
0.36284159 -0.17258506 0.94290522 255 12 12
-0.01910944 -0.08487759 0.02188201 255 12 12
-0.01261403 -0.08450316 0.01540841 255 12 12
-0.01293583 -0.08444619 0.01483332 255 12 12
-0.01472814 -0.08434907 0.01424169 255 12 12
-0.01509550 -0.08428854 0.01363859 255 12 12
-0.01937609 -0.08427544 0.01482204 255 12 12
-0.02076046 -0.08425334 0.01499287 255 12 12
-0.02152293 -0.08421348 0.01475851 255 12 12
-0.02449595 -0.08418181 0.01531269 255 12 12
-0.02504245 -0.08414026 0.01499069 255 12 12
-0.02599681 -0.08411335 0.01496997 255 12 12
-0.02905191 -0.08411391 0.01593220 255 12 12
-0.03107891 -0.08408497 0.01622290 255 12 12
-0.03120874 -0.08403637 0.01568691 255 12 12
-0.03098749 -0.08396764 0.01480236 255 12 12
-0.03152437 -0.08393464 0.01457875 255 12 12
-0.03242831 -0.08392133 0.01470367 255 12 12
-0.03225382 -0.08384952 0.01379710 255 12 12
-0.03208938 -0.08377738 0.01288997 255 12 12
-0.03299452 -0.08376635 0.01304218 255 12 12
-0.03280582 -0.08363996 0.01148375 255 12 12
-0.03318066 -0.08360038 0.01113141 255 12 12
-0.03327759 -0.08347671 0.00969463 255 12 12
-0.03460022 -0.08334684 0.00856765 255 12 12
-0.03518495 -0.08331862 0.00841582 255 12 12
-0.03575957 -0.08329206 0.00828048 255 12 12
-0.04718581 -0.08392958 0.01941736 255 12 12
-0.05044506 -0.08406812 0.02208034 255 12 12
-0.05045360 -0.08401863 0.02149588 255 12 12
-0.05013903 -0.08387278 0.01966726 255 12 12
-0.04863428 -0.08355104 0.01537969 255 12 12
-0.04895000 -0.08350559 0.01493924 255 12 12
-0.04910376 -0.08344832 0.01430795 255 12 12
-0.04825259 -0.08306401 0.00948265 255 12 12
-0.04867813 -0.08303733 0.00929925 255 12 12
-0.04890596 -0.08297778 0.00866404 255 12 12
-0.04948685 -0.08276309 0.00629881 255 12 12
-0.04977435 -0.08270209 0.00566512 255 12 12
-0.05023754 -0.08267636 0.00550466 255 12 12
-0.05087944 -0.08268575 0.00581682 255 12 12
-0.05150105 -0.08269679 0.00614224 255 12 12
-0.05181407 -0.08263655 0.00552549 255 12 12
-0.05222014 -0.08259398 0.00514749 255 12 12
-0.05282187 -0.08260764 0.00549776 255 12 12
-0.05342356 -0.08262183 0.00585429 255 12 12
-0.05370381 -0.08254349 0.00501267 255 12 12
-0.05479944 -0.08255788 0.00552599 255 12 12
-0.05511038 -0.08247965 0.00469521 255 12 12
-0.05544055 -0.08240109 0.00386651 255 12 12
-0.05592561 -0.08238063 0.00377554 255 12 12
-0.05643339 -0.08235977 0.00368689 255 12 12
-0.05693146 -0.08233985 0.00360640 255 12 12
-0.05749153 -0.08236053 0.00402692 255 12 12
-0.05798526 -0.08234185 0.00395963 255 12 12
-0.05914707 -0.08246887 0.00582998 255 12 12
-0.06021448 -0.08257999 0.00748207 255 12 12
-0.06232265 -0.08329253 0.01659441 255 12 12
-0.06302523 -0.08367195 0.02131535 255 12 12
-0.06361655 -0.08342571 0.01857902 255 12 12
-0.06417963 -0.08347533 0.01934391 255 12 12
-0.06447373 -0.08346879 0.01935826 255 12 12
-0.06476764 -0.08346255 0.01937621 255 12 12
-0.06576523 -0.08359157 0.02121874 255 12 12
-0.06603617 -0.08358725 0.02125229 255 12 12
-0.06638250 -0.08353973 0.02079682 255 12 12
-0.06669654 -0.08351417 0.02059183 255 12 12
-0.06850797 -0.08343173 0.02018046 255 12 12
-0.06879785 -0.08342988 0.02024920 255 12 12
-0.06937233 -0.08351430 0.02143035 255 12 12
-0.06956979 -0.08353577 0.02174679 255 12 12
-0.06990769 -0.08351355 0.02158894 255 12 12
-0.07017387 -0.08351363 0.02167313 255 12 12
-0.07035953 -0.08353600 0.02199657 255 12 12
-0.07029116 -0.08362460 0.02302629 255 12 12
-0.07053963 -0.08362553 0.02311503 255 12 12
-0.07168209 -0.08347474 0.02168353 255 12 12
-0.07176480 -0.08352057 0.02225300 255 12 12
-0.07192584 -0.08354467 0.02258926 255 12 12
-0.07509090 -0.08305139 0.01772740 255 12 12
-0.08173261 -0.08210005 0.00851883 255 12 12
-0.08254786 -0.08204409 0.00810999 255 12 12
-0.08350979 -0.08196778 0.00750557 255 12 12
-0.08450712 -0.08186866 0.00664169 255 12 12
-0.08522257 -0.08183655 0.00648458 255 12 12
-0.08507505 -0.08202988 0.00873192 255 12 12
-0.08548002 -0.08204103 0.00899081 255 12 12
-0.08590055 -0.08205320 0.00926678 255 12 12
-0.08659951 -0.08202384 0.00913702 255 12 12
-0.08716163 -0.08201626 0.00922299 255 12 12
-0.08698925 -0.08219148 0.01124769 255 12 12
-0.08707973 -0.08224729 0.01193808 255 12 12
-0.08731881 -0.08228297 0.01243612 255 12 12
-0.08802575 -0.08225784 0.01235918 255 12 12
-0.08857160 -0.08225369 0.01248059 255 12 12
-0.08911830 -0.08225025 0.01261081 255 12 12
-0.09015571 -0.08218703 0.01218530 255 12 12
-0.09118199 -0.08212397 0.01175818 255 12 12
-0.09190382 -0.08210299 0.01173517 255 12 12
-0.09229025 -0.08212267 0.01208943 255 12 12
-0.09267231 -0.08214285 0.01244839 255 12 12
-0.09370531 -0.08208277 0.01205871 255 12 12
-0.09407922 -0.08210392 0.01242657 255 12 12
-0.09390491 -0.08218318 0.01331230 255 12 12
-0.09408317 -0.08222416 0.01385425 255 12 12
-0.09429235 -0.08226789 0.01443842 255 12 12
-0.09390565 -0.08236675 0.01549023 255 12 12
-0.09331084 -0.08248381 0.01669295 255 12 12
-0.09288016 -0.08258125 0.01771419 255 12 12
-0.09281776 -0.08264141 0.01840833 255 12 12
-0.09273599 -0.08270092 0.01908876 255 12 12
-0.09244704 -0.08277851 0.01991882 255 12 12
-0.09214218 -0.08285560 0.02073806 255 12 12
-0.09242992 -0.08287939 0.02111023 255 12 12
-0.09250620 -0.08292086 0.02162603 255 12 12
-0.09277084 -0.08294428 0.02198665 255 12 12
-0.09364971 -0.08291629 0.02192958 255 12 12
-0.09664804 -0.08275958 0.02100821 255 12 12
-0.09775769 -0.08271930 0.02087751 255 12 12
-0.09845342 -0.08271437 0.02103657 255 12 12
-0.09916853 -0.08271255 0.02123868 255 12 12
-0.09965796 -0.08272700 0.02156320 255 12 12
-0.09992303 -0.08275778 0.02201132 255 12 12
-0.10327153 -0.08261302 0.02134135 255 12 12
-0.10397995 -0.08261613 0.02159977 255 12 12
-0.10468215 -0.08261963 0.02186096 255 12 12
-0.10583608 -0.08259454 0.02192415 255 12 12
-0.10700046 -0.08257228 0.02202433 255 12 12
-0.10816315 -0.08255122 0.02213811 255 12 12
-0.10842073 -0.08259096 0.02269020 255 12 12
-0.10867151 -0.08263115 0.02324539 255 12 12
-0.10705893 -0.08335250 0.03129848 255 12 12
-0.09774012 -0.08392420 0.03516601 255 12 12
-0.09808171 -0.08394634 0.03553541 255 12 12
-0.09891050 -0.08394847 0.03581990 255 12 12
-0.09973558 -0.08395150 0.03611399 255 12 12
-0.10006726 -0.08397671 0.03651676 255 12 12
-0.10109651 -0.08409141 0.03819941 255 12 12
-0.10294996 -0.08410498 0.03894011 255 12 12
-0.56311430 -0.06987901 0.01410537 255 12 12
-0.55546745 -0.07063861 0.02072477 255 12 12
-0.55322336 -0.07121260 0.02683225 255 12 12
-0.55815194 -0.07159091 0.03286179 255 12 12
-0.64750477 -0.07024221 0.04480972 255 12 12
-0.65370666 -0.07067549 0.05188968 255 12 12
-0.65207270 -0.07132398 0.05907175 255 12 12
-0.65284241 -0.07192755 0.06647277 255 12 12
-0.65926736 -0.07239529 0.07403126 255 12 12
-0.66908645 -0.07280587 0.08197323 255 12 12
-0.67281729 -0.07335913 0.08970360 255 12 12
-0.67470573 -0.07395611 0.09737631 255 12 12
-0.67839853 -0.09101585 0.30091431 255 12 12
-0.68184877 -0.09179997 0.31129556 255 12 12
-0.69213108 -0.09269568 0.32513764 255 12 12
-0.69695662 -0.09350422 0.33623892 255 12 12
-0.69512386 -0.09427610 0.34482258 255 12 12
-0.69407190 -0.09506451 0.35384661 255 12 12
-0.68353075 -0.09570411 0.35813728 255 12 12
-0.67067785 -0.09630313 0.36122340 255 12 12
-0.67157449 -0.09712311 0.37123140 255 12 12
-0.67297118 -0.09796638 0.38167219 255 12 12
-0.66899247 -0.09870756 0.38922040 255 12 12
-0.66772117 -0.09951214 0.39836768 255 12 12
-0.66481774 -0.10028521 0.40663059 255 12 12
-0.59940670 -0.10099516 0.39459354 255 12 12
-0.59070109 -0.10152756 0.39818658 255 12 12
-0.58568912 -0.10216463 0.40417662 255 12 12
-0.57979348 -0.10277041 0.40951905 255 12 12
-0.57232930 -0.10333485 0.41388047 255 12 12
-0.56553954 -0.10389698 0.41842541 255 12 12
-0.55990468 -0.10449622 0.42377188 255 12 12
-0.55421368 -0.10509008 0.42903681 255 12 12
-0.54730025 -0.10562995 0.43327904 255 12 12
-0.53997100 -0.10614460 0.43709200 255 12 12
-0.53262076 -0.10664965 0.44078449 255 12 12
-0.52638337 -0.10719805 0.44533932 255 12 12
-0.52018001 -0.10776218 0.45009141 255 12 12
-0.51311935 -0.10825988 0.45378727 255 12 12
-0.50731365 -0.10881579 0.45856620 255 12 12
-0.50181854 -0.10938587 0.46361046 255 12 12
-0.49508075 -0.10990399 0.46764953 255 12 12
-0.48842709 -0.11040154 0.47147093 255 12 12
-0.48278710 -0.11095476 0.47626978 255 12 12
-0.47726433 -0.11151397 0.48117641 255 12 12
-0.47122415 -0.11205929 0.48575643 255 12 12
-0.46542268 -0.11259785 0.49033080 255 12 12
-0.46039345 -0.11318879 0.49576817 255 12 12
-0.45480331 -0.11374181 0.50058037 255 12 12
-0.44902800 -0.11430274 0.50542831 255 12 12
-0.44363480 -0.11487142 0.51048778 255 12 12
-0.43833006 -0.11544897 0.51568011 255 12 12
-0.43341296 -0.11606118 0.52140494 255 12 12
-0.42811016 -0.11664578 0.52668159 255 12 12
-0.42288077 -0.11724050 0.53210120 255 12 12
-0.41699062 -0.11777955 0.53665369 255 12 12
-0.41061330 -0.11827373 0.54052149 255 12 12
-0.40503952 -0.11886940 0.54584467 255 12 12
-0.39952474 -0.11945064 0.55101515 255 12 12
-0.39339267 -0.11997240 0.55528689 255 12 12
-0.38707303 -0.12047506 0.55927341 255 12 12
-0.38056255 -0.12098345 0.56326819 255 12 12
-0.37427265 -0.12149012 0.56731156 255 12 12
-0.36668330 -0.12184247 0.56911766 255 12 12
-0.35799748 -0.12204962 0.56885836 255 12 12
-0.35031865 -0.12236680 0.57021933 255 12 12
-0.34323387 -0.12275213 0.57257463 255 12 12
-0.33442467 -0.12289436 0.57150658 255 12 12
-0.32557259 -0.12300751 0.57008011 255 12 12
-0.31885717 -0.12341267 0.57278617 255 12 12
-0.31306554 -0.12395774 0.57744097 255 12 12
-0.30678576 -0.12443380 0.58112435 255 12 12
-0.29955158 -0.12475549 0.58267793 255 12 12
-0.29319112 -0.12522032 0.58620278 255 12 12
-0.28677906 -0.12568020 0.58965296 255 12 12
-0.27903380 -0.12589513 0.58978004 255 12 12
-0.27131881 -0.12610024 0.58980030 255 12 12
-0.26537396 -0.12668856 0.59492018 255 12 12
-0.26072856 -0.12753018 0.60345150 255 12 12
-0.25454258 -0.12807129 0.60793587 255 12 12
-0.24758147 -0.12844724 0.61021852 255 12 12
-0.24244732 -0.12926948 0.61836704 255 12 12
-0.23607093 -0.12981885 0.62289000 255 12 12
-0.22687731 -0.12962812 0.61775174 255 12 12
-0.09344559 -0.16847138 1.03682173 255 12 12
-0.06578869 -0.12479922 0.51008021 255 12 12
-0.06004979 -0.12484417 0.50881842 255 12 12
-0.05434680 -0.12486129 0.50723774 255 12 12
-0.04868975 -0.12485039 0.50533898 255 12 12
-0.04303426 -0.12491761 0.50436749 255 12 12
-0.03741414 -0.12495715 0.50307869 255 12 12
-0.03194148 -0.12484045 0.49998256 255 12 12
-0.02630001 -0.12497394 0.49980158 255 12 12
-0.02041716 -0.12521147 0.50077943 255 12 12
-0.01478650 -0.12531185 0.50020913 255 12 12
-0.00910456 -0.12544949 0.50006468 255 12 12
-0.00341857 -0.12558130 0.49984997 255 12 12
0.00200446 -0.12561865 0.49859679 255 12 12
0.00756882 -0.12567344 0.49750636 255 12 12
0.01286856 -0.12565523 0.49563267 255 12 12
0.01838993 -0.12569780 0.49441066 255 12 12
0.02439534 -0.12591034 0.49505376 255 12 12
0.03015499 -0.12605020 0.49491142 255 12 12
0.03581780 -0.12614034 0.49420958 255 12 12
0.04153407 -0.12624639 0.49367976 255 12 12
