ply
format ascii 1.0
element vertex 250
property float x
property float y
property float z
property uchar red
property uchar green
property uchar blue
end_header
0.13498685 -0.16992385 0.98260334 255 12 12
0.14839117 -0.17005114 0.97992082 255 12 12
0.16138771 -0.17011605 0.97662582 255 12 12
0.17446519 -0.17012185 0.97260419 255 12 12
0.18728606 -0.17013162 0.96871000 255 12 12
0.20063968 -0.17023549 0.96576543 255 12 12
0.21406805 -0.17043209 0.96389763 255 12 12
0.22774753 -0.17061224 0.96175607 255 12 12
0.24117173 -0.17077567 0.95949602 255 12 12
0.25475817 -0.17089980 0.95671903 255 12 12
0.26799309 -0.17098572 0.95359866 255 12 12
0.28153997 -0.17107550 0.95042653 255 12 12
0.29475220 -0.17119513 0.94771323 255 12 12
0.30839154 -0.17134021 0.94516827 255 12 12
0.32193166 -0.17144623 0.94219083 255 12 12
0.33647384 -0.17175349 0.94128746 255 12 12
0.35218434 -0.17216739 0.94128371 255 12 12
0.36676291 -0.17236859 0.93911061 255 12 12
-0.02328022 -0.08486501 0.02303737 255 12 12
-0.01422047 -0.08456443 0.01663778 255 12 12
-0.01372287 -0.08447935 0.01547283 255 12 12
-0.01433749 -0.08441506 0.01490241 255 12 12
-0.01492692 -0.08435685 0.01439620 255 12 12
-0.01575804 -0.08430094 0.01399284 255 12 12
-0.01637201 -0.08424199 0.01348556 255 12 12
-0.02260891 -0.08420071 0.01494660 255 12 12
-0.02341237 -0.08415695 0.01467880 255 12 12
-0.02679274 -0.08414334 0.01557462 255 12 12
-0.02951602 -0.08412027 0.01615274 255 12 12
-0.02989613 -0.08407116 0.01568913 255 12 12
-0.03068597 -0.08403677 0.01552814 255 12 12
-0.03145812 -0.08400574 0.01540154 255 12 12
-0.03203413 -0.08396785 0.01513224 255 12 12
-0.03261926 -0.08392992 0.01486521 255 12 12
-0.03245082 -0.08385743 0.01395258 255 12 12
-0.03268293 -0.08380095 0.01335519 255 12 12
-0.03352059 -0.08365108 0.01183922 255 12 12
-0.03308856 -0.08355269 0.01053693 255 12 12
-0.03318612 -0.08348597 0.00977591 255 12 12
-0.03329856 -0.08341861 0.00901194 255 12 12
-0.03386325 -0.08336309 0.00852998 255 12 12
-0.03450799 -0.08332844 0.00832052 255 12 12
-0.03530875 -0.08330705 0.00831728 255 12 12
-0.03641028 -0.08331228 0.00872386 255 12 12
-0.04779203 -0.08393037 0.01961637 255 12 12
-0.04811609 -0.08390441 0.01940977 255 12 12
-0.04981907 -0.08396917 0.02071060 255 12 12
-0.04958790 -0.08374503 0.01797930 255 12 12
-0.04980159 -0.08361185 0.01646624 255 12 12
-0.04910151 -0.08333222 0.01292991 255 12 12
-0.04840272 -0.08303164 0.00914555 255 12 12
-0.04896620 -0.08301957 0.00917867 255 12 12
-0.04913320 -0.08280601 0.00669732 255 12 12
-0.04947117 -0.08274160 0.00603898 255 12 12
-0.04982484 -0.08267699 0.00538307 255 12 12
-0.05035387 -0.08264781 0.00520238 255 12 12
-0.05120169 -0.08269059 0.00597508 255 12 12
-0.05172236 -0.08266323 0.00581340 255 12 12
-0.05217545 -0.08261809 0.00541961 255 12 12
-0.05263734 -0.08257318 0.00503122 255 12 12
-0.05302363 -0.08251085 0.00441269 255 12 12
-0.05356599 -0.08248507 0.00427647 255 12 12
-0.05415609 -0.08247934 0.00439302 255 12 12
-0.05475182 -0.08247400 0.00451603 255 12 12
-0.05536350 -0.08246864 0.00464377 255 12 12
-0.05594871 -0.08246510 0.00478488 255 12 12
-0.05652849 -0.08246245 0.00493470 255 12 12
-0.05702395 -0.08242125 0.00460091 255 12 12
-0.05862178 -0.08238196 0.00463461 255 12 12
-0.05917610 -0.08238338 0.00482488 255 12 12
-0.06039403 -0.08246876 0.00621871 255 12 12
-0.06336108 -0.08366314 0.02131589 255 12 12
-0.06432101 -0.08357727 0.02059736 255 12 12
-0.06465253 -0.08354912 0.02036711 255 12 12
-0.06564084 -0.08350916 0.02020223 255 12 12
-0.06605095 -0.08343890 0.01949703 255 12 12
-0.06640197 -0.08341227 0.01929087 255 12 12
-0.06760804 -0.08343950 0.01999117 255 12 12
-0.06772703 -0.08352393 0.02103000 255 12 12
-0.06791856 -0.08356521 0.02157955 255 12 12
-0.06827079 -0.08354109 0.02140366 255 12 12
-0.06858103 -0.08353919 0.02147813 255 12 12
-0.06877670 -0.08366854 0.02307386 255 12 12
-0.07029155 -0.08355802 0.02223645 255 12 12
-0.07050120 -0.08358079 0.02257218 255 12 12
-0.07087520 -0.08355998 0.02244230 255 12 12
-0.07154219 -0.08360952 0.02323859 255 12 12
-0.07551882 -0.08296427 0.01682776 255 12 12
-0.08304091 -0.08200609 0.00781348 255 12 12
-0.08383929 -0.08195075 0.00740666 255 12 12
-0.08459244 -0.08191930 0.00726908 255 12 12
-0.08508309 -0.08193124 0.00756418 255 12 12
-0.08531302 -0.08198661 0.00829302 255 12 12
-0.08581809 -0.08200054 0.00861628 255 12 12
-0.08616052 -0.08203573 0.00914081 255 12 12
-0.08620876 -0.08211341 0.01007745 255 12 12
-0.08666989 -0.08212849 0.01040057 255 12 12
-0.08743983 -0.08210325 0.01034192 255 12 12
-0.08745429 -0.08218230 0.01128420 255 12 12
-0.08759177 -0.08224045 0.01201714 255 12 12
-0.08819036 -0.08223771 0.01217179 255 12 12
-0.08890573 -0.08221365 0.01211013 255 12 12
-0.08949963 -0.08221235 0.01228046 255 12 12
-0.08992143 -0.08223167 0.01264164 255 12 12
-0.09230538 -0.08209485 0.01176418 255 12 12
-0.09291430 -0.08209792 0.01199099 255 12 12
-0.09334830 -0.08212153 0.01240682 255 12 12
-0.09377646 -0.08214579 0.01282862 255 12 12
-0.09375090 -0.08220401 0.01351123 255 12 12
-0.09377772 -0.08226609 0.01425615 255 12 12
-0.09379028 -0.08232818 0.01499658 255 12 12
-0.09397404 -0.08237129 0.01556557 255 12 12
-0.09308224 -0.08259575 0.01794936 255 12 12
-0.09323379 -0.08263960 0.01851700 255 12 12
-0.09338203 -0.08268418 0.01909220 255 12 12
-0.09331037 -0.08274601 0.01980333 255 12 12
-0.09362903 -0.08277234 0.02021537 255 12 12
-0.09282905 -0.08294953 0.02206723 255 12 12
-0.09611768 -0.08278246 0.02111382 255 12 12
-0.09663310 -0.08279608 0.02143664 255 12 12
-0.10146520 -0.08264784 0.02118935 255 12 12
-0.10220604 -0.08265276 0.02147945 255 12 12
-0.10249538 -0.08268914 0.02200150 255 12 12
-0.10366779 -0.08266447 0.02207557 255 12 12
-0.10484538 -0.08264202 0.02217763 255 12 12
-0.10580342 -0.08263698 0.02241743 255 12 12
-0.10675126 -0.08263207 0.02265569 255 12 12
-0.10703006 -0.08267482 0.02325007 255 12 12
-0.10594938 -0.08286091 0.02511963 255 12 12
-0.09938570 -0.08346500 0.03023305 255 12 12
-0.10727320 -0.08318593 0.02938952 255 12 12
-0.11004734 -0.08315880 0.02993528 255 12 12
-0.09815052 -0.08397093 0.03584872 255 12 12
-0.09873951 -0.08398737 0.03622789 255 12 12
-0.09883315 -0.08402568 0.03671171 255 12 12
-0.09801014 -0.08414056 0.03781717 255 12 12
-0.09857538 -0.08415887 0.03821110 255 12 12
-0.09913752 -0.08417926 0.03862887 255 12 12
-0.64011291 -0.06812031 0.01732524 255 12 12
-0.81193177 -0.06549821 0.03996033 255 12 12
-0.80943051 -0.06642005 0.05011402 255 12 12
-0.67063920 -0.07136414 0.06535540 255 12 12
-0.69453956 -0.07225743 0.08342826 255 12 12
-0.68821840 -0.07310963 0.09156093 255 12 12
-0.59820159 -0.07801175 0.12156017 255 12 12
-0.58508987 -0.07889317 0.12791556 255 12 12
-0.57695651 -0.07962579 0.13406274 255 12 12
-0.57246336 -0.08029222 0.14056340 255 12 12
-0.57006418 -0.08094419 0.14754742 255 12 12
-0.57229502 -0.08142347 0.15393096 255 12 12
-0.63302905 -0.08228270 0.18312054 255 12 12
-0.62628041 -0.08299309 0.18943723 255 12 12
-0.62022148 -0.08375830 0.19661992 255 12 12
-0.61496709 -0.08445710 0.20326642 255 12 12
-0.60843902 -0.08514910 0.20943391 255 12 12
-0.60089270 -0.08582981 0.21514902 255 12 12
-0.59348073 -0.08651113 0.22091329 255 12 12
-0.58724195 -0.08716985 0.22677644 255 12 12
-0.58469849 -0.08783539 0.23387628 255 12 12
-0.58416059 -0.08851259 0.24174182 255 12 12
-0.57763901 -0.08916678 0.24746279 255 12 12
-0.57088487 -0.08979542 0.25280795 255 12 12
-0.56936492 -0.09046479 0.26027338 255 12 12
-0.56796317 -0.09113937 0.26783752 255 12 12
-0.56774677 -0.09184734 0.27616867 255 12 12
-0.57039234 -0.09258960 0.28580168 255 12 12
-0.57197115 -0.09333220 0.29510518 255 12 12
-0.57005148 -0.09403032 0.30278661 255 12 12
-0.56786768 -0.09471349 0.31020812 255 12 12
-0.56988711 -0.09549838 0.32015114 255 12 12
-0.38911688 -0.09499890 0.25768426 255 12 12
-0.38616309 -0.09544795 0.26208747 255 12 12
-0.38253437 -0.09587520 0.26602102 255 12 12
-0.37906097 -0.09630574 0.27004222 255 12 12
-0.37493385 -0.09671148 0.27356472 255 12 12
-0.37116690 -0.09712731 0.27731956 255 12 12
-0.36755193 -0.09754707 0.28116859 255 12 12
-0.36369403 -0.09795542 0.28480613 255 12 12
-0.35960049 -0.09835143 0.28822373 255 12 12
-0.35585001 -0.09876007 0.29189844 255 12 12
-0.35205396 -0.09916514 0.29551659 255 12 12
-0.34802725 -0.09955742 0.29891074 255 12 12
-0.34451212 -0.09997376 0.30275040 255 12 12
-0.34051032 -0.10037623 0.30627331 255 12 12
-0.33635830 -0.10075658 0.30948682 255 12 12
-0.33322869 -0.10119398 0.31369690 255 12 12
-0.33090468 -0.10168262 0.31876679 255 12 12
-0.32883496 -0.10219402 0.32418621 255 12 12
-0.32987924 -0.10291720 0.33309215 255 12 12
-0.36337018 -0.10916619 0.41770036 255 12 12
-0.36007118 -0.10979238 0.42409708 255 12 12
-0.35469212 -0.11025359 0.42788603 255 12 12
-0.34689529 -0.11050106 0.42838314 255 12 12
-0.33870315 -0.11069583 0.42813141 255 12 12
-0.33185334 -0.11099803 0.42957395 255 12 12
-0.32613281 -0.11140032 0.43255710 255 12 12
-0.31983289 -0.11174044 0.43462156 255 12 12
-0.31365917 -0.11208667 0.43679787 255 12 12
-0.30773563 -0.11245410 0.43930397 255 12 12
-0.30204624 -0.11284404 0.44215047 255 12 12
-0.29607361 -0.11319824 0.44448419 255 12 12
-0.28983667 -0.11351529 0.44629470 255 12 12
-0.28514443 -0.11402378 0.45085938 255 12 12
-0.28105997 -0.11457626 0.45613598 255 12 12
-0.27539842 -0.11497084 0.45904610 255 12 12
-0.26959097 -0.11532032 0.46137557 255 12 12
-0.26364375 -0.11567126 0.46367876 255 12 12
-0.25745185 -0.11600691 0.46572392 255 12 12
-0.25135732 -0.11632809 0.46762785 255 12 12
-0.24534449 -0.11665911 0.46967407 255 12 12
-0.23987933 -0.11708523 0.47301986 255 12 12
-0.23447446 -0.11749999 0.47624973 255 12 12
-0.22854071 -0.11784817 0.47852420 255 12 12
-0.22192697 -0.11802606 0.47856597 255 12 12
-0.21481131 -0.11811316 0.47737357 255 12 12
-0.20858632 -0.11840991 0.47894688 255 12 12
-0.20299572 -0.11881948 0.48205709 255 12 12
-0.19720180 -0.11918817 0.48461875 255 12 12
-0.19136339 -0.11955162 0.48710422 255 12 12
-0.18574504 -0.11998385 0.49047456 255 12 12
-0.17980753 -0.12033717 0.49280892 255 12 12
-0.17376926 -0.12066612 0.49482262 255 12 12
-0.16792107 -0.12106515 0.49772720 255 12 12
-0.16222412 -0.12153598 0.50153090 255 12 12
-0.15639284 -0.12198377 0.50501922 255 12 12
-0.15034622 -0.12236906 0.50769872 255 12 12
-0.14449884 -0.12286664 0.51177265 255 12 12
-0.13808483 -0.12312403 0.51281984 255 12 12
-0.09697411 -0.11614927 0.41721835 255 12 12
-0.09193979 -0.11629523 0.41737524 255 12 12
-0.08696142 -0.11664417 0.41995764 255 12 12
-0.08194197 -0.11703055 0.42297138 255 12 12
-0.07687079 -0.11747560 0.42666497 255 12 12
-0.07177439 -0.11778943 0.42879394 255 12 12
-0.06652550 -0.11818562 0.43185226 255 12 12
-0.06108439 -0.11862276 0.43533626 255 12 12
-0.05565458 -0.11905334 0.43874599 255 12 12
-0.05014711 -0.11943763 0.44158223 255 12 12
-0.04458346 -0.11977497 0.44384392 255 12 12
-0.03899089 -0.12021188 0.44727785 255 12 12
-0.03315457 -0.12068979 0.45112189 255 12 12
-0.02734256 -0.12113986 0.45464327 255 12 12
-0.02159223 -0.12135056 0.45534421 255 12 12
0.05978137 -0.16913000 0.99670857 255 12 12
0.07288628 -0.16936628 0.99541266 255 12 12
0.08574772 -0.16945662 0.99246153 255 12 12
0.09751871 -0.16951866 0.98951580 255 12 12
0.11005905 -0.16959741 0.98652766 255 12 12
0.12279010 -0.16977027 0.98459633 255 12 12
0.13550104 -0.16992822 0.98249431 255 12 12
