ply
format ascii 1.0
element vertex 217
property float x
property float y
property float z
property uchar red
property uchar green
property uchar blue
end_header
-0.05242378 -0.08256196 0.00483136 255 12 12
-0.05305719 -0.08257438 0.00517685 255 12 12
-0.05355756 -0.08255039 0.00504879 255 12 12
-0.05403863 -0.08252788 0.00493220 255 12 12
-0.05454215 -0.08250489 0.00481697 255 12 12
-0.05514003 -0.08252127 0.00519820 255 12 12
-0.05583401 -0.08257690 0.00607526 255 12 12
-0.05623184 -0.08251734 0.00549314 255 12 12
-0.05664374 -0.08245776 0.00491516 255 12 12
-0.05713683 -0.08243805 0.00483555 255 12 12
-0.05764145 -0.08241844 0.00476075 255 12 12
-0.05823183 -0.08241739 0.00493295 255 12 12
-0.05877438 -0.08241875 0.00511877 255 12 12
-0.05993038 -0.08250518 0.00650570 255 12 12
-0.06104900 -0.08270039 0.00917136 255 12 12
-0.06324035 -0.08370826 0.02181334 255 12 12
-0.06352167 -0.08370109 0.02181624 255 12 12
-0.06381581 -0.08367291 0.02157398 255 12 12
-0.06411052 -0.08364504 0.02133553 255 12 12
-0.06439807 -0.08363866 0.02134984 255 12 12
-0.06528867 -0.08359984 0.02116785 255 12 12
-0.06557835 -0.08359471 0.02119755 255 12 12
-0.06595734 -0.08352501 0.02048924 255 12 12
-0.06624347 -0.08352057 0.02052606 255 12 12
-0.06655690 -0.08366477 0.02233479 255 12 12
-0.06683119 -0.08366143 0.02238090 255 12 12
-0.06767620 -0.08376064 0.02382223 255 12 12
-0.06792030 -0.08375909 0.02388019 255 12 12
-0.06927567 -0.08347102 0.02088667 255 12 12
-0.07051332 -0.08360311 0.02284077 255 12 12
-0.07078074 -0.08360429 0.02293845 255 12 12
-0.07077650 -0.08367164 0.02373608 255 12 12
-0.07849444 -0.08256417 0.01301195 255 12 12
-0.08137613 -0.08221244 0.00974072 255 12 12
-0.08218919 -0.08213277 0.00904986 255 12 12
-0.08301780 -0.08207793 0.00865841 255 12 12
-0.08385070 -0.08202385 0.00827744 255 12 12
-0.08457715 -0.08199236 0.00813104 255 12 12
-0.08464938 -0.08206816 0.00905291 255 12 12
-0.08510634 -0.08208053 0.00934258 255 12 12
-0.08568811 -0.08207212 0.00942478 255 12 12
-0.08544895 -0.08226796 0.01167319 255 12 12
-0.08616318 -0.08224041 0.01156980 255 12 12
-0.08639893 -0.08235352 0.01298538 255 12 12
-0.08724065 -0.08230653 0.01269118 255 12 12
-0.08732714 -0.08236365 0.01339583 255 12 12
-0.08923564 -0.08225551 0.01270990 255 12 12
-0.08983247 -0.08225534 0.01289456 255 12 12
-0.09007077 -0.08229485 0.01343790 255 12 12
-0.09275110 -0.08211812 0.01217965 255 12 12
-0.09294967 -0.08215798 0.01271458 255 12 12
-0.09264370 -0.08225847 0.01381099 255 12 12
-0.09302048 -0.08228051 0.01419033 255 12 12
-0.09340022 -0.08230357 0.01458267 255 12 12
-0.09324087 -0.08238542 0.01550390 255 12 12
-0.09304731 -0.08246598 0.01639905 255 12 12
-0.09264794 -0.08256498 0.01744853 255 12 12
-0.09199394 -0.08274383 0.01936571 255 12 12
-0.09211819 -0.08278631 0.01990856 255 12 12
-0.09183464 -0.08286476 0.02075052 255 12 12
-0.09193623 -0.08290721 0.02128590 255 12 12
-0.09222877 -0.08293198 0.02167119 255 12 12
-0.09231400 -0.08297484 0.02220637 255 12 12
-0.09299660 -0.08296489 0.02230178 255 12 12
-0.09409927 -0.08292205 0.02213843 255 12 12
-0.09827866 -0.08273501 0.02122676 255 12 12
-0.09877871 -0.08274967 0.02155708 255 12 12
-0.09929365 -0.08276720 0.02192615 255 12 12
-0.10001016 -0.08276814 0.02216140 255 12 12
-0.10137537 -0.08272177 0.02203834 255 12 12
-0.10231642 -0.08271013 0.02219461 255 12 12
-0.10284011 -0.08273437 0.02264590 255 12 12
-0.10378821 -0.08272666 0.02285109 255 12 12
-0.10518139 -0.08268975 0.02284890 255 12 12
-0.10636141 -0.08267121 0.02299806 255 12 12
-0.10660307 -0.08270851 0.02351621 255 12 12
-0.10617393 -0.08279311 0.02438554 255 12 12
-0.10572948 -0.08287687 0.02524018 255 12 12
-0.10651712 -0.08321387 0.02948442 255 12 12
-0.10878505 -0.08320305 0.03006545 255 12 12
-0.09776008 -0.08393081 0.03525056 255 12 12
-0.10010753 -0.08399425 0.03673741 255 12 12
-0.09994423 -0.08404258 0.03725976 255 12 12
-0.22563305 -0.08047953 0.03430362 255 12 12
-0.23206764 -0.08065612 0.03841122 255 12 12
-0.23137263 -0.08086505 0.04067241 255 12 12
-0.23089715 -0.08106651 0.04291361 255 12 12
-0.23089148 -0.08125494 0.04514724 255 12 12
-0.23210615 -0.08140990 0.04736549 255 12 12
-0.23204073 -0.08160122 0.04961469 255 12 12
-0.23194965 -0.08178539 0.05177103 255 12 12
-0.23307522 -0.08194792 0.05405119 255 12 12
-0.23342202 -0.08212873 0.05630465 255 12 12
-0.23498344 -0.08228786 0.05868078 255 12 12
-0.23624839 -0.08246814 0.06121520 255 12 12
-0.23624533 -0.08266479 0.06354707 255 12 12
-0.23596882 -0.08286220 0.06580254 255 12 12
-0.23714052 -0.08304310 0.06831503 255 12 12
-0.23942679 -0.08325840 0.07158429 255 12 12
-0.24073492 -0.08345904 0.07437374 255 12 12
-0.24004319 -0.08368048 0.07678432 255 12 12
-0.24053344 -0.08389476 0.07947974 255 12 12
-0.24135242 -0.08405767 0.08166844 255 12 12
-0.24253216 -0.08425922 0.08442849 255 12 12
-0.24489589 -0.08445355 0.08747326 255 12 12
-0.24501834 -0.08466965 0.09007515 255 12 12
-0.24555890 -0.08489506 0.09291828 255 12 12
-0.24680453 -0.08511294 0.09589262 255 12 12
-0.24752396 -0.08533605 0.09876452 255 12 12
-0.24819897 -0.08556273 0.10166473 255 12 12
-0.24906628 -0.08579328 0.10467105 255 12 12
-0.25083100 -0.08603049 0.10803708 255 12 12
-0.25253830 -0.08627407 0.11146073 255 12 12
-0.25325077 -0.08651902 0.11458958 255 12 12
-0.25439893 -0.08676606 0.11787932 255 12 12
-0.25686161 -0.08703391 0.12182718 255 12 12
-0.25835300 -0.08729679 0.12541217 255 12 12
-0.25861429 -0.08755879 0.12860216 255 12 12
-0.26014244 -0.08785037 0.13253915 255 12 12
-0.26232770 -0.08814733 0.13674556 255 12 12
-0.26398520 -0.08844599 0.14080707 255 12 12
-0.26579230 -0.08875526 0.14504119 255 12 12
-0.26407983 -0.08903553 0.14783050 255 12 12
-0.26351702 -0.08931936 0.15102157 255 12 12
-0.26290405 -0.08960484 0.15421651 255 12 12
-0.25790447 -0.08979655 0.15492702 255 12 12
-0.25384477 -0.08998799 0.15592833 255 12 12
-0.24973038 -0.09018211 0.15694432 255 12 12
-0.24544345 -0.09035776 0.15768721 255 12 12
-0.24197806 -0.09055371 0.15892791 255 12 12
-0.23795237 -0.09071525 0.15958513 255 12 12
-0.23370219 -0.09086754 0.16006243 255 12 12
-0.22987915 -0.09102508 0.16073558 255 12 12
-0.22525943 -0.09114736 0.16074120 255 12 12
-0.22100602 -0.09128381 0.16102954 255 12 12
-0.21799751 -0.09145290 0.16209447 255 12 12
-0.21541426 -0.09162836 0.16336807 255 12 12
-0.21201536 -0.09177166 0.16400493 255 12 12
-0.20933586 -0.09191722 0.16489363 255 12 12
-0.20712672 -0.09209725 0.16633837 255 12 12
-0.20456344 -0.09225245 0.16737781 255 12 12
-0.20140686 -0.09238030 0.16790715 255 12 12
-0.19797579 -0.09250511 0.16831470 255 12 12
-0.19553335 -0.09266448 0.16944138 255 12 12
-0.19365522 -0.09284657 0.17101414 255 12 12
-0.18668092 -0.09304838 0.17122674 255 12 12
-0.18471615 -0.09322774 0.17274005 255 12 12
-0.18310550 -0.09342362 0.17456005 255 12 12
-0.18342093 -0.09375866 0.17863329 255 12 12
-0.18203785 -0.09395245 0.18049969 255 12 12
-0.17950938 -0.09408943 0.18133387 255 12 12
-0.17812613 -0.09430394 0.18344595 255 12 12
-0.17542285 -0.09442313 0.18401435 255 12 12
-0.17306999 -0.09455985 0.18490040 255 12 12
-0.17097504 -0.09472268 0.18617681 255 12 12
-0.16787150 -0.09478830 0.18598458 255 12 12
-0.16504319 -0.09487847 0.18616966 255 12 12
-0.16277319 -0.09499479 0.18683950 255 12 12
-0.16070277 -0.09514228 0.18794161 255 12 12
-0.15916727 -0.09534359 0.18984958 255 12 12
-0.15719620 -0.09550184 0.19111033 255 12 12
-0.15456257 -0.09560997 0.19156934 255 12 12
-0.15227192 -0.09573736 0.19236421 255 12 12
-0.14976720 -0.09582910 0.19266905 255 12 12
-0.14771775 -0.09598075 0.19382714 255 12 12
-0.14557484 -0.09611215 0.19471569 255 12 12
-0.14291668 -0.09618197 0.19471250 255 12 12
-0.14076816 -0.09630785 0.19553388 255 12 12
-0.13845972 -0.09641826 0.19612163 255 12 12
-0.13602371 -0.09653412 0.19673414 255 12 12
-0.13356597 -0.09662500 0.19704350 255 12 12
-0.13135703 -0.09674301 0.19775262 255 12 12
-0.12968409 -0.09696187 0.19982572 255 12 12
-0.12784780 -0.09709693 0.20085363 255 12 12
-0.12545646 -0.09717231 0.20099989 255 12 12
-0.12271893 -0.09717520 0.20017792 255 12 12
-0.12001450 -0.09717347 0.19931153 255 12 12
-0.11733795 -0.09721196 0.19893096 255 12 12
-0.11489022 -0.09725711 0.19870101 255 12 12
-0.11260960 -0.09733477 0.19890899 255 12 12
-0.11047713 -0.09744598 0.19956128 255 12 12
-0.10837877 -0.09755282 0.20017233 255 12 12
-0.10642634 -0.09771524 0.20148848 255 12 12
-0.10448976 -0.09787427 0.20276939 255 12 12
-0.10212754 -0.09792095 0.20258435 255 12 12
-0.10005712 -0.09805944 0.20357961 255 12 12
-0.09807158 -0.09823450 0.20503540 255 12 12
-0.09580211 -0.09829067 0.20499188 255 12 12
-0.09363338 -0.09840416 0.20565997 255 12 12
-0.09152753 -0.09864034 0.20780304 255 12 12
-0.08938497 -0.09881116 0.20915938 255 12 12
-0.08704281 -0.09885959 0.20900141 255 12 12
-0.08472847 -0.09894669 0.20931072 255 12 12
-0.08263280 -0.09908660 0.21031507 255 12 12
-0.08049854 -0.09928877 0.21204583 255 12 12
-0.07832039 -0.09948978 0.21374925 255 12 12
-0.07602428 -0.09960776 0.21443061 255 12 12
-0.07380502 -0.09978376 0.21582441 255 12 12
-0.07149108 -0.09993903 0.21694266 255 12 12
-0.06919619 -0.10009105 0.21802832 255 12 12
-0.06681004 -0.10018001 0.21833728 255 12 12
-0.06432204 -0.10028995 0.21886334 255 12 12
-0.06190322 -0.10054216 0.22109883 255 12 12
-0.05943901 -0.10072975 0.22255352 255 12 12
-0.05695190 -0.10087309 0.22347602 255 12 12
-0.05452591 -0.10103330 0.22461779 255 12 12
-0.05196887 -0.10119367 0.22572054 255 12 12
-0.04946742 -0.10130799 0.22629431 255 12 12
-0.04683209 -0.10148531 0.22757362 255 12 12
-0.04408278 -0.10172509 0.22955827 255 12 12
-0.04144892 -0.10183325 0.23001758 255 12 12
-0.03923561 -0.10167794 0.22748278 255 12 12
-0.03675241 -0.10169325 0.22688778 255 12 12
-0.03380649 -0.10186040 0.22794929 255 12 12
-0.03157191 -0.10171751 0.22555511 255 12 12
-0.02958528 -0.10150479 0.22241021 255 12 12
-0.02772911 -0.10124501 0.21874791 255 12 12
