ply
format ascii 1.0
element vertex 1119
property float x
property float y
property float z
property uchar red
property uchar green
property uchar blue
end_header
-0.78121581 0.16222127 1.41424024 116 113 106
-0.76795843 0.15464717 1.41302406 117 116 114
-0.76798777 0.15740231 1.42294950 109 108 106
-0.76445517 0.16941255 1.39627713 146 140 136
-0.76898281 0.16940139 1.40972128 129 125 119
-0.76854041 0.16554480 1.42534556 110 107 102
-0.76873003 0.18199760 1.41346633 136 132 130
-0.76946151 0.18316027 1.42339924 134 128 126
-0.74674059 0.13871463 1.39699611 118 114 114
-0.74382693 0.13967705 1.40060294 114 113 112
-0.75500682 0.14787327 1.41131730 105 106 107
-0.75922251 0.15786006 1.42264968 105 104 102
-0.74350116 0.17079494 1.39771509 119 116 116
-0.75405659 0.17170419 1.40822613 122 119 114
-0.75854800 0.16640509 1.42215208 118 115 110
-0.42098907 -0.22468454 0.94677633 96 104 122
-0.42193848 -0.21359894 0.94661266 95 100 115
-0.40960929 -0.22441770 0.94396708 97 102 117
-0.40727820 -0.20878560 0.93874606 95 101 114
-0.40893955 -0.21230915 0.94240549 97 102 118
-0.40232784 -0.19982101 0.93760973 100 108 114
-0.39822562 -0.20474007 0.93787019 97 103 115
-0.39873238 -0.21391838 0.94348340 98 102 121
-0.38290886 0.35215129 1.49590548 60 57 60
-0.38225630 0.35732667 1.50868301 68 64 67
-0.38257921 0.36033228 1.50308609 87 85 84
-0.38288032 0.37742183 1.53024164 80 74 77
-0.38331050 0.38181619 1.53196096 72 63 67
-0.37205210 0.35097126 1.49491951 81 77 79
-0.37324810 0.35398781 1.50860697 89 85 88
-0.37720561 0.35992473 1.52335250 92 89 93
-0.36500527 0.36977308 1.49316831 72 71 74
-0.37307925 0.36791363 1.51194032 80 78 81
-0.37818914 0.37181227 1.52580541 85 81 84
-0.36059508 0.38468418 1.47688854 80 79 79
-0.36507706 0.38034020 1.48993695 77 77 79
-0.37123567 0.38020408 1.50978136 55 55 59
-0.37933721 0.38446705 1.53196096 62 58 62
-0.34145737 0.37612712 1.43926084 79 79 79
-0.34533844 0.37467306 1.44806264 84 84 85
-0.35344403 0.37677513 1.46970968 91 91 91
-0.35757311 0.37448216 1.48707577 80 78 81
-0.34564078 0.38185678 1.45159519 78 78 77
-0.35418418 0.38053888 1.46097374 82 81 81
-0.28167443 0.25415015 1.01059139 81 79 78
-0.28236854 0.26375693 1.01938617 101 97 97
-0.28128781 0.26672430 1.02400736 105 102 101
-0.28761591 0.28856602 1.03248937 82 78 77
-0.28452845 0.29312754 1.04237819 77 74 75
-0.26276996 0.14997149 1.69232965 113 105 103
-0.26748694 0.24815479 0.99850400 88 87 87
-0.27105759 0.25385776 1.00615339 89 88 87
-0.26957044 0.26315697 1.01706262 89 87 87
-0.26772146 0.27226548 1.02814528 79 75 75
-0.27432166 0.27631125 1.04237656 66 65 65
-0.27250952 0.28728029 1.03549856 82 80 79
-0.26926782 0.29140823 1.04266712 72 71 71
-0.24340728 0.13516133 1.65523226 123 114 116
-0.24485047 0.12979823 1.66149962 125 113 115
-0.24138707 0.14666935 1.65743732 113 106 107
-0.25070983 0.14621228 1.66856728 106 101 101
-0.25661051 0.15321411 1.68211377 133 128 124
-0.25942286 0.24986544 0.99447715 97 98 98
-0.25803346 0.25445664 1.00354582 89 90 90
-0.25653334 0.26287403 1.01709869 75 69 72
-0.25652795 0.27294607 1.02465735 75 71 71
-0.25791026 0.28365221 1.03149481 68 65 64
-0.23336468 0.11773460 1.64937968 106 106 105
-0.22149089 0.13216232 1.63741994 142 135 125
-0.23039412 0.13039149 1.64998409 121 114 114
-0.22166365 0.15442752 1.63347909 100 86 89
-0.23008241 0.14654121 1.64984955 111 103 103
-0.22263569 0.16027047 1.63544714 93 84 83
-0.20531249 -0.40034467 1.13931406 102 101 110
-0.20271114 -0.40103594 1.14315871 101 100 106
-0.20787960 -0.39202823 1.13899545 96 96 104
-0.20837560 -0.39159869 1.14597156 96 97 103
-0.20268688 -0.37737055 1.13931406 100 97 103
-0.20453370 -0.37726227 1.14230192 99 96 101
-0.21248719 0.11772721 1.63347435 106 105 103
-0.20471959 0.13328830 1.61672471 107 99 99
-0.21203021 0.12927287 1.62914718 120 113 111
-0.21919018 0.13248232 1.64138460 132 124 124
-0.20830543 0.15057676 1.61633949 100 88 92
-0.21228935 0.14721313 1.62826394 109 96 99
-0.21936752 0.14394440 1.64271259 113 104 105
-0.21325505 0.16134533 1.61788034 114 111 105
-0.21708764 0.16211917 1.62563992 105 99 95
-0.19940487 -0.40034467 1.13931406 100 100 104
-0.19842026 -0.38262177 1.13931406 100 100 102
-0.19754249 -0.39061328 1.14341322 98 98 101
-0.19933080 -0.37651949 1.14171314 100 96 102
-0.18029867 0.13030096 0.75996846 83 77 76
-0.18123893 0.12784533 0.76155439 95 90 90
-0.19392347 0.13398000 1.60828662 102 92 95
-0.19514365 0.14348895 1.60972653 107 89 92
-0.18731380 0.19775337 1.01747414 102 100 98
-0.19360641 0.19879804 1.02284741 119 116 113
-0.18579165 0.20163112 1.01904605 85 85 85
-0.18848280 0.20807571 1.02659097 93 90 89
-0.19484950 0.21727646 1.04323294 92 87 87
-0.16978059 0.11753338 0.75641041 113 111 107
-0.16871606 0.13382356 0.60701201 99 97 95
-0.17119244 0.12876088 0.75437281 105 101 99
-0.17589653 0.12527846 0.76137750 109 105 102
-0.17133107 0.14006937 0.60163473 86 85 85
-0.16300924 0.18852882 0.73850456 86 83 85
-0.16616830 0.18965769 0.74291448 85 83 83
-0.17321057 0.19670137 1.01532062 99 97 97
-0.16637841 0.19464303 1.02339094 101 98 97
-0.17102526 0.20746944 1.01682992 99 95 91
-0.16412474 0.20525281 1.02221914 98 96 92
-0.15971498 0.12765558 0.60688615 82 84 87
-0.15273411 0.17864474 0.73419981 99 97 94
-0.14333249 0.18746456 0.71767614 95 91 87
-0.15269497 0.18830208 0.73156298 97 94 92
-0.15438938 0.19621541 1.01304009 132 126 119
-0.15879201 0.19444975 1.02207868 122 116 111
-0.15791570 0.20596065 1.01785848 97 96 93
-0.15927319 0.20239384 1.02092147 105 102 101
-0.12474169 -0.19609014 0.52992889 101 103 106
-0.11816407 -0.19586782 0.52932122 101 101 105
-0.10167756 0.16716344 0.45664685 163 159 150
-0.09661744 0.17017338 0.45661885 164 161 149
-0.04710831 -0.16145641 0.75927320 89 89 93
-0.04173111 -0.16429400 0.76339549 89 88 94
-0.04780273 -0.15872153 0.75972531 89 89 94
-0.04462028 -0.15644671 0.76177292 87 88 95
-0.03403699 -0.16671121 0.76735471 88 88 94
-0.03753940 -0.15832877 0.76589617 88 89 94
-0.03177580 -0.08178905 0.56425253 88 86 94
-0.02903528 -0.07371748 0.56389422 66 64 68
-0.02141200 0.35388818 0.86866177 109 101 91
-0.02069046 0.36365249 0.87628542 109 100 91
-0.01910701 -0.07146350 0.56361202 55 52 55
-0.00259232 0.13933838 0.49187161 154 149 138
-0.00548771 0.14346907 0.49049401 148 141 131
-0.00596036 0.27070623 0.75216020 125 119 114
-0.01136574 0.27297104 0.76237952 137 131 126
-0.01279358 0.35652366 0.86950653 111 102 96
-0.00310076 0.36339529 0.85628793 0 0 0
-0.01114746 0.36856540 0.87203649 48 46 43
-0.01637500 0.36854398 0.88037902 120 116 107
-0.01253827 0.38048983 0.87809825 0 0 0
0.00104881 0.13865192 0.49004287 149 144 135
0.01107206 0.14642715 0.49469383 124 116 111
0.00792026 0.14178508 0.50097891 144 137 129
0.01253790 0.19406760 0.61795062 137 137 130
0.00632204 0.19379637 0.62890266 117 109 104
0.00698201 0.20121662 0.62821486 114 107 101
0.01230417 0.27343435 0.73829009 117 111 104
0.00956340 0.27158542 0.74578851 112 103 95
0.03774961 0.14934735 0.75996846 158 149 138
0.03549543 0.14539990 0.76624564 154 145 139
0.03335550 0.14521030 0.78008264 150 135 136
0.02533001 0.19908931 0.50910507 126 119 114
0.03817861 0.19425925 0.52134026 99 92 90
0.02651928 0.20645661 0.51028295 117 114 109
0.04835424 0.13848720 0.75222957 130 119 114
0.04601871 0.14524380 0.75488952 141 131 128
0.04159630 0.14412630 0.76091633 148 139 131
0.04481971 0.19305640 0.51767674 121 115 114
0.04266510 0.19358086 0.52154900 109 102 100
0.04638204 0.20053770 0.51866245 112 108 106
0.04461974 0.20056840 0.52165797 126 117 115
0.07937149 -0.23478248 0.55113166 90 88 85
0.07819815 0.19832183 0.51564799 82 80 76
0.07768796 0.20215294 0.51602721 94 92 87
0.07269496 0.23513422 0.71857972 108 101 91
0.07403703 0.23443125 0.72178020 112 102 92
0.07467160 0.25352498 0.71763870 115 107 100
0.07445836 0.24805994 0.72185531 127 119 111
0.07345679 0.26635093 0.71116521 127 120 111
0.06940281 0.26234952 0.72039515 93 89 86
0.07515963 0.29470457 0.73780736 90 81 79
0.07208214 0.29790323 0.74559806 107 98 93
0.06712734 0.30790929 0.74892603 78 72 69
0.08169571 -0.24040459 0.55128107 89 89 88
0.08447811 -0.23164809 0.55064232 89 87 86
0.08590774 0.19792768 0.51836192 97 90 85
0.08898912 0.19372348 0.52224085 97 91 86
0.08602735 0.20403241 0.51699302 123 118 111
0.09240228 0.20344007 0.52035457 91 84 79
0.09719945 0.23128815 0.69652607 136 128 122
0.08874004 0.23309510 0.71000286 120 117 113
0.08263021 0.23352266 0.72173919 63 61 60
0.08836435 0.24971864 0.71459821 106 104 101
0.08444571 0.25019613 0.72125422 93 89 84
0.08365664 0.26558157 0.70679976 126 119 107
0.11536036 0.17715064 0.84643076 113 106 102
0.10982880 0.19967596 0.83897507 146 139 137
0.11482470 0.19207576 0.84785955 140 135 130
0.11153712 0.20215791 0.83725514 149 141 137
0.11276186 0.20134592 0.84075949 148 139 138
0.11655075 0.23447401 0.81871116 106 101 96
0.11472675 0.23423365 0.82828425 120 113 107
0.11141679 0.23694678 0.84001470 122 111 105
0.10060059 0.25193363 0.71207124 109 107 102
0.13944154 0.05191717 0.65729670 131 111 114
0.12294523 0.17780711 0.84607506 116 105 105
0.12276868 0.18871586 0.85103422 127 119 114
0.13143173 0.21625832 0.79593126 106 97 95
0.12526438 0.21755410 0.80671047 117 112 103
0.13258598 0.22131503 0.79845991 144 140 132
0.12669995 0.22414036 0.81162614 107 100 97
0.12468115 0.23421339 0.82386829 81 80 80
0.13010581 0.25502245 0.62920901 108 104 101
0.12534103 0.24192811 0.82806430 61 58 58
0.12513663 0.26117786 0.63030114 42 42 42
0.15354992 0.03842352 0.66837006 138 127 122
0.14380323 0.05209241 0.65825974 140 128 124
0.15365534 0.05095037 0.66338937 121 112 111
0.14930227 0.06018059 0.66071332 136 125 127
0.16379953 0.05298824 0.66392160 123 114 114
0.17977496 0.17599774 0.71861347 144 138 130
0.17768728 0.17333252 0.72647648 143 137 133
0.16751355 0.19946508 0.45132613 0 0 0
0.16812579 0.20252395 0.45418983 0 0 0
0.17120953 0.20887884 0.46895778 0 0 0
0.17490900 0.21651543 0.48667728 0 0 0
0.17714963 0.22195935 0.49736754 0 0 0
0.17878782 0.22503476 0.50522965 0 0 0
0.18338024 0.17272479 0.71347176 139 131 125
0.18211699 0.17051194 0.72257332 141 131 126
0.18022069 0.18016998 0.72039515 145 138 131
0.18071430 0.22914174 0.51445032 0 0 0
0.18380044 0.23544858 0.52923539 0 0 0
0.18551738 0.24074334 0.53736976 0 0 0
0.18841455 0.24555765 0.55130591 0 0 0
0.19227905 0.25379626 0.56980254 0 0 0
0.19468272 0.25828371 0.58138239 0 0 0
0.19701393 0.26410268 0.59243995 0 0 0
0.19989714 0.26937281 0.60634333 0 0 0
0.20144085 0.27372652 0.61360646 0 0 0
0.20411698 0.27798180 0.62654331 0 0 0
0.20518692 0.28236551 0.63150229 0 0 0
0.20867393 0.28874798 0.64827313 0 0 0
0.21256460 0.29647277 0.66692403 0 0 0
0.21410571 0.30203660 0.67418399 0 0 0
0.21750462 0.30757385 0.69053934 0 0 0
0.22192782 0.31639522 0.71174105 0 0 0
0.22356318 0.32177451 0.71963042 0 0 0
0.22573763 0.32559859 0.72988900 0 0 0
0.23007921 0.33402519 0.75076698 0 0 0
0.23189414 0.34074277 0.75911742 0 0 0
0.23458824 0.34399392 0.77230647 0 0 0
0.23758416 0.35038083 0.78664577 0 0 0
0.25756577 0.12943017 0.45192790 140 132 126
0.24062225 0.35597966 0.80129057 0 0 0
0.24331950 0.36313459 0.81403456 0 0 0
0.24727879 0.37104851 0.83304705 0 0 0
0.25069094 0.37739197 0.84948850 0 0 0
0.25100550 0.38178581 0.85055441 0 0 0
0.25440328 0.38623698 0.86714686 0 0 0
0.25818882 0.39430726 0.88526548 0 0 0
0.26472359 0.13228495 0.45100534 107 101 100
0.27781450 0.13795853 0.46340742 101 93 91
0.27763884 0.14363230 0.46402894 97 90 88
0.26683483 0.19410090 0.91673832 147 138 134
0.26655558 0.19768785 0.92588329 136 127 125
0.26835406 0.20224607 0.93374513 139 130 127
0.27097392 0.20838652 0.94890087 129 122 118
0.26775003 0.21293456 0.96475124 106 97 96
0.26204845 0.39946207 0.90385580 0 0 0
0.26216507 0.40380860 0.90425805 0 0 0
0.26625517 0.41150368 0.92387335 0 0 0
0.27046376 0.41808134 0.94413906 0 0 0
0.27065237 0.42327248 0.94479746 0 0 0
0.27505717 0.43026842 0.96600227 0 0 0
0.27966416 0.43758367 0.98818052 0 0 0
0.27966416 0.44185364 0.98818052 0 0 0
0.28483038 0.13809479 0.46506879 112 110 103
0.28364795 0.14416019 0.46364259 113 112 107
0.28349540 0.21215016 0.95182976 142 135 130
0.28662460 0.22211397 0.96841693 127 120 120
0.28641112 0.25885144 0.70743208 136 135 131
0.29968390 0.26288831 0.69706121 112 104 94
0.29457550 0.26576332 0.71226595 130 123 112
0.29824912 0.27499997 0.72457338 115 107 99
0.29987279 0.28082097 0.73285604 100 89 85
0.28007242 0.44420916 0.98962313 0 0 0
0.28470027 0.45082631 1.01215693 0 0 0
0.28976491 0.45899449 1.03653193 0 0 0
0.28998677 0.46472543 1.03732556 0 0 0
0.29531110 0.47344724 1.06294337 0 0 0
0.31791306 0.00739555 0.53767126 127 117 107
0.31175483 0.15249169 0.76679880 147 139 133
0.31370825 0.16065054 0.77650839 144 139 130
0.31722477 0.16591398 0.79143572 150 141 134
0.31994349 0.17013368 0.80223888 155 143 138
0.30059510 0.26496823 0.69778019 107 94 90
0.30545874 0.27358012 0.71134445 104 96 89
0.30282100 0.27772547 0.72247524 100 97 91
0.31065738 0.28539438 0.71602002 124 120 113
0.30969214 0.29029203 0.72595132 127 121 115
0.30236751 0.28500141 0.74208748 95 82 79
0.31516556 0.30168055 0.72665448 129 121 113
0.30102610 0.48563090 1.09029704 0 0 0
0.30691618 0.49535049 1.11863339 0 0 0
0.30691618 0.50018418 1.11863339 0 0 0
0.30742347 0.50294757 1.12048233 0 0 0
0.31338639 0.51198147 1.14945686 0 0 0
0.31994396 0.52466691 1.18099630 0 0 0
0.32509324 0.00685462 0.53724276 125 117 111
0.33343589 0.15694267 0.75782609 145 139 135
0.32785240 0.15446135 0.76913595 116 106 106
0.33348551 0.16279934 0.75940110 119 115 113
0.33543106 0.16738214 0.76916082 121 114 110
0.33891070 0.17703942 0.78673418 143 134 122
0.32032257 0.17172351 0.80318940 154 136 133
0.33927036 0.18142018 0.78704327 126 114 101
0.32210483 0.29472046 0.71886811 123 105 102
0.32138160 0.29530115 0.72347451 130 116 111
0.32311058 0.30040598 0.72813302 120 107 103
0.33994576 0.49885064 1.87781680 97 95 93
0.33472903 0.50713624 1.83154285 117 112 107
0.33651523 0.50985310 1.84712589 110 106 101
0.33947752 0.50625977 1.87523025 94 91 90
0.33914332 0.51030891 1.89144285 95 92 90
0.32050234 0.53103542 1.18305731 0 0 0
0.32701820 0.53796127 1.21485996 0 0 0
0.32731175 0.54475015 1.21595049 0 0 0
0.33451012 0.55564354 1.25072300 0 0 0
0.33512843 0.56244600 1.25303483 0 0 0
0.34079646 0.15705365 0.75911806 156 149 137
0.34031690 0.15851994 0.76196311 153 145 136
0.34521581 0.17065401 0.77285640 130 123 119
0.34588796 0.17730470 0.78273011 128 119 113
0.35803662 0.19801261 0.46439393 76 70 69
0.35115248 0.18140590 0.77918601 140 130 125
0.34758126 0.18250683 0.78667249 139 134 125
0.35437162 0.20557954 0.45830350 96 92 85
0.35682076 0.20414242 0.46242183 112 109 99
0.34830969 0.49736268 1.79812157 139 136 131
0.35163059 0.49782850 1.80987128 139 135 132
0.35563128 0.49893459 1.83049397 138 132 128
0.34884220 0.49792591 1.87677932 111 107 103
0.35326089 0.49836989 1.88829279 104 97 94
0.34416580 0.50254250 1.79812157 137 131 124
0.35107727 0.50379136 1.80879430 140 135 128
0.34885010 0.50933184 1.83091220 125 118 114
0.34865996 0.51324564 1.84784555 127 122 118
0.34988506 0.50578923 1.87109601 130 125 118
0.35008315 0.50842653 1.88754141 124 118 112
0.34295458 0.51640105 1.93131578 96 88 86
0.35130829 0.52084756 1.85216355 114 105 104
0.34919526 0.52733216 1.87522310 109 100 99
0.35326269 0.53263524 1.88827813 100 93 91
0.34344451 0.52799720 1.93407482 95 94 91
0.34472208 0.52496916 1.95080423 87 83 82
0.34552285 0.53387237 1.96490383 92 90 90
0.35559288 0.54028702 1.90955448 95 88 88
0.34652728 0.54848087 1.97061586 118 117 108
0.34613988 0.55216086 1.98795259 124 122 115
0.34262087 0.57430574 1.28938150 0 0 0
0.34519509 0.56352921 1.99576004 139 135 122
0.35107651 0.59233209 1.32985252 0 0 0
0.35989764 0.60963321 1.37225068 0 0 0
0.37744612 0.09335724 0.45844908 129 119 106
0.37824117 0.09576339 0.46031591 113 103 94
0.37918086 0.10070579 0.45896547 135 127 115
0.36240328 0.19709479 0.46462543 81 80 76
0.36071428 0.20188073 0.45881068 120 116 108
0.36106756 0.20250207 0.46234090 122 117 109
0.36607059 0.49353050 1.79548442 131 126 120
0.36457888 0.49197679 1.81074865 127 122 113
0.36700720 0.49530129 1.83462268 135 129 114
0.36410151 0.49631446 1.85219109 142 135 124
0.36873662 0.49932992 1.86747062 142 134 122
0.37785232 0.51894662 1.79574311 100 91 94
0.37050505 0.50523548 1.81448879 128 120 111
0.36789437 0.50827893 1.83379515 136 129 121
0.36866784 0.51183876 1.85434222 137 129 120
0.36469178 0.50367113 1.87161477 145 137 126
0.37580055 0.52291450 1.79337722 116 115 110
0.37825486 0.52223778 1.81254506 84 75 78
0.36817726 0.52921227 1.87043072 117 107 106
0.37715943 0.53575945 1.89355266 128 120 119
0.37985691 0.54054224 1.89885676 124 120 118
0.36195213 0.54822040 1.92582905 77 71 71
0.36062765 0.61720747 1.37503421 0 0 0
0.36949322 0.63003933 1.41818380 0 0 0
0.37026784 0.63791043 1.42115688 0 0 0
0.37975341 0.65185887 1.46729839 0 0 0
0.38426273 0.09379823 0.45780208 141 135 120
0.38103204 0.09785444 0.46034569 131 126 115
0.38130725 0.10038864 0.45842225 135 128 116
0.39848020 0.38984694 1.23658236 106 102 100
0.39858350 0.39420423 1.24156010 102 98 90
0.39851642 0.41543793 1.23065844 124 114 109
0.39527427 0.42571658 1.21813548 132 124 117
0.39715410 0.42631619 1.23050180 134 126 121
0.39858350 0.43025597 1.24156010 136 127 124
0.38259430 0.51384757 1.80979414 83 74 77
0.38237585 0.51471227 1.82474583 81 73 72
0.38227695 0.51942837 1.84711671 97 89 83
0.38075925 0.52630836 1.83215350 96 86 89
0.38545462 0.52725575 1.85217273 81 71 75
0.38486181 0.52866517 1.87134686 103 94 92
0.38442512 0.53617293 1.88678369 106 100 99
0.38263632 0.54079461 1.88827813 120 116 113
0.38057718 0.66005051 1.47048128 0 0 0
0.39074975 0.67524395 1.51993692 0 0 0
0.39162785 0.68378264 1.52335250 0 0 0
0.41880877 -0.26061741 0.46710908 108 101 93
0.41597768 -0.25254689 0.46633273 105 102 96
0.41759074 0.21714021 0.65878701 88 86 80
0.41811739 0.21830712 0.66232732 85 80 76
0.41607213 0.22845344 0.67196359 117 108 106
0.41407162 0.38594982 1.15878952 136 133 125
0.41135305 0.39285642 1.16838257 141 137 128
0.40571646 0.39847261 1.18409872 139 138 133
0.40139961 0.38944287 1.23627876 111 107 105
0.40290667 0.39636746 1.24498147 97 91 85
0.41730759 0.40197857 1.17639185 138 136 126
0.41154645 0.40935473 1.19192954 122 118 114
0.40809320 0.41569077 1.21145114 108 103 101
0.40515946 0.41090483 1.23059814 97 91 91
0.40344897 0.40872775 1.24914499 105 98 99
0.40287701 0.41422202 1.26002204 107 99 96
0.41213886 0.42034948 1.19980860 98 90 88
0.41336999 0.42446964 1.21224074 100 94 90
0.40860511 0.42908180 1.22764085 118 112 103
0.40096769 0.42769018 1.25451773 136 128 122
0.40202976 0.43146603 1.26592622 137 131 123
0.41694256 0.44430350 1.23510807 94 83 79
0.41315046 0.44459544 1.25140050 117 108 102
0.40164784 0.44090629 1.26472354 137 128 125
0.40256444 0.69809860 1.57649267 0 0 0
0.40256444 0.70491070 1.57649267 0 0 0
0.40350282 0.70928502 1.58016741 0 0 0
0.41529235 0.72743674 1.63741994 0 0 0
0.41629788 0.73676342 1.64138460 0 0 0
0.42020646 -0.26088625 0.46686766 112 104 96
0.42187521 -0.25681986 0.46597383 108 100 95
0.42708556 0.11067524 0.49214410 118 110 104
0.43911845 0.21006734 0.45114712 99 92 88
0.42027649 0.21849121 0.65942788 89 85 81
0.42118528 0.21955910 0.66265088 88 84 79
0.42352979 0.22618759 0.66931104 83 78 77
0.42960452 0.23690083 0.68805629 99 92 88
0.43732635 0.24610573 0.69701504 94 86 80
0.43839436 0.25235016 0.70181500 90 82 78
0.43951824 0.26014233 0.70102566 81 80 78
0.42132142 0.39803286 1.16781479 129 122 115
0.42216863 0.40459474 1.17689700 127 120 112
0.42257668 0.41489480 1.18950541 114 110 101
0.42293763 0.42663214 1.21056600 107 97 93
0.42277885 0.43507960 1.22770691 87 79 74
0.42306543 0.44342824 1.23607028 78 67 63
0.42433473 0.44570670 1.24156010 78 65 63
0.42904359 0.75422713 1.70324588 0 0 0
0.42958395 0.76402178 1.70539099 0 0 0
0.44965402 0.13889441 0.45601196 91 86 85
0.44953893 0.14316670 0.45620719 105 99 94
0.45952928 0.17362677 0.81870997 147 140 131
0.45801018 0.17371085 0.82834590 141 136 127
0.45938906 0.18060011 0.83126697 129 122 112
0.44373155 0.21587864 0.45644522 114 110 102
0.44690583 0.21800628 0.46083841 110 106 100
0.44612007 0.22268233 0.45872885 85 84 79
0.44823693 0.22728838 0.46243184 32 31 30
0.44086569 0.25763848 0.70746735 82 77 76
0.44261096 0.26312385 0.70988338 80 79 78
0.44423808 0.79094131 1.77575040 0 0 0
0.46561101 0.17050071 0.81726668 145 135 126
0.46604960 0.17471135 0.82359786 139 131 123
0.46991860 0.18455456 0.82845475 140 133 124
0.47625935 0.26780073 0.88818660 124 124 115
0.46015298 0.81856984 1.85216355 0 0 0
0.46057321 0.82786592 1.85385501 0 0 0
0.47784087 0.85766399 1.93683386 0 0 0
0.47784087 0.86603314 1.93683386 0 0 0
0.47921005 0.87187189 1.94238353 0 0 0
0.48165987 0.19132671 0.83418447 148 142 131
0.48762089 0.19586073 0.84754185 144 136 127
0.49257739 0.20413849 0.85634774 140 135 128
0.49350428 0.20488323 0.86503794 138 131 124
0.48869899 0.25878835 0.89549780 88 81 80
0.49352697 0.25586427 0.91226975 117 109 104
0.49603170 0.25652067 0.92355974 131 126 121
0.48359877 0.26670514 0.89609006 113 111 106
0.49219069 0.26507594 0.91202594 111 106 101
0.49296247 0.26897082 0.92884077 120 112 110
0.49237959 0.27409645 0.94903002 118 109 106
0.49412870 0.27997211 0.96018672 115 109 104
0.49282040 0.28222543 0.95657404 117 111 105
0.49412870 0.28163171 0.96018672 117 111 105
0.50732999 0.23472685 0.57168322 90 88 81
0.51282801 0.23890905 0.59240350 88 80 77
0.50754825 0.24062468 0.57758949 62 61 61
0.51507694 0.24276876 0.59316024 68 63 63
0.52198751 0.23885768 0.59598060 85 79 72
0.52254367 0.24043024 0.59778821 67 63 57
0.59306355 -0.22093223 0.52132180 33 33 41
0.59595652 -0.21562977 0.52236861 38 38 45
0.58998954 0.19638871 0.49085346 100 93 88
0.58649722 0.20232962 0.48798426 98 95 90
0.60250476 -0.21265092 0.52413460 108 114 118
0.60349646 0.17181691 0.59904575 121 121 115
0.60616513 0.17414653 0.60395128 113 113 107
0.60527521 0.18388296 0.60411997 110 106 104
0.61814092 0.31180581 0.78796062 88 86 78
0.61639406 0.32207692 0.77740094 100 97 90
0.61904313 0.32284596 0.78880169 87 85 77
0.63258617 -0.34941199 0.56565252 89 90 102
0.63321613 -0.20234609 0.55208109 55 57 62
0.63937426 -0.20090307 0.56070459 33 33 42
0.63655635 -0.19971337 0.55739352 41 42 50
0.63875760 -0.19842015 0.56135548 32 32 42
0.63788793 -0.12184282 0.72768730 76 74 73
0.63672167 -0.11703292 0.72873845 63 57 56
0.63470905 0.13646010 0.80900638 100 91 86
0.62863553 0.14526605 0.79892996 127 117 110
0.63368899 0.14378421 0.80561030 126 114 104
0.62387645 0.31599084 0.78935950 79 78 74
0.62371093 0.32297525 0.79092936 88 86 80
0.64599867 -0.35032282 0.56856178 39 38 48
0.64517162 -0.20046226 0.55793793 121 129 128
0.64248923 -0.20042258 0.56116899 37 38 44
0.64406598 -0.19888713 0.55822722 98 107 107
0.64539706 -0.19806437 0.56144894 79 87 90
0.65969336 -0.14222497 0.55862543 27 26 38
0.64845510 -0.12429550 0.73094748 77 76 73
0.64864360 -0.11567466 0.73244798 56 48 47
0.64074755 0.13637102 0.79940075 116 106 101
0.64498829 0.13286856 0.81190044 93 86 84
0.65196164 0.12929770 0.82574210 87 82 78
0.66099328 -0.14336850 0.55931669 24 22 33
0.66641973 -0.14144687 0.56324414 30 29 38
0.66735336 -0.13211621 0.55806591 29 28 36
0.67250990 -0.12948188 0.56502132 29 28 36
0.67569952 -0.11905587 0.56510292 29 29 35
0.68169416 -0.12572443 0.57077817 28 28 35
0.68887951 0.17509690 0.57853089 99 97 95
0.69347433 0.17190201 0.58292498 100 98 93
0.68355329 0.18328266 0.57883013 100 98 94
0.68388736 0.18427698 0.58038688 93 87 89
0.70847916 -0.35262465 0.62800462 91 95 103
0.71863650 -0.18781991 0.60817924 32 30 40
0.71883190 -0.17800143 0.60472065 33 32 39
0.71456525 -0.14861304 0.61608989 104 106 119
0.71776537 -0.14199859 0.62140242 159 166 172
0.71742604 -0.13704477 0.62510432 160 168 173
0.70275487 0.17028817 0.58269042 83 81 80
0.72341184 -0.34970087 0.63452110 40 39 51
0.72485345 -0.20372261 0.61348259 34 33 41
0.72298910 -0.19009567 0.61113774 32 30 40
0.72679448 -0.17517691 0.61325854 31 30 38
0.73712861 -0.16962587 0.62192165 31 30 38
0.72104273 -0.14842554 0.61720109 34 32 60
0.72714286 -0.14191398 0.62505808 82 85 95
0.73162831 -0.13044993 0.63129780 114 119 129
0.73473064 -0.11623709 0.63574055 150 154 160
0.75827356 -0.22137674 0.65843209 165 164 169
0.75851085 -0.21810253 0.65918756 162 166 171
0.75883958 -0.21618050 0.66071391 156 165 167
0.74085294 -0.16739999 0.62524643 31 30 38
0.74933879 -0.14214691 0.63679453 32 33 42
0.74769528 -0.12718806 0.63537031 32 32 44
0.75758246 -0.12538089 0.64255556 32 32 41
0.74433825 -0.11569613 0.63735376 43 41 61
0.74981711 -0.11212712 0.64187423 42 41 60
0.75276461 -0.04186374 0.65814805 31 30 37
0.75610371 -0.04027522 0.66006994 31 31 36
0.75762826 -0.03669851 0.66294710 31 31 36
0.76584005 -0.22136233 0.65881789 56 54 69
0.77492013 -0.22185196 0.66162078 37 36 47
0.76533239 -0.21813113 0.65891055 57 54 71
0.77132812 -0.21160165 0.66459049 76 75 89
0.76039255 -0.12739164 0.63921922 29 29 38
0.76893652 -0.12503484 0.64804599 30 30 39
0.77727281 -0.11357680 0.65519669 30 29 40
0.76260477 -0.04019694 0.65878701 63 62 64
0.76622339 -0.03090763 0.66719532 32 31 37
0.76816410 -0.01832027 0.67085074 31 30 35
0.78391075 -0.20429607 0.67373305 51 49 62
0.78767943 -0.19670213 0.67745117 48 47 56
0.78125308 -0.11078411 0.65814860 30 29 39
0.78712152 -0.10754181 0.66389418 30 29 39
0.81911538 -0.41400349 1.33094060 84 84 82
0.80143315 -0.10421657 0.67519110 31 30 39
0.83994889 -0.44065857 1.33970726 88 87 84
0.83697182 -0.44153115 1.34236014 84 83 79
0.83191358 -0.43047392 1.33873453 83 83 80
0.83763473 -0.42529003 1.34236014 84 84 79
0.83316252 -0.41543789 1.33518845 83 82 78
0.83020851 -0.08211122 0.71385479 138 147 148
0.83478141 -0.07802535 0.71712151 147 157 157
0.83326833 -0.06465349 0.72581522 34 34 39
0.83510309 -0.05460362 0.73023713 30 29 35
0.83661518 0.29303651 0.91545191 97 91 86
0.83567889 0.43701712 1.21735597 128 124 117
0.83984017 0.43331993 1.22474581 105 101 100
0.83968103 0.44270131 1.22142673 126 123 115
0.84706366 -0.42786998 1.33517372 82 82 79
0.84161216 -0.42412995 1.34236014 81 81 77
0.85199443 -0.41175686 1.33551759 83 81 78
0.84393233 -0.40324850 1.34236014 84 83 81
0.85674661 -0.39839124 1.32746557 85 81 79
0.84833691 -0.06604383 0.72859873 127 134 134
0.85085332 -0.05341060 0.73348173 98 103 106
0.84694701 0.29283766 0.91979897 101 95 94
0.85249166 0.29383252 0.92578298 100 96 92
0.85056339 0.30434784 0.91855375 106 97 90
0.85325215 0.30491423 0.92769530 104 98 91
0.85670031 0.30656255 0.94493649 97 91 84
0.84859988 0.41917796 1.22363544 108 103 96
0.84649487 0.43221135 1.21628700 94 84 84
0.84830922 0.42775007 1.22563812 96 89 87
0.85304284 0.43261409 1.24556571 89 86 84
0.85343722 0.44712538 1.21400151 97 95 86
0.85049198 0.44677042 1.22414093 116 112 102
0.85620582 0.44347478 1.25651979 108 107 105
0.85832342 0.45212594 1.26552331 132 132 121
0.85952896 0.46034482 1.23477566 133 126 112
0.86031950 -0.40583438 1.33181107 87 81 83
0.86017346 -0.41020899 1.34236014 84 80 80
0.86186532 -0.06410615 0.73444628 156 164 164
0.86278284 -0.05394050 0.73604031 153 162 163
0.87249276 -0.04601960 0.74372116 154 163 165
0.86521390 0.28945618 0.92851594 101 99 95
0.86680157 0.30310288 0.93024561 102 96 89
0.86524540 0.31043516 0.94927630 93 91 84
0.87732466 0.35564842 1.27253156 135 127 117
0.87947156 0.36222531 1.27503566 125 115 111
0.86177303 0.43600453 1.21922994 102 98 94
0.86399277 0.43207787 1.22553919 108 96 91
0.87283534 0.43283108 1.24156010 101 88 88
0.86229247 0.45083950 1.21719112 94 90 84
0.86276045 0.44944665 1.22375725 93 90 83
0.86396630 0.44877057 1.27297626 110 110 105
0.87460388 0.45458405 1.29369897 108 108 105
0.87779810 0.45464076 1.30197004 105 104 102
0.86874474 0.46393446 1.22920229 103 103 92
0.87628752 0.46799794 1.24962223 126 122 113
0.86652011 0.46066660 1.28634083 135 136 124
0.87930089 0.46075124 1.30867147 113 112 110
0.88159043 0.30382022 0.94151646 108 107 103
0.88095081 0.35814467 1.28145909 134 124 115
0.88204587 0.36562195 1.27663243 120 109 103
0.88991463 0.37222465 1.29227394 99 91 84
0.88719306 0.37543328 1.30475773 89 82 76
0.89621204 0.38526400 1.29684009 119 116 110
0.89329279 0.38779165 1.31083444 95 86 81
0.88558433 0.45156727 1.30756270 97 94 88
0.89647049 0.45470846 1.32400751 100 96 90
0.88523376 0.47581524 1.25303483 130 126 117
0.88270903 0.46026638 1.31374383 109 108 106
0.88787103 0.46067402 1.32142663 110 109 107
0.90113989 0.37905496 1.29616505 99 92 87
0.90001857 0.38129602 1.29616034 115 110 105
0.90244399 0.39728760 1.31273134 108 108 104
0.90484694 0.39981310 1.32790929 67 66 62
0.91103125 0.40403524 1.33481319 97 96 92
0.91528991 0.40995475 1.34886796 109 108 100
0.91696692 0.41102487 1.36122859 90 87 82
0.92794073 0.40915760 1.33970726 133 124 117
0.92807519 0.41397883 1.35039171 130 125 117
0.92677743 0.41748096 1.37029767 106 105 97
0.93445286 0.42186642 1.36892850 126 123 110
0.93561794 0.42576064 1.38857548 106 102 98
0.95415455 0.37651619 1.06419444 92 91 90
0.95866942 0.38014591 1.06923008 91 90 90
0.94259253 0.41641253 1.35578912 137 128 118
0.94860122 0.42432284 1.37227092 137 129 121
0.95316632 0.43051692 1.38687097 130 125 116
0.95075224 0.43620764 1.41229609 97 93 91
0.95845181 0.44172385 1.43015158 92 87 89
0.97232991 0.09762651 0.82821301 27 26 36
0.97717292 0.10883012 0.83064291 29 28 37
0.97827429 0.19888229 1.04323294 111 92 87
0.97084633 0.20850455 1.03232843 112 94 87
0.97848201 0.20119070 1.04210955 116 97 89
0.96230516 0.38288210 1.07432300 90 88 88
0.97685313 0.39187909 1.09161516 95 92 90
0.96608568 0.43409920 1.39246412 135 128 121
0.96399087 0.43773139 1.40933859 121 120 110
0.97060955 0.44509767 1.40569878 120 117 112
0.97001815 0.44449854 1.42714703 104 103 100
0.98603404 0.09871078 0.83742076 27 26 36
0.98361644 0.11189723 0.83777984 29 28 37
0.98687788 0.11399250 0.84113356 29 28 37
0.98423940 0.12137055 0.83897507 29 28 37
0.99264044 0.12897023 0.84738641 29 28 36
0.99418241 0.15607188 0.85212593 31 28 36
0.98684821 0.19688160 1.04869108 111 97 90
0.99699532 0.18945508 1.06319568 110 104 92
0.98319646 0.20576873 1.03654001 116 111 107
0.98624680 0.20315168 1.04365374 107 93 89
0.98802055 0.39683867 1.10676882 89 87 84
0.99961120 0.39809480 1.12793982 78 73 72
0.99147369 0.40427440 1.11009745 98 92 87
0.99881220 0.40224108 1.12048233 90 87 80
0.98183179 0.43834466 1.40350282 136 128 120
0.98399481 0.42831285 1.55658489 74 71 65
0.99080890 0.43116995 1.56994245 80 76 69
0.99476715 0.43462149 1.59006484 108 100 87
0.99762008 0.43586936 1.60638910 123 116 104
0.98391217 0.44323270 1.41522926 131 126 119
0.98926914 0.44385844 1.42115688 137 129 123
0.98815888 0.44891676 1.54417276 74 73 73
0.99686503 0.44130936 1.59880149 121 117 105
0.99540970 0.44219679 1.61211133 137 132 121
1.00635095 0.13412670 0.85649916 28 27 35
1.00528845 0.14919677 0.85703315 28 27 33
1.00941477 0.14714544 0.86081566 28 27 33
1.01683096 0.17984009 1.07601881 105 90 86
1.01982749 0.17883186 1.08116722 107 93 83
1.01383454 0.18818834 1.07084875 106 96 92
1.00434613 0.39879949 1.13549721 80 73 72
1.00591155 0.41140368 1.13291242 90 86 80
1.01549814 0.41236526 1.15149388 87 83 77
1.01374072 0.41437931 1.16664573 114 112 99
1.01179564 0.42243042 1.13835824 94 91 89
1.01499163 0.42443754 1.14769294 89 85 83
1.01990449 0.42087358 1.16676736 117 118 104
1.00619148 0.42991034 1.59880149 96 91 84
1.00634334 0.43224481 1.60431227 103 97 88
1.00256240 0.43835650 1.62369537 126 118 109
1.00049865 0.45378435 1.56557012 72 72 72
1.00421691 0.44527541 1.59008221 88 84 81
1.00856328 0.44766479 1.61063657 104 99 92
1.00838795 0.44812198 1.62857547 127 120 112
1.01157660 0.45286025 1.64652906 139 132 126
1.01791058 0.46278985 1.65178952 124 117 112
1.01872718 0.46292326 1.66149962 141 131 125
1.03183977 0.17794548 1.07582677 152 154 152
1.03175969 0.17669912 1.08494844 127 122 117
1.02942559 0.18320320 1.07176857 160 164 165
1.02094233 0.41332243 1.15878952 92 87 80
1.02538340 0.41309986 1.16887290 91 87 80
1.03286191 0.41900772 1.18237031 102 100 93
1.02541431 0.43019138 1.15256992 93 92 86
1.02677026 0.42469669 1.16744947 102 100 87
1.02715048 0.42424007 1.19036204 128 127 112
1.03186810 0.43670369 1.59880149 128 123 116
1.03252561 0.43307435 1.60989612 117 114 104
1.03487699 0.43186638 1.62565063 113 108 101
1.02173567 0.44407275 1.59880149 119 118 112
1.03201200 0.44667693 1.60776038 115 112 106
1.03406856 0.44980325 1.62955899 104 102 95
1.02305603 0.45985079 1.64536858 121 114 108
1.02994807 0.46236267 1.61251290 74 73 72
1.03690644 0.46971044 1.62695503 77 75 73
1.03423729 0.46527815 1.65085784 91 91 84
1.03053570 0.46845351 1.66736032 107 105 99
1.03521390 0.47293800 1.69221065 133 126 121
1.03393209 0.48003376 1.68629813 110 107 101
1.03565466 0.56294364 1.42414248 132 132 125
1.03270955 0.57256711 1.44850172 90 91 84
1.03999615 0.58130008 1.45783186 98 98 94
1.03914106 0.58127058 1.46729839 78 72 67
1.05341833 0.07924526 0.90434300 32 30 43
1.05666481 0.08527156 0.90983628 33 30 45
1.04133937 0.17729253 1.07636201 163 166 167
1.04308146 0.17523429 1.08203077 162 165 166
1.04121524 0.18233936 1.07431626 161 166 168
1.04107940 0.43301916 1.59880149 128 123 118
1.04467330 0.43072747 1.60978257 115 112 100
1.04874101 0.42716338 1.62917011 119 114 102
1.04598999 0.43362495 1.64297819 113 107 100
1.05071378 0.44641873 1.18099630 83 79 77
1.04223911 0.45142387 1.61020805 121 114 109
1.04231763 0.45742135 1.62664038 98 93 87
1.04395761 0.46251678 1.63269281 80 78 73
1.04805403 0.47066747 1.65340597 74 74 71
1.04552752 0.47184379 1.66765332 81 81 77
1.04819798 0.47830895 1.69050336 94 93 89
1.05164719 0.47761071 1.72491562 144 136 131
1.04269099 0.48399693 1.70539099 120 117 111
1.04964527 0.48563150 1.72163215 134 128 123
1.04212071 0.57118793 1.43091224 130 132 121
1.04600184 0.57540645 1.44934117 124 128 117
1.04422526 0.57680825 1.47208877 92 90 81
1.04767005 0.58418356 1.45649401 115 117 108
1.04888421 0.58690482 1.46831198 98 96 91
1.04883339 0.59272776 1.48904546 87 80 73
1.05630821 0.59743711 1.50810385 101 88 78
1.04876753 0.60237275 1.49129294 101 96 86
1.06434745 0.08986189 0.91468212 33 31 45
1.07077217 0.09655177 0.92599687 60 61 70
1.07469026 0.10307542 0.93004924 57 57 69
1.07891884 0.21178974 0.92608891 30 30 35
1.06571424 0.23953261 0.91156032 55 52 56
1.07867321 0.23801635 0.92768176 41 39 45
1.06653535 0.24165164 0.91361419 47 46 50
1.07635397 0.24358305 0.92293352 52 48 54
1.07655489 0.42396539 1.60637879 139 137 124
1.06365705 0.42829329 1.63347435 105 99 89
1.07152697 0.43444107 1.64337659 113 111 99
1.07488930 0.45757920 1.21052110 78 74 73
1.06339610 0.45762929 1.63741994 131 128 122
1.07424605 0.44278750 1.64536858 120 120 107
1.07157326 0.47830895 1.69050336 78 78 74
1.07694447 0.48657960 1.69897699 64 63 65
1.06304676 0.59470734 1.47230991 110 111 101
1.06638348 0.59551227 1.51315141 88 80 70
1.07312965 0.59958875 1.53022993 98 92 74
1.07387392 0.60314206 1.53254839 97 88 73
1.08345696 0.10786281 0.93213250 34 31 48
1.09038515 0.11280559 0.95155997 148 155 158
1.09472498 0.13290068 0.95632763 129 135 141
1.09875748 0.13202414 0.96138038 149 156 161
1.09547221 0.14412143 0.95702674 133 137 143
1.09629027 0.14579885 0.96123073 147 155 158
1.08365642 0.21462984 0.92817997 29 29 32
1.08665912 0.23020704 0.93273888 32 30 37
1.09767181 0.22921052 0.94086441 30 27 34
1.08488230 0.24214632 0.93197415 56 52 56
1.09471369 0.42829329 1.63347435 136 136 125
1.08755013 0.43583607 1.65407177 131 128 116
1.09333138 0.43408139 1.66286039 127 126 115
1.08976487 0.44126075 1.65743732 129 126 113
1.09568380 0.45091879 1.66805347 128 124 115
1.08067870 0.46214730 1.21704102 86 82 81
1.08457303 0.46592382 1.22142673 101 95 94
1.09742945 0.46463394 1.66763312 144 137 130
1.08510315 0.48730701 1.71184814 72 72 73
1.08331013 0.59832266 1.53716969 102 99 84
1.08085930 0.60094523 1.53369200 93 87 73
1.09551823 0.74447584 1.67795014 78 74 71
1.09737092 0.74698871 1.68525204 79 74 71
1.09860557 0.76351014 1.70754701 92 67 66
1.10323499 0.13629594 0.95399563 32 32 44
1.10124493 0.13783175 0.96428424 149 156 161
1.10431468 0.14495565 0.95719459 40 39 49
1.10668587 0.15211880 0.96546735 100 104 110
1.11307986 0.16185827 0.97227406 127 128 132
1.10113358 0.23107166 0.94348249 28 26 34
1.10610676 0.43386738 1.65474224 136 136 125
1.11320889 0.43778747 1.66968429 136 136 125
1.10790825 0.44030583 1.65743732 128 125 112
1.10441995 0.45022013 1.67298248 128 125 115
1.11052689 0.45542101 1.68421116 127 123 113
1.10529657 0.46529178 1.67518806 142 134 130
1.11540860 0.46223775 1.69051385 130 122 120
1.11758149 0.73085180 1.71401501 65 63 62
1.11809719 0.73638042 1.72932343 76 71 64
1.10496953 0.74799840 1.69579673 83 81 75
1.11080754 0.75197788 1.71042287 80 78 71
1.11626290 0.75217601 1.72443913 75 73 67
1.11033809 0.74690288 1.75165856 110 105 97
1.11914945 0.75078291 1.76075804 109 103 95
1.10573506 0.76195657 1.71401501 82 71 68
1.11051324 0.76549611 1.72871141 84 74 70
1.11558167 0.76646918 1.74564675 96 89 83
1.12298316 0.16542043 0.97961247 132 129 135
1.12698836 0.16832978 0.98473921 140 142 147
1.12923902 0.45331481 1.69263747 130 125 115
1.12249264 0.46866538 1.69791514 136 131 124
1.13346716 0.46916232 1.71041322 131 127 118
1.12047935 0.73177576 1.71618187 67 64 63
1.12503681 0.73424329 1.72773828 71 67 62
1.13465464 0.73591852 1.74714386 72 73 66
1.12047935 0.74660718 1.71618187 79 75 72
1.12189569 0.74589686 1.72713072 66 64 60
1.13083959 0.75122613 1.74941286 73 69 66
1.12495553 0.75637909 1.77149701 105 100 91
1.12327051 0.76711529 1.74941286 82 79 71
1.13299154 0.76960736 1.77172031 93 87 81
1.13841251 0.76576079 1.78863907 102 95 89
1.15028408 0.46577358 1.59504402 105 95 89
1.15524389 0.46644830 1.60448297 109 100 94
1.14554422 0.46949507 1.71521882 133 131 119
1.15030487 0.46934914 1.72492373 128 125 116
1.14997733 0.48032358 1.72931588 147 142 130
1.14687218 0.75123685 1.77381778 77 73 66
1.15538096 0.75693828 1.79337722 82 76 69
1.14427503 0.76655356 1.77613854 76 73 69
1.14567855 0.77031431 1.79101480 90 84 79
1.15528616 0.77365064 1.80290389 88 84 78
1.17571007 0.19670316 1.01684486 37 33 46
1.16919918 0.19882699 1.02202201 113 109 119
1.17911112 0.20190856 1.01404971 29 27 40
1.17508628 0.20760306 1.03304196 125 130 135
1.17583912 0.21594883 1.04130852 148 155 159
1.17510533 0.22378995 1.03971136 149 153 157
1.17661708 0.22887549 1.04263366 146 153 158
1.17844141 0.24174608 1.04612935 129 141 144
1.17596102 0.38079152 1.42414248 118 117 114
1.17558728 0.43776976 1.60723474 137 133 129
1.17692006 0.44712191 1.61047477 138 131 124
1.17939134 0.45015425 1.62878494 143 139 131
1.17946986 0.45701100 1.64537501 141 137 126
1.16819572 0.47170675 1.59880149 100 100 100
1.17144358 0.46828619 1.60937757 105 99 94
1.17432897 0.46658603 1.62721806 120 111 105
1.17912385 0.46610197 1.64737508 131 122 112
1.16193330 0.46687317 1.72931588 127 119 113
1.17692500 0.47258799 1.74489820 118 109 103
1.16165185 0.74636406 1.77924371 73 72 67
1.17164868 0.75145528 1.79693234 74 69 66
1.17125848 0.75463203 1.81014124 80 73 70
1.16303056 0.76973194 1.81254506 83 75 67
1.16769898 0.77175930 1.82474583 96 88 79
1.18045843 0.19826663 1.01785791 31 29 41
1.18357229 0.19886468 1.02092147 31 30 41
1.18266204 0.20626333 1.01823941 30 29 39
1.18726666 0.21006170 1.03284597 63 60 73
1.18743964 0.21849957 1.04354237 121 123 131
1.18019700 0.22319093 1.03971136 147 147 153
1.18794777 0.22892931 1.04471696 127 131 138
1.19157644 0.24323329 1.05304495 137 149 151
1.19595599 0.24881819 1.06086361 143 152 157
1.18591209 0.37934578 1.43419584 131 122 120
1.19559081 0.37810876 1.44973812 139 133 131
1.18416182 0.38911181 1.43665266 127 123 116
1.18888457 0.39150697 1.44940584 131 125 120
1.19807430 0.39487593 1.46731210 137 133 126
1.19801968 0.39149755 1.48823857 137 137 128
1.18844473 0.40473506 1.43926084 134 131 125
1.19088928 0.40495252 1.44895075 131 128 121
1.19763277 0.40556137 1.46624885 120 117 110
1.18442717 0.45167337 1.61275639 130 124 117
1.18396192 0.45303682 1.63107683 138 133 125
1.18695112 0.45428545 1.64392512 139 136 127
1.18211945 0.46540807 1.61531226 124 117 107
1.18550202 0.46421300 1.62990320 132 124 117
1.18468191 0.46530387 1.64537662 139 130 122
1.18017042 0.74608821 1.79336464 82 68 69
1.18720509 0.75029065 1.80933423 83 71 69
1.19294212 0.75367564 1.82524233 84 74 72
1.19632065 0.75999451 1.84209740 80 72 72
1.18248363 0.76571379 1.83545021 81 75 70
1.19055877 0.76915029 1.84881276 84 79 74
1.19981027 0.76834607 1.86234021 84 78 73
1.19337249 0.78765953 1.86234021 91 83 75
1.20354649 0.21726745 1.03931332 31 30 39
1.20293689 0.21901146 1.04291155 32 31 41
1.20613197 0.23082514 1.05169046 45 45 60
1.21170871 0.23411632 1.06589620 87 92 99
1.20340502 0.24461654 1.05854607 135 146 146
1.21095609 0.25170326 1.06807096 125 131 136
1.21228389 0.26046627 1.07234023 141 145 150
1.21312444 0.28845351 1.19571683 82 79 77
1.21584368 0.28631835 1.20300335 71 67 65
1.20790029 0.35769409 1.52506799 113 105 95
1.21176982 0.37875363 1.47367787 140 135 129
1.21096621 0.36293892 1.53161944 120 117 104
1.21638878 0.37046621 1.54535866 129 126 115
1.20621245 0.38696540 1.47182128 137 133 128
1.21329524 0.38860313 1.48587184 139 136 129
1.21541023 0.39630601 1.51146638 137 136 126
1.20419908 0.41021100 1.47688854 120 118 108
1.20687962 0.40572405 1.48227235 124 120 113
1.21545899 0.40197563 1.51315141 139 139 130
1.20821147 0.75548043 1.83116846 88 78 75
1.21283157 0.75278199 1.84784555 97 90 81
1.21429539 0.75707993 1.86234021 93 92 80
1.20587242 0.76317841 1.84209740 80 67 69
1.21484552 0.76821192 1.86986693 79 74 71
1.20328975 0.78609104 1.87781680 92 87 82
1.20673889 0.79048103 1.88829279 97 92 88
1.22063315 0.23378339 1.05920601 34 34 46
1.22404344 0.23699948 1.06336170 35 36 50
1.22812970 0.25230620 1.07152247 46 45 54
1.22788489 0.25739037 1.09337682 140 147 154
1.23325264 0.26264732 1.07535805 42 40 49
1.23307115 0.26432813 1.08509228 92 98 104
1.22576123 0.29231701 1.21144922 94 91 87
1.23355283 0.29188854 1.22419064 83 81 77
1.22090995 0.30214447 1.19980860 112 112 108
1.23254628 0.30419142 1.21272091 124 122 117
1.23892832 0.30234465 1.22584414 134 131 123
1.22400582 0.35971680 1.53369200 97 87 81
1.22882104 0.36476619 1.53485436 103 99 84
1.23045253 0.37410760 1.54715551 121 116 101
1.23317447 0.37779912 1.56467241 128 124 114
1.23192062 0.39052510 1.51365439 139 135 129
1.22758524 0.39043652 1.53139213 118 108 101
1.23225616 0.38968225 1.54595164 108 97 93
1.23885596 0.38204740 1.57101446 129 122 114
1.23651624 0.38154206 1.58016741 123 123 116
1.22833217 0.40271153 1.52886691 132 132 124
1.23310043 0.40570166 1.54732986 117 116 110
1.22585917 0.75964433 1.87262940 102 95 84
1.22526705 0.76094615 1.85216355 94 86 78
1.22388911 0.76634119 1.87159765 84 79 73
1.24081151 0.26796026 1.07887355 32 31 42
1.24954090 0.27150120 1.09132413 43 43 53
1.25732425 0.27687942 1.10136992 45 45 57
1.24381816 0.29868895 1.23702896 116 115 112
1.24738080 0.30834879 1.23133781 129 128 120
1.25508493 0.30612589 1.24556151 128 126 117
1.25649619 0.32695585 1.23477978 117 119 112
1.24989671 0.37675338 1.55046733 113 109 89
1.24786353 0.39550343 1.53369200 142 138 131
1.24721602 0.38692346 1.55176444 121 116 104
1.24632761 0.38544288 1.57102293 127 121 108
1.25290334 0.38973564 1.58016741 120 112 103
1.24803638 0.40038556 1.53716969 139 137 124
1.25125116 0.40446216 1.54772657 137 137 125
1.24116874 0.40684339 1.56196272 95 93 89
1.25614699 0.59447879 1.35115382 105 100 92
1.25700651 0.60218814 1.35424042 113 104 93
1.25799537 0.60639048 1.36671968 130 122 107
1.26145918 0.27901421 1.10190647 47 44 54
1.26369395 0.28230796 1.10586298 60 57 65
1.26601393 0.31349829 1.25350404 124 124 115
1.27289437 0.31403937 1.26439469 125 125 115
1.27362699 0.32757016 1.25405368 124 124 117
1.27802467 0.32225960 1.26237279 130 131 121
1.27451313 0.37792993 1.57649267 138 138 117
1.26234865 0.38079107 1.55479777 117 112 95
1.26297688 0.38342935 1.56557012 102 97 81
1.26255715 0.40590814 1.55837202 137 135 122
1.27213842 0.40512454 1.57103127 140 138 128
1.27748406 0.40885398 1.58016741 141 141 127
1.27898479 0.52268064 1.60258114 138 131 124
1.26011670 0.59802142 1.35578370 104 97 91
1.26763135 0.59867084 1.36259806 105 101 95
1.27090534 0.60574027 1.35694969 98 89 77
1.27049199 0.60981228 1.36732185 113 106 92
1.27247620 0.61972153 1.38063514 113 108 99
1.27557620 0.62263765 1.37434582 103 98 88
1.27633214 0.62682108 1.38426438 94 86 85
1.28365968 0.32832939 1.26946980 128 128 120
1.29603410 0.33420022 1.28308014 131 129 124
1.28320634 0.37969595 1.58385944 141 143 121
1.28461012 0.38672979 1.58704133 112 109 91
1.28046882 0.40707168 1.58385944 141 140 129
1.29454382 0.52761328 1.61374316 124 120 112
1.28120697 0.60153645 1.35578370 85 76 69
1.28824089 0.61088767 1.37201399 93 85 74
1.28419142 0.62386603 1.37503870 106 102 85
1.28487003 0.63244858 1.38629639 87 79 80
1.30435522 0.33877005 1.29205644 127 126 118
1.30749500 0.34367383 1.29368675 121 121 112
1.31076932 0.52487409 1.61788034 109 104 98
1.31089111 0.53094890 1.62926886 120 115 105
1.31420845 0.54526588 1.64138460 110 104 92
1.30186391 0.61024257 1.38439580 88 81 74
1.32717645 0.52641410 1.61402822 73 73 75
1.32941581 0.53408499 1.63288333 96 89 89
1.33244377 0.53525685 1.64404380 105 100 95
1.32665756 0.54447874 1.63053408 90 84 81
1.33223959 0.54792264 1.64687951 98 90 85
1.34995650 -0.47562141 1.31200421 33 32 36
1.35785107 -0.47637677 1.32314722 33 32 36
1.34428826 0.53475085 1.63741994 80 75 77
1.34849032 0.53318571 1.64938813 87 80 79
1.35472393 0.53328156 1.66149962 100 93 90
1.35219048 0.54838982 1.65139171 90 81 81
1.35759580 0.55625570 1.66149962 85 81 76
1.36450308 -0.46807502 1.31792541 34 34 37
1.37046525 -0.46829049 1.32908753 35 34 37
1.37859440 -0.45850250 1.33772799 36 33 38
1.36000597 0.53197771 1.65743732 85 71 72
1.36524957 0.53171301 1.66558194 95 76 77
1.37079114 0.56396627 1.67587858 99 99 93
1.38601023 -0.46347836 1.33707128 35 33 36
1.39185125 -0.46317685 1.34458315 35 33 37
1.38339410 -0.45771241 1.33812385 35 33 38
1.38841489 -0.45631035 1.34551743 34 33 38
1.40696745 -0.46252872 1.35038789 34 33 37
1.40754431 -0.46063797 1.36810911 33 32 38
1.40820281 -0.45783158 1.35398682 34 33 38
1.43196225 -0.46322194 1.37225068 34 34 38
1.42162097 -0.46127957 1.38063514 33 33 37
1.49864423 0.23919831 1.87781680 116 109 96
1.49828293 0.24606547 1.87574184 92 87 79
1.49651600 0.25136033 1.89063871 93 91 84
1.49994516 0.24914032 1.90419054 91 88 85
1.49588597 0.27763533 1.87436807 87 78 78
1.49320474 0.26820261 1.89092208 95 90 87
1.49702144 0.28139180 1.87781680 81 70 72
1.49156559 0.28047699 1.89355266 93 85 77
1.50838125 0.23919831 1.87781680 120 112 105
1.51257110 0.23986275 1.88303292 119 114 109
1.50621747 0.24965653 1.87781680 90 85 80
1.50932010 0.25365492 1.88736287 93 87 83
1.50625726 0.25718017 1.90803058 99 99 90
1.50188994 0.26759778 1.87781680 95 88 85
1.50923876 0.26990579 1.89171838 95 88 87
1.51300302 0.26450609 1.90822107 98 97 92
1.50465703 0.28047699 1.89355266 88 78 79
1.53378193 0.24939496 1.89545121 95 85 84
1.52387009 0.26666060 1.89302816 89 82 79
1.52751252 0.27561492 1.91091061 94 85 85
1.52596939 0.26121530 1.92037344 96 92 86
1.54766084 0.23650497 1.87485257 81 79 78
1.55195934 0.23640112 1.89005593 83 80 79
1.55314229 0.23507049 1.90687630 95 92 89
1.55804759 0.23831885 1.92310125 107 102 98
1.54843077 0.24292051 1.87522310 93 90 90
1.54825565 0.24699922 1.89336933 88 78 79
1.54818712 0.25622861 1.90802625 89 78 77
1.55584228 0.24130003 1.92037344 124 119 114
1.54497397 0.27141657 1.89885676 84 76 75
1.55015851 0.26884625 1.90777029 80 72 71
1.55472839 0.27322714 1.92310125 82 75 74
1.56606248 0.23548651 1.91360015 85 84 82
1.56501530 0.23628039 1.92583794 98 95 92
1.56301874 0.24905318 1.89093012 93 87 85
1.56841388 0.25813056 1.90741496 100 89 87
1.57085972 0.26944210 1.91279101 92 83 82
1.57438496 0.26721179 1.92173734 88 77 76
1.58139813 0.23933683 1.93131578 79 77 75
1.58123577 0.26378721 1.91494870 95 86 79
1.58560858 0.26774220 1.92913358 94 85 82
1.59498988 0.27467898 1.94517966 88 80 79
1.59805942 0.52694535 1.76534331 85 86 76
1.60300410 0.27923837 1.95357883 90 82 81
1.60795987 0.52663702 1.77458596 96 95 81
1.61629876 0.52678831 1.78549488 104 101 86
1.63953733 0.51303396 1.80771160 107 102 86
1.63105696 0.53006063 1.79337045 109 107 95
1.63529525 0.52528360 1.80578852 111 106 95
1.64513095 0.50742026 1.79337303 97 87 78
1.65102504 0.51209418 1.81158870 101 92 81
1.65405567 0.51698305 1.82721059 109 105 87
1.64502730 0.52820791 1.79362558 115 115 101
1.65131066 0.52687133 1.81126819 107 104 92
1.65308625 0.52552046 1.82863174 119 114 100
1.66220856 0.51874614 1.82228994 105 95 81
1.66403461 0.52206728 1.81740439 96 89 81
1.66623753 0.52484334 1.82844631 99 94 81
1.67253356 0.52888508 1.85116520 120 114 100
