ply
format ascii 1.0
element vertex 292
property float x
property float y
property float z
property uchar red
property uchar green
property uchar blue
end_header
0.17441074 -0.17001324 0.97133272 255 12 12
0.18582491 -0.17006115 0.96833098 255 12 12
0.19726927 -0.17011832 0.96542959 255 12 12
0.20889222 -0.17022873 0.96310405 255 12 12
0.22111707 -0.17043647 0.96174477 255 12 12
0.23271722 -0.17052111 0.95912056 255 12 12
0.24437564 -0.17061492 0.95658688 255 12 12
0.25659347 -0.17084972 0.95555094 255 12 12
0.26890452 -0.17095944 0.95300185 255 12 12
0.28068978 -0.17099045 0.94968356 255 12 12
0.29292671 -0.17118506 0.94816482 255 12 12
0.30561407 -0.17140818 0.94684329 255 12 12
0.31753995 -0.17155598 0.94486655 255 12 12
0.33001724 -0.17175389 0.94331169 255 12 12
0.34241154 -0.17191616 0.94136000 255 12 12
0.35513337 -0.17212997 0.93991736 255 12 12
0.36791006 -0.17228261 0.93773181 255 12 12
0.38034280 -0.17240252 0.93526564 255 12 12
0.04754072 -0.09668907 0.14115696 255 12 12
0.04095763 -0.09564833 0.13086950 255 12 12
0.05048729 -0.09618114 0.13420960 255 12 12
0.04892805 -0.09566108 0.12852779 255 12 12
0.04917138 -0.09550106 0.12655331 255 12 12
0.04632184 -0.09489875 0.12029932 255 12 12
0.04644238 -0.09474079 0.11838765 255 12 12
0.05830425 -0.09537509 0.12220238 255 12 12
0.06053535 -0.09537538 0.12150796 255 12 12
0.06085566 -0.09522249 0.11959403 255 12 12
0.06114760 -0.09506921 0.11768421 255 12 12
0.06186250 -0.09494574 0.11599588 255 12 12
0.06231786 -0.09480745 0.11421294 255 12 12
0.06231090 -0.09463672 0.11218969 255 12 12
0.06205302 -0.09445040 0.11006005 255 12 12
0.06197444 -0.09423581 0.10753883 255 12 12
0.06236484 -0.09408907 0.10567591 255 12 12
0.06295275 -0.09395673 0.10392213 255 12 12
0.06374248 -0.09383821 0.10226906 255 12 12
0.06323110 -0.09366755 0.10040439 255 12 12
0.06142851 -0.09339355 0.09771769 255 12 12
0.06209321 -0.09328209 0.09618752 255 12 12
0.06321541 -0.09319502 0.09480364 255 12 12
0.06311996 -0.09304437 0.09304635 255 12 12
0.06302707 -0.09288880 0.09122984 255 12 12
0.06314299 -0.09274681 0.08950908 255 12 12
0.06417747 -0.09265739 0.08812472 255 12 12
0.06522081 -0.09256077 0.08665219 255 12 12
0.06552312 -0.09242650 0.08496470 255 12 12
0.06698440 -0.09235690 0.08368204 255 12 12
0.06868357 -0.09229407 0.08240522 255 12 12
0.06915941 -0.09217029 0.08078787 255 12 12
0.07010737 -0.09206641 0.07925901 255 12 12
0.07127000 -0.09197501 0.07781111 255 12 12
0.07169824 -0.09184425 0.07612590 255 12 12
0.07282669 -0.09174882 0.07464085 255 12 12
0.07272687 -0.09159356 0.07283026 255 12 12
0.07332933 -0.09147325 0.07121456 255 12 12
0.07416506 -0.09135906 0.06959845 255 12 12
0.07301449 -0.09116144 0.06761391 255 12 12
0.07380718 -0.09104544 0.06598981 255 12 12
0.07482144 -0.09094029 0.06442518 255 12 12
0.07483367 -0.09079200 0.06266218 255 12 12
0.07504634 -0.09066778 0.06112200 255 12 12
0.07525986 -0.09053070 0.05942900 255 12 12
0.07470302 -0.09036969 0.05769312 255 12 12
0.07363037 -0.09018939 0.05588964 255 12 12
0.07229728 -0.08999052 0.05394738 255 12 12
0.07142787 -0.08981908 0.05218559 255 12 12
0.06978495 -0.08962889 0.05044312 255 12 12
0.06887017 -0.08946102 0.04873781 255 12 12
0.06793238 -0.08929758 0.04709225 255 12 12
0.06622514 -0.08911182 0.04542251 255 12 12
0.06724544 -0.08900564 0.04384367 255 12 12
0.06799616 -0.08888743 0.04220651 255 12 12
0.06822767 -0.08876084 0.04063239 255 12 12
0.06793947 -0.08861841 0.03903291 255 12 12
0.06738202 -0.08847039 0.03745123 255 12 12
0.07991931 -0.08845147 0.03330535 255 12 12
0.08128174 -0.08832629 0.03139421 255 12 12
0.08187555 -0.08818713 0.02955758 255 12 12
0.08219311 -0.08803822 0.02769175 255 12 12
0.08199473 -0.08788320 0.02591475 255 12 12
0.08226499 -0.08773192 0.02403554 255 12 12
0.08276382 -0.08758620 0.02215081 255 12 12
0.08249103 -0.08742534 0.02032780 255 12 12
0.08224838 -0.08729223 0.01882455 255 12 12
0.08293201 -0.08714886 0.01690993 255 12 12
0.08335253 -0.08700423 0.01506266 255 12 12
0.08374147 -0.08685428 0.01316213 255 12 12
0.07782231 -0.08648571 0.01064113 255 12 12
0.07693776 -0.08633046 0.00907596 255 12 12
0.07675261 -0.08617612 0.00730298 255 12 12
0.07676571 -0.08601507 0.00538831 255 12 12
0.07557147 -0.08585683 0.00388459 255 12 12
0.07484066 -0.08570080 0.00226217 255 12 12
0.07432958 -0.08554534 0.00057771 255 12 12
0.08035223 -0.08521980 -0.00516797 255 12 12
0.07682822 -0.08473501 -0.00981688 255 12 12
0.07500495 -0.08458153 -0.01106730 255 12 12
0.07595056 -0.08440880 -0.01341221 255 12 12
0.07847166 -0.08421771 -0.01646777 255 12 12
-0.02158254 -0.08486601 0.02251824 255 12 12
-0.01241493 -0.08445197 0.01473896 255 12 12
-0.01299259 -0.08439400 0.01423191 255 12 12
-0.01335208 -0.08433300 0.01362064 255 12 12
-0.01577898 -0.08425778 0.01348741 255 12 12
-0.01698785 -0.08422291 0.01345186 255 12 12
-0.02041966 -0.08419195 0.01415803 255 12 12
-0.02320151 -0.08415114 0.01454395 255 12 12
-0.02611923 -0.08413134 0.01522168 255 12 12
-0.02725603 -0.08411497 0.01538306 255 12 12
-0.02970154 -0.08409616 0.01592482 255 12 12
-0.02985528 -0.08404353 0.01534849 255 12 12
-0.03095144 -0.08403604 0.01560257 255 12 12
-0.03110547 -0.08398507 0.01504598 255 12 12
-0.03235832 -0.08392952 0.01477890 255 12 12
-0.03272589 -0.08388687 0.01438793 255 12 12
-0.03273197 -0.08382551 0.01366192 255 12 12
-0.03309754 -0.08378471 0.01329217 255 12 12
-0.03330102 -0.08373284 0.01274052 255 12 12
-0.03255472 -0.08363767 0.01137806 255 12 12
-0.03258872 -0.08357614 0.01065879 255 12 12
-0.03280437 -0.08352504 0.01012000 255 12 12
-0.03352871 -0.08350760 0.01013966 255 12 12
-0.03448482 -0.08349567 0.01029713 255 12 12
-0.03505352 -0.08346737 0.01013939 255 12 12
-0.03530289 -0.08341586 0.00960622 255 12 12
-0.03493288 -0.08331532 0.00829780 255 12 12
-0.03537401 -0.08327420 0.00794798 255 12 12
-0.03641861 -0.08328500 0.00840283 255 12 12
-0.04644176 -0.08386457 0.01841347 255 12 12
-0.04715963 -0.08388131 0.01883659 255 12 12
-0.04848490 -0.08360916 0.01602250 255 12 12
-0.04882065 -0.08358536 0.01584520 255 12 12
-0.04934662 -0.08357247 0.01585673 255 12 12
-0.04867277 -0.08331394 0.01257903 255 12 12
-0.04799268 -0.08294289 0.00796440 255 12 12
-0.04871554 -0.08296667 0.00847260 255 12 12
-0.04906331 -0.08281010 0.00672402 255 12 12
-0.04952353 -0.08278339 0.00655105 255 12 12
-0.04963874 -0.08268742 0.00544859 255 12 12
-0.04987103 -0.08260772 0.00457573 255 12 12
-0.05121394 -0.08264586 0.00544825 255 12 12
-0.05182472 -0.08265793 0.00578255 255 12 12
-0.05229665 -0.08263383 0.00564422 255 12 12
-0.05253934 -0.08255623 0.00479955 255 12 12
-0.05294934 -0.08251444 0.00443197 255 12 12
-0.05342756 -0.08249159 0.00431048 255 12 12
-0.05396501 -0.08248811 0.00443735 255 12 12
-0.05452961 -0.08248394 0.00456444 255 12 12
-0.05506823 -0.08248150 0.00470394 255 12 12
-0.05564000 -0.08249958 0.00509731 255 12 12
-0.05602951 -0.08244036 0.00451663 255 12 12
-0.05635769 -0.08236284 0.00369968 255 12 12
-0.05676574 -0.08230388 0.00312781 255 12 12
-0.05729631 -0.08230438 0.00329966 255 12 12
-0.05792204 -0.08236540 0.00421926 255 12 12
-0.05851482 -0.08240699 0.00489810 255 12 12
-0.05894323 -0.08234934 0.00434812 255 12 12
-0.05944629 -0.08235292 0.00454796 255 12 12
-0.05995434 -0.08235683 0.00475334 255 12 12
-0.06100152 -0.08249149 0.00667828 255 12 12
-0.06254531 -0.08305510 0.01384744 255 12 12
-0.06415013 -0.08345499 0.01909336 255 12 12
-0.06509702 -0.08368773 0.02215056 255 12 12
-0.06582034 -0.08352724 0.02047290 255 12 12
-0.06608802 -0.08352294 0.02050561 255 12 12
-0.06683394 -0.08340612 0.01935303 255 12 12
-0.06708737 -0.08342410 0.01964560 255 12 12
-0.06719147 -0.08350806 0.02067420 255 12 12
-0.06765015 -0.08365330 0.02254064 255 12 12
-0.06864934 -0.08347396 0.02072567 255 12 12
-0.06880320 -0.08351640 0.02127720 255 12 12
-0.06914381 -0.08349324 0.02110900 255 12 12
-0.07119870 -0.08351680 0.02203128 255 12 12
-0.07138012 -0.08354037 0.02236762 255 12 12
-0.07403260 -0.08320010 0.01916060 255 12 12
-0.07997211 -0.08232948 0.01068995 255 12 12
-0.08087547 -0.08225068 0.01003768 255 12 12
-0.08167010 -0.08219427 0.00961709 255 12 12
-0.08419705 -0.08191023 0.00703781 255 12 12
-0.08452388 -0.08194209 0.00751802 255 12 12
-0.08496259 -0.08195281 0.00778245 255 12 12
-0.08500883 -0.08202811 0.00869023 255 12 12
-0.08517131 -0.08208235 0.00938446 255 12 12
-0.08587262 -0.08205238 0.00924822 255 12 12
-0.08600846 -0.08210711 0.00994004 255 12 12
-0.08656965 -0.08209947 0.01002495 255 12 12
-0.08679703 -0.08221069 0.01141544 255 12 12
-0.08718765 -0.08222499 0.01170727 255 12 12
-0.08773653 -0.08221952 0.01181410 255 12 12
-0.08813072 -0.08223527 0.01212417 255 12 12
-0.08836277 -0.08227192 0.01263163 255 12 12
-0.08905950 -0.08224764 0.01256143 255 12 12
-0.08993312 -0.08220446 0.01232245 255 12 12
-0.09064298 -0.08218213 0.01227957 255 12 12
-0.09276572 -0.08206135 0.01151074 255 12 12
-0.09281914 -0.08212176 0.01224412 255 12 12
-0.09296640 -0.08215890 0.01273079 255 12 12
-0.09350843 -0.08216001 0.01291344 255 12 12
-0.09368562 -0.08220012 0.01344473 255 12 12
-0.09368219 -0.08226020 0.01415637 255 12 12
-0.09388758 -0.08230359 0.01473541 255 12 12
-0.09290090 -0.08251900 0.01698223 255 12 12
-0.09303391 -0.08256007 0.01751098 255 12 12
-0.09356095 -0.08256571 0.01774278 255 12 12
-0.09282395 -0.08274100 0.01959178 255 12 12
-0.09292320 -0.08278272 0.02011775 255 12 12
-0.09279672 -0.08284094 0.02076888 255 12 12
-0.09267102 -0.08289997 0.02142984 255 12 12
-0.09293807 -0.08292350 0.02179250 255 12 12
-0.09381277 -0.08289502 0.02172821 255 12 12
-0.09622056 -0.08279261 0.02126637 255 12 12
-0.09711743 -0.08276889 0.02126558 255 12 12
-0.09802527 -0.08274727 0.02129297 255 12 12
-0.09870709 -0.08274177 0.02144100 255 12 12
-0.09961623 -0.08272225 0.02149379 255 12 12
-0.10209800 -0.08263952 0.02128865 255 12 12
-0.10259696 -0.08265836 0.02166813 255 12 12
-0.10352739 -0.08264593 0.02181174 255 12 12
-0.10445451 -0.08263432 0.02196404 255 12 12
-0.10583608 -0.08259454 0.02192415 255 12 12
-0.10698295 -0.08256973 0.02198859 255 12 12
-0.10769408 -0.08257840 0.02231384 255 12 12
-0.10817665 -0.08260301 0.02275674 255 12 12
-0.10683287 -0.08279776 0.02464688 255 12 12
-0.10380032 -0.08308481 0.02710361 255 12 12
-0.10567469 -0.08322203 0.02931772 255 12 12
-0.10897618 -0.08325456 0.03073635 255 12 12
-0.09967861 -0.08383226 0.03468153 255 12 12
-0.09978218 -0.08386721 0.03512855 255 12 12
-0.09963785 -0.08391394 0.03563777 255 12 12
-0.10021990 -0.08392813 0.03598818 255 12 12
-0.10079876 -0.08394351 0.03635168 255 12 12
-0.09954436 -0.08410980 0.03793213 255 12 12
-0.10115287 -0.08412643 0.03863246 255 12 12
-0.10120773 -0.08416415 0.03909711 255 12 12
-0.60551001 -0.06791630 0.00408190 255 12 12
-0.60398880 -0.06855079 0.01113321 255 12 12
-0.59437366 -0.06940183 0.01822181 255 12 12
-0.58441666 -0.07024234 0.02507858 255 12 12
-0.57761970 -0.07097246 0.03161418 255 12 12
-0.57149068 -0.07167004 0.03797261 255 12 12
-0.56678267 -0.07231757 0.04418181 255 12 12
-0.56399795 -0.07290696 0.05030290 255 12 12
-0.56313734 -0.07344431 0.05640833 255 12 12
-0.56844557 -0.07383761 0.06273440 255 12 12
-0.57816590 -0.07414491 0.06942038 255 12 12
-0.58305720 -0.07457458 0.07604754 255 12 12
-0.58138204 -0.07514658 0.08230925 255 12 12
-0.57613309 -0.07579571 0.08836824 255 12 12
-0.56958372 -0.07644641 0.09403913 255 12 12
-0.56173055 -0.07710674 0.09941640 255 12 12
-0.55555815 -0.07772550 0.10482622 255 12 12
-0.55081397 -0.07831179 0.11029764 255 12 12
-0.54699840 -0.07887708 0.11581040 255 12 12
-0.54435448 -0.07942135 0.12144020 255 12 12
-0.54139868 -0.07996566 0.12697286 255 12 12
-0.54049330 -0.08052950 0.13337868 255 12 12
-0.54154006 -0.08104170 0.13978235 255 12 12
-0.54127840 -0.08156962 0.14596336 255 12 12
-0.54239872 -0.08208991 0.15248605 255 12 12
-0.54571148 -0.08256740 0.15918673 255 12 12
-0.54862303 -0.08308029 0.16618192 255 12 12
-0.55191767 -0.08360135 0.17339392 255 12 12
-0.55607038 -0.08413079 0.18097361 255 12 12
-0.56006992 -0.08468580 0.18880882 255 12 12
-0.56207850 -0.08524267 0.19604325 255 12 12
-0.56160208 -0.08580681 0.20258683 255 12 12
-0.56198813 -0.08637579 0.20945750 255 12 12
-0.56695605 -0.08697641 0.21813661 255 12 12
-0.60232143 -0.08833491 0.24531436 255 12 12
-0.59468173 -0.08892247 0.24989516 255 12 12
-0.06870162 -0.16911444 1.03671094 255 12 12
-0.05649115 -0.16918148 1.03368708 255 12 12
-0.04437433 -0.16914956 1.02951847 255 12 12
-0.03233499 -0.16916621 1.02595034 255 12 12
-0.02003546 -0.16932327 1.02396659 255 12 12
-0.00818825 -0.16924723 1.01935891 255 12 12
0.00353562 -0.16913508 1.01436145 255 12 12
0.01528637 -0.16915842 1.01096290 255 12 12
0.02725125 -0.16919433 1.00764653 255 12 12
0.03901431 -0.16931936 1.00545050 255 12 12
0.05067886 -0.16938810 1.00261753 255 12 12
0.06222491 -0.16940027 0.99915060 255 12 12
0.07358428 -0.16948224 0.99657003 255 12 12
0.08504515 -0.16948994 0.99307655 255 12 12
0.09614093 -0.16945951 0.98924505 255 12 12
0.10786816 -0.16963754 0.98768902 255 12 12
0.11969731 -0.16974002 0.98520484 255 12 12
0.13108298 -0.16976125 0.98189548 255 12 12
0.14278971 -0.16992297 0.98015235 255 12 12
0.15442692 -0.17005019 0.97802161 255 12 12
