ply
format ascii 1.0
element vertex 118
property float x
property float y
property float z
property uchar red
property uchar green
property uchar blue
end_header
0.10272429 -0.14271173 0.66987200 255 12 12
-0.07096384 -0.08360530 0.02300762 255 12 12
-0.07122354 -0.08360699 0.02310897 255 12 12
-0.07158258 -0.08358714 0.02298575 255 12 12
-0.07205572 -0.08354590 0.02264447 255 12 12
-0.07457579 -0.08313741 0.01858675 255 12 12
-0.08086676 -0.08227430 0.01031521 255 12 12
-0.08326369 -0.08201077 0.00793868 255 12 12
-0.08373567 -0.08202120 0.00821003 255 12 12
-0.08393694 -0.08207476 0.00890835 255 12 12
-0.08517421 -0.08213256 0.00998104 255 12 12
-0.08575878 -0.08212478 0.01007160 255 12 12
-0.08591636 -0.08218069 0.01078414 255 12 12
-0.08606762 -0.08223714 0.01150108 255 12 12
-0.08619506 -0.08229351 0.01220972 255 12 12
-0.08645862 -0.08232939 0.01271778 255 12 12
-0.08655908 -0.08238622 0.01342341 255 12 12
-0.08725346 -0.08236061 0.01333674 255 12 12
-0.08797033 -0.08233663 0.01327648 255 12 12
-0.08836236 -0.08235382 0.01360304 255 12 12
-0.08941327 -0.08229133 0.01319046 255 12 12
-0.09048803 -0.08223077 0.01280818 255 12 12
-0.09123196 -0.08221119 0.01280856 255 12 12
-0.09198074 -0.08219270 0.01282340 255 12 12
-0.09221303 -0.08223425 0.01338902 255 12 12
-0.09238712 -0.08227337 0.01390758 255 12 12
-0.09330490 -0.08223746 0.01376858 255 12 12
-0.09205397 -0.08249429 0.01642409 255 12 12
-0.09161056 -0.08271586 0.01891399 255 12 12
-0.09193492 -0.08273944 0.01929522 255 12 12
-0.09206692 -0.08278236 0.01984562 255 12 12
-0.09198719 -0.08284313 0.02054160 255 12 12
-0.09169617 -0.08292172 0.02138295 255 12 12
-0.09138782 -0.08299977 0.02221236 255 12 12
-0.09165097 -0.08302272 0.02256698 255 12 12
-0.09273538 -0.08297708 0.02236470 255 12 12
-0.09403543 -0.08291594 0.02204601 255 12 12
-0.09514143 -0.08287417 0.02189638 255 12 12
-0.09825447 -0.08273243 0.02118859 255 12 12
-0.09812214 -0.08279740 0.02191803 255 12 12
-0.10220007 -0.08265202 0.02146884 255 12 12
-0.10292256 -0.08265605 0.02174261 255 12 12
-0.10320256 -0.08269256 0.02226329 255 12 12
-0.10352057 -0.08273576 0.02287528 255 12 12
-0.10424507 -0.08274460 0.02320681 255 12 12
-0.10519370 -0.08273991 0.02344787 255 12 12
-0.10568893 -0.08276646 0.02391766 255 12 12
-0.10523432 -0.08284687 0.02472944 255 12 12
-0.10502042 -0.08291633 0.02548650 255 12 12
-0.10455810 -0.08299858 0.02631769 255 12 12
-0.09676476 -0.08360393 0.03106144 255 12 12
-0.10691590 -0.08324000 0.02991919 255 12 12
-0.10756790 -0.08325927 0.03035173 255 12 12
-0.10404354 -0.08354035 0.03258384 255 12 12
-0.09736665 -0.08398507 0.03577129 255 12 12
-0.09819284 -0.08398665 0.03604842 255 12 12
-0.09828526 -0.08402276 0.03650574 255 12 12
-0.09861758 -0.08404895 0.03692035 255 12 12
-0.09860144 -0.08417359 0.03839390 255 12 12
-0.10324752 -0.08413431 0.03938112 255 12 12
-0.69485712 -0.06516234 -0.00064285 255 12 12
-0.69266326 -0.06594280 0.00792971 255 12 12
-0.69010306 -0.06672818 0.01644613 255 12 12
-0.68717753 -0.06751750 0.02489486 255 12 12
-0.68488744 -0.06828203 0.03324830 255 12 12
-0.45955748 -0.07540015 0.04721305 255 12 12
-0.45848109 -0.07587154 0.05246852 255 12 12
-0.46008583 -0.07626925 0.05768863 255 12 12
-0.46236472 -0.07666510 0.06309743 255 12 12
-0.46282301 -0.07710496 0.06845898 255 12 12
-0.46320872 -0.07754804 0.07383595 255 12 12
-0.46353111 -0.07798484 0.07911858 255 12 12
-0.46029114 -0.07849562 0.08416462 255 12 12
-0.45574623 -0.07902185 0.08898583 255 12 12
-0.45387012 -0.07949800 0.09404771 255 12 12
-0.48514931 -0.08054874 0.11629632 255 12 12
-0.48901630 -0.08101673 0.12305773 255 12 12
-0.48566913 -0.08156420 0.12850556 255 12 12
-0.47980911 -0.08212683 0.13334728 255 12 12
-0.49079551 -0.08298578 0.14697348 255 12 12
-0.48598939 -0.08351818 0.15178613 255 12 12
-0.47992443 -0.08404696 0.15616221 255 12 12
-0.47330550 -0.08457619 0.16037029 255 12 12
-0.46811907 -0.08508136 0.16474097 255 12 12
-0.46217360 -0.08557768 0.16876924 255 12 12
-0.45595540 -0.08606307 0.17258262 255 12 12
-0.45277972 -0.08654533 0.17731042 255 12 12
-0.45260622 -0.08703582 0.18307495 255 12 12
-0.45024016 -0.08751924 0.18806978 255 12 12
-0.44711081 -0.08799661 0.19275412 255 12 12
-0.44735849 -0.08850750 0.19889236 255 12 12
-0.44686196 -0.08900756 0.20466935 255 12 12
-0.44559150 -0.08950392 0.21016040 255 12 12
-0.46348541 -0.09080651 0.23121019 255 12 12
-0.46448598 -0.09138422 0.23837660 255 12 12
-0.46095286 -0.09188810 0.24324912 255 12 12
-0.45619602 -0.09237964 0.24759255 255 12 12
-0.46649894 -0.09373817 0.26693152 255 12 12
-0.46607961 -0.09432536 0.27376636 255 12 12
-0.46290101 -0.09486834 0.27921363 255 12 12
-0.47177289 -0.09631997 0.29920951 255 12 12
-0.11251480 -0.16799229 1.03710267 255 12 12
-0.07798710 -0.14050988 0.70027406 255 12 12
-0.06900542 -0.14081980 0.70114137 255 12 12
-0.06001433 -0.14090968 0.69939540 255 12 12
-0.05105768 -0.14105138 0.69827495 255 12 12
-0.04234126 -0.14109309 0.69604349 255 12 12
-0.03350400 -0.14112761 0.69368884 255 12 12
-0.02451976 -0.14119703 0.69170226 255 12 12
-0.01574327 -0.14127267 0.68985453 255 12 12
-0.00698795 -0.14135876 0.68813727 255 12 12
0.00180482 -0.14149859 0.68704595 255 12 12
0.03600064 -0.14710070 0.74280907 255 12 12
0.04548689 -0.14718841 0.74088238 255 12 12
0.05557497 -0.14720814 0.73796108 255 12 12
0.06512385 -0.14725170 0.73549118 255 12 12
0.07434115 -0.14723757 0.73244060 255 12 12
0.08311363 -0.14697228 0.72654956 255 12 12
