ply
format ascii 1.0
element vertex 187
property float x
property float y
property float z
property uchar red
property uchar green
property uchar blue
end_header
-0.03027461 -0.09985042 0.20299975 255 12 12
-0.05263414 -0.08272609 0.00684430 255 12 12
-0.05303618 -0.08268419 0.00647296 255 12 12
-0.05358284 -0.08267927 0.00658560 255 12 12
-0.05416511 -0.08269489 0.00695296 255 12 12
-0.05589151 -0.08253165 0.00555649 255 12 12
-0.05638673 -0.08251092 0.00546536 255 12 12
-0.05675994 -0.08243178 0.00464324 255 12 12
-0.05734276 -0.08245122 0.00505621 255 12 12
-0.05797903 -0.08249042 0.00572026 255 12 12
-0.05851334 -0.08249168 0.00590234 255 12 12
-0.05905953 -0.08251423 0.00634064 255 12 12
-0.06029758 -0.08274582 0.00947530 255 12 12
-0.06305100 -0.08369226 0.02156433 255 12 12
-0.06333561 -0.08368480 0.02156479 255 12 12
-0.06360372 -0.08369905 0.02181778 255 12 12
-0.06451300 -0.08357310 0.02060798 255 12 12
-0.06533691 -0.08362006 0.02142281 255 12 12
-0.06556832 -0.08365825 0.02194821 255 12 12
-0.06622859 -0.08358436 0.02127817 255 12 12
-0.06712780 -0.08340232 0.01939985 255 12 12
-0.06766928 -0.08356732 0.02152662 255 12 12
-0.06902460 -0.08358067 0.02210891 255 12 12
-0.06915192 -0.08362397 0.02266239 255 12 12
-0.07058029 -0.08360337 0.02286486 255 12 12
-0.07075957 -0.08362660 0.02319645 255 12 12
-0.07118978 -0.08365199 0.02363221 255 12 12
-0.07154372 -0.08363229 0.02350923 255 12 12
-0.07516770 -0.08305238 0.01776323 255 12 12
-0.07970850 -0.08239583 0.01139463 255 12 12
-0.08332244 -0.08206043 0.00854612 255 12 12
-0.08408010 -0.08202926 0.00841338 255 12 12
-0.08410542 -0.08217767 0.01018189 255 12 12
-0.08468321 -0.08216864 0.01025544 255 12 12
-0.08540149 -0.08213926 0.01013160 255 12 12
-0.08581697 -0.08215200 0.01041266 255 12 12
-0.08595872 -0.08220772 0.01111801 255 12 12
-0.08579255 -0.08230534 0.01222410 255 12 12
-0.08604922 -0.08234052 0.01272181 255 12 12
-0.08647347 -0.08235636 0.01304238 255 12 12
-0.08672214 -0.08239269 0.01355118 255 12 12
-0.08726789 -0.08238816 0.01366815 255 12 12
-0.08814237 -0.08234408 0.01341872 255 12 12
-0.08887358 -0.08232183 0.01338341 255 12 12
-0.08976716 -0.08228016 0.01316856 255 12 12
-0.09067105 -0.08223978 0.01297228 255 12 12
-0.09107511 -0.08226027 0.01334170 255 12 12
-0.09144991 -0.08228003 0.01369336 255 12 12
-0.09201084 -0.08228159 0.01388739 255 12 12
-0.09274841 -0.08226451 0.01391543 255 12 12
-0.09331096 -0.08226785 0.01413100 255 12 12
-0.09223712 -0.08250607 0.01662116 255 12 12
-0.09221310 -0.08256688 0.01733508 255 12 12
-0.09217537 -0.08262761 0.01804372 255 12 12
-0.09174357 -0.08272543 0.01906908 255 12 12
-0.09109756 -0.08284093 0.02023730 255 12 12
-0.09062030 -0.08293705 0.02122823 255 12 12
-0.09071129 -0.08297795 0.02174198 255 12 12
-0.09081079 -0.08302042 0.02227682 255 12 12
-0.09109012 -0.08304425 0.02264700 255 12 12
-0.09176399 -0.08303283 0.02272219 255 12 12
-0.09203729 -0.08305789 0.02310500 255 12 12
-0.09639145 -0.08284821 0.02197945 255 12 12
-0.09688625 -0.08286153 0.02229226 255 12 12
-0.09957305 -0.08275831 0.02190809 255 12 12
-0.10071840 -0.08272671 0.02189149 255 12 12
-0.10121502 -0.08274492 0.02226285 255 12 12
-0.10172526 -0.08276621 0.02267495 255 12 12
-0.10244193 -0.08277145 0.02296135 255 12 12
-0.10337545 -0.08276196 0.02314067 255 12 12
-0.10476567 -0.08272481 0.02313479 255 12 12
-0.10526954 -0.08275141 0.02360797 255 12 12
-0.10507507 -0.08282124 0.02437559 255 12 12
-0.10486760 -0.08289068 0.02513444 255 12 12
-0.10487755 -0.08294550 0.02578791 255 12 12
-0.10698144 -0.08325633 0.03013337 255 12 12
-0.10739464 -0.08328895 0.03064959 255 12 12
-0.09705367 -0.08397219 0.03552052 255 12 12
-0.09642239 -0.08404013 0.03612907 255 12 12
-0.09627077 -0.08408562 0.03662135 255 12 12
-0.09731682 -0.08419435 0.03823838 255 12 12
-0.09992385 -0.08417909 0.03887278 255 12 12
-0.10301559 -0.08415704 0.03957821 255 12 12
-0.69928816 -0.06525390 0.00182936 255 12 12
-0.69681068 -0.06604687 0.01046161 255 12 12
-0.69421573 -0.06683671 0.01901994 255 12 12
-0.69225431 -0.06760190 0.02748399 255 12 12
-0.46054102 -0.07551163 0.04884323 255 12 12
-0.45994249 -0.07597232 0.05412124 255 12 12
-0.46152518 -0.07637281 0.05936736 255 12 12
-0.46303223 -0.07678807 0.06476500 255 12 12
-0.46397381 -0.07720982 0.07006288 255 12 12
-0.46259369 -0.07768917 0.07531775 255 12 12
-0.45965114 -0.07819519 0.08040037 255 12 12
-0.45515267 -0.07872261 0.08525023 255 12 12
-0.45110431 -0.07922476 0.08994116 255 12 12
-0.45590580 -0.07959476 0.09583232 255 12 12
-0.48157117 -0.08027552 0.11193597 255 12 12
-0.49141332 -0.08066709 0.11965967 255 12 12
-0.49154616 -0.08118312 0.12582294 255 12 12
-0.48590323 -0.08167290 0.12986826 255 12 12
-0.49903770 -0.08257852 0.14472003 255 12 12
-0.49303988 -0.08312899 0.14937443 255 12 12
-0.48796312 -0.08366454 0.15413973 255 12 12
-0.48114850 -0.08419692 0.15832403 255 12 12
-0.47453821 -0.08471615 0.16241619 255 12 12
-0.46908923 -0.08522232 0.16671663 255 12 12
-0.46216964 -0.08571841 0.17043751 255 12 12
-0.45664622 -0.08620402 0.17447080 255 12 12
-0.45651610 -0.08669642 0.18027148 255 12 12
-0.45653538 -0.08719372 0.18617707 255 12 12
-0.45474889 -0.08770640 0.19170034 255 12 12
-0.45385619 -0.08821567 0.19746272 255 12 12
-0.45338447 -0.08872117 0.20331194 255 12 12
-0.45209027 -0.08923370 0.20898742 255 12 12
-0.46876881 -0.09045887 0.22873858 255 12 12
-0.47055053 -0.09103676 0.23615143 255 12 12
-0.46614437 -0.09153418 0.24067427 255 12 12
-0.46052309 -0.09206403 0.24520179 255 12 12
-0.46282482 -0.09268190 0.25325167 255 12 12
-0.46871376 -0.09338448 0.26342843 255 12 12
-0.46829267 -0.09398154 0.27037980 255 12 12
-0.46498065 -0.09447274 0.27517100 255 12 12
-0.48037532 -0.09608441 0.29910574 255 12 12
-0.16239661 -0.09375421 0.17200446 255 12 12
-0.16126338 -0.09396153 0.17410956 255 12 12
-0.15829138 -0.09401478 0.17381167 255 12 12
-0.15545247 -0.09405347 0.17338269 255 12 12
-0.15242777 -0.09407953 0.17274579 255 12 12
-0.14985323 -0.09414138 0.17267421 255 12 12
-0.14729654 -0.09419894 0.17255740 255 12 12
-0.14425332 -0.09421774 0.17182860 255 12 12
-0.14144780 -0.09423964 0.17121084 255 12 12
-0.13883638 -0.09426840 0.17073528 255 12 12
-0.13646574 -0.09432505 0.17066577 255 12 12
-0.13390288 -0.09434498 0.17010057 255 12 12
-0.13157072 -0.09439359 0.16994781 255 12 12
-0.12940595 -0.09445158 0.16995872 255 12 12
-0.12721843 -0.09450870 0.16995208 255 12 12
-0.12464613 -0.09451905 0.16927037 255 12 12
-0.12217458 -0.09452011 0.16850989 255 12 12
-0.11994155 -0.09454952 0.16816027 255 12 12
-0.11762897 -0.09455862 0.16754496 255 12 12
-0.11573641 -0.09460787 0.16753725 255 12 12
-0.11359696 -0.09462464 0.16706703 255 12 12
-0.11175219 -0.09468946 0.16725900 255 12 12
-0.10947224 -0.09466510 0.16625684 255 12 12
-0.10712775 -0.09464222 0.16525208 255 12 12
-0.10521226 -0.09468215 0.16512672 255 12 12
-0.10326348 -0.09469963 0.16472447 255 12 12
-0.10137467 -0.09473391 0.16454039 255 12 12
-0.09971302 -0.09482019 0.16504422 255 12 12
-0.09790796 -0.09486792 0.16504584 255 12 12
-0.09568721 -0.09478163 0.16332762 255 12 12
-0.09348635 -0.09469240 0.16158064 255 12 12
-0.09178103 -0.09472932 0.16148527 255 12 12
-0.09010653 -0.09478449 0.16161600 255 12 12
-0.08851806 -0.09485539 0.16196023 255 12 12
-0.08679523 -0.09488737 0.16180071 255 12 12
-0.08511376 -0.09491568 0.16161066 255 12 12
-0.08345120 -0.09496268 0.16164817 255 12 12
-0.08166916 -0.09492744 0.16067277 255 12 12
-0.08002631 -0.09496989 0.16066255 255 12 12
-0.07844788 -0.09515628 0.16238002 255 12 12
-0.07706628 -0.09541795 0.16505203 255 12 12
-0.07048933 -0.09889705 0.20426814 255 12 12
-0.06834900 -0.09912808 0.20633938 255 12 12
-0.06614434 -0.09931638 0.20788372 255 12 12
-0.06390343 -0.09960811 0.21064365 255 12 12
-0.06161113 -0.09968861 0.21088161 255 12 12
-0.05933543 -0.09968206 0.21009217 255 12 12
-0.05708073 -0.09977746 0.21051864 255 12 12
-0.05478042 -0.09985032 0.21066356 255 12 12
-0.05252071 -0.09991972 0.21078000 255 12 12
-0.05021038 -0.09998758 0.21086247 255 12 12
-0.04794065 -0.09996771 0.20991682 255 12 12
-0.04571388 -0.09996544 0.20919342 255 12 12
-0.04359241 -0.09989538 0.20769868 255 12 12
-0.04134404 -0.09993048 0.20741184 255 12 12
-0.03901857 -0.09998525 0.20733421 255 12 12
-0.03697391 -0.09990612 0.20575592 255 12 12
-0.03492471 -0.09984569 0.20439817 255 12 12
-0.03290763 -0.09978230 0.20301520 255 12 12
-0.03092297 -0.09971598 0.20160763 255 12 12
-0.02870563 -0.09975632 0.20139266 255 12 12
-0.02637524 -0.09983793 0.20163196 255 12 12
-0.02397207 -0.09993897 0.20207893 255 12 12
