ply
format ascii 1.0
element vertex 168
property float x
property float y
property float z
property uchar red
property uchar green
property uchar blue
end_header
0.15840369 -0.17003289 0.97657251 255 12 12
-0.03282089 -0.08403079 0.01612496 255 12 12
-0.03317864 -0.08398820 0.01573160 255 12 12
-0.03318525 -0.08392573 0.01499255 255 12 12
-0.03355004 -0.08388404 0.01461212 255 12 12
-0.03375016 -0.08383160 0.01405263 255 12 12
-0.03325942 -0.08373736 0.01278111 255 12 12
-0.03296994 -0.08365153 0.01167237 255 12 12
-0.03357390 -0.08361669 0.01144799 255 12 12
-0.03416965 -0.08358362 0.01124202 255 12 12
-0.03409523 -0.08350664 0.01030548 255 12 12
-0.03421264 -0.08343928 0.00954305 255 12 12
-0.03463814 -0.08339780 0.00918409 255 12 12
-0.03477098 -0.08333060 0.00842848 255 12 12
-0.03522968 -0.08328757 0.00806144 255 12 12
-0.03813284 -0.08336804 0.00992411 255 12 12
-0.04942187 -0.08404930 0.02153705 255 12 12
-0.05008174 -0.08390102 0.01998432 255 12 12
-0.04966808 -0.08369182 0.01737318 255 12 12
-0.04911167 -0.08344779 0.01430414 255 12 12
-0.04869531 -0.08321986 0.01147000 255 12 12
-0.04902141 -0.08317605 0.01105223 255 12 12
-0.04906355 -0.08308193 0.00994882 255 12 12
-0.04932172 -0.08302066 0.00930270 255 12 12
-0.04969639 -0.08286312 0.00755102 255 12 12
-0.04999054 -0.08266777 0.00532559 255 12 12
-0.05075674 -0.08269236 0.00585696 255 12 12
-0.05125857 -0.08266553 0.00569558 255 12 12
-0.05169010 -0.08262100 0.00530231 255 12 12
-0.05322866 -0.08271826 0.00693735 255 12 12
-0.05384156 -0.08273193 0.00729126 255 12 12
-0.05425443 -0.08269069 0.00693114 255 12 12
-0.05457236 -0.08261122 0.00608780 255 12 12
-0.05515440 -0.08260653 0.00621423 255 12 12
-0.05576061 -0.08262289 0.00659787 255 12 12
-0.05611312 -0.08254367 0.00576837 255 12 12
-0.05658308 -0.08250285 0.00543108 255 12 12
-0.05716282 -0.08247954 0.00533594 255 12 12
-0.05758460 -0.08239940 0.00451711 255 12 12
-0.05812520 -0.08237899 0.00444411 255 12 12
-0.05872461 -0.08239940 0.00487363 255 12 12
-0.05994073 -0.08258917 0.00750528 255 12 12
-0.06040056 -0.08255279 0.00721762 255 12 12
-0.06089959 -0.08255781 0.00743317 255 12 12
-0.06356406 -0.08380504 0.02306276 255 12 12
-0.06414378 -0.08372836 0.02233441 255 12 12
-0.06436942 -0.08378650 0.02309472 255 12 12
-0.06668697 -0.08368444 0.02260876 255 12 12
-0.06696892 -0.08368120 0.02265861 255 12 12
-0.06775004 -0.08369552 0.02307275 255 12 12
-0.06882685 -0.08360310 0.02231316 255 12 12
-0.06904483 -0.08362421 0.02263172 255 12 12
-0.06990499 -0.08369016 0.02368318 255 12 12
-0.06999900 -0.08373493 0.02424371 255 12 12
-0.07025320 -0.08373604 0.02433644 255 12 12
-0.07932358 -0.08238946 0.01119870 255 12 12
-0.08033561 -0.08228845 0.01031700 255 12 12
-0.08155950 -0.08219210 0.00955679 255 12 12
-0.08255464 -0.08211628 0.00896853 255 12 12
-0.08343637 -0.08206299 0.00861218 255 12 12
-0.08421351 -0.08203249 0.00849337 255 12 12
-0.08458351 -0.08204174 0.00871886 255 12 12
-0.08466143 -0.08211813 0.00964939 255 12 12
-0.08484560 -0.08217328 0.01036128 255 12 12
-0.08530286 -0.08218686 0.01066546 255 12 12
-0.08588968 -0.08217983 0.01076558 255 12 12
-0.08590473 -0.08225743 0.01169084 255 12 12
-0.08574178 -0.08235557 0.01280410 255 12 12
-0.08646698 -0.08232970 0.01272412 255 12 12
-0.08686635 -0.08234505 0.01303112 255 12 12
-0.08696542 -0.08240257 0.01374448 255 12 12
-0.08768526 -0.08237877 0.01368727 255 12 12
-0.08857263 -0.08233575 0.01345451 255 12 12
-0.08949554 -0.08229519 0.01326199 255 12 12
-0.09041275 -0.08225526 0.01307514 255 12 12
-0.09133191 -0.08221629 0.01290037 255 12 12
-0.09192529 -0.08221864 0.01311377 255 12 12
-0.09231923 -0.08224013 0.01349194 255 12 12
-0.09290103 -0.08224364 0.01371557 255 12 12
-0.09366127 -0.08222871 0.01377620 255 12 12
-0.09369934 -0.08229170 0.01453544 255 12 12
-0.09319344 -0.08241330 0.01581970 255 12 12
-0.09320139 -0.08247635 0.01657018 255 12 12
-0.09299860 -0.08255758 0.01747039 255 12 12
-0.09278367 -0.08263891 0.01836803 255 12 12
-0.09168596 -0.08285295 0.02056391 255 12 12
-0.09179714 -0.08289575 0.02110641 255 12 12
-0.09249657 -0.08288502 0.02119787 255 12 12
-0.09261259 -0.08293018 0.02176989 255 12 12
-0.09250327 -0.08299197 0.02246875 255 12 12
-0.09493406 -0.08289131 0.02203496 255 12 12
-0.09781425 -0.08276404 0.02142596 255 12 12
-0.09789760 -0.08281269 0.02202913 255 12 12
-0.10043143 -0.08273442 0.02189318 255 12 12
-0.10094491 -0.08275441 0.02229089 255 12 12
-0.10394719 -0.08265669 0.02207073 255 12 12
-0.10538390 -0.08262430 0.02213584 255 12 12
-0.10680483 -0.08259161 0.02219242 255 12 12
-0.10710119 -0.08263598 0.02281147 255 12 12
-0.10738873 -0.08268092 0.02343462 255 12 12
-0.10443606 -0.08297718 0.02602559 255 12 12
-0.09809889 -0.08350887 0.03035100 255 12 12
-0.10855342 -0.08314452 0.02929870 255 12 12
-0.10826555 -0.08321706 0.03006922 255 12 12
-0.10700248 -0.08333690 0.03109584 255 12 12
-0.09895379 -0.08386743 0.03487209 255 12 12
-0.09696954 -0.08404009 0.03629978 255 12 12
-0.09912350 -0.08403480 0.03691074 255 12 12
-0.09730985 -0.08419062 0.03819201 255 12 12
-0.10091870 -0.08414465 0.03877533 255 12 12
-0.10147547 -0.08416972 0.03924690 255 12 12
-0.10202729 -0.08419703 0.03974357 255 12 12
-0.10256752 -0.08422049 0.04019081 255 12 12
-0.58106522 -0.06967468 0.01729604 255 12 12
-0.57789139 -0.07036269 0.02446524 255 12 12
-0.60199425 -0.07096264 0.03912148 255 12 12
-0.60051669 -0.07163048 0.04658207 255 12 12
-0.57102790 -0.07356822 0.06034635 255 12 12
-0.56151846 -0.07437516 0.06694481 255 12 12
-0.55467649 -0.07509275 0.07331771 255 12 12
-0.54923945 -0.07577854 0.07975277 255 12 12
-0.54569881 -0.07642810 0.08635115 255 12 12
-0.54282773 -0.07704768 0.09280335 255 12 12
-0.54086325 -0.07764715 0.09930049 255 12 12
-0.54004956 -0.07822619 0.10591527 255 12 12
-0.53920246 -0.07891718 0.11384770 255 12 12
-0.54009693 -0.07950891 0.12114723 255 12 12
-0.54237825 -0.08007877 0.12862110 255 12 12
-0.54328953 -0.08068263 0.13606986 255 12 12
-0.54533344 -0.08116722 0.14245789 255 12 12
-0.54855596 -0.08173073 0.15015095 255 12 12
-0.55189975 -0.08230496 0.15800903 255 12 12
-0.55657277 -0.08288426 0.16634294 255 12 12
-0.55913767 -0.08350014 0.17445151 255 12 12
-0.55847812 -0.08412402 0.18164648 255 12 12
-0.56586731 -0.08473864 0.19124899 255 12 12
-0.57188890 -0.08537759 0.20071236 255 12 12
-0.56485853 -0.08603698 0.20633593 255 12 12
-0.55829008 -0.08667237 0.21181920 255 12 12
-0.52162334 -0.14514358 0.89400542 255 12 12
-0.50822134 -0.14582848 0.89793855 255 12 12
-0.49372605 -0.14664010 0.90303309 255 12 12
-0.48187924 -0.14757902 0.91046628 255 12 12
-0.46885394 -0.14834464 0.91547494 255 12 12
-0.45536245 -0.14902941 0.91937858 255 12 12
-0.44434136 -0.14995325 0.92689113 255 12 12
-0.43193545 -0.15076349 0.93262276 255 12 12
-0.41870437 -0.15142459 0.93632708 255 12 12
-0.40588601 -0.15215656 0.94100126 255 12 12
-0.39335759 -0.15301119 0.94722126 255 12 12
-0.38170818 -0.15399934 0.95530020 255 12 12
-0.08234291 -0.16897418 1.03931378 255 12 12
-0.06842852 -0.16910071 1.03646268 255 12 12
-0.05434351 -0.16904729 1.03142342 255 12 12
-0.04036736 -0.16910033 1.02768124 255 12 12
-0.02645773 -0.16921908 1.02473929 255 12 12
-0.01218191 -0.16918187 1.01983268 255 12 12
0.00172526 -0.16916110 1.01523637 255 12 12
0.01530651 -0.16917988 1.01121116 255 12 12
0.02912211 -0.16924956 1.00771651 255 12 12
0.04264530 -0.16933928 1.00455119 255 12 12
0.05623664 -0.16932886 1.00017644 255 12 12
0.06956663 -0.16936101 0.99638844 255 12 12
0.08311144 -0.16940068 0.99262250 255 12 12
0.09777769 -0.16952175 0.98947150 255 12 12
0.11156244 -0.16959219 0.98599551 255 12 12
0.12517013 -0.16970730 0.98310480 255 12 12
0.13909288 -0.16985064 0.98045054 255 12 12
