ply
format ascii 1.0
element vertex 136
property float x
property float y
property float z
property uchar red
property uchar green
property uchar blue
end_header
0.11694444 -0.14767696 0.72432765 255 12 12
-0.06573646 -0.08354978 0.02071396 255 12 12
-0.06608499 -0.08373485 0.02301858 255 12 12
-0.06743564 -0.08374096 0.02351344 255 12 12
-0.06793297 -0.08365115 0.02260359 255 12 12
-0.06845650 -0.08356151 0.02170396 255 12 12
-0.06876834 -0.08355991 0.02178253 255 12 12
-0.06957249 -0.08366754 0.02331089 255 12 12
-0.07000827 -0.08362390 0.02292941 255 12 12
-0.07020331 -0.08364657 0.02325939 255 12 12
-0.07039599 -0.08366959 0.02359280 255 12 12
-0.07059661 -0.08369304 0.02393368 255 12 12
-0.07152028 -0.08360933 0.02322949 255 12 12
-0.07170550 -0.08363384 0.02357824 255 12 12
-0.07953526 -0.08246379 0.01214671 255 12 12
-0.08231899 -0.08215950 0.00940752 255 12 12
-0.08474989 -0.08192305 0.00736278 255 12 12
-0.08486495 -0.08199961 0.00830713 255 12 12
-0.08455476 -0.08214010 0.00987677 255 12 12
-0.08502786 -0.08215344 0.01018293 255 12 12
-0.08548760 -0.08216717 0.01048967 255 12 12
-0.08552276 -0.08224473 0.01142079 255 12 12
-0.08567341 -0.08230123 0.01213811 255 12 12
-0.08596552 -0.08233749 0.01265964 255 12 12
-0.08627205 -0.08237512 0.01320196 255 12 12
-0.08670587 -0.08239204 0.01353836 255 12 12
-0.08728410 -0.08238884 0.01368127 255 12 12
-0.08803121 -0.08236654 0.01365042 255 12 12
-0.08877612 -0.08234502 0.01362804 255 12 12
-0.09079526 -0.08224599 0.01308480 255 12 12
-0.09140133 -0.08224857 0.01330498 255 12 12
-0.09214749 -0.08223066 0.01332586 255 12 12
-0.09239517 -0.08227383 0.01391553 255 12 12
-0.09280234 -0.08229752 0.01432392 255 12 12
-0.09250832 -0.08246176 0.01618032 255 12 12
-0.09194604 -0.08264349 0.01816031 255 12 12
-0.09170035 -0.08278754 0.01979246 255 12 12
-0.09164237 -0.08284953 0.02050966 255 12 12
-0.09176675 -0.08289327 0.02106750 255 12 12
-0.09137585 -0.08303392 0.02261374 255 12 12
-0.09207387 -0.08302496 0.02272575 255 12 12
-0.09317932 -0.08298202 0.02256212 255 12 12
-0.09471513 -0.08290732 0.02215638 255 12 12
-0.09607080 -0.08285365 0.02194372 255 12 12
-0.09700516 -0.08283487 0.02201312 255 12 12
-0.09815721 -0.08280129 0.02197508 255 12 12
-0.09953199 -0.08275355 0.02183883 255 12 12
-0.10070667 -0.08272530 0.02187108 255 12 12
-0.10144504 -0.08273045 0.02216312 255 12 12
-0.10196239 -0.08275272 0.02258909 255 12 12
-0.10247531 -0.08277598 0.02302545 255 12 12
-0.10508979 -0.08272438 0.02323104 255 12 12
-0.10614906 -0.08284152 0.02495209 255 12 12
-0.10177963 -0.08322217 0.02810111 255 12 12
-0.09655332 -0.08362203 0.03121007 255 12 12
-0.10680434 -0.08321291 0.02956294 255 12 12
-0.10772467 -0.08322577 0.03000330 255 12 12
-0.10615890 -0.08341803 0.03179436 255 12 12
-0.09710618 -0.08399022 0.03575084 255 12 12
-0.09862629 -0.08405278 0.03696851 255 12 12
-0.09960793 -0.08414564 0.03837717 255 12 12
-0.10122918 -0.08418014 0.03929348 255 12 12
-0.69150494 -0.06651303 0.01433220 255 12 12
-0.45374592 -0.07464453 0.03643120 255 12 12
-0.45281667 -0.07514364 0.04206163 255 12 12
-0.45330529 -0.07560440 0.04768059 255 12 12
-0.45321510 -0.07607154 0.05319411 255 12 12
-0.45129434 -0.07658982 0.05874175 255 12 12
-0.44955496 -0.07708223 0.06403934 255 12 12
-0.44574112 -0.07762288 0.06926020 255 12 12
-0.44160779 -0.07816146 0.07435665 255 12 12
-0.44064132 -0.07863342 0.07965330 255 12 12
-0.44207347 -0.07907221 0.08530671 255 12 12
-0.47826557 -0.07996604 0.10723056 255 12 12
-0.49366290 -0.08097785 0.12404982 255 12 12
-0.51597586 -0.08193042 0.14232948 255 12 12
-0.51224228 -0.08246787 0.14753753 255 12 12
-0.50147585 -0.08310346 0.15171017 255 12 12
-0.49334311 -0.08370425 0.15629364 255 12 12
-0.48781917 -0.08428056 0.16140277 255 12 12
-0.48083153 -0.08483882 0.16583989 255 12 12
-0.47448570 -0.08539359 0.17043640 255 12 12
-0.46955674 -0.08592754 0.17522908 255 12 12
-0.46264421 -0.08645900 0.17937173 255 12 12
-0.45875784 -0.08698831 0.18443547 255 12 12
-0.45715034 -0.08752418 0.19028975 255 12 12
-0.45456526 -0.08804479 0.19565736 255 12 12
-0.45279017 -0.08858098 0.20146299 255 12 12
-0.45226489 -0.08914071 0.20793894 255 12 12
-0.45213647 -0.08969962 0.21452922 255 12 12
-0.45508000 -0.09030286 0.22260617 255 12 12
-0.46283676 -0.09098825 0.23316334 255 12 12
-0.46606080 -0.09169341 0.24253717 255 12 12
-0.46219643 -0.09225292 0.24796600 255 12 12
-0.45605196 -0.09276767 0.25215067 255 12 12
-0.46571238 -0.09421954 0.27239612 255 12 12
-0.46509641 -0.09487009 0.27992101 255 12 12
-0.46313020 -0.09548393 0.28658822 255 12 12
-0.47466668 -0.09715214 0.30998680 255 12 12
-0.27307891 -0.12584024 0.58726638 255 12 12
-0.26653712 -0.12668938 0.59529376 255 12 12
-0.25853174 -0.12718514 0.59867106 255 12 12
-0.25046421 -0.12762866 0.60140932 255 12 12
-0.24212842 -0.12805348 0.60384177 255 12 12
-0.23368855 -0.12845050 0.60591182 255 12 12
-0.22522580 -0.12883748 0.60785563 255 12 12
-0.21683165 -0.12918822 0.60939097 255 12 12
-0.20839459 -0.12957366 0.61132462 255 12 12
-0.20020545 -0.12997979 0.61358122 255 12 12
-0.19182411 -0.13038401 0.61575497 255 12 12
-0.18361593 -0.13079116 0.61801777 255 12 12
-0.17521067 -0.13119618 0.62019353 255 12 12
-0.16551439 -0.13172862 0.62347721 255 12 12
-0.15819724 -0.13287516 0.63479011 255 12 12
-0.12653194 -0.14540708 0.77355437 255 12 12
-0.11641683 -0.14653950 0.78382465 255 12 12
-0.10487424 -0.14631468 0.77754728 255 12 12
-0.09365788 -0.14591884 0.76934308 255 12 12
-0.08282753 -0.14591854 0.76595206 255 12 12
-0.07211254 -0.14596476 0.76314890 255 12 12
-0.06148871 -0.14582735 0.75819581 255 12 12
-0.05098252 -0.14582079 0.75483185 255 12 12
-0.04053486 -0.14590477 0.75256028 255 12 12
-0.03020914 -0.14586786 0.74889278 255 12 12
-0.01981774 -0.14605071 0.74781168 255 12 12
-0.00922267 -0.14647734 0.74955897 255 12 12
0.00129818 -0.14676317 0.74965910 255 12 12
0.01157126 -0.14682055 0.74712658 255 12 12
0.02187411 -0.14692877 0.74518791 255 12 12
0.03203573 -0.14695826 0.74235937 255 12 12
0.04235650 -0.14710421 0.74086273 255 12 12
0.05257259 -0.14719324 0.73872348 255 12 12
0.06341828 -0.14723334 0.73580682 255 12 12
0.07378042 -0.14731787 0.73356853 255 12 12
0.08384366 -0.14727891 0.72995881 255 12 12
0.09394144 -0.14726956 0.72668947 255 12 12
