ply
format ascii 1.0
element vertex 309
property float x
property float y
property float z
property uchar red
property uchar green
property uchar blue
end_header
0.13981661 -0.16994241 0.98131290 255 12 12
0.15124397 -0.16998534 0.97824784 255 12 12
0.16256841 -0.16999351 0.97480270 255 12 12
0.17402587 -0.17005474 0.97194546 255 12 12
0.18621332 -0.17019301 0.96977381 255 12 12
0.19772498 -0.17018491 0.96607710 255 12 12
0.20928544 -0.17027307 0.96350705 255 12 12
0.22151593 -0.17048052 0.96214264 255 12 12
0.23269597 -0.17058730 0.95991249 255 12 12
0.24468146 -0.17076934 0.95832321 255 12 12
0.25650831 -0.17089447 0.95610846 255 12 12
0.26764590 -0.17083085 0.95187002 255 12 12
0.27960872 -0.17097397 0.94982621 255 12 12
0.29166252 -0.17112589 0.94785820 255 12 12
0.30372001 -0.17126453 0.94573158 255 12 12
0.31626224 -0.17149929 0.94459362 255 12 12
0.32858107 -0.17160846 0.94203564 255 12 12
0.34126427 -0.17183735 0.94078389 255 12 12
0.35450164 -0.17216122 0.94048563 255 12 12
0.36692989 -0.17229642 0.93820222 255 12 12
-0.00306115 -0.09469892 0.13337472 255 12 12
0.00012342 -0.09438994 0.12871314 255 12 12
0.00041840 -0.09406290 0.12474109 255 12 12
0.00237549 -0.09414505 0.12510357 255 12 12
0.00077677 -0.09328429 0.11539228 255 12 12
0.00065627 -0.09312125 0.11349579 255 12 12
0.00935459 -0.09367074 0.11729385 255 12 12
0.00955636 -0.09354130 0.11569519 255 12 12
0.00974924 -0.09341050 0.11408306 255 12 12
0.00996911 -0.09333681 0.11314010 255 12 12
0.00967612 -0.09317209 0.11127769 255 12 12
0.01025244 -0.09310415 0.11029141 255 12 12
0.01232216 -0.09318542 0.11060820 255 12 12
0.01223642 -0.09287210 0.10691807 255 12 12
0.01282427 -0.09279590 0.10583023 255 12 12
0.01203579 -0.09259092 0.10364504 255 12 12
0.01297217 -0.09255045 0.10287215 255 12 12
0.01409910 -0.09252661 0.10223675 255 12 12
0.01382135 -0.09237633 0.10054086 255 12 12
0.01270604 -0.09215595 0.09827535 255 12 12
0.01054969 -0.09173830 0.09399516 255 12 12
0.01117101 -0.09167819 0.09308774 255 12 12
0.01094562 -0.09154917 0.09162757 255 12 12
0.01027449 -0.09138695 0.08991310 255 12 12
0.01020902 -0.09127589 0.08861600 255 12 12
0.01033656 -0.09118149 0.08745622 255 12 12
0.00980059 -0.09103807 0.08592250 255 12 12
0.00902117 -0.09087953 0.08428546 255 12 12
0.00886781 -0.09077016 0.08303593 255 12 12
0.00850192 -0.09055242 0.08056733 255 12 12
0.00906787 -0.09047486 0.07947014 255 12 12
0.00886599 -0.09036215 0.07819624 255 12 12
0.00885979 -0.09026617 0.07705952 255 12 12
0.01101855 -0.09022938 0.07594790 255 12 12
0.02078319 -0.09053887 0.07656518 255 12 12
0.02212199 -0.09051736 0.07589124 255 12 12
0.02182583 -0.09039749 0.07456191 255 12 12
0.02150147 -0.09027990 0.07326829 255 12 12
0.02163875 -0.09018718 0.07212541 255 12 12
0.02270225 -0.09014710 0.07131729 255 12 12
0.02352781 -0.09009064 0.07038926 255 12 12
0.02337952 -0.08998497 0.06918217 255 12 12
0.02346153 -0.08988985 0.06802804 255 12 12
0.02376256 -0.08980821 0.06696534 255 12 12
0.02381501 -0.08971242 0.06581262 255 12 12
0.02408874 -0.08962971 0.06474582 255 12 12
0.02484142 -0.08956691 0.06376538 255 12 12
0.02484062 -0.08947342 0.06265646 255 12 12
0.02458636 -0.08936719 0.06147583 255 12 12
0.02480666 -0.08928232 0.06040004 255 12 12
0.02452224 -0.08917636 0.05923206 255 12 12
0.02496534 -0.08909895 0.05817510 255 12 12
0.02588537 -0.08904195 0.05721114 255 12 12
0.02580586 -0.08894486 0.05608421 255 12 12
0.02571205 -0.08884774 0.05496139 255 12 12
0.02535890 -0.08873962 0.05378917 255 12 12
0.02374550 -0.08859002 0.05251908 255 12 12
0.02286058 -0.08846903 0.05136058 255 12 12
0.02270742 -0.08837446 0.05028651 255 12 12
0.02329199 -0.08830019 0.04922258 255 12 12
0.01917520 -0.08799524 0.04689258 255 12 12
0.01821793 -0.08788045 0.04583026 255 12 12
0.01724604 -0.08777104 0.04483625 255 12 12
0.01876126 -0.08772898 0.04386341 255 12 12
0.02001459 -0.08767702 0.04285494 255 12 12
0.01900633 -0.08756604 0.04185380 255 12 12
0.01848448 -0.08746501 0.04081839 255 12 12
0.01909175 -0.08722056 0.03772858 255 12 12
0.01777412 -0.08710933 0.03682114 255 12 12
0.01694253 -0.08700789 0.03587779 255 12 12
0.02926679 -0.08694797 0.03131221 255 12 12
0.03159066 -0.08688449 0.02983225 255 12 12
0.03315055 -0.08680555 0.02840786 255 12 12
0.03320994 -0.08670443 0.02718965 255 12 12
0.03230168 -0.08660765 0.02632569 255 12 12
0.03283555 -0.08651601 0.02507154 255 12 12
0.03506849 -0.08643882 0.02345737 255 12 12
0.03458711 -0.08633385 0.02236272 255 12 12
0.03452712 -0.08621129 0.02092751 255 12 12
0.03497685 -0.08610774 0.01955844 255 12 12
0.03516521 -0.08600129 0.01823669 255 12 12
0.03509422 -0.08589277 0.01697139 255 12 12
0.03476614 -0.08578298 0.01577162 255 12 12
0.03490305 -0.08567393 0.01443515 255 12 12
0.03502175 -0.08556378 0.01309129 255 12 12
0.03440781 -0.08545300 0.01196907 255 12 12
0.03377224 -0.08534031 0.01083103 255 12 12
0.03360475 -0.08522926 0.00956594 255 12 12
0.02783693 -0.08503411 0.00905493 255 12 12
0.02741174 -0.08492932 0.00794475 255 12 12
0.02674108 -0.08482639 0.00693345 255 12 12
0.02513651 -0.08473228 0.00631885 255 12 12
0.02421884 -0.08463403 0.00544040 255 12 12
0.02443402 -0.08452409 0.00406884 255 12 12
0.02281278 -0.08443548 0.00352471 255 12 12
-0.01082514 -0.08443130 0.01399650 255 12 12
-0.01073773 -0.08436126 0.01313824 255 12 12
-0.01470520 -0.08431217 0.01379676 255 12 12
-0.01529017 -0.08425704 0.01332577 255 12 12
-0.01543364 -0.08419492 0.01263371 255 12 12
-0.02152054 -0.08417680 0.01432263 255 12 12
-0.02270859 -0.08414976 0.01437342 255 12 12
-0.02347723 -0.08411195 0.01416525 255 12 12
-0.02599250 -0.08407939 0.01456567 255 12 12
-0.02652752 -0.08404189 0.01428821 255 12 12
-0.02824527 -0.08405178 0.01494284 255 12 12
-0.02917213 -0.08403189 0.01499673 255 12 12
-0.02990206 -0.08400509 0.01490708 255 12 12
-0.03084049 -0.08398555 0.01496883 255 12 12
-0.03138397 -0.08395141 0.01473381 255 12 12
-0.03136833 -0.08389077 0.01400957 255 12 12
-0.03119206 -0.08381882 0.01310088 255 12 12
-0.03156461 -0.08377625 0.01271236 255 12 12
-0.03212795 -0.08374313 0.01249561 255 12 12
-0.03234619 -0.08357283 0.01054366 255 12 12
-0.03205490 -0.08348846 0.00945156 255 12 12
-0.03245368 -0.08344752 0.00909064 255 12 12
-0.03285668 -0.08340686 0.00873441 255 12 12
-0.03349291 -0.08337167 0.00851589 255 12 12
-0.03376176 -0.08331808 0.00796428 255 12 12
-0.03402998 -0.08326530 0.00742198 255 12 12
-0.03509358 -0.08327340 0.00785078 255 12 12
-0.03749502 -0.08331994 0.00915404 255 12 12
-0.04806300 -0.08393355 0.01973887 255 12 12
-0.04860555 -0.08394015 0.01998682 255 12 12
-0.04928286 -0.08396129 0.02044951 255 12 12
-0.04934137 -0.08385918 0.01925644 255 12 12
-0.04863463 -0.08364619 0.01650864 255 12 12
-0.04873090 -0.08359168 0.01589208 255 12 12
-0.04918226 -0.08358380 0.01593974 255 12 12
-0.04846537 -0.08311943 0.01020661 255 12 12
-0.04842739 -0.08293881 0.00805197 255 12 12
-0.04904878 -0.08294645 0.00833705 255 12 12
-0.04923757 -0.08275502 0.00612507 255 12 12
-0.04962040 -0.08271077 0.00571987 255 12 12
-0.04983686 -0.08263182 0.00485102 255 12 12
-0.05047871 -0.08264102 0.00516093 255 12 12
-0.05092718 -0.08261696 0.00501577 255 12 12
-0.05139830 -0.08259221 0.00486948 255 12 12
-0.05208243 -0.08262281 0.00544651 255 12 12
-0.05241328 -0.08256248 0.00483427 255 12 12
-0.05258581 -0.08244515 0.00349635 255 12 12
-0.05381120 -0.08247363 0.00421751 255 12 12
-0.05430272 -0.08245112 0.00410418 255 12 12
-0.05487892 -0.08246836 0.00448894 255 12 12
-0.05535635 -0.08244752 0.00439105 255 12 12
-0.05574223 -0.08238830 0.00380921 255 12 12
-0.05614129 -0.08232905 0.00323107 255 12 12
-0.05666703 -0.08230780 0.00314347 255 12 12
-0.05709788 -0.08224836 0.00257307 255 12 12
-0.05842046 -0.08241044 0.00490949 255 12 12
-0.05887154 -0.08239414 0.00485718 255 12 12
-0.05934424 -0.08237753 0.00480808 255 12 12
-0.05981752 -0.08236141 0.00476478 255 12 12
-0.06147781 -0.08268711 0.00914801 255 12 12
-0.06283841 -0.08317301 0.01533781 255 12 12
-0.06463029 -0.08352854 0.02011608 255 12 12
-0.06507062 -0.08364607 0.02164804 255 12 12
-0.06576687 -0.08350701 0.02021609 255 12 12
-0.06595842 -0.08356730 0.02099130 255 12 12
-0.06762974 -0.08352484 0.02101034 255 12 12
-0.06800018 -0.08347864 0.02057814 255 12 12
-0.06843614 -0.08341072 0.01990869 255 12 12
-0.06915503 -0.08355849 0.02188664 255 12 12
-0.06926093 -0.08360190 0.02243472 255 12 12
-0.06937167 -0.08364557 0.02298738 255 12 12
-0.06969054 -0.08362354 0.02282577 255 12 12
-0.06994151 -0.08362378 0.02290718 255 12 12
-0.07088430 -0.08351534 0.02191557 255 12 12
-0.07123367 -0.08349457 0.02177843 255 12 12
-0.07221288 -0.08345620 0.02162950 255 12 12
-0.08443691 -0.08186709 0.00660107 255 12 12
-0.08467016 -0.08189673 0.00702566 255 12 12
-0.08486538 -0.08195038 0.00772323 255 12 12
-0.08530154 -0.08196152 0.00799181 255 12 12
-0.08547405 -0.08201588 0.00869059 255 12 12
-0.08590766 -0.08202823 0.00897271 255 12 12
-0.08633771 -0.08204112 0.00926022 255 12 12
-0.08661216 -0.08207524 0.00975083 255 12 12
-0.08703237 -0.08208914 0.01004707 255 12 12
-0.08730998 -0.08212469 0.01055564 255 12 12
-0.08772003 -0.08213957 0.01086052 255 12 12
-0.08797334 -0.08217561 0.01136722 255 12 12
-0.08821779 -0.08221197 0.01187510 255 12 12
-0.08842802 -0.08224759 0.01236338 255 12 12
-0.09031833 -0.08213914 0.01166810 255 12 12
-0.09087033 -0.08213705 0.01181594 255 12 12
-0.09180004 -0.08209783 0.01164150 255 12 12
-0.09236572 -0.08209794 0.01181974 255 12 12
-0.09275961 -0.08211858 0.01218770 255 12 12
-0.09297476 -0.08215937 0.01273890 255 12 12
-0.09343351 -0.08215573 0.01283923 255 12 12
-0.09432324 -0.08211813 0.01267145 255 12 12
-0.09432176 -0.08217816 0.01338319 255 12 12
-0.09430787 -0.08223816 0.01409062 255 12 12
-0.09435954 -0.08230319 0.01487828 255 12 12
-0.09396908 -0.08240238 0.01593277 255 12 12
-0.09354986 -0.08250041 0.01696461 255 12 12
-0.09368843 -0.08254253 0.01750764 255 12 12
-0.09295994 -0.08271815 0.01936322 255 12 12
-0.09325242 -0.08274133 0.01972962 255 12 12
-0.09334842 -0.08278342 0.02025900 255 12 12
-0.09321729 -0.08284185 0.02091118 255 12 12
-0.09349070 -0.08286578 0.02128058 255 12 12
-0.09416692 -0.08285511 0.02136549 255 12 12
-0.09443469 -0.08288016 0.02174645 255 12 12
-0.09769618 -0.08271300 0.02078353 255 12 12
-0.09923511 -0.08264066 0.02040666 255 12 12
-0.09994531 -0.08263805 0.02059787 255 12 12
-0.10065018 -0.08263592 0.02079309 255 12 12
-0.10157742 -0.08261939 0.02088700 255 12 12
-0.10206783 -0.08263586 0.02123575 255 12 12
-0.10256136 -0.08265387 0.02160383 255 12 12
-0.10391438 -0.08260758 0.02147780 255 12 12
-0.10528770 -0.08256510 0.02140341 255 12 12
-0.10644600 -0.08254031 0.02147163 255 12 12
-0.10693613 -0.08256293 0.02189333 255 12 12
-0.10763641 -0.08256972 0.02219285 255 12 12
-0.10834702 -0.08257943 0.02253039 255 12 12
-0.10790998 -0.08266227 0.02337633 255 12 12
-0.10723507 -0.08275955 0.02431932 255 12 12
-0.10633293 -0.08287319 0.02538535 255 12 12
-0.10493270 -0.08301035 0.02657451 255 12 12
-0.10980550 -0.08309661 0.02912191 255 12 12
-0.10973718 -0.08315244 0.02976284 255 12 12
-0.10990082 -0.08319622 0.03033340 255 12 12
-0.09986962 -0.08389848 0.03552693 255 12 12
-0.09922371 -0.08396397 0.03610183 255 12 12
-0.09980102 -0.08397827 0.03645206 255 12 12
-0.10157746 -0.08406438 0.03802920 255 12 12
-0.10238226 -0.08407414 0.03839674 255 12 12
-0.10293659 -0.08409531 0.03882126 255 12 12
-0.10323768 -0.08412631 0.03928314 255 12 12
-0.60539207 -0.06838204 0.00957016 255 12 12
-0.59755963 -0.06920698 0.01690673 255 12 12
-0.58861840 -0.07002277 0.02378791 255 12 12
-0.58083824 -0.07078652 0.03041500 255 12 12
-0.57372447 -0.07151559 0.03683904 255 12 12
-0.56978068 -0.07216935 0.04336119 255 12 12
-0.56575493 -0.07280515 0.04964454 255 12 12
-0.56340323 -0.07338055 0.05573510 255 12 12
-0.56896490 -0.07377919 0.06220379 255 12 12
-0.57945451 -0.07404532 0.06864195 255 12 12
-0.58460532 -0.07447006 0.07529174 255 12 12
-0.58343779 -0.07503354 0.08161128 255 12 12
-0.57920482 -0.07565414 0.08764953 255 12 12
-0.57291180 -0.07630427 0.09339390 255 12 12
-0.56506490 -0.07696903 0.09882565 255 12 12
-0.55815406 -0.07760385 0.10419504 255 12 12
-0.55391191 -0.07818588 0.10977299 255 12 12
-0.55049868 -0.07880624 0.11606474 255 12 12
-0.54659635 -0.07938160 0.12166978 255 12 12
-0.54213739 -0.07995708 0.12710221 255 12 12
-0.54204035 -0.08047928 0.13326674 255 12 12
-0.54267668 -0.08096252 0.13919863 255 12 12
-0.54171675 -0.08148579 0.14510595 255 12 12
-0.54360981 -0.08198871 0.15166437 255 12 12
-0.54638575 -0.08249308 0.15851605 255 12 12
-0.55048628 -0.08301159 0.16594976 255 12 12
-0.55426876 -0.08353195 0.17330603 255 12 12
-0.55770203 -0.08406519 0.18070576 255 12 12
-0.56126652 -0.08460954 0.18827835 255 12 12
-0.56248334 -0.08519244 0.19557403 255 12 12
-0.56196998 -0.08576927 0.20225655 255 12 12
-0.56283521 -0.08633913 0.20928751 255 12 12
-0.56568109 -0.08693404 0.21723522 255 12 12
-0.60230676 -0.08827854 0.24464103 255 12 12
-0.59537248 -0.08887081 0.24949833 255 12 12
-0.06760561 -0.16897559 1.03472099 255 12 12
-0.05515254 -0.16904769 1.03168121 255 12 12
-0.04299967 -0.16928828 1.03073425 255 12 12
-0.03094986 -0.16930380 1.02714933 255 12 12
-0.01900706 -0.16926228 1.02292133 255 12 12
-0.00682418 -0.16931849 1.01977763 255 12 12
0.00496868 -0.16929056 1.01575773 255 12 12
0.01663077 -0.16920548 1.01110063 255 12 12
0.02837739 -0.16927819 1.00828914 255 12 12
0.04046399 -0.16944992 1.00654595 255 12 12
0.05213993 -0.16951748 1.00369538 255 12 12
0.06363099 -0.16948509 0.99971703 255 12 12
0.07518525 -0.16952603 0.99658866 255 12 12
0.08660463 -0.16951027 0.99283004 255 12 12
0.09799481 -0.16950304 0.98918162 255 12 12
0.10963240 -0.16963549 0.98711281 255 12 12
0.12133970 -0.16979899 0.98539065 255 12 12
0.13308212 -0.16997181 0.98376802 255 12 12
0.14459749 -0.17004440 0.98102741 255 12 12
0.15579124 -0.16999453 0.97693464 255 12 12
0.16697602 -0.16995366 0.97295141 255 12 12
