ply
format ascii 1.0
element vertex 127
property float x
property float y
property float z
property uchar red
property uchar green
property uchar blue
end_header
-0.07858347 -0.08275553 0.01530999 255 12 12
-0.07938820 -0.08270007 0.01490372 255 12 12
-0.07944796 -0.08277420 0.01580186 255 12 12
-0.07975652 -0.08290522 0.01745264 255 12 12
-0.08011518 -0.08291538 0.01768537 255 12 12
-0.07985245 -0.08308497 0.01961512 255 12 12
-0.07887139 -0.08333604 0.02228674 255 12 12
-0.07915129 -0.08334646 0.02249788 255 12 12
-0.08066867 -0.08324678 0.02178992 255 12 12
-0.08112676 -0.08323923 0.02184372 255 12 12
-0.08161010 -0.08323344 0.02192617 255 12 12
-0.08463475 -0.08313161 0.02166419 255 12 12
-0.08234141 -0.08347478 0.02501802 255 12 12
-0.08204085 -0.08354766 0.02578855 255 12 12
-0.08203566 -0.08370612 0.02766680 255 12 12
-0.07927085 -0.08409443 0.03140861 255 12 12
-0.09130152 -0.08358463 0.02912375 255 12 12
-0.09415666 -0.08352459 0.02930445 255 12 12
-0.09661240 -0.08346056 0.02931302 255 12 12
-0.09749960 -0.08345289 0.02949944 255 12 12
-0.09885774 -0.08342036 0.02953832 255 12 12
-0.10022526 -0.08339144 0.02962298 255 12 12
-0.10112289 -0.08339108 0.02989952 255 12 12
-0.10468707 -0.08340473 0.03117627 255 12 12
-0.10437116 -0.08347286 0.03188563 255 12 12
-0.10476846 -0.08350529 0.03239472 255 12 12
-0.10323532 -0.08383215 0.03579275 255 12 12
-0.10333845 -0.08387721 0.03635955 255 12 12
-0.11053633 -0.08375549 0.03716690 255 12 12
-0.11136412 -0.08378297 0.03775189 255 12 12
-0.83769115 -0.06688628 0.06448432 255 12 12
-0.82785422 -0.06801743 0.07482654 255 12 12
-0.80775966 -0.07023965 0.09490396 255 12 12
-0.81594022 -0.07097373 0.10617123 255 12 12
-0.81103209 -0.07194936 0.11621021 255 12 12
-0.80248983 -0.07299454 0.12593754 255 12 12
-0.79831111 -0.07393617 0.13580118 255 12 12
-0.78357581 -0.07504144 0.14430432 255 12 12
-0.67000972 -0.07914784 0.15749800 255 12 12
-0.66334333 -0.08000276 0.16555490 255 12 12
-0.65109266 -0.08073378 0.17039545 255 12 12
-0.63852588 -0.08155537 0.17621145 255 12 12
-0.62591321 -0.08235039 0.18169789 255 12 12
-0.61084260 -0.08312919 0.18622313 255 12 12
-0.59961366 -0.08386294 0.19141564 255 12 12
-0.58786823 -0.08457421 0.19617971 255 12 12
-0.57322833 -0.08526213 0.19976162 255 12 12
-0.40877506 -0.08812411 0.18227604 255 12 12
-0.40769557 -0.08859534 0.18752868 255 12 12
-0.40470233 -0.08904946 0.19197974 255 12 12
-0.39937417 -0.08947357 0.19534447 255 12 12
-0.40080747 -0.08997795 0.20177633 255 12 12
-0.39987728 -0.09045832 0.20718412 255 12 12
-0.37560194 -0.09103555 0.20643908 255 12 12
-0.37078728 -0.09147497 0.21014598 255 12 12
-0.36524733 -0.09185515 0.21292335 255 12 12
-0.36233286 -0.09227568 0.21700059 255 12 12
-0.35888616 -0.09269121 0.22085207 255 12 12
-0.35011190 -0.09292010 0.22082297 255 12 12
-0.34330425 -0.09321907 0.22224040 255 12 12
-0.32483953 -0.09361442 0.22115518 255 12 12
-0.32152120 -0.09395740 0.22418607 255 12 12
-0.29256074 -0.09427142 0.21885315 255 12 12
-0.28489698 -0.09441083 0.21810987 255 12 12
-0.27735071 -0.09452679 0.21712524 255 12 12
-0.27179475 -0.09471040 0.21756560 255 12 12
-0.27233117 -0.09516258 0.22309771 255 12 12
-0.27115430 -0.09556196 0.22746743 255 12 12
-0.26514545 -0.09571537 0.22740796 255 12 12
-0.26068973 -0.09592733 0.22852877 255 12 12
-0.25727008 -0.09619667 0.23065449 255 12 12
-0.25357117 -0.09649012 0.23297873 255 12 12
-0.24831351 -0.09665089 0.23324153 255 12 12
-0.24343285 -0.09682282 0.23375454 255 12 12
-0.23891520 -0.09700761 0.23453378 255 12 12
-0.23478031 -0.09714723 0.23489674 255 12 12
-0.23204196 -0.09742173 0.23729667 255 12 12
-0.22830229 -0.09762289 0.23851339 255 12 12
-0.22519593 -0.09786680 0.24043538 255 12 12
-0.22076803 -0.09801345 0.24079014 255 12 12
-0.21855843 -0.09832380 0.24378078 255 12 12
-0.21989725 -0.09894230 0.25153682 255 12 12
-0.20624592 -0.09878448 0.24539471 255 12 12
-0.19963250 -0.09867911 0.24207612 255 12 12
-0.19430523 -0.09866460 0.24023778 255 12 12
-0.19062776 -0.09881241 0.24084101 255 12 12
-0.18754335 -0.09900767 0.24219275 255 12 12
-0.18232413 -0.09897000 0.24011335 255 12 12
-0.17699223 -0.09888730 0.23746453 255 12 12
-0.16884809 -0.10014467 0.24983366 255 12 12
-0.16024019 -0.10021082 0.24792603 255 12 12
-0.15160817 -0.10016720 0.24470860 255 12 12
-0.14841260 -0.10100172 0.25360914 255 12 12
-0.14391180 -0.10090788 0.25108807 255 12 12
-0.14019710 -0.10094380 0.25035232 255 12 12
-0.13668750 -0.10100860 0.25002335 255 12 12
-0.13331624 -0.10106171 0.24959901 255 12 12
-0.12985834 -0.10111567 0.24915751 255 12 12
-0.12765845 -0.10145166 0.25245537 255 12 12
-0.12503995 -0.10171760 0.25479127 255 12 12
-0.12164439 -0.10180010 0.25470784 255 12 12
-0.11882566 -0.10202429 0.25648582 255 12 12
-0.11537319 -0.10205796 0.25580540 255 12 12
-0.11029855 -0.10271960 0.26206731 255 12 12
-0.10263427 -0.10240650 0.25595568 255 12 12
-0.09988210 -0.10269018 0.25846020 255 12 12
-0.09608420 -0.10262852 0.25654088 255 12 12
-0.09258738 -0.10255080 0.25452509 255 12 12
-0.08970923 -0.10282729 0.25690497 255 12 12
-0.08077348 -0.10347535 0.26179807 255 12 12
-0.07763596 -0.10361881 0.26251857 255 12 12
-0.07420041 -0.10330491 0.25772014 255 12 12
-0.06812139 -0.10402904 0.26440931 255 12 12
-0.06175733 -0.10356984 0.25697115 255 12 12
-0.05852483 -0.10394464 0.26040640 255 12 12
-0.05521475 -0.10440144 0.26479016 255 12 12
-0.05197779 -0.10451647 0.26514234 255 12 12
-0.04902026 -0.10424303 0.26097337 255 12 12
-0.04608162 -0.10413374 0.25875776 255 12 12
-0.03898434 -0.10498074 0.26658593 255 12 12
-0.03599124 -0.10486097 0.26422893 255 12 12
-0.03270230 -0.10474148 0.26178266 255 12 12
-0.02592356 -0.10500111 0.26274245 255 12 12
-0.02368088 -0.10455737 0.25677676 255 12 12
-0.02140402 -0.10432381 0.25329389 255 12 12
-0.01888284 -0.10413183 0.25022780 255 12 12
-0.01791924 -0.10232942 0.22854402 255 12 12
