ply
format ascii 1.0
element vertex 92
property float x
property float y
property float z
property uchar red
property uchar green
property uchar blue
end_header
0.14467462 -0.16739772 0.94960525 255 12 12
-0.06723849 -0.08344357 0.01992387 255 12 12
-0.06751119 -0.08374035 0.02352985 255 12 12
-0.06790445 -0.08369444 0.02310826 255 12 12
-0.06984071 -0.08369001 0.02366130 255 12 12
-0.07044626 -0.08360286 0.02281690 255 12 12
-0.07098440 -0.08353812 0.02221714 255 12 12
-0.07109843 -0.08365129 0.02359533 255 12 12
-0.07166015 -0.08358781 0.02301795 255 12 12
-0.07205210 -0.08356872 0.02291415 255 12 12
-0.08013845 -0.08237975 0.01133836 255 12 12
-0.08098613 -0.08232435 0.01094636 255 12 12
-0.08331072 -0.08208444 0.00882724 255 12 12
-0.08405624 -0.08205316 0.00868944 255 12 12
-0.08427355 -0.08210782 0.00940579 255 12 12
-0.08593582 -0.08202905 0.00899129 255 12 12
-0.08614003 -0.08208579 0.00972825 255 12 12
-0.08604069 -0.08218474 0.01087108 255 12 12
-0.08576705 -0.08230445 0.01220564 255 12 12
-0.08606594 -0.08234113 0.01273427 255 12 12
-0.08649829 -0.08235731 0.01306141 255 12 12
-0.08692595 -0.08237412 0.01339463 255 12 12
-0.08750664 -0.08237115 0.01354101 255 12 12
-0.08979541 -0.08222581 0.01253268 255 12 12
-0.09022205 -0.08224596 0.01290521 255 12 12
-0.09098843 -0.08222731 0.01292364 255 12 12
-0.09177629 -0.08221072 0.01297328 255 12 12
-0.09255213 -0.08219451 0.01302355 255 12 12
-0.09262756 -0.08225754 0.01379495 255 12 12
-0.09268703 -0.08232065 0.01456228 255 12 12
-0.09307741 -0.08234443 0.01496650 255 12 12
-0.09219178 -0.08256545 0.01731139 255 12 12
-0.09255859 -0.08259060 0.01772452 255 12 12
-0.09234134 -0.08267160 0.01861744 255 12 12
-0.09107638 -0.08290574 0.02099943 255 12 12
-0.09079952 -0.08298511 0.02185451 255 12 12
-0.09131265 -0.08299335 0.02211274 255 12 12
-0.09241703 -0.08294840 0.02192488 255 12 12
-0.09271819 -0.08297550 0.02234059 255 12 12
-0.09495151 -0.08289304 0.02206088 255 12 12
-0.09786207 -0.08276914 0.02150138 255 12 12
-0.09816888 -0.08280258 0.02199411 255 12 12
-0.10072426 -0.08272742 0.02190171 255 12 12
-0.10080658 -0.08278033 0.02255509 255 12 12
-0.10219970 -0.08273926 0.02250360 255 12 12
-0.10363018 -0.08270481 0.02254245 255 12 12
-0.10504602 -0.08267025 0.02257520 255 12 12
-0.10601855 -0.08266853 0.02285903 255 12 12
-0.10631092 -0.08271305 0.02347861 255 12 12
-0.10477123 -0.08292730 0.02553878 255 12 12
-0.10432245 -0.08301182 0.02640102 255 12 12
-0.09749947 -0.08357010 0.03088993 255 12 12
-0.10562778 -0.08327932 0.02998271 255 12 12
-0.10724959 -0.08325130 0.03015758 255 12 12
-0.10815369 -0.08326297 0.03057878 255 12 12
-0.10015771 -0.08380747 0.03453730 255 12 12
-0.09721420 -0.08402940 0.03624950 255 12 12
-0.09779648 -0.08404438 0.03660930 255 12 12
-0.09887226 -0.08404263 0.03692497 255 12 12
-0.10166048 -0.08411590 0.03866636 255 12 12
-0.10147435 -0.08416887 0.03923649 255 12 12
-0.54544384 -0.07087507 0.02039475 255 12 12
-0.54923203 -0.07134025 0.02709816 255 12 12
-0.65098425 -0.07052839 0.04929303 255 12 12
-0.64610670 -0.07136084 0.05764298 255 12 12
-0.64512381 -0.07205201 0.06553501 255 12 12
-0.64975830 -0.07264502 0.07401953 255 12 12
-0.65825799 -0.07316991 0.08290498 255 12 12
-0.66462843 -0.07375807 0.09187505 255 12 12
-0.67134451 -0.07437085 0.10124512 255 12 12
-0.55958177 -0.12568811 0.67507421 255 12 12
-0.55144438 -0.12661536 0.68352904 255 12 12
-0.54408469 -0.12758699 0.69275373 255 12 12
-0.53871017 -0.12878379 0.70527057 255 12 12
-0.11286115 -0.16810793 1.03858284 255 12 12
-0.09804849 -0.16829623 1.03618354 255 12 12
-0.08331149 -0.16844314 1.03331695 255 12 12
-0.06865753 -0.16844363 1.02873923 255 12 12
-0.05441277 -0.16839453 1.02370127 255 12 12
-0.04000019 -0.16850008 1.02044551 255 12 12
-0.02566176 -0.16862798 1.01747793 255 12 12
-0.01149791 -0.16858694 1.01256092 255 12 12
0.00235033 -0.16862673 1.00870156 255 12 12
0.01642308 -0.16871686 1.00536906 255 12 12
0.03033992 -0.16872307 1.00108981 255 12 12
0.04342394 -0.16814811 0.99017653 255 12 12
0.05585641 -0.16748164 0.97838141 255 12 12
0.06966209 -0.16768720 0.97650183 255 12 12
0.08434145 -0.16754646 0.97024078 255 12 12
0.09754941 -0.16734580 0.96372913 255 12 12
0.11157285 -0.16758413 0.96217026 255 12 12
0.12518475 -0.16762922 0.95844763 255 12 12
