ply
format ascii 1.0
element vertex 64
property float x
property float y
property float z
property uchar red
property uchar green
property uchar blue
end_header
-0.01083100 -0.10716125 0.28364786 255 12 12
-0.97608465 -0.09553674 0.44765687 255 12 12
-0.77324338 -0.09654632 0.39618892 255 12 12
-0.47449130 -0.09600022 0.29626659 255 12 12
-0.46488572 -0.09643373 0.29840496 255 12 12
-0.45307508 -0.09680889 0.29916138 255 12 12
-0.44223051 -0.09717236 0.30008133 255 12 12
-0.43403583 -0.09760932 0.30270184 255 12 12
-0.42490623 -0.09798524 0.30430589 255 12 12
-0.41834402 -0.09844731 0.30773504 255 12 12
-0.39465303 -0.09890141 0.30571198 255 12 12
-0.37171872 -0.09927204 0.30293551 255 12 12
-0.36370622 -0.09955839 0.30382637 255 12 12
-0.35603591 -0.09985546 0.30495135 255 12 12
-0.34743991 -0.10006400 0.30473664 255 12 12
-0.34137922 -0.10039857 0.30681011 255 12 12
-0.32009929 -0.10050256 0.30138780 255 12 12
-0.31243496 -0.10080395 0.30256602 255 12 12
-0.25048558 -0.09909585 0.26292589 255 12 12
-0.24430081 -0.09920025 0.26222996 255 12 12
-0.24042682 -0.09945820 0.26407834 255 12 12
-0.22836073 -0.09960473 0.26204265 255 12 12
-0.22623464 -0.10000212 0.26609189 255 12 12
-0.22177477 -0.10018146 0.26682447 255 12 12
-0.21528854 -0.10016798 0.26463585 255 12 12
-0.21057995 -0.10033012 0.26508660 255 12 12
-0.20588044 -0.10046005 0.26515807 255 12 12
-0.18924523 -0.09986033 0.25284032 255 12 12
-0.18556951 -0.10001699 0.25354903 255 12 12
-0.18215089 -0.10022207 0.25491269 255 12 12
-0.17746754 -0.10024988 0.25377773 255 12 12
-0.17405919 -0.10044389 0.25501321 255 12 12
-0.16256739 -0.10019607 0.24847888 255 12 12
-0.15968202 -0.10043297 0.25038678 255 12 12
-0.14899103 -0.10005641 0.24257568 255 12 12
-0.14579462 -0.10020748 0.24336804 255 12 12
-0.12967217 -0.10006347 0.23661682 255 12 12
-0.12567223 -0.09997062 0.23426426 255 12 12
-0.12264516 -0.10008666 0.23469407 255 12 12
-0.11953068 -0.10015940 0.23458283 255 12 12
-0.11140096 -0.09973378 0.22699081 255 12 12
-0.10275473 -0.10004630 0.22799393 255 12 12
-0.10026270 -0.10028323 0.23002521 255 12 12
-0.09225017 -0.09950558 0.21829362 255 12 12
-0.08415036 -0.10488032 0.27952171 255 12 12
-0.08041085 -0.10479294 0.27731550 255 12 12
-0.07679445 -0.10486547 0.27704472 255 12 12
-0.07341428 -0.10498938 0.27745749 255 12 12
-0.06627898 -0.10466810 0.27141421 255 12 12
-0.06284393 -0.10484373 0.27242337 255 12 12
-0.05927015 -0.10493448 0.27238218 255 12 12
-0.05579238 -0.10493427 0.27129192 255 12 12
-0.05238525 -0.10497001 0.27065023 255 12 12
-0.04899610 -0.10491687 0.26895974 255 12 12
-0.04552337 -0.10507148 0.26970769 255 12 12
-0.04168425 -0.10548161 0.27337229 255 12 12
-0.03806174 -0.10567240 0.27450264 255 12 12
-0.03470513 -0.10560069 0.27260213 255 12 12
-0.03098666 -0.10578400 0.27361370 255 12 12
-0.02707726 -0.10605026 0.27554952 255 12 12
-0.01698574 -0.10603561 0.27221936 255 12 12
-0.01364995 -0.10602148 0.27100828 255 12 12
-0.01000034 -0.10613422 0.27120427 255 12 12
-0.00609251 -0.10633035 0.27230869 255 12 12
