ply
format ascii 1.0
element vertex 152
property float x
property float y
property float z
property uchar red
property uchar green
property uchar blue
end_header
-0.00788922 -0.10804401 0.29320016 255 12 12
-0.04610501 -0.08351907 0.01420936 255 12 12
-0.04660307 -0.08350605 0.01421070 255 12 12
-0.04839202 -0.08347334 0.01438221 255 12 12
-0.04913590 -0.08349293 0.01484725 255 12 12
-0.05233790 -0.08376966 0.01913170 255 12 12
-0.05345034 -0.08381440 0.02001037 255 12 12
-0.05488952 -0.08393171 0.02185218 255 12 12
-0.05534550 -0.08395013 0.02221332 255 12 12
-0.05570629 -0.08395196 0.02234787 255 12 12
-0.05607199 -0.08379913 0.02064927 255 12 12
-0.05629703 -0.08376545 0.02032005 255 12 12
-0.05678031 -0.08358888 0.01837651 255 12 12
-0.05716635 -0.08359228 0.01853767 255 12 12
-0.05823942 -0.08371581 0.02033876 255 12 12
-0.05828502 -0.08345675 0.01727974 255 12 12
-0.05868310 -0.08344027 0.01720873 255 12 12
-0.05903942 -0.08342596 0.01715046 255 12 12
-0.05936056 -0.08339221 0.01685043 255 12 12
-0.06029402 -0.08329441 0.01598224 255 12 12
-0.06062886 -0.08326173 0.01569927 255 12 12
-0.06146724 -0.08336054 0.01713370 255 12 12
-0.06179080 -0.08330837 0.01661605 255 12 12
-0.06213050 -0.08327713 0.01635169 255 12 12
-0.06287550 -0.08357101 0.02007104 255 12 12
-0.06382511 -0.08339960 0.01833461 255 12 12
-0.06489774 -0.08329151 0.01738779 255 12 12
-0.06543937 -0.08340727 0.01893045 255 12 12
-0.06655787 -0.08328283 0.01780406 255 12 12
-0.06793731 -0.08326515 0.01802577 255 12 12
-0.06858091 -0.08338814 0.01968617 255 12 12
-0.06888986 -0.08338614 0.01975899 255 12 12
-0.07021225 -0.08335974 0.01985942 255 12 12
-0.07035183 -0.08349175 0.02146917 255 12 12
-0.07087203 -0.08364973 0.02350601 255 12 12
-0.07254914 -0.08339092 0.02096026 255 12 12
-0.07512209 -0.08321510 0.01967929 255 12 12
-0.07782820 -0.08286030 0.01631665 255 12 12
-0.08062449 -0.08265575 0.01476470 255 12 12
-0.07974789 -0.08292993 0.01774318 255 12 12
-0.07995027 -0.08296089 0.01817367 255 12 12
-0.07949793 -0.08325412 0.02151081 255 12 12
-0.07978820 -0.08326497 0.02173039 255 12 12
-0.08008134 -0.08327646 0.02195841 255 12 12
-0.08315584 -0.08308327 0.02062816 255 12 12
-0.08381112 -0.08305891 0.02054414 255 12 12
-0.08338379 -0.08329676 0.02323215 255 12 12
-0.07996005 -0.08394524 0.02985433 255 12 12
-0.07994157 -0.08397757 0.03023208 255 12 12
-0.08011139 -0.08399163 0.03045193 255 12 12
-0.07967912 -0.08405950 0.03112186 255 12 12
-0.07964413 -0.08409202 0.03149672 255 12 12
-0.08073027 -0.08408505 0.03175374 255 12 12
-0.08413985 -0.08393983 0.03109749 255 12 12
-0.08663600 -0.08381869 0.03044111 255 12 12
-0.09316708 -0.08352132 0.02895619 255 12 12
-0.09358726 -0.08353593 0.02926086 255 12 12
-0.09468907 -0.08350770 0.02927068 255 12 12
-0.09637018 -0.08352787 0.03003571 255 12 12
-0.09906827 -0.08346155 0.03009283 255 12 12
-0.10272636 -0.08335301 0.02994946 255 12 12
-0.10203085 -0.08353407 0.03187977 255 12 12
-0.10121845 -0.08362175 0.03266588 255 12 12
-0.10393241 -0.08368218 0.03423171 255 12 12
-0.10574688 -0.08375277 0.03563663 255 12 12
-0.10707859 -0.08374837 0.03600089 255 12 12
-0.10816287 -0.08375754 0.03644887 255 12 12
-0.10948691 -0.08375778 0.03686588 255 12 12
-0.11734211 -0.08358304 0.03724989 255 12 12
-0.11841387 -0.08360749 0.03787506 255 12 12
-0.12065776 -0.08385797 0.04154841 255 12 12
-0.12117671 -0.08390813 0.04230581 255 12 12
-0.12618251 -0.08391080 0.04390321 255 12 12
-0.12816866 -0.08393316 0.04478972 255 12 12
-0.85411133 -0.09995401 0.46190897 255 12 12
-0.84032385 -0.10087315 0.46850035 255 12 12
-0.82675834 -0.10168082 0.47383888 255 12 12
-0.80310600 -0.10230571 0.47385404 255 12 12
-0.78495446 -0.10300938 0.47652443 255 12 12
-0.76963140 -0.10374789 0.48049275 255 12 12
-0.59655092 -0.10184738 0.40381033 255 12 12
-0.58789322 -0.10246632 0.40844502 255 12 12
-0.57839545 -0.10304417 0.41232944 255 12 12
-0.56466513 -0.10345511 0.41290997 255 12 12
-0.55689166 -0.10404125 0.41743208 255 12 12
-0.54799789 -0.10459141 0.42117689 255 12 12
-0.53753396 -0.10506308 0.42349948 255 12 12
-0.44973146 -0.10447580 0.38906947 255 12 12
-0.43872420 -0.10472063 0.38853109 255 12 12
-0.42608185 -0.10483593 0.38594472 255 12 12
-0.41384232 -0.10495490 0.38352770 255 12 12
-0.40205789 -0.10519057 0.38263759 255 12 12
-0.39407500 -0.10552905 0.38415617 255 12 12
-0.37456632 -0.10591136 0.38258963 255 12 12
-0.36704210 -0.10611416 0.38264201 255 12 12
-0.35910003 -0.10635065 0.38296344 255 12 12
-0.35152865 -0.10659667 0.38351381 255 12 12
-0.34288559 -0.10674526 0.38257327 255 12 12
-0.33447825 -0.10688968 0.38165683 255 12 12
-0.26546985 -0.10400221 0.32581777 255 12 12
-0.25931156 -0.10411695 0.32525279 255 12 12
-0.25376520 -0.10427569 0.32540105 255 12 12
-0.22578885 -0.10342627 0.30657384 255 12 12
-0.21252203 -0.10326565 0.30051877 255 12 12
-0.21051174 -0.10372878 0.30538412 255 12 12
-0.20667817 -0.10395894 0.30691558 255 12 12
-0.20178360 -0.10404492 0.30640455 255 12 12
-0.19681639 -0.10410702 0.30558765 255 12 12
-0.19157554 -0.10502106 0.31479185 255 12 12
-0.18612287 -0.10500577 0.31290496 255 12 12
-0.18117564 -0.10506786 0.31209414 255 12 12
-0.17776271 -0.10525781 0.31328002 255 12 12
-0.17491009 -0.10563665 0.31688207 255 12 12
-0.17052230 -0.10574048 0.31674136 255 12 12
-0.16589523 -0.10578585 0.31583240 255 12 12
-0.15572508 -0.10564573 0.31098912 255 12 12
-0.15205681 -0.10584567 0.31221362 255 12 12
-0.14627286 -0.10553588 0.30672946 255 12 12
-0.14180294 -0.10554845 0.30548048 255 12 12
-0.13861661 -0.10586299 0.30821525 255 12 12
-0.13433775 -0.10585655 0.30680059 255 12 12
-0.12960862 -0.10571536 0.30364646 255 12 12
-0.12588044 -0.10580389 0.30353053 255 12 12
-0.12259124 -0.10606218 0.30556592 255 12 12
-0.11992997 -0.10656764 0.31072987 255 12 12
-0.11679954 -0.10693911 0.31415753 255 12 12
-0.11310600 -0.10713754 0.31535627 255 12 12
-0.10954705 -0.10736857 0.31698390 255 12 12
-0.10564674 -0.10743862 0.31659496 255 12 12
-0.10141683 -0.10730473 0.31368352 255 12 12
-0.09658032 -0.10731565 0.31230030 255 12 12
-0.09292046 -0.10763750 0.31497378 255 12 12
-0.08911929 -0.10789615 0.31685319 255 12 12
-0.08511040 -0.10798829 0.31669244 255 12 12
-0.08217482 -0.10806247 0.31665419 255 12 12
-0.07847520 -0.10824181 0.31762462 255 12 12
-0.07476459 -0.10829109 0.31704862 255 12 12
-0.07103271 -0.10844187 0.31767006 255 12 12
-0.06699851 -0.10868064 0.31924084 255 12 12
-0.06314816 -0.10848963 0.31577059 255 12 12
-0.05944798 -0.10841633 0.31374356 255 12 12
-0.05560472 -0.10872025 0.31614701 255 12 12
-0.05181012 -0.10893463 0.31750337 255 12 12
-0.04809478 -0.10884861 0.31532076 255 12 12
-0.04471829 -0.10849857 0.31011213 255 12 12
-0.04112011 -0.10844343 0.30833250 255 12 12
-0.03723173 -0.10881106 0.31147756 255 12 12
-0.03162590 -0.10772290 0.29681512 255 12 12
-0.02788602 -0.10794906 0.29832829 255 12 12
-0.02353129 -0.10822188 0.30020279 255 12 12
-0.01950500 -0.10846420 0.30181816 255 12 12
-0.01392822 -0.10777742 0.29192641 255 12 12
