ply
format ascii 1.0
element vertex 118
property float x
property float y
property float z
property uchar red
property uchar green
property uchar blue
end_header
0.01736698 -0.11478521 0.36527257 255 12 12
-0.05980338 -0.08320625 0.01478290 255 12 12
-0.06016660 -0.08317218 0.01449235 255 12 12
-0.06053717 -0.08313831 0.01420644 255 12 12
-0.06088295 -0.08310570 0.01392777 255 12 12
-0.06177357 -0.08324582 0.01586853 255 12 12
-0.06286313 -0.08323533 0.01608496 255 12 12
-0.06416576 -0.08351768 0.01984196 255 12 12
-0.06571069 -0.08371933 0.02271735 255 12 12
-0.06681675 -0.08368291 0.02263122 255 12 12
-0.06703318 -0.08372325 0.02317746 255 12 12
-0.06821459 -0.08345542 0.02036967 255 12 12
-0.06879770 -0.08355978 0.02179018 255 12 12
-0.06975489 -0.08368984 0.02363244 255 12 12
-0.06993525 -0.08371245 0.02395712 255 12 12
-0.07018279 -0.08371335 0.02404521 255 12 12
-0.07052785 -0.08369265 0.02390753 255 12 12
-0.07096379 -0.08365033 0.02354185 255 12 12
-0.07257343 -0.08341392 0.02124078 255 12 12
-0.07569214 -0.08296655 0.01690904 255 12 12
-0.07766796 -0.08276250 0.01510630 255 12 12
-0.07818416 -0.08274790 0.01509457 255 12 12
-0.07871132 -0.08273413 0.01509604 255 12 12
-0.07952482 -0.08265473 0.01440859 255 12 12
-0.08004378 -0.08264191 0.01441887 255 12 12
-0.08005116 -0.08271526 0.01529125 255 12 12
-0.07971411 -0.08290405 0.01742559 255 12 12
-0.07942258 -0.08307138 0.01931937 255 12 12
-0.07936067 -0.08324916 0.02140908 255 12 12
-0.07935056 -0.08330121 0.02202336 255 12 12
-0.07917897 -0.08337406 0.02283396 255 12 12
-0.07945706 -0.08338524 0.02305356 255 12 12
-0.07973213 -0.08339681 0.02327692 255 12 12
-0.08141599 -0.08327994 0.02241708 255 12 12
-0.08218787 -0.08323293 0.02210085 255 12 12
-0.08224372 -0.08340900 0.02420709 255 12 12
-0.08267631 -0.08340451 0.02428909 255 12 12
-0.08207908 -0.08355011 0.02582963 255 12 12
-0.08007625 -0.08398868 0.03040594 255 12 12
-0.07984967 -0.08403910 0.03093329 255 12 12
-0.08238580 -0.08406651 0.03205169 255 12 12
-0.08572621 -0.08387783 0.03085813 255 12 12
-0.08959634 -0.08367201 0.02962698 255 12 12
-0.09401336 -0.08350216 0.02899355 255 12 12
-0.09781674 -0.08334522 0.02832141 255 12 12
-0.09847566 -0.08335072 0.02859275 255 12 12
-0.10235296 -0.08321499 0.02819528 255 12 12
-0.10233393 -0.08327047 0.02884748 255 12 12
-0.10408337 -0.08332766 0.03007316 255 12 12
-0.10849061 -0.08320107 0.02994990 255 12 12
-0.10633957 -0.08347149 0.03248512 255 12 12
-0.10599767 -0.08353966 0.03318689 255 12 12
-0.10466907 -0.08365103 0.03409249 255 12 12
-0.10904617 -0.08366697 0.03565072 255 12 12
-0.70479326 -0.10776911 0.50791714 255 12 12
-0.69118329 -0.10840506 0.51120456 255 12 12
-0.67680992 -0.10898604 0.51360112 255 12 12
-0.66719782 -0.10972894 0.51940779 255 12 12
-0.65585703 -0.11041022 0.52394277 255 12 12
-0.64540661 -0.11108998 0.52873820 255 12 12
-0.63379712 -0.11170167 0.53236358 255 12 12
-0.46507111 -0.10646155 0.41742477 255 12 12
-0.45342982 -0.10670092 0.41662330 255 12 12
-0.43903578 -0.10675595 0.41277399 255 12 12
-0.42702826 -0.10701049 0.41203788 255 12 12
-0.41864484 -0.10738739 0.41388691 255 12 12
-0.41072441 -0.10776125 0.41584480 255 12 12
-0.40036752 -0.10797633 0.41515682 255 12 12
-0.39027596 -0.10809720 0.41343429 255 12 12
-0.37858009 -0.10814510 0.41034433 255 12 12
-0.36969566 -0.10834920 0.40998679 255 12 12
-0.36298405 -0.10871701 0.41225090 255 12 12
-0.35492273 -0.10893220 0.41228232 255 12 12
-0.34711771 -0.10916800 0.41263839 255 12 12
-0.33726516 -0.10920971 0.41005144 255 12 12
-0.32548285 -0.10904721 0.40443849 255 12 12
-0.31639798 -0.10910782 0.40231585 255 12 12
-0.31090616 -0.10946952 0.40488909 255 12 12
-0.30317906 -0.10960288 0.40405429 255 12 12
-0.29579166 -0.10975067 0.40349690 255 12 12
-0.28863078 -0.10992208 0.40329062 255 12 12
-0.26832870 -0.10947423 0.39162759 255 12 12
-0.26441602 -0.10993668 0.39588987 255 12 12
-0.25866191 -0.11021372 0.39737665 255 12 12
-0.25171016 -0.11030619 0.39629923 255 12 12
-0.24434987 -0.11030144 0.39394077 255 12 12
-0.20056416 -0.10684339 0.33922200 255 12 12
-0.19662918 -0.10714287 0.34154392 255 12 12
-0.18452403 -0.10698281 0.33585892 255 12 12
-0.16909221 -0.10604950 0.31996013 255 12 12
-0.16316338 -0.10585291 0.31577347 255 12 12
-0.13544508 -0.10355107 0.27979652 255 12 12
-0.13143423 -0.10349338 0.27785770 255 12 12
-0.11487958 -0.10298725 0.26667542 255 12 12
-0.11207538 -0.10324239 0.26882498 255 12 12
-0.10892472 -0.10338014 0.26947371 255 12 12
-0.10585714 -0.10355331 0.27056861 255 12 12
-0.10207221 -0.10349614 0.26870651 255 12 12
-0.09870670 -0.10354567 0.26824144 255 12 12
-0.09385430 -0.10472789 0.28074861 255 12 12
-0.08917023 -0.10631192 0.29807520 255 12 12
-0.08053733 -0.10950299 0.33323118 255 12 12
-0.06914444 -0.11341001 0.37601739 255 12 12
-0.06471632 -0.11416006 0.38353042 255 12 12
-0.05994469 -0.11449395 0.38599896 255 12 12
-0.05527951 -0.11452569 0.38491627 255 12 12
-0.05067941 -0.11425634 0.38028216 255 12 12
-0.04581913 -0.11432346 0.37955817 255 12 12
-0.03691602 -0.11400254 0.37296636 255 12 12
-0.03208473 -0.11430469 0.37503968 255 12 12
-0.02785142 -0.11421104 0.37260455 255 12 12
-0.02391916 -0.11381135 0.36663304 255 12 12
-0.01929753 -0.11400966 0.36754007 255 12 12
-0.01440713 -0.11429143 0.36935311 255 12 12
-0.01008649 -0.11413518 0.36614810 255 12 12
-0.00536543 -0.11429743 0.36659628 255 12 12
-0.00066861 -0.11443265 0.36673124 255 12 12
0.00343528 -0.11429986 0.36387237 255 12 12
