ply
format ascii 1.0
element vertex 178
property float x
property float y
property float z
property uchar red
property uchar green
property uchar blue
end_header
0.13420642 -0.16916612 0.97385837 255 12 12
0.14895481 -0.16928005 0.97059697 255 12 12
0.16317503 -0.16919741 0.96516876 255 12 12
0.17734040 -0.16911546 0.95976590 255 12 12
0.19278211 -0.16938680 0.95815499 255 12 12
0.20805596 -0.16965831 0.95659856 255 12 12
0.22364405 -0.16999685 0.95573914 255 12 12
0.24060709 -0.17068811 0.95863386 255 12 12
0.24562147 -0.16099277 0.84204793 255 12 12
0.26054368 -0.16138561 0.84204079 255 12 12
0.27501161 -0.16173970 0.84171618 255 12 12
0.28966588 -0.16204976 0.84081096 255 12 12
0.30448092 -0.16236092 0.83986846 255 12 12
0.38141072 -0.17158798 0.92526859 255 12 12
0.76775814 -0.11584672 0.14315763 255 12 12
0.76626253 -0.11469440 0.12995524 255 12 12
0.75569831 -0.11314803 0.11491463 255 12 12
0.74405110 -0.11167489 0.10108150 255 12 12
0.71957139 -0.10879370 0.07455820 255 12 12
0.73724730 -0.10821753 0.06219432 255 12 12
0.75247228 -0.10754621 0.04946820 255 12 12
-0.01328002 -0.08438667 0.01423486 255 12 12
-0.01541851 -0.08435675 0.01454871 255 12 12
-0.01672696 -0.08430363 0.01432790 255 12 12
-0.02330098 -0.08424613 0.01570196 255 12 12
-0.02455519 -0.08420934 0.01565784 255 12 12
-0.02539849 -0.08416112 0.01534955 255 12 12
-0.03025328 -0.08412455 0.01643420 255 12 12
-0.03149543 -0.08403311 0.01573791 255 12 12
-0.03155460 -0.08396241 0.01491767 255 12 12
-0.03219033 -0.08391825 0.01459267 255 12 12
-0.03300142 -0.08388578 0.01446117 255 12 12
-0.03381696 -0.08385405 0.01433984 255 12 12
-0.03341233 -0.08360487 0.01125721 255 12 12
-0.03356985 -0.08353165 0.01043787 255 12 12
-0.03428453 -0.08348772 0.01014025 255 12 12
-0.03480313 -0.08343671 0.00969727 255 12 12
-0.03564538 -0.08341039 0.00964846 255 12 12
-0.03694839 -0.08342286 0.01020396 255 12 12
-0.03795859 -0.08341008 0.01036836 255 12 12
-0.04917379 -0.08406918 0.02169530 255 12 12
-0.04937795 -0.08402795 0.02127000 255 12 12
-0.04972169 -0.08400111 0.02105914 255 12 12
-0.04996089 -0.08395843 0.02062766 255 12 12
-0.05019811 -0.08391657 0.02020516 255 12 12
-0.04953811 -0.08367724 0.01715952 255 12 12
-0.04989879 -0.08362870 0.01669653 255 12 12
-0.04961905 -0.08339110 0.01379034 255 12 12
-0.04934725 -0.08313282 0.01064129 255 12 12
-0.04939596 -0.08301617 0.00927275 255 12 12
-0.04938475 -0.08288130 0.00766921 255 12 12
-0.04951715 -0.08276136 0.00628770 255 12 12
-0.05009450 -0.08272874 0.00608133 255 12 12
-0.05068523 -0.08269624 0.00588056 255 12 12
-0.05119328 -0.08264695 0.00545473 255 12 12
-0.05208097 -0.08268860 0.00622649 255 12 12
-0.05267939 -0.08265830 0.00605417 255 12 12
-0.05314211 -0.08259199 0.00541231 255 12 12
-0.05380346 -0.08258208 0.00550159 255 12 12
-0.05440306 -0.08255428 0.00535938 255 12 12
-0.05511001 -0.08256553 0.00571396 255 12 12
-0.05580353 -0.08257821 0.00608122 255 12 12
-0.05625929 -0.08249485 0.00523492 255 12 12
-0.05674012 -0.08241128 0.00439395 255 12 12
-0.05739953 -0.08242777 0.00479577 255 12 12
-0.05813298 -0.08248462 0.00569960 255 12 12
-0.05877781 -0.08250320 0.00612169 255 12 12
-0.05943394 -0.08254328 0.00680240 255 12 12
-0.06338444 -0.08353655 0.01982137 255 12 12
-0.06375596 -0.08352731 0.01982793 255 12 12
-0.06412389 -0.08353965 0.02008951 255 12 12
-0.06449109 -0.08353150 0.02010768 255 12 12
-0.06487573 -0.08350244 0.01988318 255 12 12
-0.06531718 -0.08372593 0.02267257 255 12 12
-0.06566697 -0.08369889 0.02246114 255 12 12
-0.06671203 -0.08364155 0.02210787 255 12 12
-0.06704120 -0.08363773 0.02216547 255 12 12
-0.06846742 -0.08358307 0.02196311 255 12 12
-0.06873516 -0.08360346 0.02228871 255 12 12
-0.06989619 -0.08364583 0.02315453 255 12 12
-0.07087175 -0.08371746 0.02430945 255 12 12
-0.07136565 -0.08367622 0.02397470 255 12 12
-0.08153182 -0.08219157 0.00954178 255 12 12
-0.08415645 -0.08215423 0.00991981 255 12 12
-0.08468321 -0.08216864 0.01025544 255 12 12
-0.08548306 -0.08214171 0.01018618 255 12 12
-0.08584517 -0.08217840 0.01073468 255 12 12
-0.08606762 -0.08223714 0.01150108 255 12 12
-0.08641177 -0.08227518 0.01206008 255 12 12
-0.08694231 -0.08237478 0.01340757 255 12 12
-0.08772991 -0.08235351 0.01340159 255 12 12
-0.08852361 -0.08233355 0.01341307 255 12 12
-0.08981583 -0.08225455 0.01288005 255 12 12
-0.09078003 -0.08221691 0.01273509 255 12 12
-0.09276503 -0.08214786 0.01253685 255 12 12
-0.09342518 -0.08215526 0.01283100 255 12 12
-0.09383097 -0.08217879 0.01323712 255 12 12
-0.09338450 -0.08230260 0.01456622 255 12 12
-0.09289712 -0.08242504 0.01586636 255 12 12
-0.09238474 -0.08254702 0.01715315 255 12 12
-0.09206265 -0.08265165 0.01829365 255 12 12
-0.09168460 -0.08275361 0.01938496 255 12 12
-0.09166686 -0.08281807 0.02014410 255 12 12
-0.09182847 -0.08286427 0.02074273 255 12 12
-0.09179780 -0.08293018 0.02151507 255 12 12
-0.09193896 -0.08297720 0.02211701 255 12 12
-0.09267224 -0.08297130 0.02227636 255 12 12
-0.09382412 -0.08293272 0.02217895 255 12 12
-0.09838701 -0.08274666 0.02139888 255 12 12
-0.09937235 -0.08273531 0.02157245 255 12 12
-0.10077501 -0.08269150 0.02149143 255 12 12
-0.10220007 -0.08265202 0.02146884 255 12 12
-0.10253614 -0.08269437 0.02207639 255 12 12
-0.10308426 -0.08272189 0.02257427 255 12 12
-0.10428501 -0.08270316 0.02272761 255 12 12
-0.10550117 -0.08268860 0.02293532 255 12 12
-0.10580869 -0.08273502 0.02358220 255 12 12
-0.10474219 -0.08287013 0.02485146 255 12 12
-0.10481006 -0.08293391 0.02562930 255 12 12
-0.09782246 -0.08357507 0.03104990 255 12 12
-0.10909726 -0.08321000 0.03024559 255 12 12
-0.09689282 -0.08401196 0.03594207 255 12 12
-0.09749538 -0.08403268 0.03637632 255 12 12
-0.09752238 -0.08416305 0.03793138 255 12 12
-0.09834179 -0.08417604 0.03834177 255 12 12
-0.10376410 -0.08413338 0.03953166 255 12 12
-0.70398098 -0.06536983 0.00467250 255 12 12
-0.70128168 -0.06629062 0.01475165 255 12 12
-0.69819507 -0.06727254 0.02543488 255 12 12
-0.69392237 -0.06823397 0.03550412 255 12 12
-0.46550865 -0.07556176 0.05099162 255 12 12
-0.46113412 -0.07611704 0.05621080 255 12 12
-0.46165138 -0.07661686 0.06230210 255 12 12
-0.46258020 -0.07710089 0.06833469 255 12 12
-0.46191345 -0.07762897 0.07439086 255 12 12
-0.45563966 -0.07829646 0.08034709 255 12 12
-0.44757330 -0.07895195 0.08560025 255 12 12
-0.44590039 -0.07947821 0.09132021 255 12 12
-0.48556267 -0.08058373 0.11684074 255 12 12
-0.49371054 -0.08106924 0.12514900 255 12 12
-0.48967907 -0.08169966 0.13136671 255 12 12
-0.50723534 -0.08273794 0.14917539 255 12 12
-0.50215361 -0.08337757 0.15517397 255 12 12
-0.49482122 -0.08401570 0.16045079 255 12 12
-0.48983333 -0.08463352 0.16621992 255 12 12
-0.48166170 -0.08524467 0.17091415 255 12 12
-0.47225789 -0.08583717 0.17500176 255 12 12
-0.46377582 -0.08641051 0.17915041 255 12 12
-0.46020904 -0.08698347 0.18483192 255 12 12
-0.46030819 -0.08757137 0.19183736 255 12 12
-0.45772394 -0.08814852 0.19787583 255 12 12
-0.45666637 -0.08873761 0.20453351 255 12 12
-0.45664514 -0.08934118 0.21168715 255 12 12
-0.45832134 -0.08997191 0.21969386 255 12 12
-0.47245379 -0.09143128 0.24142703 255 12 12
-0.46726136 -0.09197759 0.24628390 255 12 12
-0.46256590 -0.09254905 0.25159466 255 12 12
-0.46997467 -0.09402895 0.27146825 255 12 12
-0.46806807 -0.09473991 0.27930619 255 12 12
-0.46584957 -0.09540035 0.28644717 255 12 12
-0.46880344 -0.09620264 0.29688883 255 12 12
-0.09507713 -0.15321154 0.85630165 255 12 12
-0.08282644 -0.15429992 0.86538157 255 12 12
-0.07004586 -0.15507173 0.87054020 255 12 12
-0.05733419 -0.15584614 0.87575111 255 12 12
-0.04422882 -0.15663495 0.88100979 255 12 12
-0.03119721 -0.15738419 0.88582215 255 12 12
0.01795052 -0.16843006 1.00148890 255 12 12
0.03237593 -0.16848520 0.99763106 255 12 12
0.04638949 -0.16809170 0.98857973 255 12 12
0.06069819 -0.16804286 0.98352488 255 12 12
0.07509512 -0.16810293 0.97973445 255 12 12
0.08959135 -0.16837867 0.97847146 255 12 12
0.10486546 -0.16890019 0.97988090 255 12 12
0.11796998 -0.16905984 0.97767593 255 12 12
0.13181120 -0.16910278 0.97385612 255 12 12
0.14596240 -0.16928012 0.97153375 255 12 12
0.15921258 -0.16910958 0.96536621 255 12 12
