ply
format ascii 1.0
element vertex 311
property float x
property float y
property float z
property uchar red
property uchar green
property uchar blue
end_header
-0.04095483 -0.09396310 0.13649796 255 12 12
-0.03995465 -0.09392554 0.13573958 255 12 12
-0.03865139 -0.09399658 0.13617467 255 12 12
-0.03733427 -0.09406647 0.13659178 255 12 12
-0.03586474 -0.09417915 0.13746896 255 12 12
-0.03451488 -0.09424666 0.13784759 255 12 12
-0.02726395 -0.09529915 0.14806555 255 12 12
-0.02600373 -0.09529527 0.14762532 255 12 12
-0.02460462 -0.09533405 0.14764774 255 12 12
-0.02326040 -0.09534930 0.14740827 255 12 12
-0.02188787 -0.09536291 0.14714037 255 12 12
-0.02044942 -0.09539714 0.14709651 255 12 12
-0.01881090 -0.09547362 0.14749139 255 12 12
-0.01715667 -0.09554847 0.14786188 255 12 12
-0.01572187 -0.09557832 0.14776719 255 12 12
-0.01414859 -0.09562808 0.14786542 255 12 12
-0.01270312 -0.09565482 0.14773055 255 12 12
-0.01111439 -0.09570129 0.14778495 255 12 12
-0.00951704 -0.09567524 0.14697626 255 12 12
-0.00806875 -0.09567316 0.14649856 255 12 12
-0.00665200 -0.09566986 0.14601632 255 12 12
-0.00902905 -0.09480440 0.13649271 255 12 12
-0.00852244 -0.09467097 0.13475134 255 12 12
-0.00768401 -0.09460140 0.13366373 255 12 12
-0.00617464 -0.09463643 0.13360725 255 12 12
-0.00443692 -0.09471345 0.13397745 255 12 12
-0.00086221 -0.09486005 0.13459844 255 12 12
-0.00005107 -0.09478342 0.13343563 255 12 12
0.00047474 -0.09466317 0.13184464 255 12 12
0.00604802 -0.09506450 0.13486252 255 12 12
0.00806347 -0.09514666 0.13520678 255 12 12
0.01043249 -0.09526637 0.13588595 255 12 12
0.01935242 -0.09602759 0.14212650 255 12 12
0.02167291 -0.09611644 0.14245472 255 12 12
0.02272596 -0.09604004 0.14121892 255 12 12
0.02523393 -0.09614371 0.14166435 255 12 12
0.02776492 -0.09624410 0.14206366 255 12 12
0.02980528 -0.09628177 0.14187242 255 12 12
0.03153468 -0.09627593 0.14126217 255 12 12
0.03358708 -0.09630836 0.14100492 255 12 12
0.03582439 -0.09635746 0.14088758 255 12 12
0.03591789 -0.09617184 0.13865632 255 12 12
0.03507139 -0.09545519 0.13041937 255 12 12
0.03732017 -0.09545810 0.12975045 255 12 12
-0.02362348 -0.08489218 0.02346702 255 12 12
-0.01126109 -0.08448384 0.01475607 255 12 12
-0.01204960 -0.08443044 0.01436926 255 12 12
-0.01263162 -0.08437202 0.01385820 255 12 12
-0.01295490 -0.08431735 0.01331074 255 12 12
-0.01438342 -0.08428425 0.01336488 255 12 12
-0.01495684 -0.08423136 0.01291686 255 12 12
-0.02104758 -0.08420996 0.01456802 255 12 12
-0.02221443 -0.08418514 0.01463858 255 12 12
-0.02317023 -0.08415563 0.01458740 255 12 12
-0.02411350 -0.08412891 0.01456551 255 12 12
-0.02505957 -0.08410277 0.01455132 255 12 12
-0.02619044 -0.08408702 0.01471818 255 12 12
-0.02751593 -0.08408026 0.01505256 255 12 12
-0.02845486 -0.08405792 0.01508117 255 12 12
-0.03066330 -0.08403960 0.01555462 255 12 12
-0.03118636 -0.08400707 0.01533226 255 12 12
-0.03171008 -0.08397523 0.01511842 255 12 12
-0.03168127 -0.08391605 0.01440728 255 12 12
-0.03166509 -0.08385613 0.01369149 255 12 12
-0.03269108 -0.08380004 0.01334691 255 12 12
-0.03216207 -0.08370961 0.01210872 255 12 12
-0.03182359 -0.08362859 0.01104166 255 12 12
-0.03168696 -0.08355579 0.01013522 255 12 12
-0.03161387 -0.08347706 0.00917842 255 12 12
-0.03202528 -0.08343464 0.00880391 255 12 12
-0.03227577 -0.08338111 0.00824724 255 12 12
-0.03269836 -0.08333908 0.00788074 255 12 12
-0.03293507 -0.08328835 0.00735293 255 12 12
-0.03503797 -0.08330546 0.00821365 255 12 12
-0.03591377 -0.08330455 0.00847687 255 12 12
-0.03666551 -0.08328910 0.00852868 255 12 12
-0.05013431 -0.08409224 0.02226926 255 12 12
-0.05039541 -0.08397444 0.02095350 255 12 12
-0.04923403 -0.08365118 0.01675525 255 12 12
-0.04938804 -0.08352271 0.01527936 255 12 12
-0.04820721 -0.08318215 0.01086995 255 12 12
-0.04827523 -0.08301673 0.00892885 255 12 12
-0.04860160 -0.08297365 0.00851981 255 12 12
-0.04883226 -0.08291418 0.00788644 255 12 12
-0.04890375 -0.08281949 0.00678553 255 12 12
-0.04922466 -0.08277821 0.00639613 255 12 12
-0.04944127 -0.08258706 0.00419630 255 12 12
-0.04999193 -0.08257890 0.00427166 255 12 12
-0.05086852 -0.08264215 0.00529623 255 12 12
-0.05162281 -0.08269040 0.00610452 255 12 12
-0.05207031 -0.08266723 0.00596963 255 12 12
-0.05245091 -0.08262607 0.00560039 255 12 12
-0.05272863 -0.08254691 0.00474823 255 12 12
-0.05326549 -0.08254263 0.00486534 255 12 12
-0.05384706 -0.08255840 0.00523434 255 12 12
-0.05425873 -0.08251776 0.00488098 255 12 12
-0.05479710 -0.08253647 0.00527135 255 12 12
-0.05530547 -0.08253547 0.00541850 255 12 12
-0.05560639 -0.08245821 0.00459603 255 12 12
-0.05598156 -0.08239965 0.00401871 255 12 12
-0.05643339 -0.08235977 0.00368689 255 12 12
-0.05679245 -0.08228156 0.00287137 255 12 12
-0.05809743 -0.08244358 0.00520157 255 12 12
-0.05857635 -0.08242591 0.00514173 255 12 12
-0.05915363 -0.08248976 0.00607986 255 12 12
-0.06026907 -0.08266247 0.00847759 255 12 12
-0.06225046 -0.08337868 0.01759385 255 12 12
-0.06319225 -0.08354152 0.01982028 255 12 12
-0.06483483 -0.08356642 0.02062944 255 12 12
-0.06508601 -0.08358255 0.02089934 255 12 12
-0.06537868 -0.08355602 0.02067610 255 12 12
-0.06565015 -0.08355124 0.02070430 255 12 12
-0.06587366 -0.08358981 0.02123176 255 12 12
-0.06651671 -0.08351662 0.02056462 255 12 12
-0.06675665 -0.08353463 0.02085342 255 12 12
-0.06690611 -0.08357533 0.02138291 255 12 12
-0.06718274 -0.08367898 0.02269905 255 12 12
-0.06752459 -0.08363292 0.02225962 255 12 12
-0.06785323 -0.08360870 0.02207513 255 12 12
-0.06822042 -0.08356299 0.02164763 255 12 12
-0.06938427 -0.08351427 0.02143373 255 12 12
-0.06979105 -0.08362360 0.02285797 255 12 12
-0.06987723 -0.08366793 0.02341079 255 12 12
-0.07003333 -0.08369052 0.02372759 255 12 12
-0.07155591 -0.08349645 0.02190157 255 12 12
-0.07793010 -0.08262569 0.01356525 255 12 12
-0.08066805 -0.08227065 0.01020975 255 12 12
-0.08144949 -0.08221386 0.00978048 255 12 12
-0.08228276 -0.08213468 0.00910179 255 12 12
-0.08425016 -0.08196005 0.00764549 255 12 12
-0.08468731 -0.08197053 0.00790655 255 12 12
-0.08496056 -0.08200209 0.00836635 255 12 12
-0.08551370 -0.08199204 0.00842024 255 12 12
-0.08593179 -0.08200380 0.00869048 255 12 12
-0.08578901 -0.08210038 0.00979151 255 12 12
-0.08621784 -0.08211370 0.01008372 255 12 12
-0.08648032 -0.08214790 0.01057150 255 12 12
-0.08628449 -0.08224462 0.01165766 255 12 12
-0.08652269 -0.08227921 0.01214253 255 12 12
-0.08690437 -0.08229346 0.01243093 255 12 12
-0.08712815 -0.08232875 0.01291956 255 12 12
-0.08749200 -0.08234352 0.01320867 255 12 12
-0.08981366 -0.08217144 0.01189337 255 12 12
-0.09035328 -0.08216845 0.01202668 255 12 12
-0.09072774 -0.08218620 0.01235445 255 12 12
-0.09143428 -0.08216455 0.01231859 255 12 12
-0.09234145 -0.08212533 0.01213703 255 12 12
-0.09255030 -0.08216529 0.01267638 255 12 12
-0.09291684 -0.08218546 0.01303036 255 12 12
-0.09346423 -0.08218713 0.01322135 255 12 12
-0.09358038 -0.08222385 0.01369334 255 12 12
-0.09392662 -0.08224489 0.01405118 255 12 12
-0.09389539 -0.08230409 0.01474377 255 12 12
-0.09330597 -0.08242068 0.01594245 255 12 12
-0.09228566 -0.08263536 0.01817020 255 12 12
-0.09296763 -0.08261985 0.01819948 255 12 12
-0.09326766 -0.08264215 0.01855791 255 12 12
-0.09259685 -0.08275673 0.01970730 255 12 12
-0.09248574 -0.08281536 0.02036811 255 12 12
-0.09275969 -0.08283785 0.02072057 255 12 12
-0.09262908 -0.08289635 0.02137372 255 12 12
-0.09248705 -0.08295461 0.02202044 255 12 12
-0.09422338 -0.08289694 0.02187939 255 12 12
-0.09682394 -0.08277725 0.02127293 255 12 12
-0.09813899 -0.08272021 0.02100761 255 12 12
-0.09925314 -0.08268194 0.02090208 255 12 12
-0.09994758 -0.08267844 0.02107776 255 12 12
-0.10022457 -0.08271007 0.02153954 255 12 12
-0.10227160 -0.08266088 0.02159631 255 12 12
-0.10231642 -0.08271013 0.02219461 255 12 12
-0.10343512 -0.08267850 0.02216930 255 12 12
-0.10479899 -0.08263561 0.02208703 255 12 12
-0.10594098 -0.08260939 0.02213323 255 12 12
-0.10754344 -0.08255588 0.02199961 255 12 12
-0.10804056 -0.08258188 0.02246349 255 12 12
-0.10761100 -0.08266544 0.02332046 255 12 12
-0.10716192 -0.08274735 0.02415174 255 12 12
-0.10693447 -0.08281512 0.02488457 255 12 12
-0.09720342 -0.08357099 0.03080787 255 12 12
-0.10731875 -0.08319686 0.02953344 255 12 12
-0.10849780 -0.08327931 0.03088026 255 12 12
-0.10078933 -0.08374269 0.03396641 255 12 12
-0.09914677 -0.08393466 0.03573000 255 12 12
-0.09972966 -0.08394915 0.03608419 255 12 12
-0.09981596 -0.08398459 0.03653169 255 12 12
-0.09978111 -0.08409465 0.03782641 255 12 12
-0.10083338 -0.08409163 0.03811977 255 12 12
-0.10268212 -0.08409982 0.03879518 255 12 12
-0.10801195 -0.08400523 0.03934007 255 12 12
-0.56596089 -0.06959336 0.01160691 255 12 12
-0.55808333 -0.07034354 0.01804257 255 12 12
-0.55337010 -0.07098335 0.02415847 255 12 12
-0.55532614 -0.07142215 0.02997590 255 12 12
-0.65523865 -0.07035208 0.04853214 255 12 12
-0.65339893 -0.07099435 0.05557613 255 12 12
-0.65347339 -0.07158802 0.06264220 255 12 12
-0.65620922 -0.07212217 0.06983464 255 12 12
-0.66584369 -0.07251363 0.07749207 255 12 12
-0.67338341 -0.07296845 0.08524597 255 12 12
-0.67434486 -0.07356813 0.09266083 255 12 12
-0.68120405 -0.07404736 0.10049138 255 12 12
-0.68071338 -0.09087052 0.29991426 255 12 12
-0.68517503 -0.09164790 0.31053202 255 12 12
-0.69472414 -0.09249985 0.32362562 255 12 12
-0.69472907 -0.09326581 0.33271382 255 12 12
-0.69347572 -0.09402325 0.34130744 255 12 12
-0.69749851 -0.09486417 0.35254172 255 12 12
-0.68816257 -0.09551072 0.35729171 255 12 12
-0.67316794 -0.09606322 0.35915612 255 12 12
-0.67132259 -0.09681344 0.36747897 255 12 12
-0.67440466 -0.09766692 0.37856793 255 12 12
-0.67099350 -0.09840135 0.38621373 255 12 12
-0.66739043 -0.09915183 0.39398979 255 12 12
-0.60108220 -0.09987713 0.38185427 255 12 12
-0.59415944 -0.10046261 0.38663462 255 12 12
-0.58833601 -0.10105540 0.39184550 255 12 12
-0.58246350 -0.10164189 0.39696639 255 12 12
-0.57818199 -0.10227536 0.40314217 255 12 12
-0.57321700 -0.10288566 0.40882935 255 12 12
-0.56637692 -0.10342745 0.41311723 255 12 12
-0.56030526 -0.10399034 0.41789578 255 12 12
-0.55438866 -0.10455426 0.42273503 255 12 12
-0.54734291 -0.10508625 0.42684235 255 12 12
-0.54037572 -0.10559554 0.43070503 255 12 12
-0.53338520 -0.10609607 0.43445635 255 12 12
-0.52694343 -0.10661373 0.43858259 255 12 12
-0.52130157 -0.10718180 0.44355711 255 12 12
-0.51553130 -0.10772224 0.44816359 255 12 12
-0.51026830 -0.10828521 0.45319608 255 12 12
-0.50494904 -0.10884395 0.45816075 255 12 12
-0.49815121 -0.10937816 0.46237192 255 12 12
-0.49190398 -0.10989896 0.46659629 255 12 12
-0.48608597 -0.11042117 0.47097153 255 12 12
-0.48045302 -0.11097173 0.47574104 255 12 12
-0.47495267 -0.11146903 0.47992023 255 12 12
-0.46917005 -0.11198652 0.48425067 255 12 12
-0.46384302 -0.11253261 0.48906279 255 12 12
-0.45895237 -0.11310925 0.49437393 255 12 12
-0.45431605 -0.11370669 0.50001130 255 12 12
-0.44928037 -0.11427844 0.50521904 255 12 12
-0.44401748 -0.11483524 0.51017822 255 12 12
-0.43791305 -0.11532683 0.51410080 255 12 12
-0.43255751 -0.11590022 0.51922792 255 12 12
-0.42786591 -0.11650982 0.52499219 255 12 12
-0.42338488 -0.11714399 0.53111396 255 12 12
-0.41851684 -0.11775098 0.53679210 255 12 12
-0.41185025 -0.11821994 0.54027036 255 12 12
-0.40571061 -0.11871183 0.54418531 255 12 12
-0.40021863 -0.11926783 0.54906343 255 12 12
-0.39425046 -0.11977841 0.55325382 255 12 12
-0.38835574 -0.12032413 0.55788407 255 12 12
-0.38214604 -0.12081140 0.56172234 255 12 12
-0.37576222 -0.12127891 0.56527183 255 12 12
-0.36908730 -0.12171116 0.56831184 255 12 12
-0.36125595 -0.12202715 0.56961105 255 12 12
-0.35298091 -0.12224663 0.56962643 255 12 12
-0.11942556 -0.09342017 0.15460118 255 12 12
-0.11808249 -0.09351133 0.15526262 255 12 12
-0.11697654 -0.09363165 0.15634407 255 12 12
-0.11561260 -0.09372089 0.15697604 255 12 12
-0.11377245 -0.09374679 0.15670783 255 12 12
-0.11230549 -0.09381620 0.15707240 255 12 12
-0.11083696 -0.09388407 0.15741823 255 12 12
-0.10899411 -0.09388224 0.15682002 255 12 12
-0.10750320 -0.09394818 0.15713604 255 12 12
-0.10586737 -0.09397598 0.15695411 255 12 12
-0.10407267 -0.09396652 0.15628051 255 12 12
-0.10254617 -0.09400732 0.15628711 255 12 12
-0.10083632 -0.09401225 0.15581075 255 12 12
-0.09940333 -0.09406702 0.15601232 255 12 12
-0.09775081 -0.09406579 0.15548090 255 12 12
-0.09562296 -0.09393403 0.15325222 255 12 12
-0.09392941 -0.09391000 0.15243748 255 12 12
-0.09209650 -0.09382602 0.15086791 255 12 12
-0.09018231 -0.09370113 0.14878751 255 12 12
-0.08855764 -0.09364776 0.14764626 255 12 12
-0.08718789 -0.09366761 0.14745333 255 12 12
-0.08392289 -0.09349031 0.14432868 255 12 12
-0.08232830 -0.09338734 0.14260845 255 12 12
-0.08101588 -0.09339945 0.14234156 255 12 12
-0.07986325 -0.09346769 0.14279061 255 12 12
-0.07832064 -0.09333749 0.14076352 255 12 12
-0.07721641 -0.09342262 0.14142810 255 12 12
-0.07340345 -0.09451118 0.15314929 255 12 12
-0.07201986 -0.09449423 0.15251534 255 12 12
-0.07064019 -0.09449684 0.15211479 255 12 12
-0.06935722 -0.09457919 0.15269049 255 12 12
-0.06799855 -0.09459943 0.15250561 255 12 12
-0.06667301 -0.09453328 0.15130624 255 12 12
-0.06537200 -0.09457018 0.15133705 255 12 12
-0.06407267 -0.09462672 0.15160142 255 12 12
-0.06276822 -0.09466109 0.15160110 255 12 12
-0.06143420 -0.09469487 0.15158463 255 12 12
-0.06012300 -0.09474774 0.15180176 255 12 12
-0.05882639 -0.09475694 0.15150529 255 12 12
-0.05754947 -0.09474335 0.15094473 255 12 12
-0.05620765 -0.09479292 0.15111306 255 12 12
-0.05496679 -0.09475488 0.15027369 255 12 12
-0.05365664 -0.09480114 0.15041268 255 12 12
-0.05231679 -0.09486773 0.15078350 255 12 12
-0.05113404 -0.09478245 0.14940192 255 12 12
-0.05001225 -0.09469482 0.14801152 255 12 12
-0.04895620 -0.09458372 0.14636311 255 12 12
-0.04782668 -0.09453599 0.14544366 255 12 12
-0.04667714 -0.09450850 0.14475801 255 12 12
-0.04567076 -0.09441414 0.14332375 255 12 12
-0.04483423 -0.09425262 0.14114598 255 12 12
-0.04394976 -0.09413310 0.13945139 255 12 12
-0.04292185 -0.09407791 0.13847525 255 12 12
-0.04177637 -0.09408687 0.13822325 255 12 12
-0.04004062 -0.09390345 0.13550442 255 12 12
