ply
format ascii 1.0
element vertex 60
property float x
property float y
property float z
property uchar red
property uchar green
property uchar blue
end_header
0.04126021 -0.12425898 0.47018830 255 12 12
-0.69549096 -0.10872007 0.51628889 255 12 12
-0.68476234 -0.10956232 0.52292494 255 12 12
-0.67163024 -0.11029248 0.52747954 255 12 12
-0.51364099 -0.10674669 0.43599921 255 12 12
-0.50472247 -0.10731945 0.44000442 255 12 12
-0.49516078 -0.10782705 0.44303550 255 12 12
-0.48585709 -0.10835022 0.44633185 255 12 12
-0.47559307 -0.10878489 0.44827806 255 12 12
-0.46560354 -0.10923351 0.45047555 255 12 12
-0.45151835 -0.10952205 0.44949308 255 12 12
-0.44118713 -0.10991702 0.45094721 255 12 12
-0.43474277 -0.11055111 0.45645394 255 12 12
-0.42427847 -0.11090185 0.45734173 255 12 12
-0.41598875 -0.11132925 0.45981923 255 12 12
-0.40715670 -0.11174135 0.46194559 255 12 12
-0.39771766 -0.11208930 0.46312095 255 12 12
-0.38862598 -0.11244561 0.46450426 255 12 12
-0.38136374 -0.11294095 0.46810902 255 12 12
-0.37347943 -0.11337424 0.47078322 255 12 12
-0.36242726 -0.11350055 0.46882477 255 12 12
-0.35347107 -0.11379548 0.46952229 255 12 12
-0.34444457 -0.11408426 0.47012475 255 12 12
-0.33692576 -0.11448976 0.47258352 255 12 12
-0.32965797 -0.11491362 0.47533860 255 12 12
-0.32057945 -0.11512207 0.47497192 255 12 12
-0.31231922 -0.11540371 0.47572946 255 12 12
-0.30336618 -0.11558074 0.47502930 255 12 12
-0.29236617 -0.11546388 0.47020230 255 12 12
-0.24010099 -0.11201970 0.41299582 255 12 12
-0.21822673 -0.11103308 0.39444960 255 12 12
-0.21068789 -0.11093216 0.39089435 255 12 12
-0.20403598 -0.11099699 0.38958287 255 12 12
-0.18686469 -0.11027244 0.37561651 255 12 12
-0.18009497 -0.11020916 0.37274830 255 12 12
-0.16403387 -0.10931194 0.35708084 255 12 12
-0.15792255 -0.10921429 0.35401093 255 12 12
-0.15135888 -0.10897987 0.34917699 255 12 12
-0.14511310 -0.10874491 0.34443599 255 12 12
-0.14106902 -0.10911392 0.34754880 255 12 12
-0.13642591 -0.10931030 0.34842615 255 12 12
-0.13076449 -0.10918056 0.34511624 255 12 12
-0.12606464 -0.10932419 0.34535019 255 12 12
-0.12118427 -0.10938395 0.34453265 255 12 12
-0.11582145 -0.10920164 0.34069248 255 12 12
-0.09937897 -0.12148563 0.48127683 255 12 12
-0.09288581 -0.12182277 0.48324537 255 12 12
-0.08602846 -0.12165805 0.47914647 255 12 12
-0.07899138 -0.12132204 0.47295920 255 12 12
-0.07235347 -0.12130190 0.47064413 255 12 12
-0.06591866 -0.12143584 0.47022039 255 12 12
-0.05938603 -0.12152215 0.46920104 255 12 12
-0.05289338 -0.12197718 0.47256832 255 12 12
-0.04037628 -0.12146527 0.46258034 255 12 12
-0.03357217 -0.12207085 0.46763623 255 12 12
-0.02697798 -0.12241135 0.46961316 255 12 12
-0.02034939 -0.12261778 0.46998884 255 12 12
-0.01479017 -0.12207943 0.46186348 255 12 12
-0.00838087 -0.12218099 0.46106350 255 12 12
0.01419813 -0.12106090 0.44071339 255 12 12
