ply
format ascii 1.0
element vertex 98
property float x
property float y
property float z
property uchar red
property uchar green
property uchar blue
end_header
-0.07985372 -0.08390408 0.02933273 255 12 12
-0.07985306 -0.08393695 0.02972244 255 12 12
-0.07964903 -0.08398796 0.03026383 255 12 12
-0.07963107 -0.08402058 0.03064515 255 12 12
-0.08016960 -0.08418183 0.03272659 255 12 12
-0.08797944 -0.08372733 0.02977748 255 12 12
-0.09326465 -0.08348759 0.02858651 255 12 12
-0.09392666 -0.08348892 0.02880938 255 12 12
-0.09481585 -0.08347695 0.02894548 255 12 12
-0.09545534 -0.08347742 0.02915110 255 12 12
-0.09815605 -0.08340409 0.02912583 255 12 12
-0.10041411 -0.08336895 0.02941527 255 12 12
-0.10178432 -0.08334207 0.02952497 255 12 12
-0.10514638 -0.08337510 0.03096837 255 12 12
-0.10040822 -0.08371249 0.03348893 255 12 12
-0.10431697 -0.08362521 0.03367605 255 12 12
-0.10371557 -0.08370266 0.03440679 255 12 12
-0.10383839 -0.08374779 0.03498055 255 12 12
-0.11266368 -0.08361287 0.03614041 255 12 12
-0.11565505 -0.08368338 0.03791253 255 12 12
-0.88437311 -0.08846758 0.33510857 255 12 12
-0.86657172 -0.08948654 0.34162875 255 12 12
-0.85263099 -0.09051383 0.34945529 255 12 12
-0.83347147 -0.09143310 0.35436802 255 12 12
-0.81355199 -0.09232538 0.35872292 255 12 12
-0.63839060 -0.09236747 0.30443511 255 12 12
-0.62800484 -0.09307616 0.30959392 255 12 12
-0.61743964 -0.09374703 0.31424799 255 12 12
-0.60440340 -0.09435767 0.31741465 255 12 12
-0.59559552 -0.09501637 0.32247403 255 12 12
-0.58599066 -0.09575351 0.32821463 255 12 12
-0.57477506 -0.09636133 0.33191731 255 12 12
-0.48923464 -0.09660546 0.30805806 255 12 12
-0.47589865 -0.09695936 0.30808521 255 12 12
-0.46480819 -0.09733357 0.30905569 255 12 12
-0.43475746 -0.09775992 0.30471416 255 12 12
-0.41150516 -0.09827283 0.30352605 255 12 12
-0.40790392 -0.09880062 0.30866091 255 12 12
-0.39862169 -0.09908672 0.30915172 255 12 12
-0.37460911 -0.09936436 0.30493477 255 12 12
-0.36814704 -0.09971698 0.30709669 255 12 12
-0.29458656 -0.09780453 0.26140069 255 12 12
-0.28943471 -0.09805753 0.26279071 255 12 12
-0.28522474 -0.09840662 0.26561519 255 12 12
-0.26676069 -0.09837568 0.25947288 255 12 12
-0.25030755 -0.09830644 0.25350525 255 12 12
-0.24724526 -0.09861198 0.25617212 255 12 12
-0.24307918 -0.09882590 0.25740688 255 12 12
-0.23854050 -0.09901474 0.25822748 255 12 12
-0.23634059 -0.09938221 0.26189873 255 12 12
-0.22507254 -0.09953049 0.26013341 255 12 12
-0.22220880 -0.09983417 0.26284024 255 12 12
-0.20926361 -0.09975598 0.25786369 255 12 12
-0.20462930 -0.09985987 0.25764661 255 12 12
-0.19962859 -0.09991279 0.25671038 255 12 12
-0.19513689 -0.09999464 0.25627646 255 12 12
-0.19139683 -0.10016080 0.25707784 255 12 12
-0.18834593 -0.10039161 0.25886162 255 12 12
-0.18386709 -0.10045741 0.25824131 255 12 12
-0.18080016 -0.10067964 0.25991850 255 12 12
-0.17672325 -0.10077842 0.25981512 255 12 12
-0.16728512 -0.10148841 0.26528579 255 12 12
-0.16461214 -0.10180004 0.26814668 255 12 12
-0.16078608 -0.10192725 0.26845906 255 12 12
-0.15544019 -0.10177857 0.26502319 255 12 12
-0.15067368 -0.10165823 0.26210468 255 12 12
-0.14865344 -0.10207043 0.26636275 255 12 12
-0.14669924 -0.10251923 0.27107575 255 12 12
-0.14347211 -0.10272293 0.27248290 255 12 12
-0.14004727 -0.10286645 0.27311423 255 12 12
-0.12246692 -0.10349817 0.27510965 255 12 12
-0.11910065 -0.10365622 0.27593178 255 12 12
-0.11018446 -0.10315392 0.26718410 255 12 12
-0.10693400 -0.10329410 0.26783036 255 12 12
-0.09207697 -0.10309974 0.26087764 255 12 12
-0.08903433 -0.10333827 0.26275564 255 12 12
-0.08542463 -0.10321255 0.26013520 255 12 12
-0.08244236 -0.10318800 0.25891111 255 12 12
-0.07929532 -0.10327090 0.25891034 255 12 12
-0.07619692 -0.10341158 0.25961012 255 12 12
-0.07320595 -0.10377646 0.26300326 255 12 12
-0.07003421 -0.10391169 0.26361536 255 12 12
-0.06676453 -0.10362570 0.25920001 255 12 12
-0.06362952 -0.10356320 0.25747798 255 12 12
-0.06048572 -0.10389610 0.26044392 255 12 12
-0.05719716 -0.10403968 0.26111863 255 12 12
-0.04810769 -0.10365130 0.25366817 255 12 12
-0.04120550 -0.10456199 0.26231298 255 12 12
-0.03780282 -0.10478932 0.26394557 255 12 12
-0.03479695 -0.10471027 0.26206755 255 12 12
-0.03197498 -0.10437004 0.25714866 255 12 12
-0.02881728 -0.10441210 0.25666005 255 12 12
-0.02571028 -0.10442826 0.25587990 255 12 12
-0.02322795 -0.10415614 0.25187520 255 12 12
-0.02067158 -0.10403065 0.24958698 255 12 12
-0.01725226 -0.10423075 0.25089126 255 12 12
-0.01424476 -0.10425185 0.25020087 255 12 12
-0.01185590 -0.10404943 0.24705237 255 12 12
