ply
format ascii 1.0
element vertex 57
property float x
property float y
property float z
property uchar red
property uchar green
property uchar blue
end_header
-0.76941805 -0.09429999 0.36834379 255 12 12
-0.75725482 -0.09521560 0.37540141 255 12 12
-0.74011430 -0.09603162 0.37972081 255 12 12
-0.71944706 -0.09674925 0.38176986 255 12 12
-0.70107667 -0.09746014 0.38445736 255 12 12
-0.55743121 -0.09648869 0.32800335 255 12 12
-0.54401258 -0.09701964 0.33010503 255 12 12
-0.53000802 -0.09750409 0.33147176 255 12 12
-0.51804990 -0.09799604 0.33356765 255 12 12
-0.50501198 -0.09844399 0.33480368 255 12 12
-0.47228364 -0.09901065 0.33128930 255 12 12
-0.43882211 -0.09932712 0.32457755 255 12 12
-0.39925834 -0.09993957 0.31946837 255 12 12
-0.38992870 -0.10023805 0.32009113 255 12 12
-0.37670479 -0.10033007 0.31704662 255 12 12
-0.34080198 -0.09991304 0.30086961 255 12 12
-0.28917354 -0.09832695 0.26590514 255 12 12
-0.28475363 -0.09863552 0.26818326 255 12 12
-0.27988148 -0.09898380 0.27079116 255 12 12
-0.27495919 -0.09926984 0.27264484 255 12 12
-0.27209346 -0.09967694 0.27657802 255 12 12
-0.26647290 -0.09990410 0.27751479 255 12 12
-0.25932639 -0.09994139 0.27572189 255 12 12
-0.24325352 -0.09989305 0.27012122 255 12 12
-0.23738934 -0.10000490 0.26961387 255 12 12
-0.23193056 -0.10017855 0.26996653 255 12 12
-0.19900052 -0.09888407 0.24430999 255 12 12
-0.18526481 -0.09854285 0.23596579 255 12 12
-0.18131239 -0.09865500 0.23605993 255 12 12
-0.17713027 -0.09873072 0.23565013 255 12 12
-0.16578552 -0.09850777 0.22945683 255 12 12
-0.15736210 -0.09853319 0.22712376 255 12 12
-0.13995356 -0.09773622 0.21222402 255 12 12
-0.13218859 -0.09758235 0.20796991 255 12 12
-0.12537346 -0.09753760 0.20530738 255 12 12
-0.12305690 -0.09771587 0.20669770 255 12 12
-0.12017447 -0.09778850 0.20665776 255 12 12
-0.11155286 -0.09719227 0.19688790 255 12 12
-0.10842323 -0.09785620 0.20378539 255 12 12
-0.10660491 -0.09905194 0.21740192 255 12 12
-0.10383937 -0.10021310 0.23031194 255 12 12
-0.09951398 -0.10257727 0.25700558 255 12 12
-0.09644081 -0.10308194 0.26203142 255 12 12
-0.08901038 -0.10297965 0.25849384 255 12 12
-0.08584989 -0.10330329 0.26134470 255 12 12
-0.08287998 -0.10336300 0.26112405 255 12 12
-0.07581073 -0.10296083 0.25414193 255 12 12
-0.07253444 -0.10297679 0.25330648 255 12 12
-0.06908680 -0.10274138 0.24943541 255 12 12
-0.06587480 -0.10249503 0.24550827 255 12 12
-0.05959867 -0.10303615 0.24996473 255 12 12
-0.05657710 -0.10302495 0.24888673 255 12 12
-0.05061608 -0.10277896 0.24410398 255 12 12
-0.04738475 -0.10301291 0.24586870 255 12 12
-0.04181986 -0.09752634 0.17903985 255 12 12
-0.04042788 -0.09718170 0.17451593 255 12 12
-0.03856836 -0.09711675 0.17316388 255 12 12
