ply
format ascii 1.0
element vertex 206
property float x
property float y
property float z
property uchar red
property uchar green
property uchar blue
end_header
-0.01091225 -0.10457379 0.25297777 255 12 12
-0.05049303 -0.08277333 0.00673501 255 12 12
-0.05107193 -0.08276382 0.00680330 255 12 12
-0.05149550 -0.08271910 0.00640523 255 12 12
-0.05201016 -0.08269224 0.00624757 255 12 12
-0.05265476 -0.08270320 0.00657914 255 12 12
-0.05322409 -0.08252293 0.00461862 255 12 12
-0.05389206 -0.08253468 0.00496705 255 12 12
-0.05448219 -0.08252914 0.00508580 255 12 12
-0.05505684 -0.08252493 0.00521565 255 12 12
-0.05568553 -0.08254045 0.00559636 255 12 12
-0.05618024 -0.08251949 0.00550254 255 12 12
-0.05669684 -0.08249822 0.00541169 255 12 12
-0.05721465 -0.08247750 0.00532788 255 12 12
-0.05773357 -0.08245735 0.00525111 255 12 12
-0.05833679 -0.08243468 0.00517090 255 12 12
-0.05959343 -0.08253775 0.00678669 255 12 12
-0.06092961 -0.08289360 0.01142619 255 12 12
-0.06255752 -0.08368494 0.02132312 255 12 12
-0.06283932 -0.08367701 0.02131725 255 12 12
-0.06313841 -0.08364794 0.02106584 255 12 12
-0.06343641 -0.08368223 0.02156584 255 12 12
-0.06372678 -0.08369605 0.02182067 255 12 12
-0.06404692 -0.08366751 0.02158218 255 12 12
-0.06436214 -0.08363944 0.02134785 255 12 12
-0.06466148 -0.08363310 0.02136625 255 12 12
-0.06498653 -0.08360554 0.02114094 255 12 12
-0.06529471 -0.08359973 0.02116843 255 12 12
-0.06683431 -0.08357620 0.02137080 255 12 12
-0.06769549 -0.08358853 0.02178646 255 12 12
-0.06988583 -0.08362370 0.02288883 255 12 12
-0.07016929 -0.08362425 0.02298402 255 12 12
-0.07036716 -0.08364715 0.02331748 255 12 12
-0.07038209 -0.08371430 0.02411875 255 12 12
-0.07072858 -0.08369386 0.02398464 255 12 12
-0.07109055 -0.08367386 0.02386070 255 12 12
-0.07135510 -0.08367612 0.02397025 255 12 12
-0.07911655 -0.08245665 0.01193107 255 12 12
-0.08351308 -0.08199200 0.00779394 255 12 12
-0.08405439 -0.08200423 0.00810839 255 12 12
-0.08442851 -0.08201324 0.00833222 255 12 12
-0.08459277 -0.08216609 0.01019698 255 12 12
-0.08533795 -0.08213737 0.01008929 255 12 12
-0.08566672 -0.08217274 0.01061169 255 12 12
-0.08598512 -0.08220859 0.01113664 255 12 12
-0.08628449 -0.08224462 0.01165766 255 12 12
-0.08628261 -0.08232285 0.01258516 255 12 12
-0.08653962 -0.08235890 0.01309319 255 12 12
-0.08695865 -0.08237544 0.01342051 255 12 12
-0.08874664 -0.08228859 0.01294945 255 12 12
-0.08936382 -0.08228903 0.01314764 255 12 12
-0.09012235 -0.08226922 0.01314990 255 12 12
-0.09105484 -0.08223067 0.01298428 255 12 12
-0.09182604 -0.08221335 0.01302003 255 12 12
-0.09223757 -0.08223560 0.01341274 255 12 12
-0.09283620 -0.08223990 0.01365092 255 12 12
-0.09342586 -0.08224466 0.01389182 255 12 12
-0.09347868 -0.08230844 0.01466503 255 12 12
-0.09294212 -0.08242795 0.01591492 255 12 12
-0.09257779 -0.08252860 0.01699500 255 12 12
-0.09218919 -0.08262858 0.01805950 255 12 12
-0.09196716 -0.08270925 0.01894710 255 12 12
-0.09213098 -0.08275413 0.01953074 255 12 12
-0.09207609 -0.08281648 0.02025331 255 12 12
-0.09200043 -0.08287819 0.02096162 255 12 12
-0.09171720 -0.08295808 0.02182086 255 12 12
-0.09241118 -0.08294788 0.02191693 255 12 12
-0.09270672 -0.08297445 0.02232452 255 12 12
-0.09744534 -0.08280326 0.02177577 255 12 12
-0.09997376 -0.08272225 0.02160561 255 12 12
-0.10135099 -0.08267621 0.02149018 255 12 12
-0.10187034 -0.08269716 0.02190122 255 12 12
-0.10194536 -0.08275050 0.02255745 255 12 12
-0.10457041 -0.08269667 0.02273988 255 12 12
-0.10576533 -0.08267936 0.02290836 255 12 12
-0.10628372 -0.08270882 0.02341998 255 12 12
-0.10565506 -0.08281200 0.02444738 255 12 12
-0.10498617 -0.08291052 0.02540689 255 12 12
-0.10408225 -0.08302425 0.02647336 255 12 12
-0.10841668 -0.08318227 0.02970374 255 12 12
-0.10836587 -0.08324338 0.03041279 255 12 12
-0.09867356 -0.08386660 0.03477457 255 12 12
-0.09639284 -0.08413556 0.03725197 255 12 12
-0.09753697 -0.08417053 0.03802471 255 12 12
-0.10040756 -0.08415284 0.03871263 255 12 12
-0.10047047 -0.08419641 0.03924921 255 12 12
-0.44498311 -0.07338945 0.01880120 255 12 12
-0.44880384 -0.07373804 0.02413165 255 12 12
-0.45354422 -0.07405931 0.02942559 255 12 12
-0.45546512 -0.07447977 0.03501440 255 12 12
-0.45530096 -0.07491578 0.04013547 255 12 12
-0.45006982 -0.07551816 0.04564552 255 12 12
-0.44501325 -0.07609508 0.05090804 255 12 12
-0.44887428 -0.07645966 0.05644075 255 12 12
-0.48229390 -0.07667591 0.06945919 255 12 12
-0.48439264 -0.07712611 0.07545645 255 12 12
-0.48017116 -0.07771035 0.08106695 255 12 12
-0.47264350 -0.07834362 0.08622501 255 12 12
-0.47398931 -0.07881547 0.09224368 255 12 12
-0.47749070 -0.07925003 0.09849408 255 12 12
-0.47222476 -0.07982643 0.10368493 255 12 12
-0.46592284 -0.08052835 0.11004077 255 12 12
-0.45627660 -0.08115783 0.11449125 255 12 12
-0.45051289 -0.08172699 0.11944055 255 12 12
-0.45129193 -0.08222863 0.12563527 255 12 12
-0.45023524 -0.08266481 0.13047923 255 12 12
-0.44797002 -0.08317383 0.13580932 255 12 12
-0.44686872 -0.08366551 0.14129770 255 12 12
-0.44710819 -0.08416258 0.14726945 255 12 12
-0.44779471 -0.08464412 0.15319687 255 12 12
-0.46431747 -0.08564872 0.17028254 255 12 12
-0.46343139 -0.08617518 0.17625093 255 12 12
-0.45816867 -0.08670138 0.18084726 255 12 12
-0.45289524 -0.08720850 0.18521384 255 12 12
-0.45341884 -0.08773985 0.19168119 255 12 12
-0.46034293 -0.08832363 0.20077233 255 12 12
-0.46214358 -0.08891069 0.20829999 255 12 12
-0.45857340 -0.08944572 0.21353048 255 12 12
-0.45452630 -0.08996136 0.21838171 255 12 12
-0.66514490 -0.09409786 0.33333123 255 12 12
-0.66321281 -0.09495694 0.34291841 255 12 12
-0.25013975 -0.09031614 0.15866238 255 12 12
-0.24720066 -0.09051058 0.16004984 255 12 12
-0.24319414 -0.09071131 0.16117791 255 12 12
-0.23922601 -0.09089934 0.16216740 255 12 12
-0.23564351 -0.09109779 0.16340114 255 12 12
-0.23111316 -0.09124551 0.16373649 255 12 12
-0.22777981 -0.09143193 0.16490552 255 12 12
-0.22464589 -0.09161998 0.16615609 255 12 12
-0.22032967 -0.09175583 0.16641766 255 12 12
-0.21609829 -0.09190849 0.16690526 255 12 12
-0.21275829 -0.09207297 0.16781177 255 12 12
-0.21075157 -0.09229235 0.16978670 255 12 12
-0.20778236 -0.09246473 0.17090289 255 12 12
-0.20447695 -0.09260943 0.17158568 255 12 12
-0.20169346 -0.09278099 0.17275027 255 12 12
-0.19840131 -0.09291456 0.17330517 255 12 12
-0.19526316 -0.09305628 0.17400483 255 12 12
-0.19209226 -0.09322627 0.17502967 255 12 12
-0.18841563 -0.09332844 0.17509178 255 12 12
-0.18595037 -0.09350036 0.17636025 255 12 12
-0.18364131 -0.09368017 0.17777105 255 12 12
-0.18097341 -0.09380772 0.17844978 255 12 12
-0.17803673 -0.09393019 0.17898407 255 12 12
-0.17526767 -0.09405976 0.17965513 255 12 12
-0.17312590 -0.09423430 0.18105577 255 12 12
-0.17081396 -0.09439387 0.18222572 255 12 12
-0.16909089 -0.09460204 0.18415626 255 12 12
-0.16821658 -0.09488810 0.18727639 255 12 12
-0.16698534 -0.09514952 0.18999257 255 12 12
-0.16551506 -0.09540174 0.19252479 255 12 12
-0.16486240 -0.09573426 0.19626549 255 12 12
-0.16425738 -0.09608421 0.20022772 255 12 12
-0.16316219 -0.09639468 0.20356832 255 12 12
-0.16211988 -0.09672182 0.20712322 255 12 12
-0.16086917 -0.09703652 0.21046540 255 12 12
-0.15954190 -0.09735304 0.21380516 255 12 12
-0.15849654 -0.09771718 0.21779806 255 12 12
-0.15711110 -0.09810141 0.22192292 255 12 12
-0.15604353 -0.09850625 0.22639176 255 12 12
-0.15519241 -0.09896262 0.23153954 255 12 12
-0.15420886 -0.09942363 0.23670089 255 12 12
-0.15315212 -0.09986217 0.24157284 255 12 12
-0.15176582 -0.10029477 0.24627125 255 12 12
-0.15045447 -0.10076421 0.25143023 255 12 12
-0.14938385 -0.10130563 0.25751830 255 12 12
-0.14869265 -0.10195569 0.26501390 255 12 12
-0.14745626 -0.10254318 0.27159666 255 12 12
-0.14546587 -0.10301255 0.27654227 255 12 12
-0.14263371 -0.10332389 0.27934999 255 12 12
-0.13953044 -0.10362303 0.28192809 255 12 12
-0.13592609 -0.10378955 0.28277619 255 12 12
-0.13189596 -0.10381980 0.28187441 255 12 12
-0.12758037 -0.10377239 0.27996214 255 12 12
-0.12346652 -0.10368895 0.27768554 255 12 12
-0.11953584 -0.10367924 0.27634092 255 12 12
-0.11560156 -0.10364375 0.27468942 255 12 12
-0.11188132 -0.10365890 0.27370553 255 12 12
-0.10802708 -0.10365408 0.27244274 255 12 12
-0.10423972 -0.10362058 0.27086077 255 12 12
-0.10057046 -0.10357800 0.26920789 255 12 12
-0.09693324 -0.10355125 0.26775288 255 12 12
-0.09301865 -0.10359417 0.26703768 255 12 12
-0.08929640 -0.10351911 0.26498299 255 12 12
-0.08572933 -0.10345526 0.26310980 255 12 12
-0.08231585 -0.10352952 0.26292311 255 12 12
-0.07945794 -0.10351832 0.26189629 255 12 12
-0.07622691 -0.10353687 0.26110576 255 12 12
-0.07301075 -0.10353007 0.26001917 255 12 12
-0.06984393 -0.10356001 0.25938379 255 12 12
-0.06651671 -0.10356952 0.25845594 255 12 12
-0.06333646 -0.10357091 0.25747771 255 12 12
-0.06019898 -0.10384029 0.25969211 255 12 12
-0.05695158 -0.10406654 0.26136044 255 12 12
-0.05381091 -0.10409729 0.26074283 255 12 12
-0.05061288 -0.10414643 0.26032558 255 12 12
-0.04743011 -0.10425444 0.26061137 255 12 12
-0.04424178 -0.10429548 0.26010101 255 12 12
-0.04119997 -0.10426661 0.25880707 255 12 12
-0.03804602 -0.10429912 0.25820627 255 12 12
-0.03493095 -0.10434822 0.25781445 255 12 12
-0.03187174 -0.10432903 0.25662990 255 12 12
-0.02831390 -0.10437589 0.25607295 255 12 12
-0.02514427 -0.10437066 0.25501955 255 12 12
-0.02196074 -0.10440403 0.25441964 255 12 12
-0.01883181 -0.10438984 0.25327270 255 12 12
