ply
format ascii 1.0
element vertex 258
property float x
property float y
property float z
property uchar red
property uchar green
property uchar blue
end_header
-0.02499521 -0.10060154 0.21025911 255 12 12
-0.02304873 -0.10044138 0.20775037 255 12 12
-0.02122936 -0.10025582 0.20497994 255 12 12
-0.02011906 -0.09986893 0.20004289 255 12 12
-0.01854323 -0.09965476 0.19700926 255 12 12
-0.01716024 -0.09941549 0.19373817 255 12 12
-0.01597339 -0.09912936 0.18997257 255 12 12
-0.01488584 -0.09884046 0.18620510 255 12 12
-0.01339848 -0.09868084 0.18384626 255 12 12
-0.01140166 -0.09867257 0.18312366 255 12 12
-0.00892784 -0.09877117 0.18351950 255 12 12
-0.00592670 -0.09897610 0.18501201 255 12 12
-0.00310217 -0.09913416 0.18600366 255 12 12
-0.00003700 -0.09933262 0.18739930 255 12 12
0.00349419 -0.09961481 0.18964242 255 12 12
0.00617090 -0.09971975 0.19005010 255 12 12
0.00873321 -0.09977676 0.18992499 255 12 12
0.01262037 -0.10009135 0.19244123 255 12 12
0.02213035 -0.10082103 0.19812305 255 12 12
0.02626835 -0.10107185 0.19980432 255 12 12
0.02992841 -0.10123223 0.20056214 255 12 12
0.03341534 -0.10134366 0.20079339 255 12 12
0.03712259 -0.10159371 0.20260024 255 12 12
0.04132657 -0.10182736 0.20405705 255 12 12
0.04531607 -0.10201300 0.20501157 255 12 12
0.04992206 -0.10227707 0.20670354 255 12 12
0.05353135 -0.10236434 0.20660995 255 12 12
-0.02243909 -0.08488752 0.02304127 255 12 12
-0.01444690 -0.08452379 0.01622643 255 12 12
-0.01421440 -0.08443622 0.01511495 255 12 12
-0.01464142 -0.08436357 0.01438659 255 12 12
-0.01572618 -0.08430612 0.01404438 255 12 12
-0.01737142 -0.08427946 0.01424269 255 12 12
-0.02113789 -0.08423384 0.01487960 255 12 12
-0.02443511 -0.08419051 0.01539681 255 12 12
-0.02565263 -0.08416091 0.01542650 255 12 12
-0.02904068 -0.08414918 0.01634704 255 12 12
-0.02982863 -0.08411298 0.01616413 255 12 12
-0.03080626 -0.08408675 0.01615868 255 12 12
-0.03255273 -0.08403154 0.01604999 255 12 12
-0.03256489 -0.08396731 0.01529180 255 12 12
-0.03297230 -0.08391968 0.01485416 255 12 12
-0.03356567 -0.08388227 0.01459603 255 12 12
-0.03433731 -0.08385596 0.01452520 255 12 12
-0.03509695 -0.08383197 0.01447818 255 12 12
-0.03440809 -0.08364442 0.01203783 255 12 12
-0.03419563 -0.08355271 0.01088342 255 12 12
-0.03435690 -0.08348053 0.01007759 255 12 12
-0.03451743 -0.08340949 0.00928500 255 12 12
-0.03469500 -0.08333781 0.00849023 255 12 12
-0.03727673 -0.08336603 0.00963249 255 12 12
-0.03837351 -0.08337283 0.01005616 255 12 12
-0.04820720 -0.08399707 0.02053747 255 12 12
-0.04853742 -0.08397041 0.02032448 255 12 12
-0.05010602 -0.08402062 0.02141078 255 12 12
-0.05042344 -0.08399659 0.02122502 255 12 12
-0.05037697 -0.08392752 0.02039111 255 12 12
-0.04971940 -0.08359398 0.01622854 255 12 12
-0.04951453 -0.08337476 0.01356383 255 12 12
-0.04865030 -0.08303906 0.00931105 255 12 12
-0.04895322 -0.08297491 0.00864474 255 12 12
-0.04919051 -0.08289276 0.00774446 255 12 12
-0.04956921 -0.08282560 0.00706608 255 12 12
-0.05032885 -0.08269354 0.00573701 255 12 12
-0.05112642 -0.08271668 0.00626103 255 12 12
-0.05164311 -0.08268934 0.00609827 255 12 12
-0.05226324 -0.08267928 0.00617290 255 12 12
-0.05273431 -0.08263375 0.00578019 255 12 12
-0.05328845 -0.08260663 0.00563176 255 12 12
-0.05380550 -0.08256035 0.00524444 255 12 12
-0.05419858 -0.08247740 0.00438329 255 12 12
-0.05477324 -0.08245156 0.00425655 255 12 12
-0.05549705 -0.08248430 0.00487136 255 12 12
-0.05635759 -0.08257616 0.00623026 255 12 12
-0.05727340 -0.08243269 0.00481464 255 12 12
-0.05897514 -0.08234821 0.00434472 255 12 12
-0.06095095 -0.08259827 0.00792926 255 12 12
-0.06340643 -0.08378799 0.02281112 255 12 12
-0.06444489 -0.08357456 0.02060403 255 12 12
-0.06475063 -0.08361023 0.02112279 255 12 12
-0.06505619 -0.08362527 0.02139677 255 12 12
-0.06545892 -0.08355458 0.02068409 255 12 12
-0.06584132 -0.08373845 0.02298507 255 12 12
-0.06660211 -0.08364293 0.02208981 255 12 12
-0.06689116 -0.08363942 0.02213857 255 12 12
-0.06740735 -0.08367684 0.02274401 255 12 12
-0.06857799 -0.08358249 0.02199081 255 12 12
-0.06928847 -0.08364564 0.02296223 255 12 12
-0.06936231 -0.08371151 0.02376670 255 12 12
-0.06956566 -0.08373377 0.02409438 255 12 12
-0.07104180 -0.08358328 0.02277081 255 12 12
-0.07125109 -0.08360719 0.02311994 255 12 12
-0.07145179 -0.08363147 0.02347071 255 12 12
-0.08078555 -0.08227279 0.01027192 255 12 12
-0.08343749 -0.08201453 0.00803763 255 12 12
-0.08373357 -0.08204549 0.00849752 255 12 12
-0.08412472 -0.08207939 0.00902199 255 12 12
-0.08436248 -0.08213491 0.00975503 255 12 12
-0.08513701 -0.08210640 0.00965908 255 12 12
-0.08564961 -0.08212145 0.00999797 255 12 12
-0.08557799 -0.08222093 0.01115571 255 12 12
-0.08591337 -0.08225772 0.01169703 255 12 12
-0.08608896 -0.08231581 0.01244106 255 12 12
-0.08655052 -0.08233286 0.01278765 255 12 12
-0.08716137 -0.08233007 0.01294567 255 12 12
-0.08745777 -0.08236909 0.01350131 255 12 12
-0.08806364 -0.08236797 0.01367751 255 12 12
-0.08976561 -0.08230810 0.01349963 255 12 12
-0.09184260 -0.08221423 0.01303563 255 12 12
-0.09277573 -0.08217761 0.01289307 255 12 12
-0.09339832 -0.08218332 0.01315548 255 12 12
-0.09365319 -0.08222822 0.01376790 255 12 12
-0.09335965 -0.08233154 0.01490176 255 12 12
-0.09304680 -0.08243476 0.01602852 255 12 12
-0.09269982 -0.08253687 0.01713129 255 12 12
-0.09232687 -0.08263829 0.01821775 255 12 12
-0.09192835 -0.08273896 0.01928740 255 12 12
-0.09172379 -0.08282245 0.02021393 255 12 12
-0.09167528 -0.08288587 0.02095103 255 12 12
-0.09220698 -0.08289529 0.02122916 255 12 12
-0.09253582 -0.08292344 0.02166594 255 12 12
-0.09204005 -0.08302187 0.02267862 255 12 12
-0.09712346 -0.08276951 0.02127482 255 12 12
-0.09807339 -0.08275239 0.02136885 255 12 12
-0.09860706 -0.08277082 0.02175432 255 12 12
-0.09935204 -0.08277395 0.02202445 255 12 12
-0.10053068 -0.08274634 0.02206566 255 12 12
-0.10151430 -0.08273916 0.02228812 255 12 12
-0.10226784 -0.08274820 0.02263106 255 12 12
-0.10488421 -0.08269433 0.02281036 255 12 12
-0.10540849 -0.08272334 0.02331850 255 12 12
-0.10684117 -0.08269554 0.02343671 255 12 12
-0.10534286 -0.08291795 0.02560657 255 12 12
-0.10003059 -0.08335338 0.02911067 255 12 12
-0.10912672 -0.08314334 0.02946393 255 12 12
-0.10860963 -0.08323224 0.03035693 255 12 12
-0.10038381 -0.08379071 0.03440926 255 12 12
-0.09745886 -0.08401872 0.03619923 255 12 12
-0.09731665 -0.08406965 0.03675896 255 12 12
-0.09741142 -0.08411021 0.03726987 255 12 12
-0.09675838 -0.08418054 0.03789986 255 12 12
-0.10012076 -0.08413754 0.03844151 255 12 12
-0.10054979 -0.08426186 0.04005051 255 12 12
-0.65294642 -0.06792294 0.01899783 255 12 12
-0.29110971 -0.07930727 0.04087671 255 12 12
-0.29012751 -0.07962002 0.04427975 255 12 12
-0.28759507 -0.07996864 0.04762336 255 12 12
-0.28402011 -0.08032028 0.05067673 255 12 12
-0.28189630 -0.08064126 0.05382030 255 12 12
-0.28072558 -0.08093728 0.05696594 255 12 12
-0.27950949 -0.08123179 0.06007930 255 12 12
-0.27673944 -0.08156750 0.06319552 255 12 12
-0.27493120 -0.08187039 0.06622318 255 12 12
-0.27283897 -0.08216919 0.06911344 255 12 12
-0.26995696 -0.08248011 0.07190053 255 12 12
-0.26673201 -0.08282272 0.07495633 255 12 12
-0.26301694 -0.08313971 0.07755478 255 12 12
-0.25952617 -0.08344111 0.08003850 255 12 12
-0.25624071 -0.08373743 0.08252616 255 12 12
-0.25351516 -0.08398097 0.08456290 255 12 12
-0.25214783 -0.08424202 0.08723202 255 12 12
-0.25051307 -0.08449806 0.08975821 255 12 12
-0.24834806 -0.08475832 0.09216850 255 12 12
-0.24615283 -0.08501479 0.09452445 255 12 12
-0.24416822 -0.08526709 0.09689677 255 12 12
-0.24383903 -0.08551161 0.09969466 255 12 12
-0.24273775 -0.08576101 0.10230886 255 12 12
-0.24276295 -0.08601753 0.10535984 255 12 12
-0.24416410 -0.08627798 0.10888787 255 12 12
-0.24479791 -0.08654089 0.11220506 255 12 12
-0.24513992 -0.08680653 0.11546336 255 12 12
-0.24683083 -0.08708294 0.11927142 255 12 12
-0.24796740 -0.08736698 0.12299644 255 12 12
-0.24928352 -0.08765492 0.12682404 255 12 12
-0.25072881 -0.08795734 0.13086377 255 12 12
-0.25136946 -0.08826716 0.13473957 255 12 12
-0.25265549 -0.08858323 0.13889139 255 12 12
-0.25518698 -0.08893005 0.14379759 255 12 12
-0.25783239 -0.08929205 0.14891948 255 12 12
-0.25930686 -0.08963728 0.15347628 255 12 12
-0.26065702 -0.08999584 0.15815222 255 12 12
-0.26237092 -0.09036742 0.16309644 255 12 12
-0.26522007 -0.09078674 0.16896201 255 12 12
-0.26793665 -0.09121891 0.17493869 255 12 12
-0.27526754 -0.09218671 0.18871286 255 12 12
-0.27550914 -0.09259191 0.19359534 255 12 12
-0.27343172 -0.09292482 0.19689495 255 12 12
-0.27090355 -0.09324184 0.19986510 255 12 12
-0.26817941 -0.09354294 0.20258501 255 12 12
-0.26342608 -0.09376653 0.20375074 255 12 12
-0.25821080 -0.09397546 0.20459801 255 12 12
-0.25291610 -0.09415381 0.20505776 255 12 12
-0.24802700 -0.09433904 0.20572594 255 12 12
-0.24445665 -0.09457926 0.20745897 255 12 12
-0.24055572 -0.09478949 0.20873284 255 12 12
-0.23643095 -0.09498835 0.20980191 255 12 12
-0.23182724 -0.09514430 0.21021198 255 12 12
-0.22807766 -0.09534835 0.21145990 255 12 12
-0.22406392 -0.09554521 0.21253976 255 12 12
-0.21998006 -0.09571422 0.21326745 255 12 12
-0.21641014 -0.09590969 0.21446980 255 12 12
-0.21283930 -0.09609943 0.21560383 255 12 12
-0.20841737 -0.09622869 0.21575414 255 12 12
-0.20423088 -0.09635691 0.21596574 255 12 12
-0.20084577 -0.09653926 0.21707019 255 12 12
-0.19730706 -0.09670372 0.21791437 255 12 12
-0.19432193 -0.09691851 0.21952877 255 12 12
-0.19311867 -0.09728403 0.22348864 255 12 12
-0.19196826 -0.09766566 0.22765615 255 12 12
-0.18988231 -0.09796782 0.23058829 255 12 12
-0.18601098 -0.09808359 0.23075081 255 12 12
-0.18197744 -0.09818245 0.23066206 255 12 12
-0.17946059 -0.09842941 0.23280455 255 12 12
-0.17634455 -0.09861956 0.23408565 255 12 12
-0.17311098 -0.09881356 0.23537578 255 12 12
-0.17009064 -0.09901093 0.23677249 255 12 12
-0.16670080 -0.09915838 0.23746144 255 12 12
-0.16354220 -0.09933229 0.23853658 255 12 12
-0.16070637 -0.09954995 0.24023181 255 12 12
-0.15752000 -0.09971645 0.24121034 255 12 12
-0.15422205 -0.09986248 0.24191115 255 12 12
-0.15112503 -0.10003715 0.24301463 255 12 12
-0.14776627 -0.10017787 0.24363347 255 12 12
-0.14465082 -0.10034462 0.24463727 255 12 12
-0.14188409 -0.10057656 0.24652334 255 12 12
-0.13890565 -0.10077146 0.24790391 255 12 12
-0.13571030 -0.10090730 0.24851593 255 12 12
-0.13174129 -0.10088164 0.24697016 255 12 12
-0.12819432 -0.10091741 0.24628506 255 12 12
-0.12527889 -0.10111391 0.24770425 255 12 12
-0.12194778 -0.10123972 0.24815494 255 12 12
-0.11892495 -0.10141122 0.24924397 255 12 12
-0.11600528 -0.10161699 0.25077178 255 12 12
-0.11287845 -0.10176342 0.25153092 255 12 12
-0.10995383 -0.10200418 0.25347235 255 12 12
-0.10688773 -0.10218250 0.25462882 255 12 12
-0.10370359 -0.10231891 0.25525109 255 12 12
-0.10072572 -0.10254932 0.25705307 255 12 12
-0.09740768 -0.10278906 0.25885935 255 12 12
-0.09413681 -0.10293725 0.25959424 255 12 12
-0.09094562 -0.10314168 0.26102134 255 12 12
-0.08768998 -0.10332298 0.26215376 255 12 12
-0.08482792 -0.10359193 0.26444924 255 12 12
-0.08170283 -0.10390818 0.26722348 255 12 12
-0.07844303 -0.10407721 0.26820916 255 12 12
-0.07509610 -0.10424482 0.26915059 255 12 12
-0.07157448 -0.10449732 0.27104466 255 12 12
-0.06812644 -0.10476405 0.27313035 255 12 12
-0.06467333 -0.10494246 0.27416688 255 12 12
-0.06111974 -0.10518210 0.27589818 255 12 12
-0.05771141 -0.10539270 0.27733058 255 12 12
-0.05413204 -0.10560317 0.27870780 255 12 12
-0.05056311 -0.10572487 0.27903529 255 12 12
-0.04705037 -0.10575676 0.27831492 255 12 12
-0.04365917 -0.10561324 0.27555163 255 12 12
-0.03397285 -0.10319626 0.24384888 255 12 12
-0.03006228 -0.10218253 0.23059963 255 12 12
-0.02827878 -0.10171054 0.22444246 255 12 12
