ply
format ascii 1.0
element vertex 281
property float x
property float y
property float z
property uchar red
property uchar green
property uchar blue
end_header
-0.00997608 -0.10468686 0.25402633 255 12 12
-0.00713412 -0.10476465 0.25406028 255 12 12
-0.00467535 -0.10472940 0.25287306 255 12 12
-0.00267005 -0.10453738 0.24996790 255 12 12
-0.00929506 -0.10057895 0.20508040 255 12 12
-0.00836613 -0.10028862 0.20134571 255 12 12
-0.00633471 -0.10025929 0.20036229 255 12 12
-0.00409719 -0.10031587 0.20033367 255 12 12
-0.00203261 -0.10032614 0.19980978 255 12 12
0.00021527 -0.10037789 0.19972059 255 12 12
0.00238496 -0.10042793 0.19963558 255 12 12
0.00434980 -0.10040919 0.19879876 255 12 12
0.00646565 -0.10043228 0.19841083 255 12 12
0.00883432 -0.10049607 0.19842669 255 12 12
0.01110671 -0.10053544 0.19818303 255 12 12
0.01349491 -0.10059394 0.19813006 255 12 12
0.01596439 -0.10067211 0.19828501 255 12 12
0.01849178 -0.10074679 0.19838040 255 12 12
0.02114289 -0.10074480 0.19752755 255 12 12
0.02332852 -0.10072446 0.19660262 255 12 12
0.02583848 -0.10076657 0.19631715 255 12 12
0.02878203 -0.10086871 0.19660816 255 12 12
0.03093695 -0.10091385 0.19646959 255 12 12
0.03286049 -0.10086396 0.19527608 255 12 12
0.03504031 -0.10085402 0.19447644 255 12 12
0.03749184 -0.10088360 0.19406053 255 12 12
0.03966658 -0.10086808 0.19319617 255 12 12
0.04212248 -0.10089171 0.19270841 255 12 12
0.04487445 -0.10095398 0.19258637 255 12 12
0.04704559 -0.10092968 0.19161895 255 12 12
0.04992427 -0.10100753 0.19164206 255 12 12
0.05255374 -0.10103898 0.19119278 255 12 12
0.05452555 -0.10098671 0.18995592 255 12 12
0.05699942 -0.10099138 0.18923758 255 12 12
0.06035782 -0.10109066 0.18936484 255 12 12
0.06349667 -0.10116880 0.18931011 255 12 12
0.06565973 -0.10112236 0.18808258 255 12 12
0.06949163 -0.10127247 0.18866481 255 12 12
0.07305769 -0.10137557 0.18877257 255 12 12
0.07178882 -0.10063118 0.18033860 255 12 12
0.07616364 -0.10082477 0.18126679 255 12 12
0.07818699 -0.10085502 0.18099276 255 12 12
-0.02332433 -0.08490342 0.02350679 255 12 12
-0.01251577 -0.08452081 0.01558715 255 12 12
-0.01265613 -0.08445245 0.01482009 255 12 12
-0.01277615 -0.08438917 0.01410689 255 12 12
-0.01443443 -0.08435715 0.01424569 255 12 12
-0.01522823 -0.08430705 0.01389970 255 12 12
-0.01581145 -0.08425258 0.01343593 255 12 12
-0.01722220 -0.08422499 0.01354979 255 12 12
-0.02148414 -0.08421928 0.01481511 255 12 12
-0.02204870 -0.08417275 0.01443970 255 12 12
-0.02282701 -0.08413276 0.01420879 255 12 12
-0.02675504 -0.08414850 0.01562406 255 12 12
-0.02730167 -0.08410884 0.01532456 255 12 12
-0.02917366 -0.08406470 0.01538650 255 12 12
-0.02933451 -0.08401130 0.01480327 255 12 12
-0.03045140 -0.08400137 0.01503483 255 12 12
-0.03097973 -0.08396858 0.01481111 255 12 12
-0.03133910 -0.08392539 0.01441116 255 12 12
-0.03151230 -0.08387390 0.01385445 255 12 12
-0.03188368 -0.08383097 0.01346127 255 12 12
-0.03276790 -0.08370249 0.01221375 255 12 12
-0.03296994 -0.08365153 0.01167237 255 12 12
-0.03288381 -0.08357398 0.01072543 255 12 12
-0.03328552 -0.08353240 0.01035784 255 12 12
-0.03352592 -0.08347975 0.00980845 255 12 12
-0.03361187 -0.08341535 0.00907128 255 12 12
-0.03406220 -0.08337126 0.00868905 255 12 12
-0.03465706 -0.08334142 0.00852117 255 12 12
-0.03524204 -0.08331328 0.00837028 255 12 12
-0.03629731 -0.08332262 0.00881120 255 12 12
-0.03687376 -0.08329671 0.00868415 255 12 12
-0.04169216 -0.08357614 0.01350616 255 12 12
-0.04724442 -0.08392475 0.01937837 255 12 12
-0.04794763 -0.08394284 0.01981299 255 12 12
-0.04877137 -0.08397667 0.02047190 255 12 12
-0.04946378 -0.08399650 0.02092370 255 12 12
-0.04939491 -0.08387944 0.01951352 255 12 12
-0.04957133 -0.08384213 0.01912612 255 12 12
-0.04933898 -0.08369128 0.01726387 255 12 12
-0.04931498 -0.08362182 0.01643232 255 12 12
-0.04865577 -0.08336161 0.01313925 255 12 12
-0.04862930 -0.08327040 0.01204884 255 12 12
-0.04825648 -0.08301791 0.00893693 255 12 12
-0.04864178 -0.08299396 0.00877331 255 12 12
-0.04850871 -0.08275263 0.00586872 255 12 12
-0.04906808 -0.08274238 0.00592214 255 12 12
-0.04919668 -0.08264542 0.00481212 255 12 12
-0.04959848 -0.08260057 0.00440569 255 12 12
-0.05024686 -0.08260932 0.00471236 255 12 12
-0.05096191 -0.08263717 0.00526637 255 12 12
-0.05171421 -0.08268563 0.00607650 255 12 12
-0.05204110 -0.08262492 0.00545854 255 12 12
-0.05243901 -0.08258301 0.00508588 255 12 12
-0.05279027 -0.08252215 0.00447377 255 12 12
-0.05317682 -0.08246015 0.00385914 255 12 12
-0.05384835 -0.08249351 0.00446490 255 12 12
-0.05439219 -0.08249014 0.00459504 255 12 12
-0.05487892 -0.08246836 0.00448894 255 12 12
-0.05539516 -0.08246727 0.00463746 255 12 12
-0.05609795 -0.08230950 0.00298563 255 12 12
-0.05779196 -0.08234910 0.00398522 255 12 12
-0.05821342 -0.08229106 0.00342849 255 12 12
-0.05955881 -0.08251784 0.00653970 255 12 12
-0.06128222 -0.08292450 0.01190299 255 12 12
-0.06323120 -0.08349851 0.01932214 255 12 12
-0.06352198 -0.08355407 0.02007226 255 12 12
-0.06380695 -0.08356809 0.02032768 255 12 12
-0.06529081 -0.08349437 0.01991726 255 12 12
-0.06554627 -0.08351082 0.02019229 255 12 12
-0.06583615 -0.08350585 0.02022400 255 12 12
-0.06684047 -0.08340603 0.01935404 255 12 12
-0.06710028 -0.08342394 0.01964774 255 12 12
-0.06985305 -0.08336038 0.01975471 255 12 12
-0.07014823 -0.08335981 0.01984032 255 12 12
-0.07012650 -0.08353565 0.02191954 255 12 12
-0.07206510 -0.08338711 0.02076375 255 12 12
-0.07224716 -0.08341108 0.02110496 255 12 12
-0.07644563 -0.08279096 0.01506163 255 12 12
-0.08176637 -0.08212448 0.00881930 255 12 12
-0.08260556 -0.08204524 0.00814171 255 12 12
-0.08341592 -0.08198990 0.00773866 255 12 12
-0.08528796 -0.08193645 0.00769010 255 12 12
-0.08587799 -0.08192731 0.00776625 255 12 12
-0.08618643 -0.08196094 0.00826171 255 12 12
-0.08635599 -0.08201635 0.00897200 255 12 12
-0.08677671 -0.08202942 0.00925869 255 12 12
-0.08691400 -0.08208516 0.00996282 255 12 12
-0.08703732 -0.08214109 0.01066494 255 12 12
-0.08744601 -0.08215572 0.01096639 255 12 12
-0.08739450 -0.08223282 0.01186486 255 12 12
-0.08778807 -0.08224822 0.01217065 255 12 12
-0.08864893 -0.08220279 0.01190103 255 12 12
-0.08920146 -0.08219919 0.01203106 255 12 12
-0.08960977 -0.08221731 0.01237381 255 12 12
-0.09172200 -0.08209399 0.01157146 255 12 12
-0.09280414 -0.08203475 0.01120716 255 12 12
-0.09270910 -0.08217394 0.01282869 255 12 12
-0.09325778 -0.08217526 0.01301597 255 12 12
-0.09399247 -0.08215841 0.01304592 255 12 12
-0.09432176 -0.08217816 0.01338319 255 12 12
-0.09319344 -0.08241330 0.01581970 255 12 12
-0.09315014 -0.08247288 0.01651304 255 12 12
-0.09313732 -0.08253536 0.01725019 255 12 12
-0.09308224 -0.08259575 0.01794936 255 12 12
-0.09234441 -0.08277049 0.01979164 255 12 12
-0.09284056 -0.08277605 0.02001269 255 12 12
-0.09253678 -0.08285377 0.02083972 255 12 12
-0.09301722 -0.08285967 0.02106002 255 12 12
-0.09329479 -0.08288397 0.02143514 255 12 12
-0.09336970 -0.08292672 0.02196569 255 12 12
-0.09445827 -0.08288241 0.02178047 255 12 12
-0.09708120 -0.08276518 0.02121022 255 12 12
-0.09818772 -0.08272535 0.02108374 255 12 12
-0.09888953 -0.08272186 0.02126190 255 12 12
-0.10136796 -0.08263637 0.02102295 255 12 12
-0.10209198 -0.08263879 0.02127807 255 12 12
-0.10258511 -0.08265686 0.02164669 255 12 12
-0.10285481 -0.08269145 0.02214139 255 12 12
-0.10536068 -0.08262104 0.02208994 255 12 12
-0.10767682 -0.08257579 0.02227753 255 12 12
-0.10614797 -0.08278887 0.02432710 255 12 12
-0.10638376 -0.08282808 0.02486606 255 12 12
-0.10615098 -0.08289588 0.02559759 255 12 12
-0.10198396 -0.08338470 0.03009318 255 12 12
-0.10849543 -0.08313047 0.02911378 255 12 12
-0.10842786 -0.08318509 0.02974063 255 12 12
-0.10835525 -0.08324055 0.03037594 255 12 12
-0.10755411 -0.08333245 0.03121553 255 12 12
-0.09785465 -0.08396322 0.03566463 255 12 12
-0.09868216 -0.08396527 0.03594788 255 12 12
-0.09818781 -0.08409732 0.03735976 255 12 12
-0.09850533 -0.08412184 0.03774989 255 12 12
-0.09881707 -0.08414627 0.03813721 255 12 12
-0.09887815 -0.08418142 0.03857334 255 12 12
-0.10674882 -0.08403069 0.03924702 255 12 12
-0.70119952 -0.06509020 0.00048522 255 12 12
-0.69846141 -0.06585014 0.00864404 255 12 12
-0.69586071 -0.06658469 0.01654472 255 12 12
-0.69366655 -0.06731587 0.02453255 255 12 12
-0.69062157 -0.06806555 0.03247370 255 12 12
-0.46381239 -0.07520894 0.04627559 255 12 12
-0.46175477 -0.07568204 0.05124438 255 12 12
-0.46338562 -0.07605469 0.05617532 255 12 12
-0.46470054 -0.07644737 0.06124508 255 12 12
-0.46645581 -0.07682454 0.06626851 255 12 12
-0.46764150 -0.07722690 0.07141262 255 12 12
-0.46776457 -0.07765314 0.07650776 255 12 12
-0.46608108 -0.07811371 0.08144493 255 12 12
-0.46111761 -0.07861923 0.08588961 255 12 12
-0.45733412 -0.07910542 0.09047396 255 12 12
-0.45822050 -0.07950462 0.09548694 255 12 12
-0.48274802 -0.08002421 0.10932274 255 12 12
-0.49249161 -0.08036110 0.11636692 255 12 12
-0.49291797 -0.08087370 0.12258127 255 12 12
-0.48746047 -0.08140600 0.12718904 255 12 12
-0.48220007 -0.08192679 0.13172194 255 12 12
-0.49235218 -0.08275836 0.14476238 255 12 12
-0.48668693 -0.08326722 0.14902710 255 12 12
-0.48197919 -0.08375209 0.15330676 255 12 12
-0.47671713 -0.08424146 0.15746642 255 12 12
-0.46994385 -0.08473517 0.16120479 255 12 12
-0.46508957 -0.08520510 0.16526132 255 12 12
-0.46019745 -0.08566735 0.16921495 255 12 12
-0.45479467 -0.08612112 0.17290821 255 12 12
-0.45354226 -0.08659735 0.17816610 255 12 12
-0.45366811 -0.08707026 0.18381564 255 12 12
-0.45164500 -0.08752651 0.18859549 255 12 12
-0.44882311 -0.08798734 0.19317975 255 12 12
-0.44898252 -0.08840716 0.19820994 255 12 12
-0.44890265 -0.08887046 0.20368118 255 12 12
-0.44782739 -0.08932845 0.20877807 255 12 12
-0.46326717 -0.09050273 0.22753810 255 12 12
-0.46611909 -0.09105584 0.23499173 255 12 12
-0.46373904 -0.09153239 0.23990069 255 12 12
-0.45945984 -0.09198944 0.24398437 255 12 12
-0.45802118 -0.09249202 0.24949658 255 12 12
-0.46852745 -0.09376739 0.26791267 255 12 12
-0.46524525 -0.09425825 0.27270919 255 12 12
-0.46464337 -0.09482240 0.27921362 255 12 12
-0.48237090 -0.09644010 0.30394951 255 12 12
-0.16636798 -0.09815271 0.22542687 255 12 12
-0.16262736 -0.09813725 0.22407345 255 12 12
-0.15997575 -0.09823169 0.22436444 255 12 12
-0.15803587 -0.09843923 0.22621977 255 12 12
-0.15499413 -0.09848409 0.22580065 255 12 12
-0.15192718 -0.09852772 0.22535894 255 12 12
-0.14888574 -0.09856666 0.22486953 255 12 12
-0.14555976 -0.09855173 0.22365218 255 12 12
-0.14273000 -0.09859429 0.22327199 255 12 12
-0.14026450 -0.09870283 0.22378837 255 12 12
-0.13737247 -0.09872091 0.22309834 255 12 12
-0.13446001 -0.09873751 0.22238430 255 12 12
-0.13207249 -0.09883313 0.22277183 255 12 12
-0.12946411 -0.09889399 0.22267803 255 12 12
-0.12665308 -0.09891892 0.22209454 255 12 12
-0.12415781 -0.09899029 0.22216071 255 12 12
-0.12136101 -0.09898681 0.22124463 255 12 12
-0.11852235 -0.09896087 0.22004910 255 12 12
-0.11605692 -0.09900085 0.21975220 255 12 12
-0.11342186 -0.09900320 0.21895592 255 12 12
-0.11079734 -0.09898073 0.21786840 255 12 12
-0.10853477 -0.09906863 0.21820356 255 12 12
-0.10628263 -0.09917520 0.21876335 255 12 12
-0.10390246 -0.09922038 0.21855483 255 12 12
-0.10148090 -0.09924344 0.21807104 255 12 12
-0.09902758 -0.09924400 0.21731031 255 12 12
-0.09678869 -0.09927582 0.21698744 255 12 12
-0.09455623 -0.09934784 0.21714358 255 12 12
-0.09233140 -0.09939588 0.21701765 255 12 12
-0.08991440 -0.09936418 0.21588560 255 12 12
-0.08754117 -0.09939206 0.21547402 255 12 12
-0.08543595 -0.09951334 0.21625431 255 12 12
-0.08328615 -0.09961276 0.21676139 255 12 12
-0.08105038 -0.09964953 0.21649826 255 12 12
-0.07880187 -0.09966331 0.21595845 255 12 12
-0.07676247 -0.09987855 0.21787399 255 12 12
-0.07487105 -0.10033935 0.22274890 255 12 12
-0.06638722 -0.10384609 0.26169645 255 12 12
-0.06364182 -0.10408786 0.26370591 255 12 12
-0.06095789 -0.10440920 0.26667857 255 12 12
-0.05814049 -0.10450010 0.26687571 255 12 12
-0.05543110 -0.10445946 0.26554609 255 12 12
-0.05265756 -0.10448045 0.26492758 255 12 12
-0.04973192 -0.10456480 0.26501315 255 12 12
-0.04692347 -0.10464359 0.26506946 255 12 12
-0.04423947 -0.10459061 0.26360145 255 12 12
-0.04154074 -0.10457711 0.26259723 255 12 12
-0.03890123 -0.10462304 0.26231648 255 12 12
-0.03611492 -0.10468975 0.26223642 255 12 12
-0.03352102 -0.10466591 0.26114225 255 12 12
-0.03092722 -0.10461800 0.25976253 255 12 12
-0.02834268 -0.10460954 0.25885377 255 12 12
-0.02567391 -0.10462054 0.25814954 255 12 12
-0.02312169 -0.10460600 0.25717884 255 12 12
-0.02038247 -0.10465464 0.25689902 255 12 12
-0.01785808 -0.10463413 0.25586616 255 12 12
-0.01540462 -0.10456721 0.25430493 255 12 12
-0.01280850 -0.10458455 0.25369857 255 12 12
-0.00979630 -0.10473107 0.25449460 255 12 12
