ply
format ascii 1.0
element vertex 169
property float x
property float y
property float z
property uchar red
property uchar green
property uchar blue
end_header
-0.04189051 -0.09307124 0.12621035 255 12 12
-0.06758667 -0.08373976 0.02354654 255 12 12
-0.06785037 -0.08373793 0.02360722 255 12 12
-0.06810788 -0.08373643 0.02367007 255 12 12
-0.06836988 -0.08373523 0.02373768 255 12 12
-0.07026680 -0.08371373 0.02407593 255 12 12
-0.07141930 -0.08363118 0.02345722 255 12 12
-0.07460278 -0.08313775 0.01859919 255 12 12
-0.08095725 -0.08225219 0.01008118 255 12 12
-0.08155744 -0.08223994 0.01012359 255 12 12
-0.08352712 -0.08208942 0.00895409 255 12 12
-0.08390157 -0.08209842 0.00917791 255 12 12
-0.08423390 -0.08213151 0.00967447 255 12 12
-0.08454749 -0.08216483 0.01016784 255 12 12
-0.08486057 -0.08219886 0.01066941 255 12 12
-0.08516394 -0.08223333 0.01117327 255 12 12
-0.08560115 -0.08224729 0.01147566 255 12 12
-0.08587930 -0.08228242 0.01197939 255 12 12
-0.08600739 -0.08233900 0.01269070 255 12 12
-0.08595230 -0.08241582 0.01358475 255 12 12
-0.08619416 -0.08245177 0.01408689 255 12 12
-0.08674044 -0.08244715 0.01420298 255 12 12
-0.08760668 -0.08240261 0.01394555 255 12 12
-0.08819186 -0.08240121 0.01411195 255 12 12
-0.08875351 -0.08239958 0.01426823 255 12 12
-0.08981762 -0.08233884 0.01388049 255 12 12
-0.09055727 -0.08231939 0.01388112 255 12 12
-0.09126964 -0.08229932 0.01386586 255 12 12
-0.09201084 -0.08228159 0.01388739 255 12 12
-0.09240255 -0.08230390 0.01427454 255 12 12
-0.09260977 -0.08234610 0.01484002 255 12 12
-0.09262548 -0.08240777 0.01557653 255 12 12
-0.09225901 -0.08250749 0.01664490 255 12 12
-0.09186926 -0.08260657 0.01769838 255 12 12
-0.09102770 -0.08280309 0.01976656 255 12 12
-0.09047975 -0.08295954 0.02145110 255 12 12
-0.09077016 -0.08298272 0.02181696 255 12 12
-0.09086820 -0.08302524 0.02235207 255 12 12
-0.09095110 -0.08306740 0.02287814 255 12 12
-0.09162838 -0.08305648 0.02296044 255 12 12
-0.09210894 -0.08306461 0.02320717 255 12 12
-0.09536231 -0.08289629 0.02222790 255 12 12
-0.09648450 -0.08285796 0.02212419 255 12 12
-0.09762095 -0.08282226 0.02205610 255 12 12
-0.09810555 -0.08283595 0.02237011 255 12 12
-0.10089148 -0.08279104 0.02270876 255 12 12
-0.10392636 -0.08269955 0.02257268 255 12 12
-0.10510264 -0.08267836 0.02268913 255 12 12
-0.10538657 -0.08272005 0.02327257 255 12 12
-0.10517130 -0.08278596 0.02398715 255 12 12
-0.10383838 -0.08298207 0.02589674 255 12 12
-0.10453012 -0.08299363 0.02625021 255 12 12
-0.09746535 -0.08356314 0.03079668 255 12 12
-0.11023186 -0.08313200 0.02967508 255 12 12
-0.09921318 -0.08386157 0.03488372 255 12 12
-0.09859730 -0.08393421 0.03555277 255 12 12
-0.09821063 -0.08399340 0.03613408 255 12 12
-0.09781288 -0.08405109 0.03669398 255 12 12
-0.09839233 -0.08406826 0.03707901 255 12 12
-0.09780977 -0.08417445 0.03815652 255 12 12
-0.09942646 -0.08419634 0.03892191 255 12 12
-0.09948000 -0.08423398 0.03938514 255 12 12
-0.10077341 -0.08423092 0.03975339 255 12 12
-0.10131604 -0.08425550 0.04021468 255 12 12
-0.55828548 -0.07258564 0.04470419 255 12 12
-0.56523120 -0.07297947 0.05154874 255 12 12
-0.57208083 -0.07339173 0.05858192 255 12 12
-0.56559657 -0.07412252 0.06522323 255 12 12
-0.55554735 -0.07489319 0.07122266 255 12 12
-0.54890041 -0.07559518 0.07747153 255 12 12
-0.54517447 -0.07621551 0.08366516 255 12 12
-0.54185467 -0.07683229 0.08994383 255 12 12
-0.53896405 -0.07742453 0.09606546 255 12 12
-0.53845962 -0.07798496 0.10255619 255 12 12
-0.53862653 -0.07852512 0.10901641 255 12 12
-0.53794405 -0.07909028 0.11550762 255 12 12
-0.53814697 -0.07977939 0.12374612 255 12 12
-0.54014119 -0.08035234 0.13116681 255 12 12
-0.54302543 -0.08091351 0.13872624 255 12 12
-0.54453961 -0.08150812 0.14625378 255 12 12
-0.54757071 -0.08193633 0.15228181 255 12 12
-0.55264480 -0.08247763 0.16029045 255 12 12
-0.55443930 -0.08305111 0.16765504 255 12 12
-0.17987482 -0.08522198 0.07625194 255 12 12
-0.18205158 -0.08536406 0.07861823 255 12 12
-0.18299186 -0.08551278 0.08067665 255 12 12
-0.18128432 -0.08566185 0.08191103 255 12 12
-0.17838288 -0.08580492 0.08270079 255 12 12
-0.17642357 -0.08594552 0.08375592 255 12 12
-0.17445696 -0.08608244 0.08476516 255 12 12
-0.17201792 -0.08621268 0.08554732 255 12 12
-0.16575675 -0.08644584 0.08635493 255 12 12
-0.16424409 -0.08656904 0.08734338 255 12 12
-0.15802744 -0.08676589 0.08773421 255 12 12
-0.15628865 -0.08687386 0.08847119 255 12 12
-0.14439929 -0.08768823 0.09441345 255 12 12
-0.14306536 -0.08778147 0.09510230 255 12 12
-0.14151999 -0.08786631 0.09562547 255 12 12
-0.14037235 -0.08796362 0.09642083 255 12 12
-0.13964003 -0.08807078 0.09746309 255 12 12
-0.13929716 -0.08819167 0.09878997 255 12 12
-0.13813289 -0.08828366 0.09951716 255 12 12
-0.13696288 -0.08837401 0.10022304 255 12 12
-0.13617877 -0.08847860 0.10121848 255 12 12
-0.13499409 -0.08856618 0.10188698 255 12 12
-0.13380469 -0.08865209 0.10253407 255 12 12
-0.13278365 -0.08874710 0.10334191 255 12 12
-0.13120985 -0.08881176 0.10361665 255 12 12
-0.12461689 -0.08875027 0.10082507 255 12 12
-0.11899652 -0.08872133 0.09872376 255 12 12
-0.11804405 -0.08879599 0.09931154 255 12 12
-0.11689838 -0.08886039 0.09971723 255 12 12
-0.11582977 -0.08891498 0.10003055 255 12 12
-0.11520110 -0.08900808 0.10093838 255 12 12
-0.11407929 -0.08906497 0.10126239 255 12 12
-0.11229433 -0.08907474 0.10082001 255 12 12
-0.11040335 -0.08906573 0.10012176 255 12 12
-0.11052816 -0.08935064 0.10354072 255 12 12
-0.10428575 -0.08938001 0.10193663 255 12 12
-0.10291894 -0.08939290 0.10166194 255 12 12
-0.10650370 -0.09008115 0.11094804 255 12 12
-0.10675900 -0.09028421 0.11343693 255 12 12
-0.10603392 -0.09038953 0.11445952 255 12 12
-0.10493133 -0.09044876 0.11481724 255 12 12
-0.10368457 -0.09049298 0.11495193 255 12 12
-0.10234203 -0.09051864 0.11483638 255 12 12
-0.10157372 -0.09062105 0.11581098 255 12 12
-0.10072539 -0.09072750 0.11680847 255 12 12
-0.09945584 -0.09076712 0.11688141 255 12 12
-0.09842595 -0.09083584 0.11737456 255 12 12
-0.09736886 -0.09090485 0.11786261 255 12 12
-0.09650841 -0.09098286 0.11851895 255 12 12
-0.09535815 -0.09103195 0.11874153 255 12 12
-0.09403960 -0.09104441 0.11847684 255 12 12
-0.09307916 -0.09112451 0.11912677 255 12 12
-0.09216923 -0.09120029 0.11974109 255 12 12
-0.09129116 -0.09129535 0.12059415 255 12 12
-0.09023126 -0.09135467 0.12096634 255 12 12
-0.08916634 -0.09141290 0.12132407 255 12 12
-0.08795703 -0.09145537 0.12144969 255 12 12
-0.08679225 -0.09149404 0.12154411 255 12 12
-0.08571965 -0.09154853 0.12185503 255 12 12
-0.08267250 -0.09139309 0.11905792 255 12 12
-0.08155474 -0.09142407 0.11907582 255 12 12
-0.08046092 -0.09145265 0.11907280 255 12 12
-0.07940171 -0.09149993 0.11930233 255 12 12
-0.07797167 -0.09139054 0.11755729 255 12 12
-0.07657253 -0.09127859 0.11579158 255 12 12
-0.07520305 -0.09114285 0.11375302 255 12 12
-0.07402657 -0.09108335 0.11267910 255 12 12
-0.07287374 -0.09108536 0.11234237 255 12 12
-0.06994146 -0.09121230 0.11293119 255 12 12
-0.06843467 -0.09170470 0.11830126 255 12 12
-0.06200883 -0.09295843 0.13116464 255 12 12
-0.06077527 -0.09300960 0.13138584 255 12 12
-0.05948352 -0.09316574 0.13283417 255 12 12
-0.05827194 -0.09317153 0.13252383 255 12 12
-0.05704374 -0.09317624 0.13219555 255 12 12
-0.05572026 -0.09328667 0.13309164 255 12 12
-0.05437053 -0.09339612 0.13396799 255 12 12
-0.05304742 -0.09348254 0.13457934 255 12 12
-0.05174269 -0.09352492 0.13467398 255 12 12
-0.05029841 -0.09358901 0.13498253 255 12 12
-0.04891775 -0.09365050 0.13528017 255 12 12
-0.04759286 -0.09368844 0.13531589 255 12 12
-0.04619380 -0.09374699 0.13557288 255 12 12
-0.04507894 -0.09371560 0.13485171 255 12 12
-0.04406065 -0.09361760 0.13337070 255 12 12
-0.04327184 -0.09299899 0.12578521 255 12 12
