ply
format ascii 1.0
element vertex 238
property float x
property float y
property float z
property uchar red
property uchar green
property uchar blue
end_header
-0.01843710 -0.10074490 0.20990855 255 12 12
-0.01563754 -0.10086228 0.21042551 255 12 12
-0.01317131 -0.10086646 0.20970368 255 12 12
-0.01079112 -0.10084532 0.20870834 255 12 12
-0.00836223 -0.10086498 0.20818192 255 12 12
-0.00576558 -0.10090326 0.20782386 255 12 12
-0.00304151 -0.10098230 0.20790949 255 12 12
-0.00016885 -0.10107968 0.20816623 255 12 12
0.00170536 -0.10090968 0.20556320 255 12 12
0.00285206 -0.10060579 0.20159952 255 12 12
0.00548430 -0.10064933 0.20129274 255 12 12
0.00812191 -0.10068939 0.20094289 255 12 12
0.00991638 -0.10055158 0.19874676 255 12 12
0.01253604 -0.10058491 0.19832284 255 12 12
0.01538431 -0.10065808 0.19829992 255 12 12
0.01813254 -0.10070579 0.19800631 255 12 12
0.02941671 -0.10168021 0.20603663 255 12 12
0.03253549 -0.10173197 0.20567511 255 12 12
0.03544962 -0.10173539 0.20480421 255 12 12
0.03827281 -0.10178630 0.20452510 255 12 12
0.04082737 -0.10174138 0.20319325 255 12 12
0.04359915 -0.10173613 0.20226399 255 12 12
0.04453045 -0.10104317 0.19375204 255 12 12
0.04841504 -0.10119377 0.19432356 255 12 12
-0.02233192 -0.08486131 0.02269689 255 12 12
-0.01436937 -0.08449435 0.01585301 255 12 12
-0.01387389 -0.08441066 0.01470521 255 12 12
-0.01365561 -0.08432327 0.01360020 255 12 12
-0.02107773 -0.08428084 0.01541826 255 12 12
-0.02232552 -0.08424266 0.01535573 255 12 12
-0.02294488 -0.08418821 0.01490341 255 12 12
-0.02699016 -0.08418592 0.01614158 255 12 12
-0.02798678 -0.08415375 0.01607164 255 12 12
-0.03092840 -0.08413701 0.01679317 255 12 12
-0.03171787 -0.08410230 0.01662833 255 12 12
-0.03230913 -0.08406119 0.01632553 255 12 12
-0.03233712 -0.08399441 0.01554211 255 12 12
-0.03371722 -0.08392568 0.01515842 255 12 12
-0.03414205 -0.08387766 0.01472163 255 12 12
-0.03344596 -0.08368799 0.01225381 255 12 12
-0.03381171 -0.08364927 0.01190888 255 12 12
-0.03337847 -0.08346654 0.00960551 255 12 12
-0.03385897 -0.08341870 0.00918833 255 12 12
-0.03443957 -0.08336222 0.00869987 255 12 12
-0.03526591 -0.08333799 0.00867086 255 12 12
-0.03765795 -0.08335798 0.00965627 255 12 12
-0.04815487 -0.08402659 0.02087135 255 12 12
-0.05082984 -0.08418609 0.02360016 255 12 12
-0.05071588 -0.08399904 0.02134549 255 12 12
-0.04936204 -0.08340789 0.01390909 255 12 12
-0.04878201 -0.08309944 0.01006856 255 12 12
-0.04915863 -0.08305330 0.00963892 255 12 12
-0.04911841 -0.08291965 0.00804080 255 12 12
-0.04947072 -0.08285377 0.00736949 255 12 12
-0.04993573 -0.08280459 0.00693156 255 12 12
-0.05014530 -0.08272591 0.00606366 255 12 12
-0.05084373 -0.08273192 0.00635343 255 12 12
-0.05153104 -0.08273926 0.00665544 255 12 12
-0.05213466 -0.08272970 0.00673083 255 12 12
-0.05280341 -0.08271758 0.00679621 255 12 12
-0.05348219 -0.08272760 0.00712745 255 12 12
-0.05413891 -0.08273942 0.00747310 255 12 12
-0.05456249 -0.08267638 0.00685768 255 12 12
-0.05508062 -0.08265282 0.00674030 255 12 12
-0.05556982 -0.08260973 0.00638209 255 12 12
-0.05602093 -0.08254756 0.00578563 255 12 12
-0.05653139 -0.08250496 0.00544000 255 12 12
-0.05709228 -0.08246107 0.00509473 255 12 12
-0.05840244 -0.08251694 0.00616729 255 12 12
-0.05960325 -0.08257962 0.00728643 255 12 12
-0.06092939 -0.08285151 0.01092673 255 12 12
-0.06388414 -0.08379735 0.02307163 255 12 12
-0.06416995 -0.08381187 0.02333322 255 12 12
-0.06500903 -0.08354191 0.02039306 255 12 12
-0.06581703 -0.08367533 0.02222863 255 12 12
-0.06653887 -0.08360124 0.02157549 255 12 12
-0.06685862 -0.08359719 0.02162746 255 12 12
-0.06722271 -0.08357172 0.02143920 255 12 12
-0.06754442 -0.08356847 0.02150122 255 12 12
-0.06791754 -0.08354373 0.02132449 255 12 12
-0.06894135 -0.08351577 0.02131293 255 12 12
-0.06946031 -0.08364552 0.02301458 255 12 12
-0.06954328 -0.08371164 0.02382483 255 12 12
-0.08115673 -0.08225596 0.01018838 255 12 12
-0.08204651 -0.08220194 0.00982580 255 12 12
-0.08441454 -0.08208676 0.00920013 255 12 12
-0.08479010 -0.08212166 0.00973157 255 12 12
-0.08514545 -0.08215688 0.01026052 255 12 12
-0.08563989 -0.08217190 0.01059332 255 12 12
-0.08570546 -0.08225073 0.01154911 255 12 12
-0.08603320 -0.08228778 0.01209104 255 12 12
-0.08634975 -0.08232533 0.01263557 255 12 12
-0.08650184 -0.08238398 0.01337890 255 12 12
-0.08724527 -0.08236027 0.01333019 255 12 12
-0.08817037 -0.08231803 0.01311842 255 12 12
-0.08861342 -0.08233760 0.01348911 255 12 12
-0.08922367 -0.08233812 0.01368626 255 12 12
-0.09017679 -0.08230010 0.01353326 255 12 12
-0.09096215 -0.08228307 0.01357688 255 12 12
-0.09175224 -0.08226734 0.01363738 255 12 12
-0.09254673 -0.08225292 0.01371490 255 12 12
-0.09291675 -0.08227436 0.01408492 255 12 12
-0.09243517 -0.08239596 0.01537683 255 12 12
-0.09246376 -0.08245890 0.01613247 255 12 12
-0.09195979 -0.08264444 0.01817597 255 12 12
-0.09194716 -0.08270780 0.01892361 255 12 12
-0.09134066 -0.08282632 0.02013992 255 12 12
-0.09109467 -0.08290717 0.02102220 255 12 12
-0.09143270 -0.08293433 0.02145007 255 12 12
-0.09175828 -0.08296158 0.02187524 255 12 12
-0.09186984 -0.08300657 0.02244379 255 12 12
-0.09218043 -0.08303476 0.02287536 255 12 12
-0.09548961 -0.08287105 0.02196828 255 12 12
-0.09780996 -0.08280307 0.02188766 255 12 12
-0.10035499 -0.08272535 0.02176160 255 12 12
-0.10088145 -0.08274656 0.02217800 255 12 12
-0.10184837 -0.08273797 0.02237844 255 12 12
-0.10327150 -0.08270176 0.02239402 255 12 12
-0.10446852 -0.08268229 0.02253750 255 12 12
-0.10589456 -0.08265022 0.02260310 255 12 12
-0.10710119 -0.08263598 0.02281147 255 12 12
-0.10717181 -0.08269726 0.02356062 255 12 12
-0.10631271 -0.08281610 0.02470172 255 12 12
-0.10566036 -0.08291896 0.02571793 255 12 12
-0.10540396 -0.08329537 0.03010308 255 12 12
-0.10679574 -0.08328224 0.03038273 255 12 12
-0.10746339 -0.08330742 0.03089017 255 12 12
-0.09737488 -0.08398799 0.03580846 255 12 12
-0.09821651 -0.08399565 0.03616264 255 12 12
-0.09669558 -0.08415069 0.03752612 255 12 12
-0.09932730 -0.08413595 0.03817440 255 12 12
-0.10013527 -0.08414647 0.03855195 255 12 12
-0.10094538 -0.08416296 0.03900101 255 12 12
-0.10224741 -0.08416428 0.03942384 255 12 12
-0.56332920 -0.06950402 0.00972394 255 12 12
-0.55805427 -0.07029895 0.01750441 255 12 12
-0.55365225 -0.07104252 0.02494873 255 12 12
-0.55563741 -0.07160520 0.03224481 255 12 12
-0.64824916 -0.07041043 0.04703825 255 12 12
-0.65289615 -0.07102024 0.05572597 255 12 12
-0.65166786 -0.07177910 0.06434430 255 12 12
-0.65704481 -0.07240329 0.07343098 255 12 12
-0.66677956 -0.07293757 0.08281406 255 12 12
-0.67163042 -0.07359314 0.09210847 255 12 12
-0.67708321 -0.07425149 0.10162418 255 12 12
-0.67980687 -0.09156152 0.30782821 255 12 12
-0.68863382 -0.09256980 0.32255043 255 12 12
-0.69284935 -0.09355754 0.33558673 255 12 12
-0.69298603 -0.09451261 0.34695966 255 12 12
-0.68975968 -0.09548236 0.35745488 255 12 12
-0.67389488 -0.09620009 0.36100719 255 12 12
-0.66761405 -0.09704754 0.36909617 255 12 12
-0.66986448 -0.09808499 0.38210751 255 12 12
-0.66738306 -0.09898536 0.39201261 255 12 12
-0.66304330 -0.09988640 0.40134450 255 12 12
-0.60735390 -0.10041148 0.39015498 255 12 12
-0.59321163 -0.10095537 0.39218379 255 12 12
-0.58512273 -0.10165450 0.39794769 255 12 12
-0.57800160 -0.10237496 0.40426732 255 12 12
-0.57100935 -0.10309322 0.41060115 255 12 12
-0.56363933 -0.10380958 0.41679424 255 12 12
-0.55590457 -0.10448697 0.42241089 255 12 12
-0.54811235 -0.10515355 0.42788147 255 12 12
-0.53987839 -0.10579277 0.43288926 255 12 12
-0.53072974 -0.10639920 0.43722190 255 12 12
-0.52298737 -0.10703907 0.44239111 255 12 12
-0.51575225 -0.10769572 0.44791810 255 12 12
-0.50790207 -0.10831517 0.45281139 255 12 12
-0.50050371 -0.10898866 0.45848701 255 12 12
-0.49439959 -0.10971033 0.46513907 255 12 12
-0.48707850 -0.11034220 0.47034517 255 12 12
-0.47940557 -0.11096729 0.47536077 255 12 12
-0.47247853 -0.11161364 0.48086187 255 12 12
-0.46586143 -0.11229851 0.48691697 255 12 12
-0.45927650 -0.11296507 0.49276488 255 12 12
-0.45248135 -0.11363786 0.49862087 255 12 12
-0.44680743 -0.11435214 0.50531981 255 12 12
-0.44042203 -0.11503882 0.51146878 255 12 12
-0.43332257 -0.11567060 0.51674309 255 12 12
-0.42750628 -0.11641044 0.52370076 255 12 12
-0.42128308 -0.11714643 0.53048550 255 12 12
-0.41478220 -0.11784079 0.53668950 255 12 12
-0.40746586 -0.11846285 0.54178061 255 12 12
-0.40021367 -0.11909158 0.54697107 255 12 12
-0.39328593 -0.11978107 0.55298371 255 12 12
-0.38533283 -0.12033964 0.55712256 255 12 12
-0.37745802 -0.12090376 0.56135173 255 12 12
-0.36990645 -0.12150368 0.56610675 255 12 12
-0.36053865 -0.12191115 0.56801051 255 12 12
-0.35048752 -0.12218724 0.56814201 255 12 12
-0.34107961 -0.12252415 0.56919623 255 12 12
-0.33102286 -0.12275210 0.56875489 255 12 12
-0.32103924 -0.12296293 0.56813336 255 12 12
-0.31337218 -0.12349687 0.57206952 255 12 12
-0.30636760 -0.12413792 0.57748346 255 12 12
-0.29795695 -0.12455787 0.57983475 255 12 12
-0.29054022 -0.12517838 0.58487620 255 12 12
-0.28233520 -0.12563056 0.58767404 255 12 12
-0.27284049 -0.12583169 0.58709037 255 12 12
-0.26548042 -0.12643647 0.59196283 255 12 12
-0.25977268 -0.12744988 0.60219986 255 12 12
-0.25268905 -0.12817217 0.60855291 255 12 12
-0.24424764 -0.12860244 0.61101699 255 12 12
-0.11232932 -0.09866493 0.21460117 255 12 12
-0.11018501 -0.09890192 0.21674193 255 12 12
-0.10743350 -0.09896944 0.21668235 255 12 12
-0.10457776 -0.09899522 0.21609490 255 12 12
-0.10191923 -0.09909482 0.21644497 255 12 12
-0.09920520 -0.09915051 0.21625670 255 12 12
-0.09631634 -0.09912474 0.21504751 255 12 12
-0.09381925 -0.09925019 0.21575470 255 12 12
-0.09116618 -0.09937861 0.21644828 255 12 12
-0.08823367 -0.09930195 0.21462169 255 12 12
-0.08537630 -0.09919794 0.21249399 255 12 12
-0.08262733 -0.09915021 0.21106802 255 12 12
-0.08006263 -0.09909283 0.20958502 255 12 12
-0.07747519 -0.09905437 0.20831952 255 12 12
-0.07491086 -0.09899103 0.20676602 255 12 12
-0.07246597 -0.09902609 0.20641726 255 12 12
-0.07000997 -0.09910051 0.20653193 255 12 12
-0.06760382 -0.09919142 0.20685781 255 12 12
-0.06522553 -0.09953060 0.21013764 255 12 12
-0.06275312 -0.09980629 0.21263489 255 12 12
-0.06015352 -0.09989310 0.21285157 255 12 12
-0.05762638 -0.09989084 0.21203433 255 12 12
-0.05515701 -0.09990509 0.21143100 255 12 12
-0.05262694 -0.09995958 0.21128615 255 12 12
-0.05015262 -0.10005190 0.21160747 255 12 12
-0.04766631 -0.10009930 0.21139211 255 12 12
-0.04518336 -0.10014354 0.21114029 255 12 12
-0.04273457 -0.10016297 0.21060483 255 12 12
-0.04027428 -0.10013705 0.20952786 255 12 12
-0.03769856 -0.10021552 0.20965314 255 12 12
-0.03520070 -0.10026854 0.20950083 255 12 12
-0.03144705 -0.09988239 0.20374577 255 12 12
-0.02917397 -0.09988138 0.20302274 255 12 12
-0.02680426 -0.09992115 0.20275343 255 12 12
-0.02396373 -0.10013357 0.20438489 255 12 12
