ply
format ascii 1.0
element vertex 289
property float x
property float y
property float z
property uchar red
property uchar green
property uchar blue
end_header
0.17650489 -0.17004465 0.97105040 255 12 12
0.18868332 -0.17017997 0.96884646 255 12 12
0.20072918 -0.17034486 0.96703493 255 12 12
0.21280758 -0.17043079 0.96427642 255 12 12
0.22470995 -0.17045880 0.96088586 255 12 12
0.23688154 -0.17056082 0.95828916 255 12 12
0.24918738 -0.17075939 0.95679572 255 12 12
0.26141866 -0.17085557 0.95411107 255 12 12
0.27354622 -0.17091564 0.95103039 255 12 12
0.28645501 -0.17115907 0.94988064 255 12 12
0.29867952 -0.17128009 0.94749274 255 12 12
0.31105090 -0.17136321 0.94460932 255 12 12
0.32335892 -0.17147800 0.94212137 255 12 12
0.33590917 -0.17157598 0.93935823 255 12 12
0.34904124 -0.17183672 0.93834394 255 12 12
0.36266999 -0.17212281 0.93747515 255 12 12
0.37788166 -0.17222946 0.93398242 255 12 12
0.42964772 -0.09447833 -0.00458514 255 12 12
0.42130385 -0.09379939 -0.01002979 255 12 12
0.41637516 -0.09319183 -0.01569576 255 12 12
0.41214123 -0.09261487 -0.02121608 255 12 12
0.40930885 -0.09205365 -0.02698806 255 12 12
0.40735010 -0.09161836 -0.03153925 255 12 12
0.40470383 -0.09109968 -0.03686477 255 12 12
0.40273485 -0.09059189 -0.04227288 255 12 12
0.40192970 -0.09009756 -0.04788547 255 12 12
0.40277628 -0.08951691 -0.05503853 255 12 12
0.40419926 -0.08901348 -0.06145590 255 12 12
0.40431746 -0.08849570 -0.06763544 255 12 12
0.40629353 -0.08798435 -0.07431978 255 12 12
0.40983280 -0.08746017 -0.08164524 255 12 12
0.41474148 -0.08694001 -0.08935134 255 12 12
0.23354251 -0.08358907 -0.07242858 255 12 12
0.23207183 -0.08323855 -0.07612690 255 12 12
0.22913784 -0.08289318 -0.07930635 255 12 12
0.22191493 -0.08261847 -0.08030611 255 12 12
0.21532708 -0.08233497 -0.08160872 255 12 12
0.21147358 -0.08202949 -0.08402738 255 12 12
-0.01153508 -0.08443511 0.01426375 255 12 12
-0.01212683 -0.08437467 0.01373182 255 12 12
-0.01357501 -0.08433674 0.01373483 255 12 12
-0.01459663 -0.08428962 0.01349533 255 12 12
-0.01474522 -0.08422573 0.01278387 255 12 12
-0.01823105 -0.08418410 0.01338025 255 12 12
-0.02147430 -0.08414688 0.01395323 255 12 12
-0.02691297 -0.08402480 0.01420604 255 12 12
-0.02863223 -0.08403501 0.01486484 255 12 12
-0.02937333 -0.08400640 0.01475734 255 12 12
-0.02956021 -0.08395077 0.01415578 255 12 12
-0.02993595 -0.08390490 0.01372912 255 12 12
-0.03067861 -0.08387885 0.01365243 255 12 12
-0.03142606 -0.08385312 0.01358100 255 12 12
-0.03162864 -0.08379927 0.01300549 255 12 12
-0.03166263 -0.08373514 0.01225532 255 12 12
-0.03117411 -0.08364034 0.01097794 255 12 12
-0.03369279 -0.08354740 0.01066317 255 12 12
-0.03342441 -0.08346192 0.00956510 255 12 12
-0.03359874 -0.08338893 0.00875375 255 12 12
-0.03403420 -0.08334655 0.00838720 255 12 12
-0.03431638 -0.08329237 0.00783266 255 12 12
-0.03614219 -0.08328363 0.00830005 255 12 12
-0.03688406 -0.08326945 0.00836391 255 12 12
-0.04306405 -0.08361292 0.01437158 255 12 12
-0.04723075 -0.08390066 0.01908834 255 12 12
-0.04767056 -0.08389013 0.01910103 255 12 12
-0.04907338 -0.08392833 0.01999289 255 12 12
-0.04854368 -0.08374904 0.01770034 255 12 12
-0.04880568 -0.08358642 0.01585300 255 12 12
-0.04903768 -0.08354663 0.01545357 255 12 12
-0.04877964 -0.08333013 0.01280446 255 12 12
-0.04876449 -0.08323848 0.01171252 255 12 12
-0.04822871 -0.08285998 0.00705467 255 12 12
-0.04843709 -0.08266674 0.00482743 255 12 12
-0.04907352 -0.08267481 0.00512223 255 12 12
-0.04938638 -0.08261241 0.00447978 255 12 12
-0.04979402 -0.08256755 0.00407518 255 12 12
-0.05052101 -0.08259451 0.00462234 255 12 12
-0.05126333 -0.08262124 0.00517169 255 12 12
-0.05168184 -0.08257757 0.00478447 255 12 12
-0.05189204 -0.08247940 0.00368563 255 12 12
-0.05246669 -0.08247271 0.00378601 255 12 12
-0.05294206 -0.08244968 0.00366144 255 12 12
-0.05338107 -0.08240723 0.00329523 255 12 12
-0.05422851 -0.08230386 0.00233390 255 12 12
-0.05492788 -0.08233749 0.00295165 255 12 12
-0.05568147 -0.08241224 0.00407418 255 12 12
-0.05621864 -0.08241118 0.00422958 255 12 12
-0.05651662 -0.08229254 0.00291529 255 12 12
-0.05700229 -0.08227332 0.00283925 255 12 12
-0.05754571 -0.08227362 0.00301275 255 12 12
-0.05795734 -0.08219465 0.00220469 255 12 12
-0.05909292 -0.08223851 0.00308016 255 12 12
-0.05962076 -0.08224153 0.00328117 255 12 12
-0.06018120 -0.08228616 0.00398587 255 12 12
-0.06067531 -0.08227030 0.00395222 255 12 12
-0.06121904 -0.08231652 0.00467067 255 12 12
-0.06280604 -0.08306888 0.01409248 255 12 12
-0.06411710 -0.08345575 0.01909202 255 12 12
-0.06516545 -0.08358104 0.02090630 255 12 12
-0.06547689 -0.08357536 0.02093630 255 12 12
-0.06637022 -0.08353990 0.02079507 255 12 12
-0.06720981 -0.08348653 0.02042453 255 12 12
-0.06739224 -0.08352721 0.02096418 255 12 12
-0.06783631 -0.08358735 0.02181651 255 12 12
-0.06825675 -0.08362749 0.02242424 255 12 12
-0.06877142 -0.08353822 0.02152613 255 12 12
-0.06930382 -0.08344917 0.02063628 255 12 12
-0.06958744 -0.08353575 0.02175202 255 12 12
-0.06992546 -0.08351355 0.02159445 255 12 12
-0.07098043 -0.08344885 0.02115682 255 12 12
-0.07119011 -0.08347197 0.02149676 255 12 12
-0.07164691 -0.08342951 0.02113587 255 12 12
-0.07192462 -0.08343128 0.02124376 255 12 12
-0.07211220 -0.08345534 0.02158789 255 12 12
-0.07434268 -0.08308869 0.01793588 255 12 12
-0.07634737 -0.08281286 0.01529063 255 12 12
-0.08158137 -0.08207359 0.00815762 255 12 12
-0.08252458 -0.08199584 0.00753029 255 12 12
-0.08349914 -0.08189539 0.00664348 255 12 12
-0.08420567 -0.08186201 0.00646854 255 12 12
-0.08466731 -0.08187231 0.00673504 255 12 12
-0.08525451 -0.08186181 0.00679416 255 12 12
-0.08573181 -0.08187383 0.00708602 255 12 12
-0.08606099 -0.08190742 0.00758750 255 12 12
-0.08650846 -0.08192003 0.00787708 255 12 12
-0.08668239 -0.08197564 0.00859115 255 12 12
-0.08698422 -0.08201052 0.00909933 255 12 12
-0.08698688 -0.08208760 0.01001462 255 12 12
-0.08710867 -0.08214360 0.01071700 255 12 12
-0.08752552 -0.08215865 0.01102597 255 12 12
-0.08792090 -0.08217358 0.01132675 255 12 12
-0.08816619 -0.08220989 0.01183423 255 12 12
-0.08990942 -0.08212087 0.01132341 255 12 12
-0.09049808 -0.08211972 0.01149393 255 12 12
-0.09139938 -0.08207840 0.01128556 255 12 12
-0.09213446 -0.08205787 0.01127195 255 12 12
-0.09288308 -0.08203879 0.01127985 255 12 12
-0.09309464 -0.08207862 0.01181851 255 12 12
-0.09366254 -0.08208040 0.01201719 255 12 12
-0.09440641 -0.08206346 0.01204893 255 12 12
-0.09444035 -0.08212506 0.01279035 255 12 12
-0.09475591 -0.08214414 0.01311532 255 12 12
-0.09493472 -0.08218581 0.01366559 255 12 12
-0.09473609 -0.08226570 0.01455126 255 12 12
-0.09452077 -0.08234526 0.01542780 255 12 12
-0.09473294 -0.08239174 0.01604556 255 12 12
-0.09450106 -0.08247191 0.01692401 255 12 12
-0.09320708 -0.08270399 0.01927248 255 12 12
-0.09310723 -0.08276359 0.01994835 255 12 12
-0.09359742 -0.08276969 0.02017398 255 12 12
-0.09367940 -0.08281156 0.02069639 255 12 12
-0.09396151 -0.08283644 0.02107983 255 12 12
-0.09637717 -0.08273309 0.02060924 255 12 12
-0.09728360 -0.08270947 0.02061256 255 12 12
-0.09840463 -0.08267040 0.02049971 255 12 12
-0.09890634 -0.08268411 0.02081926 255 12 12
-0.09961244 -0.08268140 0.02100806 255 12 12
-0.10139201 -0.08259793 0.02057442 255 12 12
-0.10297196 -0.08253370 0.02030658 255 12 12
-0.10325234 -0.08256751 0.02079536 255 12 12
-0.10331356 -0.08261835 0.02141772 255 12 12
-0.10628942 -0.08251869 0.02116623 255 12 12
-0.10678252 -0.08254095 0.02158446 255 12 12
-0.10750250 -0.08254984 0.02191519 255 12 12
-0.10753668 -0.08260369 0.02256469 255 12 12
-0.10711211 -0.08268775 0.02342911 255 12 12
-0.10645417 -0.08284010 0.02503067 255 12 12
-0.09840044 -0.08350895 0.03044627 255 12 12
-0.10860689 -0.08308790 0.02864368 255 12 12
-0.11022011 -0.08305621 0.02877238 255 12 12
-0.11016019 -0.08311342 0.02943223 255 12 12
-0.10961023 -0.08319458 0.03022311 255 12 12
-0.10022854 -0.08383104 0.03483909 255 12 12
-0.09959529 -0.08389836 0.03543972 255 12 12
-0.09969157 -0.08393425 0.03589556 255 12 12
-0.10002565 -0.08395923 0.03629635 255 12 12
-0.10035716 -0.08398572 0.03671428 255 12 12
-0.10106354 -0.08407231 0.03796254 255 12 12
-0.10087881 -0.08411891 0.03845761 255 12 12
-0.10601533 -0.08406757 0.03945507 255 12 12
-0.10655906 -0.08409521 0.03995302 255 12 12
-0.56053292 -0.07237880 0.04295335 255 12 12
-0.56576043 -0.07275894 0.04909811 255 12 12
-0.57340654 -0.07310278 0.05556876 255 12 12
-0.57197656 -0.07367428 0.06190131 255 12 12
-0.56397705 -0.07438919 0.06788030 255 12 12
-0.55641485 -0.07506723 0.07355865 255 12 12
-0.55077355 -0.07570288 0.07933508 255 12 12
-0.54607221 -0.07629846 0.08492998 255 12 12
-0.54378174 -0.07685291 0.09079113 255 12 12
-0.54193103 -0.07738517 0.09652660 255 12 12
-0.54098797 -0.07791156 0.10247627 255 12 12
-0.54096117 -0.07842390 0.10854584 255 12 12
-0.54135114 -0.07893218 0.11469761 255 12 12
-0.54168221 -0.07943270 0.12073902 255 12 12
-0.54265253 -0.07993979 0.12705817 255 12 12
-0.54518514 -0.08046906 0.13412919 255 12 12
-0.54619597 -0.08099815 0.14072208 255 12 12
-0.54714432 -0.08152121 0.14722380 255 12 12
-0.55041201 -0.08204437 0.15445221 255 12 12
-0.55585639 -0.08252929 0.16190779 255 12 12
-0.55918381 -0.08306358 0.16928694 255 12 12
-0.55926285 -0.08362126 0.17592756 255 12 12
-0.55973392 -0.08418181 0.18272479 255 12 12
-0.56422861 -0.08472871 0.19061857 255 12 12
-0.57118911 -0.08530133 0.19958887 255 12 12
-0.56828776 -0.08587449 0.20548089 255 12 12
-0.55934595 -0.08644701 0.20947594 255 12 12
-0.69619817 -0.08821655 0.27327302 255 12 12
-0.81272661 -0.09141357 0.34764777 255 12 12
-0.24745299 -0.09428170 0.20486623 255 12 12
-0.24323380 -0.09444312 0.20546147 255 12 12
-0.24081619 -0.09466658 0.20735622 255 12 12
-0.23801646 -0.09486820 0.20887235 255 12 12
-0.23466898 -0.09503651 0.20982210 255 12 12
-0.23172486 -0.09521522 0.21102122 255 12 12
-0.22908046 -0.09541593 0.21257524 255 12 12
-0.22612487 -0.09558733 0.21368415 255 12 12
-0.22158738 -0.09566155 0.21314542 255 12 12
-0.21819020 -0.09578483 0.21354528 255 12 12
-0.21608611 -0.09599864 0.21542366 255 12 12
-0.21216043 -0.09608327 0.21519973 255 12 12
-0.20987509 -0.09627955 0.21681344 255 12 12
-0.20095068 -0.09636850 0.21507725 255 12 12
-0.20001088 -0.09666961 0.21835544 255 12 12
-0.20037105 -0.09708742 0.22342471 255 12 12
-0.19884105 -0.09732905 0.22581259 255 12 12
-0.19570841 -0.09744765 0.22623975 255 12 12
-0.19287346 -0.09758866 0.22702589 255 12 12
-0.19032184 -0.09775337 0.22818175 255 12 12
-0.18741917 -0.09791828 0.22923017 255 12 12
-0.18466421 -0.09806724 0.23013568 255 12 12
-0.18203929 -0.09822723 0.23121258 255 12 12
-0.17796848 -0.09822513 0.22991448 255 12 12
-0.17528055 -0.09835856 0.23065659 255 12 12
-0.17391936 -0.09865640 0.23376422 255 12 12
-0.17083216 -0.09874042 0.23379528 255 12 12
-0.16770875 -0.09882384 0.23380801 255 12 12
-0.16564474 -0.09901916 0.23547956 255 12 12
-0.16338778 -0.09920132 0.23693455 255 12 12
-0.16178161 -0.09947687 0.23970117 255 12 12
-0.16012221 -0.09975295 0.24245729 255 12 12
-0.15744920 -0.09990692 0.24344776 255 12 12
-0.15482147 -0.10005460 0.24437786 255 12 12
-0.15213965 -0.10017956 0.24502140 255 12 12
-0.14959580 -0.10033855 0.24611197 255 12 12
-0.14699919 -0.10047490 0.24691726 255 12 12
-0.14424777 -0.10059485 0.24747969 255 12 12
-0.14190774 -0.10077762 0.24891596 255 12 12
-0.13905681 -0.10087471 0.24917610 255 12 12
-0.13635127 -0.10098285 0.24961273 255 12 12
-0.13407183 -0.10119779 0.25144966 255 12 12
-0.13127284 -0.10128292 0.25158410 255 12 12
-0.12805187 -0.10127724 0.25050928 255 12 12
-0.12529728 -0.10137609 0.25082031 255 12 12
-0.12254493 -0.10147182 0.25109512 255 12 12
-0.11998318 -0.10159875 0.25179968 255 12 12
-0.11823004 -0.10198777 0.25586632 255 12 12
-0.11650208 -0.10241595 0.26040540 255 12 12
-0.11404827 -0.10263721 0.26226281 255 12 12
-0.11140282 -0.10277802 0.26310578 255 12 12
-0.10858315 -0.10288061 0.26344090 255 12 12
-0.10601198 -0.10305518 0.26470756 255 12 12
-0.10357647 -0.10332793 0.26718151 255 12 12
-0.10098237 -0.10351889 0.26863559 255 12 12
-0.09825825 -0.10369079 0.26982282 255 12 12
-0.09518659 -0.10363958 0.26825453 255 12 12
-0.09024213 -0.10430960 0.27465658 255 12 12
-0.06680447 -0.16929083 1.03821009 255 12 12
-0.05459003 -0.16927202 1.03416651 255 12 12
-0.04221566 -0.16920242 1.02947040 255 12 12
-0.03020921 -0.16915304 1.02512925 255 12 12
-0.01799238 -0.16917986 1.02162619 255 12 12
-0.00605173 -0.16929288 1.01923223 255 12 12
0.00605074 -0.16933354 1.01592913 255 12 12
0.01777306 -0.16931172 1.01200375 255 12 12
0.02976929 -0.16936677 1.00890463 255 12 12
0.04146451 -0.16942481 1.00593511 255 12 12
0.05333384 -0.16945206 1.00254584 255 12 12
0.06503886 -0.16956979 1.00028141 255 12 12
0.07693139 -0.16965649 0.99759027 255 12 12
0.08780039 -0.16961076 0.99364814 255 12 12
0.09928291 -0.16964614 0.99047626 255 12 12
0.11075587 -0.16969032 0.98741187 255 12 12
0.12241919 -0.16983089 0.98543149 255 12 12
0.13426666 -0.16993915 0.98301007 255 12 12
0.14571810 -0.16998836 0.98001207 255 12 12
0.15724050 -0.17006863 0.97736042 255 12 12
0.16854917 -0.17007031 0.97384314 255 12 12
