ply
format ascii 1.0
element vertex 208
property float x
property float y
property float z
property uchar red
property uchar green
property uchar blue
end_header
-0.00965394 -0.10494829 0.25702697 255 12 12
-0.03393445 -0.08369408 0.01247879 255 12 12
-0.03451827 -0.08366157 0.01227576 255 12 12
-0.03418525 -0.08349762 0.01022666 255 12 12
-0.03446712 -0.08344195 0.00965430 255 12 12
-0.03646760 -0.08344092 0.01026786 255 12 12
-0.03661101 -0.08337380 0.00951639 255 12 12
-0.03721661 -0.08334500 0.00936424 255 12 12
-0.05084594 -0.08418482 0.02359011 255 12 12
-0.05111005 -0.08416417 0.02342780 255 12 12
-0.05002228 -0.08392957 0.02030446 255 12 12
-0.05045820 -0.08392159 0.02034610 255 12 12
-0.05003588 -0.08373712 0.01802566 255 12 12
-0.05003695 -0.08366625 0.01718523 255 12 12
-0.04883786 -0.08307309 0.00977340 255 12 12
-0.04918619 -0.08305161 0.00962754 255 12 12
-0.04927531 -0.08295550 0.00851520 255 12 12
-0.04956206 -0.08289341 0.00786839 255 12 12
-0.05004671 -0.08286537 0.00768729 255 12 12
-0.05026378 -0.08278609 0.00681471 255 12 12
-0.05075279 -0.08275903 0.00664665 255 12 12
-0.05139839 -0.08276837 0.00695934 255 12 12
-0.05203339 -0.08277888 0.00728259 255 12 12
-0.05261625 -0.08277075 0.00736853 255 12 12
-0.05310754 -0.08274604 0.00722901 255 12 12
-0.05352674 -0.08270370 0.00685785 255 12 12
-0.05396416 -0.08266108 0.00648900 255 12 12
-0.05446740 -0.08263760 0.00636791 255 12 12
-0.05508062 -0.08265282 0.00674030 255 12 12
-0.05546853 -0.08259270 0.00614839 255 12 12
-0.05592877 -0.08255146 0.00580312 255 12 12
-0.05642564 -0.08248798 0.00520544 255 12 12
-0.05692688 -0.08244638 0.00486865 255 12 12
-0.05757308 -0.08248474 0.00552593 255 12 12
-0.05817656 -0.08250417 0.00594521 255 12 12
-0.05866616 -0.08250725 0.00613485 255 12 12
-0.05925461 -0.08254957 0.00682090 255 12 12
-0.05982346 -0.08259315 0.00751587 255 12 12
-0.06101778 -0.08284868 0.01092085 255 12 12
-0.06294258 -0.08380019 0.02281082 255 12 12
-0.06322257 -0.08372972 0.02206240 255 12 12
-0.06352301 -0.08365905 0.02131798 255 12 12
-0.06410754 -0.08368714 0.02183407 255 12 12
-0.06444189 -0.08361669 0.02110284 255 12 12
-0.06476187 -0.08358895 0.02087388 255 12 12
-0.06516941 -0.08374967 0.02290797 255 12 12
-0.06547469 -0.08372321 0.02268959 255 12 12
-0.06571935 -0.08374035 0.02296941 255 12 12
-0.06660854 -0.08355783 0.02108224 255 12 12
-0.06686834 -0.08372499 0.02314656 255 12 12
-0.06705226 -0.08376583 0.02368860 255 12 12
-0.06807849 -0.08356399 0.02161507 255 12 12
-0.06818283 -0.08373606 0.02368903 255 12 12
-0.06849844 -0.08371300 0.02351424 255 12 12
-0.06863225 -0.08375614 0.02406783 255 12 12
-0.07019175 -0.08375814 0.02457932 255 12 12
-0.07054732 -0.08373774 0.02444856 255 12 12
-0.07080898 -0.08373962 0.02455272 255 12 12
-0.07242499 -0.08350389 0.02226171 255 12 12
-0.08048876 -0.08231488 0.01067838 255 12 12
-0.08258124 -0.08214096 0.00926969 255 12 12
-0.08348015 -0.08208833 0.00892640 255 12 12
-0.08422302 -0.08203272 0.00849910 255 12 12
-0.08424155 -0.08220625 0.01056347 255 12 12
-0.08497154 -0.08217694 0.01044415 255 12 12
-0.08541874 -0.08219043 0.01074401 255 12 12
-0.08529685 -0.08228862 0.01187080 255 12 12
-0.08557829 -0.08232384 0.01237661 255 12 12
-0.08599291 -0.08241736 0.01361579 255 12 12
-0.08686866 -0.08237182 0.01334942 255 12 12
-0.08759884 -0.08234798 0.01329492 255 12 12
-0.08833510 -0.08232520 0.01325496 255 12 12
-0.08875988 -0.08234427 0.01361411 255 12 12
-0.09075391 -0.08224391 0.01304724 255 12 12
-0.09151437 -0.08222574 0.01306952 255 12 12
-0.09273885 -0.08229376 0.01425949 255 12 12
-0.09241988 -0.08239502 0.01536091 255 12 12
-0.09244889 -0.08245795 0.01611653 255 12 12
-0.09132174 -0.08269558 0.01858303 255 12 12
-0.09128444 -0.08275695 0.01929942 255 12 12
-0.09102803 -0.08283573 0.02015385 255 12 12
-0.09096010 -0.08289667 0.02085552 255 12 12
-0.09126450 -0.08292067 0.02123549 255 12 12
-0.09156963 -0.08294565 0.02162728 255 12 12
-0.09170347 -0.08299193 0.02221812 255 12 12
-0.09340451 -0.08300370 0.02288975 255 12 12
-0.09580707 -0.08290362 0.02245403 255 12 12
-0.10011554 -0.08273880 0.02184626 255 12 12
-0.10084670 -0.08274230 0.02211650 255 12 12
-0.10070037 -0.08281044 0.02287912 255 12 12
-0.10396037 -0.08270426 0.02263919 255 12 12
-0.10492902 -0.08270081 0.02290114 255 12 12
-0.10566714 -0.08271339 0.02328128 255 12 12
-0.10595341 -0.08275764 0.02389574 255 12 12
-0.10528505 -0.08285518 0.02484387 255 12 12
-0.10461864 -0.08295475 0.02581669 255 12 12
-0.09542993 -0.08369916 0.03177371 255 12 12
-0.10566052 -0.08328721 0.03008661 255 12 12
-0.09589472 -0.08404786 0.03605570 255 12 12
-0.09648400 -0.08406289 0.03641842 255 12 12
-0.09912525 -0.08403558 0.03692051 255 12 12
-0.10116681 -0.08413563 0.03874598 255 12 12
-0.10172397 -0.08416098 0.03922098 255 12 12
-0.10177844 -0.08420548 0.03976597 255 12 12
-0.56250482 -0.06974876 0.01236954 255 12 12
-0.55591382 -0.07053458 0.01963027 255 12 12
-0.55196980 -0.07123797 0.02674118 255 12 12
-0.55716775 -0.07167522 0.03355415 255 12 12
-0.65199192 -0.07040825 0.04818298 255 12 12
-0.65138113 -0.07112489 0.05649364 255 12 12
-0.65166242 -0.07179273 0.06450425 255 12 12
-0.65681869 -0.07236738 0.07293425 255 12 12
-0.66559435 -0.07287912 0.08174997 255 12 12
-0.67124722 -0.07347451 0.09058125 255 12 12
-0.67649026 -0.07412066 0.09988659 255 12 12
-0.67858631 -0.09156624 0.30750244 255 12 12
-0.68779669 -0.09254320 0.32197306 255 12 12
-0.69400683 -0.09346704 0.33487515 255 12 12
-0.69282683 -0.09435056 0.34498746 255 12 12
-0.68857526 -0.09519519 0.35367763 255 12 12
-0.67597613 -0.09589854 0.35808090 255 12 12
-0.66827929 -0.09688162 0.36733589 255 12 12
-0.67087751 -0.09790543 0.38029419 255 12 12
-0.66780316 -0.09882878 0.39028644 255 12 12
-0.66370505 -0.09973457 0.39975024 255 12 12
-0.65994183 -0.10052112 0.40790418 255 12 12
-0.60222936 -0.10086526 0.39393548 255 12 12
-0.58952423 -0.10140431 0.39635641 255 12 12
-0.58292760 -0.10212944 0.40289537 255 12 12
-0.57635100 -0.10283247 0.40917856 255 12 12
-0.56869307 -0.10349206 0.41460818 255 12 12
-0.56138240 -0.10415588 0.42019648 255 12 12
-0.55410705 -0.10483180 0.42593954 255 12 12
-0.54648531 -0.10546840 0.43110762 255 12 12
-0.53804468 -0.10606125 0.43550066 255 12 12
-0.52957630 -0.10664131 0.43973330 255 12 12
-0.52172567 -0.10725753 0.44458806 255 12 12
-0.51542754 -0.10792317 0.45051477 255 12 12
-0.50850296 -0.10855416 0.45583450 255 12 12
-0.50079446 -0.10913810 0.46035079 255 12 12
-0.49289976 -0.10987782 0.46665690 255 12 12
-0.48573546 -0.11051837 0.47201497 255 12 12
-0.47867844 -0.11116129 0.47743486 255 12 12
-0.47155261 -0.11179640 0.48274035 255 12 12
-0.46508777 -0.11234929 0.48727733 255 12 12
-0.45878529 -0.11301421 0.49319420 255 12 12
-0.45284362 -0.11368522 0.49929600 255 12 12
-0.44652178 -0.11435224 0.50523162 255 12 12
-0.44070659 -0.11503908 0.51156091 255 12 12
-0.43419664 -0.11569693 0.51732892 255 12 12
-0.42772883 -0.11633774 0.52290794 255 12 12
-0.42148842 -0.11702413 0.52909883 255 12 12
-0.41514407 -0.11770650 0.53520951 255 12 12
-0.40784304 -0.11830345 0.54000763 255 12 12
-0.40089167 -0.11890930 0.54502067 255 12 12
-0.39413713 -0.11956220 0.55065351 255 12 12
-0.38689589 -0.12014179 0.55526432 255 12 12
-0.37957873 -0.12073986 0.56007070 255 12 12
-0.37195000 -0.12127602 0.56404512 255 12 12
-0.36325902 -0.12170989 0.56647378 255 12 12
-0.35410010 -0.12204555 0.56759113 255 12 12
-0.34541534 -0.12245493 0.56973117 255 12 12
-0.33584067 -0.12270160 0.56966271 255 12 12
-0.32584613 -0.12289508 0.56883188 255 12 12
-0.31697762 -0.12344452 0.57257611 255 12 12
-0.30961962 -0.12406641 0.57765228 255 12 12
-0.30099841 -0.12445769 0.57959764 255 12 12
-0.29271396 -0.12493052 0.58261559 255 12 12
-0.28661869 -0.12550842 0.58756489 255 12 12
-0.27761391 -0.12577614 0.58792437 255 12 12
-0.26905811 -0.12607411 0.58878314 255 12 12
-0.26299563 -0.12691268 0.59683506 255 12 12
-0.25666063 -0.12773331 0.60458890 255 12 12
-0.24874090 -0.12823051 0.60801010 255 12 12
-0.24210832 -0.12900130 0.61507958 255 12 12
-0.23451400 -0.12961369 0.61996909 255 12 12
-0.22456446 -0.12965625 0.61736194 255 12 12
-0.11073070 -0.10383775 0.27546729 255 12 12
-0.10700532 -0.10380424 0.27390459 255 12 12
-0.10335705 -0.10380611 0.27278558 255 12 12
-0.09918799 -0.10382431 0.27169754 255 12 12
-0.09546711 -0.10379857 0.27022837 255 12 12
-0.09186106 -0.10380648 0.26919431 255 12 12
-0.08829319 -0.10380863 0.26810389 255 12 12
-0.08535163 -0.10386931 0.26790360 255 12 12
-0.08217592 -0.10406107 0.26918517 255 12 12
-0.07876051 -0.10400394 0.26743914 255 12 12
-0.07542679 -0.10398232 0.26613998 255 12 12
-0.07205327 -0.10391586 0.26429640 255 12 12
-0.06873309 -0.10363372 0.25991080 255 12 12
-0.06561301 -0.10388819 0.26195371 255 12 12
-0.06243115 -0.10422447 0.26494790 255 12 12
-0.05910452 -0.10426649 0.26440588 255 12 12
-0.05584584 -0.10432372 0.26406552 255 12 12
-0.05269216 -0.10431150 0.26293411 255 12 12
-0.04952533 -0.10427459 0.26150580 255 12 12
-0.04649996 -0.10431509 0.26103996 255 12 12
-0.04334320 -0.10437553 0.26076955 255 12 12
-0.04021682 -0.10441045 0.26020602 255 12 12
-0.03710243 -0.10444131 0.25959793 255 12 12
-0.03410906 -0.10436054 0.25770346 255 12 12
-0.03100157 -0.10440466 0.25725500 255 12 12
-0.02769766 -0.10455376 0.25799038 255 12 12
-0.02480741 -0.10448107 0.25622404 255 12 12
-0.02103632 -0.10466980 0.25728346 255 12 12
-0.01735273 -0.10489595 0.25881411 255 12 12
-0.01433776 -0.10485474 0.25738225 255 12 12
-0.01111953 -0.10487538 0.25662044 255 12 12
