ply
format ascii 1.0
element vertex 97
property float x
property float y
property float z
property uchar red
property uchar green
property uchar blue
end_header
0.14308813 -0.16983929 0.97906629 255 12 12
-0.09193431 -0.08294171 0.02169455 255 12 12
-0.09223879 -0.08296815 0.02210347 255 12 12
-0.09254311 -0.08299563 0.02252462 255 12 12
-0.09626271 -0.08279680 0.02132933 255 12 12
-0.09699774 -0.08279510 0.02153901 255 12 12
-0.09836901 -0.08274471 0.02137016 255 12 12
-0.09911095 -0.08274641 0.02162241 255 12 12
-0.09985288 -0.08274953 0.02189150 255 12 12
-0.10124659 -0.08270593 0.02181018 255 12 12
-0.10199277 -0.08271259 0.02212256 255 12 12
-0.10442292 -0.08267593 0.02244772 255 12 12
-0.10562466 -0.08265871 0.02261930 255 12 12
-0.10728787 -0.08261510 0.02262217 255 12 12
-0.10755608 -0.08265671 0.02319971 255 12 12
-0.10669886 -0.08277532 0.02433871 255 12 12
-0.10862956 -0.08316333 0.02954561 255 12 12
-0.10882479 -0.08321350 0.03020189 255 12 12
-0.09707907 -0.08398083 0.03563103 255 12 12
-0.09694244 -0.08402997 0.03617128 255 12 12
-0.09729130 -0.08405937 0.03662914 255 12 12
-0.09787813 -0.08407875 0.03704252 255 12 12
-0.10010181 -0.08412620 0.03830102 255 12 12
-0.10017194 -0.08417006 0.03884329 255 12 12
-0.10097847 -0.08418719 0.03929872 255 12 12
-0.69614195 -0.06718634 0.02377015 255 12 12
-0.73596994 -0.06769859 0.04230455 255 12 12
-0.80870526 -0.06760057 0.06389192 255 12 12
-0.81284661 -0.06841246 0.07481884 255 12 12
-0.81357091 -0.06932653 0.08588911 255 12 12
-0.81115292 -0.07029056 0.09656933 255 12 12
-0.58772695 -0.07743631 0.11145738 255 12 12
-0.57925774 -0.07821709 0.11807085 255 12 12
-0.57342526 -0.07907716 0.12644978 255 12 12
-0.57109932 -0.07978893 0.13416608 255 12 12
-0.56941887 -0.08047976 0.14183596 255 12 12
-0.63458256 -0.08196913 0.17988654 255 12 12
-0.62626062 -0.08274576 0.18649696 255 12 12
-0.61830920 -0.08351851 0.19317711 255 12 12
-0.61076399 -0.08427506 0.19979225 255 12 12
-0.60362303 -0.08501720 0.20636278 255 12 12
-0.59645328 -0.08573306 0.21261266 255 12 12
-0.58869377 -0.08644862 0.21867448 255 12 12
-0.57987841 -0.08715988 0.22435501 255 12 12
-0.57622488 -0.08786430 0.23156896 255 12 12
-0.57387058 -0.08857402 0.23925206 255 12 12
-0.56907975 -0.08926715 0.24597634 255 12 12
-0.56604636 -0.08997066 0.25337335 255 12 12
-0.56473769 -0.09069212 0.26152291 255 12 12
-0.56375224 -0.09142299 0.26988515 255 12 12
-0.56669930 -0.09221318 0.28018101 255 12 12
-0.56866331 -0.09307997 0.29107822 255 12 12
-0.56511691 -0.09381699 0.29871239 255 12 12
-0.56167525 -0.09455680 0.30641244 255 12 12
-0.56425421 -0.09541722 0.31742636 255 12 12
-0.59905498 -0.09782325 0.35685465 255 12 12
-0.43420832 -0.12042077 0.57337235 255 12 12
-0.42732266 -0.12120271 0.58049491 255 12 12
-0.41978052 -0.12187275 0.58608467 255 12 12
-0.41133226 -0.12247698 0.59061036 255 12 12
-0.40282715 -0.12307172 0.59500559 255 12 12
-0.39528860 -0.12377452 0.60098517 255 12 12
-0.38708959 -0.12446445 0.60660540 255 12 12
-0.37882950 -0.12512027 0.61180192 255 12 12
-0.37064204 -0.12575698 0.61679454 255 12 12
-0.37498558 -0.13024954 0.67144914 255 12 12
-0.36984982 -0.13157412 0.68555648 255 12 12
-0.36123243 -0.13241600 0.69284860 255 12 12
-0.35195955 -0.13316937 0.69888558 255 12 12
-0.34405835 -0.13395975 0.70579057 255 12 12
-0.33294043 -0.13436494 0.70712003 255 12 12
-0.29339164 -0.13160000 0.66194884 255 12 12
-0.28448458 -0.13217172 0.66594538 255 12 12
-0.27549734 -0.13277945 0.67034389 255 12 12
-0.26644651 -0.13333332 0.67408363 255 12 12
-0.25723000 -0.13390510 0.67798408 255 12 12
-0.24801045 -0.13448585 0.68198988 255 12 12
-0.23877900 -0.13507593 0.68610277 255 12 12
-0.22970364 -0.13566727 0.69027933 255 12 12
-0.07279044 -0.16910979 1.03793477 255 12 12
-0.05784872 -0.16910463 1.03320005 255 12 12
-0.04303025 -0.16916151 1.02923993 255 12 12
-0.02833759 -0.16917561 1.02481158 255 12 12
-0.01378523 -0.16914680 1.01991813 255 12 12
0.00066139 -0.16913915 1.01530875 255 12 12
0.01500150 -0.16913183 1.01073652 255 12 12
0.02936222 -0.16923282 1.00744286 255 12 12
0.04378007 -0.16942186 1.00517581 255 12 12
0.05802649 -0.16950503 1.00170652 255 12 12
0.07306247 -0.16947484 0.99664541 255 12 12
0.08722817 -0.16943331 0.99172192 255 12 12
0.10153252 -0.16950199 0.98806255 255 12 12
0.11599352 -0.16965989 0.98541271 255 12 12
0.12928422 -0.16974518 0.98226745 255 12 12
0.14323691 -0.16979744 0.97852324 255 12 12
0.15752252 -0.16998415 0.97626992 255 12 12
0.17148280 -0.17004223 0.97259251 255 12 12
