ply
format ascii 1.0
element vertex 1091
property float x
property float y
property float z
property uchar red
property uchar green
property uchar blue
end_header
-1.02823947 -0.28870915 1.59379447 97 74 63
-1.02542502 -0.27692525 1.58943206 99 75 63
-1.03146982 -0.25783056 1.59880149 102 77 65
-1.03472491 -0.25309999 1.60384703 98 77 62
-1.00452319 -0.28723398 1.56331550 96 73 62
-1.00115995 -0.27513312 1.55598919 97 74 64
-1.01471734 -0.26723567 1.57283485 103 79 60
-1.01944792 -0.27121270 1.58016741 100 75 60
-1.00192650 -0.24573359 1.55718060 100 78 63
-0.98108041 -0.30767117 1.53716969 84 61 58
-0.98821896 -0.30684870 1.54417276 85 63 58
-0.98108041 -0.29704368 1.53716969 89 67 60
-0.98775558 -0.28833612 1.55151608 95 73 61
-0.99960399 -0.28698620 1.56196272 94 72 60
-0.98299340 -0.26097893 1.53601046 99 74 59
-0.98879909 -0.27203601 1.54716704 97 73 63
-0.98246546 -0.25022276 1.53518244 100 77 63
-0.99582741 -0.25493519 1.54770150 99 75 63
-0.98681337 -0.23142551 1.53369200 104 76 70
-0.99583051 -0.23755588 1.54770637 105 78 69
-0.98237155 -0.21718521 1.52678863 109 84 70
-0.99582535 -0.20411320 1.54769826 111 83 69
-0.97085421 -0.30982452 1.53494709 80 55 53
-0.96947252 -0.30597109 1.54112101 76 55 53
-0.97488545 -0.29637089 1.53369591 91 68 61
-0.97132513 -0.29158111 1.55069394 84 65 54
-0.96948886 -0.26436082 1.53508412 96 73 63
-0.96985559 -0.27370133 1.54700054 90 68 58
-0.96228176 -0.24851575 1.51592386 101 77 64
-0.97287807 -0.25132025 1.52692089 101 77 64
-0.96238899 -0.23148990 1.49976075 106 81 70
-0.96636477 -0.23163780 1.51248944 105 80 66
-0.97500534 -0.23777665 1.52764896 103 78 66
-0.96026450 -0.19735448 1.49644995 110 78 67
-0.95431924 -0.31604382 1.51993692 66 48 48
-0.95477564 -0.30985664 1.53395489 76 53 52
-0.95044312 -0.30317458 1.54193943 79 58 56
-0.94936180 -0.28929141 1.54584339 88 67 58
-0.94827918 -0.26305444 1.53685354 96 71 62
-0.95195222 -0.27192489 1.54335707 95 71 65
-0.95514399 -0.24670573 1.51760109 101 74 62
-0.94876046 -0.24948689 1.52706384 96 69 63
-0.94917902 -0.22592593 1.49447869 105 78 64
-0.94988483 -0.23585386 1.51211991 98 75 61
-0.94310462 -0.20453979 1.47367787 109 85 66
-0.94741728 -0.21036852 1.48758015 107 83 65
-0.94251468 -0.19321268 1.47475044 113 83 68
-0.94927900 -0.19302996 1.48661837 113 84 68
-0.94360048 -0.16343038 1.47048128 110 83 70
-0.95604354 -0.17073576 1.48987222 110 81 66
-0.94155806 -0.14532389 1.46729839 116 89 74
-0.94257927 -0.13659414 1.46888983 115 87 73
-0.93591356 -0.30368586 1.53716969 81 58 56
-0.93804061 -0.30970189 1.54066324 80 56 55
-0.93419062 -0.28907441 1.53543085 90 67 59
-0.93559048 -0.28506406 1.54277215 93 71 62
-0.93196345 -0.26930688 1.53259849 97 72 65
-0.93271482 -0.27375257 1.54066324 97 70 72
-0.92731310 -0.24913073 1.51908810 102 75 66
-0.93288552 -0.25270163 1.52766064 102 75 66
-0.93009203 -0.22486349 1.49462471 93 72 58
-0.92985823 -0.23403964 1.51115118 98 71 60
-0.93902194 -0.20111823 1.46729839 108 87 65
-0.92932440 -0.20945204 1.48552626 100 75 59
-0.92994844 -0.18593526 1.47268394 112 82 67
-0.92923765 -0.19520267 1.48244792 103 78 65
-0.92437034 -0.16828176 1.44990448 111 83 68
-0.92710497 -0.17442657 1.46275212 109 84 69
-0.92611386 -0.15239907 1.45173031 114 87 70
-0.93674323 -0.14603958 1.46176261 117 86 74
-0.92775395 -0.13267982 1.45229552 117 88 73
-0.93497443 -0.12828386 1.46097374 117 90 74
-0.90469404 -0.27103635 1.49865715 96 72 64
-0.91345292 -0.27016867 1.51316651 98 71 68
-0.90206844 -0.25425733 1.49644995 103 73 64
-0.91309005 -0.24778272 1.50762987 102 75 65
-0.91439888 -0.22178252 1.49546404 104 79 67
-0.91372638 -0.23206722 1.50769004 106 76 65
-0.91127060 -0.20921149 1.48624047 105 81 64
-0.91011522 -0.18477877 1.47404032 107 77 65
-0.91028450 -0.19406979 1.48081724 105 81 68
-0.91761813 -0.16351990 1.43773621 109 84 67
-0.91218240 -0.16683140 1.45360594 109 85 67
-0.90729305 -0.17145372 1.46591239 102 77 62
-0.91794248 -0.14990049 1.43824442 114 86 71
-0.90809272 -0.15040961 1.44689938 111 85 68
-0.90891923 -0.12948714 1.43621928 118 89 72
-0.91448905 -0.13513335 1.44309190 116 88 71
-0.90023661 -0.10859369 1.41818380 130 97 76
-0.90790689 -0.11740264 1.42986703 122 92 75
-0.88123875 -0.30719343 1.57139208 83 61 58
-0.88372841 -0.30688885 1.58307323 83 61 57
-0.88206006 -0.29061390 1.57576110 96 70 61
-0.88630933 -0.29602592 1.58139809 92 67 64
-0.89939082 -0.27374068 1.48987222 94 75 61
-0.88185377 -0.27571142 1.57466376 104 71 64
-0.89879107 -0.24595490 1.49315381 104 77 66
-0.88225603 -0.22570233 1.99968100 93 66 63
-0.89773072 -0.20753890 1.48386225 107 84 66
-0.89439263 -0.18898624 1.47315438 110 84 67
-0.89349961 -0.19775821 1.48011315 109 84 70
-0.88143247 -0.16986504 1.45595489 114 87 71
-0.89315642 -0.16922588 1.46563148 112 85 72
-0.89869004 -0.14005935 1.43926084 112 89 63
-0.89161823 -0.14730145 1.45080962 109 84 66
-0.89153316 -0.15622911 1.46255376 113 86 77
-0.88225603 -0.14275146 1.99968100 105 76 63
-0.89038372 -0.12803715 1.43319153 111 85 66
-0.88635049 -0.13594889 1.44347713 108 85 65
-0.88779942 -0.10996970 1.41026545 126 94 76
-0.89115917 -0.11781911 1.42227648 120 91 72
-0.88265091 -0.09680170 1.39656472 131 99 79
-0.88786623 -0.09998500 1.40060294 132 99 82
-0.86660536 -0.30804339 1.52946924 77 57 55
-0.87309276 -0.31016402 1.55302700 79 58 56
-0.87575151 -0.31143294 1.56497441 80 59 53
-0.87158375 -0.30539520 1.59131116 84 60 56
-0.86413231 -0.28478928 1.53081214 93 68 59
-0.87242905 -0.28916466 1.55184642 93 68 62
-0.86989668 -0.28719242 1.57024536 95 68 60
-0.86680088 -0.29456608 1.58333777 88 63 53
-0.86522138 -0.27352563 1.53196877 103 73 64
-0.86499545 -0.26751721 1.55097982 104 72 64
-0.86899345 -0.27339929 1.56806758 99 70 61
-0.86395304 -0.25056548 1.55373368 103 78 66
-0.87204008 -0.25056585 1.56268420 105 80 67
-0.86349364 -0.23022460 1.55156780 107 84 66
-0.87136701 -0.23839115 1.56196272 108 84 67
-0.86010808 -0.21966211 1.54417276 109 85 66
-0.87564623 -0.19310606 1.45470357 109 84 68
-0.87878913 -0.17387541 1.45158851 115 90 67
-0.86704834 -0.16487168 1.99968100 94 68 58
-0.87529304 -0.14378382 1.44663901 113 89 69
-0.86838286 -0.14932618 1.99251171 98 72 62
-0.87081413 -0.12648277 1.43445510 120 89 75
-0.87497675 -0.13445411 1.44437913 114 90 71
-0.86533448 -0.12772334 1.97508433 112 78 64
-0.87308339 -0.13419809 1.98666852 108 78 65
-0.86888339 -0.10307961 1.39566255 120 91 75
-0.86943030 -0.11056201 1.40757367 118 90 75
-0.86972024 -0.11765211 1.42494706 121 91 75
-0.86146820 -0.10246557 1.95640188 117 82 63
-0.86656891 -0.10778552 1.96719527 116 82 66
-0.86271277 -0.08168897 1.37782896 131 100 78
-0.86894394 -0.09135223 1.38839497 129 98 78
-0.86191583 -0.09894111 1.95357883 114 81 59
-0.86349699 -0.07164341 1.37699109 131 102 76
-0.87005499 -0.07253999 1.38089129 132 103 77
-0.85794966 -0.30798729 1.51908684 76 59 55
-0.85904306 -0.30490558 1.52335250 79 58 56
-0.85506133 -0.30166268 1.59191940 96 69 61
-0.84956974 -0.30141419 1.61019444 100 69 63
-0.84721529 -0.28706329 1.49893305 85 62 60
-0.85418408 -0.29324401 1.51076353 84 63 60
-0.84996208 -0.28502854 1.57457829 97 70 59
-0.85117581 -0.29443790 1.58529815 98 71 57
-0.85472649 -0.27194002 1.51569787 102 73 61
-0.85833895 -0.26205009 1.52678347 107 73 67
-0.85060787 -0.26442693 1.55718060 95 69 61
-0.85157193 -0.27324124 1.56902544 94 68 60
-0.84128582 -0.24649784 1.49644995 108 74 67
-0.84926263 -0.25526649 1.50755461 105 74 66
-0.85833895 -0.25809172 1.52678347 104 73 66
-0.85105807 -0.25016886 1.55729975 97 73 63
-0.85381877 -0.25998893 1.56196272 95 69 61
-0.85074653 -0.23056471 1.55405941 102 79 63
-0.84431839 -0.21092658 1.54458941 102 81 64
-0.84281325 -0.19800982 1.54183308 109 79 63
-0.85575783 -0.18192270 1.99968100 88 63 52
-0.84122348 -0.16158259 1.97636104 89 59 50
-0.85129434 -0.16998548 1.99002431 90 63 54
-0.84415146 -0.14791867 1.97636104 91 62 54
-0.85332732 -0.15098090 1.98487733 97 70 60
-0.85719075 -0.12416872 1.42814434 127 95 76
-0.84070235 -0.12293161 1.95922494 102 75 66
-0.85109899 -0.13058747 1.97010412 104 73 62
-0.85368072 -0.10211057 1.39656472 126 93 76
-0.85217526 -0.10722166 1.40679427 128 97 78
-0.85747004 -0.11799416 1.42314728 124 96 75
-0.84933742 -0.10839046 1.95868721 112 78 63
-0.85162963 -0.11819366 1.96490383 107 75 61
-0.84745584 -0.08203065 1.37689737 129 93 79
-0.84950723 -0.09153701 1.38786717 126 94 79
-0.84515451 -0.08269381 1.93683386 112 83 65
-0.84826437 -0.09210328 1.95165083 111 82 63
-0.85039617 -0.07046544 1.37298246 128 97 75
-0.85969722 -0.07231008 1.38063514 131 102 76
-0.84244390 -0.05855188 1.35669299 133 100 79
-0.85026486 -0.05964968 1.36396973 133 100 78
-0.83832055 -0.28598776 1.48660493 84 60 59
-0.83654851 -0.28437312 1.57405602 100 73 59
-0.83675891 -0.28605401 1.58672340 100 73 60
-0.83264677 -0.26399877 1.55564264 104 78 67
-0.83282086 -0.27311371 1.56754286 102 75 64
-0.83384203 -0.27151710 1.58350234 102 77 63
-0.83758789 -0.24283922 1.48987222 105 80 68
-0.83054337 -0.25003037 1.55508634 107 82 67
-0.82540744 -0.25279361 1.56594754 107 82 66
-0.83099574 -0.25755674 1.58016741 104 83 65
-0.82992732 -0.23043620 1.55438788 108 83 68
-0.82358303 -0.23189450 1.57005114 109 83 69
-0.82826459 -0.23297602 1.58016741 109 85 66
-0.82942130 -0.20932177 1.54404244 106 80 66
-0.82706480 -0.18630416 1.53219558 108 83 66
-0.83172586 -0.19599692 1.54136515 109 80 64
-0.82554626 -0.17007623 1.51848180 109 84 66
-0.82651703 -0.17266826 1.52358123 109 85 68
-0.82358577 -0.14943100 1.51866180 111 86 69
-0.82939160 -0.15288641 1.52428822 115 89 71
-0.83529302 -0.14611419 1.97110291 92 66 57
-0.82797509 -0.12028137 1.38345277 131 98 78
-0.82268524 -0.13909335 1.50978136 124 92 75
-0.82908978 -0.12832747 1.95429267 95 67 58
-0.83861095 -0.13347646 1.96490383 99 68 59
-0.82460934 -0.11264803 1.37782896 127 96 80
-0.83102412 -0.10666809 1.38631034 130 98 75
-0.82328312 -0.10590425 1.93683386 98 71 57
-0.83112973 -0.11172667 1.94797643 101 72 60
-0.82722547 -0.08242756 1.37689737 132 100 81
-0.83235121 -0.08982357 1.38414322 133 100 78
-0.82489691 -0.08959688 1.93407482 106 74 63
-0.83475628 -0.09192352 1.94797579 107 77 62
-0.83236192 -0.07437130 1.37233755 133 104 84
-0.83046481 -0.07827587 1.38063514 133 103 84
-0.83825260 -0.07712565 1.91494870 109 82 65
-0.83707389 -0.07778547 1.93133146 108 82 65
-0.83635667 -0.07834300 1.94517428 103 76 62
-0.83669186 -0.05683488 1.35308295 127 97 77
-0.83988851 -0.05964958 1.36396754 120 90 71
-0.81124544 -0.26162723 1.54769826 103 80 62
-0.81872237 -0.27618730 1.56196272 102 78 62
-0.81053888 -0.24818634 1.55008744 108 82 68
-0.81664668 -0.25388142 1.56316519 104 79 65
-0.81331486 -0.22684892 1.55125740 109 84 69
-0.81486580 -0.21160921 1.54505717 115 85 69
-0.81106452 -0.18818412 1.53130319 117 87 70
-0.80926082 -0.16524687 1.51799442 114 88 69
-0.80889480 -0.17457049 1.52617663 117 88 71
-0.80190906 -0.16743015 1.73596150 98 74 56
-0.80804390 -0.16201555 1.74457739 103 76 65
-0.81021259 -0.14960621 1.51474962 111 85 70
-0.81164920 -0.15482508 1.52335250 118 90 74
-0.80605732 -0.15665220 1.74624560 103 78 64
-0.80806034 -0.13293375 1.49531107 116 85 67
-0.80976228 -0.13769497 1.50517744 120 89 73
-0.80587760 -0.10688590 1.35043043 128 97 77
-0.81441680 -0.10229094 1.36672300 134 100 75
-0.80832751 -0.10455812 1.47176129 132 96 82
-0.81691365 -0.10376472 1.93021843 94 69 52
-0.80737035 -0.09015039 1.35547043 132 100 76
-0.81078357 -0.09845069 1.36259806 134 100 76
-0.80191503 -0.08843308 1.45626992 133 105 80
-0.80439098 -0.09668038 1.46413606 131 105 76
-0.80898035 -0.08527762 1.91225159 99 68 59
-0.81525056 -0.09153579 1.92401743 100 69 61
-0.80665308 -0.07663590 1.35172987 134 102 83
-0.81867099 -0.07143711 1.36396754 137 107 84
-0.80540487 -0.07034586 1.46413606 136 108 87
-0.80601549 -0.05284695 1.46985848 135 105 87
-0.81291458 -0.04682112 1.48011315 138 112 97
-0.79944426 -0.18065041 1.53022993 123 87 73
-0.78741947 -0.18247082 1.71099007 101 69 60
-0.79608458 -0.16665202 1.51710836 117 90 70
-0.79700376 -0.17053593 1.52851837 118 90 71
-0.78671704 -0.17470881 1.71089715 101 73 62
-0.78988949 -0.16666584 1.73154611 101 75 59
-0.78981947 -0.16484212 1.74715054 99 73 58
-0.79206032 -0.16525869 1.76075804 101 73 59
-0.78482226 -0.14076237 1.49976075 116 93 73
-0.79202204 -0.15097602 1.50793595 117 91 73
-0.79455320 -0.15069712 1.52862364 118 89 72
-0.79249227 -0.15792856 1.73374329 102 75 62
-0.79218829 -0.15629196 1.74895906 105 74 61
-0.79206032 -0.15765037 1.76075804 104 73 60
-0.79194716 -0.13134219 1.49395765 120 87 72
-0.79420139 -0.13701558 1.50739770 122 90 74
-0.79535591 -0.08607808 1.45405266 133 105 78
-0.79582032 -0.09131487 1.46202556 131 105 80
-0.79278450 -0.06964234 1.45478938 134 107 85
-0.79062840 -0.06143299 1.46255147 134 107 87
-0.79632751 -0.05615326 1.45678910 139 109 89
-0.79336461 -0.05736998 1.46442106 134 104 84
-0.78215459 0.14663656 1.39771509 138 139 141
-0.78895306 0.15349348 1.40632884 142 142 143
-0.78864540 0.16785873 1.41410660 152 151 150
-0.78168882 0.17444019 1.42387221 162 163 161
-0.78135425 0.18331602 1.42940202 161 160 157
-0.76091051 -0.18233065 1.65339470 100 71 58
-0.76176864 -0.18178855 1.66149962 101 69 59
-0.77117215 -0.18215435 1.69156516 101 67 59
-0.77598940 -0.18169826 1.70926962 98 68 60
-0.77589703 -0.18116586 1.73818421 101 71 60
-0.77989650 -0.18511949 1.74714386 98 70 59
-0.77553395 -0.17447666 1.70887293 100 70 62
-0.77420649 -0.16892705 1.73154181 99 71 58
-0.77939528 -0.16538155 1.74602103 99 69 55
-0.77292911 -0.15424425 1.73286774 101 71 57
-0.77789164 -0.15602928 1.74265254 101 71 56
-0.77758712 -0.06110335 1.45470357 128 97 81
-0.77925932 -0.05871501 1.45783186 130 99 83
-0.77853084 0.13938905 1.39771509 140 142 145
-0.77357627 0.14717266 1.39467554 139 140 144
-0.76962970 0.15433103 1.40351002 142 143 146
-0.76985096 0.16407196 1.41421334 153 154 154
-0.77498675 0.17345366 1.42367373 159 161 159
-0.77723335 0.18288980 1.43090746 158 158 156
-0.75005317 -0.17734905 1.67380702 98 71 61
-0.75502868 -0.17269620 1.68491030 100 70 63
-0.75496733 0.15031437 1.39719220 131 133 137
-0.75381613 0.15560266 1.40229652 140 142 144
-0.75533864 0.16342321 1.40851877 148 150 154
-0.62071013 -0.67485982 1.64536858 114 126 133
-0.60614574 -0.68036354 1.61788034 115 127 134
-0.61502236 -0.68054760 1.64536858 116 125 137
-0.60705954 -0.67609731 1.61659630 113 125 134
-0.60665568 -0.67194599 1.63140997 114 125 134
-0.61643240 -0.67794611 1.64457951 116 125 135
-0.60461719 -0.65067644 1.62932231 110 125 134
-0.61069626 -0.65620375 1.64138460 110 124 133
-0.60402930 -0.63381962 1.61595657 111 122 135
-0.60993175 -0.63714218 1.62175083 109 121 134
-0.59635842 -0.68036354 1.61788034 117 125 131
-0.59564681 -0.67466494 1.61595428 114 125 133
-0.59460351 -0.66988498 1.62809328 115 125 132
-0.59083724 -0.67889977 1.64138460 114 125 132
-0.59915477 -0.65239984 1.61788034 110 125 134
-0.59694288 -0.64952889 1.62920101 110 123 134
-0.59717033 -0.63355565 1.61403189 113 123 135
-0.59853411 -0.63803345 1.62761259 114 123 134
-0.52119511 -0.11344132 0.69598752 72 52 48
-0.51584663 -0.10652449 0.69013043 71 51 49
-0.51574025 -0.09141186 0.68949884 74 51 47
-0.50491204 -0.06461146 0.67587419 83 57 50
-0.51336446 -0.07458973 0.68619030 80 54 49
-0.50232234 -0.05325013 0.67282459 87 61 53
-0.50125274 -0.03400255 0.66993717 93 65 58
-0.49930897 -0.06055458 0.66985363 80 56 48
-0.49616094 -0.04627846 0.66806005 90 62 54
-0.49580474 -0.03564313 0.66878338 95 66 57
-0.40020972 0.12189635 1.71184814 172 170 167
-0.40224126 0.12994963 1.72053766 160 160 160
-0.38095986 0.11329171 0.73898111 151 152 152
-0.39177552 0.11600716 1.71028210 166 162 162
-0.39155837 0.12974339 1.71335162 142 141 143
-0.39331981 0.12945400 1.72053766 144 144 145
-0.39720061 0.14153564 1.69897699 118 121 127
-0.38802646 0.14370593 1.70729143 128 129 134
-0.38018823 0.34054664 1.47367787 95 96 105
-0.36805136 0.11164012 0.73556228 158 158 155
-0.36687056 0.11923403 0.74019138 167 168 168
-0.36893700 0.12138393 0.74421322 167 168 168
-0.37400375 0.14813813 1.71306040 132 132 137
-0.37025047 0.14962843 1.72112139 126 125 132
-0.37066743 0.33600846 1.47318122 113 115 118
-0.36564616 0.33521174 1.48011315 143 144 146
-0.36199198 0.35480613 1.43519942 113 113 120
-0.36493592 0.35254994 1.45102438 108 108 114
-0.36822269 0.34670247 1.47129719 118 120 125
-0.36863079 0.34501838 1.48011315 130 133 138
-0.36135852 0.36990800 1.43926084 109 110 112
-0.36289948 0.37398371 1.44539833 110 111 113
-0.34982786 -0.00084012 0.55680203 155 152 146
-0.34884282 0.00450711 0.55633969 172 169 161
-0.35851798 0.10777877 0.73064159 161 161 157
-0.35909096 0.14913834 1.71329995 131 131 136
-0.35763410 0.14779249 1.72053766 140 141 142
-0.35654658 0.33671822 1.46809754 147 148 149
-0.34217645 0.35795437 1.41818380 126 129 131
-0.34986258 0.35588843 1.43292782 124 125 129
-0.35381433 0.35135509 1.44824933 94 95 104
-0.35835019 0.34549581 1.46770824 117 120 122
-0.34359895 0.36967546 1.41228697 127 127 129
-0.34874767 0.36919300 1.42997125 117 117 120
-0.35963443 0.37443446 1.44232309 109 111 113
-0.33481552 0.35846389 1.41377336 113 116 120
-0.33478208 0.35714254 1.43197594 131 131 132
-0.33545747 0.36682220 1.41103733 125 127 130
-0.33544251 0.36607892 1.42523849 107 109 116
-0.26446733 0.25141624 0.99836797 133 134 136
-0.26642470 0.25646541 1.01406610 120 121 123
-0.26799615 0.25861382 1.02169138 117 118 120
-0.27062236 0.26610616 1.01938617 115 115 120
-0.26944580 0.27014825 1.02384707 121 121 124
-0.27113767 0.28363627 1.03032239 112 111 116
-0.26833341 0.29190322 1.04670562 118 119 126
-0.25733644 0.25548045 1.01102942 105 105 106
-0.25946349 0.26023307 1.01938617 104 105 107
-0.25924340 0.27159401 1.02160740 119 119 121
-0.22060463 -0.10963262 1.17894232 51 51 55
-0.22251231 -0.11164221 1.18977656 52 51 55
-0.21050617 -0.12267212 0.55137008 152 127 97
-0.21042713 -0.12258468 1.17613511 54 52 58
-0.21335341 -0.12251818 1.18202680 53 52 57
-0.20989316 -0.11624342 0.55311042 156 128 104
-0.20819750 -0.11360933 1.17791897 54 54 57
-0.21250078 -0.10886462 1.19061921 53 53 57
-0.21202300 -0.09990228 1.19663450 53 51 57
-0.18017837 0.19173409 0.99984050 127 127 130
-0.18620558 0.19219068 1.00951452 131 132 135
-0.18608103 0.20466545 1.01121345 120 121 128
-0.19161307 0.20831715 1.02400736 126 126 133
-0.16791840 0.13391208 0.45860504 124 128 132
-0.16996213 0.13128723 0.46075015 121 126 130
-0.17416003 0.13269138 0.59884626 151 155 155
-0.16860073 0.12909022 0.60632368 138 139 141
-0.17478271 0.19180907 0.99743976 129 130 133
-0.16632327 0.19157360 1.00764360 131 131 137
-0.17795793 0.20141217 0.99514569 112 112 117
-0.16303281 0.20094700 1.00777725 156 156 152
-0.15304841 0.19006337 0.99571825 152 152 151
-0.15816305 0.19080637 1.00469460 145 144 148
-0.15991236 0.20226757 1.00279856 122 120 129
-0.08571894 0.02488215 0.73916005 136 136 140
-0.08534356 0.02687969 0.74030658 136 136 140
-0.08855799 0.11458259 0.51329034 132 132 135
-0.08718246 0.12205810 0.51632533 154 155 156
-0.07719946 0.02543912 0.73880235 132 133 135
-0.07592374 0.02928983 0.74046110 127 126 131
-0.04034954 -0.18207566 0.46446860 113 116 125
-0.04173461 0.35603388 0.87767264 174 172 169
-0.04724874 0.35670553 0.88948404 175 174 171
-0.05026582 0.35788941 0.90145195 189 187 182
-0.04260110 0.36146076 0.87832663 183 179 173
-0.04503249 0.36825404 0.88744380 164 159 154
-0.03084370 -0.18321193 0.45840753 110 117 123
-0.03537317 -0.18194701 0.46355435 111 117 123
-0.02911888 -0.17624624 0.45952567 109 117 122
-0.03380484 -0.17757486 0.46252442 111 116 122
-0.02216477 0.23935161 0.61766922 165 164 158
-0.02218354 0.24254169 0.61817729 166 162 158
-0.02497061 0.25023522 0.62821943 171 168 162
-0.02371811 0.26265283 0.63516021 173 167 160
-0.02137635 0.26809032 0.64459554 136 131 126
-0.03904889 0.35574647 0.87696414 173 170 166
-0.03996079 0.35408816 0.88037902 168 167 165
-0.03911038 0.36543532 0.87838373 136 132 127
-0.03763061 0.37344678 0.88537753 98 93 89
-0.00492944 0.13764405 0.49275156 191 188 183
-0.00555362 0.14392407 0.48932131 173 169 166
-0.00028165 0.19373141 0.62375294 179 177 174
-0.01428606 0.26627003 0.63638236 114 112 109
-0.01538930 0.27391923 0.64293644 22 21 21
0.00471296 0.13802050 0.49551600 177 174 172
0.00875479 0.13911092 0.50084390 180 176 172
0.01091043 0.14393218 0.49339589 160 157 156
0.01937126 0.19721093 0.50778548 169 169 167
0.00792253 0.19204183 0.61767571 157 154 154
0.00576385 0.19033447 0.62262649 158 156 155
0.01919434 0.20016414 0.51084542 166 166 164
0.03493379 0.13952991 0.46209395 136 136 138
0.03566173 0.14524551 0.45936814 158 153 151
0.03392087 0.14420003 0.46223191 160 159 156
0.02018451 0.14258970 0.49193892 168 169 168
0.02989669 0.19323088 0.50783058 160 158 155
0.02904422 0.20480734 0.49819182 121 119 114
0.02655488 0.20477003 0.50432119 173 171 168
0.04266526 0.14321094 0.45897917 169 167 160
0.04816228 0.17946598 0.49992025 140 140 142
0.04754364 0.17952867 0.50251436 144 138 141
0.04816228 0.18076208 0.49992025 171 171 170
0.04442167 0.18359107 0.50649552 163 162 160
0.05751460 0.54185283 1.98795259 183 181 179
0.07648048 0.09647555 0.72222450 127 125 130
0.07651100 0.10928357 0.71932517 116 116 124
0.07713381 0.10495584 0.72182133 132 132 137
0.07752415 0.19640036 0.51340953 146 145 145
0.07509854 0.23343071 0.71578608 143 140 140
0.07378840 0.23344599 0.72282594 150 147 144
0.07613725 0.24839768 0.71601787 144 142 140
0.07098858 0.24737215 0.72254971 168 164 160
0.07373453 0.29269472 0.73884690 138 137 137
0.07058679 0.29463678 0.74615749 150 147 144
0.06990913 0.30448151 0.75013901 129 125 127
0.06551768 0.31112894 0.76210463 129 123 127
0.07413282 0.45458239 1.73373878 178 174 175
0.07441976 0.47399275 1.81376636 171 170 171
0.07507233 0.48764384 1.82967091 184 181 179
0.07587973 0.49293849 1.84966767 170 167 167
0.07215649 0.49279841 1.87264845 170 169 171
0.07195166 0.49547559 1.91494870 157 156 158
0.07827283 0.50925313 1.86833992 159 154 152
0.07418354 0.51328494 1.88763717 168 164 162
0.06954590 0.51057275 1.90956457 172 171 170
0.06913128 0.50400174 1.92860365 155 154 158
0.06645840 0.51075208 1.94796503 155 154 158
0.06873439 0.51009911 1.96490383 156 154 158
0.06782265 0.51436466 1.98795259 153 150 153
0.07370660 0.52340010 1.89620471 148 146 148
0.07162841 0.53191315 1.92858803 157 155 156
0.06652224 0.53483039 1.94983629 176 173 173
0.06221017 0.53791031 1.97348845 184 179 179
0.07143310 0.54625205 1.95279532 140 139 138
0.06321636 0.54525698 1.97291393 172 169 167
0.08497525 0.09682555 0.72357897 132 132 135
0.08541928 0.10230783 0.72382799 126 126 129
0.08832369 0.19677877 0.49663018 157 156 152
0.08438252 0.19695949 0.51000540 159 158 155
0.08462459 0.20164398 0.49741342 141 137 136
0.08749250 0.20210241 0.50248920 145 141 138
0.09641733 0.22937627 0.69957876 170 166 163
0.08904594 0.23174162 0.70680304 161 160 160
0.08330706 0.22764932 0.72374888 112 110 117
0.08875697 0.24484540 0.70853905 149 150 151
0.08210770 0.44621043 1.67243958 169 167 165
0.08091573 0.44737310 1.68770683 175 172 171
0.08166073 0.45836294 1.70324588 168 164 162
0.08291064 0.46836767 1.72931588 159 155 152
0.08222912 0.48189008 1.77924371 164 158 156
0.08272148 0.49404181 1.81255368 158 151 150
0.08399274 0.50164926 1.81740439 142 140 142
0.08195003 0.50528121 1.84209740 144 140 140
0.08285058 0.51727158 1.86234021 135 134 140
0.08377114 0.52627367 1.88303292 129 129 133
0.08165050 0.53368598 1.90955448 130 130 134
0.08258100 0.54310602 1.93131578 129 128 132
0.10822787 0.17908787 0.85144169 160 160 162
0.11099976 0.18536308 0.45054651 157 152 152
0.11336188 0.19876954 0.79751980 172 172 170
0.10855257 0.19848056 0.80587399 165 162 162
0.10521806 0.18182470 0.83690351 188 185 183
0.11177658 0.19212074 0.85421677 176 174 175
0.11418544 0.20107377 0.79845917 181 180 176
0.11266203 0.20912855 0.80860910 176 173 172
0.10753251 0.21147306 0.82698500 173 173 172
0.10791902 0.20090619 0.85449095 183 180 180
0.10419229 0.22508462 0.79070229 184 180 176
0.11322352 0.22489422 0.81159245 147 145 146
0.11536785 0.22688780 0.82611972 143 143 146
0.10730189 0.23214602 0.84420800 150 147 148
0.11936357 0.45595839 1.98796403 152 142 142
0.11971395 0.46418571 1.99379957 149 142 144
0.13564235 0.09692394 0.76552462 126 124 130
0.13463004 0.10353299 0.76611532 129 129 133
0.12841927 0.19891965 0.79262927 155 153 153
0.12113873 0.19072973 0.85744442 165 158 159
0.12688011 0.19356734 0.86777218 171 169 169
0.12742223 0.19887847 0.88037902 162 158 158
0.12868522 0.20448009 0.79527378 151 149 148
0.12448288 0.21072194 0.80596722 153 147 147
0.12372163 0.22620874 0.81525982 127 126 130
0.12303894 0.22511318 0.82069230 121 120 123
0.12263848 0.44630045 1.93131578 156 152 153
0.12168295 0.44876412 1.95171833 155 149 149
0.12137514 0.45406219 1.96490383 151 142 145
0.12342709 0.46049017 1.97063243 154 152 152
0.12334172 0.47177783 1.99674028 146 146 146
0.15323361 0.03593019 0.67055269 155 152 151
0.15418971 0.04716627 0.66752154 141 140 141
0.14358814 0.09742168 0.76532396 122 122 129
0.14649098 0.10277871 0.76850433 119 119 127
0.14803672 0.17733610 0.45865482 170 166 163
0.14779666 0.17901644 0.46162458 171 168 164
0.14920293 0.18698537 0.46654486 138 137 136
0.15451605 0.37286600 1.87263656 170 169 170
0.15226046 0.37364780 1.88478132 169 168 168
0.16267500 0.03692463 0.67755741 155 151 152
0.16463479 0.03204337 0.68164104 153 151 151
0.17277238 0.03802306 0.87885753 129 129 135
0.17158961 0.03894459 0.88168953 128 128 130
0.16181867 0.04608975 0.67044741 158 156 156
0.17488489 0.04176707 0.87878160 140 138 139
0.17282716 0.04725296 0.88568174 150 146 146
0.17871849 0.17750909 0.70883942 163 157 158
0.17975703 0.18272885 0.69921815 172 172 172
0.17846990 0.18248733 0.71109945 162 161 162
0.17828315 0.18571728 0.72162299 162 161 161
0.17912117 0.22379122 0.63876772 121 116 113
0.17837031 0.22809967 0.64557536 134 131 128
0.17939335 0.24529980 0.66473818 169 169 167
0.17859471 0.27414126 0.67777683 139 133 132
0.17711226 0.27572861 0.68434108 168 163 158
0.17847726 0.28275389 0.67902430 48 44 43
0.17798103 0.28835120 0.68360403 21 19 18
0.16483463 0.35551493 1.93683386 178 177 176
0.16782875 0.35495606 1.95219153 178 177 177
0.17571397 0.35896924 1.96490383 175 174 172
0.16086276 0.37856203 1.90955448 177 176 177
0.16716213 0.37284881 1.93134705 179 176 177
0.17216623 0.37045874 1.94840928 179 175 177
0.17698043 0.36539601 1.96816785 184 182 180
0.16086276 0.38351278 1.90955448 175 172 174
0.16509181 0.39595117 1.92995194 181 179 180
0.17250698 0.38931904 1.95077566 180 177 178
0.17100548 0.41049351 1.91225159 180 173 168
0.17176471 0.41178694 1.92996755 182 176 173
0.17354730 0.40702212 1.95229328 180 174 176
0.16892162 0.41330808 1.96490383 176 172 174
0.18675933 0.03073525 0.87728812 140 138 141
0.18723289 0.03623797 0.88562036 137 136 138
0.18699496 0.04650895 0.89095596 149 148 149
0.18634285 0.17861352 0.69576719 153 152 153
0.18252961 0.17710145 0.70258471 139 139 140
0.19145335 0.18419904 0.67886220 162 157 163
0.18604439 0.18314417 0.69019422 163 157 157
0.18146460 0.18080899 0.70114714 168 169 169
0.18133310 0.23519280 0.65166391 176 175 167
0.18393627 0.24369537 0.65859079 171 171 168
0.18468437 0.25015441 0.66676449 161 161 160
0.18110230 0.27542239 0.67823112 124 124 124
0.18588932 0.27825793 0.68553592 139 138 138
0.18013279 0.28319302 0.67789185 0 0 0
0.19331500 0.34769663 1.91225916 135 134 135
0.19588994 0.35082792 1.92950251 142 140 143
0.19158529 0.35576695 1.95358960 162 158 160
0.18929868 0.35783718 1.96490383 161 157 159
0.19278176 0.36331314 1.89885676 156 149 149
0.19096059 0.36616333 1.90879686 157 151 151
0.19259680 0.36985386 1.92721374 158 153 154
0.18580924 0.37042085 1.95119368 171 169 168
0.18424327 0.36626573 1.96990600 177 175 174
0.18883936 0.39010648 1.93407482 170 166 164
0.18850155 0.38966460 1.94797887 167 164 161
0.18216579 0.40388233 1.95217538 190 181 182
0.19609104 0.40311953 1.96490383 166 162 162
0.21669767 0.17250447 0.53444511 160 157 153
0.21809310 0.16338238 0.54396447 176 175 175
0.21723242 0.18556746 0.53270006 160 157 150
0.20103517 0.34984291 1.91494870 152 152 156
0.20217905 0.35182402 1.92584461 145 145 149
0.20979362 0.35611529 1.95546087 148 147 151
0.20103517 0.36639208 1.91494870 158 152 152
0.20610169 0.36841330 1.93133664 156 152 151
0.20851059 0.37001939 1.95159467 152 148 149
0.21436404 0.36983697 1.97158444 156 155 155
0.21836695 0.36897004 1.98213995 167 167 167
0.20552173 0.38779944 1.95768509 154 146 148
0.21180814 0.39236850 1.96890888 162 155 156
0.21793790 0.39547033 1.98446500 163 153 152
0.20780170 0.40476288 1.97291393 172 172 170
0.21525614 0.40553896 1.98504627 177 177 172
0.23867257 -0.30639295 0.93890840 110 113 121
0.23463741 -0.30440654 0.94251985 110 113 122
0.23596525 -0.29571795 0.94437046 109 113 123
0.22385232 0.16940466 0.53684044 157 156 154
0.22670063 0.19157894 0.53235180 152 151 147
0.23584132 0.20042844 0.53843943 166 163 156
0.23876038 0.20091113 0.54015285 169 168 161
0.22285428 0.38839018 1.97636104 163 157 157
0.22179292 0.39637777 1.98213995 163 157 151
0.22029939 0.41198254 1.99968100 176 173 166
0.24137728 -0.30558154 0.93890840 109 112 121
0.24815819 -0.30474513 0.94514155 108 111 121
0.24516550 -0.29630758 0.94333281 109 113 122
0.24014924 0.19864842 0.53907907 169 168 165
0.26067632 -0.30705312 0.95612389 107 112 120
0.26539736 0.19825591 0.95528650 154 152 156
0.26283338 0.19847396 0.96200655 150 149 150
0.26871480 0.20229330 0.95680197 169 167 167
0.26955661 0.21108828 0.97105001 149 145 148
0.26668481 0.21688544 0.98651354 143 139 142
0.27388685 0.22479015 0.97556579 162 160 157
0.26845693 0.22756360 0.99180350 171 170 170
0.26489370 0.23088880 1.00412995 164 164 163
0.28758485 0.13812118 0.59621372 137 137 139
0.28851359 0.14400719 0.59789387 168 168 166
0.29604036 0.14638147 0.60176996 173 173 171
0.28269179 0.21512437 0.96980973 164 164 164
0.28269877 0.22183764 0.97363317 152 151 153
0.30199742 0.13991413 0.60096794 183 183 177
0.30314645 0.14545823 0.60395090 182 181 176
0.31490280 0.18428556 0.49389916 152 151 148
0.30528396 0.27377781 0.71614758 157 153 148
0.30449683 0.27561176 0.72423084 155 154 149
0.30929476 0.28585872 0.71668439 174 171 166
0.30650551 0.29076735 0.72758762 168 167 164
0.30405570 0.29686139 0.74413139 158 158 157
0.30345228 0.30248065 0.73372877 154 153 148
0.30507891 0.30326581 0.75138359 151 151 150
0.30659257 0.30719760 0.76325247 148 149 149
0.32898953 0.17949399 0.49601954 141 133 127
0.32972269 0.16854517 0.77667616 166 164 162
0.33489457 0.17198328 0.78336864 173 170 166
0.33151396 0.18380691 0.49664103 143 142 138
0.33294070 0.18993232 0.50330123 158 158 150
0.34844518 0.07449313 0.77834035 145 146 148
0.35472759 0.06965997 0.78183629 157 154 153
0.35934775 0.16438380 0.45354052 143 143 136
0.34321521 0.16831457 0.77571287 160 159 159
0.34374581 0.17352700 0.78616260 162 160 159
0.34021781 0.18213712 0.49427098 153 147 140
0.34611260 0.18266391 0.79441130 171 170 170
0.35909365 0.20482900 0.47146248 165 164 157
0.36214668 0.05932816 0.78550688 155 154 150
0.36202066 0.06847118 0.78336522 152 149 149
0.36373242 0.16736785 0.45406272 155 156 151
0.36590145 0.19634299 0.47478633 139 139 135
0.36320152 0.20232152 0.47254170 160 160 156
0.39995253 0.10553046 0.67317957 150 150 150
0.39667878 0.17852644 0.83282317 180 180 177
0.39919287 0.17205532 0.85140132 158 157 154
0.39543850 0.18084481 0.82746057 178 174 171
0.39770302 0.37505080 1.16449447 170 169 167
0.39637461 0.38302691 1.16908235 172 172 171
0.39755489 0.38984650 1.18809795 163 164 165
0.39398836 0.40217363 1.19663450 150 149 153
0.39865621 0.40691550 1.20652917 148 149 151
0.41965586 -0.36197332 0.78641742 110 116 118
0.41773161 -0.36298580 1.87005001 101 105 115
0.41974674 -0.35556877 0.78278607 104 114 115
0.40303154 0.09856507 0.67171850 124 125 129
0.41008952 0.10629217 0.67496610 129 129 130
0.40182282 0.17867878 0.83742363 178 178 176
0.40866810 0.17331649 0.85270802 149 149 151
0.40211513 0.18363946 0.83293943 170 166 164
0.40431438 0.37582049 1.15681383 179 175 169
0.40175422 0.37304511 1.16226873 170 168 164
0.40235686 0.37760615 1.18928397 151 150 150
0.40806300 0.38194406 1.15878952 183 183 174
0.40890087 0.39023748 1.16726198 173 171 167
0.40502534 0.39146935 1.18872036 171 170 169
0.41375167 0.40147432 1.17690265 157 153 152
0.40988253 0.40466251 1.19149842 154 151 151
0.40622775 0.40784892 1.21351910 152 152 153
0.40619425 0.41033054 1.22142673 160 160 159
0.42609939 -0.36537363 0.78668295 109 113 117
0.43268933 -0.36587006 1.87242041 100 106 115
0.42522428 -0.34679333 0.77918601 108 115 115
0.42846682 -0.35350245 0.78314471 108 114 115
0.43310384 -0.35412260 1.87446193 101 106 116
0.43062858 0.10947410 0.49560913 144 144 142
0.43137564 0.11221104 0.50329450 154 153 150
0.42103678 0.10841475 0.67876565 126 123 126
0.43383545 0.12063302 0.50563792 141 142 139
0.43367881 0.13351965 0.53758276 187 186 173
0.43753960 0.13388834 0.55066597 155 153 144
0.43717955 0.19691954 0.47211344 142 141 135
0.43966514 0.20717548 0.45283356 142 142 133
0.43548047 0.20067053 0.47495653 140 139 135
0.42159674 0.40915769 1.19137406 155 146 145
0.44294491 -0.36050980 0.78916466 110 116 117
0.44536323 -0.36477903 1.85723794 99 107 117
0.44851378 -0.36364137 1.86679413 99 105 117
0.44144385 -0.35826832 0.78843197 109 115 117
0.44918442 -0.35152138 1.86767115 100 103 117
0.44665886 0.13797053 0.46255037 157 154 151
0.44280607 0.13213683 0.55001624 158 157 148
0.45654956 0.14512803 0.45958769 160 160 153
0.45343486 0.14310485 0.46376896 155 153 146
0.45552322 0.15916155 0.80990895 177 177 177
0.45550493 0.16589122 0.81750845 180 178 174
0.45669422 0.17069765 0.82560694 168 165 163
0.45987213 0.17233735 0.84001470 183 183 176
0.44767247 0.19277046 0.59407359 173 173 164
0.44914677 0.19304963 0.60309675 160 160 156
0.44205579 0.21404048 0.45466290 158 159 151
0.45060919 0.21651694 0.46808679 157 158 150
0.45107944 0.20069278 0.60729694 181 181 170
0.44241255 0.22090752 0.45519501 147 147 146
0.45170523 0.22467394 0.47029085 142 142 141
0.46818599 -0.36407404 1.87263721 101 106 118
0.47433153 -0.36225116 1.88303292 100 104 118
0.46548999 -0.35066957 1.87463116 100 103 117
0.47469352 -0.35542197 1.88446343 100 104 116
0.47833951 0.06911774 0.47778175 135 138 134
0.46143814 0.16748068 0.81821866 175 174 171
0.46459296 0.17513965 0.82559000 179 177 173
0.46066303 0.17249681 0.84079634 173 172 168
0.47168796 0.18324828 0.83384680 183 181 175
0.47694374 0.18763692 0.84172602 181 180 172
0.48084086 -0.36225116 1.88303292 98 103 117
0.48084086 -0.35736917 1.88303292 100 104 117
0.49882704 -0.09888905 1.13740242 63 59 62
0.49893285 -0.09292120 1.14899892 61 58 60
0.48466635 0.07121689 0.47879236 124 125 124
0.49093567 0.06824650 0.48198646 125 127 127
0.48239144 0.18687794 0.83793887 187 186 177
0.48396073 0.19125921 0.84660100 180 180 173
0.49153775 0.19930211 0.86245781 179 180 173
0.50163460 -0.09511682 1.13931406 64 58 62
0.50585994 -0.08835733 1.15410994 60 59 60
0.51222410 -0.08209440 1.16205467 60 60 61
0.51391762 -0.07410876 1.16802212 58 56 58
0.52376195 -0.08178322 1.16443080 61 60 62
0.52388937 -0.07471677 1.16946236 59 57 59
0.53734857 0.23607722 0.63030404 157 154 148
0.53734843 0.24539730 0.61595398 140 140 132
0.53687337 0.25013146 0.62756284 131 128 125
0.54537999 0.23873033 0.63243450 149 146 146
0.54016823 0.24426724 0.61795062 140 140 136
0.54586345 0.24683208 0.63371977 149 147 140
0.54400867 0.24633515 0.64093198 177 178 163
0.63771855 0.07617857 0.65173514 129 128 129
0.63775836 0.08170677 0.65350875 131 131 130
0.62904400 0.17843777 0.63441761 146 148 142
0.63224043 0.17901088 0.64316384 156 155 153
0.63346672 0.19397590 0.61936224 139 139 134
0.62872063 0.18985709 0.62788840 156 157 150
0.63129734 0.18217466 0.64231715 135 136 135
0.63280877 0.20482616 0.62876099 159 159 152
0.64137111 0.07760152 0.65005009 126 126 122
0.64069837 0.08182265 0.65119413 124 124 120
0.64042969 0.20249378 0.62617161 157 155 147
0.69025393 0.29248504 0.83485478 164 164 159
0.69713878 0.29582865 0.84766234 164 164 159
0.69904393 0.29600868 0.86190987 163 162 158
0.69690075 0.30477711 0.85280694 159 160 155
0.69911091 0.30375813 0.86383608 141 142 142
0.70221823 0.29834371 0.85580003 163 164 157
0.70147210 0.29931596 0.86429641 155 155 152
0.70232728 0.30406399 0.85592791 155 155 151
0.70296408 0.30503774 0.86434461 145 146 145
0.82792627 0.25071915 1.13479391 161 158 152
0.83439548 0.25656031 1.14718779 170 166 163
0.82852376 0.26131055 1.13931406 160 161 153
0.83442051 0.26518319 1.14834159 158 156 151
0.84965098 0.25522906 1.15351117 150 149 145
0.85673978 0.25193027 1.16236726 157 155 152
0.85609275 0.26721817 1.13931406 166 162 159
0.85294688 0.26795591 1.15659117 166 166 161
0.85600601 0.27241030 1.16329283 166 165 160
0.85570032 0.28363672 1.15607890 177 175 168
0.84883785 0.28115892 1.17282331 155 151 148
0.86601073 0.25795614 1.15518095 173 173 165
0.86431681 0.25356231 1.16364270 162 161 155
0.86447711 0.26642166 1.15579714 171 171 165
0.86481198 0.26283927 1.16127236 171 172 165
0.86373013 0.28608392 1.19769251 155 149 147
0.86702397 0.28786421 1.20514965 157 150 148
0.86980997 0.35375584 0.95478608 158 157 150
0.87915939 0.36001328 0.96565789 151 151 143
0.87096035 0.43752643 1.26761821 130 129 129
0.87873581 0.43954280 1.28632224 142 142 141
0.87111481 0.44630378 1.27129691 149 150 146
0.87540851 0.44289980 1.28962342 130 129 129
0.88416713 0.35535114 0.97347108 163 162 154
0.89378740 0.35525214 0.98484371 162 163 154
0.88671450 0.36743620 0.97469651 158 158 152
0.89636178 0.36739339 0.98831085 159 158 151
0.88403605 0.43820664 1.27038699 153 152 144
0.88264871 0.43982324 1.29368675 140 140 140
0.89438419 0.43964023 1.30868125 153 153 149
0.88369179 0.44325862 1.27304754 133 133 131
0.88939484 0.44377319 1.29222822 151 149 143
0.89001910 0.44288533 1.30880584 144 144 141
0.89258158 0.44881531 1.33169189 148 146 145
0.89729601 0.44825047 1.34236014 154 146 147
0.88891486 0.46532197 1.29370177 163 162 153
0.89222896 0.47159159 1.30113602 162 160 151
0.90363066 0.35800895 0.99727114 165 166 159
0.91486643 0.35769969 1.00828532 169 171 166
0.90153325 0.37203202 0.99514827 153 151 146
0.91231044 0.36840737 1.01018603 159 158 152
0.90302867 0.38029864 0.99471039 174 174 164
0.91415399 0.38070548 1.01177883 145 146 140
0.90087461 0.43983009 1.31374383 164 165 158
0.90225887 0.44290450 1.29616034 156 151 145
0.90487047 0.44300373 1.30807048 152 149 142
0.90712390 0.44547623 1.33444195 149 147 144
0.92211977 0.35545552 1.01709400 159 160 156
0.93012889 0.35799319 1.02945983 156 157 151
0.92731845 0.36388267 1.02766315 166 168 164
0.94338191 0.35927582 1.04612935 169 169 160
0.94499697 0.36631927 1.04904193 155 156 152
0.95583310 0.36471579 1.06197210 169 170 160
0.99396333 0.38770153 1.12983759 120 121 121
1.00897167 0.39571794 1.13550995 138 139 140
1.01114696 0.39877688 1.14768736 126 127 128
1.01104315 0.40168607 1.12982182 162 162 161
1.01653470 0.40355799 1.15133853 136 136 138
1.01861119 0.43958271 1.60258114 146 146 144
1.01473673 0.44394685 1.59503961 137 138 138
1.01861119 0.44235265 1.60258114 133 133 132
1.02484251 0.40671202 1.15267384 146 146 146
1.02620408 0.41008685 1.16476950 139 139 139
1.03437694 0.41632131 1.19091862 141 141 139
1.03853565 0.42308514 1.19874871 160 162 154
1.02424371 0.43862624 1.60925868 156 156 152
1.03580270 0.43316897 1.62895667 165 162 159
1.03358055 0.43208616 1.64899641 156 149 147
1.03139299 0.43716219 1.66456136 146 140 140
1.02173567 0.44683616 1.59880149 153 153 153
1.02584256 0.44485674 1.61022299 147 146 145
1.02971047 0.44721985 1.62864373 140 139 138
1.03470329 0.44778936 1.65034366 143 140 140
1.03584901 0.45228807 1.66286039 131 125 126
1.03792477 0.46045944 1.63741994 124 125 128
1.03979933 0.46382046 1.64937186 116 112 118
1.04676813 0.41974461 1.18934256 144 144 144
1.04327488 0.41901937 1.64138460 173 168 162
1.05045016 0.42295159 1.19369241 142 142 142
1.05080615 0.42797054 1.20882573 152 152 148
1.05798042 0.43609761 1.22363544 168 168 163
1.04091269 0.42598382 1.63544714 160 154 152
1.04909495 0.42971629 1.64824145 165 161 157
1.05923927 0.44059017 1.22142673 157 151 149
1.04578582 0.44523164 1.63349326 167 165 161
1.05290413 0.44484737 1.65039712 168 166 161
1.04170132 0.45574385 1.66149962 129 125 129
1.04550087 0.46667126 1.64937186 113 114 118
1.04699534 0.46318595 1.66765332 119 116 121
1.06564527 0.43333599 1.19844694 156 156 154
1.06784406 0.43477840 1.21041183 145 145 143
1.06985070 0.43778276 1.22391106 143 142 141
1.06471581 0.43259348 1.65454973 160 159 156
1.07069799 0.42968477 1.66383524 156 155 150
1.06848764 0.44108719 1.19980860 157 156 153
1.07316235 0.44867214 1.21270951 147 146 143
1.07245446 0.44667263 1.22557460 142 139 137
1.06233966 0.44351855 1.65339470 171 169 163
1.07487161 0.44606464 1.66394901 172 169 164
1.07610743 0.46421345 1.21639451 162 162 159
1.07818333 0.46409302 1.22216165 159 160 158
1.06519830 0.47189686 1.69897699 123 122 123
1.08413410 0.43597540 1.67380702 159 160 153
1.09076738 0.43485700 1.68629813 166 165 162
1.08220384 0.45506186 1.22898122 142 141 139
1.08146328 0.44933388 1.66969448 173 170 164
1.08483674 0.46467485 1.23282652 157 157 155
1.09224304 0.46616017 1.24460038 150 150 148
1.10114396 0.43813905 1.68211377 169 170 163
1.10337341 0.45134106 1.69897699 169 167 163
1.11288575 0.44646213 1.70990592 167 167 162
1.11732956 0.44653982 1.72199698 167 167 163
1.11751306 0.46481043 1.71618187 175 174 169
1.13787806 0.45681235 1.59503961 154 150 138
1.12743628 0.45453658 1.71473730 166 166 163
1.12682323 0.45153036 1.72589841 165 165 161
1.13787806 0.46232617 1.59503961 142 140 133
1.13377237 0.46573551 1.73286324 172 172 168
1.14325809 0.45620230 1.60258114 155 151 142
1.14056182 0.46065316 1.59880149 151 146 137
1.15031923 0.46537547 1.61326878 148 146 138
1.15407884 0.46472437 1.62761265 161 157 146
1.14285604 0.46576237 1.73818421 171 171 169
1.16537007 0.47285397 1.61531226 131 131 130
1.17047764 0.46852228 1.63185084 145 142 137
1.17493474 0.46506770 1.65178952 158 154 147
1.17859530 0.46473710 1.66286039 160 159 151
1.19666655 0.45202781 1.65420322 184 180 173
1.19376899 0.45658155 1.66780496 181 181 173
1.19418073 0.45849082 1.68211377 179 179 172
1.18577468 0.47135891 1.63350266 158 159 157
1.19191048 0.47063123 1.65079261 156 152 149
1.19138483 0.46451071 1.66724312 173 171 164
1.18664694 0.77911437 1.82720172 143 145 138
1.19632065 0.78228194 1.84209740 141 143 136
1.21371218 0.28962942 1.07304412 166 167 158
1.21609918 0.29297968 1.08251174 161 162 155
1.21031570 0.31703879 1.07773221 169 170 159
1.21705037 0.30827723 1.08289707 166 166 160
1.21876997 0.32127577 1.07944560 175 173 163
1.21985626 0.32136637 1.08289433 172 172 162
1.20797946 0.43604458 1.67037481 172 171 162
1.20244491 0.45462954 1.65743732 185 182 174
1.20800730 0.45123572 1.66939214 177 176 169
1.21424105 0.45037284 1.68983748 180 179 171
1.21665978 0.45215316 1.70754701 178 178 170
1.20244491 0.46895328 1.65743732 170 163 160
1.20626040 0.46636269 1.66867900 178 174 167
1.21280366 0.46515768 1.69052436 180 179 171
1.21824872 0.46067789 1.71184814 183 184 175
1.20615339 0.78550154 1.85723794 135 137 130
1.21292170 0.79038850 1.87264367 129 130 126
1.21730687 0.79440536 1.88697416 122 123 121
1.21722920 0.80474833 1.89039381 132 133 130
1.22671681 0.29433250 1.07702827 159 156 151
1.22840368 0.29134677 1.08550886 159 157 150
1.23212480 0.31045444 1.09109220 165 165 159
1.23797226 0.30970935 1.10405838 165 165 160
1.22880175 0.32096599 1.08916638 170 170 159
1.22377169 0.43959486 1.69897699 177 175 162
1.22684658 0.43628350 1.70324588 185 184 173
1.22663948 0.45078055 1.69685328 176 176 167
1.22706202 0.44923206 1.70986299 173 173 163
1.23442787 0.45418053 1.72273036 177 178 168
1.22256255 0.46099237 1.70754701 185 185 177
1.23440031 0.46340907 1.72199698 186 185 177
1.22387364 0.79018458 1.89462531 117 118 117
1.23012953 0.79243166 1.90634217 125 125 125
1.23729122 0.79673824 1.92310125 126 127 127
1.22005403 0.80747984 1.89885676 128 128 126
1.22708356 0.80659997 1.91494870 115 114 113
1.23405962 0.80918453 1.92583528 117 117 116
1.22866046 0.82695451 1.91225159 131 131 130
1.23562926 0.82914296 1.92310125 133 133 133
1.24359709 0.29752430 1.08810890 152 148 145
1.24662322 0.31024847 1.09473176 156 156 150
1.24267242 0.31480594 1.10587356 168 169 162
1.24793684 0.45385282 1.71401501 176 177 169
1.24999899 0.45732175 1.72711575 173 174 165
1.24506885 0.46356997 1.73374441 185 185 176
1.24920714 0.46294364 1.74265254 180 180 171
1.25069880 0.77456790 1.92582905 139 138 134
1.24571000 0.79665365 1.93212196 127 127 125
1.25444746 0.79764138 1.95135269 125 122 120
1.25909448 0.79707611 1.96490383 131 130 126
1.25002453 0.80829458 1.95032565 125 124 124
1.25803955 0.80804448 1.97177153 129 126 126
1.24110734 0.82920891 1.93683386 134 134 132
1.24554884 0.83060838 1.94797149 125 125 123
1.25352966 0.83143741 1.97103570 128 128 126
1.25660145 0.83539677 1.98602649 135 134 132
1.24901011 0.84504210 1.95022347 127 125 124
1.25642972 0.84949853 1.97063007 126 125 123
1.25330550 0.84971723 1.98942006 151 149 141
1.25643528 0.86573541 1.98213995 132 128 126
1.26913595 0.32269830 1.13359845 169 170 163
1.26437557 0.79218686 1.95078808 131 129 124
1.26817893 0.79441663 1.96750322 133 132 127
1.26655686 0.80225422 1.95547163 127 123 118
1.26779068 0.80221593 1.96919614 128 125 121
1.26939058 0.80722920 1.98992451 134 133 129
1.26276478 0.83024083 1.98942292 131 131 130
1.26302981 0.85370195 1.99316520 138 136 130
1.26547509 0.86558681 1.99206612 129 125 124
1.28715479 -0.46469361 1.92310125 96 101 112
1.30149126 -0.78104210 1.45158851 119 124 125
1.31449436 -0.78518653 1.47409048 120 123 124
1.31495508 -0.78980982 1.48184430 118 122 123
1.30149126 -0.77853310 1.45158851 120 124 125
1.31472211 -0.77425390 1.47345454 117 124 124
1.31683341 -0.77592401 1.48011315 117 123 124
1.31140828 -0.46968335 1.93683386 95 100 107
1.31362820 -0.46882958 1.94848859 96 99 109
1.30819913 -0.44793716 1.93086639 94 100 105
1.31019710 -0.45446205 1.94331378 94 98 105
1.30603659 -0.43397968 1.92694511 93 99 105
1.33011144 -0.80759713 1.49392342 119 123 124
1.33652747 -0.81275773 1.50811875 120 124 124
1.32794426 -0.78358928 1.47459521 120 124 125
1.33039944 -0.78981654 1.48321792 119 124 124
1.32528272 -0.77232621 1.47528438 115 124 122
1.32710077 -0.77335457 1.48235977 114 124 122
1.32465267 -0.48119158 1.95640188 94 102 108
1.32748079 -0.48639970 1.97063243 96 104 106
1.32400090 -0.46902016 1.94797310 94 98 107
1.32362187 -0.46969801 1.96490383 96 99 110
1.35019229 -0.82453818 1.50978889 120 124 123
1.35613827 -0.82865041 1.53023513 120 125 125
1.34096658 -0.80164099 1.48987222 120 124 125
1.34560037 -0.81596940 1.50778925 119 123 123
1.34426188 -0.78488979 1.48497844 119 125 124
1.35183561 -0.48268470 1.97636104 95 98 106
1.34945774 -0.49067898 1.98796976 95 101 107
1.35695958 -0.47926873 1.97636104 95 98 107
1.37580717 -0.84603866 1.55243127 119 125 124
1.36014521 -0.83620721 1.51993692 121 127 127
1.36760724 -0.83204353 1.52679121 118 125 125
1.39440608 -0.86187220 1.57649267 117 126 124
1.38957560 -0.85481814 1.57103139 119 125 123
1.40145886 -0.86243957 1.58756876 121 125 125
1.55260503 0.19977173 1.90419054 146 145 145
1.55475712 0.20090038 1.91494870 145 145 145
1.55648935 0.24749154 1.95170756 126 126 124
1.57390726 0.21066232 1.92950562 133 133 134
1.57372543 0.21394124 1.95078808 137 138 138
1.56799650 0.23565363 1.91494870 126 127 127
1.57458225 0.23466197 1.92584774 120 123 123
1.57301593 0.23590774 1.95828392 144 144 143
1.57922173 0.23296537 1.96918786 139 139 138
1.56909978 0.24172167 1.91494870 128 129 130
1.57479189 0.24738332 1.92795614 131 131 132
1.57278020 0.25005758 1.95726108 123 123 123
1.56799650 0.26378721 1.91494870 149 150 150
1.57740014 0.26404340 1.93133454 135 136 136
1.57264467 0.26537120 1.95922494 110 115 114
1.57653384 0.27286568 1.96604624 113 117 117
1.58387306 0.21822348 1.93352301 129 129 129
1.58520021 0.21743942 1.95453600 130 130 131
1.58438857 0.22990901 1.93315862 129 133 133
1.58533378 0.23066108 1.95153099 125 127 127
1.58691174 0.23085322 1.96910149 127 129 129
1.58588427 0.25193919 1.93407482 147 147 146
1.58455334 0.25149666 1.95295096 123 122 123
1.58591640 0.26010662 1.93683386 133 133 132
1.58993759 0.26760987 1.95246899 121 122 123
1.59029144 0.27060239 1.96790058 119 123 124
1.59903204 0.27646887 1.98213995 130 136 137
1.59401269 0.28202721 1.96833768 142 144 144
1.60638070 0.25897878 1.95357883 163 164 156
1.60638070 0.26235539 1.95357883 148 149 145
1.60291016 0.27737084 1.97636104 116 121 120
1.60335958 0.28507966 1.97061586 136 136 136
1.61027950 0.28308114 1.98650801 127 130 130
1.81550326 0.14840235 1.73463237 156 160 151
1.81645280 0.15329164 1.74940121 163 163 159
1.81508172 0.17794434 1.75392753 172 172 165
1.81728895 0.17194201 1.76075804 176 177 171
1.81637728 0.18262939 1.76995254 154 158 156
1.82617413 0.15221555 1.74940954 160 162 155
1.83301045 0.15469090 1.76535533 161 162 157
1.83027900 0.17401586 1.75251815 174 174 165
1.82963867 0.16953179 1.76773749 168 170 165
1.83541864 0.17409742 1.78911848 162 164 160
1.82272291 0.18143779 1.74864876 173 173 162
1.82374795 0.18224258 1.77613854 158 158 155
1.83245599 0.18146536 1.78863287 161 161 157
1.84423634 0.15575984 1.76881841 160 161 155
1.85590196 0.15714794 1.79336464 150 152 149
1.84848811 0.16658791 1.77085849 164 165 159
1.84528518 0.16999641 1.79812157 155 159 155
