ply
format ascii 1.0
element vertex 120
property float x
property float y
property float z
property uchar red
property uchar green
property uchar blue
end_header
0.16511751 -0.17000821 0.97417987 255 12 12
-0.05598427 -0.08252773 0.00553891 255 12 12
-0.05646938 -0.08250751 0.00545080 255 12 12
-0.05696596 -0.08248737 0.00536723 255 12 12
-0.05753626 -0.08246494 0.00527945 255 12 12
-0.05792204 -0.08236540 0.00421926 255 12 12
-0.05922103 -0.08250851 0.00632331 255 12 12
-0.05971704 -0.08255460 0.00702525 255 12 12
-0.06025468 -0.08259973 0.00772881 255 12 12
-0.06072885 -0.08260533 0.00794357 255 12 12
-0.06122082 -0.08263191 0.00841278 255 12 12
-0.06537015 -0.08366167 0.02192686 255 12 12
-0.06699145 -0.08368096 0.02266276 255 12 12
-0.06822259 -0.08371420 0.02344218 255 12 12
-0.06855205 -0.08369107 0.02327078 255 12 12
-0.06866819 -0.08373423 0.02381921 255 12 12
-0.07001155 -0.08364606 0.02319331 255 12 12
-0.07098599 -0.08360543 0.02301612 255 12 12
-0.07123360 -0.08367504 0.02391941 255 12 12
-0.08152626 -0.08214380 0.00897329 255 12 12
-0.08190112 -0.08217492 0.00945982 255 12 12
-0.08263704 -0.08214217 0.00930146 255 12 12
-0.08350834 -0.08208898 0.00894301 255 12 12
-0.08425156 -0.08203342 0.00851631 255 12 12
-0.08458379 -0.08206645 0.00901202 255 12 12
-0.08463695 -0.08214236 0.00992928 255 12 12
-0.08535733 -0.08211276 0.00980336 255 12 12
-0.08592628 -0.08210457 0.00988418 255 12 12
-0.08580003 -0.08220252 0.01100672 255 12 12
-0.08607632 -0.08223743 0.01150732 255 12 12
-0.08635193 -0.08227303 0.01201585 255 12 12
-0.08618140 -0.08237169 0.01313292 255 12 12
-0.08689117 -0.08234603 0.01305048 255 12 12
-0.08729442 -0.08236229 0.01336955 255 12 12
-0.08737534 -0.08241985 0.01407762 255 12 12
-0.08979918 -0.08225377 0.01286555 255 12 12
-0.09053804 -0.08223322 0.01285282 255 12 12
-0.09111285 -0.08223362 0.01303746 255 12 12
-0.09185088 -0.08221467 0.01304343 255 12 12
-0.09242785 -0.08221688 0.01325006 255 12 12
-0.09281997 -0.08223897 0.01363478 255 12 12
-0.09285778 -0.08230082 0.01438041 255 12 12
-0.09285782 -0.08236126 0.01509742 255 12 12
-0.09267652 -0.08244171 0.01599515 255 12 12
-0.09247682 -0.08252184 0.01688319 255 12 12
-0.09282122 -0.08254520 0.01726813 255 12 12
-0.09095395 -0.08289620 0.02084797 255 12 12
-0.09125243 -0.08291971 0.02122022 255 12 12
-0.09114954 -0.08297964 0.02189907 255 12 12
-0.09163410 -0.08298592 0.02212512 255 12 12
-0.09171324 -0.08302827 0.02265227 255 12 12
-0.09198748 -0.08305325 0.02303442 255 12 12
-0.09306951 -0.08300848 0.02284173 255 12 12
-0.09745712 -0.08280452 0.02179442 255 12 12
-0.09796149 -0.08281977 0.02213310 255 12 12
-0.09867221 -0.08281892 0.02234530 255 12 12
-0.09981666 -0.08278705 0.02232522 255 12 12
-0.10009480 -0.08282103 0.02281535 255 12 12
-0.10328866 -0.08270406 0.02242674 255 12 12
-0.10630372 -0.08261420 0.02230376 255 12 12
-0.10637253 -0.08267290 0.02302155 255 12 12
-0.10710121 -0.08268602 0.02340522 255 12 12
-0.10486314 -0.08294301 0.02575390 255 12 12
-0.09844598 -0.08351825 0.03057082 255 12 12
-0.10745620 -0.08323072 0.02997812 255 12 12
-0.09715108 -0.08400614 0.03595381 255 12 12
-0.09871407 -0.08397745 0.03610231 255 12 12
-0.09929865 -0.08399423 0.03648424 255 12 12
-0.09865374 -0.08406505 0.03712268 255 12 12
-0.09799497 -0.08413299 0.03772255 255 12 12
-0.09757234 -0.08418928 0.03825822 255 12 12
-0.09992627 -0.08418071 0.03889275 255 12 12
-0.09948535 -0.08423800 0.03943446 255 12 12
-0.60308004 -0.06836813 0.00868202 255 12 12
-0.59678051 -0.06918172 0.01636336 255 12 12
-0.58786924 -0.07004486 0.02381564 255 12 12
-0.57810872 -0.07092322 0.03118295 255 12 12
-0.57223679 -0.07162639 0.03768809 255 12 12
-0.56678268 -0.07234065 0.04445559 255 12 12
-0.56273987 -0.07299588 0.05096422 255 12 12
-0.56185699 -0.07357813 0.05759536 255 12 12
-0.58252070 -0.07427545 0.07233111 255 12 12
-0.58284774 -0.07485399 0.07929668 255 12 12
-0.57934413 -0.07550859 0.08596640 255 12 12
-0.57202266 -0.07622622 0.09218981 255 12 12
-0.56388185 -0.07694275 0.09814381 255 12 12
-0.55691359 -0.07762367 0.10404226 255 12 12
-0.55210631 -0.07825847 0.11006937 255 12 12
-0.54828363 -0.07897309 0.11735136 255 12 12
-0.54376566 -0.07960968 0.12349023 255 12 12
-0.54040049 -0.08022530 0.12974085 255 12 12
-0.54014347 -0.08080498 0.13653730 255 12 12
-0.54068507 -0.08131176 0.14271878 255 12 12
-0.54100248 -0.08188145 0.14957637 255 12 12
-0.54417080 -0.08242549 0.15702136 255 12 12
-0.54816118 -0.08298811 0.16494402 255 12 12
-0.55161045 -0.08354269 0.17260192 255 12 12
-0.55610775 -0.08411851 0.18083971 255 12 12
-0.55999079 -0.08471064 0.18907876 255 12 12
-0.56039531 -0.08531834 0.19641452 255 12 12
-0.56107988 -0.08595746 0.20421062 255 12 12
-0.56168844 -0.08659121 0.21191926 255 12 12
-0.59590647 -0.08802368 0.23961565 255 12 12
-0.59534274 -0.08870264 0.24749400 255 12 12
-0.06788742 -0.16915710 1.03696240 255 12 12
-0.05434574 -0.16902623 1.03117431 255 12 12
-0.04092861 -0.16900270 1.02669853 255 12 12
-0.02753192 -0.16919428 1.02478103 255 12 12
-0.01398986 -0.16924744 1.02117600 255 12 12
-0.00087088 -0.16919154 1.01640944 255 12 12
0.01214702 -0.16913925 1.01171744 255 12 12
0.02509442 -0.16911243 1.00734955 255 12 12
0.03804161 -0.16915470 1.00380141 255 12 12
0.05099745 -0.16924524 1.00082314 255 12 12
0.06389146 -0.16931956 0.99767174 255 12 12
0.07679381 -0.16942113 0.99484114 255 12 12
0.09086115 -0.16947957 0.99113448 255 12 12
0.10381591 -0.16950687 0.98740629 255 12 12
0.11683768 -0.16958301 0.98423660 255 12 12
0.12990457 -0.16968645 0.98137667 255 12 12
